<svg width="31" height="30" viewBox="0 0 31 30" fill="none" xmlns="http://www.w3.org/2000/svg">
<circle cx="15.5" cy="15" r="15" fill="white"/>
<g clip-path="url(#clip0_112_38)">
<path d="M23.0643 18.7424L20.8315 16.5095C20.034 15.7121 18.6784 16.0311 18.3594 17.0678C18.1202 17.7855 17.3227 18.1842 16.605 18.0247C15.0101 17.626 12.857 15.5526 12.4583 13.878C12.2191 13.1602 12.6975 12.3628 13.4152 12.1236C14.4519 11.8046 14.7709 10.449 13.9734 9.65151L11.7406 7.41866C11.1026 6.86045 10.1457 6.86045 9.58749 7.41866L8.07235 8.93381C6.5572 10.5287 8.23184 14.7552 11.9798 18.5032C15.7278 22.2511 19.9543 24.0056 21.5492 22.4106L23.0643 20.8955C23.6226 20.2575 23.6226 19.3006 23.0643 18.7424Z" fill="#455A64"/>
</g>
<defs>
<clipPath id="clip0_112_38">
<rect width="16" height="16" fill="white" transform="translate(7.5 7)"/>
</clipPath>
</defs>
</svg>
