<svg width="111" height="111" viewBox="0 0 111 111" fill="none" xmlns="http://www.w3.org/2000/svg">
<g filter="url(#filter0_d_318_6)">
<g filter="url(#filter1_d_318_6)">
<rect width="70.6689" height="70.6689" rx="4" transform="matrix(-0.988018 0.154341 0.154341 0.988018 82.8223 13)" fill="white"/>
</g>
<g filter="url(#filter2_d_318_6)">
<rect width="70.6689" height="70.6689" rx="4" transform="matrix(-0.988018 0.154341 0.154341 0.988018 82.8223 13)" fill="white"/>
</g>
</g>
<g clip-path="url(#clip0_318_6)">
<path d="M70.3195 35.6749C79.886 45.2414 79.886 60.7517 70.3195 70.3182C60.753 79.8846 45.2427 79.8846 35.6762 70.3182C26.1097 60.7517 26.1097 45.2414 35.6762 35.6749C45.2427 26.1084 60.753 26.1084 70.3195 35.6749Z" fill="white" stroke="#191A1D"/>
<path d="M40.876 52.0389C40.5614 52.64 39.3731 53.8563 39.3731 53.8563L37.2761 63.7752L35.906 70.248C34.2144 68.5774 32.7675 66.6551 31.6211 64.5511C31.7889 64.0269 31.9706 63.4816 32.1453 62.9294C33.6272 58.33 35.3328 53.0035 35.4586 52.4793C35.6823 51.5426 34.8645 46.9501 35.0532 46.1043C35.2489 45.2655 39.436 44.2729 40.3447 44.2869C41.2534 44.3009 41.1835 51.4447 40.876 52.0389Z" fill="#FDB9B9"/>
<path d="M44.1545 62.9644C44.1545 62.9644 44.1545 62.9783 44.1475 62.9993L43.2668 72.0375L42.9592 75.1271C42.5677 74.9453 42.1763 74.7566 41.7919 74.5609C39.6179 73.4215 37.6328 71.9606 35.9062 70.248C34.2146 68.5774 32.7677 66.6551 31.6213 64.5511C31.2997 63.95 30.9992 63.3278 30.7266 62.6987L32.1455 62.9294L37.2763 63.7752L38.3807 63.9569L37.0875 70.227C37.0875 70.227 41.7919 63.6773 44.1545 62.9644Z" fill="#006D2C"/>
<path d="M74.7083 63.908C74.3797 64.565 74.0162 65.2011 73.6318 65.8233C73.3312 66.3056 73.0167 66.7809 72.6741 67.2422C71.2552 69.2065 69.5426 70.947 67.6063 72.4079C67.166 72.7434 66.7116 73.058 66.2433 73.3655C64.3769 74.5888 62.3288 75.5534 60.1549 76.2245C57.8901 76.9235 55.4925 77.301 53.0041 77.301C49.4252 77.301 46.021 76.5251 42.9593 75.127C42.5679 74.9453 42.1764 74.7566 41.792 74.5608C42.7706 67.5708 44.0218 63.4047 44.1476 62.9993C44.1546 62.9783 44.1546 62.9643 44.1546 62.9643C46.6711 62.2443 49.2434 61.7201 51.8437 61.3985C51.8857 61.3985 51.9206 61.3985 51.9626 61.3985H51.9695C55.7022 61.105 59.4629 61.0211 63.2166 61.1609H63.2515C65.8518 61.2308 68.4382 61.4824 71.0035 61.9298C71.339 62.0696 73.0586 62.7826 74.7083 63.915V63.908Z" fill="#006D2C"/>
<path opacity="0.3" d="M74.7083 63.908C74.3797 64.565 74.0162 65.2011 73.6318 65.8233C73.3312 66.3056 73.0167 66.7809 72.6741 67.2422C71.2552 69.2065 69.5426 70.947 67.6063 72.4079C67.166 72.7434 66.7116 73.058 66.2433 73.3655C64.3769 74.5888 62.3288 75.5534 60.1549 76.2245C57.8901 76.9235 55.4925 77.301 53.0041 77.301C49.4252 77.301 46.021 76.5251 42.9593 75.127C42.5679 74.9453 42.1764 74.7566 41.792 74.5608C42.7706 67.5708 44.0218 63.4047 44.1476 62.9993C44.1546 62.9783 44.1546 62.9643 44.1546 62.9643C46.6711 62.2443 49.2434 61.7201 51.8437 61.3985C51.8857 61.3985 51.9206 61.3985 51.9626 61.3985H51.9695C55.7022 61.105 59.4629 61.0211 63.2166 61.1609H63.2515C65.8518 61.2308 68.4382 61.4824 71.0035 61.9298C71.339 62.0696 73.0586 62.7826 74.7083 63.915V63.908Z" fill="black"/>
<path opacity="0.8" d="M67.6063 72.4079C67.166 72.7434 66.7116 73.058 66.2433 73.3655C64.3769 74.5888 62.3288 75.5534 60.1549 76.2245C57.8901 76.9235 55.4925 77.301 53.0041 77.301C49.4252 77.301 46.021 76.5251 42.9593 75.127C42.5679 74.9453 42.1764 74.7566 41.792 74.5609C41.8269 74.3511 41.8549 74.1484 41.8829 73.9527C42.2883 73.3236 42.7496 72.6805 43.2669 72.0374C45.7693 68.843 49.2923 65.6205 51.0748 64.0618C51.5711 64.6769 52.4169 65.2011 53.794 65.4738C56.0867 65.9211 58.708 64.8516 60.8819 63.5585C61.8605 64.5301 63.3354 66.0749 64.6915 67.7595C65.712 69.0317 66.6557 70.3808 67.2708 71.632C67.3966 71.8976 67.5085 72.1563 67.6063 72.4079Z" fill="white"/>
<path d="M63.2512 61.1888C63.2512 61.1888 60.4062 64.6979 54.9749 64.9425C50.2706 65.1522 51.8434 61.4335 51.8434 61.4335C53.5699 60.9861 54.5275 60.1753 55.0099 59.1897C55.618 57.9245 55.4363 56.3587 55.0518 54.8209C55.0238 54.716 54.9959 54.6042 54.9679 54.4993L61.8462 48.376C61.2101 52.0598 60.6369 58.7982 63.2582 61.1958L63.2512 61.1888Z" fill="#FDB9B9"/>
<path opacity="0.2" d="M60.7068 53.7654C60.3433 56.128 57.4704 58.4487 55.0029 59.1827C55.6111 57.9175 55.4293 56.3517 55.0449 54.8139L60.7418 50.4521C60.9375 51.5565 60.9305 52.6749 60.7068 53.7724V53.7654Z" fill="black"/>
<path d="M56.2547 40.4144C57.8834 42.2597 56.4085 44.2938 51.0401 46.7124C49.8308 43.8954 50.6906 39.254 52.4241 38.4781C54.1576 37.6952 54.8287 38.8206 56.2547 40.4213V40.4144Z" fill="#263238"/>
<path d="M63.8036 46.2581C62.3567 51.0253 61.7555 53.8843 58.7219 55.7925C54.1643 58.6585 48.7121 55.0236 48.7051 49.9209C48.7051 45.3354 51.0607 38.3034 56.2544 37.5065C59.9591 36.9194 63.4471 39.4428 64.0343 43.1475C64.2021 44.189 64.1182 45.2515 63.8036 46.2581Z" fill="#FDB9B9"/>
<path d="M56.2618 45.8666C56.1709 46.258 55.8844 46.5306 55.6257 46.4677C55.3671 46.4048 55.2413 46.0413 55.3321 45.6499C55.423 45.2585 55.7026 44.9858 55.9612 45.0418C56.2199 45.0977 56.3247 45.4751 56.2618 45.8666Z" fill="#263238"/>
<path d="M51.7875 44.8111C51.6966 45.2025 51.41 45.4752 51.1514 45.4122C50.8928 45.3493 50.76 44.9858 50.8508 44.5874C50.9417 44.189 51.2283 43.9234 51.4869 43.9863C51.7456 44.0492 51.8784 44.4196 51.7875 44.8111Z" fill="#263238"/>
<path d="M53.1998 45.3494C52.4449 46.4398 51.5432 47.4254 50.5156 48.2712C51.0748 49.0891 52.3191 49.0681 52.3191 49.0681L53.1998 45.3494Z" fill="#892B29"/>
<path d="M57.8201 44.7482C57.8691 44.7692 57.925 44.7692 57.9739 44.7482C58.0927 44.6993 58.1487 44.5595 58.0997 44.4336C57.8061 43.7207 57.191 43.2034 56.4431 43.0286C56.3173 43.0007 56.1984 43.0846 56.1705 43.2104V43.2244C56.1565 43.3502 56.2404 43.469 56.3662 43.497C56.9534 43.6368 57.4357 44.0562 57.6594 44.6154C57.6943 44.6783 57.7502 44.7202 57.8201 44.7412V44.7482Z" fill="#263238"/>
<path d="M50.1028 42.8189C50.1936 42.8399 50.2845 42.8049 50.3474 42.735C50.7179 42.2527 51.2911 41.9801 51.8992 41.9941C52.032 42.0081 52.1439 41.9102 52.1579 41.7844C52.1718 41.6586 52.081 41.5397 51.9482 41.5258C51.1792 41.4908 50.4453 41.8333 49.977 42.4415C49.8931 42.5393 49.9071 42.6861 50.0049 42.77C50.0329 42.791 50.0608 42.8049 50.0958 42.8189H50.1028Z" fill="#263238"/>
<path d="M62.8954 41.5118C60.4489 41.7494 60.1483 44.2519 62.448 49.6692C65.2511 48.425 67.7745 44.4336 67.0265 42.6861C66.2786 40.9386 65.0274 41.3091 62.8954 41.5118Z" fill="#263238"/>
<path d="M65.1946 50.6758C64.5794 51.7662 63.5589 52.5701 62.3496 52.9126C60.7489 53.346 59.959 51.906 60.4133 50.4032C60.8258 49.0471 62.1539 47.1877 63.7546 47.4184C65.3553 47.6491 65.9425 49.3267 65.1946 50.6758Z" fill="#FDB9B9"/>
<path d="M58.1975 39.4987C58.1975 39.4987 57.6872 44.5105 62.2587 46.0064C66.8302 47.5023 68.5638 44.881 68.5638 44.881C68.5638 44.881 67.8228 44.8041 67.3964 44.6853C67.3964 44.6853 69.3537 42.6861 68.5708 40.0718C67.7879 37.4576 63.7546 33.9136 60.0009 34.2491C60.0009 34.2491 57.0302 32.1661 53.3254 33.2216C49.6207 34.2701 49.1523 38.4991 49.1523 38.4991C49.1523 38.4991 49.6416 35.9827 51.3193 35.6751C51.3193 35.6751 48.1598 40.3025 50.5993 42.3716C50.5993 42.3716 52.1581 37.4226 58.1835 39.4987H58.1975Z" fill="#263238"/>
<path d="M51.4658 50.8785C51.8782 51.4517 52.3955 52.5841 52.3955 52.5841C52.5073 52.5561 52.6192 52.5282 52.724 52.4932C54.2129 52.0738 54.7651 51.3818 54.9259 50.7457C55.0098 50.3962 54.9748 50.0607 54.9119 49.802C54.842 49.4945 54.7232 49.2917 54.7232 49.2917C54.0661 49.9908 52.7031 50.4871 51.9691 50.7247C51.6615 50.8296 51.4658 50.8785 51.4658 50.8785Z" fill="#263238"/>
<path d="M51.9688 50.7317L52.2553 51.228C53.6603 50.8296 54.597 50.3543 54.9116 49.809C54.8417 49.5015 54.7228 49.2988 54.7228 49.2988C54.0658 49.9978 52.7027 50.4941 51.9688 50.7317Z" fill="white"/>
<path d="M52.7238 52.4932C54.2127 52.0738 54.7649 51.3818 54.9257 50.7457C54.4224 50.9064 53.8352 51.1651 53.3599 51.5425C52.9964 51.8291 52.8147 52.1716 52.7168 52.4932H52.7238Z" fill="#DE5753"/>
</g>
<defs>
<filter id="filter0_d_318_6" x="9.56934" y="13.5688" width="87.5908" height="87.5915" filterUnits="userSpaceOnUse" color-interpolation-filters="sRGB">
<feFlood flood-opacity="0" result="BackgroundImageFix"/>
<feColorMatrix in="SourceAlpha" type="matrix" values="0 0 0 0 0 0 0 0 0 0 0 0 0 0 0 0 0 0 127 0" result="hardAlpha"/>
<feOffset dy="4"/>
<feGaussianBlur stdDeviation="2"/>
<feComposite in2="hardAlpha" operator="out"/>
<feColorMatrix type="matrix" values="0 0 0 0 0 0 0 0 0 0 0 0 0 0 0 0 0 0 0.25 0"/>
<feBlend mode="normal" in2="BackgroundImageFix" result="effect1_dropShadow_318_6"/>
<feBlend mode="normal" in="SourceGraphic" in2="effect1_dropShadow_318_6" result="shape"/>
</filter>
<filter id="filter1_d_318_6" x="0.569336" y="0.568848" width="109.591" height="109.591" filterUnits="userSpaceOnUse" color-interpolation-filters="sRGB">
<feFlood flood-opacity="0" result="BackgroundImageFix"/>
<feColorMatrix in="SourceAlpha" type="matrix" values="0 0 0 0 0 0 0 0 0 0 0 0 0 0 0 0 0 0 127 0" result="hardAlpha"/>
<feOffset dx="2" dy="2"/>
<feGaussianBlur stdDeviation="7.5"/>
<feComposite in2="hardAlpha" operator="out"/>
<feColorMatrix type="matrix" values="0 0 0 0 0.8 0 0 0 0 0.8 0 0 0 0 0.8 0 0 0 0.3 0"/>
<feBlend mode="normal" in2="BackgroundImageFix" result="effect1_dropShadow_318_6"/>
<feBlend mode="normal" in="SourceGraphic" in2="effect1_dropShadow_318_6" result="shape"/>
</filter>
<filter id="filter2_d_318_6" x="0.569336" y="0.568848" width="109.591" height="109.591" filterUnits="userSpaceOnUse" color-interpolation-filters="sRGB">
<feFlood flood-opacity="0" result="BackgroundImageFix"/>
<feColorMatrix in="SourceAlpha" type="matrix" values="0 0 0 0 0 0 0 0 0 0 0 0 0 0 0 0 0 0 127 0" result="hardAlpha"/>
<feOffset dx="2" dy="2"/>
<feGaussianBlur stdDeviation="7.5"/>
<feComposite in2="hardAlpha" operator="out"/>
<feColorMatrix type="matrix" values="0 0 0 0 0.8 0 0 0 0 0.8 0 0 0 0 0.8 0 0 0 0.3 0"/>
<feBlend mode="normal" in2="BackgroundImageFix" result="effect1_dropShadow_318_6"/>
<feBlend mode="normal" in="SourceGraphic" in2="effect1_dropShadow_318_6" result="shape"/>
</filter>
<clipPath id="clip0_318_6">
<rect width="50" height="50" fill="white" transform="translate(28 28)"/>
</clipPath>
</defs>
</svg>
