<svg width="459" height="391" viewBox="0 0 459 391" fill="none" xmlns="http://www.w3.org/2000/svg">
<path d="M371.141 319.92V340.66H401.471H434.941V319.92H371.141Z" fill="#F5F5F5"/>
<path d="M368.46 314.12V319.92H437.17V314.12H401.47H368.46Z" fill="#EBEBEB"/>
<path d="M402.811 340.66H434.941V319.92H437.171V314.12H401.471V319.38L402.811 340.66Z" fill="#E0E0E0"/>
<path d="M393.001 323.26H380.061V326.38H393.001V323.26Z" fill="#E0E0E0"/>
<path d="M395.001 330.29H378.391V336.88H395.001V330.29Z" fill="#E0E0E0"/>
<path d="M448.94 390.58L447.42 67.6797H441.17V131.28H425.02L424.72 67.6897H418.47V131.28H362.91L362.61 67.6897H356.36V131.28H340.26L339.96 67.6897H333.71V390.58H341.48L341.28 347.25H356.36V390.58H364.14L363.93 347.28H418.47V390.58H426.24L426.04 347.25H441.17V390.58H448.94ZM348.41 304.46L342.82 280.52H354.29L348.41 304.46ZM356.36 281.99V338.53L349.59 309.53L356.36 281.99ZM356.36 199.81L349.59 170.81L356.36 143.28V199.81ZM355.15 205H341.15L348.31 175.87L355.15 205ZM348.41 165.74L342.01 138.28H355.15L348.41 165.74ZM347.17 170.8L340.56 197.63L340.3 141.4L347.17 170.8ZM340.97 282.98L347.17 309.52L341.17 333.74L340.97 282.98ZM348.35 314.59L354.35 340.19H342.06L348.35 314.59ZM341.18 273.47L341.13 273.25H340.93L340.64 212.02H356.36V273.43L341.18 273.47ZM363.29 212.06H418.47V273.47H363.56L363.29 212.06ZM432.72 175.87L439.52 205H425.56L432.72 175.87ZM425.32 196.08L425.07 143.08L431.56 170.79L425.32 196.08ZM441.17 201.68L433.96 170.81L441.17 141.49V201.68ZM441.17 204.9V205H440.73L441.17 204.9ZM441.17 283.67V336.76L434.81 309.53L441.17 283.67ZM433.63 304.46L428.04 280.52H439.56L433.63 304.46ZM432.78 165.74L426.38 138.28H439.56L432.78 165.74ZM441.17 212.06V273.47H426.4V273.25L425.74 273.4L425.45 212.06H441.17ZM432.39 309.52L425.98 335.57L425.73 280.97L432.39 309.52ZM433.57 314.59L439.57 340.19H427.28L433.57 314.59ZM418.47 138.28V204.96H363.26L362.95 138.28H418.47ZM364.9 340.19H363.9L363.62 280.52H418.47V340.19H364.9Z" fill="#EBEBEB"/>
<path d="M364.891 205.32V198.03H416.361L416.521 205.32H364.891Z" fill="#E0E0E0"/>
<path d="M416.39 199.22C416.39 199.22 370.74 199.56 367.78 200.22C367.14 200.37 366.5 203.22 367.78 203.43C369.06 203.64 416.39 204.07 416.39 204.07V199.22Z" fill="white"/>
<path d="M370.87 197.74V190.46H411.64L411.77 197.74H370.87Z" fill="#EBEBEB"/>
<path d="M411.661 191.65C411.661 191.65 375.501 191.98 373.161 192.65C372.651 192.8 372.161 195.6 373.161 195.86C374.161 196.12 411.661 196.5 411.661 196.5V191.65Z" fill="white"/>
<path d="M370.69 190.54V183.26H411.46L411.59 190.54H370.69Z" fill="#E0E0E0"/>
<path d="M411.48 184.45C411.48 184.45 375.32 184.78 372.98 185.45C372.47 185.6 371.98 188.45 372.98 188.66C373.98 188.87 411.48 189.3 411.48 189.3V184.45Z" fill="white"/>
<path d="M418.471 83.0197H408.141V131.15H418.471V83.0197Z" fill="#E0E0E0"/>
<path d="M415.561 119.6C415.56 119.993 415.444 120.378 415.227 120.705C415.009 121.033 414.7 121.289 414.337 121.442C413.974 121.595 413.575 121.637 413.188 121.564C412.802 121.491 412.446 121.305 412.164 121.031C411.882 120.756 411.688 120.404 411.605 120.02C411.523 119.635 411.555 119.235 411.699 118.868C411.843 118.502 412.091 118.186 412.413 117.961C412.736 117.735 413.117 117.61 413.511 117.6C414.046 117.6 414.56 117.809 414.943 118.182C415.326 118.556 415.547 119.065 415.561 119.6Z" fill="white"/>
<path d="M415 95.7697H411.84V115.44H415V95.7697Z" fill="white"/>
<path d="M407.98 83.0197H397.65V131.15H407.98V83.0197Z" fill="#EBEBEB"/>
<path d="M403.021 121.65C404.153 121.65 405.071 120.732 405.071 119.6C405.071 118.468 404.153 117.55 403.021 117.55C401.889 117.55 400.971 118.468 400.971 119.6C400.971 120.732 401.889 121.65 403.021 121.65Z" fill="white"/>
<path d="M404.511 95.7697H401.351V115.44H404.511V95.7697Z" fill="white"/>
<path d="M397.99 83.0197H387.66V131.15H397.99V83.0197Z" fill="#F5F5F5"/>
<path d="M395.08 119.6C395.08 119.995 394.963 120.382 394.743 120.711C394.523 121.04 394.211 121.296 393.845 121.447C393.48 121.599 393.078 121.638 392.69 121.561C392.302 121.484 391.946 121.294 391.666 121.014C391.386 120.734 391.196 120.378 391.119 119.99C391.041 119.602 391.081 119.2 391.232 118.834C391.384 118.469 391.64 118.157 391.969 117.937C392.298 117.717 392.684 117.6 393.08 117.6C393.606 117.612 394.108 117.827 394.48 118.2C394.853 118.572 395.067 119.073 395.08 119.6Z" fill="white"/>
<path d="M394.52 95.7697H391.36V115.44H394.52V95.7697Z" fill="white"/>
<path d="M418.471 225.46H408.141V273.59H418.471V225.46Z" fill="#E0E0E0"/>
<path d="M415.561 262.05C415.56 262.443 415.444 262.828 415.227 263.155C415.009 263.483 414.7 263.739 414.337 263.892C413.974 264.045 413.575 264.087 413.188 264.014C412.802 263.941 412.446 263.755 412.164 263.481C411.882 263.206 411.688 262.854 411.605 262.47C411.523 262.085 411.555 261.685 411.699 261.318C411.843 260.952 412.091 260.636 412.413 260.411C412.736 260.185 413.117 260.06 413.511 260.05C413.777 260.043 414.043 260.09 414.291 260.187C414.54 260.285 414.766 260.431 414.957 260.618C415.148 260.804 415.3 261.027 415.404 261.273C415.507 261.519 415.561 261.783 415.561 262.05Z" fill="white"/>
<path d="M415 238.22H411.84V257.89H415V238.22Z" fill="white"/>
<path d="M407.98 225.46H397.65V273.59H407.98V225.46Z" fill="#EBEBEB"/>
<path d="M405.07 262.05C405.07 262.443 404.954 262.828 404.736 263.155C404.519 263.483 404.209 263.739 403.847 263.892C403.484 264.045 403.085 264.087 402.698 264.014C402.312 263.941 401.955 263.755 401.674 263.481C401.392 263.206 401.198 262.854 401.115 262.47C401.032 262.085 401.065 261.685 401.209 261.318C401.352 260.952 401.601 260.636 401.923 260.411C402.245 260.185 402.627 260.06 403.02 260.05C403.287 260.043 403.553 260.09 403.801 260.187C404.049 260.285 404.276 260.431 404.467 260.618C404.658 260.804 404.81 261.027 404.913 261.273C405.017 261.519 405.07 261.783 405.07 262.05Z" fill="white"/>
<path d="M404.511 238.22H401.351V257.89H404.511V238.22Z" fill="white"/>
<path d="M397.99 225.46H387.66V273.59H397.99V225.46Z" fill="#F5F5F5"/>
<path d="M395.08 262.05C395.08 262.445 394.963 262.832 394.743 263.161C394.523 263.49 394.211 263.746 393.845 263.897C393.48 264.049 393.078 264.088 392.69 264.011C392.302 263.934 391.946 263.744 391.666 263.464C391.386 263.184 391.196 262.828 391.119 262.44C391.041 262.052 391.081 261.65 391.232 261.284C391.384 260.919 391.64 260.607 391.969 260.387C392.298 260.167 392.684 260.05 393.08 260.05C393.61 260.05 394.119 260.26 394.494 260.635C394.869 261.011 395.08 261.519 395.08 262.05Z" fill="white"/>
<path d="M394.52 238.22H391.36V257.89H394.52V238.22Z" fill="white"/>
<path d="M374.89 130.41L387.3 88.0697L383.02 86.1997L370.29 128.88L374.89 130.41Z" fill="#E0E0E0"/>
<path d="M82.3906 132.87H32.8506V197.46L82.3906 198.71V132.87Z" fill="#EBEBEB"/>
<path d="M79.13 135.17H35.79V193.75L79.13 195.21V135.17Z" fill="white"/>
<path d="M71.5403 145.81L42.7803 144.72V185.66H71.5403V145.81Z" fill="#EBEBEB"/>
<path d="M42.7803 185.66L71.5403 164.63L42.7803 144.72V185.66Z" fill="#F5F5F5"/>
<path d="M123.99 381.1C122.81 380.1 120.17 376.89 122.21 373.17C122.95 371.8 124.54 371.12 125.97 370.52C127.449 370.029 128.842 369.31 130.1 368.39C132.34 366.5 132.96 363.34 134.45 360.81C136.16 357.91 139.34 355.73 142.71 355.88C146.56 356.06 149.78 359.19 151.24 362.77C152.7 366.35 152.75 370.31 152.77 374.17C152.77 376.3 152.7 378.7 151.12 380.17C149.54 381.64 147.49 381.51 145.52 381.45L124.45 380.81" fill="#F5F5F5"/>
<path d="M160.891 331.08H110.561L119.561 384.93C119.746 386.056 120.25 387.106 121.011 387.956C121.773 388.806 122.761 389.422 123.861 389.73L124.031 389.78C124.178 389.826 124.328 389.863 124.481 389.89C124.81 389.959 125.144 389.999 125.481 390.01H125.731H148.181C148.594 390.011 149.006 389.971 149.411 389.89C150.722 389.699 151.934 389.08 152.857 388.129C153.779 387.177 154.361 385.947 154.511 384.63L158.881 347.52L159.081 346.04L160.811 331.35L160.891 331.08ZM151.391 365.43H146.221L146.741 349.8H152.741L151.391 365.43ZM153.231 349.8H158.231L156.391 365.43H151.941L153.231 349.8ZM138.471 382.8L138.151 369.22H145.561L145.101 382.8H138.471ZM130.471 369.22H137.701L138.021 382.8H131.531L130.471 369.22ZM131.031 382.8H124.961C124.391 379.13 123.641 374.37 122.831 369.22H129.971L131.031 382.8ZM130.181 365.47L128.961 349.84H137.251L137.611 365.47H130.181ZM138.121 365.47L137.751 349.84H146.291L145.771 365.47H138.121ZM137.671 346.09L137.331 331.62H146.901L146.421 346.09H137.671ZM137.171 346.09H128.661L127.531 331.62H136.831L137.171 346.09ZM128.171 346.09H119.171C118.861 344.09 118.551 342.2 118.281 340.5C117.341 334.65 116.991 332.45 116.791 331.62H127.041L128.171 346.09ZM128.461 349.84L129.681 365.47H122.241C121.991 363.89 121.741 362.28 121.491 360.68C120.901 356.99 120.321 353.3 119.771 349.84H128.461ZM121.741 365.47H116.881L114.241 349.84H119.241C119.971 354.63 120.821 360.01 121.681 365.43L121.741 365.47ZM122.331 369.22L124.471 382.8H119.801L117.511 369.22H122.331ZM145.701 382.8L146.161 369.22H151.161L149.991 382.8H145.701ZM146.931 346.09L147.411 331.62H154.411L153.161 346.09H146.931ZM116.261 331.58C116.461 332.63 117.381 338.32 118.611 346.05H113.561L111.121 331.58H116.261ZM154.261 382.76H150.371L151.561 369.18H155.891L154.261 382.76ZM158.581 346.05H153.561L154.801 331.58H160.331L158.581 346.05Z" fill="#EBEBEB"/>
<path d="M13.2604 303.34C14.1504 303.49 15.1504 303.71 16.2604 303.82C17.3704 303.93 18.6104 304.12 19.9404 304.18C21.2704 304.24 22.6804 304.28 24.1704 304.3C27.4088 304.229 30.6362 303.895 33.8204 303.3C36.9943 302.664 40.1112 301.771 43.1404 300.63C44.5204 300.06 45.8404 299.55 47.0204 298.94C48.2004 298.33 49.3204 297.79 50.3004 297.24C51.2804 296.69 52.1504 296.14 52.9104 295.67C53.6704 295.2 54.3203 294.76 54.8303 294.39L55.8303 293.73H10.1104V302.65L11.0104 302.86C11.6204 303.02 12.3804 303.2 13.2604 303.34Z" fill="#F5F5F5"/>
<path d="M40.5603 386.61C37.2692 386.547 33.9871 386.972 30.8203 387.87C28.8837 388.448 27.0237 389.257 25.2803 390.28H62.6803C59.5003 389.65 56.1203 388.85 52.5703 388.13C48.6249 387.24 44.603 386.73 40.5603 386.61Z" fill="#F5F5F5"/>
<path d="M86.5601 380.5C82.3101 379.83 77.1901 380.34 71.5601 380.86C68.5693 381.148 65.5623 381.232 62.5601 381.11C59.4501 380.98 56.2501 380.64 52.9901 380.24C46.4601 379.42 40.2401 378.59 34.5701 378.84C29.5467 379.004 24.5983 380.106 19.9801 382.09C16.8667 383.435 13.9284 385.155 11.2301 387.21L10.0801 388.11V390.28H24.8001C26.6236 389.07 28.6102 388.128 30.7001 387.48C33.8941 386.499 37.2189 386.01 40.5601 386.03C44.6378 386.107 48.6978 386.589 52.6801 387.47C56.9101 388.33 60.9001 389.33 64.5601 390.03L65.7901 390.24H95.5601V383.8C92.8496 382.03 89.7718 380.902 86.5601 380.5Z" fill="#F5F5F5"/>
<path d="M19.8304 381.69C24.4777 379.623 29.4777 378.466 34.5604 378.28C40.3004 378 46.5604 378.82 53.0704 379.63C56.3304 380.03 59.5204 380.38 62.6004 380.51C65.5887 380.644 68.5828 380.568 71.5604 380.28C77.2204 379.79 82.4104 379.28 86.7104 380.06C89.8826 380.51 92.9099 381.679 95.5603 383.48V372.19C93.0852 371.484 90.5242 371.123 87.9503 371.12C79.4503 370.84 68.1604 375.47 55.0204 375.12C48.892 375.088 42.788 374.346 36.8304 372.91C31.3304 371.59 26.6104 369.7 22.5104 368.63C19.3118 367.679 15.9866 367.224 12.6504 367.28C11.8002 367.316 10.9524 367.397 10.1104 367.52V387.86C10.4104 387.6 10.7304 387.32 11.1104 387.02C13.7672 384.863 16.6997 383.071 19.8304 381.69Z" fill="#F5F5F5"/>
<path d="M13.4004 329.77C15.6704 329.97 18.8004 331.09 22.4704 332.77C24.4505 333.674 26.4843 334.455 28.5604 335.11C30.9698 335.79 33.437 336.245 35.9304 336.47C41.672 336.883 47.4431 336.526 53.0904 335.41C59.0904 334.34 64.7804 332.83 70.0004 331.71C74.6085 330.637 79.2869 329.892 84.0004 329.48C87.1848 329.227 90.3861 329.281 93.5603 329.64C94.3703 329.73 95.0403 329.84 95.5603 329.94V314.89L94.6703 314.17C92.802 312.63 90.8381 311.211 88.7904 309.92C85.8094 307.947 82.3592 306.798 78.7904 306.59C74.7904 306.46 70.4804 308.03 66.3004 310.08C62.3364 311.991 58.5016 314.159 54.8204 316.57C53.1604 317.69 51.3903 318.69 50.6903 320.26C50.5174 320.615 50.4536 321.014 50.507 321.405C50.5604 321.797 50.7286 322.164 50.9904 322.46C51.5218 323.019 52.166 323.459 52.8804 323.75C55.056 324.801 57.4106 325.432 59.8204 325.61C61.5204 325.73 62.4804 325.61 62.4804 325.68C62.257 325.752 62.0248 325.792 61.7904 325.8C61.1254 325.858 60.4574 325.875 59.7904 325.85C57.3312 325.767 54.9136 325.193 52.6804 324.16C51.8992 323.849 51.1935 323.375 50.6104 322.77C50.2889 322.405 50.0793 321.956 50.0066 321.475C49.9339 320.994 50.0011 320.503 50.2004 320.06C51.0104 318.23 52.8504 317.23 54.4904 316.06C58.1713 313.599 62.0208 311.4 66.0103 309.48C70.2203 307.42 74.6104 305.82 78.8004 305.98C82.4617 306.22 85.9914 307.439 89.0204 309.51C91.063 310.845 93.0019 312.332 94.8204 313.96L95.5504 314.61V302.17C94.0148 301.32 92.4169 300.588 90.7704 299.98C85.9081 298.205 80.7196 297.502 75.5603 297.92C72.524 298.181 69.5405 298.875 66.7004 299.98C63.6693 301.241 60.7405 302.736 57.9403 304.45C55.1083 306.179 52.1342 307.665 49.0504 308.89C46.1131 309.896 43.0508 310.492 39.9504 310.66C34.0404 311.01 28.7604 310.41 24.3304 310.34C20.8381 310.186 17.3396 310.424 13.9004 311.05C13.2904 311.18 12.7504 311.27 12.2904 311.39L11.1304 311.73C10.8051 311.84 10.4703 311.92 10.1304 311.97C10.43 311.825 10.7411 311.704 11.0604 311.61L12.2104 311.21C12.6704 311.07 13.2104 310.96 13.8104 310.81C17.261 310.085 20.7865 309.779 24.3104 309.9C28.7604 309.9 34.0504 310.46 39.8804 310.08C42.9394 309.899 45.9584 309.293 48.8504 308.28C51.8965 307.058 54.8365 305.586 57.6404 303.88C60.462 302.14 63.4219 300.634 66.4904 299.38C69.3753 298.261 72.4065 297.564 75.4904 297.31C80.7343 296.907 86.0026 297.665 90.9203 299.53C92.5174 300.14 94.0653 300.872 95.5504 301.72V293.72H56.0504C55.7904 293.94 55.4504 294.22 54.9904 294.58C54.3934 295.071 53.7691 295.529 53.1203 295.95C52.3703 296.45 51.5304 297.06 50.5304 297.61C49.4718 298.262 48.3804 298.86 47.2603 299.4C46.0803 300.03 44.7504 300.57 43.3604 301.16C40.3089 302.346 37.1604 303.266 33.9504 303.91C30.7314 304.52 27.4662 304.855 24.1904 304.91C22.6804 304.91 21.2504 304.91 19.9104 304.73C18.6705 304.645 17.4356 304.498 16.2104 304.29C15.0804 304.15 14.0804 303.89 13.2104 303.71C12.4527 303.561 11.7047 303.368 10.9704 303.13L10.1304 302.88V322.05C10.8004 321.82 11.6804 321.56 12.7504 321.3C19.4801 319.675 26.5088 319.754 33.2004 321.53C34.2159 321.795 35.2172 322.112 36.2004 322.48C36.5534 322.595 36.8896 322.756 37.2004 322.96C37.2004 323.06 35.6204 322.54 33.0704 321.96C29.7517 321.207 26.3631 320.805 22.9604 320.76C19.5583 320.744 16.1637 321.079 12.8304 321.76C11.7104 321.99 10.8304 322.2 10.1104 322.37V329.88C11.1948 329.674 12.3046 329.637 13.4004 329.77ZM65.9003 318.03C66.0188 317.766 66.1968 317.533 66.4204 317.35C66.8261 317.013 67.2954 316.761 67.8004 316.61C74.2739 314.662 81.2135 314.94 87.5103 317.4C89.4 318.131 91.204 319.067 92.8904 320.19C93.5004 320.57 93.8904 320.94 94.2204 321.19C94.5504 321.44 94.6703 321.55 94.6503 321.57C92.352 320.087 89.9096 318.841 87.3604 317.85C84.5752 316.832 81.6593 316.215 78.7003 316.02C75.0827 315.777 71.4509 316.19 67.9804 317.24C67.5585 317.365 67.167 317.576 66.8303 317.86C66.681 317.953 66.5649 318.092 66.4985 318.255C66.4321 318.418 66.4187 318.598 66.4604 318.77C66.6904 319.4 67.8204 319.45 68.6704 319.66L73.8504 320.72L82.6104 322.54L88.5103 323.83L90.1004 324.21C90.2915 324.237 90.4771 324.295 90.6503 324.38C90.4589 324.394 90.2664 324.377 90.0804 324.33L88.4604 324.07L82.5603 322.95L73.7304 321.28L68.5604 320.28C68.1004 320.19 67.6704 320.12 67.1804 320C66.8994 319.949 66.6346 319.832 66.4083 319.658C66.1821 319.484 66.001 319.258 65.8804 319C65.8172 318.845 65.7863 318.68 65.7898 318.513C65.7932 318.346 65.8309 318.181 65.9003 318.03ZM28.0504 325.41C29.6897 326.312 31.3905 327.097 33.1404 327.76C38.9262 329.939 45.1589 330.664 51.2904 329.87C58.5104 329.02 64.2904 325.37 68.9604 324.34C70.7842 323.85 72.6757 323.661 74.5603 323.78C75.0752 323.814 75.5867 323.888 76.0903 324C76.267 324.029 76.4387 324.083 76.6004 324.16C76.6004 324.22 75.8704 324.05 74.6004 324.02C72.7336 323.998 70.8737 324.251 69.0803 324.77C66.4229 325.581 63.8208 326.563 61.2904 327.71C58.1334 329.086 54.8022 330.021 51.3904 330.49C45.1596 331.309 38.8227 330.51 32.9904 328.17C31.2332 327.467 29.5402 326.614 27.9304 325.62C27.3393 325.26 26.7746 324.859 26.2404 324.42C26.87 324.699 27.4754 325.03 28.0504 325.41Z" fill="#F5F5F5"/>
<path d="M22.6504 368.22C26.7904 369.22 31.5304 371.1 36.9904 372.37C42.9099 373.766 48.9685 374.487 55.0504 374.52C68.0504 374.85 79.3203 370.29 87.9803 370.68C90.5579 370.707 93.1178 371.108 95.5804 371.87V359.77L93.0404 360.08C89.4004 360.44 84.4004 361.15 78.7904 361.27C76.1519 361.332 73.5135 361.144 70.9104 360.71C68.7798 360.348 66.6967 359.747 64.7004 358.92C63.3574 358.359 62.0771 357.658 60.8804 356.83C60.5528 356.609 60.2389 356.368 59.9403 356.11C59.7303 355.94 59.6304 355.84 59.6404 355.82C61.3085 356.853 63.0575 357.749 64.8703 358.5C66.85 359.262 68.9048 359.811 71.0004 360.14C73.5741 360.533 76.1774 360.701 78.7803 360.64C84.3303 360.53 89.3504 359.88 92.9904 359.64L95.5804 359.45V330.1C95.0404 330.033 94.3737 329.963 93.5804 329.89C90.4233 329.608 87.2474 329.608 84.0903 329.89C79.3918 330.371 74.7312 331.17 70.1404 332.28C64.9504 333.43 59.2904 334.95 53.2204 336.03C47.5159 337.149 41.6856 337.485 35.8904 337.03C33.3636 336.788 30.8656 336.306 28.4304 335.59C26.3334 334.905 24.2826 334.087 22.2904 333.14C18.6404 331.43 15.6004 330.26 13.3604 329.99C12.2855 329.822 11.1946 329.782 10.1104 329.87V350.64C10.2604 350.45 10.4304 350.27 10.6104 350.08C12.2604 348.41 15.3604 346.88 19.3504 345.84C23.3404 344.8 28.2604 344.38 33.6304 343.68C39.4333 342.778 45.1548 341.413 50.7404 339.6C56.3549 337.765 62.0927 336.331 67.9104 335.31C72.6836 334.582 77.5167 334.324 82.3403 334.54C85.5856 334.696 88.8165 335.073 92.0103 335.67C93.1403 335.89 94.0104 336.08 94.6004 336.23C94.9032 336.289 95.2008 336.373 95.4904 336.48C95.1835 336.474 94.8783 336.433 94.5804 336.36C93.9804 336.24 93.1004 336.1 91.9704 335.91C88.7758 335.404 85.5529 335.097 82.3204 334.99C77.5293 334.833 72.7341 335.134 68.0004 335.89C62.2155 336.936 56.5089 338.376 50.9204 340.2C45.302 342.03 39.5425 343.394 33.7004 344.28C28.3004 344.95 23.4204 345.28 19.4604 346.28C15.5004 347.28 12.4604 348.7 10.7904 350.28C10.5429 350.499 10.3154 350.74 10.1104 351V359.72L10.4204 359.88L12.6804 361.08C15.4668 362.508 18.3276 363.786 21.2504 364.91C30.9212 368.628 41.1995 370.513 51.5604 370.47C63.7204 370.61 74.2603 366.86 82.2303 366.12C85.3632 365.726 88.5347 365.753 91.6604 366.2L93.1203 366.47L94.1203 366.74C94.4169 366.794 94.7057 366.885 94.9803 367.01C94.6796 366.988 94.3816 366.938 94.0903 366.86L93.0303 366.65L91.5804 366.45C88.4712 366.093 85.3293 366.133 82.2303 366.57C78.2903 367.03 73.6804 368.1 68.5304 369.2C52.6767 372.696 36.1383 371.348 21.0604 365.33C18.1482 364.152 15.3097 362.799 12.5604 361.28L10.3604 359.97L10.1104 359.81V367.37C10.9445 367.194 11.7899 367.077 12.6404 367.02C16.0199 366.877 19.4003 367.282 22.6504 368.22ZM46.8404 348.65C43.5027 350.313 40.3084 352.249 37.2904 354.44C37.0007 354.623 36.7589 354.873 36.585 355.169C36.4111 355.465 36.3101 355.797 36.2904 356.14C36.3329 356.444 36.4579 356.73 36.6518 356.968C36.8457 357.206 37.1012 357.387 37.3904 357.49C38.3899 357.853 39.4726 357.922 40.5104 357.69C41.2028 357.582 41.9097 357.613 42.5904 357.78C42.8249 357.837 43.0435 357.947 43.2304 358.1C43.2304 358.1 43.0004 358 42.5504 357.9C41.8894 357.776 41.2113 357.776 40.5504 357.9C39.4625 358.186 38.3145 358.144 37.2504 357.78C36.894 357.661 36.5784 357.444 36.3396 357.154C36.1009 356.864 35.9486 356.512 35.9004 356.14C35.9108 355.725 36.023 355.32 36.227 354.959C36.431 354.598 36.7206 354.292 37.0704 354.07C40.0767 351.791 43.2793 349.783 46.6404 348.07C50.7493 346.031 55.0592 344.426 59.5004 343.28C67.6229 341.164 76.0772 340.634 84.4003 341.72C85.9903 341.96 87.4004 342.15 88.6604 342.46C89.9204 342.77 90.9903 342.94 91.8403 343.21L93.8403 343.8C94.0758 343.857 94.304 343.941 94.5204 344.05C94.2799 344.03 94.0421 343.987 93.8103 343.92L91.8103 343.45C90.9503 343.21 89.8704 343.04 88.6304 342.8C87.3904 342.56 85.9503 342.38 84.3703 342.17C71.5087 340.692 58.4933 342.938 46.8703 348.64L46.8404 348.65ZM56.0803 356.79C55.5861 356.831 55.0886 356.807 54.6004 356.72C54.1894 356.667 53.7958 356.522 53.4493 356.295C53.1028 356.068 52.8125 355.765 52.6004 355.41C52.4609 355.179 52.375 354.92 52.3491 354.652C52.3231 354.384 52.3577 354.113 52.4504 353.86C52.7072 353.344 53.0887 352.901 53.5604 352.57C55.6011 350.811 57.9147 349.395 60.4104 348.38C63.4632 347.143 66.6937 346.4 69.9804 346.18C75.967 345.879 81.9514 346.815 87.5603 348.93C89.7103 349.7 91.4003 350.44 92.5603 350.93C93.1403 351.19 93.5604 351.42 93.8804 351.57C94.2004 351.72 94.3304 351.82 94.3204 351.84C93.6889 351.655 93.0708 351.428 92.4704 351.16C91.2904 350.69 89.5804 350.02 87.4704 349.31C81.9082 347.353 76.0201 346.49 70.1304 346.77C66.9072 346.986 63.7367 347.698 60.7304 348.88C58.2716 349.849 55.9804 351.199 53.9403 352.88C53.527 353.165 53.1848 353.541 52.9403 353.98C52.8652 354.181 52.8343 354.396 52.8498 354.61C52.8654 354.824 52.9269 355.032 53.0304 355.22C53.2076 355.54 53.4539 355.816 53.7515 356.029C54.049 356.242 54.3902 356.385 54.7504 356.45C55.9604 356.7 56.6904 356.62 56.6804 356.69C56.4901 356.767 56.2853 356.801 56.0803 356.79Z" fill="#F5F5F5"/>
<path d="M13.3598 330.01C15.5998 330.28 18.6398 331.45 22.2898 333.16C24.2821 334.107 26.3329 334.925 28.4298 335.61C30.8651 336.326 33.3631 336.808 35.8898 337.05C41.6851 337.505 47.5154 337.168 53.2198 336.05C59.2898 334.97 64.9498 333.45 70.1398 332.3C74.7185 331.205 79.3657 330.42 84.0498 329.95C87.2069 329.668 90.3828 329.668 93.5398 329.95C94.3598 330.023 95.0265 330.093 95.5398 330.16V330C95.0098 329.9 94.3398 329.79 93.5398 329.7C90.3656 329.341 87.1643 329.287 83.9798 329.54C79.2664 329.952 74.588 330.697 69.9798 331.77C64.7598 332.89 59.0998 334.4 53.0698 335.47C47.4226 336.586 41.6515 336.943 35.9098 336.53C33.4213 336.284 30.9608 335.809 28.5598 335.11C26.4766 334.449 24.436 333.661 22.4498 332.75C18.7798 331.09 15.6498 329.97 13.3798 329.75C12.2871 329.597 11.1774 329.614 10.0898 329.8V329.87C11.1815 329.787 12.2792 329.834 13.3598 330.01Z" fill="#EBEBEB"/>
<path d="M13.1901 303.68C14.0801 303.86 15.0801 304.12 16.1901 304.26C17.4153 304.468 18.6502 304.615 19.8901 304.7C21.2301 304.85 22.6601 304.85 24.1701 304.88C27.446 304.825 30.7112 304.49 33.9301 303.88C37.1402 303.236 40.2886 302.316 43.3401 301.13C44.7301 300.54 46.0601 300 47.2401 299.37C48.3761 298.848 49.4843 298.267 50.5601 297.63C51.5601 297.08 52.4001 296.47 53.1501 295.97C53.7988 295.549 54.4232 295.091 55.0201 294.6C55.4801 294.24 55.8201 293.96 56.0801 293.74H55.8301L54.8301 294.4C54.3201 294.77 53.6901 295.22 52.9101 295.68C52.1301 296.14 51.3101 296.73 50.3001 297.25C49.2901 297.77 48.2301 298.4 47.0201 298.95C45.8101 299.5 44.5201 300.07 43.1401 300.64C40.1133 301.77 36.9998 302.653 33.8301 303.28C30.6459 303.875 27.4186 304.209 24.1801 304.28C22.6901 304.28 21.2701 304.28 19.9501 304.16C18.6301 304.04 17.3901 303.95 16.2701 303.8C15.1501 303.65 14.1501 303.47 13.2701 303.32C12.3901 303.17 11.6301 303 11.0201 302.85L10.1201 302.64V302.83L10.9601 303.08C11.6908 303.324 12.4354 303.525 13.1901 303.68Z" fill="#EBEBEB"/>
<path d="M75.5602 297.34C72.4763 297.594 69.4451 298.291 66.5602 299.41C63.4918 300.664 60.5318 302.17 57.7102 303.91C54.9064 305.616 51.9664 307.088 48.9202 308.31C46.0396 309.309 43.0344 309.905 39.9902 310.08C34.1602 310.46 28.8702 309.91 24.4202 309.9C20.8964 309.779 17.3709 310.085 13.9202 310.81C13.3202 310.96 12.7802 311.07 12.3202 311.21L11.1702 311.61C10.851 311.704 10.5399 311.825 10.2402 311.97C10.5802 311.92 10.9149 311.84 11.2402 311.73L12.4002 311.39C12.8602 311.27 13.4002 311.18 14.0102 311.05C17.4495 310.424 20.948 310.186 24.4402 310.34C28.8702 310.41 34.1502 311.01 40.0602 310.66C43.1607 310.492 46.223 309.896 49.1602 308.89C52.2441 307.665 55.2182 306.179 58.0502 304.45C60.8504 302.736 63.7792 301.241 66.8102 299.98C69.6154 298.885 72.5612 298.191 75.5602 297.92C80.7261 297.499 85.9218 298.202 90.7902 299.98C92.4368 300.588 94.0347 301.32 95.5702 302.17V301.75C94.0852 300.902 92.5373 300.17 90.9402 299.56C86.038 297.702 80.7876 296.944 75.5602 297.34Z" fill="#EBEBEB"/>
<path d="M89.0501 309.54C86.0211 307.469 82.4915 306.25 78.8301 306.01C74.6401 305.85 70.2501 307.45 66.0401 309.51C62.0643 311.432 58.2282 313.631 54.5601 316.09C52.9201 317.23 51.0801 318.23 50.2701 320.09C50.0709 320.533 50.0036 321.024 50.0763 321.505C50.149 321.986 50.3586 322.435 50.6801 322.8C51.2632 323.405 51.9689 323.879 52.7501 324.19C54.9833 325.222 57.401 325.797 59.8601 325.88C60.5271 325.905 61.1951 325.888 61.8601 325.83C62.0945 325.822 62.3268 325.781 62.5501 325.71C62.5501 325.71 61.5501 325.76 59.8901 325.64C57.4803 325.462 55.1258 324.831 52.9501 323.78C52.2357 323.489 51.5915 323.049 51.0601 322.49C50.7983 322.194 50.6301 321.827 50.5767 321.435C50.5234 321.044 50.5871 320.645 50.7601 320.29C51.4601 318.72 53.2301 317.72 54.8901 316.6C58.5713 314.189 62.4061 312.021 66.3701 310.11C70.5501 308.06 74.8301 306.49 78.8601 306.62C82.4289 306.828 85.8791 307.976 88.8601 309.95C90.9078 311.241 92.8718 312.66 94.7401 314.2L95.6301 314.92V314.67L94.9001 314.02C93.0667 312.38 91.111 310.882 89.0501 309.54Z" fill="#EBEBEB"/>
<path d="M67.1706 319.95C67.6606 320.07 68.0906 320.14 68.5506 320.23L73.7306 321.23L82.5206 322.93L88.4606 324.02L90.0806 324.28C90.2666 324.327 90.4591 324.344 90.6506 324.33C90.4773 324.245 90.2917 324.187 90.1006 324.16L88.5106 323.78L82.6106 322.49L73.8506 320.67L68.6706 319.61C67.8206 319.4 66.6706 319.35 66.4606 318.72C66.419 318.548 66.4323 318.368 66.4987 318.205C66.5651 318.042 66.6812 317.903 66.8306 317.81C67.1672 317.526 67.5587 317.315 67.9806 317.19C71.4511 316.14 75.0829 315.727 78.7006 315.97C81.6595 316.165 84.5755 316.782 87.3606 317.8C89.9098 318.791 92.3522 320.037 94.6506 321.52C94.6506 321.52 94.5206 321.37 94.2206 321.14C93.9206 320.91 93.5006 320.55 92.8906 320.14C91.2043 319.017 89.4002 318.081 87.5106 317.35C81.2137 314.89 74.2741 314.612 67.8006 316.56C67.2956 316.711 66.8263 316.963 66.4206 317.3C66.197 317.483 66.019 317.716 65.9006 317.98C65.7805 318.275 65.7805 318.605 65.9006 318.9C66.012 319.164 66.1856 319.398 66.4068 319.581C66.6279 319.763 66.89 319.89 67.1706 319.95Z" fill="#EBEBEB"/>
<path d="M22.9604 320.74C26.3631 320.784 29.7517 321.187 33.0704 321.94C35.6204 322.51 37.1704 323.03 37.2004 322.94C36.8896 322.736 36.5534 322.575 36.2004 322.46C35.2172 322.092 34.2159 321.775 33.2004 321.51C26.5025 319.731 19.4665 319.652 12.7304 321.28C11.6604 321.54 10.7304 321.8 10.1104 322.03V322.28C10.8004 322.11 11.7104 321.9 12.8304 321.67C16.1662 321.013 19.5607 320.701 22.9604 320.74Z" fill="#EBEBEB"/>
<path d="M19.4603 346.28C23.4603 345.28 28.3003 344.94 33.7003 344.28C39.5419 343.401 45.3014 342.043 50.9203 340.22C56.5089 338.396 62.2155 336.956 68.0003 335.91C72.7341 335.154 77.5292 334.853 82.3203 335.01C85.5529 335.117 88.7757 335.424 91.9703 335.93C93.1003 336.12 93.9703 336.26 94.5803 336.38C94.8782 336.453 95.1835 336.494 95.4903 336.5C95.1869 336.401 94.8759 336.327 94.5603 336.28C93.9803 336.13 93.1003 335.94 91.9703 335.72C88.7765 335.123 85.5456 334.746 82.3003 334.59C77.4767 334.374 72.6436 334.632 67.8703 335.36C62.0526 336.381 56.3149 337.815 50.7003 339.65C45.1148 341.463 39.3932 342.828 33.5903 343.73C28.2203 344.43 23.3103 344.81 19.3103 345.89C15.3103 346.97 12.2203 348.46 10.5703 350.13C10.3903 350.32 10.2203 350.5 10.0703 350.69V351.03C10.2753 350.77 10.5029 350.529 10.7503 350.31C12.4303 348.71 15.5003 347.28 19.4603 346.28Z" fill="#EBEBEB"/>
<path d="M27.9204 325.62C29.5303 326.614 31.2233 327.467 32.9804 328.17C38.8128 330.51 45.1496 331.309 51.3804 330.49C54.7922 330.021 58.1234 329.086 61.2804 327.71C63.8109 326.563 66.413 325.581 69.0704 324.77C70.8638 324.251 72.7236 323.998 74.5904 324.02C75.9104 324.02 76.5904 324.22 76.5904 324.16C76.4288 324.083 76.2571 324.029 76.0804 324C75.58 323.888 75.0719 323.815 74.5604 323.78C72.6624 323.656 70.7571 323.846 68.9204 324.34C64.2004 325.34 58.4704 329.02 51.2504 329.87C45.1189 330.664 38.8863 329.939 33.1004 327.76C31.3506 327.097 29.6497 326.312 28.0104 325.41C27.4326 325.026 26.8238 324.692 26.1904 324.41C26.7372 324.854 27.3154 325.259 27.9204 325.62Z" fill="#EBEBEB"/>
<path d="M84.3403 342.18C85.9203 342.39 87.3403 342.55 88.6003 342.81C89.8603 343.07 90.9203 343.22 91.7803 343.46L93.7803 343.93C94.012 343.997 94.2499 344.04 94.4903 344.06C94.2739 343.951 94.0458 343.867 93.8103 343.81L91.8103 343.22C90.9603 342.95 89.8803 342.74 88.6303 342.47C87.3803 342.2 85.9603 341.97 84.3703 341.73C76.0577 340.645 67.6139 341.171 59.5003 343.28C55.0295 344.44 50.6925 346.066 46.5603 348.13C43.1992 349.843 39.9967 351.851 36.9903 354.13C36.6406 354.352 36.351 354.658 36.147 355.019C35.943 355.38 35.8308 355.785 35.8203 356.2C35.8686 356.572 36.0208 356.924 36.2596 357.214C36.4984 357.504 36.814 357.721 37.1703 357.84C38.2345 358.204 39.3825 358.246 40.4703 357.96C41.1312 357.836 41.8094 357.836 42.4703 357.96C42.9203 358.06 43.1403 358.19 43.1503 358.16C42.9635 358.007 42.7448 357.897 42.5103 357.84C41.8297 357.673 41.1228 357.642 40.4303 357.75C39.3925 357.982 38.3099 357.913 37.3103 357.55C37.0211 357.447 36.7657 357.266 36.5717 357.028C36.3778 356.79 36.2528 356.504 36.2103 356.2C36.2301 355.857 36.3311 355.525 36.505 355.229C36.6788 354.933 36.9206 354.683 37.2103 354.5C50.8095 344.675 67.5958 340.301 84.2603 342.24L84.3403 342.18Z" fill="#EBEBEB"/>
<path d="M52.9405 355.28C52.8371 355.092 52.7755 354.884 52.76 354.67C52.7444 354.455 52.7753 354.241 52.8505 354.04C53.0949 353.601 53.4371 353.225 53.8505 352.94C55.8905 351.259 58.1818 349.909 60.6405 348.94C63.6469 347.758 66.8174 347.046 70.0405 346.83C75.9302 346.55 81.8183 347.413 87.3805 349.37C89.5305 350.08 91.2405 350.75 92.3805 351.22C92.9809 351.488 93.599 351.715 94.2305 351.9C94.2305 351.9 94.0905 351.79 93.7905 351.63C93.4905 351.47 93.0505 351.25 92.4705 350.99C91.3205 350.46 89.6305 349.72 87.4705 348.99C81.8771 346.882 75.9105 345.946 69.9405 346.24C66.6539 346.46 63.4233 347.203 60.3705 348.44C57.893 349.441 55.5934 350.835 53.5605 352.57C53.0889 352.901 52.7073 353.344 52.4505 353.86C52.3578 354.113 52.3232 354.383 52.3492 354.652C52.3752 354.92 52.461 355.179 52.6005 355.41C52.8126 355.765 53.1029 356.068 53.4495 356.295C53.796 356.522 54.1896 356.667 54.6005 356.72C55.0887 356.807 55.5862 356.83 56.0805 356.79C56.2533 356.798 56.4263 356.774 56.5905 356.72C56.5905 356.65 55.8705 356.72 54.6605 356.48C54.3031 356.419 53.9635 356.28 53.6662 356.072C53.3689 355.865 53.121 355.594 52.9405 355.28Z" fill="#EBEBEB"/>
<path d="M12.5602 361.28C15.3205 362.783 18.169 364.119 21.0902 365.28C36.163 371.314 52.7016 372.68 68.5602 369.2C73.7102 368.1 78.3202 367.03 82.2602 366.57C85.3591 366.133 88.501 366.093 91.6102 366.45L93.0602 366.65L94.1202 366.86C94.4115 366.938 94.7094 366.988 95.0102 367.01C94.7355 366.885 94.4467 366.794 94.1502 366.74L93.1502 366.47L91.6902 366.2C88.5645 365.753 85.393 365.726 82.2602 366.12C74.2602 366.86 63.7502 370.61 51.5902 370.47C41.2361 370.511 30.9647 368.625 21.3002 364.91C18.3774 363.786 15.5166 362.508 12.7302 361.08L10.4702 359.88L10.1602 359.72V359.83L10.4102 359.99L12.5602 361.28Z" fill="#EBEBEB"/>
<path d="M78.7806 360.64C76.1777 360.701 73.5744 360.533 71.0006 360.14C68.9051 359.811 66.8502 359.262 64.8706 358.5C63.0578 357.749 61.3087 356.853 59.6406 355.82C59.6406 355.82 59.7306 355.94 59.9406 356.11C60.2392 356.368 60.5531 356.609 60.8806 356.83C62.0773 357.658 63.3577 358.359 64.7006 358.92C66.697 359.747 68.7801 360.348 70.9106 360.71C73.5138 361.144 76.1522 361.332 78.7906 361.27C84.4006 361.15 89.4006 360.44 93.0406 360.08L95.5806 359.77V359.44L92.9906 359.63C89.3506 359.88 84.3306 360.53 78.7806 360.64Z" fill="#EBEBEB"/>
<path d="M22.5604 368.66C26.6604 369.73 31.3804 371.66 36.8804 372.94C42.838 374.376 48.9421 375.118 55.0704 375.15C68.2104 375.47 79.5004 370.84 88.0004 371.15C90.5743 371.154 93.1353 371.514 95.6104 372.22V371.9C93.1479 371.138 90.5879 370.737 88.0104 370.71C79.3504 370.32 68.0804 374.88 55.0804 374.55C48.9985 374.517 42.9399 373.796 37.0204 372.4C31.5604 371.13 26.8204 369.29 22.6804 368.25C19.4324 367.32 16.0555 366.922 12.6804 367.07C11.8299 367.127 10.9845 367.244 10.1504 367.42V367.55C10.9924 367.427 11.8402 367.347 12.6904 367.31C16.03 367.253 19.3586 367.708 22.5604 368.66Z" fill="#EBEBEB"/>
<path d="M20.0098 382.09C24.6157 380.111 29.55 379.009 34.5598 378.84C40.2298 378.59 46.4498 379.42 52.9798 380.24C56.2398 380.64 59.4398 380.98 62.5498 381.11C65.552 381.232 68.5591 381.148 71.5498 380.86C77.2198 380.34 82.3398 379.86 86.5498 380.5C89.7615 380.902 92.8394 382.03 95.5498 383.8V383.48C92.8787 381.67 89.8264 380.499 86.6298 380.06C82.3298 379.32 77.1398 379.79 71.4798 380.28C68.5251 380.558 65.5544 380.628 62.5898 380.49C59.5098 380.36 56.3198 380.01 53.0598 379.61C46.5598 378.8 40.3198 377.98 34.5598 378.28C29.4691 378.47 24.462 379.634 19.8098 381.71C16.6792 383.091 13.7467 384.883 11.0898 387.04C10.7098 387.34 10.3898 387.62 10.0898 387.88V388.13L11.2398 387.23C13.9434 385.166 16.8885 383.44 20.0098 382.09Z" fill="#EBEBEB"/>
<path d="M52.7003 387.47C48.7115 386.588 44.6447 386.105 40.5603 386.03C37.2144 385.995 33.8828 386.47 30.6803 387.44C28.5904 388.088 26.6037 389.031 24.7803 390.24H25.2603C27.0087 389.23 28.872 388.435 30.8103 387.87C33.9803 386.971 37.2659 386.546 40.5603 386.61C44.5984 386.718 48.6168 387.214 52.5603 388.09C56.1103 388.81 59.4903 389.61 62.6703 390.24H65.8003L64.5603 390.03C60.9203 389.33 56.9303 388.33 52.7003 387.47Z" fill="#EBEBEB"/>
<path d="M71.9604 324.61H10.1104V325.82H71.9604V324.61Z" fill="#E0E0E0"/>
<path d="M71.9704 356.45H10.1104V357.66H71.9704V356.45Z" fill="#E0E0E0"/>
<path d="M48.0807 325.22H35.0107V327.99H48.0807V325.22Z" fill="#E0E0E0"/>
<path d="M48.0807 293.74H35.0107V296.51H48.0807V293.74Z" fill="#E0E0E0"/>
<path d="M48.0807 356.89H35.0107V359.66H48.0807V356.89Z" fill="#E0E0E0"/>
<path d="M95.58 293.74H71.96V390.29H95.58V293.74Z" fill="#EBEBEB"/>
<path d="M18.4504 253.99H10.1104V293.74H18.4504V253.99Z" fill="#EBEBEB"/>
<path d="M28.5104 258.04H22.6904V293.75H28.5104V258.04Z" fill="#EBEBEB"/>
<path d="M22.6902 258.04H18.4502V293.75H22.6902V258.04Z" fill="#E0E0E0"/>
<path d="M32.8 262.14H28.5V293.75H32.8V262.14Z" fill="#F5F5F5"/>
<path d="M41.9008 251.31H32.8008V293.74H41.9008V251.31Z" fill="#EBEBEB"/>
<path d="M48.3307 275L47.4707 278.58L48.3307 279.87V282.01L47.4707 284.01L48.3307 284.73V289.73L47.4707 290.3L48.3307 291.02V293.73H94.2607V290.44L93.4007 288.87L94.2607 281.72L93.5607 278.28C93.2475 277.691 93.0058 277.066 92.8407 276.42C92.8407 275.99 92.9907 274.99 92.9907 274.99L48.3307 275Z" fill="#EBEBEB"/>
<g opacity="0.24">
<path d="M71.9604 293.74L70.8604 288.56L71.9604 286.42V284.37L70.8604 283.3L71.9604 281.66V275H92.9704L92.8303 276.43L93.5404 278.29L94.2603 281.72L93.4003 288.88L94.2603 290.45V293.74H71.9604Z" fill="#E0E0E0"/>
</g>
<path d="M458.86 390.28C458.86 390.43 356.14 390.54 229.44 390.54C102.74 390.54 0 390.47 0 390.28C0 390.09 102.71 390.02 229.44 390.02C356.17 390.02 458.86 390.18 458.86 390.28Z" fill="#263238"/>
<path d="M140.963 98.9722L106.934 99.1088L107.106 142.078L141.136 141.942L140.963 98.9722Z" fill="white"/>
<path d="M107.12 142.06H107.76H109.59L116.5 141.97L141.15 141.76L140.94 141.98C140.87 129.7 140.8 114.92 140.72 98.9797C140.66 98.9097 141.21 99.4597 140.97 99.2297H136.41H131.91H123.16H106.95L107.18 98.9997C107.18 111.71 107.18 122.42 107.18 130C107.18 133.76 107.18 136.74 107.18 138.81C107.18 139.81 107.18 140.6 107.18 141.16C107.18 141.41 107.18 141.61 107.18 141.77C107.184 141.84 107.184 141.91 107.18 141.98C107.174 141.92 107.174 141.86 107.18 141.8C107.18 141.64 107.18 141.45 107.18 141.21C107.18 140.66 107.18 139.9 107.18 138.91C107.18 136.85 107.13 133.91 107.08 130.15C107.02 122.56 106.94 111.8 106.84 99.0197V98.7897H107.07L123.29 98.6997H132.04H136.54H141.1L141.37 98.9597C141.37 114.87 141.46 129.65 141.5 141.96V142.18H116.5H109.64H107.85C107.31 142.08 107.12 142.06 107.12 142.06Z" fill="#263238"/>
<path d="M126.708 141.016L121.988 141.034L121.993 142.184L126.713 142.166L126.708 141.016Z" fill="#263238"/>
<path d="M129.394 114.049L119.074 114.09L119.134 129L129.454 128.959L129.394 114.049Z" fill="#0658F6"/>
<path opacity="0.5" d="M129.394 114.049L119.074 114.09L119.134 129L129.454 128.959L129.394 114.049Z" fill="white"/>
<path d="M127.201 98.4278L122.481 98.4468L122.485 99.4268L127.205 99.4078L127.201 98.4278Z" fill="#263238"/>
<path d="M215.79 95.7998C228.404 95.7998 238.63 85.5739 238.63 72.9597C238.63 60.3456 228.404 50.1198 215.79 50.1198C203.176 50.1198 192.95 60.3456 192.95 72.9597C192.95 85.5739 203.176 95.7998 215.79 95.7998Z" fill="#0658F6"/>
<path d="M226.28 73.6597C225.286 73.8015 224.283 73.8583 223.28 73.8297C221.39 73.8297 218.77 73.9097 215.81 73.9197H215.56V72.1797C215.56 68.8697 215.56 65.8797 215.63 63.7097C215.606 62.5366 215.669 61.3634 215.82 60.1997C215.963 61.364 216.023 62.5369 216 63.7097C216.05 65.8797 216.08 68.8697 216.08 72.1797V73.6597L215.82 73.3997C218.82 73.3997 221.4 73.3997 223.29 73.4897C224.289 73.4617 225.29 73.5185 226.28 73.6597Z" fill="white"/>
<path d="M215.86 53.8698C216 53.8698 216.12 54.7298 216.12 55.7898C216.12 56.8498 216 57.7098 215.86 57.7098C215.72 57.7098 215.6 56.8498 215.6 55.7898C215.6 54.7298 215.71 53.8698 215.86 53.8698Z" fill="white"/>
<path d="M226.26 56.9498C226.37 57.0498 225.85 57.7298 225.11 58.4698C224.37 59.2098 223.69 59.7298 223.59 59.6298C223.49 59.5298 224 58.8398 224.74 58.0998C225.48 57.3598 226.16 56.8498 226.26 56.9498Z" fill="white"/>
<path d="M232.35 63.5997C232.41 63.7297 231.71 64.2097 230.83 64.7497C229.95 65.2897 229.2 65.6797 229.12 65.5597C229.04 65.4397 229.66 64.8497 230.56 64.2997C231.46 63.7497 232.29 63.4697 232.35 63.5997Z" fill="white"/>
<path d="M235.91 73.4597C234.184 73.8064 232.406 73.8064 230.68 73.4597C232.406 73.113 234.184 73.113 235.91 73.4597Z" fill="white"/>
<path d="M199.64 73.1098C198.012 73.4565 196.329 73.4565 194.7 73.1098C196.329 72.763 198.012 72.763 199.64 73.1098Z" fill="white"/>
<path d="M202.2 80.4597C202.3 80.5697 201.49 81.3597 200.41 82.2397C199.33 83.1197 198.41 83.7297 198.28 83.6097C198.15 83.4897 199 82.6997 200.08 81.8297C200.687 81.2345 201.408 80.7684 202.2 80.4597Z" fill="white"/>
<path d="M208.559 86.1398C208.29 86.9495 207.895 87.7121 207.389 88.3998C206.669 89.5898 206.079 90.5598 205.939 90.4898C206.084 89.636 206.427 88.8278 206.939 88.1298C207.639 86.9098 208.419 86.0498 208.559 86.1398Z" fill="white"/>
<path d="M215.86 93.4597C215.513 91.7336 215.513 89.9558 215.86 88.2297C216.206 89.9558 216.206 91.7336 215.86 93.4597Z" fill="white"/>
<path d="M227.129 89.9797C226.283 89.7023 225.517 89.2216 224.899 88.5797C223.799 87.5797 223.109 86.6497 223.219 86.5797C223.953 87.0355 224.625 87.5833 225.219 88.2097C226.309 89.1197 227.219 89.8497 227.129 89.9797Z" fill="white"/>
<path d="M232.429 84.2797C232.319 84.3797 231.509 83.7297 230.609 82.8297C229.709 81.9297 229.069 81.1197 229.169 81.0197C229.269 80.9197 230.079 81.5597 230.979 82.4597C231.879 83.3597 232.559 84.1697 232.429 84.2797Z" fill="white"/>
<path d="M201.959 66.0798C201.859 66.1798 201.139 65.6298 200.349 64.8398C199.559 64.0498 199.009 63.3297 199.109 63.2297C199.209 63.1297 199.939 63.6798 200.719 64.4698C201.499 65.2598 202.059 65.9798 201.959 66.0798Z" fill="white"/>
<path d="M208.489 59.1998C208.389 59.2998 207.679 58.7598 206.909 57.9898C206.139 57.2198 205.599 56.5198 205.699 56.4098C205.799 56.2998 206.509 56.8498 207.279 57.6198C208.049 58.3898 208.559 59.0998 208.489 59.1998Z" fill="white"/>
<path d="M321.408 142.411L286.515 145.722L288.746 169.236L323.639 165.926L321.408 142.411Z" fill="white"/>
<path d="M323.64 165.93C323.602 165.786 323.579 165.638 323.57 165.49C323.57 165.17 323.49 164.76 323.43 164.23C323.31 163.11 323.14 161.51 322.92 159.49C322.51 155.38 321.92 149.49 321.2 142.43L321.42 142.62L286.56 145.98C286.51 146.04 287 145.45 286.8 145.7V145.87V146.07V146.46L286.87 147.24L287.02 148.8C287.12 149.8 287.22 150.86 287.31 151.88C287.5 153.88 287.69 155.88 287.88 157.88C288.25 161.82 288.6 165.6 288.93 169.19L288.67 168.97L313.76 166.71L320.97 166.09L322.9 165.94H323.4H323.59C323.382 165.984 323.172 166.014 322.96 166.03L321.08 166.24L313.94 166.98L288.72 169.49H288.48V169.25C288.13 165.67 287.77 161.89 287.39 157.95C287.203 155.95 287.013 153.95 286.82 151.95L286.52 148.87L286.37 147.31L286.3 146.53V146.14V145.94V145.77L286.53 145.49L321.42 142.23H321.63V142.44C322.27 149.61 322.79 155.5 323.15 159.64C323.32 161.64 323.45 163.23 323.55 164.35C323.55 164.86 323.62 165.26 323.64 165.57C323.66 165.88 323.64 165.94 323.64 165.93Z" fill="#263238"/>
<path d="M321.4 142.41C321.088 142.884 320.733 143.33 320.34 143.74L317.34 147.26C314.74 150.26 311.11 154.26 307.04 158.82L306.89 158.99L306.7 158.87L305.77 158.28C300.43 154.87 295.61 151.76 292.13 149.49L288.03 146.78L286.93 146.02C286.683 145.84 286.563 145.74 286.57 145.72C286.717 145.774 286.858 145.844 286.99 145.93L288.14 146.61L292.33 149.18C295.86 151.37 300.71 154.43 306.05 157.84L306.98 158.43H306.65C310.72 153.91 314.4 149.87 317.07 146.98L320.24 143.57C320.603 143.16 320.99 142.773 321.4 142.41Z" fill="#263238"/>
<path d="M318.55 26.8297H274.31V92.6697H318.55V26.8297Z" fill="#0658F6"/>
<path opacity="0.3" d="M318.55 26.8297H274.31V92.6697H318.55V26.8297Z" fill="black"/>
<path d="M319.06 93.1798H273.79V26.2798H319.06V93.1798ZM274.82 92.1798H318.03V27.3398H274.82V92.1798Z" fill="#263238"/>
<path d="M314.17 30.8898H278.76V88.5698H314.17V30.8898Z" fill="white"/>
<path d="M306.359 47.2397H286.479V70.5397H306.359V47.2397Z" fill="#0658F6"/>
<path d="M247.329 141.2C247.643 141.167 247.943 141.054 248.199 140.87C248.501 140.645 248.716 140.324 248.809 139.96C248.869 139.442 248.886 138.92 248.859 138.4C248.859 135.96 248.859 132.5 248.929 128.26C248.929 127.193 248.929 126.073 248.929 124.9C248.929 124.31 248.929 123.72 248.929 123.11C248.95 122.82 248.95 122.529 248.929 122.24C248.876 121.973 248.747 121.727 248.559 121.53C248.366 121.335 248.119 121.202 247.849 121.15C247.54 121.129 247.229 121.129 246.919 121.15H244.919H240.789H222.379C222.034 121.156 221.704 121.291 221.452 121.527C221.201 121.764 221.047 122.086 221.019 122.43C221.019 123.23 221.019 124.03 221.019 124.81C221.019 126.4 220.969 127.97 220.949 129.51C220.949 132.59 220.849 135.56 220.809 138.39C220.809 138.74 220.809 139.1 220.809 139.44C220.785 139.745 220.858 140.05 221.019 140.31C221.172 140.562 221.404 140.755 221.679 140.86C221.973 140.952 222.282 140.986 222.589 140.96H226.489H233.489L243.629 141.04L246.389 141.09H247.099C247.182 141.074 247.267 141.074 247.349 141.09C247.267 141.103 247.182 141.103 247.099 141.09H246.389H243.629L233.489 141.18H226.489H222.559C222.196 141.214 221.829 141.177 221.479 141.07C221.111 140.925 220.799 140.666 220.589 140.33C220.385 139.993 220.284 139.603 220.299 139.21C220.299 138.86 220.299 138.51 220.299 138.15C220.299 135.32 220.369 132.35 220.409 129.27C220.409 127.73 220.409 126.17 220.469 124.58C220.469 123.78 220.469 122.97 220.469 122.16C220.507 121.685 220.72 121.241 221.068 120.915C221.416 120.59 221.873 120.406 222.349 120.4H240.759H246.869C247.202 120.376 247.537 120.376 247.869 120.4C248.228 120.469 248.556 120.647 248.809 120.91C249.052 121.17 249.218 121.491 249.289 121.84C249.321 122.172 249.321 122.507 249.289 122.84C249.289 123.44 249.289 124.04 249.289 124.62C249.289 125.79 249.289 126.91 249.219 127.98C249.129 132.23 249.049 135.68 248.999 138.12C249.012 138.655 248.975 139.191 248.889 139.72C248.785 140.127 248.536 140.482 248.189 140.72C247.986 140.856 247.753 140.942 247.509 140.97C247.409 141.22 247.329 141.21 247.329 141.2Z" fill="#263238"/>
<path d="M235.94 129.33L239.35 131.4L235.87 133.45L232.38 135.49L232.45 131.37L232.53 127.26L235.94 129.33Z" fill="#263238"/>
<path d="M165.1 188.71L139.56 174.95C142.542 172.901 144.979 170.155 146.66 166.95L156.01 149.04C156.888 147.412 158.158 146.028 159.705 145.014C161.251 144 163.026 143.386 164.87 143.23L188.56 155.96C185.768 157.275 183.472 159.452 182.01 162.17L171.43 181.76C169.927 184.575 167.757 186.978 165.11 188.76L165.1 188.71Z" fill="white"/>
<path d="M165.1 188.71L165.38 188.49L166.21 187.84C167.257 187 168.215 186.055 169.07 185.02C169.693 184.277 170.258 183.488 170.76 182.66C171.3 181.75 171.82 180.66 172.42 179.66L176.42 172.18C177.91 169.41 179.53 166.38 181.27 163.12C181.697 162.275 182.175 161.457 182.7 160.67C183.265 159.862 183.908 159.112 184.62 158.43C185.36 157.734 186.167 157.115 187.03 156.58C187.47 156.31 187.92 156.06 188.39 155.83C188.39 156.67 188.39 156.06 188.39 156.24H188.31L188.14 156.15L187.8 155.96L187.11 155.6L175.67 149.28L169.56 146.03L166.46 144.35L164.89 143.51L164.79 143.45H164.74H164.86H164.64L164.21 143.5C163.92 143.56 163.63 143.6 163.35 143.67C161.082 144.218 159.051 145.485 157.56 147.28C156.835 148.16 156.224 149.127 155.74 150.16L154.16 153.16L148.16 164.71C147.28 166.546 146.254 168.309 145.09 169.98C143.937 171.526 142.593 172.92 141.09 174.13C140.73 174.42 140.36 174.7 139.98 174.96L139.85 175.06L139.78 175.11C139.78 174.39 139.78 174.92 139.78 174.76L140.07 174.92L140.67 175.24L142.97 176.49L147.3 178.85L160.35 185.99L163.89 187.99L164.8 188.51C164.909 188.564 165.012 188.628 165.11 188.7C164.995 188.667 164.884 188.62 164.78 188.56L163.84 188.08L160.26 186.2L147.13 179.2L142.78 176.87L140.47 175.63L139.88 175.31L139.58 175.15C139.58 174.99 139.58 175.5 139.58 174.78L139.65 174.73L139.79 174.63C140.16 174.37 140.52 174.1 140.87 173.81C142.339 172.618 143.652 171.248 144.78 169.73C145.921 168.075 146.925 166.329 147.78 164.51L153.78 152.94L155.36 149.94C155.854 148.865 156.482 147.857 157.23 146.94C158.811 145.076 160.95 143.772 163.33 143.22C163.62 143.14 163.93 143.1 164.23 143.04L164.68 142.99H164.91H165.08H165.13L165.23 143.04L166.8 143.89L169.9 145.56L175.96 148.84L187.42 155.04L188.11 155.41L188.44 155.6L188.61 155.69H188.7C188.7 155.89 188.7 155.28 188.7 156.13C188.247 156.346 187.807 156.586 187.38 156.85C186.54 157.36 185.756 157.957 185.04 158.63C184.348 159.287 183.721 160.01 183.17 160.79C182.649 161.564 182.175 162.369 181.75 163.2L176.85 172.2L172.78 179.65C172.18 180.74 171.65 181.77 171.08 182.65C170.558 183.478 169.977 184.266 169.34 185.01C168.445 186.043 167.439 186.976 166.34 187.79C165.97 188.06 165.68 188.27 165.48 188.39C165.372 188.516 165.243 188.624 165.1 188.71Z" fill="#263238"/>
<path d="M176.97 162.71C176.97 162.8 172.74 160.61 167.62 157.82C162.5 155.03 158.4 152.7 158.45 152.61C158.5 152.52 162.68 154.72 167.8 157.5C172.92 160.28 177.02 162.63 176.97 162.71Z" fill="#263238"/>
<path d="M175.559 166.28C175.559 166.37 171.189 164.1 165.899 161.22C160.609 158.34 156.369 155.93 156.419 155.84C156.469 155.75 160.789 158.02 166.079 160.9C171.369 163.78 175.619 166.18 175.559 166.28Z" fill="#263238"/>
<path d="M173.88 169.38C173.88 169.46 169.5 167.2 164.22 164.32C158.94 161.44 154.69 159.02 154.73 158.93C154.77 158.84 159.11 161.11 164.39 163.99C169.67 166.87 173.92 169.28 173.88 169.38Z" fill="#263238"/>
<path d="M172.179 172.48C172.129 172.57 167.81 170.3 162.52 167.42C157.23 164.54 152.99 162.13 153.04 162.04C153.09 161.95 157.41 164.22 162.7 167.1C167.99 169.98 172.229 172.39 172.179 172.48Z" fill="#263238"/>
<path d="M170.49 175.58C170.44 175.67 166.12 173.41 160.83 170.52C155.54 167.63 151.3 165.23 151.35 165.14C151.4 165.05 155.72 167.32 161.01 170.2C166.3 173.08 170.56 175.5 170.49 175.58Z" fill="#263238"/>
<path d="M159.56 173.67C159.035 173.496 158.529 173.268 158.05 172.99C157.13 172.53 155.88 171.87 154.51 171.12C153.14 170.37 151.9 169.68 151.02 169.12C150.522 168.867 150.053 168.562 149.62 168.21C150.152 168.374 150.663 168.603 151.14 168.89C152.06 169.35 153.31 170.01 154.68 170.76C156.05 171.51 157.29 172.2 158.17 172.76C158.666 173.011 159.132 173.316 159.56 173.67Z" fill="#263238"/>
<path d="M165.62 181.7C165.62 181.7 165.72 181.45 165.82 180.99C165.953 180.353 165.876 179.689 165.6 179.1C165.377 178.629 165.028 178.229 164.592 177.944C164.156 177.659 163.649 177.501 163.128 177.486C162.608 177.472 162.093 177.602 161.642 177.862C161.19 178.123 160.82 178.503 160.572 178.961C160.323 179.419 160.207 179.936 160.234 180.457C160.262 180.977 160.434 181.479 160.73 181.908C161.026 182.336 161.435 182.675 161.911 182.885C162.388 183.096 162.913 183.17 163.43 183.1C164.076 183.013 164.676 182.718 165.14 182.26C165.47 181.93 165.59 181.7 165.62 181.72C165.546 181.96 165.416 182.18 165.24 182.36C164.784 182.889 164.158 183.243 163.47 183.36C162.953 183.445 162.424 183.397 161.931 183.223C161.438 183.048 160.997 182.751 160.65 182.36C160.213 181.878 159.938 181.273 159.861 180.628C159.784 179.983 159.91 179.33 160.221 178.759C160.532 178.189 161.013 177.729 161.597 177.445C162.181 177.16 162.839 177.064 163.48 177.17C163.997 177.25 164.486 177.461 164.899 177.783C165.312 178.105 165.636 178.527 165.84 179.01C166.108 179.643 166.15 180.349 165.96 181.01C165.898 181.262 165.782 181.497 165.62 181.7Z" fill="#263238"/>
<path d="M167.733 153.161L160.35 149.133L159.77 150.196L167.153 154.223L167.733 153.161Z" fill="#263238"/>
<path d="M140.939 72.9598L134.399 66.0098V89.0398L148.289 73.4498L140.939 72.9598Z" fill="#0658F6"/>
<path opacity="0.5" d="M140.939 72.9598L134.399 66.0098V89.0398L148.289 73.4498L140.939 72.9598Z" fill="white"/>
<path d="M134.55 88.8697L142.68 73.0697L140.94 72.9597L139.87 71.8297L134.55 88.8697Z" fill="#0658F6"/>
<path d="M140.939 72.9597C140.781 73.795 140.54 74.6124 140.219 75.3997C139.699 76.8897 138.929 78.9197 138.009 81.1397C137.089 83.3597 136.199 85.3297 135.549 86.7597C135.243 87.5563 134.858 88.3201 134.399 89.0397C134.59 88.2087 134.861 87.3982 135.209 86.6197C135.779 85.1497 136.599 83.1497 137.529 80.9397C138.459 78.7297 139.199 76.9397 139.869 75.2697C140.144 74.4642 140.502 73.6899 140.939 72.9597Z" fill="#263238"/>
<path d="M140.89 69.9097C140.938 71.5936 140.634 73.269 140 74.8297C139.885 73.9896 139.946 73.1346 140.18 72.3197C140.249 71.4762 140.491 70.6559 140.89 69.9097Z" fill="#263238"/>
<path d="M143.5 60.2798C143.517 61.1268 143.357 61.968 143.03 62.7498C142.858 63.583 142.518 64.3723 142.03 65.0698C142.015 64.2229 142.175 63.382 142.5 62.5998C142.673 61.7666 143.013 60.9773 143.5 60.2798Z" fill="#263238"/>
<path d="M147.18 50.9697C147.091 51.8114 146.836 52.6272 146.43 53.3697C146.176 54.1747 145.761 54.9198 145.21 55.5597C145.296 54.7173 145.551 53.901 145.96 53.1597C146.211 52.3534 146.627 51.6077 147.18 50.9697Z" fill="#263238"/>
<path d="M151.85 42.1298C151.683 42.9618 151.343 43.7491 150.85 44.4398C150.499 45.1959 150.003 45.8755 149.39 46.4398C149.569 45.6118 149.909 44.827 150.39 44.1298C150.739 43.3728 151.235 42.6929 151.85 42.1298Z" fill="#263238"/>
<path d="M157.47 33.8597C157.203 34.6624 156.778 35.4036 156.22 36.0397C155.42 37.1597 154.67 38.0397 154.55 37.9197C154.812 37.1146 155.237 36.3724 155.8 35.7397C156.61 34.6097 157.36 33.7797 157.47 33.8597Z" fill="#263238"/>
<path d="M163.969 26.2798C163.612 27.0395 163.105 27.7196 162.479 28.2798C161.559 29.2798 160.719 30.0498 160.609 29.9498C160.499 29.8498 161.169 28.9498 162.099 27.9498C163.029 26.9498 163.859 26.1698 163.969 26.2798Z" fill="#263238"/>
<path d="M171.29 19.4597C171.38 19.5697 170.62 20.3997 169.58 21.3097C169.007 21.9204 168.321 22.4131 167.56 22.7597C167.46 22.6497 168.23 21.8297 169.27 20.9097C170.31 19.9897 171.2 19.3497 171.29 19.4597Z" fill="#263238"/>
<path d="M179.36 13.5697C179.44 13.6997 178.56 14.3797 177.44 15.1797C176.795 15.7268 176.047 16.1383 175.24 16.3897C175.15 16.2797 176 15.5397 177.14 14.7497C177.779 14.1902 178.539 13.7864 179.36 13.5697Z" fill="#263238"/>
<path d="M188.089 8.69971C188.159 8.82971 187.209 9.44971 185.989 10.0797C185.283 10.5482 184.486 10.8618 183.649 10.9997C184.25 10.4042 184.964 9.93499 185.749 9.61971C186.458 9.15542 187.254 8.84223 188.089 8.69971Z" fill="#263238"/>
<path d="M197.34 4.90979C196.673 5.43092 195.908 5.81188 195.09 6.02979C194.332 6.40675 193.505 6.62456 192.66 6.66979C193.323 6.14075 194.09 5.75589 194.91 5.53979C195.669 5.16682 196.496 4.95245 197.34 4.90979Z" fill="#263238"/>
<path d="M206.97 2.21973C206.248 2.65814 205.446 2.94719 204.61 3.06973C203.814 3.35891 202.965 3.47814 202.12 3.41973C203.637 2.6897 205.288 2.28115 206.97 2.21973Z" fill="#263238"/>
<path d="M216.85 0.669789C216.08 1.02229 215.246 1.21614 214.4 1.23979C213.576 1.43104 212.722 1.45146 211.89 1.29979C212.655 0.942255 213.485 0.744882 214.33 0.719788C215.157 0.527868 216.015 0.510839 216.85 0.669789Z" fill="#263238"/>
<path d="M226.83 0.279732C226.027 0.539382 225.18 0.634609 224.34 0.559731C223.5 0.654069 222.649 0.575804 221.84 0.329731C222.642 0.0672407 223.489 -0.0313789 224.33 0.0397302C225.171 -0.0575277 226.023 0.0242655 226.83 0.279732Z" fill="#263238"/>
<path d="M236.79 1.04969C235.961 1.21354 235.109 1.21354 234.28 1.04969C233.436 1.03757 232.603 0.857398 231.83 0.519695C233.516 0.344513 235.22 0.528551 236.83 1.05969L236.79 1.04969Z" fill="#263238"/>
<path d="M246.559 3.01976C244.873 2.99212 243.213 2.60339 241.689 1.87976C243.374 1.92362 245.031 2.31158 246.559 3.01976Z" fill="#263238"/>
<path d="M256.06 6.20972C254.392 5.96112 252.794 5.36492 251.37 4.45972C252.218 4.50103 253.048 4.71543 253.81 5.08972C254.626 5.31239 255.391 5.6929 256.06 6.20972Z" fill="#263238"/>
<path d="M264.98 10.7098C263.351 10.2221 261.844 9.39378 260.56 8.27979C261.394 8.44926 262.184 8.78975 262.88 9.27979C263.67 9.60865 264.384 10.0952 264.98 10.7098Z" fill="#263238"/>
<path d="M273 16.6497C272.9 16.7597 272 16.1397 270.9 15.2797C269.8 14.4197 269.04 13.6197 269.13 13.4997C269.22 13.3797 270.13 13.9997 271.23 14.8697C272.33 15.7397 273.1 16.5497 273 16.6497Z" fill="#263238"/>
<path d="M279.839 23.8998C279.719 23.9698 279.029 23.0998 278.159 22.0398C277.57 21.4526 277.074 20.778 276.689 20.0398C276.789 19.9398 277.689 20.6498 278.559 21.7298C279.164 22.332 279.605 23.079 279.839 23.8998Z" fill="#263238"/>
<path d="M254.05 130.16C253.236 130.364 252.39 130.405 251.56 130.28C250.715 130.316 249.871 130.18 249.08 129.88C249.9 129.671 250.754 129.63 251.59 129.76C252.429 129.723 253.266 129.859 254.05 130.16Z" fill="#263238"/>
<path d="M264.03 129.66C263.25 129.993 262.408 130.156 261.56 130.14C260.732 130.308 259.878 130.308 259.05 130.14C260.667 129.645 262.371 129.496 264.05 129.7L264.03 129.66Z" fill="#263238"/>
<path d="M273.79 127.52C272.287 128.281 270.642 128.724 268.96 128.82C270.463 128.059 272.108 127.616 273.79 127.52Z" fill="#263238"/>
<path d="M282.91 123.46C282.339 124.092 281.631 124.585 280.84 124.9C280.123 125.364 279.308 125.655 278.46 125.75C278.4 125.61 279.38 125.06 280.6 124.44C281.307 123.981 282.088 123.649 282.91 123.46Z" fill="#263238"/>
<path d="M290.75 117.28C290.86 117.38 290.16 118.28 289.13 119.2C288.554 119.83 287.838 120.316 287.04 120.62C286.95 120.5 287.76 119.73 288.78 118.82C289.8 117.91 290.65 117.21 290.75 117.28Z" fill="#263238"/>
<path d="M296.69 109.28C296.524 110.12 296.16 110.908 295.63 111.58C294.88 112.75 294.11 113.58 294 113.49C294.271 112.696 294.677 111.955 295.2 111.3C295.94 110.15 296.56 109.28 296.69 109.28Z" fill="#263238"/>
<path d="M300.07 99.9297C300.105 101.627 299.647 103.298 298.75 104.74C298.778 103.9 298.951 103.071 299.26 102.29C299.4 101.464 299.674 100.667 300.07 99.9297Z" fill="#263238"/>
<path d="M300.42 91.9998C300.56 91.9998 300.71 92.6398 300.75 93.4698C300.79 94.2998 300.7 94.9597 300.56 94.9597C300.42 94.9597 300.27 94.2998 300.23 93.4898C300.19 92.6798 300.27 92.0198 300.42 91.9998Z" fill="#263238"/>
<path d="M177.7 144.62C177.393 145.405 176.95 146.129 176.39 146.76C175.58 147.87 174.9 148.76 174.78 148.68C174.995 147.853 175.403 147.088 175.97 146.45C176.78 145.28 177.56 144.53 177.7 144.62Z" fill="#263238"/>
<path d="M184.88 137.7C184.97 137.81 184.15 138.57 183.11 139.47C182.07 140.37 181.19 141.06 181.11 140.95C181.03 140.84 181.74 139.95 182.79 139.07C183.84 138.19 184.79 137.58 184.88 137.7Z" fill="#263238"/>
<path d="M193.43 132.53C192.834 133.131 192.123 133.607 191.34 133.93C190.635 134.401 189.843 134.724 189.01 134.88C189.606 134.275 190.316 133.796 191.1 133.47C191.803 132.999 192.597 132.679 193.43 132.53Z" fill="#263238"/>
<path d="M202.89 129.28C201.362 129.973 199.736 130.428 198.07 130.63C198.754 130.117 199.549 129.775 200.39 129.63C201.185 129.321 202.041 129.201 202.89 129.28Z" fill="#263238"/>
<path d="M212.81 128.28C212.005 128.529 211.162 128.63 210.32 128.58C209.49 128.709 208.642 128.686 207.82 128.51C209.436 127.986 211.163 127.907 212.82 128.28H212.81Z" fill="#263238"/>
<path d="M218.41 128.75C218.391 128.822 218.345 128.884 218.282 128.923C218.219 128.962 218.143 128.975 218.07 128.96C218.032 128.958 217.995 128.95 217.96 128.934C217.925 128.918 217.894 128.896 217.868 128.868C217.842 128.84 217.822 128.807 217.808 128.772C217.795 128.736 217.789 128.698 217.79 128.66C217.809 128.585 217.856 128.521 217.921 128.48C217.986 128.439 218.065 128.425 218.14 128.44C218.31 128.47 218.44 128.6 218.41 128.75Z" fill="#263238"/>
<path d="M190.42 211.28C191.24 211.496 192.007 211.881 192.67 212.41C193.83 213.16 194.67 213.86 194.67 213.98C193.848 213.769 193.081 213.383 192.42 212.85C191.22 212.07 190.34 211.37 190.42 211.28Z" fill="#263238"/>
<path d="M182.399 205.28C183.188 205.586 183.909 206.045 184.519 206.63C185.589 207.49 186.399 208.27 186.309 208.39C186.219 208.51 185.309 207.9 184.189 207.04C183.069 206.18 182.299 205.4 182.399 205.28Z" fill="#263238"/>
<path d="M176.28 197.46C176.41 197.39 177.03 198.32 177.76 199.46C178.275 200.123 178.677 200.866 178.95 201.66C178.84 201.75 178.06 200.92 177.32 199.74C176.803 199.07 176.448 198.289 176.28 197.46Z" fill="#263238"/>
<path d="M172.46 188.28C173.345 189.714 173.917 191.319 174.14 192.99C173.629 192.315 173.261 191.542 173.06 190.72C172.699 189.955 172.495 189.125 172.46 188.28Z" fill="#263238"/>
<path d="M246.51 301.57L244.45 390.56H240.53L240.78 301.79L246.51 301.57Z" fill="#455A64"/>
<path d="M260.69 300.58L279.77 390.56H284.15L268.26 300.58H260.69Z" fill="#455A64"/>
<path d="M224.91 301.57L203.8 390.56H199.42L218.59 301.2L224.91 301.57Z" fill="#455A64"/>
<path d="M279.83 216.28C279.83 216.28 300.91 215.08 298.83 239.46C296.75 263.84 295.52 288.53 287.69 296.96C279.86 305.39 200.99 305.69 194.37 298.77C187.75 291.85 207.01 292.14 210.62 292.14C214.23 292.14 236.51 294.25 243.74 275.29C250.97 256.33 249.13 215.03 279.83 216.28Z" fill="#455A64"/>
<path d="M281.18 216.28C281.18 216.28 297.29 219.58 295.79 236.44C294.29 253.3 290.07 282.8 282.24 290.33C274.41 297.86 243.74 299.49 227.15 298.46C207.88 297.25 195.72 293.58 195.72 293.58C195.72 293.58 192.2 295.84 193.27 297.3C194.34 298.76 203.73 304.61 249.27 303.64C294.81 302.67 291.64 295.94 293.53 288.64C295.42 281.34 299.39 242.17 298.84 233.57C298.29 224.97 293.95 217.75 281.18 216.28Z" fill="#455A64"/>
<path opacity="0.2" d="M281.18 216.28C281.18 216.28 297.29 219.58 295.79 236.44C294.29 253.3 290.07 282.8 282.24 290.33C274.41 297.86 243.74 299.49 227.15 298.46C207.88 297.25 195.72 293.58 195.72 293.58C195.72 293.58 192.2 295.84 193.27 297.3C194.34 298.76 203.73 304.61 249.27 303.64C294.81 302.67 291.64 295.94 293.53 288.64C295.42 281.34 299.39 242.17 298.84 233.57C298.29 224.97 293.95 217.75 281.18 216.28Z" fill="black"/>
<path d="M267.97 249.06C268.051 249.388 268.222 249.686 268.465 249.922C268.707 250.157 269.011 250.319 269.342 250.39C269.672 250.46 270.016 250.437 270.333 250.321C270.651 250.206 270.929 250.003 271.137 249.737C271.345 249.471 271.474 249.151 271.508 248.815C271.543 248.479 271.483 248.14 271.334 247.836C271.185 247.533 270.954 247.278 270.667 247.1C270.379 246.922 270.048 246.828 269.71 246.83C269.449 246.862 269.198 246.945 268.969 247.074C268.741 247.204 268.54 247.377 268.378 247.584C268.217 247.791 268.097 248.028 268.027 248.281C267.957 248.534 267.938 248.799 267.97 249.06Z" fill="#455A64"/>
<path d="M269.16 239.19C268.821 240.243 268.62 241.335 268.56 242.44C268.55 243.624 268.814 244.794 269.33 245.86C269.628 246.482 270.016 247.058 270.48 247.57C270.772 247.839 271.043 248.129 271.29 248.44C271.425 248.632 271.521 248.85 271.571 249.08C271.62 249.31 271.624 249.548 271.58 249.78C271.341 250.532 271.044 251.264 270.69 251.97C270.507 252.62 270.419 253.294 270.43 253.97C270.455 255.153 270.756 256.314 271.31 257.36C271.863 258.308 272.535 259.182 273.31 259.96C273.31 259.96 273 259.85 272.53 259.47C271.882 258.937 271.334 258.294 270.91 257.57C270.256 256.482 269.888 255.247 269.84 253.98C269.807 253.224 269.895 252.468 270.1 251.74C270.425 251.06 270.712 250.362 270.96 249.65C271.12 248.98 270.57 248.51 270.02 247.95C269.521 247.388 269.109 246.754 268.8 246.07C268.27 244.922 268.033 243.661 268.11 242.4C268.153 241.558 268.339 240.729 268.66 239.95C268.772 239.664 268.942 239.405 269.16 239.19Z" fill="#455A64"/>
<path d="M264.38 246.17C264.48 246.17 264.38 246.7 264.63 247.44C264.929 248.405 265.546 249.24 266.38 249.81C267.249 250.348 268.225 250.689 269.24 250.81C270.04 250.93 270.55 250.94 270.55 251.03C270.55 251.12 270.05 251.24 269.21 251.23C268.086 251.219 266.988 250.894 266.04 250.29C265.567 249.971 265.162 249.563 264.848 249.087C264.534 248.612 264.317 248.079 264.21 247.52C264.08 246.66 264.32 246.15 264.38 246.17Z" fill="#455A64"/>
<g opacity="0.2">
<path d="M267.97 249.06C268.051 249.388 268.222 249.686 268.465 249.922C268.707 250.157 269.011 250.319 269.342 250.39C269.672 250.46 270.016 250.437 270.333 250.321C270.651 250.206 270.929 250.003 271.137 249.737C271.345 249.471 271.474 249.151 271.508 248.815C271.543 248.479 271.483 248.14 271.334 247.836C271.185 247.533 270.954 247.278 270.667 247.1C270.379 246.922 270.048 246.828 269.71 246.83C269.449 246.862 269.198 246.945 268.969 247.074C268.741 247.204 268.54 247.377 268.378 247.584C268.217 247.791 268.097 248.028 268.027 248.281C267.957 248.534 267.938 248.799 267.97 249.06Z" fill="black"/>
<path d="M269.16 239.19C268.821 240.243 268.62 241.335 268.56 242.44C268.55 243.624 268.814 244.794 269.33 245.86C269.628 246.482 270.016 247.058 270.48 247.57C270.772 247.839 271.043 248.129 271.29 248.44C271.425 248.632 271.521 248.85 271.571 249.08C271.62 249.31 271.624 249.548 271.58 249.78C271.341 250.532 271.044 251.264 270.69 251.97C270.507 252.62 270.419 253.294 270.43 253.97C270.455 255.153 270.756 256.314 271.31 257.36C271.863 258.308 272.535 259.182 273.31 259.96C273.31 259.96 273 259.85 272.53 259.47C271.882 258.937 271.334 258.294 270.91 257.57C270.256 256.482 269.888 255.247 269.84 253.98C269.807 253.224 269.895 252.468 270.1 251.74C270.425 251.06 270.712 250.362 270.96 249.65C271.12 248.98 270.57 248.51 270.02 247.95C269.521 247.388 269.109 246.754 268.8 246.07C268.27 244.922 268.033 243.661 268.11 242.4C268.153 241.558 268.339 240.729 268.66 239.95C268.772 239.664 268.942 239.405 269.16 239.19Z" fill="black"/>
<path d="M264.38 246.17C264.48 246.17 264.38 246.7 264.63 247.44C264.929 248.405 265.546 249.24 266.38 249.81C267.249 250.348 268.225 250.689 269.24 250.81C270.04 250.93 270.55 250.94 270.55 251.03C270.55 251.12 270.05 251.24 269.21 251.23C268.086 251.22 266.988 250.894 266.04 250.29C265.567 249.972 265.162 249.563 264.848 249.088C264.534 248.612 264.317 248.079 264.21 247.52C264.08 246.66 264.32 246.15 264.38 246.17Z" fill="black"/>
</g>
<path d="M243.79 155.39C243.52 155.29 243.17 155.18 242.71 155.06C241.149 154.646 239.53 154.501 237.92 154.63C235.49 154.802 233.194 155.809 231.42 157.48C230.372 158.472 229.567 159.694 229.07 161.05C228.815 161.771 228.667 162.526 228.63 163.29C228.63 164.07 228.69 164.83 228.63 165.57C228.634 165.918 228.567 166.264 228.433 166.585C228.299 166.907 228.101 167.197 227.85 167.44C227.297 167.879 226.671 168.218 226 168.44C225.307 168.697 224.661 169.069 224.09 169.54C223.313 170.206 222.742 171.08 222.444 172.06C222.147 173.04 222.135 174.084 222.41 175.07C222.762 176.125 223.242 177.132 223.84 178.07C224.08 178.45 224.28 178.82 224.47 179.18C224.505 179.492 224.505 179.807 224.47 180.12C224.246 181.49 223.583 182.75 222.58 183.71C221.576 184.656 220.701 185.733 219.98 186.91C219.627 187.506 219.455 188.192 219.485 188.885C219.515 189.578 219.746 190.246 220.15 190.81C221.15 191.97 222.92 191.97 224.46 191.93C229.807 191.898 235.15 192.196 240.46 192.82L244.78 155.64C244.48 155.566 244.15 155.483 243.79 155.39ZM230.32 161.97C230.08 163.44 230.32 165.03 229.59 166.34C228.86 167.65 227.27 168.44 226.08 169.48C225.157 170.311 224.461 171.362 224.055 172.536C223.649 173.709 223.548 174.966 223.76 176.19C223.87 176.81 224.07 177.42 224.24 178.04L224.18 177.94C223.615 176.998 223.168 175.991 222.85 174.94C222.525 173.761 222.661 172.502 223.23 171.42C223.522 170.836 223.93 170.319 224.43 169.9C224.966 169.468 225.571 169.13 226.22 168.9C226.947 168.649 227.623 168.274 228.22 167.79C228.518 167.502 228.755 167.157 228.916 166.775C229.078 166.394 229.161 165.984 229.16 165.57C229.16 164.76 229.09 164 229.16 163.28C229.191 162.567 229.326 161.863 229.56 161.19C230.026 159.904 230.778 158.741 231.76 157.79C233.453 156.177 235.642 155.183 237.97 154.97C238.478 154.914 238.989 154.888 239.5 154.89C238.32 154.93 237.154 155.149 236.04 155.54C234.607 156.017 233.325 156.862 232.321 157.991C231.318 159.119 230.628 160.491 230.32 161.97Z" fill="#263238"/>
<path d="M237.66 199.37C237.97 197.66 237.42 190.44 237.42 190.44C237.42 190.44 231.02 189.63 230.74 183.09C230.46 176.55 231.12 161.5 231.12 161.5L242.9 155.84L253.19 167.57L253.38 199.27L237.66 199.37Z" fill="#FFBE9D"/>
<path d="M232.771 172.5C232.771 172.661 232.818 172.82 232.908 172.954C232.998 173.089 233.125 173.194 233.274 173.256C233.424 173.319 233.588 173.335 233.747 173.305C233.906 173.274 234.052 173.197 234.167 173.083C234.282 172.969 234.361 172.824 234.394 172.666C234.426 172.507 234.411 172.343 234.351 172.193C234.29 172.043 234.187 171.914 234.053 171.823C233.92 171.731 233.762 171.682 233.601 171.68C233.382 171.68 233.172 171.766 233.017 171.919C232.862 172.073 232.773 172.281 232.771 172.5Z" fill="#263238"/>
<path d="M231.43 171.58C231.53 171.69 232.14 171.17 233.02 171.14C233.9 171.11 234.55 171.55 234.64 171.43C234.73 171.31 234.58 171.18 234.3 170.97C233.921 170.703 233.463 170.573 233 170.6C232.534 170.617 232.087 170.789 231.73 171.09C231.47 171.28 231.38 171.53 231.43 171.58Z" fill="#263238"/>
<path d="M242.311 172.5C242.311 172.661 242.358 172.82 242.448 172.954C242.538 173.089 242.665 173.194 242.814 173.256C242.964 173.319 243.128 173.335 243.287 173.305C243.446 173.274 243.592 173.197 243.707 173.083C243.822 172.969 243.901 172.824 243.934 172.666C243.966 172.507 243.951 172.343 243.891 172.193C243.83 172.043 243.727 171.914 243.593 171.823C243.46 171.731 243.302 171.682 243.141 171.68C242.922 171.68 242.713 171.766 242.557 171.919C242.402 172.073 242.313 172.281 242.311 172.5Z" fill="#263238"/>
<path d="M241.15 171.75C241.25 171.86 241.86 171.34 242.74 171.31C243.62 171.28 244.27 171.72 244.36 171.6C244.45 171.48 244.3 171.35 244.02 171.14C243.64 170.874 243.183 170.741 242.72 170.76C242.255 170.781 241.809 170.953 241.45 171.25C241.19 171.49 241.1 171.7 241.15 171.75Z" fill="#263238"/>
<path d="M237.85 179.28C237.385 179.145 236.904 179.071 236.42 179.06C236.2 179.06 235.99 179.06 235.95 178.85C235.923 178.602 235.968 178.352 236.08 178.13C236.29 177.54 236.5 176.92 236.72 176.27C237.314 174.695 237.786 173.077 238.13 171.43C237.424 172.957 236.833 174.535 236.36 176.15C236.15 176.8 235.95 177.42 235.75 178.01C235.614 178.307 235.579 178.641 235.65 178.96C235.683 179.042 235.735 179.115 235.801 179.174C235.867 179.233 235.945 179.276 236.03 179.3C236.156 179.313 236.284 179.313 236.41 179.3C236.889 179.354 237.373 179.348 237.85 179.28Z" fill="#263238"/>
<path d="M237.42 190.44C240.457 190.357 243.404 189.391 245.9 187.66C245.9 187.66 243.9 192.42 237.53 192.04L237.42 190.44Z" fill="#EB996E"/>
<path d="M269.22 176.28C268.809 176.347 268.391 176.347 267.98 176.28C267.24 175.12 265.91 174.28 264.92 173.21C264.729 172.256 264.812 171.268 265.16 170.36C265.346 169.853 265.499 169.335 265.62 168.81C265.76 168.227 265.728 167.615 265.53 167.05C265.006 165.966 264.086 165.125 262.96 164.7C262.08 163.47 260.47 162.9 259.35 161.85C259.12 161.283 258.952 160.693 258.85 160.09C258.713 159.105 258.455 158.141 258.08 157.22C257.696 156.429 257.126 155.743 256.42 155.22C255.603 154.581 254.629 154.177 253.6 154.05C252.879 153.675 252.102 153.418 251.3 153.29C250.084 153.112 248.843 153.218 247.674 153.598C246.505 153.977 245.44 154.621 244.56 155.48C242.77 155.027 240.908 154.939 239.083 155.221C237.259 155.503 235.51 156.148 233.94 157.12C232.5 157.884 231.327 159.07 230.58 160.52C230.079 161.878 229.864 163.325 229.95 164.77C229.95 165.77 229.95 166.84 229.95 167.87C229.922 168.136 229.974 168.404 230.1 168.64C230.245 168.792 230.424 168.909 230.621 168.982C230.819 169.055 231.03 169.081 231.24 169.06L236.03 169.24C236.354 169.282 236.684 169.23 236.98 169.09C237.23 168.927 237.432 168.7 237.564 168.433C237.696 168.165 237.753 167.867 237.73 167.57C237.73 167.12 237.73 166.2 237.73 165.94C237.887 166.566 238.077 167.184 238.3 167.79C238.343 168.122 238.454 168.441 238.626 168.729C238.798 169.016 239.028 169.265 239.3 169.46C239.735 169.647 240.208 169.726 240.68 169.69C241.37 169.69 242.06 169.69 242.75 169.69C243.101 169.712 243.451 169.624 243.75 169.44C243.939 169.237 244.073 168.988 244.137 168.718C244.202 168.448 244.196 168.166 244.12 167.9C243.937 167.199 243.827 166.482 243.79 165.76C244.41 166.98 244.71 168.5 245.47 168.7C246.243 168.815 247.032 168.757 247.78 168.53C248.55 168.29 249.09 168.1 249.65 167.92C249.603 168.24 249.526 168.554 249.42 168.86C248.84 170.43 247.53 171.94 247.98 173.55C248.43 175.16 250.05 175.72 250.89 176.99C251.279 177.723 251.498 178.534 251.529 179.364C251.56 180.194 251.403 181.019 251.07 181.78C250.392 183.288 249.801 184.834 249.3 186.41C248.93 188.02 249.19 189.95 250.51 190.94C251.61 191.601 252.893 191.891 254.17 191.77L265.79 191.87C266.538 191.921 267.29 191.84 268.01 191.63C268.371 191.524 268.698 191.325 268.958 191.053C269.218 190.781 269.401 190.445 269.49 190.08C269.514 189.638 269.43 189.196 269.245 188.794C269.06 188.391 268.781 188.04 268.43 187.77C267.722 187.217 267.122 186.539 266.66 185.77C266.05 184.46 266.66 182.93 267.32 181.66C267.98 180.39 268.78 179.01 268.53 177.59C268.473 177.24 268.358 176.902 268.19 176.59C268.568 176.609 268.946 176.565 269.31 176.46C269.647 176.374 269.963 176.221 270.24 176.01C270.42 175.87 270.5 175.78 270.49 175.76C270.094 175.994 269.666 176.169 269.22 176.28ZM254.37 154.5C255.033 154.717 255.65 155.057 256.19 155.5C256.837 156.01 257.351 156.668 257.69 157.42C258.03 158.315 258.262 159.249 258.38 160.2C258.38 160.4 258.46 160.61 258.5 160.82C257.94 159.82 257.66 158.69 257.17 157.66C256.538 156.376 255.57 155.288 254.37 154.51V154.5ZM263.37 165.5C264.106 165.866 264.695 166.473 265.04 167.22C265.265 168.23 265.145 169.286 264.7 170.22C264.414 170.971 264.304 171.779 264.38 172.58C264.175 172.302 264.007 172 263.88 171.68C263.12 169.78 264.07 167.44 263.38 165.55L263.37 165.5Z" fill="#263238"/>
<path d="M238.17 181.59C238.222 181.315 238.34 181.058 238.514 180.84C238.689 180.622 238.914 180.451 239.17 180.34C239.347 180.258 239.54 180.216 239.735 180.216C239.93 180.216 240.123 180.258 240.3 180.34C240.477 180.435 240.621 180.581 240.714 180.759C240.807 180.938 240.844 181.14 240.82 181.34C240.769 181.554 240.655 181.749 240.493 181.898C240.331 182.048 240.128 182.146 239.91 182.18C239.476 182.248 239.032 182.221 238.61 182.1C238.489 182.077 238.374 182.033 238.27 181.97C238.218 181.938 238.177 181.892 238.152 181.836C238.127 181.781 238.119 181.719 238.13 181.66" fill="#EB996E"/>
<path d="M240.34 179.28C240.41 179.28 240.52 179.52 240.49 179.94C240.437 180.507 240.182 181.036 239.77 181.43C239.354 181.819 238.81 182.043 238.24 182.06C237.81 182.06 237.57 181.94 237.58 181.88C237.59 181.82 238.58 181.81 239.41 181.05C240.24 180.29 240.2 179.28 240.34 179.28Z" fill="#263238"/>
<path d="M225.12 202.51C225.12 202.51 205.75 219.35 205.25 217.28C202.52 206.13 203.25 191.9 203.73 186.46C204.03 185.99 204.38 185.46 204.79 184.9C205.29 184.269 205.887 183.722 206.56 183.28C207.365 182.671 208.25 182.177 209.19 181.81C210.08 181.55 210.19 180.36 209.45 180.08C208.71 179.8 206.2 180.43 203.9 182.35C201.6 184.27 202.54 179.71 202.85 178.04C203.16 176.37 203.85 171.17 203.44 170.68C202.8 169.97 201.89 170.54 201.61 172.21C201.33 173.88 200.17 178.85 199.3 178.67C198.43 178.49 200.13 170.01 200.13 170.01C200.13 170.01 200.79 168.25 199.79 168.01C197.97 167.56 196.84 176.69 196.79 177.56C196.73 178.16 195.79 178 195.87 177.35C195.95 176.7 197.76 168.93 195.87 168.46C194.46 168.1 194.87 175.96 193.6 177.39C192.33 178.82 193.9 171.39 192.54 171.09C192.03 170.99 191.63 170.98 191.35 175.36C191.279 178.887 191.406 182.416 191.73 185.93C190.53 197.93 188.18 234.78 204.81 233.51C224.44 232.02 228.96 216.51 228.96 216.51L225.12 202.51Z" fill="#FFBE9D"/>
<path d="M279.381 229.28L276.021 212.44C273.551 198.65 254.221 197.7 254.221 197.7L239.051 197.45C239.051 197.45 228.951 197.13 220.861 203.76C212.771 210.39 207.351 215.5 207.351 215.5L220.041 230.18L227.561 225.18C227.561 225.18 224.851 230.06 225.301 234.18C225.731 238.18 229.931 241.24 229.931 241.24L226.771 275.11L276.311 273.11L269.931 229.28H279.381Z" fill="#0658F6"/>
<path d="M277.02 216.12C276.86 216.548 276.666 216.962 276.44 217.36C274.723 220.34 271.962 222.577 268.69 223.64C266.029 224.475 263.18 224.507 260.5 223.73C258.936 223.285 257.481 222.519 256.23 221.48C254.826 220.346 253.927 218.703 253.73 216.91C253.663 215.941 253.868 214.972 254.322 214.113C254.776 213.254 255.461 212.54 256.3 212.05C256.759 211.809 257.262 211.667 257.779 211.632C258.296 211.598 258.814 211.672 259.3 211.85C260.287 212.213 261.133 212.878 261.72 213.75C262.334 214.633 262.681 215.674 262.72 216.75C262.735 217.831 262.502 218.902 262.04 219.88C261.068 221.861 259.588 223.548 257.75 224.77C255.86 226.08 253.73 227.003 251.482 227.487C249.234 227.971 246.912 228.006 244.65 227.59C242.343 227.167 240.162 226.226 238.27 224.84C236.405 223.504 234.986 221.636 234.2 219.48C233.471 217.367 233.546 215.06 234.41 213C234.819 212.003 235.472 211.125 236.309 210.447C237.146 209.769 238.14 209.313 239.2 209.12C240.235 208.958 241.294 209.179 242.179 209.74C243.064 210.301 243.715 211.164 244.01 212.17C244.218 213.155 244.039 214.183 243.51 215.04C243.027 215.868 242.338 216.557 241.51 217.04C239.906 217.833 238.082 218.065 236.33 217.7C234.748 217.418 233.195 216.993 231.69 216.43C229.046 215.561 226.677 214.012 224.82 211.94C223.459 210.324 222.675 208.301 222.59 206.19C222.524 204.862 222.821 203.541 223.45 202.37C223.671 201.966 223.947 201.596 224.27 201.27C224.27 201.27 223.97 201.64 223.54 202.42C222.969 203.587 222.714 204.883 222.8 206.18C222.916 208.232 223.703 210.189 225.04 211.75C226.881 213.763 229.219 215.256 231.82 216.08C233.304 216.622 234.833 217.031 236.39 217.3C238.048 217.643 239.773 217.421 241.29 216.67C242.053 216.235 242.687 215.607 243.13 214.85C243.6 214.081 243.754 213.16 243.56 212.28C243.287 211.39 242.701 210.63 241.911 210.139C241.12 209.648 240.179 209.46 239.26 209.61C238.284 209.793 237.369 210.219 236.601 210.848C235.832 211.477 235.233 212.289 234.86 213.21C234.046 215.157 233.982 217.338 234.68 219.33C235.43 221.387 236.786 223.169 238.57 224.44C240.4 225.771 242.505 226.676 244.73 227.09C249.164 227.902 253.74 226.92 257.45 224.36C259.214 223.194 260.639 221.583 261.58 219.69C262.012 218.777 262.231 217.779 262.22 216.77C262.182 215.793 261.863 214.849 261.3 214.05C260.777 213.257 260.018 212.648 259.13 212.31C258.704 212.154 258.251 212.087 257.798 212.115C257.346 212.142 256.904 212.263 256.5 212.47C255.737 212.921 255.114 213.575 254.7 214.358C254.285 215.142 254.095 216.025 254.15 216.91C254.238 217.742 254.49 218.549 254.892 219.284C255.294 220.018 255.837 220.666 256.49 221.19C257.687 222.208 259.089 222.958 260.6 223.39C263.209 224.177 265.992 224.177 268.6 223.39C270.564 222.783 272.366 221.741 273.87 220.34C274.824 219.455 275.655 218.446 276.34 217.34L276.84 216.46L277.02 216.12Z" fill="white"/>
<path d="M274.95 267.58L274.68 267.7C274.5 267.76 274.23 267.88 273.87 267.98C272.809 268.296 271.715 268.484 270.61 268.54C268.855 268.638 267.096 268.435 265.41 267.94C263.164 267.287 261.107 266.108 259.41 264.5C257.817 262.964 256.576 261.101 255.772 259.04C254.968 256.979 254.619 254.768 254.75 252.56C254.809 250.868 255.283 249.216 256.13 247.75C256.597 246.982 257.242 246.337 258.01 245.87C258.81 245.397 259.731 245.167 260.66 245.21C261.142 245.22 261.617 245.329 262.056 245.53C262.494 245.732 262.887 246.021 263.21 246.38C263.864 247.122 264.221 248.08 264.21 249.07C264.212 250.055 263.923 251.018 263.38 251.84C262.831 252.652 262.127 253.349 261.31 253.89C259.658 254.965 257.797 255.677 255.85 255.98C251.992 256.569 248.05 255.775 244.72 253.74C243.142 252.786 241.761 251.541 240.65 250.07C239.541 248.67 238.817 247.005 238.55 245.24C238.429 244.389 238.488 243.522 238.722 242.696C238.956 241.869 239.361 241.101 239.91 240.44C240.434 239.797 241.127 239.313 241.91 239.04C242.683 238.786 243.514 238.765 244.3 238.98C245.067 239.164 245.763 239.571 246.3 240.15C246.819 240.713 247.117 241.444 247.14 242.21C247.125 242.911 246.955 243.6 246.642 244.228C246.329 244.855 245.881 245.406 245.33 245.84C244.384 246.651 243.281 247.257 242.09 247.62C241.048 247.967 239.966 248.179 238.87 248.25C237.11 248.359 235.347 248.089 233.7 247.46C232.671 247.05 231.705 246.498 230.83 245.82C230.598 245.647 230.378 245.46 230.17 245.26C230.03 245.13 229.96 245.06 229.97 245.05C229.98 245.04 230.28 245.3 230.89 245.73C233.2 247.413 236.041 248.205 238.89 247.96C239.96 247.876 241.016 247.654 242.03 247.3C243.174 246.945 244.231 246.352 245.13 245.56C245.633 245.16 246.042 244.655 246.327 244.079C246.613 243.504 246.767 242.872 246.78 242.23C246.722 241.546 246.443 240.899 245.985 240.388C245.526 239.877 244.914 239.53 244.24 239.4C243.539 239.209 242.798 239.23 242.11 239.46C241.398 239.708 240.768 240.147 240.29 240.73C239.788 241.346 239.419 242.06 239.206 242.825C238.992 243.591 238.939 244.393 239.05 245.18C239.306 246.858 239.995 248.44 241.05 249.77C242.126 251.19 243.463 252.391 244.99 253.31C248.216 255.269 252.028 256.034 255.76 255.47C257.634 255.178 259.425 254.497 261.02 253.47C261.797 253.019 262.449 252.382 262.917 251.615C263.385 250.848 263.654 249.977 263.7 249.08C263.718 248.22 263.427 247.383 262.88 246.72C262.599 246.416 262.261 246.171 261.885 245.999C261.509 245.827 261.103 245.732 260.69 245.72C259.856 245.685 259.03 245.89 258.31 246.31C257.607 246.736 257.014 247.322 256.58 248.02C255.775 249.421 255.323 250.995 255.26 252.61C255.166 254.142 255.304 255.679 255.67 257.17C256.343 259.857 257.744 262.307 259.72 264.25C261.363 265.837 263.357 267.016 265.54 267.69C268.252 268.518 271.139 268.591 273.89 267.9C274.56 267.69 274.94 267.56 274.95 267.58Z" fill="white"/>
<path d="M258.18 211.38C258.316 211.723 258.407 212.083 258.45 212.45C258.61 213.26 258.8 214.25 259.03 215.45C259.54 218.07 260.2 221.45 260.92 225.2C261.64 228.95 262.27 232.48 262.67 234.99C262.86 236.25 263.01 237.27 263.09 237.99C263.157 238.356 263.177 238.729 263.15 239.1C263.022 238.751 262.935 238.388 262.89 238.02C262.73 237.21 262.53 236.23 262.3 235.07C261.79 232.45 261.14 229.07 260.41 225.31C259.68 221.55 259.06 218.04 258.67 215.52C258.47 214.26 258.33 213.24 258.25 212.52C258.174 212.145 258.151 211.761 258.18 211.38Z" fill="#263238"/>
<path d="M279.691 229.42C276.649 229.697 273.594 229.794 270.541 229.71C267.489 229.806 264.434 229.733 261.391 229.49C264.432 229.211 267.487 229.111 270.541 229.19C273.593 229.099 276.647 229.176 279.691 229.42Z" fill="#263238"/>
<path d="M220.041 230.15C217.813 227.829 215.71 225.393 213.741 222.85C211.637 220.421 209.671 217.877 207.851 215.23C210.08 217.545 212.183 219.979 214.151 222.52C216.248 224.957 218.214 227.503 220.041 230.15Z" fill="#263238"/>
<path d="M252.87 197.75C252.12 197.931 251.351 198.018 250.58 198.01C249.16 198.09 247.2 198.14 245.03 198.11C242.86 198.08 240.91 197.97 239.49 197.84C238.719 197.825 237.953 197.714 237.21 197.51C237.975 197.431 238.745 197.431 239.51 197.51L245.04 197.63L250.57 197.68C251.337 197.628 252.107 197.652 252.87 197.75Z" fill="#263238"/>
<path d="M225.42 229.53C225.627 228.83 225.919 228.158 226.29 227.53L227.37 225.39C227.911 224.631 228.175 223.71 228.12 222.78C227.75 220.78 227.39 218.88 227.18 217.54C227.016 216.815 226.935 216.073 226.94 215.33C227.224 216.016 227.426 216.735 227.54 217.47C227.85 218.81 228.26 220.63 228.63 222.71C228.737 223.252 228.675 223.814 228.45 224.32C228.254 224.762 228.034 225.192 227.79 225.61C227.37 226.35 226.98 227.05 226.62 227.71C226.289 228.359 225.887 228.97 225.42 229.53Z" fill="#263238"/>
<path d="M185.251 385.15V374.84L203.721 374.72L203.881 390.14L202.731 390.22C197.631 390.55 176.801 391.22 173.381 390.13C169.561 388.95 185.251 385.15 185.251 385.15Z" fill="#0658F6"/>
<path d="M172.94 389.19C172.94 389.36 179.85 389.5 188.38 389.5C196.91 389.5 203.81 389.36 203.81 389.19C203.81 389.02 196.9 388.87 188.38 388.87C179.86 388.87 172.94 389.02 172.94 389.19Z" fill="#263238"/>
<path d="M184.92 387.28C185.07 387.2 184.92 386.65 184.55 386.12C184.18 385.59 183.67 385.29 183.55 385.41C183.43 385.53 183.68 385.99 184.04 386.49C184.4 386.99 184.77 387.34 184.92 387.28Z" fill="#263238"/>
<path d="M183.741 387.94C183.901 387.88 183.821 387.27 183.461 386.62C183.101 385.97 182.621 385.62 182.461 385.7C182.301 385.78 182.561 386.33 182.891 386.93C183.221 387.53 183.561 388 183.741 387.94Z" fill="#263238"/>
<path d="M198.25 389.12C198.32 389.17 198.59 388.9 198.99 388.44C199.481 387.853 200.023 387.311 200.61 386.82C201.192 386.365 201.88 386.065 202.61 385.95C203.17 385.87 203.54 385.95 203.61 385.87C203.68 385.79 203.29 385.54 202.61 385.5C201.749 385.492 200.912 385.782 200.24 386.32C199.6 386.836 199.06 387.467 198.65 388.18C198.32 388.71 198.18 389.07 198.25 389.12Z" fill="#263238"/>
<path d="M184.87 385.28C184.78 385.42 185.09 385.78 185.62 385.98C186.15 386.18 186.62 386.1 186.62 385.93C186.62 385.76 186.27 385.56 185.81 385.39C185.35 385.22 184.96 385.17 184.87 385.28Z" fill="#263238"/>
<path d="M185.16 384.28C185.16 384.45 185.63 384.6 186.26 384.61C186.89 384.62 187.38 384.49 187.36 384.31C187.34 384.13 186.86 383.99 186.26 383.98C185.66 383.97 185.17 384.15 185.16 384.28Z" fill="#263238"/>
<path d="M224.251 385.15V374.84L242.721 374.72L242.881 390.14L241.731 390.22C236.641 390.55 215.801 391.22 212.381 390.13C208.561 388.95 224.251 385.15 224.251 385.15Z" fill="#0658F6"/>
<path d="M211.95 389.19C211.95 389.36 218.86 389.5 227.38 389.5C235.9 389.5 242.81 389.36 242.81 389.19C242.81 389.02 235.91 388.87 227.38 388.87C218.85 388.87 211.95 389.02 211.95 389.19Z" fill="#263238"/>
<path d="M223.92 387.28C224.08 387.2 223.92 386.65 223.55 386.12C223.18 385.59 222.67 385.29 222.55 385.41C222.43 385.53 222.68 385.99 223.04 386.49C223.4 386.99 223.77 387.34 223.92 387.28Z" fill="#263238"/>
<path d="M222.751 387.94C222.911 387.88 222.821 387.27 222.461 386.62C222.101 385.97 221.621 385.62 221.461 385.7C221.301 385.78 221.561 386.33 221.891 386.93C222.221 387.53 222.561 388 222.751 387.94Z" fill="#263238"/>
<path d="M237.25 389.12C237.32 389.17 237.6 388.9 238 388.44C238.486 387.848 239.028 387.305 239.62 386.82C240.2 386.361 240.889 386.062 241.62 385.95C242.18 385.87 242.55 385.95 242.62 385.87C242.69 385.79 242.31 385.54 241.62 385.5C240.759 385.492 239.922 385.782 239.25 386.32C238.612 386.839 238.074 387.469 237.66 388.18C237.32 388.71 237.18 389.07 237.25 389.12Z" fill="#263238"/>
<path d="M223.87 385.28C223.78 385.42 224.09 385.78 224.62 385.98C225.15 386.18 225.62 386.1 225.62 385.93C225.62 385.76 225.27 385.56 224.81 385.39C224.35 385.22 223.96 385.17 223.87 385.28Z" fill="#263238"/>
<path d="M224.16 384.28C224.16 384.45 224.63 384.6 225.26 384.61C225.89 384.62 226.38 384.49 226.37 384.31C226.36 384.13 225.86 383.99 225.27 383.98C224.68 383.97 224.17 384.15 224.16 384.28Z" fill="#263238"/>
<path d="M281.45 242.76C280.45 234.67 279.38 229.45 279.38 229.45L261.77 229.72C261.77 229.72 263.35 238.61 262.86 240.99C262.44 243.07 228.45 244.44 219.59 244.58C219.07 244.19 218.3 244.85 217.59 244.26C216.985 243.729 216.475 243.1 216.08 242.4C215.552 241.543 215.144 240.618 214.87 239.65C214.856 239.457 214.78 239.274 214.655 239.128C214.529 238.981 214.359 238.879 214.171 238.837C213.982 238.794 213.785 238.813 213.609 238.891C213.432 238.969 213.285 239.102 213.19 239.27C212.83 240.03 213.19 242.55 214.91 244.99C216.63 247.43 212.19 246.16 210.57 245.73C208.95 245.3 203.9 244.2 203.37 244.61C202.61 245.2 203.09 246.15 204.71 246.55C206.33 246.95 211.12 248.47 210.86 249.33C210.6 250.19 202.41 247.87 202.41 247.87C202.41 247.87 200.73 247.08 200.41 248.07C199.8 249.85 208.69 251.66 209.54 251.81C210.13 251.91 209.88 252.86 209.25 252.72C208.62 252.58 201.13 250.21 200.49 252.02C200.01 253.41 207.79 253.57 209.08 254.95C210.37 256.33 203.19 254.2 202.78 255.55C202.63 256.05 205.61 256.28 209.9 256.88C214.309 257.308 218.741 257.468 223.17 257.36C233.17 257.9 268.32 258.63 275.84 258.1C284.62 257.48 281.78 245.54 281.45 242.76Z" fill="#FFBE9D"/>
<path d="M200.331 271.28C215.492 269.767 230.756 269.573 245.951 270.7L226.671 298.39L209.271 298.46L205.631 383.53H182.561L184.761 288.64C184.859 284.365 186.483 280.266 189.338 277.083C192.193 273.9 196.092 271.841 200.331 271.28Z" fill="#263238"/>
<path opacity="0.2" d="M200.331 271.28C215.492 269.767 230.756 269.573 245.951 270.7L226.671 298.39L209.271 298.46L205.631 383.53H182.561L184.761 288.64C184.859 284.365 186.483 280.266 189.338 277.083C192.193 273.9 196.092 271.841 200.331 271.28Z" fill="black"/>
<path d="M242.69 300.57C242.69 300.57 277.16 302.91 276.3 271.96C276.3 271.96 228.37 266.13 219.19 276.02C211.49 284.31 218.53 383.53 218.53 383.53L244.16 382.28" fill="#263238"/>
<path d="M249.86 270.28C249.634 270.307 249.406 270.307 249.18 270.28L247.23 270.36C245.54 270.43 243.1 270.57 240.08 270.79L235.15 271.17C233.38 271.34 231.48 271.49 229.54 271.84C227.497 272.215 225.49 272.764 223.54 273.48C221.54 274.25 219.54 275.4 218.54 277.48C217.635 279.509 217.058 281.669 216.83 283.88C216.582 285.951 216.439 288.034 216.4 290.12C216.31 294.12 216.12 297.72 215.99 300.75C215.86 303.78 215.77 306.15 215.7 307.9C215.7 308.71 215.65 309.35 215.63 309.85C215.635 310.077 215.618 310.305 215.58 310.53C215.535 310.306 215.518 310.078 215.53 309.85C215.53 309.41 215.53 308.75 215.53 307.9C215.53 306.21 215.53 303.76 215.65 300.73C215.77 297.7 215.88 294.1 215.95 290.11C215.972 288.007 216.109 285.907 216.36 283.82C216.581 281.55 217.168 279.331 218.1 277.25C218.621 276.181 219.401 275.259 220.37 274.57C221.3 273.925 222.308 273.4 223.37 273.01C225.353 272.293 227.394 271.748 229.47 271.38C231.47 271.04 233.37 270.9 235.14 270.75C236.91 270.6 238.58 270.51 240.09 270.43C243.09 270.26 245.56 270.18 247.26 270.16C248.1 270.16 248.76 270.16 249.21 270.16C249.43 270.176 249.648 270.217 249.86 270.28Z" fill="#455A64"/>
<path d="M244.36 375.82C244.035 375.917 243.699 375.971 243.36 375.98C242.71 376.04 241.75 376.12 240.57 376.2C238.22 376.37 234.96 376.56 231.36 376.74C227.76 376.92 224.5 377.06 222.14 377.13C220.96 377.13 220 377.19 219.34 377.19C219.006 377.217 218.67 377.2 218.34 377.14C218.666 377.049 219.002 376.999 219.34 376.99C220 376.92 220.95 376.85 222.13 376.77C224.48 376.6 227.74 376.41 231.34 376.22C234.94 376.03 238.2 375.91 240.56 375.83C241.74 375.83 242.7 375.78 243.36 375.78C243.694 375.753 244.029 375.766 244.36 375.82Z" fill="#455A64"/>
<path d="M206.391 376.98C206.391 377.12 201.041 377.24 194.391 377.24C187.741 377.24 182.391 377.12 182.391 376.98C182.391 376.84 187.751 376.72 194.391 376.72C201.031 376.72 206.391 376.83 206.391 376.98Z" fill="#455A64"/>
<path d="M216.981 281.47C216.884 281.485 216.787 281.485 216.691 281.47L215.841 281.4C215.101 281.33 214.001 281.24 212.581 281.18C211.161 281.12 209.421 281.06 207.411 281.18C206.338 281.226 205.27 281.336 204.211 281.51C203.031 281.664 201.89 282.03 200.841 282.59C200.292 282.876 199.85 283.332 199.581 283.89C199.321 284.507 199.103 285.142 198.931 285.79C198.563 287.173 198.286 288.58 198.101 290C197.811 293 197.551 296.15 197.311 299.5C196.831 306.21 196.481 313.59 196.201 321.34C195.681 336.86 195.091 350.9 194.671 361.07C194.451 366.12 194.271 370.22 194.141 373.07C194.061 374.46 194.011 375.56 193.971 376.34C193.971 376.69 193.971 376.97 193.911 377.19C193.922 377.286 193.922 377.383 193.911 377.48C193.9 377.383 193.9 377.286 193.911 377.19V376.34C193.911 375.55 193.911 374.46 193.991 373.06C194.071 370.18 194.201 366.06 194.351 361.06C194.711 350.86 195.201 336.83 195.731 321.33C196.011 313.58 196.381 306.19 196.881 299.48C197.134 296.146 197.414 292.97 197.721 289.95C197.913 288.511 198.207 287.087 198.601 285.69C198.773 285.022 199 284.37 199.281 283.74C199.588 283.115 200.085 282.604 200.701 282.28C201.796 281.711 202.985 281.341 204.211 281.19C205.284 281.029 206.366 280.932 207.451 280.9C209.181 280.849 210.913 280.886 212.641 281.01C214.061 281.11 215.161 281.24 215.901 281.33L216.751 281.46C216.827 281.454 216.904 281.457 216.981 281.47Z" fill="#455A64"/>
<path d="M270.56 271.37C270.576 271.486 270.576 271.603 270.56 271.72C270.56 271.95 270.51 272.3 270.43 272.72C270.189 274.038 269.719 275.304 269.04 276.46C268.151 277.949 266.938 279.218 265.49 280.174C264.043 281.13 262.399 281.747 260.68 281.98C259.204 282.11 257.721 282.153 256.24 282.11H240.46C239.46 282.11 238.46 282.11 237.52 282.11C236.538 282.146 235.573 282.378 234.68 282.79C233.759 283.215 232.932 283.818 232.245 284.564C231.559 285.311 231.027 286.186 230.68 287.14C230.334 288.135 230.178 289.187 230.22 290.24V293.55C230.22 298 230.22 302.61 230.22 307.34C230.22 326.22 230.16 343.34 230.14 355.72C230.14 361.88 230.08 366.89 230.06 370.38C230.06 372.09 230.06 373.38 230.06 374.38C230.06 374.81 230.06 375.15 230.06 375.38C230.06 375.61 230.06 375.73 230.06 375.73C230.046 375.613 230.046 375.496 230.06 375.38C230.06 375.12 230.06 374.78 230.06 374.38C230.06 373.38 230.06 372.1 230.06 370.38C230.06 366.89 230.06 361.88 229.98 355.72C229.98 343.31 229.93 326.22 229.9 307.34C229.9 302.61 229.9 298 229.9 293.55V290.28C229.864 289.167 230.037 288.058 230.41 287.01C230.782 285.993 231.353 285.061 232.09 284.267C232.826 283.474 233.714 282.836 234.7 282.39C235.645 281.961 236.664 281.72 237.7 281.68C238.7 281.68 239.7 281.68 240.7 281.68H246.34L256.46 281.74C257.924 281.792 259.39 281.762 260.85 281.65C262.531 281.434 264.142 280.845 265.566 279.926C266.99 279.008 268.191 277.782 269.08 276.34C269.773 275.211 270.27 273.974 270.55 272.68C270.64 272.24 270.68 271.9 270.72 271.68C270.76 271.46 270.56 271.37 270.56 271.37Z" fill="#455A64"/>
<path d="M243.03 293.71C243.234 296.355 243.083 299.015 242.58 301.62C242.405 300.292 242.405 298.947 242.58 297.62C242.564 296.303 242.715 294.989 243.03 293.71Z" fill="#455A64"/>
<path d="M99.9099 236.57C99.9099 236.57 98.7999 227.74 99.6699 227.74C100.54 227.74 101.08 236.57 101.08 236.57H99.6199" fill="#263238"/>
<path d="M102.79 236.57C102.79 236.57 101.68 227.74 102.56 227.74C103.44 227.74 103.96 236.57 103.96 236.57H102.5" fill="#0658F6"/>
<path opacity="0.3" d="M102.79 236.57C102.79 236.57 101.68 227.74 102.56 227.74C103.44 227.74 103.96 236.57 103.96 236.57H102.5" fill="black"/>
<path d="M107.2 236.57C107.2 236.57 106.09 227.74 106.97 227.74C107.85 227.74 108.37 236.57 108.37 236.57H106.91" fill="#263238"/>
<path d="M104.62 237.03C104.62 237.03 104.62 228.14 105.5 228.25C106.38 228.36 105.78 237.18 105.78 237.18L104.33 237" fill="#455A64"/>
<path d="M101.92 236.57C101.92 236.57 100.81 227.74 101.69 227.74C102.57 227.74 103.09 236.57 103.09 236.57H101.63" fill="#0658F6"/>
<path opacity="0.5" d="M101.92 236.57C101.92 236.57 100.81 227.74 101.69 227.74C102.57 227.74 103.09 236.57 103.09 236.57H101.63" fill="white"/>
<path d="M99.7298 250.46L98.2598 236.57H110.04V250.46H99.7298Z" fill="#0658F6"/>
<path d="M350.2 250.52H89.9102V257.47H103.83L96.6202 390.11H100.59L107.8 257.47H336L342.15 390.09L346.54 390.32L339.97 257.47H350.2V250.52Z" fill="#263238"/>
<path d="M175.12 209.47L189.56 251.65H254.92L254.43 249.47L228 248.66L215.83 209.45L175.12 209.47Z" fill="#263238"/>
<path d="M204.09 229.28C204.52 231.01 203.78 232.7 202.43 233.06C201.08 233.42 199.65 232.31 199.22 230.58C198.79 228.85 199.53 227.16 200.87 226.8C202.21 226.44 203.66 227.55 204.09 229.28Z" fill="white"/>
<path d="M330.56 237.62C329.395 236.756 327.956 236.344 326.51 236.46C326.51 235.67 326.51 235.19 326.51 235.19H304.34C304.34 235.19 303.65 249.8 314.83 250.32C319.83 250.55 322.71 248.32 324.35 245.48C325.169 245.68 326.008 245.784 326.85 245.79C328.09 245.836 329.313 245.486 330.34 244.79C330.901 244.349 331.345 243.777 331.634 243.125C331.923 242.474 332.049 241.761 332 241.05C332.032 240.407 331.92 239.765 331.67 239.171C331.421 238.577 331.042 238.047 330.56 237.62ZM329.05 243.05C328.05 243.76 326.41 243.65 325.31 243.45C325.869 241.901 326.231 240.288 326.39 238.65C327.36 238.532 328.341 238.758 329.16 239.29C329.398 239.515 329.582 239.791 329.698 240.098C329.815 240.404 329.86 240.733 329.83 241.06C329.87 241.431 329.819 241.806 329.681 242.152C329.543 242.499 329.324 242.807 329.04 243.05H329.05Z" fill="#0658F6"/>
<path d="M324.64 233.65C324.436 233.469 324.257 233.26 324.11 233.03C323.666 232.377 323.357 231.643 323.2 230.87C322.935 229.635 323.05 228.348 323.53 227.18C324.297 225.72 325.351 224.431 326.63 223.39C328.077 222.067 329.058 220.314 329.43 218.39C329.872 216.202 329.445 213.928 328.24 212.05C327.597 211.043 326.761 210.173 325.78 209.49C324.719 208.819 323.568 208.303 322.36 207.96C321.049 207.596 319.822 206.978 318.75 206.14C318.21 205.672 317.774 205.096 317.47 204.45C317.136 203.778 317.041 203.013 317.2 202.28L317.29 201.98L317.62 202.31C317.041 202.575 316.547 202.996 316.194 203.526C315.841 204.056 315.642 204.673 315.62 205.31C315.556 206.582 315.839 207.847 316.44 208.97C316.99 210.12 317.67 211.2 318.16 212.37C318.712 213.507 318.954 214.769 318.86 216.03C318.703 217.24 318.122 218.356 317.22 219.18C316.4 219.944 315.461 220.569 314.44 221.03C312.5 221.91 310.59 222.43 309.07 223.34C307.693 224.137 306.602 225.348 305.95 226.8C305.455 227.896 305.199 229.086 305.2 230.29C305.232 231.314 305.427 232.327 305.78 233.29C305.78 233.29 305.78 233.23 305.68 233.11C305.585 232.934 305.504 232.75 305.44 232.56C305.172 231.828 305.023 231.058 305 230.28C304.961 229.037 305.197 227.801 305.69 226.66C306.337 225.134 307.454 223.855 308.88 223.01C310.628 222.115 312.424 221.317 314.26 220.62C315.228 220.174 316.116 219.572 316.89 218.84C317.711 218.086 318.239 217.066 318.38 215.96C318.461 214.784 318.23 213.607 317.71 212.55C317.23 211.43 316.55 210.35 315.98 209.16C315.326 207.958 315.025 206.595 315.11 205.23C315.184 204.521 315.417 203.837 315.79 203.23C316.179 202.594 316.771 202.108 317.47 201.85L317.94 201.69L317.8 202.18L317.73 202.43C317.645 203.062 317.727 203.705 317.97 204.295C318.212 204.885 318.605 205.4 319.11 205.79C320.133 206.576 321.297 207.156 322.54 207.5C323.791 207.865 324.983 208.407 326.08 209.11C327.116 209.827 327.994 210.75 328.66 211.82C329.92 213.803 330.354 216.2 329.87 218.5C329.445 220.49 328.394 222.291 326.87 223.64C325.606 224.637 324.555 225.878 323.78 227.29C323.3 228.401 323.161 229.629 323.38 230.82C323.574 231.848 324.005 232.818 324.64 233.65Z" fill="#263238"/>
<path d="M120.36 214.16L120.23 204.6L153.74 207.44L154.69 215.97L120.36 214.16Z" fill="#263238"/>
<path d="M124.05 214.36C123.735 212.81 123.584 211.231 123.6 209.65C123.457 208.075 123.484 206.489 123.68 204.92C123.997 206.469 124.144 208.048 124.12 209.63C124.271 211.204 124.248 212.79 124.05 214.36Z" fill="#455A64"/>
<path d="M125.31 205.03C125.603 206.575 125.724 208.148 125.67 209.72C125.796 211.291 125.743 212.871 125.51 214.43C125.223 212.88 125.102 211.305 125.15 209.73C125.03 208.162 125.084 206.586 125.31 205.03Z" fill="#455A64"/>
<path d="M128.36 209.28C134.2 209.92 141.06 210.28 147 210.82Z" fill="white"/>
<path d="M147 210.78C146.087 210.845 145.17 210.828 144.26 210.73C142.56 210.65 140.26 210.5 137.66 210.31C135.06 210.12 132.75 209.9 131.07 209.7C130.154 209.639 129.246 209.485 128.36 209.24C129.274 209.184 130.192 209.214 131.1 209.33L137.69 209.79C140.27 209.98 142.6 210.18 144.28 210.37C145.198 210.415 146.11 210.552 147 210.78Z" fill="#455A64"/>
<path d="M149.45 215.69C148.964 212.867 148.823 209.996 149.03 207.14C149.516 209.962 149.658 212.833 149.45 215.69Z" fill="#455A64"/>
<path d="M151.56 215.8C151.164 214.412 150.935 212.982 150.88 211.54C150.651 210.115 150.598 208.668 150.72 207.23C151.11 208.619 151.339 210.048 151.4 211.49C151.623 212.915 151.677 214.362 151.56 215.8Z" fill="#455A64"/>
<path d="M133.33 211.38C137.02 211.63 139.83 211.81 142.77 211.88Z" fill="white"/>
<path d="M142.77 211.88C141.198 212.058 139.612 212.058 138.04 211.88C136.456 211.879 134.877 211.708 133.33 211.37C134.902 211.192 136.488 211.192 138.06 211.37C139.644 211.37 141.223 211.541 142.77 211.88Z" fill="#455A64"/>
<path d="M126.84 250.64L125.93 241.12L159.55 241.18L161.38 250.52L126.84 250.64Z" fill="#0658F6"/>
<path opacity="0.5" d="M126.84 250.64L125.93 241.12L159.55 241.18L161.38 250.52L126.84 250.64Z" fill="white"/>
<path d="M133.602 244.839L133.599 246.559L154.629 246.596L154.632 244.876L133.602 244.839Z" fill="#263238"/>
<path d="M122.1 241.92L121.29 232.4L154.91 232.81L156.48 241.26L122.1 241.92Z" fill="#263238"/>
<path d="M121.4 233.69L121.93 240.12L154.63 239.79L153.59 233.91L121.4 233.69Z" fill="white"/>
<path d="M151.87 236.54C151.481 236.612 151.085 236.638 150.69 236.62H147.47C144.75 236.62 141 236.62 136.86 236.52C132.72 236.42 128.97 236.35 126.25 236.26L123.04 236.12C122.644 236.129 122.247 236.089 121.86 236C122.249 235.926 122.645 235.9 123.04 235.92H126.26C128.97 235.92 132.72 235.92 136.87 236.02C141.02 236.12 144.76 236.19 147.48 236.28L150.69 236.42C151.087 236.41 151.484 236.45 151.87 236.54Z" fill="#263238"/>
<path d="M151.871 237.35C151.48 237.438 151.081 237.479 150.681 237.47L147.441 237.6C144.711 237.69 140.931 237.77 136.761 237.83C132.591 237.89 128.761 237.91 126.071 237.9H122.831C122.432 237.92 122.032 237.889 121.641 237.81C122.033 237.734 122.431 237.693 122.831 237.69L126.071 237.56C128.801 237.48 132.581 237.4 136.751 237.34C140.921 237.28 144.701 237.25 147.441 237.26H150.681C151.079 237.25 151.478 237.28 151.871 237.35Z" fill="#263238"/>
<path d="M122.6 232.83L121.97 223.29L155.58 224.35L156.98 232.82L122.6 232.83Z" fill="#455A64"/>
<path d="M123.93 231.63L156.64 231.16L155.73 225.22L123.32 224.62L123.93 231.63Z" fill="white"/>
<path d="M123.52 223.47L123.21 213.92L156.76 216.11L157.88 224.62L123.52 223.47Z" fill="#0658F6"/>
<path d="M130.391 216.471L130.288 218.191L151.318 219.452L151.421 217.732L130.391 216.471Z" fill="#263238"/>
<path d="M156.06 227.67C155.638 227.744 155.209 227.778 154.78 227.77L151.28 227.87C148.28 227.93 144.28 227.97 139.74 227.99C135.2 228.01 131.15 227.99 128.19 227.99L124.7 227.92C124.268 227.934 123.835 227.901 123.41 227.82C123.833 227.745 124.261 227.712 124.69 227.72L128.19 227.62C131.19 227.56 135.19 227.52 139.74 227.5C144.29 227.48 148.33 227.5 151.28 227.5L154.78 227.57C155.209 227.554 155.639 227.588 156.06 227.67Z" fill="#263238"/>
<path d="M156.45 229.52C156.021 229.591 155.585 229.618 155.15 229.6H151.63C148.63 229.6 144.54 229.6 140 229.51C135.46 229.42 131.36 229.37 128.38 229.28L124.86 229.15C124.428 229.147 123.996 229.106 123.57 229.03C123.995 228.949 124.428 228.919 124.86 228.94H128.38C131.38 228.94 135.47 228.94 140.01 229.02C144.55 229.1 148.66 229.17 151.64 229.26L155.16 229.39C155.594 229.383 156.027 229.427 156.45 229.52Z" fill="#263238"/>
</svg>
