<svg width="52" height="47" viewBox="0 0 52 47" fill="none" xmlns="http://www.w3.org/2000/svg">
<g clip-path="url(#clip0_62_1009)">
<path d="M18.8453 44.6689C18.9207 44.4848 19.1109 44.0368 19.0435 44.0957L18.7205 44.8597L18.8453 44.6689Z" fill="#006D2C"/>
<path d="M19.2754 43.2201C19.0966 43.5672 18.8064 44.2027 18.5509 44.9078C18.8805 44.1925 18.7443 44.4842 19.1313 43.6369C19.1954 43.5537 19.066 43.8941 18.9546 44.1824C19.03 43.9983 18.9286 44.3596 19.1154 43.8873C19.3349 43.2864 19.3068 43.2654 19.092 43.7168C19.1707 43.5571 19.2428 43.3487 19.3001 43.2167L19.2754 43.2201Z" fill="#006D2C"/>
<path d="M17.8948 41.2257L17.859 41.3293C17.859 41.3293 17.8981 41.2499 17.8948 41.2257Z" fill="#006D2C"/>
<path d="M16.9604 40.2859C16.9604 40.2859 17.0241 40.2031 17.0386 40.1271C16.9962 40.1823 16.975 40.2098 16.9604 40.2859Z" fill="#006D2C"/>
<path d="M17.1646 39.3899C17.1646 39.3899 17.1679 39.4142 17.1712 39.4384C17.2104 39.359 17.207 39.3348 17.1646 39.3899Z" fill="#006D2C"/>
<path d="M17.8954 41.2256L17.9641 40.9929C17.846 41.2324 17.8887 41.1769 17.8954 41.2256Z" fill="#006D2C"/>
<path d="M18.2519 44.9241C18.2519 44.9241 18.3126 44.8165 18.352 44.7367C18.3553 44.761 18.3093 44.7921 18.3126 44.8165L18.2519 44.9241Z" fill="#006D2C"/>
<path d="M18.6738 40.8459C18.6738 40.8459 18.7739 40.6584 18.8099 40.5542L18.6491 40.8492L18.6738 40.8459Z" fill="#006D2C"/>
<path d="M19.1095 40.91C19.1095 40.91 18.8406 41.5177 18.7011 41.785C18.8159 41.5211 18.8766 41.4135 18.9193 41.358C18.9767 41.2261 19.0341 41.0941 19.1095 40.91Z" fill="#006D2C"/>
<path d="M19.2473 42.2805L19.2864 42.2011C19.2864 42.2011 19.2685 42.2529 19.2473 42.2805Z" fill="#006D2C"/>
<path d="M18.4637 40.6017C18.4637 40.6017 18.5391 40.4176 18.5571 40.3655L18.4637 40.6017Z" fill="#006D2C"/>
<path d="M5.15548 38.0596C5.15548 38.0596 5.22249 38.0011 5.24372 37.9735C5.20126 38.0287 5.15548 38.0596 5.15548 38.0596Z" fill="#006D2C"/>
<path d="M7.15396 35.2048L7.17531 35.1771L7.43826 34.8928L7.15396 35.2048Z" fill="#006D2C"/>
<path d="M14.0407 37.1634C13.737 37.7014 13.5495 37.8016 13.2032 38.3951C13.3493 38.1765 13.8371 37.5139 14.0407 37.1634Z" fill="#006D2C"/>
<path d="M13.2034 38.3951L13.1609 38.4503L13.2034 38.3951Z" fill="#006D2C"/>
<path d="M16.2979 38.3922C16.2979 38.3922 16.1978 38.5797 16.1584 38.6595C16.2011 38.604 16.2405 38.5242 16.2979 38.3922Z" fill="#006D2C"/>
<path d="M15.514 39.0951C15.514 39.0951 15.5711 38.9639 15.5074 39.0467C15.5107 39.0709 15.4895 39.0985 15.4682 39.1261C15.5074 39.0467 15.5531 39.0157 15.4928 39.1227L15.514 39.0951Z" fill="#006D2C"/>
<path d="M15.2123 38.9136C15.2123 38.9136 15.1732 38.993 15.1553 39.0448L15.1798 39.0414L15.2123 38.9136Z" fill="#006D2C"/>
<path d="M6.31488 38.6208C6.44636 38.4786 6.57449 38.3122 6.72732 38.1423C6.4003 38.5098 6.23744 38.6066 6.31488 38.6208Z" fill="#006D2C"/>
<path d="M18.4021 44.556C18.3234 44.7157 18.284 44.7955 18.2873 44.8199C18.2873 44.8199 18.2873 44.8199 18.3087 44.7921C18.3447 44.6879 18.3841 44.6081 18.4021 44.556Z" fill="#006D2C"/>
<path d="M8.64202 40.3612L8.57501 40.4198C8.57501 40.4198 8.57501 40.4198 8.64202 40.3612Z" fill="#006D2C"/>
<path d="M12.5222 43.7002C12.619 43.4883 12.7011 43.353 12.7404 43.2731C12.7224 43.3252 12.6764 43.3564 12.637 43.4362L12.5256 43.7245L12.5222 43.7002Z" fill="#006D2C"/>
<path d="M5.29611 39.0832C5.29611 39.0832 5.91077 38.428 6.28719 38.0537C6.51746 37.898 5.85674 38.5843 5.57912 38.945C5.78469 38.7928 6.35664 38.1931 6.36333 38.2418C6.25321 38.3562 6.23185 38.3839 6.10038 38.5261C6.60827 38.0097 6.2339 38.5822 6.8766 37.948C6.83389 38.0035 6.76648 38.0624 6.72377 38.1179C7.02943 37.7781 7.33175 37.414 7.54865 37.1609C7.57335 37.1575 7.97112 36.7555 7.55534 37.2096C7.55534 37.2096 7.39916 37.3551 7.26769 37.4973L7.46991 37.3206C6.93268 37.99 7.24633 37.525 6.83389 38.0035C7.06082 37.8235 7.57205 37.3314 7.4506 37.5466C6.91003 38.1916 7.19564 37.7057 6.74717 38.2884L6.90799 37.9933C6.06844 39.0268 6.94401 37.8891 6.0404 39.0058C5.94699 39.242 6.40883 38.7567 6.31208 38.9685C6.61774 38.6288 6.77057 38.4589 7.07289 38.0948C7.72563 37.5337 5.76686 39.7631 6.5624 38.959C6.96017 38.557 7.65358 37.7421 7.33993 38.2071L6.70725 38.9143C6.72396 39.0361 7.62758 37.9194 7.29592 38.4365C7.03297 38.7207 7.04764 38.6442 6.98357 38.7275C6.53845 39.3346 7.35999 38.3532 7.38803 38.3742L6.84745 39.0192C6.99564 38.9988 7.46751 38.5866 7.63371 38.5142C7.45952 38.7118 7.28199 38.8851 7.13585 39.1037C7.50428 38.8546 7.27141 39.3581 7.05656 39.8094L7.56111 39.2687C7.56111 39.2687 7.37225 39.5428 7.25879 39.6328C7.11598 39.8757 7.56111 39.2687 7.75999 39.0677C7.80939 39.0609 7.53177 39.4216 7.37559 39.5671C7.84411 39.1306 8.38673 38.6838 7.97299 39.3362L7.82016 39.5061C7.6807 39.7734 8.82591 38.4002 8.4482 38.9484L8.35943 39.035C8.2794 39.3686 8.8287 38.9706 8.22276 39.8727C8.89147 39.0613 8.05731 40.3173 8.95758 39.1763C8.58989 39.7975 8.39101 39.9986 8.20085 40.4465C8.21088 40.5196 8.78414 39.7461 8.9223 39.6527L8.45248 40.2631L8.97504 39.6702L8.44784 40.4127L8.60401 40.2671C8.60401 40.2671 8.78952 39.9687 8.91766 39.8022C9.16259 39.5701 8.70949 40.3023 8.47792 40.6319L8.97114 40.1919C8.77894 40.4417 8.71153 40.5006 8.58006 40.6427C9.10596 40.0742 8.11692 41.3019 8.59677 40.7645C8.70355 40.6257 8.87439 40.4038 8.95981 40.2928C8.71023 40.6745 8.76966 40.7407 8.92583 40.5952L8.6055 41.0114C8.6289 41.182 8.92323 40.943 9.00736 41.0059C9.1288 40.7907 9.65601 40.0483 9.75146 40.0104L9.28832 40.6696C9.612 40.2777 9.42778 40.4023 9.84356 39.9481C9.83224 40.0489 9.3197 40.7149 9.14552 40.9125L9.3444 40.7115C9.19491 40.9057 9.13419 41.0133 8.93865 41.2387C9.26232 40.8469 8.5316 41.9398 9.06883 41.2705L8.91934 41.4647C8.91934 41.4647 9.20569 41.351 9.30782 41.3618C9.71023 40.8102 9.65285 40.9422 9.99454 40.4982C9.92249 40.7066 9.66493 41.2135 9.76372 41.1999C10.0053 40.9434 10.1268 40.7282 10.383 40.3953C10.0267 40.9157 10.1255 40.9021 9.82314 41.2662C9.97133 41.2459 9.99603 41.2425 10.4005 40.8892C10.5466 40.6706 10.5827 40.5664 10.7108 40.3999C10.7749 40.3167 10.5927 40.6395 10.4252 40.8858L10.3825 40.9413C11.0399 40.2307 9.60848 42.6358 10.4514 41.6267L10.4087 41.6822L10.8919 41.1692C10.8919 41.1692 10.5929 41.5577 10.4107 41.8805C11.1041 41.0656 10.4935 42.1173 10.9734 41.5799C10.0098 43.1764 11.2798 41.6123 10.7219 42.6816L10.9468 42.3033C11.1998 41.9459 10.8287 42.5428 10.7894 42.6227C10.9749 42.3242 10.9682 42.2755 11.1177 42.0813C11.6029 41.7665 11.1752 42.8675 11.1894 43.3371C11.2094 43.4833 12.4373 41.4287 11.9895 42.3835L11.5297 43.067C12.2085 42.3287 11.8382 43.2977 12.4068 42.6737C12.3034 42.8368 12.1786 43.0276 12.1539 43.031C11.875 43.5656 12.2661 43.1149 12.5123 42.7089C12.519 42.7576 12.2874 43.0872 12.1907 43.299C12.0332 43.6184 12.6605 42.6885 12.3816 43.2231C12.3422 43.303 12.2781 43.3862 12.2321 43.4174C12.3996 43.171 12.2982 43.5324 12.6198 42.9423C12.5117 43.2549 12.8928 42.7311 12.7207 43.127C13.1344 42.4746 12.6226 43.5127 13.1972 42.5652C12.6259 43.537 12.8349 43.4091 13.1518 42.9685C12.9663 43.267 13.0191 43.2846 12.7481 43.694C12.7975 43.6872 12.929 43.5451 13.2113 43.0348C12.6208 44.2326 13.9013 42.1956 13.1006 43.6953C13.5164 43.2411 13.8287 42.9501 14.0557 42.77C13.5091 43.7385 13.8828 42.7938 13.3182 43.8143C13.6486 43.4712 14.1691 42.68 14.1565 42.9547C14.1025 43.1111 13.9103 43.3608 13.8068 43.5239C14.1372 43.1807 13.9604 43.7262 14.3448 43.2267C14.3054 43.3066 14.22 43.4176 14.1773 43.473C14.2267 43.4663 14.148 43.626 14.3908 43.1956L14.3054 43.3066C14.617 42.6434 15.1082 42.0052 15.287 41.658C14.5797 42.9215 15.2103 42.016 14.2961 43.6056C14.3602 43.5224 14.485 43.3316 14.6425 43.0121C14.6064 43.1164 14.5277 43.2761 14.3242 43.6266C14.5231 43.4256 14.7559 42.9221 14.812 42.9641C14.6906 43.1793 14.6512 43.2591 14.5084 43.5021C14.7546 43.096 15.0256 42.6866 14.9782 42.8916C14.8961 43.027 14.8174 43.1867 14.8174 43.1867C14.9409 43.1697 15.5548 42.1424 15.4388 42.5802C14.9136 43.5209 15.306 42.8963 14.8909 43.7226L15.0618 43.5006L15.2586 43.1013C15.2586 43.1013 15.6363 42.5531 15.5496 42.838L15.3428 43.1642L15.5023 43.043L15.607 42.7061C15.8779 42.2966 16.1435 41.6646 16.0781 41.9217C16.0141 42.0049 16.1062 41.9427 15.898 42.4428C16.0655 42.1964 16.205 41.9291 16.1362 42.1619C15.9968 42.4292 15.6818 43.068 15.5818 43.2555C15.9427 42.5855 15.7907 43.1276 16.1697 42.4055C16.0909 42.5652 15.8514 43.02 15.812 43.0998L16.1123 42.5374C16.0369 42.7215 16.0009 42.8257 15.8187 43.1485C15.8354 43.2703 16.3271 42.0861 16.1684 42.5794C16.1504 42.6315 16.0863 42.7147 16.0469 42.7946C16.0096 43.0727 16.3593 42.5035 16.3006 42.8094C15.9136 43.6567 16.1478 42.9793 15.8181 43.6946C15.981 43.5978 16.5015 42.8067 16.5069 43.0293L16.5429 42.9251C17.1368 41.7516 16.3268 43.5503 16.6551 43.0089C16.6157 43.0888 16.4583 43.4082 16.3975 43.5158C16.3782 43.7418 16.6672 43.2803 16.9515 42.9683L16.7907 43.2633C16.7039 43.5482 16.8174 43.4582 16.7914 43.6355C16.9522 43.3404 16.9342 43.3925 17.1491 42.9411C16.4659 44.7473 17.8178 42.1297 17.2674 43.6198L17.1279 43.8871L17.3481 43.6583C17.5777 43.1305 17.4809 43.3423 17.6497 42.9221C17.8105 42.627 17.9286 42.3874 17.9567 42.4084C17.7498 42.7346 17.5697 43.2557 17.4583 43.544C17.537 43.3842 17.6124 43.2002 17.6911 43.0405C17.3175 43.9852 18.1782 42.0058 17.9654 42.6554L17.8259 42.9227C17.8259 42.9227 18.0869 42.4402 18.1002 42.5376C17.8313 43.1453 17.9361 42.8083 17.7279 43.3084C17.7773 43.3016 18.3071 42.2114 18.0876 42.8123C17.9842 42.9754 17.9842 42.9754 17.8774 43.1142C17.6005 43.8471 17.6759 43.663 17.6679 43.7882L17.5879 44.1218L17.6599 43.9134C18.4046 42.3718 17.8768 43.6602 18.3953 42.6708C17.8982 43.6325 18.1444 43.2264 17.8362 43.914C17.7641 44.1224 17.6921 44.3308 17.6167 44.5149C17.8956 43.9803 17.4793 44.9805 17.8729 44.1819C17.7762 44.3937 17.8796 44.2306 17.6501 44.7585C17.7782 44.592 17.7975 44.366 17.937 44.0987C18.316 43.3766 17.6936 45.0751 18.2334 44.058C18.5077 43.6729 18.8306 42.9089 19.0622 42.5793C18.9361 42.9441 18.6932 43.3745 18.6932 43.3745C18.5884 43.7115 18.6592 43.677 18.802 43.434C18.7019 43.6215 18.6512 43.8021 18.5578 44.0383C18.6005 43.9828 18.9268 43.2432 18.822 43.5802C18.7039 43.8197 18.5318 44.2156 18.4137 44.4552C18.5385 44.2643 18.76 43.8617 18.8601 43.6742C18.7127 44.0667 18.5879 44.2575 18.4698 44.4971C18.5732 44.334 18.7294 44.1885 18.9983 43.5808L19.067 43.348C19.067 43.348 18.8622 43.8725 18.8014 43.9801C18.5652 44.4592 18.8455 43.7507 18.9389 43.5145L19.0209 43.3791C19.5206 42.0697 18.8434 43.5524 18.8053 43.4584L19.2284 42.5069L18.856 43.2777C18.9461 43.0172 19.1509 42.4927 19.233 42.3574C19.3918 41.864 19.0508 42.6802 19.2557 42.1557C19.295 42.0758 19.313 42.0237 19.3344 41.996L19.1702 42.2667C19.2703 42.0792 19.4571 41.6069 19.3998 41.7389C19.5732 41.1691 18.9894 42.4156 19.2662 41.6827L19.2596 41.634C19.0707 41.9081 19.0007 42.3148 18.5823 43.1167L19.2755 41.3836L18.9673 42.0712C18.9673 42.0712 18.9539 41.9738 19.0933 41.7065C18.8538 42.1612 18.9606 42.0225 18.7671 42.4461C19.0046 41.7931 18.5221 42.6783 18.9745 41.5739C18.7203 42.1051 18.8304 41.9907 18.6269 42.3413C19.1186 41.157 18.474 42.5111 18.6755 41.9623C18.9444 41.3546 18.8397 41.6916 19.0412 41.1428C18.5788 42.1741 19.0571 40.8925 18.9537 41.0556C18.5881 41.8751 18.7188 41.3608 18.5513 41.6071C18.666 41.3432 18.6607 41.1206 18.7407 40.787L18.7981 40.655C18.4077 41.4779 18.4337 41.3006 18.327 41.4394C18.5598 40.9359 18.6352 40.7518 18.7567 40.5366L18.732 40.54C18.5892 40.783 18.5318 40.9149 18.4677 40.9982L18.7613 40.3871C18.7613 40.3871 18.3262 41.0672 18.467 40.626C18.1947 41.2093 17.7851 42.2582 17.5288 42.5912C17.6616 42.2752 17.9158 41.744 17.9765 41.6364C17.9552 41.6641 17.8337 41.8793 17.8911 41.7473L18.1487 41.2405C18.2174 41.0077 17.9305 41.6675 17.9238 41.6188C18.114 41.1708 18.0566 41.3028 18.2107 40.959C18.2321 40.9312 18.1353 41.143 18.214 40.9833C18.2007 40.8859 18.3154 40.622 18.4696 40.2782C18.3548 40.5421 18.1973 40.8615 18.1546 40.917C18.0805 40.9272 18.3841 40.3892 18.4742 40.1287C18.3134 40.4237 18.4462 40.1077 18.1312 40.7465C18.1312 40.7465 18.264 40.4305 18.3394 40.2464C18.1752 40.5171 18.1912 40.2668 17.8896 41.003L17.8963 41.0518L17.8469 41.0585C17.4545 41.6832 17.8608 40.6099 17.6439 40.863L17.7407 40.6512C17.5699 40.8732 17.5531 40.7514 17.2889 41.2096C17.2889 41.2096 17.4577 40.7893 17.5724 40.5254C17.4657 40.6641 17.3229 40.9071 17.449 40.5424C17.6772 40.1884 17.6031 40.1986 17.6131 40.2717C17.6605 40.0666 17.8113 39.6985 17.4896 40.2886C17.7899 39.7262 17.7945 39.5767 17.6878 39.7154L17.519 40.1357C17.519 40.1357 17.4449 40.1458 17.4629 40.0937L17.8419 39.3717C18.1908 38.4304 16.9076 40.8152 17.6029 39.2804C17.3206 39.7906 17.4801 39.6695 17.1585 40.2596C17.1418 40.1378 17.6469 39.051 17.6469 39.051C17.7877 38.6098 17.0363 40.1026 17.1197 39.7934C17.0049 40.0573 16.6473 40.7516 16.4764 40.9736C16.4597 40.8518 16.9782 39.8624 17.1277 39.6682C17.1277 39.6682 17.113 39.7447 17.0737 39.8245C17.1377 39.7413 17.2231 39.6303 17.3346 39.342L17.1951 39.6093C17.3065 39.321 17.2324 39.3312 17.4753 38.9008C17.3078 39.1471 17.2324 39.3312 17.1997 39.4598C17.3438 39.0429 17.1156 39.3969 17.2023 39.112C17.1483 39.2683 16.9875 39.5634 16.9875 39.5634C17.0642 39.2054 16.6985 40.0249 16.5851 40.1149C16.7539 39.6947 17.0855 39.1776 16.8506 39.4829C16.962 39.1946 17.2083 38.7885 17.3331 38.5977C17.0194 39.0626 17.4064 38.2154 17.4424 38.1112L17.5672 37.9203C17.5672 37.9203 17.4818 38.0313 17.4538 38.0103L17.1995 38.5416C17.1995 38.5416 17.2109 38.4407 17.3323 38.2255C17.1255 38.5517 16.8959 39.0796 16.607 39.5411C16.7217 39.2772 16.3901 39.7942 16.7477 39.0999C16.6824 39.3571 17.1054 38.4056 17.2189 38.3156C17.1548 38.3988 17.1515 38.3745 17.1908 38.2946C17.2302 38.2147 17.2729 38.1592 17.2909 38.1071C17.5565 37.4751 16.8411 38.8637 16.7851 38.8218C17.0099 38.4435 17.1607 38.0754 17.1214 38.1552C17.1214 38.1552 16.7817 38.7974 16.5962 39.0959C16.729 38.7799 16.422 39.2935 16.4153 39.2448L16.3613 39.4011C16.1364 39.7794 16.1544 39.7273 16.041 39.8173C16.2018 39.5223 16.1905 39.6231 16.2478 39.4911C15.8341 40.1435 16.5494 38.7549 16.2571 39.1921C16.3966 38.9248 16.6361 38.47 16.7362 38.2825C16.4226 38.7475 16.9624 37.7303 16.7128 38.112C16.4339 38.6466 16.516 38.5113 16.2057 39.0006L16.49 38.6886L16.0088 39.3999C16.0088 39.3999 16.2437 39.0946 16.2077 39.1988C15.9615 39.6049 16.0189 39.4729 15.804 39.9243C16.1977 39.1258 15.4837 40.3405 15.7346 39.7849L16.4419 38.5215C16.6861 37.9172 15.9687 39.1076 16.0701 38.7462L15.9767 38.9824C15.6911 39.4683 15.8813 39.0203 15.7565 39.2111C15.9994 38.7807 16.0781 38.621 16.2176 38.3537C16.0354 38.6765 16.1828 38.284 15.697 39.1448L15.9693 38.5615C16.0346 38.3044 15.1992 39.7343 15.2252 39.557C15.5141 39.0955 15.6502 38.8038 15.8852 38.4986C15.8852 38.4986 15.8718 38.4012 15.7357 38.6928C15.8751 38.4255 15.358 39.241 15.5515 38.8174C15.4267 39.0082 15.1838 39.4386 15.1771 39.3899C15.2165 39.3101 15.2985 39.1747 15.2985 39.1747C15.1771 39.3899 15.1063 39.4244 14.8454 39.907C15.5394 38.546 14.5918 39.8921 15.2137 38.7396C15.0788 38.8574 14.9407 38.9508 14.8913 38.9576C14.9734 38.8223 15.0127 38.7424 14.9947 38.7945C15.1635 38.3743 14.2493 39.9639 14.4361 39.4916C14.8185 38.7939 14.6891 39.1343 14.8285 38.867C15.646 37.4891 14.6476 39.0159 15.0874 38.1862L15.1514 38.1029C15.4124 37.6204 14.7637 38.578 14.7717 38.4529C14.7717 38.4529 14.8571 38.3419 14.8931 38.2377C14.4333 38.9212 14.2064 39.1012 14.0536 39.2711C14.4099 38.7507 14.2424 38.997 14.5708 38.4556C14.5034 38.5145 14.0356 39.3232 13.9041 39.4653C14.0649 39.1703 14.201 38.8786 14.5507 38.3095L14.6248 38.2993C15.0746 37.5427 14.5507 38.3095 14.6047 38.1531L14.8116 37.8269C14.6701 37.896 14.1529 38.7115 14.1149 38.6174L13.9721 38.8604C13.4269 39.6549 14.233 38.3779 13.8092 38.9572L14.323 38.1174C14.1735 38.3116 13.7217 38.8699 13.5869 38.9877C14.0073 38.384 14.2489 38.1275 14.5266 37.7668C14.5266 37.7668 14.4031 37.7837 14.1288 38.1688C14.1929 38.0856 14.3423 37.8913 14.2603 38.0267C13.8185 38.6581 13.5802 38.939 13.5242 38.8971C14.5652 37.3148 13.6335 38.4105 14.4183 37.1612C13.9384 37.6986 14.4175 36.7891 14.248 36.8372C13.4632 38.0864 14.1986 36.8439 13.3678 38.1244C13.3004 38.1832 13.297 38.1589 13.3611 38.0756L13.7795 37.2737C14.0044 36.8954 13.9964 37.0206 14.1819 36.7221C14.1899 36.597 14.5102 36.1807 14.7137 35.8302C14.4248 36.2917 14.272 36.4616 14.3473 36.2775L14.001 36.8711C13.4818 37.4883 14.6577 35.7883 14.1351 36.3811L14.4341 35.9927C14.2352 36.1937 14.2972 35.9122 13.5745 36.88C13.6565 36.7446 13.8848 36.3907 13.9735 36.304C13.9962 36.1024 13.0432 37.2259 13.4075 36.5802L13.6177 36.2784C13.6177 36.2784 13.1906 36.8334 13.3728 36.5106C13.4549 36.3752 13.583 36.2087 13.6044 36.181C13.5189 36.292 13.1953 36.6838 13.2954 36.4964L13.5516 36.1634C13.7418 35.7154 12.8482 36.9052 12.6179 37.0609C13.2519 36.1797 13.3813 35.8393 13.4601 35.6796L13.5421 35.5443C13.5187 35.3738 12.8467 36.1609 12.5063 36.4309C13.1483 35.4246 12.609 35.8957 12.9059 35.3089C12.8025 35.472 12.3967 35.9993 12.3046 36.0615C12.4047 35.8741 11.8034 36.6267 12.398 35.8254C12.9713 35.0518 12.7691 35.2285 12.7624 35.1797L11.9722 36.2064C13.038 34.6208 11.3208 36.5936 12.3111 35.192C12.1478 35.3468 11.9928 35.5004 11.846 35.6529L12.2731 35.098C12.3238 34.9173 12.3598 34.8131 12.1689 34.8889L12.4926 34.4971C12.4926 34.4971 11.1945 36.0402 11.1204 36.0503L11.7611 35.2179C11.7611 35.2179 12.1761 34.3916 11.5187 35.1022C11.6289 34.9879 11.7964 34.7415 11.8458 34.7347C11.8391 34.686 12.1607 34.0959 11.2818 35.2092C11.8617 34.4844 11.2651 35.0874 10.9774 35.3751L11.4079 34.8445C10.8179 35.4962 10.6684 35.6905 10.4629 35.8428C10.5022 35.7629 10.8045 35.3988 10.7011 35.5619C10.8866 35.2634 10.264 36.0438 10.4461 35.721L10.7518 35.3812C10.7518 35.3812 10.5923 35.5024 10.2653 35.8699C10.0664 36.0709 10.316 35.6892 10.7004 35.1897C10.4621 35.4706 10.1137 35.8658 10.1925 35.7061C10.3453 35.5363 10.4554 35.4219 10.4981 35.3664C10.7444 34.9603 9.89145 35.8964 10.2939 35.3448C10.4467 35.1749 10.5074 35.0673 10.5501 35.0118C10.5815 35.0571 10.5915 35.1302 10.5702 35.158C10.9826 34.6795 11.0153 34.5509 11.6053 33.8991C11.2749 34.2423 10.5468 34.9875 10.6896 34.7445C10.7323 34.689 10.7783 34.6579 10.8177 34.578L10.8604 34.5225C10.8604 34.5225 10.8604 34.5225 10.7683 34.5848C10.8324 34.5015 10.8718 34.4217 10.8718 34.4217C11.2201 34.0264 11.0146 34.1787 11.0079 34.13C10.5527 34.664 10.6134 34.5564 10.2471 35.0038C10.2684 34.976 10.3145 34.9449 10.3392 34.9415C10.3392 34.9415 10.3639 34.9381 10.3819 34.886L10.3392 34.9415C10.3392 34.9415 10.3886 34.9347 10.4133 34.9313C10.1717 35.1878 9.94808 35.3922 10.183 35.087C9.87733 35.4268 9.57167 35.7665 9.4155 35.912C10.0134 35.1351 10.3338 34.7189 10.6968 34.2472C10.3778 34.4895 10.3824 34.3399 9.50481 35.2793C9.37 35.3971 9.73973 34.9741 9.86786 34.8076C9.95662 34.721 9.95997 34.7454 10.0914 34.6032C9.8465 34.8354 9.91855 34.627 9.30723 35.3065C9.53545 34.9525 9.87584 34.6825 9.73434 34.7515L9.93322 34.5505C10.8021 33.3641 8.21197 36.1268 9.31577 34.6352C9.2517 34.7185 9.20899 34.774 9.12357 34.885C9.52393 34.1351 8.31057 35.1951 9.0413 34.1021C9.18744 33.8835 8.78967 34.2855 8.45597 34.6043L8.95717 34.0392L8.33582 34.6456C7.83926 35.0612 9.49904 33.2203 8.60137 34.0136L8.27435 34.3811C8.27435 34.3811 7.99135 34.5192 8.38577 34.0928C8.31836 34.1517 8.00936 34.4671 8.18354 34.2694L8.4465 33.9852L7.92523 34.4042C8.06804 34.1612 9.00508 33.2881 8.98837 33.1663C8.85021 33.2597 8.11205 33.9318 7.96256 34.126C7.96256 34.126 7.81307 34.3203 7.55012 34.6045L7.3906 34.7257C6.59841 35.5541 5.75682 36.3893 5.26564 37.0275L5.80491 36.5564L5.43518 36.9794L5.36109 36.9896C5.00937 37.3605 5.36778 37.0383 5.59136 36.8339C5.39582 37.0593 5.23964 37.2048 5.17558 37.288L5.9778 36.5327C5.67214 36.8725 5.33509 37.1669 5.18895 37.3855C5.5687 37.0356 5.86434 36.6227 6.13732 36.4115C5.78894 36.8068 5.50464 37.1188 5.84168 36.8244C5.64614 37.0497 5.51132 37.1675 5.39786 37.2575C5.6675 37.022 5.56741 37.2095 6.01123 36.7763C5.60213 37.2791 6.20881 36.7492 5.45933 37.5221C5.63686 37.3488 6.08402 36.94 6.13342 36.9332C5.20306 37.8551 6.15013 37.055 5.20845 38.0777C6.05004 37.2425 5.67233 37.7907 6.16555 37.3507C6.09814 37.4096 5.96666 37.5517 6.00938 37.4962C5.97335 37.6005 5.73175 37.857 5.60696 38.0478C6.26434 37.3372 6.47326 37.2092 6.89238 36.7794C6.28774 37.5077 6.10018 37.6079 5.51356 38.284C6.03612 37.6911 6.09554 37.7574 6.53268 37.2755C6.16629 37.7229 6.36184 37.4975 5.84262 38.1147C6.64949 37.2099 6.00214 37.9936 6.53138 37.4494C6.16834 37.9211 5.76723 38.2988 6.06156 38.0599C5.82665 38.3651 5.51096 38.6318 5.51096 38.6318L5.29611 39.0832ZM7.77187 38.4208L7.72247 38.4276C7.72247 38.4276 7.74717 38.4242 7.77187 38.4208ZM7.85599 38.4837L7.84931 38.435C7.9988 38.2407 8.17633 38.0675 8.15163 38.0709C8.04151 38.1852 7.98413 38.3172 7.85599 38.4837ZM10.775 34.6335C10.775 34.6335 10.7817 34.6822 10.6716 34.7966C10.6716 34.7966 10.6222 34.8034 10.6008 34.8311L10.5334 34.89C10.5334 34.89 10.7076 34.6924 10.775 34.6335Z" fill="#006D2C"/>
<path d="M10.1667 35.3374L10.1207 35.3685C10.078 35.424 10.0566 35.4518 10.0386 35.5039L10.1914 35.334L10.1667 35.3374Z" fill="#006D2C"/>
<path d="M17.8587 41.3299C17.8587 41.3299 17.8374 41.3575 17.8195 41.4093C17.8162 41.3851 17.8374 41.3575 17.8587 41.3299Z" fill="#006D2C"/>
<path d="M8.31642 40.5541L8.42257 40.4161L8.33765 40.5265L8.31642 40.5541Z" fill="#006D2C"/>
<path d="M17.4106 43.749C17.4106 43.749 17.3748 43.8526 17.3569 43.9044C17.3502 43.856 17.3927 43.8008 17.4106 43.749Z" fill="#006D2C"/>
<path d="M17.5959 43.9966L17.5272 44.2294C17.5598 44.1008 17.5745 44.0243 17.5959 43.9966Z" fill="#006D2C"/>
<path d="M17.677 44.4073C17.677 44.4073 17.7771 44.2198 17.7917 44.1434L17.677 44.4073Z" fill="#006D2C"/>
<path d="M14.1792 43.6714C14.1792 43.6714 14.1792 43.6714 14.1546 43.6748C14.0697 43.7851 14.1155 43.7541 14.1792 43.6714Z" fill="#006D2C"/>
<path d="M15.8571 42.6965C15.8571 42.6965 15.7109 42.9151 15.6682 42.9706C15.6749 43.0194 15.6782 43.0437 15.8571 42.6965Z" fill="#006D2C"/>
<path d="M12.7436 43.8434L12.7648 43.8158L12.7436 43.8434Z" fill="#006D2C"/>
<path d="M15.6369 42.925C15.5798 43.0562 15.6256 43.0253 15.6648 42.9459C15.6581 42.8975 15.6973 42.8181 15.6369 42.925Z" fill="#006D2C"/>
<path d="M18.4201 45.0495C18.4201 45.0495 18.4626 44.9943 18.4593 44.9701L18.4201 45.0495Z" fill="#006D2C"/>
<path d="M18.4592 44.9696L18.4983 44.8902C18.4983 44.8902 18.4983 44.8902 18.4592 44.9696Z" fill="#006D2C"/>
<path d="M18.5797 44.755L18.5014 44.9137C18.5014 44.9137 18.5047 44.9379 18.5797 44.755Z" fill="#006D2C"/>
<path d="M18.2641 44.6494L18.1707 44.8855C18.1707 44.8855 18.2281 44.7536 18.2641 44.6494Z" fill="#006D2C"/>
<path d="M18.1689 44.6873C18.1689 44.6873 18.0134 45.205 18.0955 45.0696L18.1709 44.8856C18.0168 45.2293 18.3443 44.3158 18.1442 44.6907L18.1689 44.6873Z" fill="#006D2C"/>
<path d="M19.0653 41.6855L19.0427 41.8871C19.1328 41.6266 19.2655 41.3105 19.3082 41.2551C19.5537 40.4768 19.0821 41.8073 19.0406 41.6888L19.0653 41.6855Z" fill="#006D2C"/>
<path d="M19.0303 41.2436C19.0303 41.2436 19.1811 40.8755 19.2385 40.7435C19.117 40.9587 19.099 41.0109 19.0303 41.2436Z" fill="#006D2C"/>
<path d="M17.663 40.637L17.9385 40.078C17.9385 40.078 17.8418 40.2899 17.663 40.637Z" fill="#006D2C"/>
<path d="M15.9608 43.4516L15.81 43.8197L16.0889 43.2851L15.9608 43.4516Z" fill="#006D2C"/>
<path d="M17.8139 39.3507L17.8533 39.2708L17.7285 39.4616L17.8139 39.3507Z" fill="#006D2C"/>
<path d="M15.5722 38.4174L15.1865 39.0908C15.1865 39.0908 15.7217 38.2232 15.5722 38.4174Z" fill="#006D2C"/>
<path d="M14.2561 38.5484C14.463 38.2222 14.5564 37.986 14.3462 38.2879C14.3529 38.3366 14.1887 38.6073 14.2561 38.5484Z" fill="#006D2C"/>
<path d="M12.3632 35.7557L12.5374 35.558L12.3566 35.7069L12.3632 35.7557Z" fill="#006D2C"/>
<path d="M29.4875 36.5823C29.6404 36.4125 29.9427 36.0483 29.8506 36.1106L29.3067 36.7312L29.4875 36.5823Z" fill="#006D2C"/>
<path d="M30.2903 35.281C30.0027 35.5686 29.5195 36.0816 29.071 36.6643C29.6216 36.0924 29.3767 36.3246 30.0374 35.6383C30.1295 35.576 29.9193 35.8779 29.7238 36.1032C29.8799 35.9577 29.645 36.2629 29.9967 35.892C30.3778 35.3682 30.3464 35.3229 29.97 35.6972C30.0768 35.5584 30.2296 35.3886 30.315 35.2776L30.2903 35.281Z" fill="#006D2C"/>
<path d="M28.8588 32.3751L28.7951 32.4579C28.7951 32.4579 28.8343 32.3785 28.8588 32.3751Z" fill="#006D2C"/>
<path d="M27.817 30.83C27.817 30.83 27.9086 30.7681 27.951 30.7129C27.9019 30.7197 27.8595 30.7748 27.817 30.83Z" fill="#006D2C"/>
<path d="M28.2261 29.9555C28.2261 29.9555 28.2294 29.9797 28.2081 30.0073C28.2506 29.9522 28.2718 29.9246 28.2261 29.9555Z" fill="#006D2C"/>
<path d="M28.8597 32.3751L29.0059 32.1565C28.8317 32.3541 28.9025 32.3196 28.8597 32.3751Z" fill="#006D2C"/>
<path d="M28.7013 36.5412C28.7013 36.5412 28.7901 36.4546 28.8575 36.3957C28.8328 36.3991 28.8114 36.4268 28.79 36.4546L28.7013 36.5412Z" fill="#006D2C"/>
<path d="M29.8988 32.431C29.8988 32.431 30.055 32.2855 30.1438 32.1989L29.8988 32.431Z" fill="#006D2C"/>
<path d="M30.4431 32.7286C30.4431 32.7286 29.9813 33.2139 29.7857 33.4392C29.9846 33.2382 30.07 33.1272 30.1161 33.0961C30.2015 32.9851 30.3116 32.8707 30.4431 32.7286Z" fill="#006D2C"/>
<path d="M30.407 34.2968L30.474 34.2382C30.474 34.2382 30.4283 34.2692 30.407 34.2968Z" fill="#006D2C"/>
<path d="M29.666 32.0163C29.666 32.0163 29.7975 31.8741 29.8402 31.8186L29.666 32.0163Z" fill="#006D2C"/>
<path d="M14.1131 21.9155C14.1131 21.9155 14.1834 21.8812 14.2292 21.8502C14.1589 21.8845 14.1131 21.9155 14.1131 21.9155Z" fill="#006D2C"/>
<path d="M16.6445 19.459L16.6939 19.4522L17.0163 19.2342L16.6445 19.459Z" fill="#006D2C"/>
<path d="M24.5819 25.5914C24.1414 26.0489 23.9124 26.0307 23.4292 26.5438C23.6315 26.3671 24.3223 25.9 24.5819 25.5914Z" fill="#006D2C"/>
<path d="M23.4329 26.5682L23.3871 26.5991L23.4329 26.5682Z" fill="#006D2C"/>
<path d="M27.247 28.3278C27.247 28.3278 27.0908 28.4733 27.0267 28.5566C27.0695 28.5011 27.1369 28.4422 27.247 28.3278Z" fill="#006D2C"/>
<path d="M26.1867 28.6715C26.1867 28.6715 26.2716 28.5612 26.18 28.6231C26.1555 28.6265 26.1376 28.6783 26.113 28.6816C26.18 28.6231 26.2258 28.5921 26.1621 28.6749L26.1867 28.6715Z" fill="#006D2C"/>
<path d="M25.8306 28.2741C25.8306 28.2741 25.7636 28.3327 25.7457 28.3845L25.7948 28.3777L25.8552 28.2708L25.8306 28.2741Z" fill="#006D2C"/>
<path d="M15.3404 23.1619C15.5 23.0407 15.6842 22.9162 15.8437 22.795C15.4292 23.0752 15.2316 23.1023 15.3404 23.1619Z" fill="#006D2C"/>
<path d="M28.9371 36.236C28.8304 36.3748 28.7629 36.4337 28.7416 36.4614C28.7416 36.4614 28.7416 36.4614 28.791 36.4546C28.855 36.3714 28.9191 36.2881 28.9652 36.257L28.9371 36.236Z" fill="#006D2C"/>
<path d="M17.7944 26.374L17.7207 26.3842C17.7207 26.3842 17.724 26.4084 17.7944 26.374Z" fill="#006D2C"/>
<path d="M21.9351 32.1589C22.1126 31.9857 22.198 31.8747 22.2621 31.7914C22.216 31.8226 22.1947 31.8503 22.1273 31.9092L21.9598 32.1556L21.9351 32.1589Z" fill="#006D2C"/>
<path d="M14.1386 23.2028C14.1386 23.2028 14.9068 22.7499 15.3707 22.4629C15.6424 22.4256 14.8248 22.8852 14.4597 23.1587C14.7 23.0761 15.4222 22.6544 15.4288 22.7031C15.3154 22.7931 15.2693 22.8242 15.1065 22.921C15.7646 22.5826 15.2534 23.0746 16.0463 22.6183C15.9789 22.6772 15.9081 22.7118 15.8621 22.7429C16.2552 22.4904 16.6203 22.2169 16.8966 22.0301C16.9247 22.0511 17.4132 21.7607 16.9066 22.1032C16.9033 22.0788 16.6944 22.2068 16.5562 22.3002L16.7932 22.1932C16.0844 22.7124 16.5068 22.307 15.9789 22.6772C16.2439 22.5912 16.902 22.2527 16.7278 22.4504C16.0404 22.9418 16.4067 22.4944 15.8428 22.9689L16.0597 22.7158C14.9858 23.5084 16.0957 22.6116 14.9544 23.4631C14.8116 23.706 15.3889 23.329 15.2461 23.5719C15.6392 23.3195 15.8235 23.1949 16.2166 22.9424C17.0015 22.6113 14.5327 24.2406 15.5412 23.7052C16.0298 23.4148 16.9048 22.8232 16.507 23.2252L15.6961 23.7335C15.6914 23.8831 16.8541 23.0038 16.417 23.4857C16.0912 23.6793 16.1026 23.5785 16.0138 23.6651C15.4285 24.1673 16.481 23.4025 16.5371 23.4444L15.8496 23.9358C16.0292 23.9608 16.6019 23.7333 16.8309 23.7515C16.622 23.8795 16.3884 24.0108 16.1861 24.1875C16.6274 24.1021 16.3104 24.5427 16.0181 24.9799L16.6482 24.6204C16.6482 24.6204 16.3999 24.8282 16.2584 24.8972C16.0628 25.1226 16.6482 24.6204 16.8818 24.4891C16.9559 24.4789 16.5694 24.7801 16.3819 24.8803C16.9512 24.6284 17.6721 24.3806 17.0935 24.9315L16.9059 25.0317C16.7137 25.2815 18.1808 24.2364 17.6909 24.7007L17.5741 24.7663C17.4446 25.1067 18.1228 24.9144 17.3239 25.6941C18.199 25.1025 17.081 26.1245 18.2471 25.2696C17.7392 25.786 17.5056 25.9173 17.2133 26.3545C17.1986 26.431 17.9748 25.8529 18.1444 25.8048L17.5277 26.2617L18.2251 25.8434L17.5264 26.4356L17.7173 26.3598C17.7173 26.3598 17.9622 26.1276 18.1431 25.9787C18.4755 25.8338 17.8328 26.468 17.5351 26.6826L18.1572 26.4483C17.9056 26.6318 17.8101 26.6697 17.6226 26.7699C18.2987 26.3793 16.9878 27.2789 17.6426 26.916C17.7774 26.7982 18.0077 26.6426 18.1212 26.5525C17.7875 26.8713 17.8502 26.962 18.0445 26.9105L17.6086 27.2185C17.586 27.4201 17.9958 27.2894 18.09 27.4254C18.2395 27.2312 18.9696 26.6843 19.0684 26.6707L18.4337 27.1797C18.8482 26.8995 18.6539 26.9509 19.1639 26.6328C19.1278 26.737 18.4651 27.225 18.2315 27.3564L18.4931 27.246C18.2876 27.3983 18.1954 27.4606 17.9438 27.644C18.3583 27.3638 17.3719 28.2437 18.1087 27.7455L17.9279 27.8944C18.022 28.0304 18.2837 27.92 18.3925 27.9795C18.9384 27.5571 18.8564 27.6925 19.3136 27.3568C19.1921 27.572 18.8471 27.9916 18.9559 28.0511C19.285 27.8818 19.4344 27.6876 19.7815 27.4663C19.285 27.8818 19.4151 27.9136 19.022 28.1661C19.1802 28.2188 19.2296 28.2121 19.7316 28.0191C19.9338 27.8424 19.9979 27.7592 20.1787 27.6103C20.2742 27.5724 20.0079 27.8323 19.781 28.0123L19.7316 28.0191C20.6019 27.577 18.5851 29.5662 19.7184 28.8399L19.669 28.8467L20.3091 28.5603C20.2764 28.6888 19.9193 28.8371 19.6564 29.1214C20.5875 28.5717 19.6998 29.438 20.3546 29.0752C18.9984 30.3781 20.7091 29.2747 19.9022 30.1796L20.2393 29.8852C20.583 29.6395 20.0898 30.0794 20.0257 30.1626C20.2707 29.9305 20.2887 29.8784 20.4943 29.7261C21.1117 29.6414 20.4697 30.6477 20.3918 31.1795C20.3905 31.3534 22.1544 29.7216 21.461 30.5365L20.8263 31.0455C21.718 30.5756 21.1581 31.4466 21.9364 31.0668C21.7769 31.188 21.5994 31.3613 21.596 31.3369C21.2016 31.7633 21.7182 31.4939 22.0766 31.1717C22.0866 31.2448 21.7643 31.4627 21.5901 31.6603C21.3765 31.9378 22.2382 31.2488 21.8157 31.6542C21.7483 31.7131 21.6562 31.7754 21.6348 31.8031C21.8618 31.6231 21.6829 31.9702 22.1695 31.4816C21.984 31.78 22.5119 31.4098 22.2556 31.7427C22.8443 31.2649 22.1049 32.1109 22.8857 31.3833C22.0588 32.142 22.3338 32.1291 22.7663 31.7967C22.4933 32.0079 22.5528 32.0742 22.191 32.372C22.2471 32.414 22.4347 32.3138 22.8571 31.9084C21.9648 32.9242 23.8096 31.3309 22.6196 32.5614C23.1856 32.2852 23.6168 32.1267 23.9346 32.0583C23.1357 32.838 23.7236 31.988 22.882 32.8232C23.3312 32.6126 24.0794 32.0136 23.996 32.3229C23.914 32.4582 23.6376 32.645 23.4781 32.7662C23.9273 32.5556 23.6451 33.0659 24.1797 32.7444C24.1156 32.8276 24.0235 32.8899 23.9281 32.9278C23.9775 32.921 23.8493 33.0875 24.2291 32.7376L24.1123 32.8032C24.6135 32.2381 25.2829 31.7988 25.5739 31.5355C24.5021 32.5264 25.4231 31.9037 24.0569 33.1335C24.1491 33.0712 24.3299 32.9223 24.5749 32.6901C24.5355 32.77 24.3827 32.9399 24.0883 33.1788C24.35 33.0684 24.7197 32.6454 24.7791 32.7117C24.6016 32.885 24.5342 32.9439 24.3106 33.1483C24.6971 32.8471 25.0555 32.5249 24.9587 32.7367C24.8486 32.8511 24.7171 32.9932 24.7138 32.9689C24.872 33.0216 25.7697 32.2284 25.5515 32.6554C24.7706 33.383 25.3379 32.9329 24.7019 33.6158L24.9602 33.481L25.2412 33.1447C25.2412 33.1447 25.7938 32.771 25.6263 33.0174L25.332 33.2563L25.5543 33.2258L25.7398 32.9273C26.1262 32.6261 26.5533 32.0712 26.4386 32.3351C26.3712 32.394 26.4699 32.3804 26.1249 32.8C26.3518 32.62 26.6001 32.4122 26.4753 32.603C26.2764 32.8041 25.7719 33.3448 25.6404 33.487C26.1977 32.9638 25.9121 33.4497 26.5121 32.871C26.3806 33.0131 26.0256 33.3597 25.9582 33.4185L26.402 32.9854C26.2739 33.1519 26.2345 33.2317 25.9435 33.495C25.9388 33.6445 26.729 32.6179 26.4648 33.076C26.4187 33.1072 26.3513 33.166 26.2839 33.2249C26.1938 33.4855 26.7184 33.0909 26.5823 33.3825C25.9743 34.0864 26.37 33.4861 25.8475 34.079C26.0698 34.0485 26.8493 33.4948 26.8087 33.7485L26.848 33.6687C27.7504 32.7259 26.495 34.2135 26.9669 33.8013C26.8748 33.8635 26.459 34.3177 26.5444 34.2067C26.4757 34.4395 26.9082 34.1071 27.308 33.9034L27.0631 34.1355C26.8989 34.4062 27.0685 34.3581 27.0144 34.5144C27.2594 34.2823 27.2414 34.3344 27.5684 33.9669C26.4219 35.514 28.5309 33.4626 27.6013 34.7565C27.6013 34.7565 27.3743 34.9366 27.3777 34.9609L27.7101 34.8161C28.0798 34.3931 27.9236 34.5386 28.2046 34.2022C28.4495 33.9701 28.6518 33.7934 28.6798 33.8144C28.3855 34.0533 28.0685 34.4939 27.8796 34.768C27.9864 34.6292 28.1179 34.4871 28.2527 34.3693C27.6334 35.174 29.0168 33.5199 28.6425 34.0925L28.4469 34.3179C28.5851 34.2244 28.8761 33.9612 28.8367 34.041C28.4029 34.5473 28.5884 34.2488 28.2401 34.6441C28.3142 34.6339 29.1524 33.7743 28.7747 34.3225C28.6399 34.4403 28.6118 34.4193 28.4523 34.5405C27.9825 35.1509 28.114 35.0088 28.0813 35.1374L27.9238 35.4568L28.052 35.2903C29.2386 34.0355 28.3844 35.1454 29.2079 34.3623C28.4304 35.1143 28.7922 34.8165 28.291 35.3816C28.1628 35.5481 28.0414 35.7633 27.9099 35.9054C28.3537 35.4722 27.6637 36.3115 28.285 35.705C28.1355 35.8993 28.2917 35.7537 27.9006 36.2045C28.0635 36.1077 28.1569 35.8715 28.3771 35.6427C28.9805 35.0884 27.898 36.5523 28.7496 35.7902C29.1394 35.5133 29.6867 34.9171 30.0304 34.6713C29.7988 35.0009 29.4404 35.3231 29.4404 35.3231C29.2549 35.6216 29.329 35.6114 29.5559 35.4313C29.3998 35.5769 29.2963 35.74 29.1469 35.9342C29.2209 35.924 29.7368 35.2824 29.5513 35.5809C29.3771 35.7785 29.0681 36.0939 28.8939 36.2915C29.0748 36.1426 29.4118 35.8482 29.5961 35.7236C29.3398 36.0566 29.1556 36.1812 28.9567 36.3822C29.1196 36.2854 29.3352 36.2062 29.7689 35.6999L29.8904 35.4847C29.8904 35.4847 29.524 35.9321 29.4352 36.0187C29.0588 36.393 29.5287 35.7825 29.6815 35.6127L29.8196 35.5192C30.6986 34.4059 29.5513 35.5809 29.5379 35.4834L30.238 34.7173L29.6167 35.3237C29.7875 35.1018 30.1292 34.6578 30.2674 34.5644C30.5597 34.1272 29.9977 34.7999 30.3147 34.3593C30.3541 34.2795 30.4001 34.2484 30.4215 34.2206L30.1732 34.4284C30.326 34.2585 30.6497 33.8667 30.5676 34.002C30.8746 33.4884 29.9543 34.4833 30.4241 33.8728L30.4735 33.866C30.1411 34.0109 29.9689 34.4068 29.2949 34.9956L30.4547 33.546L29.9535 34.1111C29.9535 34.1111 29.9649 34.0103 30.1851 33.7815C29.8053 34.1314 29.9682 34.0346 29.6378 34.3778C30.0369 33.8019 29.2774 34.5017 30.0562 33.5759C29.6618 34.0022 29.8066 33.9575 29.4876 34.1999C30.3338 33.2151 29.2753 34.3034 29.6137 33.8351C30.0755 33.3498 29.89 33.6483 30.225 33.1556C29.4575 33.9806 30.2904 32.8985 30.1062 33.023C29.5195 33.6991 29.7838 33.241 29.5041 33.4034C29.6997 33.1781 29.7156 32.9277 29.8518 32.636L29.9619 32.5217C29.3505 33.2012 29.4012 33.0205 29.2137 33.1207C29.5868 32.722 29.7396 32.5522 29.9205 32.4033L29.8644 32.3613C29.6655 32.5623 29.5554 32.6767 29.4352 32.718L29.8971 32.2327C29.8971 32.2327 29.2343 32.7208 29.4839 32.3391C29.0434 32.7966 28.3634 33.7089 27.9949 33.958C28.2118 33.7049 28.6029 33.2541 28.7197 33.1885C28.6703 33.1952 28.4928 33.3685 28.5782 33.2575L29.0007 32.8521C29.1468 32.6335 28.6703 33.1952 28.6603 33.1222C28.9873 32.7547 28.8772 32.869 29.1368 32.5604C29.1862 32.5537 29.0334 32.7235 29.1435 32.6092C29.1795 32.5049 29.3223 32.262 29.5606 31.9811C29.3864 32.1787 29.1234 32.463 29.0527 32.4975C28.9752 32.4833 29.4191 32.0502 29.5652 31.8316C29.3203 32.0637 29.5338 31.7862 29.0293 32.327C29.0293 32.327 29.2428 32.0495 29.3743 31.9074C29.126 32.1152 29.1667 31.8614 28.6935 32.4475L28.7002 32.4963L28.6508 32.503C28.0588 32.9565 28.7355 32.0199 28.4278 32.1614L28.6053 31.9881C28.3504 32.1472 28.3583 32.022 27.9752 32.3476C27.9752 32.3476 28.2529 31.9869 28.4517 31.7858C28.2889 31.8826 28.09 32.0837 28.2935 31.7331C28.6339 31.463 28.5318 31.4522 28.5452 31.5497C28.6419 31.3379 28.9049 31.0536 28.3836 31.4726C28.8274 31.0394 28.8781 30.8587 28.7433 30.9765L28.4657 31.3372C28.4657 31.3372 28.3882 31.323 28.4029 31.2466L28.9782 30.6713C29.5695 29.8456 27.5886 31.7306 28.6664 30.4163C28.2406 30.7973 28.4382 30.7702 27.9483 31.2345C27.981 31.1059 28.7351 30.1835 28.7351 30.1835C28.9847 29.8018 27.8408 31.0011 27.9736 30.6851C27.778 30.9104 27.2521 31.4789 26.9938 31.6137C27.0265 31.4851 27.794 30.6601 27.9782 30.5355C28.0029 30.5321 27.9388 30.6154 27.8714 30.6743C27.9635 30.612 28.0803 30.5463 28.2725 30.2966L28.049 30.501C28.2412 30.2513 28.1357 30.2161 28.4941 29.8939C28.2638 30.0496 28.1357 30.2161 28.0536 30.3515C28.2818 29.9975 27.9628 30.2398 28.1022 29.9725C27.9955 30.1113 27.7786 30.3644 27.7505 30.3434C27.9047 29.9996 27.3214 30.7001 27.1485 30.7238C27.4261 30.3631 27.926 29.9719 27.5756 30.1689C27.7431 29.9225 28.1262 29.597 28.3071 29.4481C27.8499 29.7838 28.4579 29.0799 28.4939 28.9757L28.7028 28.8478C28.5893 28.9378 28.5613 28.9168 28.558 28.8925L28.1635 29.3189C28.1635 29.3189 28.1995 29.2146 28.3771 29.0414C28.0861 29.3047 27.695 29.7554 27.2872 30.0844C27.4827 29.859 26.9795 30.2259 27.5334 29.6783C27.4187 29.9422 28.084 29.1064 28.2322 29.0861C28.1648 29.145 28.1334 29.0996 28.2008 29.0407C28.2683 28.9819 28.311 28.9264 28.357 28.8952C28.7841 28.3403 27.7076 29.4807 27.6449 29.39C27.9572 29.099 28.2168 28.7904 28.1461 28.8249C28.1527 28.8736 27.6415 29.3657 27.3685 29.5769C27.5541 29.2784 27.1349 29.7082 27.1282 29.6595L27.0462 29.7948C26.7338 30.0859 26.7518 30.0338 26.6103 30.1028C26.8553 29.8707 26.8192 29.9749 26.9013 29.8395C26.316 30.3417 27.3925 29.2013 26.9567 29.5093C27.1522 29.2839 27.5566 28.9306 27.6601 28.7675C27.2029 29.1032 28.0198 28.2714 27.63 28.5483C27.2356 28.9747 27.3243 28.888 26.8705 29.2481L27.2736 29.0687L26.5929 29.6089C26.5929 29.6089 26.9186 29.4153 26.8792 29.4951C26.4928 29.7963 26.6062 29.7063 26.2759 30.0494C26.8658 29.3977 25.812 30.3364 26.1997 29.8613L27.2436 28.8495C27.6493 28.3223 26.5674 29.2401 26.7462 28.8929L26.6001 29.1115C26.1743 29.4926 26.4766 29.1285 26.2891 29.2287C26.6441 28.8821 26.7509 28.7434 26.9711 28.5146C26.7048 28.7745 26.9331 28.4206 26.2196 29.0893L26.6567 28.6074C26.7715 28.3435 25.5682 29.4765 25.5942 29.2992C25.9986 28.9459 26.2155 28.6928 26.5379 28.4748C26.5345 28.4505 26.5492 28.374 26.3043 28.6061C26.5245 28.3774 25.7516 28.9798 26.082 28.6366C25.9258 28.7822 25.5461 29.1321 25.536 29.059C25.6034 29.0001 25.7136 28.8857 25.7136 28.8857C25.536 29.059 25.4372 29.0726 25.0642 29.4712C26.0913 28.3376 24.7657 29.3136 25.6647 28.3465C25.4952 28.3945 25.3009 28.446 25.2449 28.4041C25.3583 28.3141 25.4224 28.2308 25.4044 28.2829C25.6786 27.8978 24.3225 29.2007 24.6148 28.7635C25.1654 28.1916 24.9585 28.5178 25.1787 28.2891C26.3607 27.1838 24.9318 28.323 25.5678 27.6401L25.6599 27.5778C26.033 27.1792 25.1253 27.8993 25.1299 27.7498C25.1299 27.7498 25.2434 27.6598 25.3074 27.5765C24.648 28.0889 24.383 28.1749 24.1427 28.2575C24.6426 27.8663 24.419 28.0707 24.8876 27.6341C24.7888 27.6477 24.128 28.334 23.9338 28.3855C24.1754 28.129 24.3676 27.8792 24.8608 27.4393L24.9416 27.4778C25.5876 26.868 24.8575 27.4149 24.9429 27.3039L25.2339 27.0406C25.061 27.0644 24.3409 27.6844 24.2961 27.5416L24.0972 27.7426C23.3243 28.345 24.4703 27.344 23.8749 27.7731L24.5884 27.1044C24.3795 27.2323 23.7774 27.6128 23.5832 27.6642C24.1505 27.2141 24.5043 27.0415 24.8727 26.7924C24.866 26.7437 24.7145 26.7397 24.328 27.0409C24.4201 26.9786 24.6044 26.854 24.4942 26.9684C23.8775 27.4253 23.5552 27.6433 23.4924 27.5526C24.9327 26.3126 23.7039 27.0769 24.7724 26.0617C24.139 26.3968 24.7897 25.6374 24.6034 25.5637C23.5102 26.5823 24.5293 25.5739 23.38 26.5505C23.2812 26.5641 23.2812 26.5641 23.37 26.4775L23.9813 25.798C24.2903 25.4826 24.2576 25.6111 24.5306 25.4C24.56 25.247 24.9991 24.9634 25.2588 24.6548C24.8543 25.0081 24.6454 25.136 24.7735 24.9695L24.2903 25.4826C23.5928 25.9009 25.1993 24.5885 24.5018 25.0068L24.8916 24.73C24.6333 24.8647 24.7414 24.5521 23.7596 25.2824C23.8944 25.1646 24.2068 24.8736 24.3022 24.8357C24.3462 24.6063 23.0714 25.4017 23.5692 24.8122L23.8669 24.5976C23.8669 24.5976 23.2929 24.999 23.5592 24.7391C23.6727 24.6491 23.8569 24.5245 23.8536 24.5002C23.7367 24.5658 23.2976 24.8495 23.4504 24.6796L23.7941 24.4339C24.0651 24.0244 22.8497 24.8861 22.5813 24.9478C23.443 24.2587 23.6285 23.9603 23.7319 23.7972L23.8454 23.7072C23.84 23.4845 22.9583 24.0274 22.499 24.1649C23.3687 23.3507 22.6725 23.5951 23.0996 23.0402C22.9681 23.1823 22.4155 23.5559 22.32 23.5939C22.4729 23.424 21.6439 23.9845 22.4415 23.3787C23.2144 22.7762 22.9527 22.8866 22.9427 22.8135L21.8935 23.6028C23.3024 22.3175 21.0751 23.6903 22.3839 22.5924C22.1042 22.7549 22.0729 22.7095 21.7932 22.872L22.3638 22.4463C22.4392 22.2622 22.4753 22.158 22.2743 22.1607L22.6888 21.8805C22.6888 21.8805 21.0062 23.0048 20.9288 22.9906L21.7724 22.3537C21.7724 22.3537 22.349 21.6045 21.5066 22.0675C21.6201 21.9775 21.8717 21.7941 21.9211 21.7873C21.9111 21.7142 22.3663 21.1802 21.2002 22.0351C21.9551 21.4848 21.1768 21.8646 20.8264 22.0616L21.4004 21.6602C20.6355 22.1375 20.4513 22.262 20.1863 22.348C20.2537 22.2891 20.6188 22.0157 20.5087 22.13C20.775 21.8701 19.9527 22.4793 20.1876 22.1741L20.5594 21.9494C20.5594 21.9494 20.3651 22.0008 19.926 22.2845C19.6677 22.4192 19.998 22.076 20.5013 21.7092C20.1789 21.9271 19.7364 22.1864 19.8678 22.0443C20.0487 21.8954 20.1902 21.8263 20.261 21.7918C20.588 21.4243 19.5007 22.1195 20.0153 21.6518C20.1962 21.5029 20.2883 21.4406 20.359 21.4061C20.3971 21.5001 20.4071 21.5732 20.3858 21.6009C20.9137 21.2307 20.9464 21.1021 21.7146 20.6492C21.2935 20.8808 20.3837 21.4027 20.5759 21.153C20.622 21.1218 20.668 21.0907 20.7601 21.0284L20.8342 21.0182C20.8342 21.0182 20.8275 20.9695 20.7107 21.0352C20.7748 20.9519 20.8422 20.8931 20.8389 20.8687C21.2747 20.5607 21.0344 20.6433 21.0277 20.5946C20.4537 20.996 20.5144 20.8884 20.0606 21.2485C20.1066 21.2173 20.1313 21.214 20.1841 21.2315C20.1841 21.2315 20.2088 21.2281 20.2582 21.2214L20.2088 21.2281C20.2088 21.2281 20.2649 21.2701 20.2929 21.2911C19.9885 21.4569 19.7336 21.616 20.0246 21.3527C19.6528 21.5774 19.2597 21.8299 19.0754 21.9545C19.8483 21.3521 20.2247 20.9778 20.7066 20.6387C20.3215 20.766 20.3441 20.5643 19.2041 21.2419C19.0379 21.3144 19.4985 21.003 19.658 20.8818C19.7748 20.8162 19.7815 20.8649 19.941 20.7437C19.6333 20.8852 19.73 20.6734 18.9404 21.154C19.2281 20.8664 19.6626 20.7323 19.4831 20.7073L19.7167 20.576C20.8132 19.5817 17.5627 21.5665 19.003 20.3265C18.9142 20.4131 18.8682 20.4442 18.7547 20.5343C19.2886 19.8406 17.7648 20.4716 18.7445 19.543C18.9187 19.3454 18.4301 19.6358 18.0303 19.8395L18.6537 19.4314L17.8788 19.8355C17.2814 20.0664 19.3324 18.693 18.2431 19.1899L17.8286 19.4701C17.8286 19.4701 17.4795 19.4932 17.9894 19.1751C17.9187 19.2096 17.5222 19.4377 17.7525 19.282L18.0749 19.0641L17.4281 19.3018C17.6236 19.0764 18.7523 18.4996 18.7536 18.3257C18.6054 18.346 17.6856 18.7949 17.4801 18.9472C17.4834 18.9715 17.3025 19.1204 16.9802 19.3384L16.7826 19.3655C15.7874 19.9984 14.7609 20.586 14.1542 21.116L14.819 20.8262L14.3584 21.1376L14.2777 21.099C13.8418 21.407 14.2663 21.1999 14.5493 21.0618C14.2944 21.2208 14.1349 21.342 14.0461 21.4286L15.0333 20.9209C14.6649 21.17 14.237 21.3528 14.0628 21.5504C14.5334 21.3121 14.9165 20.9866 15.2275 20.8694C14.7917 21.1774 14.4446 21.3988 14.8444 21.195C14.5895 21.3541 14.4266 21.4509 14.3065 21.4922C14.6389 21.3473 14.5107 21.5138 15.0207 21.1956C14.4961 21.5902 15.253 21.2382 14.3252 21.8122C14.5588 21.6809 15.1001 21.4081 15.1529 21.4256C14.0062 22.0545 15.1763 21.5961 13.9689 22.3326C14.9954 21.7451 14.5336 22.2303 15.1243 21.9507C15.0535 21.9853 14.866 22.0854 14.912 22.0543C14.8513 22.1619 14.575 22.3487 14.3975 22.522C15.2331 22.0102 15.452 21.9554 15.99 21.6582C15.2385 22.2329 15.0129 22.239 14.2546 22.7649C14.9241 22.3256 14.9902 22.4407 15.5182 22.0704C15.0643 22.4305 15.3193 22.2714 14.6498 22.7107C15.6663 22.0501 14.8407 22.6349 15.4955 22.272C15.045 22.6565 14.5531 22.9225 14.9102 22.7743C14.6158 23.0132 14.2127 23.1926 14.2127 23.1926L14.1386 23.2028ZM17.0218 23.6757L16.9724 23.6825C16.9724 23.6825 16.9971 23.6791 17.0465 23.6723L17.0218 23.6757ZM17.1159 23.8117C17.1159 23.8117 17.1093 23.763 17.1059 23.7386C17.3115 23.5863 17.4957 23.4618 17.499 23.4861C17.3609 23.5795 17.2755 23.6905 17.1159 23.8117ZM20.8996 20.7611C20.8996 20.7611 20.9063 20.8098 20.7681 20.9032C20.7681 20.9032 20.7187 20.91 20.6693 20.9168L20.5952 20.9269C20.5952 20.9269 20.8075 20.8234 20.8996 20.7611Z" fill="#006D2C"/>
<path d="M20.1342 21.2383L20.0848 21.2451C20.0388 21.2762 19.9927 21.3074 19.9714 21.3351L20.1556 21.2106L20.1342 21.2383Z" fill="#006D2C"/>
<path d="M28.7983 32.4828C28.7983 32.4828 28.7525 32.5137 28.7313 32.5413C28.7558 32.5379 28.7737 32.4861 28.7737 32.4861L28.7983 32.4828Z" fill="#006D2C"/>
<path d="M17.424 26.4244L17.5614 26.3315L17.4207 26.4002L17.424 26.4244Z" fill="#006D2C"/>
<path d="M27.864 34.8445L27.7578 34.9825C27.7578 34.9825 27.8215 34.8997 27.864 34.8445Z" fill="#006D2C"/>
<path d="M28.0417 35.2172L27.9203 35.4324C27.9203 35.4324 28.0204 35.245 28.0417 35.2172Z" fill="#006D2C"/>
<path d="M28.0531 35.6625C28.0531 35.6625 28.2059 35.4926 28.2487 35.4371L28.0531 35.6625Z" fill="#006D2C"/>
<path d="M23.9128 33.0043C23.9128 33.0043 23.9128 33.0043 23.8883 33.0077C23.7721 33.073 23.8212 33.0662 23.9128 33.0043Z" fill="#006D2C"/>
<path d="M26.1034 32.8278C26.1034 32.8278 25.8979 32.9801 25.8304 33.039C25.8124 33.0911 25.8405 33.112 26.1034 32.8278Z" fill="#006D2C"/>
<path d="M25.7991 32.9935C25.7991 32.9935 25.7632 33.0971 25.8303 33.0386C25.8236 32.9901 25.8906 32.9316 25.7991 32.9935Z" fill="#006D2C"/>
<path d="M28.8553 36.7433C28.8553 36.7433 28.9256 36.7089 28.9223 36.6847L28.8553 36.7433Z" fill="#006D2C"/>
<path d="M28.9256 36.7087L28.9926 36.6502C28.9926 36.6502 28.9926 36.6502 28.9256 36.7087Z" fill="#006D2C"/>
<path d="M29.1278 36.5325L28.9938 36.6495C28.9938 36.6495 28.9971 36.6737 29.1278 36.5325Z" fill="#006D2C"/>
<path d="M28.764 36.2598L28.5898 36.4574C28.5898 36.4574 28.6752 36.3464 28.764 36.2598Z" fill="#006D2C"/>
<path d="M28.6088 36.2314C28.6088 36.2314 28.3198 36.6929 28.458 36.5995L28.5895 36.4574C28.3265 36.7416 28.9211 35.9403 28.6121 36.2557L28.6088 36.2314Z" fill="#006D2C"/>
<path d="M30.2539 33.5487L30.2066 33.7538C30.3774 33.5318 30.591 33.2543 30.6617 33.2198C31.0968 32.5396 30.2987 33.6915 30.2506 33.5244L30.2539 33.5487Z" fill="#006D2C"/>
<path d="M30.2861 33.048C30.4029 32.9823 30.549 32.7637 30.6344 32.6527C30.4569 32.826 30.4108 32.8571 30.2861 33.048Z" fill="#006D2C"/>
<path d="M28.657 31.6336L29.0975 31.176C29.0975 31.176 28.92 31.3493 28.657 31.6336Z" fill="#006D2C"/>
<path d="M26.1001 33.7216L25.8652 34.0269L26.2876 33.6215L26.1001 33.7216Z" fill="#006D2C"/>
<path d="M29.0514 30.2889L29.1188 30.2301L28.9099 30.358L29.0514 30.2889Z" fill="#006D2C"/>
<path d="M26.3379 27.9315L25.784 28.4791C25.9008 28.4134 26.5468 27.8036 26.3379 27.9315Z" fill="#006D2C"/>
<path d="M24.6958 27.3378C24.9868 27.0745 25.1329 26.8559 24.8386 27.0949C24.8206 27.147 24.625 27.3723 24.6958 27.3378Z" fill="#006D2C"/>
<path d="M22.6882 22.9726L22.8971 22.8447L22.7062 22.9205L22.6882 22.9726Z" fill="#006D2C"/>
<path d="M45.6331 37.6176C45.8554 37.5871 46.3247 37.5227 46.2192 37.4875L45.3975 37.5507L45.6298 37.5932L45.6331 37.6176Z" fill="#006D2C"/>
<path d="M47.0893 37.0454C46.6841 37.0266 45.9858 37.0728 45.2235 37.2022C46.0239 37.1668 45.7028 37.2109 46.6267 37.1585C46.7322 37.1937 46.3684 37.2933 46.0687 37.3096C46.2662 37.2825 45.9058 37.4064 46.4278 37.3596C47.0599 37.1984 47.0746 37.1219 46.5179 37.099C46.6908 37.0753 46.913 37.0448 47.0612 37.0245L47.0893 37.0454Z" fill="#006D2C"/>
<path d="M47.6816 28.5264C47.6816 28.5264 47.7837 28.5372 47.8578 28.527C47.8084 28.5338 47.7524 28.4918 47.6816 28.5264Z" fill="#006D2C"/>
<path d="M48.4973 27.8684C48.4973 27.8684 48.4482 27.8752 48.4516 27.8994C48.5252 27.8893 48.571 27.8583 48.4973 27.8684Z" fill="#006D2C"/>
<path d="M47.6721 31.7539L47.9091 31.647C47.6374 31.6842 47.7182 31.7228 47.6721 31.7539Z" fill="#006D2C"/>
<path d="M45.0166 36.6102C45.0166 36.6102 45.1434 36.6176 45.2456 36.6284C45.2209 36.6318 45.1681 36.6143 45.1401 36.5933C45.0907 36.6001 45.066 36.6035 45.0166 36.6102Z" fill="#006D2C"/>
<path d="M48.5325 33.0752C48.5325 33.0752 48.7368 33.0968 48.8603 33.0799L48.5078 33.0786L48.5325 33.0752Z" fill="#006D2C"/>
<path d="M48.8029 34.13C48.8029 34.13 48.1327 34.1972 47.833 34.2135C48.1294 34.1728 48.2562 34.1802 48.309 34.1978C48.4325 34.1809 48.6053 34.1571 48.8029 34.13Z" fill="#006D2C"/>
<path d="M49.249 26.7477C49.3227 26.7376 49.326 26.7618 49.249 26.7477V26.7477Z" fill="#006D2C"/>
<path d="M47.5084 17.7298C46.9044 17.912 46.6947 17.6678 46.0265 17.9332C46.2982 17.8959 47.1333 17.9302 47.5084 17.7298Z" fill="#006D2C"/>
<path d="M47.7859 26.3526L47.8775 26.2907C47.8775 26.2907 47.8072 26.325 47.7859 26.3526Z" fill="#006D2C"/>
<path d="M47.432 23.7705C47.432 23.7705 47.576 23.7261 47.4711 23.6911C47.4466 23.6945 47.422 23.6979 47.3975 23.7012C47.4957 23.6878 47.5481 23.7052 47.4287 23.7463L47.432 23.7705Z" fill="#006D2C"/>
<path d="M47.304 22.8452C47.304 22.8452 47.2057 22.8587 47.1566 22.8655C47.1566 22.8655 47.1812 22.8621 47.2091 22.8829L47.3006 22.821L47.304 22.8452Z" fill="#006D2C"/>
<path d="M39.9493 5.73812C40.1469 5.71101 40.3658 5.65615 40.5601 5.60467C40.0661 5.67246 39.8765 5.57439 39.9493 5.73812Z" fill="#006D2C"/>
<path d="M45.412 36.556C45.2391 36.5797 45.1403 36.5933 45.1123 36.5723C45.1123 36.5723 45.1123 36.5723 45.165 36.5899C45.2638 36.5763 45.3626 36.5628 45.4367 36.5526L45.412 36.556Z" fill="#006D2C"/>
<path d="M41.9457 24.4981L42.024 24.3394C42.024 24.3394 41.9391 24.4497 41.9457 24.4981Z" fill="#006D2C"/>
<path d="M41.8655 23.9144C42.1091 23.8561 42.254 23.8114 42.3247 23.7769C42.2753 23.7837 42.2259 23.7905 42.1518 23.8006L41.8688 23.9387L41.8655 23.9144Z" fill="#006D2C"/>
<path d="M38.7999 4.87838C38.8199 5.02453 39.699 4.82944 40.221 4.78262C40.4914 4.91923 39.5642 4.94721 39.1016 5.06032C39.362 5.12386 40.2151 5.10606 40.1757 5.18591C40.0275 5.20625 39.9781 5.21303 39.7805 5.24014C40.5102 5.23928 39.8487 5.55341 40.7826 5.57415C40.7085 5.58432 40.6344 5.59449 40.5603 5.60466C41.0049 5.54365 41.4741 5.47925 41.8199 5.4318C41.8299 5.50488 42.4047 5.47564 41.84 5.57795C41.8333 5.52923 41.611 5.55974 41.4134 5.58685L41.6951 5.62265C40.8374 5.78999 41.3854 5.56588 40.7432 5.65401C41.0316 5.73852 41.7679 5.78638 41.5343 5.9177C40.6946 6.03294 41.2325 5.73576 40.4836 5.96262L40.7846 5.77241C39.4676 6.07723 40.8701 5.66142 39.4509 5.95544C39.2307 6.1842 39.9009 6.11705 39.6806 6.34581C40.1566 6.33013 40.3722 6.2509 40.8448 6.21086C41.7247 6.38793 38.7755 6.71819 39.917 6.78489C40.4918 6.75565 41.5572 6.63427 41.0092 6.85837L40.0639 6.93846C39.9919 7.14688 41.4391 6.87383 40.8236 7.15682C40.4498 7.1833 40.4825 7.05473 40.3871 7.09265C39.6628 7.31612 40.9438 7.11552 40.9572 7.21295L40.1174 7.32819C40.271 7.53047 40.9219 7.68932 41.1002 7.88821C40.8532 7.9221 40.5748 7.91067 40.3345 7.99328C40.7945 8.22796 40.3193 8.6158 39.8621 8.95153L40.5917 8.95067C40.5917 8.95067 40.2773 9.04345 40.1224 9.01507C39.8641 9.14979 40.5917 8.95067 40.8701 8.9621C40.9295 9.0284 40.4602 9.0928 40.2346 9.09895C40.8788 9.20908 41.6419 9.4518 40.8783 9.75513L40.6493 9.73692C40.373 9.92374 42.1546 9.70407 41.5078 9.94173L41.3843 9.95868C41.1067 10.3194 41.8237 10.5933 40.7737 11.0103C41.8177 10.9167 40.3512 11.4158 41.8118 11.2401C41.1223 11.5333 40.8439 11.5219 40.4114 11.8542C40.3473 11.9375 41.3386 11.8262 41.5002 11.9033L40.7345 12.0084L41.5416 12.0217L40.6378 12.2202L40.8454 12.2662C40.8454 12.2662 41.1811 12.1456 41.4034 12.1151C41.7659 12.1895 40.9282 12.503 40.5331 12.5572L41.2187 12.7857C40.9223 12.8264 40.7921 12.7947 40.5878 12.7731C41.3769 12.8385 39.8008 12.9059 40.5124 12.9571C40.6853 12.9334 40.957 12.8961 41.1299 12.8724C40.6707 13.0099 40.6941 13.1804 40.9084 13.275L40.3897 13.3462C40.2929 13.558 40.7002 13.7751 40.737 14.0431C40.9706 13.9118 41.8878 13.8107 41.9719 13.8736L41.1568 13.9855C41.6608 13.9907 41.4465 13.8961 42.0774 13.9088C41.9919 14.0198 41.1735 14.1073 40.8918 14.0715L41.1802 14.156C40.9332 14.1899 40.8098 14.2068 40.51 14.2231C41.0107 14.2041 39.7217 14.5298 40.5962 14.4843L40.3492 14.5182C40.386 14.7861 40.6744 14.8706 40.7505 15.0587C41.4421 14.9638 41.3073 15.0816 41.882 15.0524C41.6798 15.229 41.1598 15.4741 41.2359 15.6622C41.5984 15.7365 41.8354 15.6295 42.2619 15.6206C41.6198 15.7088 41.7206 15.8935 41.238 15.8604C41.3669 16.0661 41.4016 16.1358 41.957 16.3325C42.2254 16.2709 42.3175 16.2086 42.5431 16.2025C42.6486 16.2376 42.2881 16.3616 41.9918 16.4022L41.9177 16.4124C42.8997 16.6003 40.1656 17.3974 41.5327 17.4579L41.4586 17.4681L42.1836 17.6168C42.1015 17.7521 41.7043 17.6081 41.3192 17.7354C42.4213 17.882 41.2311 18.1942 41.9561 18.3429C40.1024 18.771 42.1665 18.9592 41.0144 19.3655L41.459 19.3045C41.8856 19.2956 41.222 19.4115 41.1266 19.4494C41.4724 19.4019 41.5117 19.3221 41.7654 19.3369C42.3576 19.8016 41.2737 20.5212 40.9554 21.1356C40.8586 21.3475 43.2443 20.9456 42.2404 21.3315L41.4154 21.3703C42.4601 21.6488 41.5043 22.2019 42.3729 22.4798C42.1753 22.5069 41.9283 22.5408 41.943 22.4643C41.3602 22.6187 41.9617 22.7844 42.431 22.72C42.3916 22.7998 41.9864 22.781 41.7461 22.8636C41.4104 22.9841 42.5418 22.9778 41.9524 23.0835C41.8536 23.097 41.7548 23.1106 41.6988 23.0686C42.0018 23.0767 41.6581 23.3224 42.343 23.1788C42.0419 23.369 42.6795 23.4304 42.301 23.6064C43.0767 23.5744 41.964 23.9008 43.054 23.7761C41.9426 23.9286 42.2016 24.166 42.7337 24.1923C42.3846 24.2154 42.3979 24.3128 41.9253 24.3529C41.9387 24.4503 42.1744 24.5172 42.7424 24.4393C41.4355 24.8172 43.8826 24.6799 42.1705 25.0389C42.8067 25.2742 43.2667 25.5089 43.5538 25.7673C42.4423 25.9198 43.3868 25.4676 42.2293 25.6513C42.7354 25.8548 43.6973 25.8965 43.4624 26.2017C43.3242 26.2952 42.9617 26.2208 42.7855 26.2202C43.2915 26.4237 42.7603 26.7696 43.3831 26.9075C43.2843 26.9211 43.1575 26.9137 43.08 26.8995C43.1114 26.9448 42.9239 27.045 43.4392 26.9494L43.2843 26.9211C44.0152 26.7463 44.8423 26.9058 45.2375 26.8516C43.7703 26.9785 44.9005 27.146 43.0561 27.275C43.1582 27.2858 43.4119 27.3006 43.733 27.2566C43.6409 27.3188 43.4466 27.3703 43.0414 27.3515C43.3365 27.4847 43.8732 27.3614 43.8932 27.5076C43.6462 27.5415 43.5441 27.5307 43.2691 27.5436C43.7484 27.5523 44.2524 27.5575 44.0501 27.7342C43.902 27.7545 43.7044 27.7817 43.701 27.7573C43.8052 27.9664 45.0388 27.9708 44.603 28.2788C43.5309 28.3514 44.2672 28.3993 43.332 28.5524L43.6204 28.637L44.0583 28.5272C44.0583 28.5272 44.7553 28.6549 44.4475 28.7964L44.0637 28.7498L44.2667 28.9453L44.5957 28.7761C45.0817 28.8335 45.7566 28.6168 45.5296 28.7968C45.4275 28.786 45.5463 28.9186 45.0097 29.0419C45.3127 29.05 45.6191 29.0824 45.4069 29.1859C45.1105 29.2266 44.3943 29.3249 44.1967 29.352C44.969 29.2957 44.4557 29.5895 45.2808 29.5507C45.0832 29.5778 44.6106 29.6178 44.5152 29.6558L45.1393 29.6197C44.9484 29.6956 44.8529 29.7335 44.4544 29.7634C44.3543 29.9508 45.6086 29.5553 45.1413 29.818C45.0919 29.8248 44.9931 29.8383 44.8877 29.8032C44.6427 30.0353 45.333 30.1143 45.0633 30.3499C44.1315 30.5274 44.821 30.2342 44.0373 30.3914C44.2437 30.6113 45.2223 30.7748 45.0334 31.0489L45.1256 30.9866C46.4379 30.8313 44.5101 31.2696 45.1443 31.3066C45.0422 31.2958 44.4214 31.3562 44.5482 31.3636C44.3493 31.5646 44.9161 31.6606 45.3727 31.8709L45.027 31.9183C44.7406 32.0321 44.8842 32.1613 44.7527 32.3034C45.1018 32.2803 45.0377 32.3636 45.525 32.2471C43.6453 32.8525 46.6492 32.738 45.084 33.2506C45.0806 33.2263 44.7776 33.2182 44.7809 33.2426L45.1107 33.4455C45.6788 33.3676 45.4532 33.3737 45.8877 33.2396C46.2368 33.2165 46.4938 33.2557 46.5038 33.3288C46.1167 33.2578 45.59 33.4542 45.2756 33.547C45.4485 33.5232 45.6461 33.4961 45.819 33.4724C44.8231 33.7332 46.9551 33.3165 46.315 33.6029L46.0186 33.6435C46.1735 33.6719 46.5787 33.6908 46.5146 33.774C45.8511 33.8899 46.2082 33.7416 45.6649 33.8162C45.7276 33.9068 46.9512 33.8382 46.2977 34.0271C46.1181 34.0021 46.0868 33.9568 45.9072 33.9318C45.1549 34.1343 45.3558 34.1316 45.2424 34.2216L44.92 34.4396L45.1356 34.3603C46.8812 34.2449 45.4935 34.5842 46.6283 34.6022C45.5429 34.5774 46.0075 34.6626 45.2632 34.7399C45.0723 34.8157 44.8353 34.9227 44.6344 34.9255C45.2372 34.9172 44.1852 35.136 45.063 35.1148C44.816 35.1487 45.0764 35.2123 44.4556 35.2726C44.6665 35.3429 44.8721 35.1906 45.1718 35.1743C46.0103 35.233 44.2374 35.6996 45.3789 35.7663C45.8749 35.8968 46.6966 35.8337 47.1152 35.95C46.73 36.0773 46.2194 36.0233 46.2194 36.0233C45.887 36.1681 45.9464 36.2344 46.2561 36.2912C46.0586 36.3183 45.861 36.3454 45.5926 36.4071C45.6768 36.47 46.4638 36.3372 46.1313 36.4821C45.8597 36.5193 45.4331 36.5282 45.1581 36.5412C45.3937 36.6081 45.8483 36.6202 46.084 36.6871C45.6675 36.7691 45.4352 36.7265 45.1568 36.7151C45.3677 36.7854 45.564 36.9322 46.2376 36.8894L46.4745 36.7824C46.4745 36.7824 45.9065 36.8604 45.783 36.8773C45.2509 36.851 45.9885 36.725 46.2322 36.6668L46.3904 36.7195C47.7882 36.4532 46.1313 36.4821 46.1887 36.3501L47.2327 36.2565L46.3482 36.2289C46.6166 36.1673 47.1813 36.065 47.3362 36.0934C47.8415 35.9247 46.9557 36.0711 47.5104 35.8957C47.6092 35.8822 47.6586 35.8754 47.6833 35.872L47.3735 35.8152C47.5958 35.7847 48.0897 35.7169 47.9482 35.786C48.5176 35.5341 47.1458 35.6231 47.9014 35.445L47.9755 35.4348C47.5997 35.263 47.2099 35.5399 46.3187 35.4637L48.1544 35.0877L47.3887 35.1927C47.3887 35.1927 47.4494 35.0851 47.7705 35.0411C47.2385 35.0148 47.4494 35.0851 46.9488 35.1042C47.6236 34.8875 46.5843 34.8316 47.7911 34.6412C47.2164 34.6704 47.3633 34.824 46.9514 34.7564C48.2324 34.5558 46.7091 34.6408 47.2884 34.462C47.9586 34.3948 47.6262 34.5397 48.2056 34.3609C47.0595 34.4438 48.4259 34.1322 48.1902 34.0652C47.3011 34.1872 47.793 33.9212 47.4766 33.8157C47.7729 33.7751 47.9304 33.4556 48.2348 33.2898L48.383 33.2694C47.4691 33.3949 47.6186 33.2006 47.4324 33.1269C47.9757 33.0523 48.198 33.0218 48.4303 33.0644L48.4169 32.967C48.1206 33.0076 47.9657 32.9793 47.8569 32.9198L48.5237 32.8282C48.5237 32.8282 47.6999 32.6931 48.1211 32.4616C47.479 32.5497 46.3876 32.8484 45.941 32.7111C46.2868 32.6637 46.8795 32.5823 47.0063 32.5898C46.957 32.5965 46.7033 32.5817 46.8448 32.5127L47.4229 32.5078C47.6598 32.4008 46.9469 32.5235 46.9896 32.468C47.4836 32.4002 47.3287 32.3718 47.7239 32.3176C47.7733 32.3108 47.533 32.3934 47.7339 32.3906C47.8227 32.304 48.0843 32.1937 48.4515 32.1185C48.1798 32.1557 47.7846 32.21 47.7285 32.168C47.6871 32.0496 48.3146 32.038 48.5516 31.931C48.2024 31.9541 48.5348 31.8092 47.8186 31.9075C47.8119 31.8588 48.1577 31.8113 48.3553 31.7842C48.0242 31.7552 48.213 31.4811 47.4574 31.6593L47.408 31.666C47.408 31.666 47.408 31.666 47.3833 31.6694C46.637 31.5485 47.7397 31.149 47.3885 30.9738L47.6355 30.9399C47.3471 30.8554 47.4225 30.6714 46.8905 30.6451C46.8838 30.5964 47.3217 30.4867 47.6214 30.4703C47.4351 30.3966 47.1354 30.413 47.5352 30.2092C47.9685 30.249 47.9023 30.134 47.8697 30.2626C48.0752 30.1103 48.439 30.0107 47.7554 29.9804C48.3796 29.9444 48.5324 29.7745 48.3248 29.7286L47.8936 29.887C47.8936 29.887 47.8522 29.7686 47.8669 29.6921L48.6819 29.5803C49.6364 29.2011 46.9176 29.3757 48.567 28.926C47.9889 28.9309 48.1918 29.1264 47.4903 29.1482C47.5723 29.0129 48.7411 28.7284 48.7345 28.6797C49.1556 28.4481 47.5042 28.6996 47.7985 28.4607C47.5021 28.5013 46.7185 28.6585 46.4268 28.5496C46.5088 28.4143 47.6416 28.234 47.8739 28.2766C47.902 28.2976 47.8065 28.3355 47.7077 28.349C47.8132 28.3842 47.9434 28.416 48.2578 28.3232L47.9614 28.3639C48.2477 28.2501 48.1996 28.083 48.6722 28.043C48.3872 27.9828 48.1963 28.0586 48.0334 28.1554C48.4332 27.9517 48 27.9119 48.273 27.7007C48.1034 27.7488 47.7857 27.8172 47.779 27.7685C48.1161 27.474 47.1976 27.749 47.0507 27.5954C47.4819 27.437 48.1161 27.474 47.7255 27.3787C48.0085 27.2406 48.4912 27.2737 48.7382 27.2398C48.15 27.1716 49.0719 26.921 49.1573 26.81L49.4143 26.8492C49.2594 26.8208 49.2561 26.7964 49.2741 26.7443L48.688 26.8744C48.688 26.8744 48.7768 26.7877 49.0238 26.7539C48.6219 26.7594 48.0639 26.9104 47.5105 26.9119C47.7968 26.7981 47.1627 26.7611 47.9497 26.6283C47.7047 26.8604 48.74 26.5198 48.8836 26.649C48.7814 26.6382 48.7747 26.5895 48.8669 26.5272C48.9656 26.5137 49.0397 26.5035 49.0644 26.5001C49.7292 26.2103 48.1653 26.549 48.1632 26.3508C48.6078 26.2898 48.9963 26.1868 48.8941 26.176C48.9042 26.2491 48.1599 26.3264 47.8288 26.2974C48.1578 26.1282 47.5651 26.2095 47.5798 26.1331L47.4416 26.2265C46.9937 26.2631 47.0577 26.1799 46.8995 26.1271C47.2453 26.0797 47.1565 26.1663 47.3014 26.1216C46.5224 26.1293 48.0616 25.7939 47.5263 25.7433C47.8126 25.6296 48.3413 25.6315 48.5322 25.5556C47.9441 25.4874 49.1016 25.3038 48.6122 25.222C48.0262 25.3521 48.1744 25.3318 47.5929 25.3123L48.0496 25.5226L47.1617 25.4707C47.1617 25.4707 47.5556 25.5904 47.4635 25.6527C46.9842 25.644 47.1077 25.627 46.6451 25.7402C47.5209 25.5207 46.0964 25.5921 46.6724 25.389L48.1296 25.189C48.7484 24.9304 47.3452 24.974 47.6822 24.6796L47.4453 24.7866C46.8739 24.8402 47.3511 24.6506 47.0941 24.6114C47.5881 24.5436 47.7543 24.4712 48.0473 24.4061C47.6769 24.457 48.0486 24.2322 47.0821 24.3401L47.7108 24.1545C47.9558 23.9224 46.2977 24.1251 46.4191 23.9099C46.9445 23.8874 47.2802 23.7669 47.6921 23.8345C47.6821 23.7614 47.7742 23.6991 47.4284 23.7466C47.7214 23.6815 46.7381 23.6676 47.2007 23.5544C46.9751 23.5606 46.4811 23.6284 46.4958 23.5519C46.5946 23.5384 46.7428 23.518 46.7428 23.518C46.4958 23.5519 46.4083 23.4646 45.8717 23.5879C47.3762 23.1829 45.6993 23.0656 46.9602 22.7188C46.7673 22.5964 46.599 22.4706 46.5576 22.3522C46.7058 22.3319 46.8046 22.3183 46.7552 22.3251C47.1764 22.0936 45.334 22.4209 45.826 22.1548C46.6029 21.9489 46.2592 22.1946 46.5489 22.1052C48.1509 21.8606 46.2932 21.8921 47.215 21.6416L47.3138 21.628C47.8471 21.4804 46.6663 21.4935 46.7697 21.3304C46.7697 21.3304 46.9179 21.3101 47.0167 21.2965C46.1849 21.2866 45.8865 21.129 45.6408 20.989C46.265 20.953 45.9719 21.018 46.6107 20.9055C46.5019 20.846 45.5981 21.0445 45.3838 20.9498C45.7229 20.8536 46.0059 20.7155 46.6941 20.5963L46.7108 20.7181C47.6146 20.5196 46.6874 20.5476 46.8256 20.4541L47.2208 20.3999C47.0705 20.222 46.1073 20.3542 46.1266 20.1282L45.8302 20.1688C44.8536 20.2036 46.3636 20.0212 45.6306 19.9977L46.5938 19.8655C46.3301 19.7776 45.6118 19.6777 45.3975 19.583C46.1238 19.5578 46.5177 19.6774 46.9756 19.7139C46.9656 19.6408 46.8648 19.4561 46.3922 19.4961C46.4943 19.5069 46.7233 19.5251 46.5784 19.5698C45.7994 19.5775 45.4122 19.5065 45.3922 19.3604C47.2973 19.1237 45.8079 18.9062 47.2731 18.5811C46.5448 18.408 47.4959 18.0045 47.3537 17.7014C45.8885 18.0266 47.2909 17.6108 45.7877 17.8419C45.6789 17.7823 45.7002 17.7546 45.799 17.741L46.6828 17.3964C47.1206 17.2867 47.0139 17.4254 47.3596 17.378C47.4597 17.1905 47.9918 17.2168 48.3736 17.0651C47.8302 17.1397 47.6012 17.1215 47.7855 16.9969L47.1106 17.2136C46.2655 17.1062 48.3435 16.8459 47.5231 16.7351L48.0024 16.7438C47.714 16.6593 47.9422 16.3053 46.7186 16.374C46.8915 16.3503 47.3047 16.2439 47.4101 16.2791C47.5463 15.9874 46.0389 15.822 46.7531 15.5255L47.1236 15.4746C47.1236 15.4746 46.422 15.4965 46.7825 15.3725C46.9307 15.3522 47.1529 15.3217 47.1776 15.3183C47.0508 15.3109 46.5154 15.2603 46.7277 15.1567L47.1542 15.1478C47.6114 14.8121 46.0848 14.8727 45.8044 14.663C46.8911 14.5138 47.2068 14.2472 47.3663 14.126L47.5145 14.1057C47.5945 13.7721 46.5518 13.6918 46.0671 13.4605C47.2293 13.1273 46.4775 12.7838 47.1043 12.3999C46.9134 12.4758 46.2645 12.5152 46.1344 12.4834C46.3466 12.3798 45.342 12.3936 46.3579 12.279C47.3425 12.1191 47.0508 12.0102 47.0621 11.9094L45.7531 12.089C47.6114 11.5114 44.9546 11.4045 46.6387 11.0244C46.3076 10.9954 46.2976 10.9223 45.9665 10.8933L46.658 10.7984C46.8042 10.5798 46.8896 10.4688 46.6833 10.249L47.1839 10.2299C47.2133 10.077 45.1353 10.3373 45.0939 10.2189L46.1245 10.0279C46.0911 9.78428 46.9501 9.44304 45.9782 9.32825C46.1263 9.30791 46.4227 9.26724 46.4788 9.30918C46.4868 9.184 47.1349 8.77243 45.7091 9.01773C46.6476 8.88894 45.7744 8.76059 45.3379 8.69642L46.0294 8.60152C45.1269 8.6261 44.9046 8.65661 44.6376 8.54435C44.733 8.50643 45.1776 8.44542 45.0081 8.49351C45.3618 8.32087 44.3525 8.4842 44.6782 8.2906L45.1295 8.2783C45.1295 8.2783 44.9399 8.18024 44.4145 8.2027C44.1328 8.16691 44.5574 7.95975 45.1715 7.85065C44.801 7.90149 44.2723 7.8996 44.4352 7.80279C44.6821 7.7689 44.8056 7.75195 44.8831 7.76614C45.3256 7.50688 44.0526 7.5823 44.6994 7.34464C44.9217 7.31413 45.0452 7.29719 45.1193 7.28702C45.1427 7.45753 45.11 7.5861 45.0573 7.56852C45.6994 7.48039 45.7815 7.34505 46.684 7.32046C46.2014 7.28743 45.1373 7.23491 45.417 7.07245C45.4664 7.06567 45.5405 7.0555 45.6392 7.04194L45.7133 7.03177C45.7133 7.03177 45.7067 6.98306 45.6045 6.97226C45.6966 6.90998 45.7674 6.87546 45.7887 6.84771C46.3074 6.77653 46.0404 6.66427 46.055 6.58781C45.3635 6.68271 45.4522 6.59608 44.8942 6.74711C44.9436 6.74033 44.9683 6.73694 45.0244 6.77888C45.0244 6.77888 45.0491 6.77549 45.1018 6.79307L45.0524 6.79985C45.0591 6.84857 45.0905 6.89389 45.1252 6.96358C44.7728 6.96231 44.4697 6.95427 44.8301 6.83035C44.3822 6.867 43.9063 6.88269 43.7054 6.88544C44.6552 6.65582 45.1505 6.41414 45.7646 6.30504C45.3427 6.16441 45.4541 5.87613 44.1284 5.93397C43.9488 5.90898 44.4888 5.81006 44.6831 5.75858C44.8099 5.76599 44.7919 5.8181 44.9928 5.81534C44.6303 5.741 44.8225 5.49127 43.9053 5.59232C44.3052 5.38855 44.7551 5.55016 44.5802 5.37563L44.8519 5.33834C46.2589 4.77299 42.4467 5.04798 44.2669 4.3763C44.1467 4.4176 44.1007 4.44874 43.9525 4.46908C44.7007 3.87006 43.0498 3.57545 44.292 2.90864C44.5436 2.72521 43.9508 2.80655 43.4929 2.77013L44.2338 2.66845L43.346 2.61657C42.6771 2.50982 45.1269 2.02473 43.9046 1.91948L43.4106 1.98727C43.4106 1.98727 43.0775 1.76 43.6489 1.7064C43.5501 1.71996 43.1269 1.75322 43.3672 1.67061L43.7623 1.61638L43.0654 1.48867C43.3137 1.28087 44.6247 1.29949 44.6654 1.04574C44.5038 0.968644 43.4925 0.93371 43.2242 0.995352C43.2308 1.04407 42.9905 1.12668 42.5954 1.18091L42.3844 1.11059C41.2236 1.26989 40.0528 1.35612 39.2645 1.66284L39.9761 1.71409L39.4147 1.84076L39.398 1.71897C38.8399 1.87 39.3159 1.85432 39.6437 1.85897C39.3473 1.89964 39.153 1.95112 39.0362 2.01678L40.143 2.0138C39.6984 2.07481 39.2438 2.06274 39.0102 2.19407C39.5389 2.19597 40.0128 1.98203 40.3506 2.05976C39.842 2.20401 39.4188 2.23727 39.8734 2.24934C39.577 2.29001 39.3794 2.31713 39.2492 2.28536C39.605 2.31098 39.4242 2.45989 40.0483 2.42387C39.4162 2.58507 40.2546 2.64373 39.1679 2.79286C39.4396 2.75558 40.0491 2.79603 40.0838 2.86571C38.7581 2.92356 40.0431 3.11946 38.632 3.2883C39.8062 3.22643 39.1974 3.55814 39.8596 3.61617C39.7609 3.62973 39.5846 3.62909 39.6307 3.59796C39.5453 3.70895 39.2028 3.78076 38.9872 3.85998C39.9505 3.72779 40.1928 3.84344 40.7989 3.85953C39.8771 4.11012 39.6528 3.94236 38.7703 4.1131C39.5607 4.00464 39.5874 4.19951 40.2229 4.06267C39.6682 4.23806 39.9612 4.17302 39.1529 4.33359C40.3631 4.16751 39.3605 4.37955 40.1115 4.35094C39.5354 4.55408 38.9787 4.53122 39.3692 4.62653C39.0088 4.75044 38.5722 4.68627 38.5722 4.68627L38.7999 4.87838ZM41.3438 7.82996C41.3438 7.82996 41.3124 7.78463 41.2844 7.76366C41.2844 7.76366 41.2877 7.78802 41.3438 7.82996ZM41.3806 8.0979C41.3806 8.0979 41.3952 8.02143 41.3885 7.97272C41.6355 7.93882 41.8825 7.90493 41.8612 7.93268C41.713 7.95301 41.5715 8.02207 41.3806 8.0979ZM46.1165 6.85236C46.1165 6.85236 46.0738 6.90786 45.9536 6.94916C45.9536 6.94916 45.9222 6.90384 45.8695 6.88626C45.8448 6.88965 45.8201 6.89304 45.7954 6.89642C45.9189 6.87948 46.0424 6.86253 46.1412 6.84897L46.1165 6.85236Z" fill="#006D2C"/>
<path d="M45.1927 6.90471L45.1433 6.91149C45.0939 6.91827 45.0198 6.92843 44.9985 6.95618C45.0726 6.94601 45.1466 6.93585 45.2207 6.92568L45.1927 6.90471Z" fill="#006D2C"/>
<path d="M40.5649 12.0565L40.7378 12.0327L40.5862 12.0287L40.5649 12.0565Z" fill="#006D2C"/>
<path d="M45.3056 34.3122L45.072 34.4436C45.2135 34.3745 45.2595 34.3434 45.3056 34.3122Z" fill="#006D2C"/>
<path d="M43.1238 27.0422C43.1238 27.0422 43.1238 27.0422 43.0992 27.0455C42.9698 27.0139 43.0256 27.0556 43.1238 27.0422Z" fill="#006D2C"/>
<path d="M45.0789 29.1813C44.9521 29.1739 44.8253 29.1665 44.7478 29.1523C44.7051 29.2078 44.6838 29.2355 45.0789 29.1813Z" fill="#006D2C"/>
<path d="M44.7307 29.0306C44.59 29.0992 44.6424 29.1167 44.7473 29.1516C44.7931 29.1207 44.8601 29.0622 44.7307 29.0306Z" fill="#006D2C"/>
<path d="M45.0304 37.0798L45.0059 37.0832C45.0059 37.0832 45.0828 37.0973 45.1319 37.0906L45.0583 37.1007L45.0304 37.0798Z" fill="#006D2C"/>
<path d="M45.3895 37.1298L45.21 37.1048C45.21 37.1048 45.2166 37.1535 45.3895 37.1298Z" fill="#006D2C"/>
<path d="M45.1574 36.169C45.1574 36.169 44.6307 36.3653 44.8136 36.4147L45.0112 36.3876C44.6374 36.4141 45.5839 36.1601 45.1574 36.169Z" fill="#006D2C"/>
<path d="M48.1556 34.9137L47.9814 35.1114C48.2497 35.0497 48.5888 34.9536 48.673 35.0165C49.4332 34.6888 48.0869 35.1465 48.1556 34.9137Z" fill="#006D2C"/>
<path d="M48.477 34.3236C48.6139 34.4041 48.8722 34.2694 49.0204 34.2491C48.7667 34.2343 48.714 34.2167 48.477 34.3236Z" fill="#006D2C"/>
<path d="M44.5775 30.2925L44.2171 30.4164L44.7885 30.3628L44.5775 30.2925Z" fill="#006D2C"/>
<path d="M49.0371 29.2338L49.1179 29.2723L48.8789 29.181L49.0371 29.2338Z" fill="#006D2C"/>
<path d="M47.9453 22.9311L47.1797 23.0361C47.3379 23.0889 48.2023 22.9702 47.9453 22.9311Z" fill="#006D2C"/>
<path d="M46.7559 20.3148C47.1477 20.2362 47.3847 20.1292 46.9828 20.1347C46.9435 20.2146 46.6538 20.304 46.7559 20.3148Z" fill="#006D2C"/>
<path d="M46.9139 11.9297L47.1676 11.9445L46.9566 11.8742L46.9139 11.9297Z" fill="#006D2C"/>
</g>
<defs>
<clipPath id="clip0_62_1009">
<rect width="46.0701" height="40.1256" fill="white" transform="translate(0.667969 7.00922) rotate(-7.81404)"/>
</clipPath>
</defs>
</svg>
