<svg width="111" height="111" viewBox="0 0 111 111" fill="none" xmlns="http://www.w3.org/2000/svg">
<g filter="url(#filter0_d_62_838)">
<rect x="23.9072" y="13.0001" width="70.6689" height="70.6689" rx="4" transform="rotate(8.87859 23.9072 13.0001)" fill="white"/>
</g>
<path d="M51.2325 77.1151C65.7103 79.3263 78.269 70.3528 79.2831 57.072C80.2972 43.7913 69.3827 31.2326 54.9049 29.0214C40.427 26.8102 27.8683 35.7838 26.8542 49.0645C25.8402 62.3452 36.7547 74.9039 51.2325 77.1151Z" fill="white" stroke="#263238" stroke-miterlimit="10"/>
<path d="M32.548 67.6273C36.8613 72.2167 43.0138 75.732 50.0355 77.1141C57.0572 78.4962 63.3198 77.5232 68.2519 74.9085C64.6621 71.846 58.5332 67.8144 49.903 66.3128C40.2926 64.6371 35.0284 66.29 32.5423 67.6262L32.548 67.6273Z" fill="#FF6712"/>
<path d="M67.5142 61.6329L67.4271 61.8351L34.1718 54.8446C34.1628 54.7753 34.1529 54.6974 34.1424 54.6113C34.0928 54.2049 34.0288 53.6176 33.9718 52.8981C33.8577 51.458 33.7722 49.4944 33.8849 47.3957C33.9977 45.2945 34.3085 43.075 34.9783 41.1147C35.6485 39.1534 36.6678 37.481 38.1782 36.4289C39.6736 35.3872 42.0346 34.9986 44.8199 35.0488C47.5888 35.0987 50.7007 35.5799 53.63 36.2044C56.5565 36.8284 59.2855 37.5921 61.2839 38.2003C62.2826 38.5042 63.0979 38.769 63.6628 38.9576C63.9453 39.0519 64.1651 39.1271 64.314 39.1786C64.3884 39.2044 64.4451 39.2242 64.4829 39.2375L64.5255 39.2526L64.536 39.2563L64.5385 39.2572L64.539 39.2574L64.6349 38.842L64.5989 39.23C64.5945 39.2739 64.5943 39.2738 64.5942 39.2738L64.5936 39.2737L64.5927 39.2735L64.5936 39.2737L64.6111 39.2783C64.629 39.2831 64.6588 39.2916 64.6997 39.3048C64.7815 39.3313 64.9072 39.3765 65.0688 39.4482C65.3917 39.5916 65.8585 39.8413 66.4045 40.2605C67.4926 41.0957 68.9179 42.6209 70.1458 45.3684C72.4813 50.594 70.2063 55.5693 69.4241 57.2799C69.3964 57.3404 69.3706 57.3968 69.347 57.449C69.0069 58.1992 68.4917 59.3776 68.0626 60.3659C67.8478 60.8606 67.6541 61.3086 67.5142 61.6329Z" fill="#FFCD2E" stroke="#191A1D"/>
<path d="M45.6591 56.0942C45.6591 56.0942 45.2208 57.9399 45.3109 60.1402C45.4011 62.3404 45.1553 65.1973 45.1553 65.1973C45.1553 65.1973 46.6439 67.4565 49.8526 69.3561C53.0613 71.2556 54.7754 70.8947 56.0017 69.7057C57.2281 68.5166 57.9738 63.0985 57.9738 63.0985C57.9738 63.0985 47.6762 58.708 45.6531 56.0929L45.6591 56.0942Z" fill="#EBB376" stroke="#263238" stroke-miterlimit="10"/>
<path d="M50.168 63.4415L55.66 69.5845L57.3645 65.3395L50.168 63.4415Z" fill="#263238"/>
<path d="M65.4029 51.9066C65.4364 57.4605 63.9002 67.5689 55.3262 65.4804C50.363 64.2695 42.2371 54.2554 42.8572 47.0535C43.4774 39.8515 49.0526 35.099 55.3111 36.4447C63.1493 38.1301 65.3044 45.8915 65.3952 51.6388C65.3936 51.7289 65.398 51.8204 65.3964 51.9105L65.4029 51.9066Z" fill="#EBB376" stroke="#263238" stroke-miterlimit="10"/>
<path d="M37.2869 37.0161L37.2953 37.007L37.3031 36.9974C39.7085 34.0476 45.0145 30.1446 54.9345 32.2621C59.8376 33.3087 62.9547 36.1149 64.8536 38.6596C65.8055 39.9351 66.4514 41.1458 66.8586 42.0361C67.0433 42.4398 67.1784 42.7766 67.2704 43.0224C67.1058 43.0722 66.8946 43.1342 66.6394 43.2051C65.9487 43.3972 64.9362 43.6547 63.6549 43.9148C61.0917 44.435 57.4573 44.9643 53.1766 45C51.2796 45.0131 49.7364 45.2792 48.4688 45.6965L48.1963 45.7862L48.1765 46.0899L47.4008 58.0262L34.1635 55.0454C34.157 54.9936 34.1501 54.9369 34.1427 54.8756C34.0991 54.5103 34.0422 53.9805 33.9898 53.3264C33.885 52.0174 33.7987 50.2151 33.872 48.2409C34.0198 44.263 34.8126 39.7093 37.2869 37.0161Z" fill="#FFCD2E" stroke="#191A1D"/>
<path d="M53.2946 51.1377C53.2343 51.8307 52.8793 52.3307 52.4986 52.2495C52.1179 52.1684 51.8613 51.5381 51.9217 50.8451C51.982 50.1521 52.337 49.6521 52.7177 49.7333C53.0984 49.8144 53.355 50.4447 53.2946 51.1377Z" fill="#263238"/>
<path d="M61.6949 52.3937C62.074 52.4745 62.4304 51.9768 62.4909 51.2819C62.5514 50.5871 62.2931 49.9583 61.914 49.8775C61.5349 49.7967 61.1785 50.2945 61.118 50.9893C61.0575 51.6842 61.3158 52.313 61.6949 52.3937Z" fill="#263238"/>
<path d="M59.4847 53.3256C59.4847 53.3256 59.2516 54.3842 59.7154 55.5926C60.1792 56.8011 58.0305 56.9521 57.142 55.6577" stroke="#263238" stroke-width="0.75" stroke-miterlimit="10" stroke-linecap="round"/>
<path d="M52.9467 58.1235C52.9467 58.1235 54.6893 59.497 56.9256 59.9196C59.1618 60.3422 60.9834 59.4342 61.293 58.9684" stroke="#263238" stroke-width="0.75" stroke-miterlimit="10" stroke-linecap="round"/>
<path d="M50.2689 48.3607C50.2689 48.3607 51.1358 47.7585 53.6969 47.8323" stroke="#263238" stroke-width="0.75" stroke-miterlimit="10" stroke-linecap="round"/>
<path d="M61.0529 47.6219C61.0529 47.6219 62.7926 47.4325 63.9099 48.2066" stroke="#263238" stroke-width="0.75" stroke-miterlimit="10" stroke-linecap="round"/>
<defs>
<filter id="filter0_d_62_838" x="0.569336" y="0.56897" width="109.591" height="109.591" filterUnits="userSpaceOnUse" color-interpolation-filters="sRGB">
<feFlood flood-opacity="0" result="BackgroundImageFix"/>
<feColorMatrix in="SourceAlpha" type="matrix" values="0 0 0 0 0 0 0 0 0 0 0 0 0 0 0 0 0 0 127 0" result="hardAlpha"/>
<feOffset dx="2" dy="2"/>
<feGaussianBlur stdDeviation="7.5"/>
<feComposite in2="hardAlpha" operator="out"/>
<feColorMatrix type="matrix" values="0 0 0 0 0.8 0 0 0 0 0.8 0 0 0 0 0.8 0 0 0 0.3 0"/>
<feBlend mode="normal" in2="BackgroundImageFix" result="effect1_dropShadow_62_838"/>
<feBlend mode="normal" in="SourceGraphic" in2="effect1_dropShadow_62_838" result="shape"/>
</filter>
</defs>
</svg>
