<svg width="156" height="169" viewBox="0 0 156 169" fill="none" xmlns="http://www.w3.org/2000/svg">
<g clip-path="url(#clip0_62_1333)">
<path d="M98.0652 156.598C98.231 156.517 98.2068 156.243 97.8011 156.197L97.416 156.577L98.0652 156.598Z" fill="#004AAD"/>
<path d="M95.572 155.187C95.0534 155.297 94.4347 155.538 94.6423 156.016C95.1961 155.695 95.2703 155.903 95.8925 155.51C96.3046 155.544 96.5538 155.798 96.453 155.96C96.6187 155.879 97.0486 156.198 97.3272 155.962C96.8881 155.515 96.236 155.354 95.4804 155.476C95.3498 155.346 95.5275 155.271 95.572 155.187Z" fill="#004AAD"/>
<path d="M58.7598 141.064L58.9377 141.25C58.9377 141.25 58.8311 141.132 58.7598 141.064Z" fill="#004AAD"/>
<path d="M42.8716 123.113C42.9528 123.279 43.0368 123.323 43.0735 123.312C42.9612 123.176 42.885 123.059 42.8716 123.113Z" fill="#004AAD"/>
<path d="M41.7656 119.165C41.7656 119.165 41.8045 119.324 41.8271 119.398C41.8355 119.294 41.8193 119.209 41.7656 119.165Z" fill="#004AAD"/>
<path d="M58.7598 141.064L58.291 140.586C58.1676 140.674 58.5155 140.858 58.7598 141.064Z" fill="#004AAD"/>
<path d="M89.9839 155.011C90.1173 155.02 90.245 155.011 90.3551 154.977L90.0157 154.951C90.0157 154.951 89.9966 154.987 89.9839 155.011Z" fill="#004AAD"/>
<path d="M68.3648 145.867L68.5448 145.962C68.5448 145.962 68.7042 145.893 68.7719 145.852L68.3648 145.867Z" fill="#004AAD"/>
<path d="M76.0578 148.799C75.8898 148.71 75.7058 149.058 75.5753 149.188C75.7298 149.07 75.8822 149.043 76.0452 149.084C76.0769 149.024 76.079 148.933 76.0578 148.799Z" fill="#004AAD"/>
<path d="M88.5225 153.071L88.7652 153.077C88.7652 153.077 88.5952 153.079 88.5225 153.071Z" fill="#004AAD"/>
<path d="M63.1255 143.173C63.1255 143.173 63.1402 143.058 63.1289 143.021C63.1035 143.069 63.1085 143.118 63.1255 143.173Z" fill="#004AAD"/>
<path d="M61.5848 9.50199C61.5848 9.50199 61.6208 9.52103 61.6321 9.55771C61.6455 9.50337 61.6342 9.46669 61.5848 9.50199Z" fill="#004AAD"/>
<path d="M70.7277 5.30822L70.6226 5.39083C70.6226 5.39083 70.6558 5.53123 70.6968 5.59895L70.7397 5.31456L70.7277 5.30822Z" fill="#004AAD"/>
<path d="M40.6611 111.933C40.6611 111.933 40.6548 111.945 40.6484 111.957C40.717 112.147 40.6951 112.043 40.6611 111.933Z" fill="#004AAD"/>
<path d="M78.7783 65.5762C78.2516 64.9753 80.0266 65.6836 79.1829 64.869C79.2098 65.0214 78.0251 65.0551 78.7783 65.5762Z" fill="#004AAD"/>
<path d="M89.7802 154.903L89.4478 154.835C89.5924 154.881 89.7011 154.908 89.7802 154.903Z" fill="#004AAD"/>
<path d="M79.189 64.857L79.0938 64.7759C79.1354 64.8133 79.1531 64.8379 79.189 64.857Z" fill="#004AAD"/>
<path d="M43.3078 95.4605C43.3078 95.4605 43.161 95.5058 43.087 95.5587C43.123 95.5778 43.1843 95.5488 43.3078 95.4605Z" fill="#004AAD"/>
<path d="M39.7818 107.645L39.8438 107.324C39.8106 107.445 39.7839 107.554 39.7818 107.645Z" fill="#004AAD"/>
<path d="M45.8238 89.2215C45.9423 89.0845 46.0157 89.0619 46.0939 88.8269C46.0572 88.8382 46.0389 88.8439 46.0142 88.8615C46.0178 88.9709 45.979 89.0732 45.8238 89.2215Z" fill="#004AAD"/>
<path d="M49.5899 83.26C49.5899 83.26 49.5038 83.3066 49.4488 83.3236C49.417 83.3836 49.379 83.4555 49.3409 83.5275L49.5899 83.26Z" fill="#004AAD"/>
<path d="M49.9322 28.4898C50.0986 28.3782 50.2454 28.333 50.3738 28.2934C50.076 28.3048 50.391 27.2737 49.9322 28.4898Z" fill="#004AAD"/>
<path d="M90.019 154.8C89.9562 154.889 89.8829 154.912 89.7735 154.915C89.8582 154.929 89.9308 154.937 90.0155 154.951C90.0409 154.903 90.0663 154.855 90.031 154.806L90.019 154.8Z" fill="#004AAD"/>
<path d="M43.3552 87.4713L43.9905 86.5022C43.7902 86.7648 43.5576 87.1177 43.3552 87.4713Z" fill="#004AAD"/>
<path d="M56.6638 77.9263L56.4365 77.7754C56.5015 77.8558 56.5911 77.9186 56.6638 77.9263Z" fill="#004AAD"/>
<path d="M45.7702 83.5434C45.991 83.4452 46.1885 83.304 46.35 83.1438C46.3514 83.0831 46.3648 83.0287 46.3478 82.9737L45.7765 83.5314L45.7702 83.5434Z" fill="#004AAD"/>
<path d="M52.7394 20.9459C52.2128 21.9418 52.9423 21.6366 53.08 21.9858C52.6086 23.2258 52.4642 22.3664 52.0388 22.6482C51.7958 23.4563 51.9422 24.2246 51.6687 24.7709C51.5713 24.7808 51.4902 24.8761 51.4577 24.7054C51.4603 25.6587 50.4442 27.0867 50.54 28.2121C50.4659 28.265 50.4229 28.2884 50.3742 28.2933C50.667 28.2332 50.9203 28.3058 51.07 28.4002C50.8896 28.8576 51.0359 29.3648 50.6704 29.4172C50.786 29.1406 50.6723 29.0651 50.6214 28.9L50.573 29.4272C49.9719 29.6928 50.6623 28.7067 50.3433 28.584C50.1384 29.5812 50.0861 30.8125 49.7244 31.4965C49.2206 31.4911 50.171 29.7519 49.4417 30.5793L50.0064 29.5114C49.021 30.1265 50.3251 28.8508 49.2993 29.3678C48.617 30.8034 48.9255 31.1201 48.2855 32.5627C48.4155 32.9846 48.6799 32.5717 48.8163 32.9816C48.6191 35.2418 47.1827 34.3287 47.3367 36.099C47.5317 36.6013 48.023 36.8918 47.4646 37.9477L47.0452 37.4342C46.6592 38.919 47.5566 38.4416 46.8912 39.9322C46.7407 39.607 46.9675 38.7136 46.8653 38.9359C46.237 39.8627 47.0054 39.7162 46.8541 40.496L46.3665 40.576C46.1111 42.1913 46.1967 44.033 46.0769 45.8274C45.952 45.7153 45.8439 45.3971 45.6585 45.8057C45.6666 48.1131 45.3045 50.6853 45.1256 52.9399L45.5805 53.7639C45.582 53.9642 45.4261 54.1428 45.3336 53.9404C45.2345 54.8246 45.594 53.9706 45.767 54.3692C45.8167 54.856 45.5938 55.0453 45.437 54.732C45.9246 56.2489 46.6647 58.9433 46.6881 60.5832L46.5002 60.2996C46.6109 61.5711 47.6333 61.4669 47.5937 62.6742L47.4645 62.4831C48.0529 65.1741 49.6517 67.7545 50.1685 69.8549C50.8657 69.9011 51.3812 72.3233 52.1904 71.9835C52.7818 73.4784 52.3625 73.226 53.5827 75.0996C53.9238 75.587 54.5404 75.4371 55.1066 75.9054L54.8082 76.2082L55.8069 76.6135C55.8134 76.8626 55.8262 77.0996 55.839 77.3367L56.4192 77.7203C56.2356 77.5158 56.1155 77.1912 56.2383 77.1333C56.6992 77.4231 57.1313 77.9126 57.4307 78.3626C57.7548 78.795 57.9589 79.164 57.8961 79.2536C58.6387 79.7077 59.3819 80.1314 60.1632 80.4831C60.0271 80.5954 59.6367 80.4044 59.2931 80.2994C60.6742 80.7073 59.2573 80.8025 60.5177 81.1773C60.4245 81.0052 60.7279 81.0121 60.802 80.9591C61.184 81.5143 62.4305 82.2348 63.4362 82.5977L63.1286 82.7729C64.8445 83.6802 66.9256 84.274 69.0399 84.7472C68.3186 84.4272 68.6141 83.9846 69.2188 84.0895L69.3715 84.5847C69.8188 84.4067 68.7716 84.2675 69.6429 84.1295C70.41 84.3048 70.0849 84.7163 69.5917 84.778L70.5874 84.7824C70.6206 84.9228 70.3892 84.954 70.2947 85.1036C70.7243 84.9009 71.942 85.8212 72.5782 85.3439L72.6298 85.4786C73.7208 85.5642 74.5407 85.5525 75.2957 85.4604C76.0563 85.3866 76.7513 85.2628 77.6537 85.0951C77.6196 84.724 78.3372 84.6736 78.7724 84.2281C80.046 84.0264 81.5876 83.7822 83.0055 82.843C83.8681 82.0248 83.1189 82.3963 83.3974 81.8987C83.6889 82.1603 84.9296 81.0046 84.4325 81.7705C85.1893 81.0652 85.5721 80.5153 85.9684 79.9111C86.1397 79.5871 86.3237 79.2392 86.5091 78.8305C86.6465 78.3965 86.8579 77.9095 86.9635 77.2744C86.7639 77.5066 86.5883 77.7516 86.5318 77.5681C86.6268 77.1271 86.966 76.6309 87.1093 76.7373L87.1065 76.8587C87.23 75.4347 87.539 73.8631 87.5086 72.2656C87.4839 70.6864 87.0816 69.1533 86.2444 68.3267L86.3333 68.4198C85.8497 67.7955 85.347 67.2073 84.7942 66.6847C84.2131 65.8093 85.3815 67.0259 85.089 66.2725C84.0689 65.4721 83.4046 64.783 82.6655 64.1772C81.9631 63.5601 81.1796 63.0383 80.1895 62.7911C79.6853 62.0025 78.2886 61.4789 76.8173 61.2997C75.3403 61.1021 73.8325 61.1953 72.7577 60.934L72.8918 61.1738C72.3755 61.4535 72.2264 61.0676 71.8136 61.0643C71.8948 61.2301 72.417 61.2298 72.1038 61.3866C69.8608 61.7666 67.6206 62.2863 65.4279 63.1229C63.2233 63.953 61.1507 65.1141 59.3224 66.4811C58.0175 67.526 59.4212 68.0073 57.5588 69.0031L57.6664 68.277C55.663 70.9332 53.1281 73.2009 51.6081 75.9593C51.6433 75.7476 51.536 75.6601 51.7236 75.4215C51.0604 75.7464 50.2526 77.3613 50.4615 77.5179C50.1554 77.8934 50.1954 77.4693 49.9126 77.6268C49.3567 78.0391 49.2754 79.2091 48.8119 79.3018C48.7385 79.3244 48.8351 79.0837 48.8802 78.9694C48.7548 79.4098 47.6779 80.5753 48.2268 80.4663C47.4178 81.3283 47.0839 82.3954 46.3948 83.0597C46.4086 83.7886 45.1325 84.6339 45.5342 85.1227C45.0577 84.7172 44.0249 86.6123 43.9096 87.4111C43.8742 87.1006 43.4194 87.8735 43.343 87.4953C42.9313 88.2449 42.6593 88.9916 43.005 89.0056C41.5971 90.0421 42.0793 92.0628 40.8616 92.4783C40.0831 94.9378 39.4541 97.2306 38.9781 99.4663C38.6895 99.3444 38.8614 98.729 39.0205 98.1376C39.1917 97.5525 39.3806 96.9922 39.0482 96.9239C38.5616 99.0925 38.7556 100.439 38.1498 102.514C37.9736 103.05 37.9337 102.138 37.8835 101.943C37.706 104.137 37.1016 106.151 37.4144 108.143C37.3601 108.13 37.3042 107.916 37.266 107.727C37.2754 108.116 37.1423 108.629 37.4224 108.593L37.358 108.221C37.5773 107.923 37.7687 108.315 37.9404 108.775C38.1241 109.24 38.3184 109.773 38.4271 109.8C37.6097 109.168 38.2925 111.709 37.2463 110.726C37.3135 110.977 37.4519 111.295 37.6297 111.221C37.5847 111.596 37.4846 111.727 37.2622 111.364C37.5465 112.743 37.8017 112.202 37.9434 113.444C37.8093 113.465 37.7238 113.22 37.5565 113.101C37.8828 113.704 38.2218 114.282 38.3317 115.323C38.2357 115.272 38.1596 115.416 38.1058 115.111C38.4842 116.893 39.4627 117.917 39.8439 119.838C39.093 119.487 39.8951 120.525 39.4577 120.801L39.9704 121.747L40.0485 121.251C40.3686 122.127 41.078 122.702 41.2421 123.495L40.7747 122.956C41.0424 123.466 41.2854 123.994 41.6145 124.475C41.5183 124.163 41.4222 123.851 41.3508 123.521C41.9778 124.252 41.8629 123.163 42.2925 124.296C42.1329 124.104 42.7113 125.101 42.6742 125.664C43.025 125.988 43.4189 126.289 43.6655 126.926C43.6176 127.161 43.1152 127.095 43.0814 127.246C43.6664 127.417 44.322 129.023 45.0405 129.203C44.8485 129.102 44.6143 129.254 44.6186 129.334L45.114 129.442C45.2687 129.846 45.2666 129.937 45.0465 130.005C45.7385 131.077 45.3235 129.307 45.9966 130.676C45.9013 130.595 45.8936 130.668 45.6966 130.518C46.5235 131.799 47.6812 132.688 48.4996 133.812C48.3997 134.465 47.5896 132.977 47.5871 133.621C48.2867 134.359 49.1154 135.028 49.9449 135.666C50.7496 136.322 51.5797 136.93 52.268 137.632L52.0379 137.341C52.7137 136.992 52.8718 138.58 53.8655 138.937C53.6495 138.823 53.3653 139.041 53.469 139.019C54.4249 139.97 55.7221 140.594 57.4972 141.564L57.1811 141.581C57.7452 142.14 58.8407 142.827 59.5275 143.328C59.8379 143.293 60.2445 143.569 60.1194 143.196C61.8282 145.481 64.7083 145.116 66.3921 146.897C66.1395 146.794 65.7274 146.76 65.9193 146.862L67.7804 147.523C67.764 147.177 67.6229 147.24 67.3525 146.852C67.6516 146.78 68.2141 146.877 68.6587 147.082C67.7822 146.91 68.4536 147.557 68.7444 147.849C68.7289 147.733 68.8876 147.694 68.884 147.585C69.6162 148.494 69.2902 147.078 70.4239 147.954L70.2934 148.084C70.8065 148.218 71.3293 148.187 71.846 148.429C71.9337 148.844 71.2701 148.386 71.1306 148.65C71.8836 148.91 72.8325 148.567 73.3775 149.163C73.0261 149.13 72.5744 148.968 72.223 148.936C72.8027 149.611 72.9254 149.553 73.4477 149.814L73.3997 149.788L74.5996 150.423L74.3193 150.198C75.5645 149.643 76.2812 150.698 77.7425 150.519C76.3363 150.681 77.4392 150.773 77.2185 151.132C77.5051 151.345 77.966 151.635 77.7826 151.692C78.4775 151.568 78.7171 152.247 79.7112 152.051C79.7141 152.191 80.3563 152.254 80.1313 152.534C80.9478 152.674 80.0161 152.258 80.1226 152.115C81.4541 152.036 82.8301 153.47 84.7578 153.338C86.3328 153.495 86.7299 153.122 88.1899 153.264C88.6135 153.596 87.6898 153.629 87.6898 153.629C88.4097 154.01 89.0025 154.109 89.7547 154.138C89.5769 154.213 89.7075 154.343 89.8911 154.548C90.4775 154.658 90.3912 154.183 91.1055 154.545C90.939 154.657 90.7161 154.846 90.3986 154.924C91.1142 154.964 91.8508 154.878 92.5903 154.931C92.7238 155.201 92.081 155.168 91.7995 155.265C92.6293 155.351 93.9123 155.538 94.2409 155.236L93.761 154.982C94.051 155.043 93.8381 155.33 93.613 155.349C92.8693 155.478 92.6616 154.999 92.6467 154.853L93.1682 154.883C92.8178 154.007 91.1118 154.533 90.1104 154.249L90.6669 153.806L89.5147 154.011C89.3248 153.818 89.2478 153.47 89.7749 153.519C89.117 153.079 89.082 153.552 88.5335 153.108C88.4742 153.046 88.5172 153.023 88.5843 153.012L87.8377 153.001C88.0035 152.92 87.8107 152.588 88.2313 152.779C87.0434 152.151 86.0784 152.67 85.714 152.139L85.8234 152.136C84.0204 151.858 85.542 152.494 84.1125 152.613L83.4966 151.397L83.2152 151.754C83.0346 151.69 82.6916 151.554 82.798 151.411C82.0494 151.491 82.8602 151.613 82.3953 151.766C81.6259 151.16 79.9543 151.243 79.9518 150.551C79.5525 150.754 80.712 151.03 79.7298 150.971C79.6743 150.205 78.6232 150.77 77.9378 150.207C78.2961 149.936 78.9667 150.352 78.2932 149.797C77.6337 150.231 76.8139 149.168 76.1301 149.067C75.9377 149.518 74.6496 148.76 73.5014 148.522C73.6382 148.379 71.5513 147.506 70.6358 146.914L70.6978 146.855C70.3128 147.235 69.3225 146.727 68.5384 146.496C68.678 146.232 68.8671 146.194 69.3216 146.235L68.6243 145.927C68.3978 146.007 68.1494 145.983 67.6794 145.827L68.001 145.567C67.0687 145.182 65.9714 145.108 64.9274 144.295C64.7024 144.575 65.4255 145.618 64.0747 145.211C64.1156 145.017 64.2135 144.716 64.5819 144.803C64.4612 144.77 64.1274 144.762 63.9559 144.564L64.6001 144.536C64.1293 144.149 64.1972 144.631 63.7963 144.372C63.9232 144.132 63.5732 144.039 63.7347 143.879C63.8554 143.912 64.0375 144.178 64.2626 144.158C63.8201 143.863 63.3203 143.414 63.2354 143.139C63.2016 143.29 63.0641 143.463 62.7035 143.303C61.8156 142.834 62.5558 142.857 62.116 142.44C61.8175 142.482 61.3614 141.979 61.1351 142.32C60.8775 142.169 60.9303 141.982 60.8914 141.823C60.341 141.732 58.8254 140.562 59.0833 141.235L59.1843 141.335C59.1843 141.335 59.1363 141.309 59.1123 141.297C58.2873 140.999 57.5651 140.448 56.9171 139.844C56.2443 139.258 55.609 138.63 54.9095 138.153L54.9969 138.046C54.0977 137.54 53.2188 136.676 52.4968 136.386C52.2709 136.174 52.1352 135.734 52.3363 135.702C51.6904 135.269 51.5443 135.284 50.9039 134.346C51.6238 134.727 50.8628 134.017 51.5921 134.787C50.9729 133.983 50.9487 133.71 49.9655 133.159C50.4567 133.188 49.7845 132.311 49.3963 132.029L49.6781 132.715C49.2856 132.354 48.9905 131.983 48.6954 131.612L49.2076 131.514C48.7555 130.569 48.0461 129.994 47.3543 129.444C46.7056 128.871 46.1239 128.287 46.0712 127.399C45.5002 127.144 46.5275 128.424 45.9368 128.234C45.4206 127.439 45.5026 126.239 45.3381 125.998C44.8796 124.804 44.1453 125.322 43.6641 124.054C43.6042 124.283 43.2989 124.628 42.6923 123.801C42.3116 122.924 42.8201 122.456 43.1492 122.937C43.2417 123.139 43.2573 123.255 43.2022 123.272C43.3971 123.513 43.6449 123.829 43.6299 123.422L43.4302 123.393C43.3439 122.917 42.8423 121.746 43.1967 121.918C42.7786 121.344 42.836 121.758 42.9703 122.259C42.8381 121.667 42.6474 121.244 42.4446 120.814C42.2722 120.385 42.0942 119.938 41.962 119.346C41.9451 119.552 41.8302 119.798 41.7617 119.609C41.3403 117.85 41.1934 118.97 40.7645 117.807C40.8058 117.061 41.4003 117.882 40.8614 116.753C40.8179 115.993 41.2253 116.5 41.4385 116.735C40.8051 115.756 41.1998 114.69 41.1042 114.087L41.3409 114.626C41.2024 114.307 41.1479 114.033 41.0815 113.752L40.8361 114.129C40.8133 113.795 40.7836 113.502 40.9113 113.493C40.6635 113.178 40.4175 113.846 40.0439 113.188C40.158 112.711 39.6989 111.808 40.1102 111.611C40.1321 113.05 40.5215 111.414 40.7373 112.603C40.6574 112.376 40.6333 112.103 40.6472 111.757C40.679 111.697 40.7312 111.801 40.7779 111.887C41.0093 110.52 40.2505 111.317 40.1856 109.901C40.4305 110.076 40.6243 109.564 40.5748 109.339C40.5864 109.898 40.1798 109.621 39.9855 109.088C40.1883 108.182 39.8806 108.096 39.922 107.612L39.8185 108.156C39.5863 107.956 39.6333 107.49 39.5871 106.851C39.7762 106.813 39.689 107.442 39.7912 107.22C39.4077 106.465 40.3733 105.655 40.2141 104.649C40.4425 104.217 40.6629 104.672 40.8476 104.293C40.7278 103.155 41.3586 103.182 41.3792 102.01C40.9849 102.262 41.0498 102.343 40.9302 101.466C40.867 102.108 40.7614 102.743 40.7406 103.392C40.6472 102.959 40.5842 102.527 40.5276 102.082C40.3691 102.643 40.4689 103.325 40.3639 103.669C40.2084 103.034 40.2733 103.114 39.9587 103.332C40.5455 102.629 40.032 101.713 40.5552 100.868L41.3273 101.092C42.0351 99.8699 41.6083 98.6155 42.4225 96.9886L42.0954 97.4912C41.8602 97.1519 42.4413 96.4304 42.5398 95.8377C42.7671 95.9886 42.9927 95.678 43.2453 95.5198C43.0279 95.4663 43.7887 94.3178 43.3722 93.9441L44.0352 93.3581C44.8165 92.113 44.0774 91.5072 44.8396 90.2981C44.8885 90.8153 45.3731 90.3345 45.0969 91.2633C45.319 90.8433 45.5757 90.5031 45.414 90.4022C45.6969 90.2447 45.7175 89.0734 46.1725 88.8227C46.1717 88.5919 45.9698 88.393 46.2532 87.9441C46.3266 87.9215 46.3732 88.0076 46.3732 88.0076C46.2532 87.9441 46.6466 87.2002 46.1493 87.4439C47.601 86.6148 48.2877 83.9225 49.614 83.2727C50.1265 82.3614 50.7703 81.2893 51.3224 80.5065C51.3507 80.5982 51.4297 80.5939 51.3056 80.7125C52.2676 79.7933 51.1547 79.6041 52.2649 78.5789C53.0684 78.2208 51.9802 79.3496 52.4055 79.0679C53.2292 79.4266 53.375 77.5538 54.4001 77.0672L54.2859 77.2831C54.9998 76.8623 55.1678 75.6153 55.9965 74.687C55.9965 74.687 56.0247 74.7787 56.1038 74.7745C56.2952 73.8317 57.2119 72.5046 57.9502 71.5439C57.9568 72.0541 57.7198 72.0669 58.1248 72.1429C58.4563 71.7194 57.5969 71.8637 58.2718 71.023C58.645 70.8979 59.3102 70.482 59.6398 70.6717L58.9557 71.3847C59.6606 71.3582 59.845 70.4577 60.2887 70.1703L60.3813 70.3728C61.4498 69.3103 61.1074 68.8836 62.4349 67.912L62.2048 67.8825C62.6094 66.9142 62.9746 67.6754 63.4914 66.8432L64.0066 67.1463C64.4171 66.7185 65.48 65.6377 66.409 65.1003C66.0247 65.7108 65.0485 66.4536 64.5429 67.0614C65.0176 66.7443 66.1802 66.0847 66.3465 65.7121C66.161 65.8596 65.9671 66.1102 65.7237 66.1351C66.146 65.4525 66.9254 64.8206 68.0451 64.4454C68.1243 64.9633 68.839 64.7731 69.6935 64.58C70.5359 64.3806 71.5293 64.2151 71.9705 64.5712C73.8733 63.9345 75.8331 64.5256 77.8783 65.1004C77.3606 64.105 78.5 65.2602 78.6457 64.4621C79.1644 64.6136 79.3571 64.6847 79.3734 64.7701C79.8019 65.1502 80.1937 65.5417 80.5241 65.9621C80.6915 66.3423 80.0224 65.8656 79.9695 66.0527C80.83 66.6612 80.1582 66.567 80.5578 67.1468C80.6198 66.8264 81.1195 67.0139 81.4662 67.5196C81.351 67.2438 81.2366 66.9376 81.0847 66.6731C81.8124 66.9811 81.9431 67.3726 82.0202 67.7205C82.1029 68.0867 82.1927 68.4105 82.7948 68.8978L82.3022 68.668C82.6001 68.9176 82.9997 69.4975 83.3747 70.095C83.7497 70.6925 84.1 71.3076 84.5369 71.5847C84.4784 71.7534 84.3092 71.9863 84.1644 71.6794C84.3991 72.5712 84.6987 73.5434 84.8163 74.5115C84.9339 75.4796 84.7905 76.4477 84.3165 76.9955L84.1753 76.798C84.0894 77.1057 84.3231 77.5057 83.9048 77.7451C83.8455 77.6831 83.8003 77.5363 83.7128 77.6436C83.7087 77.8257 83.5517 78.5871 83.139 78.8449C83.1665 78.7058 83.2003 78.5548 83.2157 78.4094C82.5774 78.9778 82.1832 79.491 81.746 80.0275C81.3271 80.5583 80.8475 81.0877 80.1223 81.472C79.8914 80.9506 78.4697 81.2582 77.7161 81.2897L77.7181 81.1986C75.6085 81.5877 74.0429 82.0803 71.8506 82.1033C71.2351 81.6703 70.1469 81.4634 68.9838 81.0787C68.3981 80.9378 67.8088 80.6876 67.2371 80.4621C66.6591 80.2486 66.1375 79.9574 65.7013 79.6499C65.9448 79.8862 65.4615 80.0452 65.0875 79.9396C64.6753 79.6448 63.6429 79.6516 63.9807 79.2161L64.1367 79.2986C64.0545 78.641 63.0785 78.3091 62.446 77.8211L61.9361 78.3499C61.3217 77.3341 60.1853 76.5796 59.1462 75.8152C58.1128 75.0692 57.2078 74.2835 57.1701 73.5419C56.6654 73.3058 56.2764 72.793 55.8091 72.5152L56.1237 72.2977C55.7057 71.7235 55.4 71.2855 55.0829 70.8107C54.7659 70.336 54.3698 69.8655 53.8826 69.1319L54.3039 69.2933C53.8314 68.4447 52.6751 68.8312 52.2203 68.0073L52.5905 67.4814C51.7084 65.9555 51.5431 64.1485 50.4889 62.7159C50.5799 62.718 50.75 62.7158 50.8658 62.9613C50.5797 62.1958 50.3358 59.8405 49.6572 60.3108C50.1645 60.1645 49.2662 58.5533 48.9228 57.6347L49.3215 57.7227C48.7305 57.011 48.5485 57.0069 48.2946 55.89C48.3129 55.6233 48.5739 55.6231 48.505 55.9859C48.6047 55.0713 48.0523 55.332 48.1626 54.2234L48.4394 54.6001C48.3874 53.6821 48.2823 53.7647 47.9596 53.2716C47.754 52.7022 47.9877 51.5054 48.3249 51.3613C48.1089 51.2471 47.8292 50.7307 47.9207 50.1802C48.0498 50.1103 48.1303 50.3065 48.1706 50.4045C48.4606 48.8689 47.7863 48.0825 48.2473 47.0365C48.375 47.0273 48.4434 46.956 48.4878 46.872C48.3628 48.0956 48.3344 49.0786 48.3061 48.9868C48.6519 49.0008 48.753 48.0256 49.2085 48.8192C48.9471 48.0361 48.5054 46.6356 48.7575 45.6942C48.7949 45.6525 48.8323 45.6109 48.8937 45.5819L48.9156 45.6856C48.9691 45.4683 48.9676 45.2679 48.9294 45.0788C49.0273 44.7774 49.0922 44.5968 49.1231 44.306C49.4102 44.2276 49.4394 43.2143 49.5295 42.7245C49.1414 42.7035 49.3076 42.0698 48.9063 42.6253C48.9444 42.5533 48.9346 42.717 48.8967 43.0501C48.9009 43.1291 48.8869 43.2138 48.9038 43.2689L48.8805 43.2258C48.8369 43.5406 48.7786 43.9703 48.7372 44.4551C48.5888 44.0388 48.4891 43.6176 48.7803 43.096C48.5804 42.8061 48.3813 42.4859 48.2761 42.3074C48.8847 41.708 49.4529 40.4884 49.8014 40.381C49.8846 38.8589 50.4637 36.8928 50.0398 35.7781C50.0622 35.3293 50.3712 35.3545 50.5257 35.2366C50.5138 35.4914 50.4406 35.7751 50.4915 35.9401C50.5419 35.0609 51.155 33.4659 50.7378 33.1225C51.2941 32.1576 50.9823 33.8505 51.3796 32.4024L51.4651 32.6472C53.1609 30.1661 51.8825 27.6476 54.1999 25.0653C54.0441 25.2439 53.9693 25.3272 53.872 25.3372C54.8435 23.7321 55.6422 21.9895 56.5368 20.2977C57.4314 18.6059 58.47 16.9902 59.8524 15.7406C60.6036 15.0169 60.4278 14.7397 60.637 14.0827L61.0964 14.1721L61.4557 13.057C62.2348 11.6418 63.9855 11.8153 64.9606 10.0585L64.5971 10.0199C65.1593 9.5955 66.2045 8.48999 66.3126 8.80817C66.3387 8.72983 66.3209 8.44406 66.6377 8.39663L66.786 8.5518C67.1781 8.12964 67.5589 7.6708 67.9871 7.26768C69.2082 6.70047 68.2782 8.08184 69.9148 7.1355C70.4883 6.74784 71.4121 5.63955 71.1087 5.63265C70.8448 5.75414 70.3869 5.86515 70.2697 5.68033L70.8072 5.27363C70.627 4.65629 70.8467 3.8052 69.1068 4.22095C68.8085 4.52381 68.5045 4.80832 68.2358 5.14221L67.7454 5.08247C68.041 4.90098 68.3125 4.7068 68.6137 4.54366C67.9575 4.56514 67.7835 5.01048 67.5204 5.36271C67.3524 5.27389 67.14 5.26905 66.9016 5.34255C66.6625 5.70747 66.4588 6.12178 66.2558 6.50574C65.9975 6.38449 66.4177 5.79297 65.6812 6.1405C65.3894 6.69244 66.4307 6.29114 65.7959 6.96885C65.168 7.08205 65.1446 6.77794 64.7723 7.39484C64.5916 7.33001 64.6381 7.15499 64.8073 6.92205C64.4611 7.46061 63.6111 7.99377 63.6007 8.44891C62.9298 8.58542 62.1838 9.8799 61.8061 9.40378C61.7582 9.63949 61.3988 10.4935 61.0313 10.898C61.1242 10.2869 60.7518 10.6427 60.323 11.0761C59.9061 11.5159 59.4329 12.0334 59.2225 11.6764C59.2004 12.6474 57.7199 13.9373 57.2534 15.226C57.2554 15.135 57.2532 14.9649 57.34 14.888C56.8717 15.4541 56.5669 15.5079 56.2072 15.8397C56.5934 16.2128 56.0661 17.239 56.0078 17.9299C55.1042 18.4193 55.7647 17.1411 55.2129 17.1103C55.5849 17.307 54.7642 18.6848 55.2214 18.6041C54.5985 19.0271 54.7806 19.0312 54.214 19.1155C54.7321 19.5584 53.9934 19.7358 54.0869 20.4301C53.3238 21.1474 53.4024 20.3599 53.0748 21.415C52.6594 21.7941 52.8882 20.8096 52.8882 20.8096L52.7394 20.9459ZM46.2279 45.8612C46.2391 45.6368 46.2616 45.4491 46.2644 45.3277C46.256 45.4308 46.2462 45.5945 46.2279 45.8612ZM46.0695 48.0191C46.0997 47.7587 46.1377 47.4256 46.1516 47.0799C46.2927 47.0163 46.412 47.1101 46.3952 47.3161C46.3189 47.199 46.1985 47.6881 46.0575 48.0128L46.0695 48.0191ZM49.1518 43.8452C49.1505 44.167 49.0631 44.2743 48.9834 44.3089C48.9868 44.1572 49.0093 43.9695 49.0268 43.7331C49.0148 43.7268 48.9972 43.7021 48.9915 43.6837C49.0635 43.7218 49.1172 43.7655 49.1581 43.8332L49.1518 43.8452Z" fill="#004AAD"/>
<path d="M48.7297 43.1921C48.7297 43.1921 48.7255 43.1131 48.7268 43.0524C48.6951 43.1124 48.6451 43.178 48.6133 43.238C48.6486 43.2874 48.6839 43.3368 48.7136 43.3678C48.715 43.3071 48.7284 43.2528 48.7297 43.1921Z" fill="#004AAD"/>
<path d="M58.9852 141.276L58.9492 141.257C58.9492 141.257 58.9965 141.312 58.9958 141.343C58.9845 141.306 58.9845 141.306 58.9852 141.276Z" fill="#004AAD"/>
<path d="M54.7515 76.3163L54.8199 76.245L54.6216 76.1554L54.7515 76.3163Z" fill="#004AAD"/>
<path d="M68.6943 147.914C68.6943 147.914 68.7226 148.006 68.8003 148.063C68.8129 148.039 68.7536 147.976 68.6943 147.914Z" fill="#004AAD"/>
<path d="M73.4038 149.868L74.039 150.234C73.7637 150.058 73.5781 149.944 73.4038 149.868Z" fill="#004AAD"/>
<path d="M77.0445 151.317C77.1122 151.276 77.1376 151.228 77.1629 151.18L77.0445 151.317Z" fill="#004AAD"/>
<path d="M37.2279 107.799C37.2279 107.799 37.2243 107.69 37.2194 107.641C37.155 107.269 37.1735 107.525 37.2279 107.799Z" fill="#004AAD"/>
<path d="M42.6237 125.73C42.4691 125.587 42.3145 125.444 42.1846 125.283C42.311 125.595 42.4332 125.829 42.6237 125.73Z" fill="#004AAD"/>
<path d="M43.2866 87.573L43.2986 87.5793L43.3557 87.4713L43.2866 87.573Z" fill="#004AAD"/>
<path d="M41.7773 124.515C41.8671 124.839 42.0133 125.085 42.1849 125.283C42.0754 125.026 41.9546 124.731 41.7773 124.515Z" fill="#004AAD"/>
<path d="M93.353 155.841L93.5337 155.906C93.5337 155.906 93.5528 155.87 93.5654 155.846L93.353 155.841Z" fill="#004AAD"/>
<path d="M93.5718 155.834L93.7842 155.838C93.6875 155.818 93.6028 155.804 93.5718 155.834Z" fill="#004AAD"/>
<path d="M94.2269 155.843L93.7837 155.839C93.9348 155.872 94.1098 155.919 94.2269 155.843Z" fill="#004AAD"/>
<path d="M88.3746 154.483L88.2808 154.602C88.2808 154.602 88.3429 154.543 88.3746 154.483Z" fill="#004AAD"/>
<path d="M86.8409 154.132C87.1902 154.255 87.6851 154.655 88.2065 154.685L88.2876 154.59C87.9991 154.729 87.2388 153.989 86.8409 154.132Z" fill="#004AAD"/>
<path d="M80.9791 150.787L82.2071 151.252C82.0235 151.047 81.799 150.775 82.3727 150.91C80.9173 150.032 82.6001 151.322 80.9911 150.793L80.9791 150.787Z" fill="#004AAD"/>
<path d="M77.1919 149.383C77.8806 149.532 77.251 149.184 77.3074 149.106C76.8523 149.096 76.7309 149.093 77.1919 149.383Z" fill="#004AAD"/>
<path d="M52.0805 135.46L52.3704 135.26C51.9405 134.94 52.2773 135.349 52.0805 135.46Z" fill="#004AAD"/>
<path d="M46.9424 132.604C46.9989 132.788 47.0555 132.971 47.124 133.161L47.5311 133.146C47.3349 132.965 47.1139 132.803 46.936 132.616L46.9424 132.604Z" fill="#004AAD"/>
<path d="M46.8847 128.474L47.0633 128.63L46.4463 127.997L46.8847 128.474Z" fill="#004AAD"/>
<path d="M49.1613 84.4767L48.7202 84.3817C48.5849 84.7247 48.9478 85.0547 49.1613 84.4767Z" fill="#004AAD"/>
<path d="M62.2385 68.284C62.5532 68.3276 63.0809 68.0846 63.2593 67.7183C62.8656 67.94 62.4007 68.0934 62.2385 68.284Z" fill="#004AAD"/>
<path d="M61.2214 77.4654L61.6377 77.5781C61.4098 77.4575 61.1628 77.373 60.9531 77.2468C61.0484 77.3279 61.1317 77.4026 61.227 77.4837L61.2214 77.4654Z" fill="#004AAD"/>
<path d="M86.4215 165.379C86.5231 165.448 86.7574 165.557 86.7221 165.508L86.3389 165.274L86.4151 165.391L86.4215 165.379Z" fill="#004AAD"/>
<path d="M87.2735 165.538C87.1069 165.389 86.7963 165.163 86.4117 164.99C86.7702 165.241 86.5959 165.165 87.0265 165.454C87.0554 165.515 86.8628 165.444 86.7251 165.356C86.8148 165.419 86.6094 165.371 86.8431 165.51C87.1804 165.627 87.2178 165.586 86.9975 165.392C87.0815 165.437 87.1895 165.494 87.2615 165.532L87.2735 165.538Z" fill="#004AAD"/>
<path d="M91.6074 161.32C91.6074 161.32 91.6244 161.375 91.654 161.406C91.6427 161.369 91.6371 161.351 91.6074 161.32Z" fill="#004AAD"/>
<path d="M89.9156 162.836L90.0603 162.882C89.941 162.788 89.9643 162.831 89.9156 162.836Z" fill="#004AAD"/>
<path d="M86.5918 164.533C86.5918 164.533 86.6391 164.589 86.6807 164.626C86.6687 164.62 86.6574 164.583 86.6638 164.571L86.6038 164.539L86.5918 164.533Z" fill="#004AAD"/>
<path d="M89.6133 163.843C89.6133 163.843 89.6902 163.93 89.7439 163.973L89.6133 163.843Z" fill="#004AAD"/>
<path d="M89.2336 164.502C89.2336 164.502 88.9414 164.271 88.8037 164.183C88.923 164.277 88.9887 164.327 89 164.363C89.06 164.395 89.1439 164.439 89.2272 164.514L89.2336 164.502Z" fill="#004AAD"/>
<path d="M88.0225 165.167L88.0578 165.216C88.0578 165.216 88.0401 165.191 88.0225 165.167Z" fill="#004AAD"/>
<path d="M89.998 163.463C89.998 163.463 90.094 163.514 90.1117 163.539C90.0637 163.513 90.0277 163.494 89.998 163.463Z" fill="#004AAD"/>
<path d="M88.6152 147.409C88.6152 147.409 88.6583 147.385 88.6766 147.38C88.6399 147.391 88.6152 147.409 88.6152 147.409Z" fill="#004AAD"/>
<path d="M89.9458 145.763L89.9698 145.776L90.1603 145.677L89.9458 145.763Z" fill="#004AAD"/>
<path d="M98.9468 156.296C98.5206 156.347 98.174 156.102 97.7408 156.196C97.9412 156.194 98.726 156.394 98.9468 156.296Z" fill="#004AAD"/>
<path d="M97.7408 156.196L97.7041 156.207C97.7161 156.213 97.7344 156.208 97.7528 156.202L97.7408 156.196Z" fill="#004AAD"/>
<path d="M94.0932 160.132C94.0932 160.132 94.0163 160.045 93.9746 160.008C94.0043 160.039 94.0339 160.07 94.0932 160.132Z" fill="#004AAD"/>
<path d="M94.2632 159.347C94.2632 159.347 94.3288 159.397 94.3119 159.342C94.2999 159.335 94.2879 159.329 94.2822 159.311C94.3055 159.354 94.3048 159.384 94.2632 159.347Z" fill="#004AAD"/>
<path d="M94.7885 158.964C94.7885 158.964 94.7469 158.926 94.7412 158.908L94.7285 158.932L94.7885 158.964Z" fill="#004AAD"/>
<path d="M89.752 149.238C89.8444 149.179 89.9431 149.109 90.0355 149.05C89.8077 149.19 89.663 149.145 89.752 149.238Z" fill="#004AAD"/>
<path d="M86.7778 164.647C86.6938 164.602 86.6521 164.565 86.6465 164.547C86.6465 164.547 86.6401 164.559 86.6458 164.577C86.6938 164.602 86.7418 164.628 86.7778 164.647Z" fill="#004AAD"/>
<path d="M92.5225 156.89L92.6565 156.869C92.6565 156.869 92.5655 156.867 92.5225 156.89Z" fill="#004AAD"/>
<path d="M92.4901 153.496L92.4414 153.501C92.4414 153.501 92.4534 153.507 92.4901 153.496Z" fill="#004AAD"/>
<path d="M92.8987 156.614C92.9997 156.713 93.0533 156.757 93.095 156.794C93.0773 156.77 93.0717 156.751 93.0484 156.708L92.8804 156.619L92.8987 156.614Z" fill="#004AAD"/>
<path d="M88.899 148.818C88.9392 148.916 89.3646 148.634 89.6221 148.524C89.8091 148.577 89.3195 148.748 89.1156 148.902C89.2673 148.905 89.7019 148.751 89.7189 148.806C89.6512 148.847 89.6201 148.877 89.5284 148.905C89.9256 148.792 89.6633 149.114 90.1586 148.962C90.1155 148.985 90.0845 149.015 90.0598 149.032C90.2693 148.897 90.5028 148.775 90.6566 148.688C90.6863 148.719 90.9741 148.61 90.6969 148.786C90.6976 148.755 90.5748 148.813 90.4768 148.854L90.6292 148.827C90.2405 149.097 90.4528 148.841 90.1452 149.016C90.3209 149.032 90.7238 148.938 90.642 149.064C90.242 149.298 90.4253 148.98 90.115 149.276L90.2165 149.084C89.624 149.508 90.2306 149 89.583 149.44C89.5358 149.646 89.8674 149.483 89.8266 149.677C90.0594 149.585 90.1588 149.484 90.3916 149.392C90.9025 149.355 89.4584 150.112 90.0814 149.95C90.3693 149.841 90.8857 149.561 90.6614 149.811L90.1887 150.037C90.2156 150.189 90.8815 149.743 90.6439 150.047C90.4477 150.128 90.4378 150.031 90.3941 150.084C90.0838 150.381 90.6876 149.994 90.7285 150.061L90.3406 150.302C90.4839 150.408 90.855 150.374 91.0103 150.487C90.8875 150.545 90.7528 150.596 90.647 150.709C90.949 150.777 90.8377 151.133 90.7208 151.47L91.1003 151.333C91.1003 151.333 90.9698 151.463 90.8845 151.48C90.802 151.636 91.106 151.351 91.2527 151.306C91.3007 151.331 91.0969 151.485 90.9748 151.512C91.3403 151.46 91.8138 151.464 91.5324 151.822L91.416 151.868C91.3448 152.061 92.1765 151.533 91.9268 151.831L91.8535 151.854C91.8402 152.169 92.3194 152.192 91.9315 152.694C92.4239 152.401 91.8625 153.056 92.5284 152.61C92.2837 152.957 92.149 153.008 92.0447 153.322C92.0433 153.382 92.499 153.101 92.6021 153.11L92.2564 153.357L92.6734 153.178L92.2953 153.515L92.423 153.506C92.423 153.506 92.5478 153.357 92.6466 153.287C92.8597 153.261 92.5593 153.655 92.3801 153.791L92.8056 153.77C92.6638 153.864 92.5968 153.875 92.4867 153.908C92.903 153.76 92.1404 154.186 92.5319 154.055C92.6004 153.984 92.7415 153.92 92.8035 153.861C92.635 154.064 92.7176 154.169 92.851 154.178L92.6104 154.342C92.6606 154.538 92.9393 154.562 93.0692 154.723C93.139 154.591 93.5404 154.297 93.6131 154.304L93.2788 154.588C93.5186 154.454 93.3732 154.439 93.6801 154.294C93.678 154.385 93.3141 154.638 93.173 154.701L93.3557 154.675C93.2506 154.758 93.1892 154.787 93.0474 154.881C93.2873 154.746 92.7894 155.281 93.2021 155.024L93.097 155.106C93.2149 155.261 93.3913 155.247 93.5162 155.359C93.8132 155.117 93.7864 155.225 94.0573 155.061C94.0115 155.206 93.9362 155.581 93.9432 155.538C94.1153 155.445 94.2084 155.356 94.4053 155.245C94.1273 155.452 94.1697 155.459 93.9545 155.575C94.0272 155.583 94.0335 155.571 94.3687 155.518C94.4978 155.448 94.5472 155.413 94.6756 155.373C94.7426 155.362 94.5641 155.468 94.3927 155.53L94.356 155.542C94.6488 155.482 94.445 155.635 94.2185 155.715C94.004 155.801 93.7542 155.838 94.2044 155.799L94.1557 155.804C94.3138 155.796 94.4895 155.812 94.6596 155.81C94.5982 155.839 94.3194 155.814 94.0577 155.845C94.8402 155.875 93.9956 155.904 94.5531 155.953C93.4071 155.884 94.1826 155.957 94.0909 155.985C94.0486 155.978 93.9455 155.97 93.7522 155.929L94.1149 155.998C94.4593 156.072 93.9032 155.963 93.8185 155.948C94.0966 156.003 94.1389 156.01 94.3323 156.051C94.6202 156.204 93.6591 156.018 93.4925 155.868C93.4388 155.824 94.6776 156.618 94.084 156.288L93.6958 156.006C94.1059 156.392 93.6224 156.029 93.8625 156.417C93.8039 156.325 93.7396 156.214 93.7396 156.214C93.5885 155.919 93.5675 156.307 93.7264 156.529C93.6657 156.528 93.5851 156.332 93.4842 156.232C93.3169 156.113 93.5775 156.665 93.3707 156.418C93.329 156.381 93.3304 156.32 93.3311 156.29C93.3883 156.443 93.135 156.37 93.3835 156.655C93.1852 156.565 93.2926 156.914 93.0893 156.776C93.2751 157.15 92.8112 156.721 93.1276 157.226C92.7809 156.72 92.6787 156.943 92.7755 157.224C92.6943 157.058 92.6082 157.105 92.4797 156.883C92.4176 156.943 92.4205 157.082 92.6154 157.324C92.0499 156.825 92.7159 157.976 92.0819 157.287C92.0786 157.7 92.047 158.021 91.9561 158.28C91.5783 157.804 92.1063 158.083 91.7109 157.582C91.7033 157.916 91.9293 158.389 91.6859 158.414C91.5956 158.381 91.5454 158.186 91.4867 158.093C91.4791 158.427 91.1355 158.322 91.2118 158.7C91.1765 158.651 91.1476 158.59 91.1363 158.553C91.1172 158.589 91.0029 158.544 91.1985 158.755L91.1758 158.681C91.4794 158.949 91.6208 159.408 91.7627 159.575C91.2854 158.939 91.5023 159.545 90.9014 158.736C90.9183 158.791 90.9763 158.913 91.1069 159.044C91.0405 159.024 90.9629 158.968 90.852 158.771C90.8535 158.971 91.0921 159.159 90.9934 159.23C90.9044 159.136 90.8874 159.081 90.7872 158.952C90.9214 159.192 91.0499 159.413 90.8982 159.41C90.8509 159.354 90.7676 159.279 90.7923 159.261C90.6978 159.411 91.0495 159.966 90.7531 159.916C90.381 159.459 90.5731 159.821 90.2109 159.461L90.2371 159.643L90.4341 159.794C90.36 159.847 90.5711 160.173 90.3968 160.096L90.2979 159.906L90.2451 160.093L90.4498 160.17C90.5656 160.416 90.9072 160.612 90.7315 160.596C90.7146 160.541 90.6695 160.655 90.4245 160.48C90.5064 160.615 90.606 160.775 90.4613 160.729C90.33 160.629 90.0695 160.338 89.9862 160.263C90.258 160.591 89.9263 160.492 90.2158 160.845C90.1509 160.765 89.961 160.572 89.913 160.547L90.1438 160.807C90.0358 160.75 89.9999 160.731 89.8453 160.588C89.7105 160.639 90.3337 161 90.038 160.92C90.0204 160.895 89.9788 160.858 89.9618 160.803C89.755 160.816 89.9295 161.154 89.7171 161.15C89.3112 160.843 89.7029 160.973 89.3563 160.728C89.2908 160.939 89.5465 161.443 89.3327 161.499L89.4054 161.507C89.9285 161.998 89.044 161.377 89.2375 161.679C89.2142 161.636 88.9523 161.405 89.006 161.449C88.8352 161.482 88.9624 161.764 89.0225 162.057L88.8919 161.926C88.7169 161.88 88.6894 162.019 88.5737 162.034C88.7043 162.165 88.6493 162.182 88.8766 162.333C87.8849 161.885 89.0364 163.047 88.2064 162.7C88.2191 162.676 88.1125 162.558 88.1061 162.57L88.1246 162.825C88.3879 162.995 88.2926 162.914 88.5086 163.028C88.6392 163.159 88.7274 163.282 88.7084 163.318C88.5912 163.134 88.2962 163.024 88.1338 162.953C88.2115 163.01 88.3011 163.072 88.3788 163.129C87.8621 162.886 88.8863 163.505 88.5003 163.393L88.369 163.292C88.4156 163.379 88.5575 163.546 88.4905 163.556C88.1792 163.361 88.3782 163.42 88.1333 163.245C88.0952 163.317 88.6133 163.759 88.2767 163.612C88.2117 163.532 88.2371 163.484 88.1722 163.403C87.7755 163.224 87.8652 163.287 87.7798 163.303L87.549 163.304L87.6697 163.337C88.4025 163.955 87.7002 163.599 88.1513 164.053C87.7298 163.63 87.8767 163.846 87.5421 163.608C87.4215 163.574 87.3008 163.541 87.1991 163.472C87.4427 163.709 86.9211 163.417 87.2776 163.759C87.1576 163.696 87.2339 163.813 86.9529 163.618C86.9925 163.747 87.1569 163.726 87.2882 163.826C87.596 164.173 86.6637 163.788 87.1021 164.265C87.242 164.524 87.6126 164.781 87.7227 165.008C87.5117 164.943 87.3345 164.726 87.3345 164.726C87.1228 164.691 87.1334 164.758 87.2273 164.9C87.1377 164.837 87.0354 164.798 86.9034 164.728C86.902 164.789 87.298 164.998 87.0982 164.97C86.9726 164.888 86.7813 164.756 86.6684 164.65C86.7446 164.767 86.9225 164.953 86.9925 165.083C86.7885 164.975 86.7059 164.87 86.5866 164.776C86.6445 164.899 86.665 165.063 86.9763 165.258L87.1217 165.274C87.1217 165.274 86.8457 165.128 86.7921 165.084C86.5782 164.879 86.9445 165.057 87.0645 165.121L87.1111 165.207C87.8077 165.544 87.0982 164.97 87.1906 164.911L87.6629 165.238L87.312 164.914C87.4504 164.972 87.7263 165.118 87.7729 165.204C88.0503 165.289 87.6247 165.048 87.938 165.153C87.986 165.178 88.01 165.191 88.022 165.197L87.9161 165.049C88.0178 165.118 88.2641 165.233 88.173 165.231C88.5238 165.294 87.9146 164.849 88.2992 165.021L88.3352 165.04C88.2554 164.814 87.988 164.826 87.6322 164.454L88.5441 164.936L88.2158 164.685C88.2342 164.68 88.2892 164.663 88.4205 164.763C88.2066 164.558 88.2645 164.68 88.0499 164.506C88.4113 164.635 88.0201 164.213 88.5954 164.548C88.3448 164.354 88.354 164.482 88.2128 164.285C88.8177 164.651 88.1676 164.138 88.4809 164.242C88.7795 164.461 88.5742 164.414 88.8932 164.537C88.404 164.155 89.0886 164.487 89.0243 164.376C88.6177 164.1 88.9325 164.143 88.8576 163.965C88.9889 164.066 89.1857 163.955 89.4038 163.978L89.4757 164.016C89.0755 163.727 89.2159 163.694 89.17 163.578C89.4149 163.753 89.4919 163.84 89.5745 163.945L89.6062 163.885C89.4933 163.779 89.434 163.717 89.4114 163.644L89.7036 163.875C89.748 163.791 89.4579 163.469 89.7239 163.518C89.4557 163.299 88.8974 163.019 88.7879 162.762C88.9432 162.874 89.2001 163.056 89.2347 163.136C89.217 163.111 89.1344 163.006 89.2064 163.044L89.4197 163.28C89.5643 163.326 89.2234 163.099 89.2784 163.082C89.4874 163.239 89.4464 163.171 89.6194 163.309C89.637 163.333 89.505 163.264 89.582 163.35C89.649 163.34 89.8177 163.398 89.9913 163.505C89.872 163.412 89.7047 163.293 89.7061 163.232C89.7505 163.148 89.9814 163.408 90.1261 163.454C89.9955 163.323 90.1881 163.395 89.8719 163.151C89.8846 163.127 90.0399 163.239 90.1359 163.29C90.0299 163.142 90.2437 163.086 89.8725 162.859L89.8485 162.846C89.8485 162.846 89.8485 162.846 89.8365 162.84C89.6204 162.465 90.2217 162.721 90.1905 162.49L90.2978 162.577C90.2469 162.412 90.3633 162.366 90.1868 162.12C90.1995 162.096 90.4148 162.24 90.5277 162.346C90.5002 162.224 90.3872 162.118 90.6166 162.178C90.7514 162.387 90.7839 162.297 90.6978 162.344C90.8495 162.347 91.0104 162.478 90.7993 162.152C91.0365 162.4 91.1642 162.391 91.124 162.293L90.896 162.172C90.896 162.172 90.9404 162.088 90.9891 162.083L91.3096 162.406C91.8446 162.643 90.8562 161.522 91.6213 162.049C91.4328 161.796 91.3863 161.971 91.1561 161.68C91.2598 161.658 91.7914 162.047 91.8041 162.023C92.0631 162.114 91.4094 161.492 91.6274 161.515C91.4961 161.415 91.1869 161.128 91.1424 160.951C91.2461 160.929 91.6979 161.352 91.7495 161.487C91.7368 161.511 91.7071 161.48 91.6655 161.443C91.6944 161.504 91.7171 161.578 91.8603 161.684L91.7537 161.566C91.9097 161.649 91.9725 161.559 92.1377 161.769C92.0805 161.616 91.9725 161.559 91.8758 161.539C92.1228 161.623 91.9999 161.42 92.1933 161.461C92.1093 161.416 91.9787 161.286 91.985 161.274C92.2454 161.304 91.8212 161.003 91.8607 160.87C92.0823 161.003 92.2454 161.304 92.1896 161.09C92.3456 161.173 92.4924 161.389 92.5687 161.506C92.4296 161.217 92.8474 161.53 92.9265 161.526L92.978 161.661C92.978 161.661 92.9681 161.564 92.9928 161.546L92.7549 161.328C92.7549 161.328 92.8339 161.324 92.9349 161.423C92.8113 161.25 92.5487 161.05 92.4089 160.792C92.5465 160.88 92.3897 160.567 92.6862 160.877C92.4922 160.867 92.9828 161.187 92.9497 161.308C92.9327 161.253 92.9574 161.235 93.0054 161.261C93.0414 161.28 93.0583 161.335 93.076 161.36C93.4176 161.556 92.7935 160.965 92.8986 160.882C93.0462 161.067 93.2192 161.205 93.2022 161.15C93.1592 161.173 92.9233 160.864 92.8301 160.692C93.0101 160.787 92.8096 160.528 92.8646 160.511L92.7806 160.466C92.6267 160.293 92.6817 160.276 92.6838 160.185C92.8081 160.327 92.7234 160.313 92.801 160.37C92.5786 160.006 93.1963 160.609 93.0875 160.322C93.2188 160.422 93.3833 160.662 93.485 160.731C93.3585 160.419 93.7722 160.914 93.6994 160.645C93.4679 160.415 93.5088 160.483 93.376 160.182L93.3874 160.48L93.1727 160.044C93.1727 160.044 93.2159 160.282 93.1559 160.25C93.0217 160.01 93.081 160.073 92.8848 159.892C93.2476 160.222 92.819 159.581 93.0999 159.775L93.6019 160.394C93.9252 160.596 93.5213 159.937 93.781 159.997L93.649 159.928C93.4731 159.65 93.7061 159.82 93.6665 159.691C93.8317 159.901 93.9094 159.958 94.028 160.082C93.91 159.927 94.1324 160.03 93.8146 159.585L94.0885 159.822C94.2819 159.863 93.7523 159.122 93.9104 159.114C94.0502 159.372 94.2175 159.491 94.2733 159.705C94.3164 159.682 94.3707 159.695 94.2648 159.547C94.3834 159.671 94.1517 159.18 94.3296 159.366C94.2774 159.262 94.1128 159.021 94.1735 159.023C94.2152 159.06 94.2561 159.128 94.2561 159.128C94.1735 159.023 94.2179 158.939 94.0104 158.721C94.5978 159.324 94.2897 158.455 94.8001 158.97C94.8332 158.85 94.879 158.705 94.9411 158.646C94.982 158.713 95.0173 158.763 94.9813 158.744C95.215 158.882 94.6204 158.061 94.8901 158.219C95.1802 158.542 94.9636 158.458 95.0885 158.57C95.6004 159.286 95.123 158.389 95.5705 158.733L95.5691 158.793C95.8564 158.976 95.6148 158.388 95.7976 158.361C95.7976 158.361 95.8385 158.429 95.8865 158.455C95.6831 158.055 95.7303 157.85 95.7401 157.686C95.9893 157.941 95.8396 157.846 96.1502 158.072C96.17 158.006 95.673 157.697 95.6821 157.563C95.8741 157.665 96.1035 157.725 96.4621 157.976L96.357 158.058C96.8546 158.337 96.5171 157.959 96.6505 157.968L96.8418 158.1C97.0033 157.94 96.464 157.624 96.6905 157.544L96.5105 157.449C96.0079 157.122 96.9142 157.585 96.5803 157.317L97.236 157.587C97.1717 157.476 96.8625 157.19 96.8406 157.086C97.2972 157.297 97.3961 157.487 97.562 157.667C97.6481 157.62 97.8025 157.502 97.4962 157.356C97.5379 157.393 97.6635 157.475 97.5245 157.448C97.0932 157.189 96.9083 157.045 97.043 156.993C98.4594 157.451 97.755 156.925 99.0915 157.155C98.9729 157.031 99.0894 156.985 99.3031 156.929C99.3179 156.814 99.43 156.689 99.2098 156.496C98.0871 156.471 99.1025 156.409 97.8782 156.314C97.7582 156.251 97.7462 156.244 97.8252 156.24C98.0143 156.202 98.1914 156.157 98.3748 156.101C98.6669 156.071 98.6889 156.175 98.9499 156.175C98.8927 156.022 99.3881 156.13 99.5849 156.019C99.1961 156.028 98.9428 155.956 99.0119 155.854C98.8771 155.906 98.7487 155.945 98.6083 155.979C97.8236 155.779 99.3597 155.777 98.5813 155.565L98.9807 155.623C98.6674 155.519 98.5423 155.145 97.6793 155.18C97.7774 155.14 98.0159 155.067 98.1302 155.112C97.9557 154.774 96.8514 154.742 97.0961 154.396L97.3162 154.328C97.2076 154.301 96.8774 154.403 97.0142 154.26C97.0939 154.226 97.2223 154.186 97.2047 154.162C97.1136 154.16 96.7665 154.206 96.8179 154.08L97.0621 154.025C97.059 153.624 96.2152 153.884 96.0092 153.867C96.4733 153.483 96.5212 153.247 96.5543 153.127L96.6283 153.074C96.5422 152.859 96.0088 153.084 95.6934 153.071C96.1299 152.565 95.6381 152.566 95.7988 152.175C95.736 152.264 95.4221 152.451 95.3551 152.462C95.4185 152.342 94.9452 152.598 95.3896 152.281C95.798 151.944 95.6096 151.952 95.587 151.878L95.0008 152.29C95.7166 151.517 94.3741 152.081 95.0688 151.435C94.8974 151.498 94.8621 151.449 94.6906 151.512L95.0052 151.294C95.003 151.124 95.0108 151.052 94.8428 150.963L95.0946 150.835C95.0664 150.743 94.1112 151.359 94.0456 151.309L94.5027 150.967C94.4024 150.837 94.7275 150.426 94.2082 150.566C94.276 150.525 94.4177 150.431 94.4537 150.45C94.4191 150.37 94.6222 149.986 93.9683 150.439C94.3936 150.157 93.9174 150.274 93.6796 150.317L94.0119 150.124C93.5702 150.321 93.4531 150.397 93.2838 150.369C93.3092 150.321 93.5307 150.192 93.4622 150.263C93.5878 150.084 93.1314 150.396 93.2329 150.204L93.4537 150.105C93.4374 150.02 93.3267 150.084 93.0628 150.206C92.9041 150.245 93.055 150.017 93.3386 149.829C93.1481 149.928 92.8906 150.038 92.9413 149.942C93.0401 149.871 93.1318 149.843 93.1685 149.832C93.3081 149.568 92.6816 149.881 92.9433 149.59C93.054 149.526 93.1034 149.49 93.1344 149.461C93.1867 149.565 93.215 149.657 93.1846 149.656C93.4802 149.474 93.4886 149.371 93.9303 149.175C93.6614 149.248 93.1168 149.436 93.2056 149.268C93.2303 149.25 93.255 149.233 93.3044 149.197L93.3411 149.186C93.3411 149.186 93.3298 149.149 93.2627 149.16C93.2945 149.1 93.3135 149.064 93.3198 149.052C93.5604 148.887 93.4087 148.884 93.3853 148.841C93.0531 149.034 93.0792 148.955 92.8316 149.162C92.8443 149.138 92.8746 149.139 92.9043 149.17C92.9043 149.17 92.9283 149.183 92.953 149.165L92.9403 149.189C92.9403 149.189 92.9819 149.226 93.0052 149.269C92.8154 149.338 92.6623 149.395 92.8119 149.229C92.591 149.327 92.3519 149.431 92.2475 149.483C92.6799 149.159 92.8618 148.902 93.139 148.726C92.8843 148.714 92.8524 148.513 92.1843 148.789C92.087 148.799 92.3395 148.641 92.4319 148.582C92.5053 148.56 92.5166 148.596 92.6027 148.55C92.4079 148.57 92.4184 148.376 91.9761 148.602C92.1263 148.405 92.405 148.43 92.2674 148.342L92.4085 148.278C92.9812 147.66 91.0679 148.491 91.8317 147.743C91.788 147.797 91.7633 147.814 91.6956 147.855C91.9381 147.339 90.9834 147.402 91.4714 146.769C91.5539 146.613 91.2653 146.753 91.0212 146.808L91.3838 146.616L90.9076 146.732C90.5308 146.748 91.6997 146.076 91.0414 146.189L90.8015 146.323C90.8156 146.238 90.5616 146.196 90.8557 146.075C90.8007 146.092 90.5862 146.179 90.7097 146.09L90.9002 145.991L90.4994 145.994C90.5945 145.814 91.2782 145.654 91.2457 145.483C91.137 145.456 90.5881 145.565 90.471 145.642C90.4703 145.672 90.3772 145.761 90.1747 145.853L90.0413 145.844C89.465 146.092 88.8469 146.303 88.5176 146.635L88.9134 146.584L88.6489 146.735L88.5959 146.661C88.3554 146.826 88.6058 146.759 88.7829 146.714C88.6355 146.79 88.5431 146.848 88.4993 146.902L89.0977 146.758C88.8825 146.874 88.6327 146.911 88.5326 147.042C88.8134 146.976 89.0186 146.762 89.219 146.761C88.9785 146.925 88.764 147.011 89.0138 146.974C88.8663 147.05 88.7746 147.078 88.6956 147.083C88.8967 147.051 88.8269 147.183 89.1514 147.063C88.8615 147.262 89.3124 147.194 88.7783 147.449C88.9131 147.397 89.2482 147.344 89.2962 147.37C88.6112 147.591 89.3464 147.565 88.6473 147.871C89.2533 147.654 89.0213 147.976 89.3868 147.924C89.3318 147.941 89.2401 147.969 89.2648 147.952C89.2507 148.036 89.0842 148.148 88.9911 148.237C89.4638 148.011 89.6268 148.051 89.9506 147.961C89.5309 148.261 89.3686 148.191 88.9439 148.442C89.3249 148.244 89.3948 148.374 89.7024 148.198C89.4428 148.399 89.5902 148.323 89.2086 148.551C89.8104 148.256 89.33 148.554 89.7279 148.412C89.4796 148.649 89.1805 148.721 89.4112 148.72C89.2504 148.85 89.0006 148.887 89.0006 148.887L88.899 148.818ZM91.1147 150.435C91.1147 150.435 91.0787 150.416 91.0667 150.409C91.0667 150.409 91.0907 150.422 91.1147 150.435ZM91.2199 150.613C91.2199 150.613 91.203 150.558 91.1853 150.533C91.3024 150.457 91.4132 150.393 91.4188 150.411C91.3391 150.446 91.2947 150.53 91.2199 150.613ZM93.2689 148.887C93.2689 148.887 93.2739 148.935 93.2182 148.983C93.2062 148.976 93.1822 148.964 93.1582 148.951L93.1152 148.974C93.1152 148.974 93.2443 148.904 93.2873 148.881L93.2689 148.887Z" fill="#004AAD"/>
<path d="M92.8214 149.095L92.7911 149.095C92.7784 149.119 92.7417 149.13 92.729 149.154L92.8334 149.102L92.8214 149.095Z" fill="#004AAD"/>
<path d="M92.2005 153.404L92.2746 153.351L92.1948 153.386L92.2005 153.404Z" fill="#004AAD"/>
<path d="M87.7801 163.273L87.6348 163.257C87.7195 163.272 87.7618 163.279 87.7801 163.273Z" fill="#004AAD"/>
<path d="M87.4111 163.477C87.4111 163.477 87.5128 163.546 87.5424 163.577L87.4111 163.477Z" fill="#004AAD"/>
<path d="M91.1478 158.559C91.1478 158.559 91.1478 158.559 91.1542 158.547C91.1315 158.474 91.1309 158.504 91.1478 158.559Z" fill="#004AAD"/>
<path d="M90.437 160.456C90.437 160.456 90.3671 160.326 90.3558 160.29C90.3071 160.295 90.2887 160.3 90.437 160.456Z" fill="#004AAD"/>
<path d="M92.5032 156.896L92.5222 156.891L92.5032 156.896Z" fill="#004AAD"/>
<path d="M90.4061 160.224C90.3341 160.186 90.3271 160.228 90.3441 160.283C90.3744 160.284 90.4351 160.285 90.4061 160.224Z" fill="#004AAD"/>
<path d="M86.3909 164.826L86.3789 164.82C86.3789 164.82 86.4022 164.863 86.4262 164.875L86.4029 164.832L86.3909 164.826Z" fill="#004AAD"/>
<path d="M86.4268 164.875L86.4501 164.918C86.4501 164.918 86.4564 164.906 86.4268 164.875Z" fill="#004AAD"/>
<path d="M86.5215 164.987L86.4565 164.907C86.4565 164.907 86.4318 164.924 86.5215 164.987Z" fill="#004AAD"/>
<path d="M86.846 164.314C86.846 164.314 86.544 164.247 86.5906 164.333L86.6866 164.384C86.5193 164.264 87.0246 164.47 86.846 164.314Z" fill="#004AAD"/>
<path d="M88.6285 164.689L88.4697 164.728C88.6017 164.797 88.7944 164.869 88.7867 164.941C89.2334 165.055 88.4987 164.789 88.6285 164.689Z" fill="#004AAD"/>
<path d="M89.0094 164.491C89.0377 164.583 89.1887 164.617 89.2607 164.655C89.1661 164.543 89.1485 164.518 89.0094 164.491Z" fill="#004AAD"/>
<path d="M90.624 162.366L90.8859 162.597C90.8859 162.597 90.7786 162.51 90.624 162.366Z" fill="#004AAD"/>
<path d="M89.6339 160.783L89.4482 160.67L89.6615 160.905L89.6339 160.783Z" fill="#004AAD"/>
<path d="M91.6593 162.238L91.6826 162.281L91.6494 162.141L91.6593 162.238Z" fill="#004AAD"/>
<path d="M94.8839 159.306L94.6367 158.96C94.6367 158.96 94.9171 159.446 94.8839 159.306Z" fill="#004AAD"/>
<path d="M96.8521 157.645C97.1048 157.748 97.3469 157.784 97.1619 157.64C97.0645 157.65 96.8168 157.595 96.8521 157.645Z" fill="#004AAD"/>
<path d="M95.3023 151.835L95.4371 151.784L95.291 151.799L95.3023 151.835Z" fill="#004AAD"/>
</g>
<defs>
<clipPath id="clip0_62_1333">
<rect width="104.634" height="134.794" fill="white" transform="translate(63.418 0.751953) rotate(27.8696)"/>
</clipPath>
</defs>
</svg>
