<svg width="90" height="90" viewBox="0 0 90 90" fill="none" xmlns="http://www.w3.org/2000/svg">
<g clip-path="url(#clip0_112_420)">
<path d="M59.8443 43.2405L41.1561 29.6556C40.4702 29.1584 39.5598 29.0836 38.8081 29.4699C38.0503 29.8532 37.5771 30.6319 37.5771 31.4735V58.6343C37.5771 59.4849 38.0503 60.2606 38.8081 60.6439C39.1285 60.8056 39.4789 60.8865 39.8323 60.8865C40.2935 60.8865 40.7607 60.7397 41.1561 60.4492L59.8443 46.8763C60.4343 46.442 60.7787 45.7712 60.7787 45.0584C60.7817 44.3336 60.4283 43.6658 59.8443 43.2405Z" fill="#006D2C"/>
<path d="M45.0015 0.00598907C20.1438 0.00598907 0 20.1497 0 45.0075C0 69.8562 20.1438 89.994 45.0015 89.994C69.8532 89.994 90 69.8532 90 45.0075C90.003 20.1497 69.8532 0.00598907 45.0015 0.00598907ZM45.0015 82.4858C24.3007 82.4858 7.51722 65.7113 7.51722 45.0075C7.51722 24.3127 24.3007 7.51722 45.0015 7.51722C65.6993 7.51722 82.4798 24.3097 82.4798 45.0075C82.4828 65.7113 65.6993 82.4858 45.0015 82.4858Z" fill="#006D2C"/>
</g>
<defs>
<clipPath id="clip0_112_420">
<rect width="90" height="90" fill="white"/>
</clipPath>
</defs>
</svg>
