<svg width="174" height="70" viewBox="0 0 174 70" fill="none" xmlns="http://www.w3.org/2000/svg">
<g clip-path="url(#clip0_62_3014)">
<path d="M0.17837 56.4537C0.327012 56.6569 0.594567 56.5214 0.505382 55.878L0 55.4377L0.17837 56.4537Z" fill="#006D2C"/>
<path d="M1.04104 52.0514C0.832939 51.2725 0.535655 50.3581 0.0302734 50.7984C0.416742 51.6111 0.208643 51.7805 0.743754 52.6271C0.773482 53.2705 0.535655 53.7447 0.357285 53.6431C0.44647 53.8801 0.2681 54.659 0.595112 54.9977C0.922124 54.1172 0.98158 53.1012 0.714025 51.9836C0.832939 51.7466 0.951852 51.9836 1.04104 52.0514Z" fill="#006D2C"/>
<path d="M72.9534 7.07788C72.7156 7.14561 72.5967 7.21334 72.5967 7.28107C72.8345 7.21334 73.0129 7.14561 72.9534 7.07788Z" fill="#006D2C"/>
<path d="M78.7206 6.70532C78.7206 6.70532 78.4827 6.70532 78.3936 6.70532C78.5422 6.70532 78.6611 6.73677 78.7206 6.70532Z" fill="#006D2C"/>
<path d="M39.7764 14.5283L40.6979 14.4605C40.6979 14.2574 40.2223 14.4605 39.7764 14.5283Z" fill="#006D2C"/>
<path d="M1.57626 43.2124C1.5166 43.4495 1.5166 43.6188 1.5166 43.822L1.63593 43.2801L1.57626 43.2124Z" fill="#006D2C"/>
<path d="M25.8636 20.2178L25.6257 20.3532C25.6257 20.3532 25.5366 20.5564 25.5068 20.658L25.8933 20.2178H25.8636Z" fill="#006D2C"/>
<path d="M16.1123 26.4829C16.3204 26.3135 16.142 25.8733 16.1123 25.6362C16.1123 25.9072 15.9934 26.1103 15.8447 26.2797C15.8745 26.3474 15.9636 26.4151 16.1123 26.4829Z" fill="#006D2C"/>
<path d="M4.16274 41.2144L4.07324 41.5869C4.07324 41.5869 4.1329 41.3498 4.16274 41.2144Z" fill="#006D2C"/>
<path d="M33.4736 17.136C33.4736 17.136 33.5631 17.2376 33.6228 17.2714C33.6228 17.2037 33.5631 17.1699 33.4736 17.136Z" fill="#006D2C"/>
<path d="M20.9588 48.2196C20.9588 48.2196 20.9886 48.1882 21.0184 48.1567C20.9289 48.1567 20.8991 48.1567 20.9588 48.2196Z" fill="#006D2C"/>
<path d="M15.1318 34.0688L15.221 34.2381C15.221 34.2381 15.3697 34.2381 15.4588 34.1704L15.1318 34.0349V34.0688Z" fill="#006D2C"/>
<path d="M89.2143 5.85864C89.2143 5.85864 89.2143 5.85864 89.1549 5.85864C88.8873 5.95298 89.0359 5.92154 89.2143 5.85864Z" fill="#006D2C"/>
<path d="M170.403 37.4215C170.73 36.2023 170.909 39.318 171.295 37.5231C171.176 37.6924 170.522 35.9653 170.403 37.4215Z" fill="#006D2C"/>
<path d="M1.72461 42.8736L1.90298 42.3318C1.81379 42.5688 1.75434 42.7382 1.72461 42.8736Z" fill="#006D2C"/>
<path d="M171.295 37.523L171.324 37.3198C171.324 37.3876 171.324 37.4553 171.295 37.523Z" fill="#006D2C"/>
<path d="M113.354 4.36872C113.354 4.36872 113.205 4.23326 113.116 4.16553C113.116 4.19939 113.176 4.26712 113.354 4.36872Z" fill="#006D2C"/>
<path d="M122.719 4.19922C122.957 4.26695 123.046 4.33468 123.373 4.30082C123.373 4.30082 123.313 4.26695 123.284 4.23308C123.165 4.30082 122.986 4.30082 122.719 4.23308V4.19922Z" fill="#006D2C"/>
<path d="M132.41 5.41842L132.232 5.28296C132.232 5.28296 132.024 5.28296 131.935 5.28296L132.41 5.45229V5.41842Z" fill="#006D2C"/>
<path d="M48.0406 64.1751C47.8622 63.972 47.773 63.8026 47.6838 63.6333C47.7433 64.0058 46.3163 63.6333 48.0406 64.1751Z" fill="#006D2C"/>
<path d="M1.81419 43.2802C1.81419 43.2802 1.7247 43.0431 1.75453 42.8738L1.66504 43.2463C1.66504 43.2463 1.75453 43.3479 1.81419 43.2463V43.2802Z" fill="#006D2C"/>
<path d="M123.373 0.508057L124.949 0.71125C124.503 0.643519 123.938 0.541922 123.373 0.508057Z" fill="#006D2C"/>
<path d="M118.675 69.2212L118.318 69.3228C118.318 69.3228 118.586 69.3228 118.675 69.2212Z" fill="#006D2C"/>
<path d="M129.615 1.21924C129.883 1.42243 130.15 1.55789 130.477 1.65949C130.537 1.65949 130.626 1.62562 130.685 1.55789L129.645 1.21924H129.615Z" fill="#006D2C"/>
<path d="M37.3983 60.8225C38.8253 61.4659 38.2604 60.5516 38.6766 60.3484C40.4306 60.9241 39.3009 61.1273 39.7766 61.6691C40.8765 62.0078 41.8873 61.7369 42.69 62.0755C42.7197 62.211 42.8683 62.2787 42.6602 62.3464C43.9088 62.3464 46.0493 63.5317 47.5357 63.3624C47.6249 63.464 47.6546 63.5317 47.6843 63.5656C47.5357 63.1931 47.5952 62.8883 47.6843 62.6851C48.3384 62.8883 48.9627 62.6851 49.141 63.1253C48.7546 62.9899 48.6654 63.1253 48.4573 63.2269H49.1707C49.6464 63.972 48.1897 63.1931 48.1005 63.5995C49.4978 63.8027 51.1328 63.7688 52.1139 64.209C52.203 64.8525 49.6761 63.7349 50.9544 64.6154L49.4086 63.972C50.4193 65.1911 48.4573 63.6333 49.3788 64.8863C51.4598 65.6314 51.7868 65.2589 53.8678 65.9362C54.4029 65.733 53.8084 65.4282 54.3138 65.225C57.3758 65.3605 56.4542 67.1553 58.773 66.8505C59.3973 66.5796 59.7243 65.9023 61.2405 66.5458L60.6162 67.0876C62.6674 67.494 61.8945 66.3764 64.0052 67.1215C63.589 67.3247 62.3701 67.1215 62.6674 67.2231C64.0052 67.9342 63.7079 66.986 64.7781 67.1553L64.9268 67.7649C67.1267 68.002 69.5644 67.9004 72.0021 68.0697C71.8535 68.239 71.4076 68.3406 72.0021 68.6115C75.0939 68.6793 78.5424 69.3566 81.4855 69.8984L82.6449 69.4921C82.9124 69.4921 83.1205 69.763 82.8232 69.8307C83.9826 70.1016 82.9124 69.5259 83.4773 69.3566C84.1313 69.3566 84.3394 69.6953 83.8935 69.8307C85.9447 69.5259 89.7202 69.2211 91.8606 69.8307L91.4445 69.9662C93.1092 70.2032 93.3471 69.0179 94.8929 69.4921L94.5957 69.5937C98.2225 69.8646 102.236 69.3566 105.03 70.0339C105.536 69.2889 108.627 70.2032 108.836 69.2211C110.917 69.6275 110.352 69.8307 113.265 70C114.038 70 114.395 69.3227 115.346 69.1534L115.406 69.6614L116.684 69.0179L117.427 69.5937L118.319 69.3905C117.962 69.3905 117.546 69.2211 117.576 69.0518C118.973 68.7131 121.024 69.1195 121.084 69.3905L124.383 68.6115C124.324 68.8147 123.789 68.9502 123.343 69.1534C125.067 68.4422 123.7 69.6614 125.305 69.0179C125.067 68.9163 125.394 68.7132 125.424 68.5777C126.256 68.7809 128.1 68.5777 129.467 68.239L129.229 68.6454C131.697 68.4084 134.402 67.7649 137.167 67.2908C136.156 67.2908 136.305 66.6474 137.107 66.4442L137.494 66.9183C137.969 66.478 136.632 66.8505 137.642 66.2748C138.683 66.1732 138.415 66.7828 137.85 67.0537L139.069 66.6474C139.069 66.6474 138.891 66.9183 138.831 67.1553C139.307 66.7151 141.061 67.3585 141.715 66.6135L141.804 66.7489C144.569 66.2071 145.758 65.8346 148.017 65.2927C147.988 64.8186 148.88 64.717 149.474 64.1752C151.139 63.9042 153.071 63.7688 155.033 63.0576C156.341 62.3126 155.331 62.5158 155.866 62.0416C156.074 62.448 158.036 61.6014 157.114 62.3126C159.433 61.2627 160.117 60.9579 162.763 58.926C162.376 58.9599 162.02 59.0953 162.138 58.8583C162.614 58.4858 163.357 58.2826 163.357 58.4858L163.238 58.6212C164.636 57.3005 166.419 56.149 168.054 54.6928C169.689 53.2705 171.057 51.5095 171.414 49.7823L171.354 49.9855C171.77 48.868 172.038 47.7504 172.276 46.6328C172.841 45.1766 172.246 47.6488 172.841 46.6328C173.287 42.8399 174.119 40.7741 173.643 37.6585C174.149 36.4393 173.941 34.2719 173.406 32.1384C172.9 29.971 172.038 27.9052 171.77 26.2797L171.592 26.5845C171.087 25.941 171.354 25.6024 171.146 25.0266C170.997 25.196 171.295 25.941 170.968 25.5685C169.452 22.5545 167.727 19.5743 165.557 16.8989C163.417 14.2574 160.949 11.9207 158.304 10.0581C156.341 8.7712 156.579 10.7015 154.32 8.70347L155.241 8.56801C150.931 6.97633 146.65 4.80894 142.31 4.26709C142.577 4.19936 142.637 4.03003 143.023 4.16549C142.22 3.52205 139.723 3.31886 139.664 3.65751C139.01 3.45432 139.575 3.31886 139.188 3.0818C138.326 2.64155 136.869 3.11566 136.453 2.64155C136.394 2.57381 136.721 2.53995 136.899 2.53995C136.275 2.64155 134.164 1.9981 134.669 2.57381C133.094 2.0997 131.607 2.20129 130.359 1.79491C129.467 2.20129 127.654 1.18533 127.327 1.8965C127.505 1.1176 124.592 0.94827 123.551 1.25306C123.908 1.04987 122.689 0.94827 123.105 0.643481C121.946 0.541884 120.876 0.609615 121.054 1.016C118.973 -0.0676949 116.743 1.52398 115.584 0.27096C112.106 0.57575 108.954 0.812808 105.892 1.08373C105.982 0.304826 109.311 0.914405 109.163 0.135498C106.219 0.508019 104.555 1.18533 101.671 1.1176C100.928 1.04987 102.087 0.778943 102.325 0.609615C99.4116 1.08373 96.6766 0.846674 94.12 1.52398C94.12 1.45625 94.3876 1.35466 94.6551 1.25306C94.1497 1.32079 93.466 1.25306 93.5552 1.59171L94.0605 1.45625C94.8929 1.8965 92.0985 2.67541 92.039 2.94634C92.812 1.86264 89.4824 2.94634 90.731 1.55785C90.404 1.65945 89.9878 1.86264 90.077 2.0997C89.5716 2.0997 89.3932 1.96424 89.8986 1.65945C88.0852 2.06583 88.7689 2.33676 87.1338 2.53995C87.1338 2.37062 87.4609 2.26903 87.6095 2.06583C86.8068 2.50608 86.0042 2.8786 84.5772 2.94634C84.6367 2.84474 84.488 2.70928 84.9042 2.67541C82.5259 3.0818 80.9206 4.0639 78.2748 4.23322C78.9585 3.38659 77.3532 4.13163 77.1451 3.55591L75.7776 3.9623L76.3722 4.16549C75.1533 4.36869 74.1128 4.97827 73.0426 4.97827L73.9047 4.53801L71.6156 5.07986H72.9534C71.7643 5.62171 73.1912 5.8249 71.5562 5.96037C71.8832 5.8249 70.3373 6.19742 69.6536 5.96037C69.0887 6.26516 68.4942 6.60381 67.5726 6.63768C67.305 6.50221 67.6618 5.9265 67.4834 5.8249C66.978 6.46835 64.6592 6.56995 63.9755 7.28112C64.2133 7.11179 64.1538 6.77314 64.0646 6.70541L63.6484 7.24726C63.0539 7.24726 62.9647 7.17952 63.0242 6.9086C61.3296 7.21339 63.7079 7.58591 61.6269 7.68751C61.7756 7.61978 61.6864 7.58591 62.0134 7.45045C59.9621 7.72137 58.1487 8.56801 56.2758 8.80507C55.6218 8.29708 57.8812 8.26322 57.1379 7.8907C54.4921 8.63574 51.7274 9.9565 49.141 10.4645L49.6464 10.3967C49.468 11.3788 47.6546 10.4645 46.406 11.2095C46.7033 11.0741 46.733 10.6338 46.6736 10.7354C44.8899 11.0402 43.1062 11.8868 40.4901 12.9028L40.7576 12.598C39.6874 12.6996 37.9929 13.2753 36.8632 13.5124C36.5957 13.851 35.9416 13.9865 36.4173 14.1897C32.6418 14.0204 30.1149 17.1021 26.8448 17.4069C27.2015 17.2376 27.6177 16.8312 27.3501 16.9667C26.5178 17.4069 25.7151 17.881 24.9124 18.3213C25.2394 18.5922 25.3286 18.389 25.9529 18.4229C25.7151 18.7954 25.0908 19.2695 24.4665 19.6082C25.4773 18.7954 24.2287 19.0325 23.6638 19.1002C23.7827 19.1679 23.6638 19.3711 23.753 19.4727C22.2071 19.5404 23.8125 20.2855 21.9396 20.8273V20.5903C21.345 21.0305 20.8694 21.6401 20.1856 22.0126C19.71 21.8094 20.7802 21.403 20.6613 21.0644C19.71 21.674 19.1451 22.9947 18.1046 23.1979C18.4316 22.8254 18.9965 22.419 19.3532 22.0465C18.1938 22.2158 18.1344 22.419 17.4209 22.8254H17.4803C16.9155 23.0963 16.3507 23.435 15.7858 23.7398L16.2615 23.5704C15.6966 25.3992 14.0616 25.5685 13.0508 27.5327C14.0318 25.6701 13.0508 26.9908 12.8724 26.4829C12.4265 26.7199 11.7725 27.1263 11.8319 26.8554C11.4158 27.8375 10.5239 27.7359 9.98879 29.1921C9.84015 29.1244 9.30504 29.9371 9.18613 29.4969C8.44292 30.5467 9.57259 29.4969 9.63205 29.7001C8.76993 31.495 6.33221 32.7818 5.44035 35.6604C4.45932 37.9294 4.69715 38.6067 3.98367 40.7402C3.44856 41.316 3.77557 39.9275 3.77557 39.9275C3.06209 40.9096 2.79453 41.8239 2.52698 42.9754C2.46752 42.7044 2.31888 42.8738 2.05132 43.1447C1.78377 44.0591 2.34861 43.9575 1.78377 45.0412C1.69458 44.7702 1.51621 44.4316 1.51621 43.9236C1.27839 45.0412 1.30811 46.2265 1.15947 47.3779C0.832461 47.6149 0.921646 46.599 0.891918 46.1249C0.654091 47.4456 0.445993 49.5453 0.802733 50.0194C0.891918 49.7485 0.951375 49.4775 1.04056 49.2066C0.981103 49.6807 0.654091 49.3759 0.654091 49.0034C0.535178 47.8181 1.07029 47.4456 1.21893 47.4117L1.15947 48.2584C2.11078 47.6488 1.69458 45.0412 2.28915 43.4495L2.67562 44.33C2.67562 43.7543 2.67562 43.1447 2.70535 42.5351C2.9729 42.2642 3.3891 42.1965 3.181 42.9754C3.86475 42.061 3.35937 41.9255 4.01339 41.1805C4.10258 41.1128 4.10258 41.1805 4.10258 41.2821C4.16204 40.9096 4.28095 40.537 4.39986 40.1645C4.39986 40.4355 4.87552 40.2323 4.48905 40.7741C5.589 39.1824 5.49981 37.6585 6.24302 37.286L6.18356 37.4553C7.3727 34.9831 5.91601 36.9473 6.5403 34.8476C7.07541 34.6783 7.64025 34.5767 8.20509 34.4751L7.99699 33.9333C8.17536 33.7301 8.50238 33.2898 8.59156 33.493C8.9483 32.4432 8.324 33.493 8.47265 32.7818C9.57259 32.0029 10.6428 29.7678 11.3563 30.1403C11.4158 29.4969 10.3455 30.8854 11.0887 29.6324C11.8914 29.971 12.0995 28.3116 13.1995 27.8036C13.1995 28.3793 12.2779 29.0228 13.3481 28.4809C13.4373 27.3972 15.1021 27.0247 15.7858 26.3135C15.4885 25.7717 17.302 24.7219 18.5803 23.6382C18.5803 23.8752 21.2856 22.1819 22.7125 21.674V21.7756C22.7125 21.0644 24.1395 20.4209 25.1205 19.7775C25.2097 20.15 25.0908 20.3532 24.5854 20.7935L25.5367 20.3193C25.6854 20.0146 25.9529 19.7775 26.5475 19.405L26.4583 19.9468C27.7069 19.3034 28.8663 18.2535 30.65 17.881C30.65 17.4408 28.9555 17.2714 30.65 16.2893C30.7986 16.4925 30.977 16.8312 30.5311 17.1021C30.6797 17.0005 31.0365 16.6957 31.3635 16.6957L30.7392 17.3392C31.5716 17.2037 31.0662 16.8651 31.6905 16.6619C31.7797 17.0005 32.2256 16.7296 32.1959 17.0005C32.0472 17.1021 31.631 17.0683 31.4229 17.2714C32.1364 17.0683 33.0283 16.9328 33.385 17.0683C33.2661 16.8989 33.2661 16.628 33.7715 16.4248C35.1092 15.9507 34.3363 16.6619 35.139 16.5603C35.4065 16.2216 36.3281 16.1877 36.2092 15.6798C36.5957 15.5443 36.7443 15.7475 36.9227 15.8491C37.5767 15.4088 40.1631 14.7993 39.2712 14.5283H39.0928L39.2118 14.4945C41.4117 13.343 44.0575 13.4108 46.3168 12.6319V12.8012C47.6843 12.2593 49.3788 11.9207 50.3004 11.3111C50.7166 11.2095 51.3112 11.3788 51.1923 11.6159C52.2328 11.2095 52.2922 11.0063 53.8678 10.9386C52.8571 11.4804 54.284 11.1079 52.8273 11.4127C54.2246 11.2095 54.5813 11.4127 55.9785 10.5999C55.5623 11.1418 57.1082 10.8709 57.7325 10.5999L56.7217 10.5322C57.4352 10.2951 58.0893 10.1936 58.7433 10.0581L58.4757 10.7015C61.3891 10.7354 63.3214 8.39868 65.67 9.10986C66.3537 8.56801 64.0944 9.14372 64.6889 8.56801C65.997 8.36482 67.4537 8.90666 67.8699 8.80507C69.6833 8.73734 69.386 7.65364 71.2886 7.51818C71.0211 7.34885 70.7238 6.87473 72.0913 6.43448C73.3993 6.26515 73.8155 6.97633 73.0129 7.28112C72.7156 7.34885 72.5372 7.31499 72.5372 7.28112C72.121 7.41658 71.5859 7.61978 72.121 7.75524L72.2697 7.51818C72.9534 7.58591 74.7074 7.24726 74.3507 7.65364C75.302 7.28112 74.7371 7.24726 73.9939 7.28112C75.6884 7.28112 76.61 6.84087 78.3343 6.73927C78.037 6.67154 77.7694 6.46835 78.037 6.43448C80.5936 6.26515 79.1072 5.85877 80.8017 5.52011C81.8125 5.68944 80.5341 6.29902 82.2287 5.79104C83.2989 5.85877 82.4962 6.29902 82.1098 6.50221C83.6259 5.89263 85.0529 6.33289 85.9447 6.29902L85.142 6.56994C85.6177 6.40062 86.0339 6.33289 86.4501 6.29902L85.9447 5.96037C86.4501 5.96037 86.8366 5.9265 86.8663 6.09583C87.3419 5.79104 86.4204 5.48625 87.3717 5.01213C88.0257 5.14759 89.3337 4.57188 89.6013 5.07986C87.55 5.14759 89.8689 5.58785 88.1743 5.85877C88.5013 5.75717 88.9175 5.72331 89.3932 5.72331C89.4824 5.79104 89.3337 5.8249 89.2148 5.89263C91.2066 6.12969 90.0472 5.18146 92.0687 4.97827C91.8309 5.31692 92.5741 5.52011 92.9011 5.41852C92.0985 5.48625 92.4849 4.9444 93.1984 4.67348C94.5065 4.80894 94.5957 4.36869 95.2794 4.33482H94.5065C94.7443 3.9623 95.3983 3.9623 96.2902 3.79297C96.3794 4.03003 95.4875 4.03003 95.8145 4.09776C96.7956 3.45432 98.1036 4.47028 99.5008 4.03003C100.155 4.19936 99.59 4.60575 100.155 4.70734C101.701 4.23322 101.879 5.01213 103.514 4.60575C103.039 4.19936 102.949 4.30096 104.109 3.89457C103.217 3.99617 102.295 4.16549 101.403 4.30096L103.128 3.62365C102.295 3.62365 101.403 3.9623 100.898 3.92844C101.73 3.55591 101.641 3.65751 101.225 3.35272C102.384 3.89457 103.455 2.8786 104.763 3.25112V4.26709C106.695 4.67348 108.211 3.62365 110.738 3.92844L109.935 3.75911C110.262 3.35272 111.511 3.72524 112.314 3.55591C112.225 3.89457 112.73 4.03003 113.087 4.23322C113.057 3.9623 114.93 4.26709 115.168 3.65751L116.297 4.16549C118.319 4.47028 118.676 3.28499 120.638 3.55591C120.013 3.8607 120.905 4.16549 119.567 4.33482C120.221 4.33482 120.816 4.50415 120.816 4.26709C121.173 4.50415 122.659 3.9623 123.224 4.33482C123.521 4.19936 123.64 3.8607 124.354 3.9623C124.443 4.03003 124.354 4.13163 124.354 4.13163C124.354 3.9623 125.513 3.99617 124.919 3.58978C126.851 4.8428 130.567 4.19936 132.202 5.38465C133.629 5.52011 135.353 5.72331 136.632 5.9265C136.542 5.99423 136.632 6.09583 136.364 6.0281C138.088 6.67154 137.613 5.28306 139.545 6.06196C140.466 6.84087 138.445 6.09583 139.04 6.46835C139.129 7.58591 141.477 6.87473 142.666 7.85683H142.339C143.261 8.46641 144.896 8.09389 146.501 8.73734C146.501 8.73734 146.412 8.80507 146.442 8.90666C147.69 8.73734 149.861 9.38078 151.436 9.88877C150.812 10.092 150.663 9.78717 150.812 10.329C151.525 10.5661 150.812 9.58398 152.239 10.092C152.596 10.4983 153.517 11.1757 153.458 11.6836C153.042 11.4804 152.625 11.2773 152.209 11.0741C152.655 11.9207 153.815 11.8868 154.439 12.3271L154.26 12.5303C156.133 13.5124 156.46 12.9367 158.363 14.3251L158.274 14.0204C159.641 14.2574 158.987 14.9347 160.236 15.375V16.1539C160.949 16.5264 162.763 17.644 163.922 18.6938C163.03 18.389 161.603 17.3053 160.622 16.8312C161.247 17.373 162.733 18.7277 163.209 18.8293C162.941 18.6261 162.525 18.4567 162.376 18.1181C163.417 18.4567 164.546 19.3034 165.587 20.7257C165.052 21.0305 165.706 21.9449 166.36 23.0963C167.044 24.2139 167.727 25.6024 167.608 26.4151C169.273 28.955 169.689 32.1723 170.225 35.6266C170.938 34.2042 170.373 36.6764 171.235 36.3377C171.354 37.1844 171.384 37.523 171.325 37.5908C171.146 38.4713 171.027 39.3518 170.76 40.1645C170.462 40.7402 170.611 39.3518 170.403 39.4195C170.195 41.1805 169.957 40.1307 169.63 41.2482C169.987 41.045 169.987 41.9255 169.719 42.8738L170.343 41.553C170.403 42.8399 170.135 43.3479 169.779 43.7881C169.452 44.2623 169.184 44.7025 169.006 45.9217V45.075C168.857 46.3619 167.252 49.1389 167.044 50.5951C166.836 50.6967 166.479 50.7306 166.746 50.2565C165.082 52.5593 162.733 55.6411 160.533 56.3522L160.622 56.0136C160.206 56.3861 159.998 56.928 159.314 57.0295C159.314 56.928 159.403 56.6909 159.195 56.7925C158.987 57.0296 158.066 57.8423 157.352 58.0116L157.828 57.4698C155.182 58.3503 153.993 59.7727 151.704 60.6532C151.555 59.942 149.326 60.3145 148.226 60.4161V60.3145C144.985 60.9918 142.756 62.0755 139.694 62.956C137.672 62.5158 133.153 63.7011 130.002 63.6672C130.478 63.7349 130.002 64.2429 129.437 64.4122C128.694 64.3445 127.475 65.1911 127.535 64.48H127.802C127.178 63.8704 125.721 64.2429 124.562 64.3445L124.443 65.2589C121.292 64.3106 116.446 66.5119 114.722 65.4621C114.008 65.733 113.087 65.7668 112.343 66.0378V65.5637C110.322 65.5637 109.281 65.5637 106.755 65.7668L107.26 65.3943C105.833 65.3943 105.506 66.8505 104.168 66.9183L103.752 66.2071C101.255 66.2748 98.7279 65.6653 96.2605 66.2748C96.2902 66.1732 96.3794 65.97 96.7658 65.9362C95.5767 65.9362 92.2471 65.3943 92.6336 66.3764C92.6336 65.733 90.077 66.241 88.7094 66.478L88.9473 66.0039C87.7879 66.5458 87.7581 66.7151 86.1528 66.7828C85.7663 66.7151 85.8258 66.3764 86.3312 66.5458C85.0826 66.241 85.3204 66.9521 83.834 66.6135L84.4286 66.3426C83.1502 66.241 83.2394 66.3764 82.4962 66.6812C81.6638 66.8167 80.0585 66.3764 79.8801 65.9362C79.7018 66.1732 78.9585 66.478 78.2153 66.2748C78.1262 66.1055 78.3937 66.0378 78.5424 66.0039C76.4019 65.4621 75.302 66.241 73.8453 65.6314C73.8453 65.4621 73.7264 65.3943 73.6074 65.3266C75.302 65.4959 76.6992 65.6652 76.5506 65.6652C76.5803 65.225 75.2128 65.0218 76.3425 64.5138C75.2128 64.7509 73.2507 65.2589 71.9427 64.8863C71.8832 64.8525 71.8237 64.7848 71.7643 64.717H71.9129C71.6157 64.6154 71.3184 64.6154 71.0508 64.6493C70.6346 64.5138 70.3671 64.4461 69.9509 64.3784C69.8319 64.0058 68.405 64.0058 67.7212 63.8704C67.7212 64.3445 66.8294 64.1413 67.632 64.6493C67.5131 64.6154 67.7807 64.6154 68.2266 64.6493C68.3455 64.6493 68.4644 64.6493 68.5239 64.6493H68.4644C68.9104 64.717 69.5049 64.7847 70.1887 64.8525C69.6238 65.0218 69.0293 65.1573 68.2861 64.8186C67.8996 65.0895 67.4834 65.3266 67.2456 65.4621C66.3835 64.6832 64.5998 64.0736 64.3917 63.6333C62.2809 63.5995 59.4865 63.0237 58.0595 63.6333C57.465 63.6333 57.4055 63.2608 57.2271 63.0576C57.5839 63.0576 57.9703 63.1253 58.1784 63.0576C56.9596 63.0576 54.7002 62.4142 54.3138 62.956C52.8868 62.3126 55.2353 62.5835 53.2138 62.211L53.5111 62.0755C49.795 60.0774 46.7033 61.9062 42.7494 58.9938C43.017 59.1969 43.1656 59.2647 43.1954 59.4001C38.528 57.0295 33.1174 55.404 29.3122 51.4417C28.2123 50.3919 27.9447 50.5612 27.0529 50.2226V49.613C26.5772 49.4098 26.0421 49.2743 25.5664 49.0373C24.6449 48.3938 24.1395 47.4795 23.5449 46.5312C23.0098 45.5491 22.4747 44.5332 21.2856 43.6865V44.1945C20.691 43.3479 19.2938 41.5869 19.6505 41.5191C19.5613 41.4853 19.2046 41.4514 19.1154 41.0112L19.2938 40.8418C18.7289 40.1984 18.2533 39.4872 17.7182 38.8099C16.975 36.9134 18.5803 38.6067 17.4506 35.9313C16.975 34.9831 15.6669 33.3914 15.6669 33.8317C15.8155 34.2381 15.9642 34.9492 15.7561 35.0847L15.2507 34.2042C14.5372 34.3397 13.5562 33.8317 14.121 36.5409L15.1913 38.031C15.1913 38.2681 15.1318 38.5051 15.1318 38.7422L14.5075 37.3198C14.567 38.3019 15.0129 38.7083 15.4885 39.1147C15.3994 39.3518 15.4291 39.6565 15.5183 39.9952L16.9155 41.1805C16.7966 41.553 16.0831 40.808 16.529 41.9594C17.1831 42.5012 16.6479 40.8757 17.4803 41.9594C17.6884 42.8738 17.3614 42.8399 18.1344 43.4833C18.0749 43.7204 17.8668 43.6188 17.5695 43.3479C18.2533 43.9575 18.9668 45.2782 19.5316 45.3798C19.7991 46.3619 21.4937 47.6149 20.9883 48.0552C21.2558 48.1907 22.3855 48.8002 22.9801 49.3421C21.4342 48.9696 25.0611 51.5095 24.2881 51.9497C25.5664 52.0175 27.4393 54.2526 29.223 54.8622C29.1041 54.8622 28.8663 54.8622 28.7771 54.7267C29.6095 55.404 29.7581 55.7765 30.2338 56.3184C30.6203 55.8443 32.077 56.5216 32.9985 56.6232C33.8309 57.8423 32.0175 56.928 32.1067 57.673C32.2851 57.165 34.2174 58.3503 34.039 57.7069C34.7525 58.5196 34.693 58.2487 34.9309 58.9938C35.3768 58.3164 35.793 59.2985 36.6848 59.1969C37.7848 60.2129 36.7443 60.1113 38.201 60.4838C38.7956 61.0257 37.4281 60.7209 37.4281 60.7209L37.3983 60.8225ZM72.0318 67.9004C71.7346 67.9004 71.467 67.8665 71.3184 67.8665C71.467 67.8665 71.6751 67.8665 72.0318 67.9004ZM74.9452 68.2052C74.5885 68.1713 74.1426 68.1036 73.6669 68.0697C73.5777 67.9004 73.6966 67.731 73.9939 67.7649C73.8155 67.8665 74.4993 68.0358 74.9452 68.2052ZM69.0887 64.2429C69.5644 64.2429 69.6833 64.3445 69.7428 64.4461C69.5347 64.4461 69.2671 64.4461 68.9401 64.4122L68.8806 64.48C68.8806 64.48 68.9996 64.3106 69.0887 64.2768V64.2429Z" fill="#006D2C"/>
<path d="M68.1969 64.7847C68.1969 64.7847 68.078 64.7847 68.0186 64.7847C68.1077 64.8524 68.1969 64.8863 68.2861 64.9201L68.4645 64.7847H68.2267H68.1969Z" fill="#006D2C"/>
<path d="M39.361 14.5937H39.4206C39.4206 14.5937 39.3311 14.5937 39.2715 14.5623C39.3311 14.5623 39.3311 14.5623 39.361 14.5937Z" fill="#006D2C"/>
<path d="M115.406 69.729V69.5935L115.168 69.729H115.406Z" fill="#006D2C"/>
<path d="M17.4206 22.656L16.499 23.1301C16.9152 22.9269 17.1828 22.7576 17.4206 22.656Z" fill="#006D2C"/>
<path d="M12.8428 26.0764C12.8428 26.0764 12.8428 26.2457 12.8716 26.3135L12.8428 26.0764Z" fill="#006D2C"/>
<path d="M94.7441 1.15148H94.9522C95.4279 0.98215 95.1009 1.04988 94.7441 1.15148Z" fill="#006D2C"/>
<path d="M69.6834 5.85885C69.9212 5.72339 70.1888 5.58792 70.4563 5.48633C70.0104 5.52019 69.6536 5.58792 69.6834 5.85885Z" fill="#006D2C"/>
<path d="M123.194 0.474121L123.373 0.505568L123.194 0.474121Z" fill="#006D2C"/>
<path d="M71.6155 5.28296C71.1695 5.28296 70.7831 5.35069 70.4561 5.48615C70.8128 5.45229 71.2587 5.41842 71.6155 5.28296Z" fill="#006D2C"/>
<path d="M0.2081 48.6648L0.148438 48.9696C0.148438 48.9696 0.2081 48.9696 0.2081 49.0035V48.6648Z" fill="#006D2C"/>
<path d="M0.178711 49.0034V49.3421C0.178711 49.3421 0.206491 49.0711 0.178711 49.0034Z" fill="#006D2C"/>
<path d="M0.208176 50.0871V49.342C0.148169 49.5791 0.118165 49.8839 0.208176 50.0871Z" fill="#006D2C"/>
<path d="M2.64613 40.7401L2.55664 40.5708C2.55664 40.5708 2.58647 40.6724 2.64613 40.7401Z" fill="#006D2C"/>
<path d="M3.62718 38.4712C3.35962 38.9792 2.7056 39.6226 2.46777 40.4693L2.55696 40.6047C2.46777 40.0967 3.62718 39.1146 3.62718 38.4712Z" fill="#006D2C"/>
<path d="M10.4346 31.4609C9.98864 31.9012 9.60218 32.4092 9.15625 32.8833C9.48326 32.7478 9.89946 32.5446 9.42381 33.2558C11.2372 31.7319 8.82924 33.3574 10.4346 31.4609Z" fill="#006D2C"/>
<path d="M14.6263 27.4649C13.9426 28.2099 14.775 27.6681 14.8047 27.7697C15.1614 27.194 15.2803 27.0924 14.6263 27.4649Z" fill="#006D2C"/>
<path d="M51.6679 11.7175V12.1578C52.3813 11.9207 51.6381 11.9885 51.6679 11.7175Z" fill="#006D2C"/>
<path d="M58.8325 7.72123L58.0595 7.61963L57.792 8.09375L58.8325 7.72123Z" fill="#006D2C"/>
<path d="M63.7973 9.75335L63.5 9.88881L64.6891 9.48242L63.7973 9.75335Z" fill="#006D2C"/>
<path d="M130.627 5.55405L130.478 5.01221C129.973 5.01221 129.794 5.62179 130.627 5.55405Z" fill="#006D2C"/>
<path d="M158.065 14.2913C158.214 14.6976 158.779 15.3411 159.314 15.4427C158.809 15.0024 158.363 14.4606 158.065 14.2913Z" fill="#006D2C"/>
<path d="M122.867 64.7507L123.432 64.5137L122.332 64.7846L122.867 64.7507Z" fill="#006D2C"/>
</g>
<defs>
<clipPath id="clip0_62_3014">
<rect width="174" height="70" fill="white"/>
</clipPath>
</defs>
</svg>
