<svg width="108" height="65" viewBox="0 0 108 65" fill="none" xmlns="http://www.w3.org/2000/svg">
<g clip-path="url(#clip0_302_3)">
<path d="M0.110712 52.4214C0.202973 52.61 0.369042 52.4843 0.313685 51.8868L0 51.478L0.110712 52.4214Z" fill="#006D2C"/>
<path d="M0.645925 48.3333C0.516761 47.61 0.33224 46.761 0.0185547 47.1698C0.258432 47.9245 0.129267 48.0817 0.461404 48.8679C0.479857 49.4654 0.33224 49.9056 0.221528 49.8113C0.276884 50.0314 0.166171 50.7547 0.369144 51.0692C0.572117 50.2516 0.609021 49.3082 0.442952 48.2704C0.516761 48.0503 0.590569 48.2704 0.645925 48.3333Z" fill="#006D2C"/>
<path d="M45.281 6.57233C45.1334 6.63522 45.0596 6.69811 45.0596 6.76101C45.2072 6.69811 45.3179 6.63522 45.281 6.57233Z" fill="#006D2C"/>
<path d="M48.8612 6.22644C48.8612 6.22644 48.7136 6.22644 48.6582 6.22644C48.7505 6.22644 48.8243 6.25789 48.8612 6.22644Z" fill="#006D2C"/>
<path d="M24.6885 13.4905L25.2605 13.4276C25.2605 13.239 24.9653 13.4276 24.6885 13.4905Z" fill="#006D2C"/>
<path d="M0.978652 40.1258C0.941406 40.3459 0.941406 40.5031 0.941406 40.6918L1.0159 40.1887L0.978652 40.1258Z" fill="#006D2C"/>
<path d="M16.0535 18.7736L15.9058 18.8993C15.9058 18.8993 15.8505 19.088 15.832 19.1824L16.0719 18.7736H16.0535Z" fill="#006D2C"/>
<path d="M10.001 24.5912C10.1302 24.434 10.0195 24.0252 10.001 23.8051C10.001 24.0566 9.92722 24.2453 9.83496 24.4025C9.85341 24.4654 9.90877 24.5283 10.001 24.5912Z" fill="#006D2C"/>
<path d="M2.58419 38.2704L2.52832 38.6164C2.52832 38.6164 2.56557 38.3962 2.58419 38.2704Z" fill="#006D2C"/>
<path d="M20.7773 15.9119C20.7773 15.9119 20.8332 16.0063 20.8705 16.0377C20.8705 15.9748 20.8332 15.9434 20.7773 15.9119Z" fill="#006D2C"/>
<path d="M13.0086 44.7799C13.0086 44.7799 13.0273 44.7484 13.0459 44.717C12.99 44.717 12.9714 44.717 13.0086 44.7799Z" fill="#006D2C"/>
<path d="M9.39258 31.6352L9.44793 31.7924C9.44793 31.7924 9.54019 31.7924 9.59555 31.7295L9.39258 31.6038V31.6352Z" fill="#006D2C"/>
<path d="M55.3746 5.44025C55.3746 5.44025 55.3746 5.44025 55.3377 5.44025C55.1717 5.53459 55.2639 5.50314 55.3746 5.44025Z" fill="#006D2C"/>
<path d="M105.768 34.7484C105.971 33.6164 106.081 36.5094 106.321 34.8428C106.247 35 105.841 33.3962 105.768 34.7484Z" fill="#006D2C"/>
<path d="M1.07031 39.8113L1.18102 39.3082C1.12567 39.5283 1.08876 39.6855 1.07031 39.8113Z" fill="#006D2C"/>
<path d="M106.321 34.8428L106.34 34.6541C106.34 34.717 106.34 34.7799 106.321 34.8428Z" fill="#006D2C"/>
<path d="M70.3576 4.0566C70.3576 4.0566 70.2653 3.93081 70.21 3.86792C70.21 3.89937 70.2469 3.96226 70.3576 4.0566Z" fill="#006D2C"/>
<path d="M76.1699 3.89935C76.3175 3.96225 76.3729 4.02514 76.5759 3.99369C76.5759 3.99369 76.539 3.96225 76.5205 3.9308C76.4467 3.99369 76.336 3.99369 76.1699 3.9308V3.89935Z" fill="#006D2C"/>
<path d="M82.1859 5.03143L82.0751 4.90564C82.0751 4.90564 81.946 4.90564 81.8906 4.90564L82.1859 5.06287V5.03143Z" fill="#006D2C"/>
<path d="M29.8188 59.5912C29.7081 59.4025 29.6527 59.2453 29.5974 59.0881C29.6343 59.434 28.7486 59.0881 29.8188 59.5912Z" fill="#006D2C"/>
<path d="M1.12632 40.1887C1.12632 40.1887 1.07045 39.9686 1.08907 39.8113L1.0332 40.1573C1.0332 40.1573 1.08907 40.2516 1.12632 40.1573V40.1887Z" fill="#006D2C"/>
<path d="M76.5762 0.47168L77.5541 0.660359C77.2773 0.597466 76.9268 0.503126 76.5762 0.47168Z" fill="#006D2C"/>
<path d="M73.6609 64.2767L73.4395 64.3711C73.4395 64.3711 73.6055 64.3711 73.6609 64.2767Z" fill="#006D2C"/>
<path d="M80.4512 1.13208C80.6172 1.32076 80.7833 1.44655 80.9863 1.54089C81.0232 1.54089 81.0785 1.50944 81.1154 1.44655L80.4696 1.13208H80.4512Z" fill="#006D2C"/>
<path d="M23.2132 56.478C24.0989 57.0755 23.7483 56.2264 24.0066 56.0377C25.0953 56.5723 24.3941 56.761 24.6894 57.2642C25.3721 57.5786 25.9995 57.327 26.4977 57.6415C26.5161 57.7673 26.6084 57.8302 26.4792 57.8931C27.2542 57.8931 28.5827 58.9937 29.5054 58.8365C29.5607 58.9308 29.5792 58.9937 29.5976 59.0252C29.5054 58.6793 29.5423 58.3962 29.5976 58.2076C30.0036 58.3962 30.3911 58.2076 30.5018 58.6164C30.2619 58.4906 30.2065 58.6164 30.0774 58.7107H30.5202C30.8154 59.4025 29.9113 58.6792 29.8559 59.0566C30.7232 59.2453 31.7381 59.2138 32.347 59.6226C32.4023 60.2201 30.8339 59.1824 31.6273 60L30.6678 59.4025C31.2952 60.5346 30.0774 59.088 30.6494 60.2516C31.941 60.9434 32.144 60.5975 33.4356 61.2264C33.7678 61.0377 33.3987 60.7547 33.7124 60.566C35.613 60.6918 35.041 62.3585 36.4802 62.0755C36.8677 61.8239 37.0707 61.195 38.0118 61.7924L37.6243 62.2956C38.8975 62.673 38.4177 61.6352 39.7278 62.327C39.4695 62.5157 38.7129 62.327 38.8975 62.4214C39.7278 63.0818 39.5433 62.2013 40.2076 62.3585L40.2998 62.9245C41.6653 63.1447 43.1783 63.0503 44.6914 63.2075C44.5991 63.3648 44.3224 63.4591 44.6914 63.7107C46.6104 63.7736 48.7509 64.4025 50.5776 64.9057L51.2972 64.5283C51.4633 64.5283 51.5925 64.7799 51.408 64.8428C52.1276 65.0943 51.4633 64.5597 51.8139 64.4025C52.2199 64.4025 52.349 64.717 52.0722 64.8428C53.3454 64.5598 55.6888 64.2767 57.0174 64.8428L56.7591 64.9686C57.7924 65.1887 57.94 64.0881 58.8995 64.5283L58.715 64.6226C60.9661 64.8742 63.4572 64.4025 65.1917 65.0314C65.5053 64.3396 67.4244 65.1887 67.5535 64.2767C68.8452 64.6541 68.4946 64.8428 70.3029 65C70.7826 65 71.0041 64.3711 71.5945 64.2138L71.6314 64.6855L72.4249 64.088L72.8862 64.6226L73.4397 64.434C73.2183 64.434 72.96 64.2767 72.9784 64.1195C73.8457 63.805 75.1189 64.1824 75.1558 64.434L77.204 63.7107C77.1671 63.8994 76.8349 64.0252 76.5581 64.2138C77.6284 63.5535 76.7796 64.6855 77.776 64.088C77.6284 63.9937 77.8313 63.805 77.8498 63.6792C78.3664 63.8679 79.5105 63.6792 80.3593 63.3648L80.2117 63.7421C81.7432 63.522 83.4223 62.9245 85.1384 62.4843C84.511 62.4843 84.6032 61.8868 85.1014 61.6981L85.3413 62.1384C85.6366 61.7296 84.8062 62.0755 85.4336 61.5409C86.0794 61.4465 85.9133 62.0126 85.5628 62.2641L86.3193 61.8868C86.3193 61.8868 86.2086 62.1384 86.1717 62.3585C86.4669 61.9497 87.5556 62.5472 87.9615 61.8553L88.0169 61.9811C89.7329 61.478 90.471 61.1321 91.8734 60.6289C91.8549 60.1887 92.4085 60.0943 92.7775 59.5912C93.8108 59.3396 95.0102 59.2138 96.2281 58.5535C97.0399 57.8616 96.4126 58.0503 96.7447 57.6101C96.8739 57.9874 98.0917 57.2013 97.5197 57.8616C98.959 56.8868 99.3834 56.6038 101.026 54.717C100.786 54.7484 100.564 54.8742 100.638 54.6541C100.933 54.3082 101.395 54.1195 101.395 54.3082L101.321 54.434C102.188 53.2076 103.295 52.1384 104.31 50.7862C105.325 49.4654 106.174 47.8302 106.395 46.2264L106.358 46.4151C106.617 45.3774 106.783 44.3396 106.93 43.3019C107.281 41.9497 106.912 44.2453 107.281 43.3019C107.558 39.7799 108.074 37.8616 107.779 34.9686C108.093 33.8365 107.964 31.8239 107.631 29.8428C107.318 27.8302 106.783 25.912 106.617 24.4025L106.506 24.6855C106.192 24.0881 106.358 23.7736 106.229 23.239C106.137 23.3962 106.321 24.0881 106.118 23.7421C105.177 20.9434 104.107 18.1761 102.76 15.6918C101.432 13.239 99.9 11.0692 98.2578 9.33963C97.0399 8.14466 97.1876 9.93711 95.7852 8.08177L96.3572 7.95598C93.6817 6.47799 91.0246 4.46542 88.3306 3.96227C88.4966 3.89938 88.5335 3.74215 88.7734 3.86793C88.2752 3.27045 86.7252 3.08177 86.6883 3.39623C86.2824 3.20755 86.633 3.08177 86.3931 2.86164C85.858 2.45284 84.9538 2.89309 84.6955 2.45284C84.6586 2.38994 84.8616 2.3585 84.9723 2.3585C84.5848 2.45284 83.2747 1.85535 83.5884 2.38994C82.6104 1.94969 81.6878 2.04403 80.9128 1.66667C80.3593 2.04403 79.2337 1.10064 79.0307 1.76101C79.1414 1.03774 77.3331 0.88051 76.6873 1.16353C76.9087 0.97485 76.1522 0.88051 76.4105 0.597492C75.6909 0.503152 75.0266 0.566045 75.1373 0.943404C73.8457 -0.0628857 72.4618 1.4151 71.7422 0.25158C69.5833 0.534598 67.6273 0.754724 65.7268 1.0063C65.7821 0.283026 67.8488 0.849064 67.7565 0.125793C65.9297 0.471705 64.8964 1.10064 63.1066 1.03774C62.6453 0.97485 63.3649 0.723278 63.5125 0.566045C61.7042 1.0063 60.0066 0.786171 58.4198 1.4151C58.4198 1.35221 58.5858 1.25787 58.7519 1.16353C58.4382 1.22642 58.0138 1.16353 58.0692 1.47799L58.3828 1.35221C58.8995 1.76101 57.165 2.48428 57.1281 2.73586C57.6079 1.72957 55.5412 2.73586 56.3162 1.44655C56.1132 1.54089 55.8549 1.72957 55.9103 1.94969C55.5966 1.94969 55.4859 1.82391 55.7996 1.54089C54.674 1.91825 55.0984 2.16982 54.0835 2.3585C54.0835 2.20127 54.2865 2.10693 54.3787 1.91825C53.8805 2.32705 53.3823 2.67296 52.4966 2.73586C52.5335 2.64152 52.4413 2.51573 52.6996 2.48428C51.2234 2.86164 50.227 3.77359 48.5848 3.93082C49.0092 3.14466 48.0128 3.83649 47.8836 3.30189L47.0348 3.67925L47.4039 3.86793C46.6473 4.05661 46.0015 4.62265 45.3372 4.62265L45.8723 4.21384L44.4515 4.71699H45.2819C44.5438 5.22013 45.4295 5.40881 44.4146 5.5346C44.6176 5.40881 43.6581 5.75472 43.2337 5.5346C42.8831 5.81762 42.5141 6.13208 41.942 6.16353C41.776 6.03774 41.9974 5.50315 41.8867 5.40881C41.573 6.0063 40.1337 6.10064 39.7093 6.76101C39.857 6.60378 39.8201 6.28932 39.7647 6.22642L39.5064 6.72957C39.1373 6.72957 39.082 6.66667 39.1189 6.4151C38.0671 6.69812 39.5433 7.04403 38.2516 7.13837C38.3439 7.07548 38.2885 7.04403 38.4915 6.91825C37.2183 7.16982 36.0927 7.95598 34.9303 8.17611C34.5243 7.70441 35.9267 7.67296 35.4654 7.32705C33.8231 8.01888 32.1071 9.24529 30.5018 9.71699L30.8154 9.65409C30.7047 10.566 29.5792 9.71699 28.8042 10.4088C28.9887 10.283 29.0071 9.87422 28.9702 9.96856C27.8631 10.2516 26.756 11.0377 25.1322 11.9811L25.2983 11.6981C24.634 11.7925 23.5822 12.3271 22.8811 12.5472C22.715 12.8616 22.309 12.9874 22.6043 13.1761C20.2609 13.0189 18.6924 15.8805 16.6627 16.1635C16.8841 16.0063 17.1425 15.6289 16.9764 15.7547C16.4597 16.1635 15.9615 16.6038 15.4633 17.0126C15.6663 17.2642 15.7216 17.0755 16.1091 17.1069C15.9615 17.4528 15.574 17.8931 15.1865 18.2076C15.8139 17.4528 15.0389 17.673 14.6883 17.7359C14.7621 17.7987 14.6883 17.9874 14.7437 18.0818C13.7842 18.1447 14.7806 18.8365 13.6181 19.3396V19.1195C13.2491 19.5283 12.9538 20.0943 12.5294 20.4403C12.2342 20.2516 12.8985 19.8742 12.8247 19.5598C12.2342 20.1258 11.8836 21.3522 11.2378 21.5409C11.4408 21.195 11.7914 20.8176 12.0128 20.4717C11.2932 20.6289 11.2562 20.8176 10.8134 21.195H10.8503C10.4997 21.4465 10.1491 21.761 9.79853 22.044L10.0938 21.8868C9.74317 23.5849 8.72831 23.7421 8.10094 25.566C8.70986 23.8365 8.10094 25.0629 7.99023 24.5912C7.71345 24.8113 7.3075 25.1887 7.34441 24.9371C7.08608 25.8491 6.53251 25.7547 6.20038 27.1069C6.10812 27.044 5.77598 27.7987 5.70217 27.3899C5.24087 28.3648 5.94205 27.3899 5.97895 27.5786C5.44384 29.2453 3.93077 30.4403 3.37721 33.1132C2.76829 35.2201 2.91591 35.8491 2.47306 37.8302C2.14092 38.3648 2.34389 37.0755 2.34389 37.0755C1.90104 37.9874 1.73497 38.8365 1.56891 39.9057C1.532 39.6541 1.43974 39.8113 1.27367 40.0629C1.1076 40.912 1.45819 40.8176 1.1076 41.8239C1.05225 41.5723 0.941536 41.2579 0.941536 40.7862C0.793919 41.8239 0.812371 42.9245 0.720111 43.9937C0.517138 44.2138 0.572494 43.2704 0.554042 42.8302C0.406425 44.0566 0.277261 46.0063 0.498686 46.4465C0.554042 46.195 0.590946 45.9434 0.646302 45.6918C0.609398 46.1321 0.406425 45.8491 0.406425 45.5032C0.332617 44.4025 0.664754 44.0566 0.757015 44.0252L0.720111 44.8113C1.31058 44.2453 1.05225 41.8239 1.42129 40.3459L1.66117 41.1635C1.66117 40.6289 1.66117 40.0629 1.67962 39.4969C1.84569 39.2453 2.10402 39.1824 1.97485 39.9057C2.39925 39.0566 2.08556 38.9308 2.49151 38.239C2.54687 38.1761 2.54687 38.239 2.54687 38.3333C2.58377 37.9874 2.65758 37.6415 2.73139 37.2956C2.73139 37.5472 3.02662 37.3585 2.78674 37.8616C3.46947 36.3837 3.41411 34.9686 3.87542 34.6227L3.83851 34.7799C4.57659 32.4843 3.67244 34.3082 4.05994 32.3585C4.39207 32.2013 4.74266 32.1069 5.09325 32.0126L4.96409 31.5094C5.0748 31.3208 5.27777 30.912 5.33313 31.1006C5.55455 30.1258 5.16706 31.1006 5.25932 30.4403C5.94205 29.717 6.60632 27.6415 7.04917 27.9874C7.08608 27.3899 6.4218 28.6793 6.8831 27.5157C7.38131 27.8302 7.51047 26.2893 8.1932 25.8176C8.1932 26.3522 7.62119 26.9497 8.28546 26.4465C8.34082 25.4403 9.37413 25.0943 9.79853 24.434C9.61401 23.9308 10.7396 22.956 11.533 21.9497C11.533 22.1698 13.2122 20.5975 14.0979 20.1258V20.2201C14.0979 19.5598 14.9836 18.9623 15.5925 18.3648C15.6478 18.7107 15.574 18.8994 15.2603 19.3082L15.8508 18.8679C15.9431 18.5849 16.1091 18.3648 16.4782 18.0189L16.4228 18.522C17.1978 17.9245 17.9174 16.9497 19.0246 16.6038C19.0246 16.195 17.9728 16.0377 19.0246 15.1258C19.1168 15.3145 19.2275 15.6289 18.9508 15.8805C19.043 15.7862 19.2644 15.5031 19.4674 15.5031L19.0799 16.1006C19.5966 15.9748 19.2829 15.6604 19.6704 15.4717C19.7257 15.7862 20.0025 15.5346 19.9841 15.7862C19.8918 15.8805 19.6335 15.8491 19.5043 16.0377C19.9472 15.8491 20.5007 15.7233 20.7222 15.8491C20.6484 15.6918 20.6484 15.4403 20.962 15.2516C21.7924 14.8113 21.3126 15.4717 21.8108 15.3774C21.9769 15.0629 22.5489 15.0315 22.4751 14.5598C22.715 14.434 22.8072 14.6226 22.918 14.717C23.3239 14.3082 24.9292 13.7421 24.3757 13.4906H24.265L24.3388 13.4591C25.7042 12.3899 27.3465 12.4528 28.7488 11.7296V11.8868C29.5976 11.3837 30.6494 11.0692 31.2214 10.5032C31.4797 10.4088 31.8488 10.566 31.775 10.7862C32.4208 10.4088 32.4577 10.2201 33.4356 10.1572C32.8083 10.6604 33.694 10.3145 32.7898 10.5975C33.6571 10.4088 33.8785 10.5975 34.7457 9.84277C34.4874 10.3459 35.4469 10.0943 35.8344 9.84277L35.207 9.77988C35.6499 9.55975 36.0558 9.46542 36.4618 9.33963L36.2957 9.93711C38.104 9.96856 39.3034 7.79875 40.7611 8.45913C41.1855 7.95598 39.7832 8.49057 40.1522 7.95598C40.9641 7.7673 41.8682 8.27045 42.1266 8.17611C43.2521 8.11321 43.0676 7.10693 44.2486 6.98114C44.0825 6.82391 43.898 6.38365 44.7468 5.97485C45.5587 5.81762 45.817 6.47799 45.3188 6.76101C45.1343 6.82391 45.0235 6.79246 45.0235 6.76101C44.7652 6.8868 44.4331 7.07548 44.7652 7.20127L44.8575 6.98114C45.2819 7.04403 46.3705 6.72957 46.1491 7.10693C46.7396 6.76101 46.389 6.72957 45.9277 6.76101C46.9795 6.76101 47.5515 6.35221 48.6217 6.25787C48.4372 6.19498 48.2711 6.0063 48.4372 5.97485C50.0241 5.81762 49.1015 5.44026 50.1532 5.12579C50.7806 5.28303 49.9872 5.84906 51.0389 5.37737C51.7032 5.44026 51.205 5.84906 50.9651 6.03774C51.9062 5.4717 52.7919 5.88051 53.3454 5.84906L52.8472 6.10064C53.1425 5.9434 53.4008 5.88051 53.6591 5.84906L53.3454 5.5346C53.6591 5.5346 53.899 5.50315 53.9174 5.66038C54.2127 5.37737 53.6407 5.09435 54.2311 4.6541C54.6371 4.77988 55.449 4.24529 55.615 4.71699C54.3418 4.77988 55.7811 5.18869 54.7293 5.44026C54.9323 5.34592 55.1906 5.31447 55.4859 5.31447C55.5412 5.37737 55.449 5.40881 55.3752 5.47171C56.6114 5.69183 55.8918 4.81133 57.1466 4.62265C56.9989 4.93711 57.4602 5.12579 57.6632 5.03145C57.165 5.09435 57.4049 4.5912 57.8477 4.33963C58.6596 4.46542 58.715 4.05661 59.1394 4.02516H58.6596C58.8072 3.67925 59.2132 3.67925 59.7668 3.52202C59.8221 3.74215 59.2685 3.74215 59.4715 3.80504C60.0804 3.20755 60.8923 4.15095 61.7596 3.74215C62.1655 3.89938 61.8149 4.27674 62.1655 4.37108C63.125 3.93082 63.2357 4.6541 64.2506 4.27674C63.9554 3.89938 63.9 3.99372 64.6197 3.61636C64.0661 3.7107 63.4941 3.86793 62.9405 3.99372L64.0107 3.36479C63.4941 3.36479 62.9405 3.67925 62.6268 3.64781C63.1435 3.30189 63.0881 3.39623 62.8298 3.11321C63.5494 3.61636 64.2137 2.67296 65.0256 3.01888V3.96227C66.225 4.33963 67.166 3.36479 68.7345 3.64781L68.2363 3.49057C68.4392 3.11321 69.2142 3.45913 69.7124 3.30189C69.6571 3.61636 69.9707 3.74215 70.1922 3.93082C70.1737 3.67925 71.3362 3.96227 71.4838 3.39623L72.185 3.86793C73.4397 4.15095 73.6612 3.05032 74.879 3.30189C74.4915 3.58491 75.0451 3.86793 74.2147 4.02516C74.6207 4.02516 74.9897 4.1824 74.9897 3.96227C75.2111 4.1824 76.1337 3.67925 76.4843 4.02516C76.6689 3.89938 76.7427 3.58491 77.1855 3.67925C77.2409 3.74215 77.1855 3.83649 77.1855 3.83649C77.1855 3.67925 77.9051 3.7107 77.5361 3.33334C78.7355 4.49686 81.042 3.89938 82.0569 5.00001C82.9426 5.12579 84.0128 5.31447 84.8062 5.50315C84.7509 5.56604 84.8062 5.66038 84.6402 5.59749C85.7104 6.19498 85.4151 4.90567 86.6145 5.62894C87.1865 6.35221 85.9318 5.66038 86.3008 6.0063C86.3562 7.04403 87.8139 6.38366 88.552 7.2956H88.349C88.921 7.86164 89.9359 7.51573 90.9323 8.11321C90.9323 8.11321 90.8769 8.17611 90.8954 8.27045C91.6704 8.11321 93.0174 8.7107 93.9954 9.1824C93.6079 9.37108 93.5156 9.08806 93.6079 9.5912C94.0507 9.81133 93.6079 8.89938 94.4936 9.37108C94.715 9.74844 95.287 10.3774 95.2501 10.8491C94.9918 10.6604 94.7334 10.4717 94.4751 10.283C94.7519 11.0692 95.4715 11.0377 95.859 11.4465L95.7483 11.6352C96.9108 12.5472 97.1138 12.0126 98.2947 13.3019L98.2393 13.0189C99.0881 13.239 98.6822 13.8679 99.4572 14.2767V15C99.9 15.3459 101.026 16.3837 101.745 17.3585C101.192 17.0755 100.306 16.0692 99.697 15.6289C100.085 16.1321 101.007 17.3899 101.302 17.4843C101.136 17.2956 100.878 17.1384 100.786 16.8239C101.432 17.1384 102.133 17.9245 102.779 19.2453C102.446 19.5283 102.852 20.3774 103.258 21.4465C103.683 22.4843 104.107 23.7736 104.033 24.5283C105.067 26.8868 105.325 29.8742 105.657 33.0818C106.1 31.761 105.749 34.0566 106.284 33.7421C106.358 34.5283 106.377 34.8428 106.34 34.9057C106.229 35.7233 106.155 36.5409 105.989 37.2956C105.805 37.8302 105.897 36.5409 105.768 36.6038C105.639 38.239 105.491 37.2642 105.288 38.3019C105.509 38.1132 105.509 38.9308 105.343 39.8113L105.731 38.5849C105.768 39.7799 105.602 40.2516 105.38 40.6604C105.177 41.1006 105.011 41.5094 104.901 42.6415V41.8554C104.808 43.0503 103.812 45.6289 103.683 46.9811C103.554 47.0755 103.332 47.1069 103.498 46.6667C102.465 48.805 101.007 51.6667 99.6417 52.327L99.697 52.0126C99.4387 52.3585 99.3096 52.8616 98.8852 52.956C98.8852 52.8616 98.9405 52.6415 98.8113 52.7359C98.6822 52.956 98.1102 53.7107 97.6673 53.8679L97.9626 53.3648C96.3203 54.1824 95.5822 55.5031 94.1614 56.3208C94.0692 55.6604 92.6853 56.0063 92.0025 56.1006V56.0063C89.9913 56.6352 88.6073 57.6415 86.7068 58.4591C85.452 58.0503 82.6473 59.1509 80.6914 59.1195C80.9866 59.1824 80.6914 59.6541 80.3408 59.8113C79.8795 59.7484 79.123 60.5346 79.1599 59.8742H79.326C78.9385 59.3082 78.0343 59.6541 77.3147 59.7484L77.2409 60.5975C75.285 59.717 72.2773 61.761 71.207 60.7862C70.7642 61.0377 70.1922 61.0692 69.7309 61.3208V60.8805C68.4761 60.8805 67.8303 60.8805 66.2619 61.0692L66.5756 60.7233C65.6899 60.7233 65.4869 62.0755 64.6566 62.1384L64.3982 61.478C62.8483 61.5409 61.2798 60.9748 59.7483 61.5409C59.7668 61.4465 59.8221 61.2579 60.062 61.2264C59.3239 61.2264 57.2573 60.7233 57.4971 61.6352C57.4971 61.0377 55.9103 61.5094 55.0615 61.7296L55.2091 61.2893C54.4895 61.7924 54.471 61.9497 53.4746 62.0126C53.2347 61.9497 53.2716 61.6352 53.5853 61.7924C52.8103 61.5094 52.9579 62.1698 52.0353 61.8553L52.4044 61.6038C51.6109 61.5094 51.6663 61.6352 51.205 61.9182C50.6883 62.044 49.6919 61.6352 49.5812 61.2264C49.4705 61.4465 49.0092 61.7296 48.5479 61.5409C48.4925 61.3836 48.6586 61.3208 48.7509 61.2893C47.4223 60.7862 46.7396 61.5094 45.8354 60.9434C45.8354 60.7862 45.7616 60.7233 45.6878 60.6604C46.7396 60.8176 47.6068 60.9748 47.5146 60.9748C47.533 60.566 46.6842 60.3774 47.3854 59.9057C46.6842 60.1258 45.4664 60.5975 44.6545 60.2516C44.6176 60.2201 44.5807 60.1572 44.5438 60.0943H44.6361C44.4515 60 44.267 60 44.1009 60.0314C43.8426 59.9057 43.6765 59.8428 43.4182 59.7799C43.3444 59.434 42.4587 59.434 42.0343 59.3082C42.0343 59.7484 41.4807 59.5597 41.979 60.0314C41.9051 60 42.0712 60 42.348 60.0314C42.4218 60.0314 42.4956 60.0314 42.5325 60.0314H42.4956C42.7724 60.0943 43.1414 60.1572 43.5658 60.2201C43.2152 60.3774 42.8462 60.5031 42.3849 60.1887C42.145 60.4402 41.8867 60.6604 41.7391 60.7862C41.204 60.0629 40.0968 59.4969 39.9677 59.0881C38.6576 59.0566 36.9231 58.522 36.0374 59.0881C35.6683 59.0881 35.6314 58.7421 35.5207 58.5535C35.7421 58.5535 35.982 58.6164 36.1112 58.5535C35.3547 58.5535 33.9523 57.956 33.7124 58.4591C32.8267 57.8616 34.2844 58.1132 33.0297 57.7673L33.2142 57.6415C30.9077 55.7862 28.9887 57.4843 26.5346 54.7799C26.7006 54.9686 26.7929 55.0314 26.8113 55.1572C23.9144 52.956 20.5561 51.4465 18.1942 47.7673C17.5115 46.7925 17.3454 46.9497 16.7919 46.6352V46.0692C16.4966 45.8805 16.1645 45.7547 15.8693 45.5346C15.2973 44.9371 14.9836 44.0881 14.6145 43.2076C14.2824 42.2956 13.9502 41.3522 13.2122 40.566V41.0377C12.8431 40.2516 11.9759 38.6164 12.1973 38.5535C12.1419 38.522 11.9205 38.4906 11.8652 38.0818L11.9759 37.9245C11.6253 37.327 11.3301 36.6667 10.9979 36.0377C10.5366 34.2767 11.533 35.8491 10.8318 33.3648C10.5366 32.4843 9.72472 31.0063 9.72472 31.4151C9.81698 31.7925 9.90924 32.4528 9.78008 32.5786L9.46639 31.761C9.02354 31.8868 8.41463 31.4151 8.76522 33.9308L9.42949 35.3145C9.42949 35.5346 9.39259 35.7547 9.39259 35.9748L9.00509 34.6541C9.042 35.566 9.31878 35.9434 9.61401 36.3208C9.55865 36.5409 9.57711 36.8239 9.63246 37.1384L10.4997 38.239C10.4259 38.5849 9.98305 37.8931 10.2598 38.9623C10.6658 39.4654 10.3336 37.956 10.8503 38.9623C10.9795 39.8113 10.7765 39.7799 11.2562 40.3774C11.2193 40.5975 11.0902 40.5032 10.9057 40.2516C11.3301 40.8176 11.7729 42.044 12.1235 42.1384C12.2896 43.0503 13.3413 44.2138 13.0276 44.6226C13.1937 44.7484 13.8949 45.3145 14.2639 45.8176C13.3044 45.4717 15.5556 47.8302 15.0758 48.239C15.8693 48.3019 17.0317 50.3774 18.1389 50.9434C18.0651 50.9434 17.9174 50.9434 17.8621 50.8176C18.3787 51.4465 18.471 51.7925 18.7662 52.2956C19.0061 51.8553 19.9103 52.4843 20.4823 52.5786C20.9989 53.7107 19.8734 52.8616 19.9287 53.5535C20.0394 53.0818 21.2388 54.1824 21.1281 53.5849C21.571 54.3396 21.5341 54.0881 21.6817 54.7799C21.9585 54.1509 22.2168 55.0629 22.7703 54.9686C23.4531 55.912 22.8072 55.8176 23.7114 56.1635C24.0804 56.6667 23.2316 56.3837 23.2316 56.3837L23.2132 56.478ZM44.7099 63.0503C44.5253 63.0503 44.3593 63.0189 44.267 63.0189C44.3593 63.0189 44.4884 63.0189 44.7099 63.0503ZM46.5182 63.3333C46.2967 63.3019 46.02 63.239 45.7247 63.2075C45.6694 63.0503 45.7432 62.8931 45.9277 62.9245C45.817 63.0189 46.2414 63.1761 46.5182 63.3333ZM42.8831 59.6541C43.1783 59.6541 43.2521 59.7484 43.289 59.8428C43.1599 59.8428 42.9938 59.8428 42.7908 59.8113L42.7539 59.8742C42.7539 59.8742 42.8277 59.717 42.8831 59.6855V59.6541Z" fill="#006D2C"/>
<path d="M42.3295 60.1572C42.3295 60.1572 42.2557 60.1572 42.2188 60.1572C42.2741 60.2201 42.3295 60.2516 42.3848 60.283L42.4955 60.1572H42.3479H42.3295Z" fill="#006D2C"/>
<path d="M24.4309 13.5535H24.4681C24.4681 13.5535 24.4122 13.5535 24.375 13.522C24.4122 13.522 24.4122 13.522 24.4309 13.5535Z" fill="#006D2C"/>
<path d="M71.631 64.7484V64.6226L71.4834 64.7484H71.631Z" fill="#006D2C"/>
<path d="M10.8132 21.0377L10.2412 21.478C10.4995 21.2893 10.6656 21.1321 10.8132 21.0377Z" fill="#006D2C"/>
<path d="M7.97168 24.2139C7.97168 24.2139 7.97168 24.3711 7.98998 24.434L7.97168 24.2139Z" fill="#006D2C"/>
<path d="M58.8066 1.06916H58.9358C59.231 0.911927 59.0281 0.97482 58.8066 1.06916Z" fill="#006D2C"/>
<path d="M43.2521 5.44027C43.3997 5.31449 43.5657 5.1887 43.7318 5.09436C43.455 5.12581 43.2336 5.1887 43.2521 5.44027Z" fill="#006D2C"/>
<path d="M76.4658 0.440247L76.5765 0.471693L76.4658 0.440247Z" fill="#006D2C"/>
<path d="M44.4511 4.90564C44.1743 4.90564 43.9344 4.96853 43.7314 5.09432C43.9529 5.06287 44.2297 5.03143 44.4511 4.90564Z" fill="#006D2C"/>
<path d="M0.129043 45.1887L0.0917969 45.4717C0.0917969 45.4717 0.129043 45.4717 0.129043 45.5031V45.1887Z" fill="#006D2C"/>
<path d="M0.110352 45.5032V45.8176C0.110352 45.8176 0.128 45.5661 0.110352 45.5032Z" fill="#006D2C"/>
<path d="M0.12901 46.5095V45.8176C0.0917646 46.0378 0.0731417 46.3208 0.12901 46.5095Z" fill="#006D2C"/>
<path d="M1.64278 37.8302L1.58691 37.673C1.58691 37.673 1.60554 37.7673 1.64278 37.8302Z" fill="#006D2C"/>
<path d="M2.25088 35.7233C2.08481 36.195 1.67887 36.7924 1.53125 37.5786L1.58661 37.7044C1.53125 37.2327 2.25088 36.3208 2.25088 35.7233Z" fill="#006D2C"/>
<path d="M6.47703 29.2139C6.20025 29.6227 5.96037 30.0944 5.68359 30.5346C5.88657 30.4088 6.1449 30.2202 5.84966 30.8805C6.97524 29.4654 5.48062 30.9749 6.47703 29.2139Z" fill="#006D2C"/>
<path d="M9.07803 25.5032C8.65364 26.195 9.17029 25.6918 9.18875 25.7862C9.41017 25.2516 9.48398 25.1572 9.07803 25.5032Z" fill="#006D2C"/>
<path d="M32.0699 10.8805V11.2893C32.5127 11.0692 32.0514 11.1321 32.0699 10.8805Z" fill="#006D2C"/>
<path d="M36.5169 7.16984L36.0372 7.0755L35.8711 7.51575L36.5169 7.16984Z" fill="#006D2C"/>
<path d="M39.5986 9.05663L39.4141 9.18241L40.1521 8.80505L39.5986 9.05663Z" fill="#006D2C"/>
<path d="M81.0782 5.15726L80.986 4.65411C80.6723 4.65411 80.5616 5.22015 81.0782 5.15726Z" fill="#006D2C"/>
<path d="M98.1094 13.2704C98.2016 13.6478 98.5522 14.2453 98.8844 14.3396C98.5707 13.9308 98.2939 13.4277 98.1094 13.2704Z" fill="#006D2C"/>
<path d="M76.2628 60.1258L76.6134 59.9056L75.9307 60.1572L76.2628 60.1258Z" fill="#006D2C"/>
</g>
<defs>
<clipPath id="clip0_302_3">
<rect width="108" height="65" fill="white"/>
</clipPath>
</defs>
</svg>
