<svg xmlns="http://www.w3.org/2000/svg" xmlns:xlink="http://www.w3.org/1999/xlink" width="1200" zoomAndPan="magnify" viewBox="0 0 900 374.999991" height="500" preserveAspectRatio="xMidYMid meet" version="1.0"><defs><g/><clipPath id="892d405f25"><path d="M 625 87 L 737 87 L 737 287 L 625 287 Z M 625 87 " clip-rule="nonzero"/></clipPath><clipPath id="07bc0fa0e9"><path d="M 708.050781 63.105469 L 804.570312 159.625 L 652.367188 311.832031 L 555.847656 215.3125 Z M 708.050781 63.105469 " clip-rule="nonzero"/></clipPath><clipPath id="3bfba48c58"><path d="M 556.003906 215.152344 L 652.523438 311.671875 L 804.726562 159.46875 L 708.207031 62.949219 Z M 556.003906 215.152344 " clip-rule="nonzero"/></clipPath><clipPath id="f4dcaf2ba4"><path d="M 556.003906 215.152344 L 652.523438 311.671875 L 804.726562 159.46875 L 708.207031 62.949219 Z M 556.003906 215.152344 " clip-rule="nonzero"/></clipPath></defs><g fill="#000000" fill-opacity="1"><g transform="translate(41.992907, 247.639004)"><g><path d="M 7.339844 0 L 100.671875 0 L 100.671875 -25.167969 L 43.519531 -25.167969 L 99.273438 -102.246094 L 99.273438 -122.347656 L 9.261719 -122.347656 L 9.261719 -97.175781 L 63.269531 -97.175781 L 7.339844 -20.101562 Z M 7.339844 0 "/></g></g></g><g fill="#000000" fill-opacity="1"><g transform="translate(150.002891, 247.639004)"><g><path d="M 14.679688 0 L 42.472656 0 L 42.472656 -122.347656 L 14.679688 -122.347656 Z M 14.679688 0 "/></g></g></g><g fill="#000000" fill-opacity="1"><g transform="translate(207.153812, 247.639004)"><g><path d="M 71.660156 2.445312 C 112.035156 2.445312 138.078125 -27.441406 135.28125 -69.386719 L 66.242188 -69.386719 L 66.242188 -47.890625 L 105.917969 -47.890625 C 102.421875 -33.035156 89.835938 -23.070312 72.007812 -23.070312 C 49.636719 -23.070312 35.304688 -39.152344 35.304688 -61.171875 C 35.304688 -83.542969 50.160156 -99.273438 71.660156 -99.273438 C 85.292969 -99.273438 96.652344 -92.984375 102.597656 -82.320312 L 132.484375 -82.320312 C 125.140625 -108.015625 100.847656 -124.792969 71.136719 -124.792969 C 33.90625 -124.792969 7.515625 -98.402344 7.515625 -61.171875 C 7.515625 -23.769531 34.082031 2.445312 71.660156 2.445312 Z M 71.660156 2.445312 "/></g></g></g><g fill="#000000" fill-opacity="1"><g transform="translate(349.768942, 247.639004)"><g><path d="M 14.679688 0 L 42.296875 0 L 42.296875 -73.757812 L 72.007812 -30.238281 L 91.234375 -30.238281 L 120.949219 -73.582031 L 120.949219 0 L 148.5625 0 L 148.5625 -122.347656 L 125.140625 -122.347656 L 81.796875 -58.902344 L 38.277344 -122.347656 L 14.679688 -122.347656 Z M 14.679688 0 "/></g></g></g><g fill="#000000" fill-opacity="1"><g transform="translate(513.007339, 247.639004)"><g><path d="M 14.679688 0 L 97.003906 0 L 97.003906 -23.59375 L 42.296875 -23.59375 L 42.296875 -50.335938 L 90.359375 -50.335938 L 90.359375 -73.582031 L 42.296875 -73.582031 L 42.296875 -98.925781 L 95.082031 -98.925781 L 95.082031 -122.347656 L 14.679688 -122.347656 Z M 14.679688 0 "/></g></g></g><g fill="#000000" fill-opacity="1"><g transform="translate(618.918654, 247.639004)"><g/></g></g><g fill="#000000" fill-opacity="1"><g transform="translate(659.99041, 247.639004)"><g/></g></g><g fill="#000000" fill-opacity="1"><g transform="translate(701.062165, 247.639004)"><g/></g></g><g fill="#000000" fill-opacity="1"><g transform="translate(742.129584, 247.639004)"><g><path d="M 44.042969 0 L 71.835938 0 L 71.835938 -96.304688 L 110.636719 -96.304688 L 110.636719 -122.347656 L 5.242188 -122.347656 L 5.242188 -96.304688 L 44.042969 -96.304688 Z M 44.042969 0 "/></g></g></g><g clip-path="url(#892d405f25)"><g clip-path="url(#07bc0fa0e9)"><g clip-path="url(#3bfba48c58)"><g clip-path="url(#f4dcaf2ba4)"><path fill="#000000" d="M 734.726562 89.160156 C 734.179688 88.613281 733.492188 88.183594 732.707031 87.941406 C 730.445312 87.25 728.007812 88.257812 726.890625 90.34375 L 686.929688 165.25 L 650.410156 128.726562 C 649.070312 127.386719 647.078125 126.941406 645.289062 127.570312 C 643.5 128.203125 642.226562 129.804688 642.019531 131.691406 L 625.414062 280.863281 C 625.15625 283.203125 626.570312 285.378906 628.808594 286.09375 C 631.039062 286.804688 633.472656 285.835938 634.613281 283.789062 L 675.820312 209.992188 L 710.976562 245.152344 C 712.316406 246.492188 714.296875 246.9375 716.089844 246.304688 C 717.878906 245.671875 719.152344 244.074219 719.367188 242.195312 L 736.140625 93.191406 C 736.308594 91.65625 735.757812 90.191406 734.726562 89.160156 Z M 734.726562 89.160156 " fill-opacity="1" fill-rule="nonzero"/></g></g></g></g></svg>