<svg xmlns="http://www.w3.org/2000/svg" xmlns:xlink="http://www.w3.org/1999/xlink" width="500" zoomAndPan="magnify" viewBox="0 0 375 374.999991" height="500" preserveAspectRatio="xMidYMid meet" version="1.0"><defs><clipPath id="756d8cf812"><path d="M 88 6 L 289 6 L 289 368 L 88 368 Z M 88 6 " clip-rule="nonzero"/></clipPath><clipPath id="6bcf18a36e"><path d="M 237.609375 -37.921875 L 413.148438 137.617188 L 137.378906 413.390625 L -38.160156 237.851562 Z M 237.609375 -37.921875 " clip-rule="nonzero"/></clipPath><clipPath id="1e08680f00"><path d="M -37.921875 237.609375 L 137.617188 413.148438 L 413.390625 137.378906 L 237.851562 -38.160156 Z M -37.921875 237.609375 " clip-rule="nonzero"/></clipPath><clipPath id="696ebac7a3"><path d="M -37.921875 237.609375 L 137.617188 413.148438 L 413.390625 137.378906 L 237.851562 -38.160156 Z M -37.921875 237.609375 " clip-rule="nonzero"/></clipPath></defs><g clip-path="url(#756d8cf812)"><g clip-path="url(#6bcf18a36e)"><g clip-path="url(#1e08680f00)"><g clip-path="url(#696ebac7a3)"><path fill="#000000" d="M 286.085938 9.515625 C 285.085938 8.515625 283.835938 7.734375 282.40625 7.292969 C 278.300781 6.035156 273.878906 7.847656 271.863281 11.636719 L 199.574219 147.46875 L 133.15625 81.050781 C 130.722656 78.613281 127.109375 77.796875 123.863281 78.929688 C 120.617188 80.074219 118.308594 82.976562 117.9375 86.398438 L 88.300781 357.128906 C 87.839844 361.371094 90.417969 365.328125 94.480469 366.632812 C 98.535156 367.929688 102.945312 366.179688 105.011719 362.464844 L 179.558594 228.652344 L 243.496094 292.589844 C 245.929688 295.023438 249.53125 295.84375 252.78125 294.703125 C 256.027344 293.558594 258.328125 290.664062 258.714844 287.253906 L 288.660156 16.835938 C 288.964844 14.050781 287.957031 11.386719 286.085938 9.515625 Z M 286.085938 9.515625 " fill-opacity="1" fill-rule="nonzero"/></g></g></g></g></svg>