<svg width="71" height="71" viewBox="0 0 71 71" fill="none" xmlns="http://www.w3.org/2000/svg">
<g opacity="0.1">
<path d="M28.5235 16.6284C30.299 15.8838 31.0436 13.7646 30.2418 12.0463L27.4352 6.14684C26.6334 4.48641 24.686 3.74125 22.9677 4.48641C18.0992 6.54835 13.9181 9.24032 10.5961 12.5051C6.52947 16.342 3.78022 20.7522 2.29104 25.6207C0.801865 30.547 0 37.2478 0 45.7819V63.3657C0 65.2558 1.54645 66.8022 3.43656 66.8022H25.9461C27.8362 66.8022 29.3826 65.2558 29.3826 63.3657V40.8561C29.3826 38.9655 27.8362 37.4196 25.9461 37.4196H15.1782C15.2927 31.6341 16.6673 26.9953 19.1875 23.5009C21.2494 20.6955 24.3423 18.4045 28.5235 16.6284Z" fill="#006D2C"/>
<path d="M68.9604 16.6283C70.7359 15.8837 71.4799 13.7645 70.6786 12.0462L67.8721 6.20465C67.0702 4.54365 65.1229 3.79906 63.4046 4.54365C58.5934 6.60559 54.4689 9.29756 51.0902 12.505C47.023 16.3998 44.2171 20.8101 42.7273 25.6785C41.2382 30.4891 40.4941 37.191 40.4941 45.7824V63.3662C40.4941 65.2563 42.0406 66.8027 43.9307 66.8027H66.4402C68.3303 66.8027 69.8768 65.2563 69.8768 63.3662V40.8567C69.8768 38.966 68.3303 37.4201 66.4402 37.4201H55.615C55.7296 31.6347 57.1048 26.9959 59.6244 23.5015C61.6863 20.6955 64.7792 18.4045 68.9604 16.6283Z" fill="#006D2C"/>
</g>
</svg>
