<svg width="47" height="47" viewBox="0 0 47 47" fill="none" xmlns="http://www.w3.org/2000/svg">
<g clip-path="url(#clip0_62_1947)">
<path d="M47.0113 22.3152L35.1122 10.416C34.6847 9.91683 33.9335 9.85864 33.4344 10.2862C32.9353 10.7136 32.8771 11.4648 33.3046 11.9639C33.3445 12.0105 33.3879 12.0539 33.4344 12.0937L43.2988 21.97H-3.81012C-4.46723 21.97 -5 22.5028 -5 23.16C-5 23.8172 -4.46723 24.3499 -3.81012 24.3499H43.2988L33.4344 34.2143C32.9353 34.6417 32.8771 35.3929 33.3046 35.892C33.7322 36.3912 34.4833 36.4494 34.9824 36.0218C35.0289 35.9819 35.0724 35.9386 35.1122 35.892L47.0114 23.9928C47.4727 23.5289 47.4727 22.7793 47.0113 22.3152Z" fill="#004AAD"/>
</g>
<defs>
<clipPath id="clip0_62_1947">
<rect width="47" height="47" fill="white"/>
</clipPath>
</defs>
</svg>
