<svg width="19" height="18" viewBox="0 0 19 18" fill="none" xmlns="http://www.w3.org/2000/svg">
<g clip-path="url(#clip0_62_225)">
<path d="M11.0098 0.06C10.9698 0.14 10.9398 0.33 11.0098 0.31L11.1298 0L11.0098 0.06Z" fill="#004AAD"/>
<path d="M11.2903 0.779976C11.4103 0.649976 11.5803 0.399976 11.6203 0.0999756C11.4503 0.379976 11.4703 0.249976 11.2803 0.589976C11.2103 0.609976 11.2003 0.449976 11.2403 0.339976C11.2003 0.419976 11.1603 0.239976 11.0703 0.429976C11.0903 0.699976 11.1803 0.739976 11.3503 0.569976C11.3503 0.649976 11.3103 0.719976 11.2803 0.779976H11.2903Z" fill="#004AAD"/>
<path d="M15.46 4.93L15.48 4.88C15.48 4.88 15.46 4.92 15.46 4.93Z" fill="#004AAD"/>
<path d="M16.28 8.40001C16.28 8.40001 16.24 8.36001 16.21 8.37001C16.23 8.39001 16.25 8.41001 16.28 8.40001Z" fill="#004AAD"/>
<path d="M15.9299 8.98996C15.9299 8.98996 15.9499 8.96996 15.9499 8.95996C15.9199 8.96996 15.8999 8.97996 15.9299 8.98996Z" fill="#004AAD"/>
<path d="M15.4602 4.93005L15.4102 5.06005C15.5102 5.02005 15.4602 4.98005 15.4602 4.93005Z" fill="#004AAD"/>
<path d="M12.4103 0.329956C12.4103 0.329956 12.3503 0.359956 12.3203 0.379956C12.3403 0.379956 12.3703 0.379956 12.3903 0.379956L12.4103 0.329956Z" fill="#004AAD"/>
<path d="M14.3597 3.78001L14.3397 3.76001C14.3397 3.76001 14.2697 3.80001 14.2197 3.83001L14.3597 3.78001Z" fill="#004AAD"/>
<path d="M13.5195 2.94994C13.5195 2.94994 13.7195 2.77994 13.8095 2.68994C13.7195 2.76994 13.6695 2.78994 13.6395 2.78994C13.5995 2.82994 13.5595 2.87994 13.5195 2.94994Z" fill="#004AAD"/>
<path d="M12.2102 1.48999L12.1602 1.50999C12.1602 1.50999 12.1902 1.49999 12.2102 1.48999Z" fill="#004AAD"/>
<path d="M14.8105 4.48999C14.8105 4.48999 14.7505 4.53999 14.7305 4.54999C14.7605 4.52999 14.7905 4.50999 14.8105 4.48999Z" fill="#004AAD"/>
<path d="M3.21973 1.35999C3.21973 1.35999 3.23973 1.37999 3.24973 1.39999C3.23973 1.36999 3.22973 1.35999 3.21973 1.35999Z" fill="#004AAD"/>
<path d="M5.34984 1.55005L5.33984 1.57005L5.40984 1.71005L5.34984 1.55005Z" fill="#004AAD"/>
<path d="M8.74995 15.03C8.85995 15.28 8.55995 15.35 8.71995 15.63C8.70995 15.52 8.87995 15.19 8.74995 15.03Z" fill="#004AAD"/>
<path d="M12.4297 0.380022C12.4297 0.380022 12.4697 0.390022 12.4897 0.400022C12.4697 0.380022 12.4497 0.370022 12.4297 0.380022Z" fill="#004AAD"/>
<path d="M8.71973 15.63L8.73973 15.66C8.73973 15.65 8.72973 15.64 8.71973 15.63Z" fill="#004AAD"/>
<path d="M14.8096 12.08C14.8096 12.08 14.8896 12.12 14.9296 12.13C14.9096 12.11 14.8696 12.1 14.8096 12.08Z" fill="#004AAD"/>
<path d="M15.8898 10.67L15.8398 10.7C15.8398 10.7 15.8798 10.68 15.8898 10.67Z" fill="#004AAD"/>
<path d="M14.56 13.05C14.56 13.05 14.49 13.03 14.5 13.09C14.51 13.09 14.52 13.1 14.53 13.11C14.51 13.07 14.51 13.05 14.56 13.06V13.05Z" fill="#004AAD"/>
<path d="M13.8496 13.73C13.8496 13.73 13.8796 13.75 13.8996 13.76V13.73H13.8496Z" fill="#004AAD"/>
<path d="M1.05957 4.59006C1.13957 4.59006 1.22957 4.62006 1.30957 4.64006C1.11957 4.58006 1.12957 4.38006 1.05957 4.59006Z" fill="#004AAD"/>
<path d="M12.3496 0.480005C12.3796 0.420005 12.4096 0.390005 12.4296 0.380005C12.4196 0.380005 12.3996 0.380005 12.3896 0.380005C12.3696 0.420005 12.3496 0.450005 12.3496 0.480005Z" fill="#004AAD"/>
<path d="M16.17 14.58L16 14.71C16.06 14.68 16.12 14.64 16.17 14.58Z" fill="#004AAD"/>
<path d="M1.47969 13.32L1.42969 13.3C1.42969 13.3 1.44969 13.33 1.47969 13.32Z" fill="#004AAD"/>
<path d="M15.5696 15.16C15.4796 15.11 15.4096 15.09 15.3496 15.09C15.3496 15.11 15.3596 15.13 15.3796 15.16H15.5696Z" fill="#004AAD"/>
<path d="M1.34023 3.15001C1.23023 3.32001 1.60023 3.42001 1.76023 3.57001C1.74023 3.82001 1.47023 3.52001 1.27023 3.50001C1.28023 3.68001 1.53023 3.94001 1.46023 4.02001C1.40023 4.00001 1.37023 4.01001 1.32023 3.95001C1.50023 4.21001 1.12023 4.36001 1.40023 4.67001C1.37023 4.67001 1.33023 4.67001 1.31023 4.65001C1.49023 4.70001 1.66023 4.77001 1.78023 4.83001C1.75023 4.91001 1.94023 5.06001 1.70023 4.99001C1.73023 4.95001 1.64023 4.91001 1.58023 4.85001L1.64023 4.97001C1.29023 4.90001 1.57023 4.82001 1.34023 4.71001C1.38023 4.91001 1.57023 5.20001 1.43023 5.27001C1.10023 5.18001 1.43023 4.95001 1.09023 5.00001L1.29023 4.86001C0.730234 4.80001 1.37023 4.76001 0.790234 4.67001C0.590234 4.89001 0.820234 5.02001 0.640234 5.24001C0.800234 5.36001 0.910234 5.31001 1.07023 5.43001C1.28023 5.88001 0.170234 5.46001 0.520234 5.86001C0.720234 5.99001 1.12023 6.13001 0.850234 6.26001L0.500234 6.10001C0.400234 6.35001 1.01023 6.37001 0.700234 6.58001C0.560234 6.50001 0.620234 6.35001 0.560234 6.38001C0.230234 6.49001 0.750234 6.55001 0.720234 6.68001L0.380234 6.64001C0.380234 6.93001 0.560234 7.26001 0.600234 7.57001C0.500234 7.54001 0.400234 7.48001 0.290234 7.54001C0.410234 7.94001 0.170234 8.36001 -0.00976562 8.75001L0.280234 8.89001C0.280234 8.89001 0.150234 8.96001 0.0902344 8.92001C-0.0197656 9.07001 0.280234 8.92001 0.390234 8.99001C0.410234 9.07001 0.220234 9.11001 0.130234 9.06001C0.370234 9.32001 0.730234 9.74001 0.440234 10.05L0.350234 10.01C0.260234 10.24 0.970234 10.15 0.740234 10.38L0.680234 10.35C0.650234 10.82 1.01023 11.23 0.720234 11.7C1.14023 11.62 0.700234 12.2 1.26023 12.02C1.09023 12.37 0.970234 12.34 0.950234 12.77C0.970234 12.88 1.35023 12.75 1.46023 12.82L1.19023 12.97H1.55023L1.27023 13.23L1.40023 13.29C1.40023 13.29 1.47023 13.14 1.55023 13.1C1.77023 13.18 1.61023 13.58 1.48023 13.68L1.94023 13.9C1.83023 13.96 1.76023 13.93 1.66023 13.92C2.05023 13.93 1.42023 14.15 1.78023 14.16C1.82023 14.09 1.94023 14.06 1.99023 14.03C1.91023 14.22 2.07023 14.42 2.25023 14.5L2.07023 14.61C2.25023 14.91 2.61023 15.08 2.90023 15.32C2.86023 15.16 3.14023 14.91 3.24023 14.95L3.06023 15.22C3.24023 15.11 3.06023 15.06 3.33023 14.96C3.40023 15.07 3.16023 15.3 3.03023 15.33L3.23023 15.35C3.18023 15.43 3.11023 15.44 3.02023 15.53C3.20023 15.42 3.04023 15.98 3.34023 15.77L3.29023 15.85C3.60023 16.07 3.81023 16.07 4.07023 16.22C4.22023 15.98 4.29023 16.1 4.47023 15.95C4.61023 16.12 4.73023 16.43 4.97023 16.52C5.19023 16.47 5.12023 16.33 5.26023 16.21C5.17023 16.45 5.41023 16.54 5.22023 16.65C5.53023 16.73 5.62023 16.74 6.05023 16.67C6.05023 16.56 6.01023 16.5 6.06023 16.42C6.14023 16.4 6.17023 16.57 6.13023 16.69L6.10023 16.71C6.59023 16.47 6.91023 17.69 7.36023 17.23L7.34023 17.25L7.73023 17.02C7.89023 17.08 7.61023 17.2 7.71023 17.37C8.14023 16.99 8.32023 17.51 8.66023 17.22C8.90023 17.99 9.53023 17.18 9.89023 17.61L9.85023 17.43C9.92023 17.25 9.96023 17.52 10.0302 17.56C10.0102 17.42 9.92023 17.41 9.96023 17.31C10.6502 17.03 11.4902 17.33 12.3002 17.24C12.5902 17.2 12.1402 16.33 12.6102 16.6L12.6402 16.95C12.8302 16.66 13.0902 16.55 13.3602 16.45C13.6202 16.32 13.8802 16.2 14.0302 15.92C14.0402 16 14.0902 16.09 14.0402 16.11C14.2702 16.27 14.4202 15.9 14.3102 15.73C14.3902 15.7 14.4202 15.87 14.5202 15.92C14.7002 15.97 14.5902 15.5 14.7802 15.66C14.8102 15.69 14.8002 15.74 14.7902 15.77C14.7902 15.63 15.1002 15.58 14.8802 15.41C15.1402 15.4 15.1102 15.07 15.3402 15.08C15.2102 14.78 15.7102 14.95 15.4302 14.61C15.7302 14.95 15.9602 14.63 15.8802 14.37C15.9502 14.5 16.0602 14.37 16.1702 14.55C16.2702 14.43 16.3002 14.26 16.1002 14.13C16.7002 14.25 16.1202 13.45 16.7502 13.72C16.8002 13.19 16.9002 12.78 16.9502 12.37C17.3502 12.58 16.8102 12.79 17.2202 12.99C17.2402 12.55 16.9702 12.19 17.2202 11.9C17.3202 11.84 17.3802 12.02 17.4402 12.08C17.4402 11.67 17.7202 11.39 17.5902 11C17.6302 11.01 17.6602 11.06 17.6902 11.1C17.6902 11.03 17.8002 10.97 17.6002 10.92L17.6402 11C17.3202 11.02 17.1202 10.6 16.9502 10.56C17.5002 10.8 17.1502 10.29 17.8402 10.61C17.8102 10.56 17.7202 10.49 17.5902 10.47C17.6402 10.42 17.7202 10.41 17.8602 10.51C17.7902 10.26 17.5602 10.3 17.6002 10.1C17.7002 10.12 17.7302 10.16 17.8402 10.2C17.6702 10.06 17.4902 9.94001 17.6002 9.78001C17.6602 9.80001 17.7402 9.78001 17.7302 9.84001C17.7302 9.53001 17.2502 9.30001 17.4502 8.99001C17.8802 9.09001 17.6002 8.88001 17.9702 8.87001C17.9402 8.81001 17.9002 8.75001 17.8602 8.69001L17.6802 8.76001C17.6802 8.60001 17.4002 8.48001 17.5102 8.35001L17.6702 8.46001L17.5802 8.18001L17.4502 8.35001C17.2502 8.21001 16.9802 8.39001 17.0702 8.20001C17.1102 8.24001 17.0702 8.06001 17.2802 7.96001C17.1602 7.90001 17.0202 7.84001 17.1002 7.73001C17.2102 7.69001 17.5102 7.70001 17.5902 7.67001C17.2702 7.64001 17.4502 7.33001 17.1002 7.30001C17.1802 7.32001 17.3702 7.28001 17.4102 7.27001H17.1502C17.2202 7.17001 17.2602 7.16001 17.4102 7.14001C17.4202 6.92001 16.9602 7.30001 17.1202 7.02001C17.1402 7.03001 17.1802 7.02001 17.2202 7.05001C17.2802 6.78001 16.9502 6.63001 17.0102 6.38001C17.3502 6.21001 17.1502 6.55001 17.4402 6.38001C17.2902 6.06001 16.8202 5.85001 16.7802 5.54001L16.7602 5.61001C16.2502 5.76001 16.9202 5.30001 16.6302 5.24001C16.6802 5.26001 16.9202 5.17001 16.8602 5.19001C16.8602 4.95001 16.5502 4.83001 16.2602 4.62001L16.4002 4.59001C16.4502 4.42001 16.3102 4.25001 16.2902 4.10001C16.1502 4.13001 16.1302 4.06001 15.9802 4.20001C16.3902 3.43001 15.2202 3.75001 15.5002 3.10001C15.5302 3.13001 15.6602 3.11001 15.6402 3.08001L15.3402 2.90001C15.1802 3.07001 15.2602 3.02001 15.1602 3.19001C15.0302 3.24001 14.8902 3.25001 14.8402 3.19001C15.0402 3.19001 15.1202 2.95001 15.1802 2.82001C15.1302 2.87001 15.0602 2.91001 15.0102 2.96001C15.2202 2.56001 14.6402 3.24001 14.7102 2.89001L14.8102 2.82001C14.7002 2.80001 14.5302 2.86001 14.5002 2.77001C14.6702 2.56001 14.6502 2.75001 14.8202 2.60001C14.7202 2.52001 14.2802 2.78001 14.3902 2.51001C14.4802 2.49001 14.5402 2.55001 14.6302 2.53001C14.7602 2.22001 14.6902 2.26001 14.6602 2.16001L14.6002 1.91001L14.5802 2.01001C14.0002 2.40001 14.2502 1.88001 13.7902 2.10001C14.2302 1.89001 13.9802 1.93001 14.1802 1.70001C14.1802 1.60001 14.1802 1.47001 14.2502 1.42001C14.0102 1.55001 14.2202 1.15001 13.8902 1.34001C13.9402 1.26001 13.8102 1.26001 13.9702 1.08001C13.8102 1.05001 13.9002 1.24001 13.8102 1.33001C13.4702 1.47001 13.6102 0.72001 13.1002 0.94001C12.7802 0.97001 12.5902 1.22001 12.3102 1.28001C12.3102 1.11001 12.5302 0.99001 12.5302 0.99001C12.4802 0.81001 12.3702 0.79001 12.2202 0.84001C12.2802 0.77001 12.2802 0.70001 12.2902 0.58001C12.1902 0.56001 12.0902 0.88001 12.0302 0.69001C12.0902 0.60001 12.1802 0.45001 12.2702 0.37001C12.1202 0.40001 11.9502 0.52001 11.8102 0.56001C11.8402 0.39001 11.9702 0.34001 12.0502 0.26001C11.9002 0.26001 11.6502 0.29001 11.5302 0.53001L11.5802 0.65001C11.5302 0.65001 11.6302 0.42001 11.6802 0.39001C11.8602 0.23001 11.8102 0.53001 11.7802 0.62001L11.6802 0.65001C11.5702 1.20001 12.0202 0.69001 12.1702 0.79001L11.9402 1.14001L12.2302 0.89001C12.2202 1.00001 12.1402 1.22001 12.0502 1.25001C12.0702 1.48001 12.2102 1.16001 12.2002 1.40001C12.2002 1.44001 12.1802 1.45001 12.1602 1.46001L12.3202 1.39001C12.2602 1.46001 12.2002 1.66001 12.1702 1.58001C12.2302 1.86001 12.5902 1.45001 12.5002 1.76001H12.4702C12.7702 1.79001 12.6402 1.52001 13.0102 1.33001L12.7302 2.04001L12.9202 1.80001C12.9202 1.80001 12.9702 1.87001 12.9002 1.97001C13.1002 1.85001 12.9602 1.85001 13.1202 1.72001C13.0902 2.01001 13.5102 1.84001 13.2402 2.25001C13.4202 2.10001 13.2402 2.02001 13.4602 1.99001C13.1802 2.43001 13.6502 2.03001 13.6002 2.29001C13.4002 2.48001 13.4002 2.29001 13.3402 2.56001C13.6902 2.25001 13.4602 2.78001 13.5902 2.77001C13.8402 2.50001 13.8502 2.81001 14.0602 2.85001C13.9702 2.93001 14.1502 3.22001 14.1602 3.42001L14.1102 3.46001C14.4002 3.24001 14.4602 3.41001 14.5902 3.46001C14.4202 3.60001 14.3402 3.64001 14.2202 3.65001L14.2902 3.73001C14.4002 3.68001 14.4702 3.66001 14.5502 3.69001L14.3202 3.84001C14.4202 3.94001 14.7702 3.87001 14.7302 4.13001C14.9502 3.99001 15.2202 3.58001 15.4802 3.66001C15.3702 3.75001 15.1802 3.89001 15.1002 3.87001C15.1202 3.87001 15.2302 3.86001 15.2002 3.92001L14.9602 3.98001C14.9202 4.11001 15.1402 3.91001 15.1702 3.98001C15.0102 4.09001 15.0802 4.10001 14.9502 4.18001C14.9202 4.18001 14.9802 4.08001 14.9102 4.10001C14.9202 4.19001 14.8802 4.33001 14.7702 4.44001C14.8602 4.37001 14.9902 4.29001 15.0502 4.33001C15.1402 4.45001 14.8802 4.50001 14.8402 4.63001C14.9802 4.59001 14.9002 4.74001 15.1602 4.59001C15.1802 4.63001 15.0702 4.70001 15.0102 4.76001C15.1702 4.76001 15.2102 5.05001 15.4502 4.82001V4.79001C15.4502 4.79001 15.4702 4.79001 15.4802 4.79001C15.8502 4.89001 15.5902 5.34001 15.7902 5.51001L15.7002 5.55001C15.8602 5.65001 15.8802 5.84001 16.1202 5.86001C16.1402 5.90001 15.9902 6.02001 15.8702 6.04001C15.9802 6.12001 16.1002 6.10001 15.9902 6.31001C15.7902 6.25001 15.8602 6.39001 15.8302 6.24001C15.8002 6.41001 15.6502 6.48001 15.9502 6.56001C15.6902 6.58001 15.6702 6.75001 15.7602 6.80001L15.9102 6.65001C15.9702 6.72001 15.9602 6.79001 15.9602 6.86001L15.6302 6.91001C15.3202 7.26001 16.4202 7.28001 15.7902 7.62001C16.0302 7.66001 15.9302 7.44001 16.2002 7.46001C16.1802 7.61001 15.7302 7.81001 15.7402 7.85001C15.5902 8.04001 16.2502 7.96001 16.1302 8.17001C16.2502 8.14001 16.5602 8.08001 16.6802 8.23001C16.6402 8.38001 16.1902 8.43001 16.0902 8.35001C16.0802 8.32001 16.1102 8.30001 16.1602 8.30001C16.1102 8.26001 16.0602 8.21001 15.9402 8.27001H16.0602C15.9402 8.35001 15.9702 8.53001 15.7702 8.50001C15.8902 8.59001 15.9702 8.54001 16.0202 8.46001C15.8502 8.64001 16.0502 8.73001 15.9102 8.90001C15.9802 8.87001 16.1202 8.85001 16.1202 8.88001C15.9602 9.13001 16.3402 9.00001 16.3802 9.18001C16.1902 9.27001 15.9502 9.12001 16.0902 9.31001C15.9602 9.41001 15.7702 9.31001 15.6802 9.26001C15.9002 9.43001 15.5202 9.53001 15.4602 9.60001L15.3802 9.51001C15.4302 9.56001 15.4202 9.60001 15.4102 9.63001H15.6502C15.6502 9.63001 15.5902 9.70001 15.4902 9.68001C15.6402 9.75001 15.8902 9.70001 16.0802 9.83001C15.9502 9.88001 16.1702 10.05 15.8602 10.02C16.0002 9.84001 15.5402 9.98001 15.5202 9.81001C15.5502 9.85001 15.5402 9.88001 15.4902 9.92001C15.4502 9.92001 15.4302 9.90001 15.4102 9.89001C15.1002 10.01 15.7502 10.04 15.7002 10.23C15.5302 10.17 15.3602 10.2 15.4002 10.23C15.4102 10.16 15.7002 10.26 15.8102 10.37C15.6402 10.46 15.8702 10.53 15.8302 10.59L15.9202 10.53C16.0802 10.6 16.0402 10.66 16.0702 10.77C15.9402 10.74 16.0002 10.66 15.9402 10.68C16.2102 10.87 15.5602 10.8 15.7202 11C15.5902 11.02 15.4002 10.89 15.3102 10.92C15.4802 11.15 15.0202 10.97 15.1402 11.18C15.3802 11.24 15.3302 11.2 15.4902 11.4L15.4502 11.09L15.7002 11.38C15.7402 11.3 15.6402 11.16 15.7002 11.13C15.8502 11.28 15.7902 11.25 15.9902 11.28C15.6102 11.25 16.0802 11.58 15.8002 11.6L15.2702 11.35C14.9502 11.39 15.4202 11.8 15.1402 11.94L15.2702 11.92C15.4502 12.07 15.2102 12.07 15.2502 12.19C15.0902 12.08 15.0002 12.08 14.8802 12.04C15.0002 12.12 14.7702 12.18 15.0802 12.43L14.8102 12.37C14.6102 12.46 15.1102 12.89 14.9202 13.01C14.8002 12.83 14.6302 12.8 14.6002 12.61C14.5602 12.66 14.4902 12.68 14.6002 12.77C14.4802 12.72 14.6802 13.09 14.5002 13.01C14.5502 13.09 14.6902 13.24 14.6302 13.29C14.6002 13.27 14.5602 13.22 14.5602 13.22C14.6302 13.29 14.5702 13.4 14.7802 13.5C14.1902 13.21 14.3502 13.95 13.8702 13.67C13.8002 13.81 13.6802 13.96 13.5802 14.06C13.5502 14.01 13.5202 13.98 13.5602 13.98C13.3102 13.94 13.7902 14.51 13.4902 14.47C13.2302 14.27 13.4902 14.26 13.3702 14.2C13.0002 13.68 13.2102 14.42 12.8802 14.16V14.11C12.6902 13.97 12.7802 14.45 12.6002 14.5C12.6002 14.5 12.5802 14.44 12.5602 14.41C12.6102 14.77 12.4302 14.96 12.3002 15.11C12.2502 14.85 12.3202 14.96 12.1902 14.73C12.1302 14.79 12.3802 15.1 12.2502 15.23C12.1502 15.12 12.0002 15.05 11.8802 14.8L12.0102 14.73C11.8102 14.43 11.8402 14.81 11.7502 14.79L11.7002 14.64C11.5202 14.77 11.6402 15.13 11.3902 15.18L11.4502 15.29C11.4302 15.7 11.2802 15.11 11.2302 15.43L11.0902 15.06C11.0402 15.18 10.8902 15.52 10.7402 15.61C10.7702 15.31 10.9102 15.13 10.9702 14.92C10.8902 14.95 10.7002 15.02 10.7002 15.21C10.7302 15.17 10.7502 15.06 10.7902 15.12C10.7602 15.44 10.6402 15.62 10.4702 15.65C10.3702 14.89 9.99023 15.55 9.79023 14.96C9.53023 15.26 9.21023 14.91 8.88023 14.93C9.00023 15.53 8.78023 14.95 8.80023 15.56C8.72023 15.6 8.68023 15.59 8.68023 15.55L8.45023 15.18C8.40023 15 8.53023 15.05 8.53023 14.91C8.36023 14.86 8.47023 14.66 8.38023 14.48C8.38023 14.7 8.30023 14.79 8.21023 14.69L8.32023 14.99C8.05023 15.28 8.17023 14.45 7.90023 14.75L8.00023 14.57C7.87023 14.67 7.58023 14.52 7.37023 14.96C7.37023 14.89 7.37023 14.72 7.43023 14.68C7.18023 14.55 6.66023 15.05 6.54023 14.66L6.61023 14.53C6.55023 14.55 6.43023 14.76 6.42023 14.6C6.44023 14.54 6.49023 14.47 6.47023 14.45C6.43023 14.49 6.24023 14.65 6.21023 14.54L6.33023 14.4C6.15023 14.14 5.79023 14.6 5.50023 14.58C5.70023 14.18 5.57023 13.98 5.52023 13.85L5.55023 13.8C5.34023 13.58 4.90023 13.84 4.56023 13.76C4.73023 13.26 4.20023 13.21 4.22023 12.79C4.19023 12.88 3.96023 13.01 3.89023 13C3.91023 12.89 3.53023 13.05 3.84023 12.8V12.82C4.13023 12.53 3.94023 12.5 3.90023 12.4L3.46023 12.7C3.94023 12.02 2.77023 12.18 3.32023 11.69C3.17023 11.69 3.13023 11.61 2.98023 11.6L3.24023 11.48C3.22023 11.28 3.21023 11.18 3.07023 10.98L3.28023 10.95C3.26023 10.82 2.46023 11.07 2.39023 10.94L2.78023 10.77C2.68023 10.54 3.01023 10.21 2.58023 10.06C2.64023 10.06 2.76023 10.03 2.79023 10.06C2.77023 9.95001 2.98023 9.59001 2.42023 9.72001C2.79023 9.66001 2.42023 9.47001 2.25023 9.34001H2.53023C2.16023 9.26001 2.07023 9.26001 1.95023 9.10001C1.98023 9.06001 2.17023 9.05001 2.10023 9.10001C2.23023 8.96001 1.83023 9.01001 1.97023 8.84001L2.15023 8.89001C2.17023 8.76001 2.08023 8.77001 1.87023 8.70001C1.76023 8.61001 1.94023 8.44001 2.19023 8.42001C2.04023 8.40001 1.83023 8.32001 1.90023 8.24001C2.00023 8.24001 2.05023 8.26001 2.08023 8.28001C2.27023 8.07001 1.78023 7.92001 2.07023 7.79001C2.16023 7.79001 2.21023 7.79001 2.24023 7.78001C2.22023 7.95001 2.19023 8.10001 2.17023 8.08001C2.43023 8.09001 2.49023 7.96001 2.83023 8.08001C2.65023 7.97001 2.25023 7.74001 2.38023 7.61001C2.41023 7.61001 2.43023 7.61001 2.47023 7.61001L2.50023 7.63001C2.50023 7.63001 2.50023 7.57001 2.47023 7.54001C2.52023 7.50001 2.55023 7.48001 2.56023 7.44001C2.77023 7.45001 2.70023 7.30001 2.72023 7.24001C2.44023 7.20001 2.50023 7.12001 2.26023 7.16001C2.28023 7.16001 2.29023 7.18001 2.29023 7.23001C2.29023 7.24001 2.29023 7.25001 2.31023 7.26001H2.29023C2.29023 7.26001 2.29023 7.36001 2.29023 7.43001C2.15023 7.35001 2.04023 7.28001 2.21023 7.22001C2.04023 7.16001 1.86023 7.08001 1.78023 7.04001C2.19023 7.00001 2.43023 6.86001 2.67023 6.89001C2.55023 6.65001 2.67023 6.39001 2.22023 6.11001C2.17023 6.03001 2.39023 6.08001 2.47023 6.09001C2.51023 6.14001 2.49023 6.18001 2.56023 6.22001C2.47023 6.06001 2.62023 5.86001 2.28023 5.70001C2.49023 5.60001 2.57023 5.90001 2.58023 5.67001L2.67023 5.74001C3.03023 5.65001 2.87023 5.42001 2.75023 5.17001C2.62023 4.92001 2.54023 4.65001 2.99023 4.62001C2.93023 4.62001 2.91023 4.63001 2.85023 4.61001C3.38023 4.31001 3.19023 3.45001 3.96023 3.38001C4.14023 3.34001 3.97023 3.17001 3.91023 2.98001L4.15023 3.16001L4.01023 2.80001C4.00023 2.44001 4.80023 3.09001 4.69023 2.55001L4.53023 2.42001C4.63023 2.38001 4.71023 2.11001 4.83023 2.31001C4.82023 2.27001 4.73023 2.12001 4.83023 2.19001L4.92023 2.32001L4.98023 1.96001C5.21023 1.96001 5.30023 2.50001 5.54023 2.38001C5.59023 2.28001 5.55023 1.83001 5.47023 1.75001C5.43023 1.77001 5.33023 1.72001 5.25023 1.59001L5.30023 1.46001C5.09023 1.04001 4.95023 0.57001 4.53023 0.45001L4.50023 0.80001L4.32023 0.64001L4.46023 0.53001C4.27023 0.40001 4.31023 0.60001 4.32023 0.74001C4.24023 0.65001 4.17023 0.59001 4.11023 0.58001L4.19023 1.06001C4.06023 0.92001 4.06023 0.71001 3.89023 0.71001C3.93023 0.93001 4.20023 1.00001 4.15023 1.19001C3.95023 1.07001 3.86023 0.91001 3.88023 1.13001C3.80023 1.04001 3.77023 0.97001 3.77023 0.90001C3.77023 1.08001 3.59023 1.13001 3.71023 1.35001C3.47023 1.21001 3.49023 1.62001 3.21023 1.28001C3.25023 1.38001 3.30023 1.66001 3.24023 1.73001C3.00023 1.22001 2.97023 1.95001 2.60023 1.53001C2.85023 1.96001 2.43023 2.03001 2.48023 2.37001C2.46023 2.34001 2.42023 2.27001 2.45023 2.27001C2.34023 2.34001 2.19023 2.27001 2.08023 2.29001C2.38023 2.55001 2.33023 2.76001 2.47023 2.99001C2.08023 2.89001 2.15023 2.64001 1.84023 2.46001C2.10023 2.65001 1.94023 2.87001 2.18023 2.98001C1.92023 2.94001 2.03023 3.00001 1.73023 2.86001C2.12023 3.15001 1.73023 3.00001 1.93023 3.24001C1.63023 3.24001 1.51023 3.03001 1.54023 3.27001C1.37023 3.27001 1.30023 3.03001 1.30023 3.03001L1.34023 3.15001ZM0.700234 7.60001C0.700234 7.60001 0.700234 7.53001 0.700234 7.51001C0.700234 7.53001 0.700234 7.55001 0.710234 7.60001H0.700234ZM0.670234 7.96001C0.670234 7.96001 0.690234 7.86001 0.700234 7.81001C0.800234 7.81001 0.900234 7.83001 0.890234 7.86001C0.830234 7.84001 0.760234 7.91001 0.680234 7.96001H0.670234ZM2.67023 7.50001C2.67023 7.50001 2.65023 7.56001 2.59023 7.56001C2.59023 7.54001 2.59023 7.51001 2.57023 7.48001H2.54023C2.59023 7.48001 2.64023 7.49001 2.68023 7.51001L2.67023 7.50001Z" fill="#004AAD"/>
<path d="M2.33023 7.34996C2.33023 7.34996 2.31023 7.33996 2.31023 7.32996C2.28023 7.32996 2.26023 7.33996 2.24023 7.34996L2.32023 7.37996V7.34996H2.33023Z" fill="#004AAD"/>
<path d="M15.4805 4.86998C15.4805 4.86998 15.4905 4.85998 15.5105 4.84998C15.5005 4.84998 15.4905 4.86998 15.4805 4.86998Z" fill="#004AAD"/>
<path d="M1.14965 13.01L1.20965 12.98H1.13965L1.14965 13.01Z" fill="#004AAD"/>
<path d="M15.2305 2.82C15.2305 2.82 15.2605 2.78 15.2705 2.75C15.2605 2.76 15.2405 2.79 15.2305 2.82Z" fill="#004AAD"/>
<path d="M14.6997 2.17001L14.6797 2.01001C14.6797 2.09001 14.6797 2.13001 14.6997 2.17001Z" fill="#004AAD"/>
<path d="M14.3097 1.63C14.3097 1.63 14.2497 1.69 14.2197 1.71L14.3097 1.63Z" fill="#004AAD"/>
<path d="M17.71 11.13C17.71 11.13 17.71 11.15 17.71 11.16C17.74 11.24 17.74 11.19 17.71 11.13Z" fill="#004AAD"/>
<path d="M17.3203 7.97005C17.3703 8.00005 17.4203 8.02005 17.4603 8.05005C17.4803 7.99005 17.4803 7.95005 17.3203 7.97005Z" fill="#004AAD"/>
<path d="M16.1899 14.5601L16.1699 14.5801L16.1899 14.5601Z" fill="#004AAD"/>
<path d="M17.4596 8.20006C17.5096 8.14006 17.4996 8.10006 17.4596 8.06006C17.4396 8.11006 17.4196 8.16006 17.4596 8.20006Z" fill="#004AAD"/>
<path d="M11.8596 0.0899463L11.8296 0.0699463C11.8296 0.0699463 11.8196 0.0999463 11.8096 0.109946L11.8596 0.0899463Z" fill="#004AAD"/>
<path d="M11.8098 0.109985L11.7598 0.129985C11.7598 0.129985 11.7898 0.129985 11.8098 0.109985Z" fill="#004AAD"/>
<path d="M11.6699 0.170012L11.7599 0.120012C11.7599 0.120012 11.7099 0.0900122 11.6699 0.170012Z" fill="#004AAD"/>
<path d="M12.6299 0.549961L12.6799 0.459961C12.6799 0.459961 12.6499 0.509961 12.6299 0.549961Z" fill="#004AAD"/>
<path d="M12.8904 0.630013C12.8904 0.630013 12.8404 0.370013 12.7304 0.390013L12.6904 0.460013C12.8004 0.340013 12.7604 0.760013 12.9004 0.630013H12.8904Z" fill="#004AAD"/>
<path d="M13.1098 2.24996C13.0798 2.18996 13.0398 2.12996 12.9998 2.07996C12.9698 2.18996 12.9198 2.32996 12.8398 2.30996C12.8498 2.69996 12.9398 2.07996 13.1198 2.25996L13.1098 2.24996Z" fill="#004AAD"/>
<path d="M13.4701 2.73998C13.3601 2.71998 13.3701 2.85998 13.3301 2.89998C13.4401 2.85998 13.4701 2.84998 13.4701 2.73998Z" fill="#004AAD"/>
<path d="M15.8201 6.18005L15.5801 6.26005C15.6401 6.32005 15.6701 6.23005 15.8201 6.18005Z" fill="#004AAD"/>
<path d="M17.3405 6.63001L17.4705 6.51001L17.2305 6.53001L17.3405 6.63001Z" fill="#004AAD"/>
<path d="M15.6699 7.50999L15.6299 7.48999L15.7399 7.58999L15.6699 7.50999Z" fill="#004AAD"/>
<path d="M13.8203 13.42L14.0403 13.64C14.0403 13.56 13.8203 13.29 13.8203 13.42Z" fill="#004AAD"/>
<path d="M11.4097 15.09C11.3297 14.95 11.2197 14.88 11.2197 15.04C11.2897 15.04 11.3897 15.14 11.4097 15.09Z" fill="#004AAD"/>
<path d="M3.76 12.45L3.88 12.44L3.75 12.4L3.76 12.45Z" fill="#004AAD"/>
</g>
<defs>
<clipPath id="clip0_62_225">
<rect width="18.01" height="17.64" fill="white"/>
</clipPath>
</defs>
</svg>
