<svg width="22" height="24" viewBox="0 0 22 24" fill="none" xmlns="http://www.w3.org/2000/svg">
<g id="Group">
<path id="Vector" d="M6.53496 5.02326C6.07729 5.02326 5.69775 4.64372 5.69775 4.18605V0.837209C5.69775 0.379535 6.07729 0 6.53496 0C6.99264 0 7.37217 0.379535 7.37217 0.837209V4.18605C7.37217 4.64372 6.99264 5.02326 6.53496 5.02326Z" fill="#2F80ED"/>
<path id="Vector_2" d="M15.4651 5.02326C15.0075 5.02326 14.6279 4.64372 14.6279 4.18605V0.837209C14.6279 0.379535 15.0075 0 15.4651 0C15.9228 0 16.3023 0.379535 16.3023 0.837209V4.18605C16.3023 4.64372 15.9228 5.02326 15.4651 5.02326Z" fill="#2F80ED"/>
<path id="Vector_3" d="M7.09284 14.7908C6.94773 14.7908 6.80261 14.7573 6.66866 14.7015C6.52354 14.6457 6.41191 14.5676 6.30028 14.4671C6.09935 14.255 5.97656 13.9759 5.97656 13.6745C5.97656 13.5294 6.01005 13.3843 6.06586 13.2503C6.12168 13.1164 6.19982 12.9936 6.30028 12.882C6.41191 12.7815 6.52354 12.7034 6.66866 12.6476C7.07052 12.4801 7.57284 12.5694 7.8854 12.882C8.08633 13.0941 8.20912 13.3843 8.20912 13.6745C8.20912 13.7415 8.19796 13.8196 8.18679 13.8978C8.17563 13.9648 8.15331 14.0317 8.11982 14.0987C8.09749 14.1657 8.064 14.2327 8.01935 14.2996C7.98586 14.3555 7.93005 14.4113 7.8854 14.4671C7.67331 14.668 7.38307 14.7908 7.09284 14.7908Z" fill="#2F80ED"/>
<path id="Vector_4" d="M10.9998 14.7906C10.8547 14.7906 10.7096 14.7571 10.5756 14.7013C10.4305 14.6455 10.3189 14.5673 10.2073 14.4669C10.0063 14.2548 9.88354 13.9757 9.88354 13.6743C9.88354 13.5292 9.91703 13.3841 9.97285 13.2501C10.0287 13.1162 10.1068 12.9934 10.2073 12.8817C10.3189 12.7813 10.4305 12.7031 10.5756 12.6473C10.9775 12.4687 11.4798 12.5692 11.7924 12.8817C11.9933 13.0938 12.1161 13.3841 12.1161 13.6743C12.1161 13.7413 12.1049 13.8194 12.0938 13.8976C12.0826 13.9645 12.0603 14.0315 12.0268 14.0985C12.0045 14.1655 11.971 14.2324 11.9263 14.2994C11.8928 14.3552 11.837 14.411 11.7924 14.4669C11.5803 14.6678 11.2901 14.7906 10.9998 14.7906Z" fill="#2F80ED"/>
<path id="Vector_5" d="M14.9071 14.7906C14.7619 14.7906 14.6168 14.7571 14.4829 14.7013C14.3377 14.6455 14.2261 14.5673 14.1145 14.4669C14.0698 14.411 14.0252 14.3552 13.9805 14.2994C13.9359 14.2324 13.9024 14.1655 13.8801 14.0985C13.8466 14.0315 13.8243 13.9645 13.8131 13.8976C13.8019 13.8194 13.7908 13.7413 13.7908 13.6743C13.7908 13.3841 13.9136 13.0938 14.1145 12.8817C14.2261 12.7813 14.3377 12.7031 14.4829 12.6473C14.8959 12.4687 15.387 12.5692 15.6996 12.8817C15.9005 13.0938 16.0233 13.3841 16.0233 13.6743C16.0233 13.7413 16.0122 13.8194 16.001 13.8976C15.9898 13.9645 15.9675 14.0315 15.934 14.0985C15.9117 14.1655 15.8782 14.2324 15.8336 14.2994C15.8001 14.3552 15.7443 14.411 15.6996 14.4669C15.4875 14.6678 15.1973 14.7906 14.9071 14.7906Z" fill="#2F80ED"/>
<path id="Vector_6" d="M7.09284 18.6976C6.94773 18.6976 6.80261 18.6642 6.66866 18.6084C6.5347 18.5526 6.41191 18.4743 6.30028 18.3738C6.09935 18.1617 5.97656 17.8715 5.97656 17.5813C5.97656 17.4362 6.01005 17.291 6.06586 17.1571C6.12168 17.012 6.19982 16.8893 6.30028 16.7888C6.71331 16.3758 7.47238 16.3758 7.8854 16.7888C8.08633 17.0009 8.20912 17.291 8.20912 17.5813C8.20912 17.8715 8.08633 18.1617 7.8854 18.3738C7.67331 18.5748 7.38307 18.6976 7.09284 18.6976Z" fill="#2F80ED"/>
<path id="Vector_7" d="M10.9998 18.6976C10.7096 18.6976 10.4194 18.5748 10.2073 18.3738C10.0063 18.1617 9.88354 17.8715 9.88354 17.5813C9.88354 17.4362 9.91703 17.291 9.97285 17.1571C10.0287 17.012 10.1068 16.8893 10.2073 16.7888C10.6203 16.3758 11.3794 16.3758 11.7924 16.7888C11.8928 16.8893 11.971 17.012 12.0268 17.1571C12.0826 17.291 12.1161 17.4362 12.1161 17.5813C12.1161 17.8715 11.9933 18.1617 11.7924 18.3738C11.5803 18.5748 11.2901 18.6976 10.9998 18.6976Z" fill="#2F80ED"/>
<path id="Vector_8" d="M14.9071 18.6976C14.6168 18.6976 14.3266 18.5748 14.1145 18.3739C14.014 18.2734 13.9359 18.1506 13.8801 18.0055C13.8243 17.8715 13.7908 17.7264 13.7908 17.5813C13.7908 17.4362 13.8243 17.2911 13.8801 17.1571C13.9359 17.012 14.014 16.8892 14.1145 16.7888C14.3712 16.532 14.7619 16.4092 15.1191 16.4874C15.1973 16.4985 15.2643 16.5208 15.3312 16.5543C15.3982 16.5767 15.4652 16.6102 15.5322 16.6548C15.588 16.6883 15.6438 16.7441 15.6996 16.7888C15.9005 17.0008 16.0233 17.2911 16.0233 17.5813C16.0233 17.8715 15.9005 18.1618 15.6996 18.3739C15.4875 18.5748 15.1973 18.6976 14.9071 18.6976Z" fill="#2F80ED"/>
<path id="Vector_9" d="M20.4883 9.58866H1.51153C1.05385 9.58866 0.674316 9.20913 0.674316 8.75145C0.674316 8.29378 1.05385 7.91425 1.51153 7.91425H20.4883C20.9459 7.91425 21.3255 8.29378 21.3255 8.75145C21.3255 9.20913 20.9459 9.58866 20.4883 9.58866Z" fill="#2F80ED"/>
<path id="Vector_10" d="M15.465 24H6.53482C2.4604 24 0.116211 21.6558 0.116211 17.5814V8.09298C0.116211 4.01856 2.4604 1.67438 6.53482 1.67438H15.465C19.5395 1.67438 21.8837 4.01856 21.8837 8.09298V17.5814C21.8837 21.6558 19.5395 24 15.465 24ZM6.53482 3.3488C3.34226 3.3488 1.79063 4.90042 1.79063 8.09298V17.5814C1.79063 20.7739 3.34226 22.3255 6.53482 22.3255H15.465C18.6576 22.3255 20.2092 20.7739 20.2092 17.5814V8.09298C20.2092 4.90042 18.6576 3.3488 15.465 3.3488H6.53482Z" fill="#2F80ED"/>
</g>
</svg>
