<svg width="20" height="20" viewBox="0 0 20 20" fill="none" xmlns="http://www.w3.org/2000/svg">
<g id="doctor-bag 1">
<path id="Vector" d="M11.6667 1.66666H8.33341C7.67037 1.66666 7.03449 1.93005 6.56565 2.39889C6.09681 2.86773 5.83341 3.50362 5.83341 4.16666V4.99999H4.16675C3.50371 4.99999 2.86782 5.26338 2.39898 5.73222C1.93014 6.20106 1.66675 6.83695 1.66675 7.49999V15.8333C1.66675 16.4964 1.93014 17.1322 2.39898 17.6011C2.86782 18.0699 3.50371 18.3333 4.16675 18.3333H15.8334C16.4965 18.3333 17.1323 18.0699 17.6012 17.6011C18.07 17.1322 18.3334 16.4964 18.3334 15.8333V7.49999C18.3334 6.83695 18.07 6.20106 17.6012 5.73222C17.1323 5.26338 16.4965 4.99999 15.8334 4.99999H14.1667V4.16666C14.1667 3.50362 13.9034 2.86773 13.4345 2.39889C12.9657 1.93005 12.3298 1.66666 11.6667 1.66666ZM7.50008 4.16666C7.50008 3.94564 7.58788 3.73368 7.74416 3.5774C7.90044 3.42112 8.1124 3.33332 8.33341 3.33332H11.6667C11.8878 3.33332 12.0997 3.42112 12.256 3.5774C12.4123 3.73368 12.5001 3.94564 12.5001 4.16666V4.99999H7.50008V4.16666ZM16.6667 7.49999V15.8333C16.6667 16.0543 16.579 16.2663 16.4227 16.4226C16.2664 16.5789 16.0544 16.6667 15.8334 16.6667H4.16675C3.94573 16.6667 3.73377 16.5789 3.57749 16.4226C3.42121 16.2663 3.33341 16.0543 3.33341 15.8333V7.49999C3.33341 7.27898 3.42121 7.06701 3.57749 6.91073C3.73377 6.75445 3.94573 6.66666 4.16675 6.66666H15.8334C16.0544 6.66666 16.2664 6.75445 16.4227 6.91073C16.579 7.06701 16.6667 7.27898 16.6667 7.49999Z" fill="white"/>
<path id="Vector_2" d="M10.8333 9.16666H9.16667V10.8333H7.5V12.5H9.16667V14.1667H10.8333V12.5H12.5V10.8333H10.8333V9.16666Z" fill="white"/>
</g>
</svg>
