<svg width="88" height="88" viewBox="0 0 88 88" fill="none" xmlns="http://www.w3.org/2000/svg">
<g id="firework 1" clip-path="url(#clip0_2_1007)">
<g id="Layer_2_00000065075017556049499070000000165513497331853238_">
<g id="celebration_firework">
<path id="Vector" d="M8.55942 80.8156L44.0344 66.2234C45.0141 65.8281 45.3407 64.6422 44.7563 63.6453C43.1063 60.8609 39.6344 55.4469 35.2344 51.0469C30.9719 46.7844 25.7985 43.5187 23.1 41.9547C22.1204 41.3875 20.9516 41.7312 20.5563 42.6937L5.94692 78.2031C5.31098 79.75 7.02973 81.4516 8.55942 80.8156Z" fill="#FCB424"/>
<path id="Vector_2" d="M44.9281 65.175C43.8796 66.2234 37.6234 62.2187 31.0921 55.6875C24.5609 49.1562 20.5562 42.8828 21.5875 41.8344C22.6359 40.7859 28.9265 44.7562 35.475 51.3047C42.0234 57.8531 45.9593 64.1437 44.9281 65.175Z" fill="#D67909"/>
<path id="Vector_3" d="M23.3063 74.7484L15.0219 78.1687L8.61096 71.7406L12.0141 63.4562L23.3063 74.7484Z" fill="#ED3F03"/>
<path id="Vector_4" d="M38.3281 68.5781L30.0438 71.9813L14.7812 56.7188L18.1844 48.4344L38.3281 68.5781Z" fill="#ED3F03"/>
<g id="Group">
<path id="Vector_5" d="M18.7 22.6016C20.1049 22.6016 21.2438 21.4627 21.2438 20.0578C21.2438 18.6529 20.1049 17.5141 18.7 17.5141C17.2951 17.5141 16.1562 18.6529 16.1562 20.0578C16.1562 21.4627 17.2951 22.6016 18.7 22.6016Z" fill="#FCB424"/>
<path id="Vector_6" d="M18.7 6.70312C20.1094 6.70312 21.2438 7.8375 21.2438 9.24687V13.9219C21.2438 15.3312 20.1094 16.4656 18.7 16.4656C17.3078 16.4656 16.1562 15.3312 16.1562 13.9219V9.24687C16.1562 7.8375 17.3078 6.70312 18.7 6.70312Z" fill="#FCB424"/>
<path id="Vector_7" d="M7.88909 17.5141H12.5641C13.9735 17.5141 15.1078 18.6484 15.1078 20.0578C15.1078 21.4672 13.9735 22.6016 12.5641 22.6016H7.88909C6.47971 22.6016 5.34534 21.4672 5.34534 20.0578C5.34534 18.6484 6.47971 17.5141 7.88909 17.5141Z" fill="#FCB424"/>
<path id="Vector_8" d="M18.7 23.65C20.1094 23.65 21.2438 24.7844 21.2438 26.1937V30.8687C21.2438 32.2781 20.1094 33.4125 18.7 33.4125C17.2906 33.4125 16.1562 32.2781 16.1562 30.8687V26.1937C16.1562 24.7844 17.3078 23.65 18.7 23.65Z" fill="#FCB424"/>
<path id="Vector_9" d="M24.836 17.5141H29.511C30.9204 17.5141 32.0547 18.6484 32.0547 20.0578C32.0547 21.4672 30.9204 22.6016 29.511 22.6016H24.836C23.4266 22.6016 22.2922 21.4672 22.2922 20.0578C22.2922 18.6484 23.4266 17.5141 24.836 17.5141Z" fill="#FCB424"/>
</g>
<path id="Vector_10" d="M73.0469 69.1281C74.4518 69.1281 75.5907 67.9892 75.5907 66.5844C75.5907 65.1795 74.4518 64.0406 73.0469 64.0406C71.642 64.0406 70.5032 65.1795 70.5032 66.5844C70.5032 67.9892 71.642 69.1281 73.0469 69.1281Z" fill="#00C853"/>
<path id="Vector_11" d="M73.0469 53.2297C74.4563 53.2297 75.5907 54.364 75.5907 55.7734V60.4484C75.5907 61.8578 74.4563 62.9922 73.0469 62.9922C71.6375 62.9922 70.5032 61.8578 70.5032 60.4484V55.7734C70.5032 54.364 71.6375 53.2297 73.0469 53.2297Z" fill="#00C853"/>
<path id="Vector_12" d="M62.2359 64.0406H66.9109C68.3203 64.0406 69.4546 65.175 69.4546 66.5844C69.4546 67.9937 68.3203 69.1281 66.9109 69.1281H62.2359C60.8265 69.1281 59.6921 67.9937 59.6921 66.5844C59.6921 65.175 60.8265 64.0406 62.2359 64.0406Z" fill="#00C853"/>
<path id="Vector_13" d="M73.0469 70.1766C74.4563 70.1766 75.5907 71.311 75.5907 72.7203V77.3953C75.5907 78.8047 74.4563 79.9391 73.0469 79.9391C71.6375 79.9391 70.5032 78.8047 70.5032 77.3953V72.7203C70.5032 71.311 71.6375 70.1766 73.0469 70.1766Z" fill="#00C853"/>
<path id="Vector_14" d="M79.1828 64.0406H83.8578C85.2672 64.0406 86.4015 65.175 86.4015 66.5844C86.4015 67.9937 85.2672 69.1281 83.8578 69.1281H79.1828C77.7734 69.1281 76.639 67.9937 76.639 66.5844C76.639 65.175 77.7734 64.0406 79.1828 64.0406Z" fill="#00C853"/>
<path id="Vector_15" d="M69.4546 19.0094C70.8595 19.0094 71.9984 17.8705 71.9984 16.4656C71.9984 15.0608 70.8595 13.9219 69.4546 13.9219C68.0498 13.9219 66.9109 15.0608 66.9109 16.4656C66.9109 17.8705 68.0498 19.0094 69.4546 19.0094Z" fill="#07B7EE"/>
<path id="Vector_16" d="M69.4546 3.11093C70.864 3.11093 71.9984 4.24531 71.9984 5.65468V10.3297C71.9984 11.7391 70.864 12.8734 69.4546 12.8734C68.0453 12.8734 66.9109 11.7391 66.9109 10.3297V5.65468C66.9109 4.24531 68.0625 3.11093 69.4546 3.11093Z" fill="#07B7EE"/>
<path id="Vector_17" d="M56.1 16.4656C56.1 15.0563 57.2344 13.9219 58.6437 13.9219H63.3187C64.7281 13.9219 65.8625 15.0563 65.8625 16.4656C65.8625 17.875 64.7281 19.0094 63.3187 19.0094H58.6437C57.2515 19.0094 56.1 17.875 56.1 16.4656Z" fill="#07B7EE"/>
<path id="Vector_18" d="M69.4546 29.8203C68.0453 29.8203 66.9109 28.6859 66.9109 27.2766V22.6016C66.9109 21.1922 68.0453 20.0578 69.4546 20.0578C70.864 20.0578 71.9984 21.1922 71.9984 22.6016V27.2766C72.0156 28.6859 70.864 29.8203 69.4546 29.8203Z" fill="#07B7EE"/>
<path id="Vector_19" d="M82.8266 16.4656C82.8266 17.875 81.6922 19.0094 80.2828 19.0094H75.6078C74.1985 19.0094 73.0641 17.875 73.0641 16.4656C73.0641 15.0563 74.1985 13.9219 75.6078 13.9219H80.2828C81.675 13.9219 82.8266 15.0563 82.8266 16.4656Z" fill="#07B7EE"/>
<path id="Vector_20" d="M28.8234 52.1984C27.5172 51.7 26.8469 50.2391 27.3453 48.9156C27.5859 48.2969 28.0328 47.7984 28.6344 47.5234C30.8516 46.475 33.5672 44.7563 33.9109 42.5047C34.2375 40.425 32.4672 38.225 31.7109 37.5203C30.9031 36.85 26.4 32.7766 27.4484 28.2391C28.1531 25.2141 31.0062 23.0656 35.9391 21.8797C39.2047 21.0891 40.5453 20.0578 40.7 19.3359C40.9406 18.2703 39.3422 16.2766 38.1219 15.2797C37.0391 14.3859 36.8844 12.7875 37.7781 11.7047C38.6547 10.6391 40.2359 10.4672 41.3187 11.3266C41.8687 11.7734 46.6812 15.8297 45.65 20.4359C44.9625 23.4609 42.1094 25.5922 37.125 26.7953C33.8937 27.5688 32.5531 28.6344 32.3812 29.3563C32.1234 30.4734 33.7734 32.6047 35.0109 33.6531L35.0969 33.7219C35.2859 33.8938 39.7031 38.0016 38.9125 43.2266C38.3797 46.8188 35.6297 49.7922 30.7828 52.0953C30.1812 52.4219 29.4594 52.4391 28.8234 52.1984Z" fill="#00C853"/>
<path id="Vector_21" d="M60.8094 87.8281C60.2079 88.0516 59.5547 88.0688 58.936 87.8625C57.6985 87.4328 57.2172 86.1438 57.8532 85.0094C58.9532 83.0328 60.036 80.3172 58.9704 78.7016C57.9735 77.2063 55.2751 76.8797 54.261 76.8797C53.2297 76.9312 47.2657 77.0688 45.3579 73.5969C44.086 71.2766 45.0313 68.2172 48.1594 64.5219C50.2219 62.0813 50.6516 60.6203 50.3594 60.0875C49.9126 59.2797 47.4547 58.9703 45.9251 59.0734C44.5501 59.1766 43.4501 58.2656 43.4844 57.0625C43.5188 55.8594 44.6704 54.7938 46.0454 54.6906C46.7501 54.6391 52.9204 54.3125 54.8969 57.8188C56.186 60.1219 55.2235 63.1813 52.061 66.9109C50.0157 69.3344 49.6032 70.7953 49.9126 71.3453C50.3766 72.2047 52.9375 72.5484 54.536 72.4625H54.6563C54.9141 72.4625 60.8094 72.3938 63.336 76.1406C65.0719 78.7188 64.7282 82.225 62.3219 86.5734C61.961 87.175 61.4282 87.6047 60.8094 87.8281Z" fill="#FCB424"/>
<path id="Vector_22" d="M46.9907 51.2016C45.6328 51.15 44.5844 49.9985 44.636 48.6406C44.6532 48.0563 44.8938 47.4891 45.2891 47.0594C45.4266 46.9047 48.7782 43.3469 55 40.2188C58.6438 38.3969 62.511 37.0906 66.5157 36.3344C71.6547 35.3891 76.9141 35.3031 82.0703 36.0766C83.411 36.2656 84.3391 37.5203 84.15 38.861C83.961 40.2016 82.7063 41.1297 81.3657 40.9406C72.7719 39.686 64.711 40.8891 57.4063 44.5156C51.9063 47.2313 48.9329 50.3766 48.8985 50.3938C48.4172 50.961 47.7125 51.236 46.9907 51.2016Z" fill="#9266CC"/>
<path id="Vector_23" d="M12.1 55.6875C11.8594 55.6875 11.6188 55.6531 11.3953 55.5844C10.0891 55.1891 9.35002 53.8313 9.74533 52.525C10.6219 49.4656 11.275 46.3375 11.7391 43.175C12.6328 36.7125 11.7906 33.4813 10.725 32.6047C9.86564 31.9 7.8547 32.3125 5.2422 33.7219C4.03908 34.375 2.54377 33.9281 1.90783 32.725C1.2547 31.5219 1.70158 30.0266 2.9047 29.3906C7.56252 26.8641 11.2406 26.6578 13.836 28.7719C16.775 31.1609 17.686 36.1109 16.6031 43.8969C16.1219 47.2828 15.4 50.6344 14.4547 53.9172C14.1453 54.9656 13.1828 55.6875 12.1 55.6875Z" fill="#9266CC"/>
<path id="Vector_24" d="M52.9891 34.6672C54.7072 34.6672 56.1 33.2744 56.1 31.5563C56.1 29.8381 54.7072 28.4453 52.9891 28.4453C51.271 28.4453 49.8782 29.8381 49.8782 31.5563C49.8782 33.2744 51.271 34.6672 52.9891 34.6672Z" fill="#FCB424"/>
<path id="Vector_25" d="M49.8782 6.22188C51.5963 6.22188 52.9891 4.82906 52.9891 3.11094C52.9891 1.39281 51.5963 0 49.8782 0C48.16 0 46.7672 1.39281 46.7672 3.11094C46.7672 4.82906 48.16 6.22188 49.8782 6.22188Z" fill="#ED3F03"/>
<path id="Vector_26" d="M36.489 81.675C38.4255 81.675 39.9953 80.1052 39.9953 78.1688C39.9953 76.2323 38.4255 74.6625 36.489 74.6625C34.5526 74.6625 32.9828 76.2323 32.9828 78.1688C32.9828 80.1052 34.5526 81.675 36.489 81.675Z" fill="#9266CC"/>
<path id="Vector_27" d="M65.8797 52.3703C67.2276 52.3703 68.3203 51.2776 68.3203 49.9297C68.3203 48.5818 67.2276 47.4891 65.8797 47.4891C64.5318 47.4891 63.4391 48.5818 63.4391 49.9297C63.4391 51.2776 64.5318 52.3703 65.8797 52.3703Z" fill="#07B7EE"/>
<path id="Vector_28" d="M81.5203 8.88594C82.9916 8.88594 84.1843 7.6932 84.1843 6.22188C84.1843 4.75056 82.9916 3.55782 81.5203 3.55782C80.0489 3.55782 78.8562 4.75056 78.8562 6.22188C78.8562 7.6932 80.0489 8.88594 81.5203 8.88594Z" fill="#9266CC"/>
</g>
</g>
</g>
<defs>
<clipPath id="clip0_2_1007">
<rect width="88" height="88" fill="white"/>
</clipPath>
</defs>
</svg>
