<svg width="41" height="40" viewBox="0 0 41 40" fill="none" xmlns="http://www.w3.org/2000/svg">
<g id="like 1" clip-path="url(#clip0_6_335)">
<g id="Group">
<g id="Group_2">
<path id="Vector" d="M32.2418 7.04449H29.8935C29.2445 7.04449 28.7192 7.56965 28.7192 8.21871C28.7192 8.86769 29.2444 9.39293 29.8935 9.39293H32.2418C32.8908 9.39293 33.416 8.86777 33.416 8.21871C33.4159 7.56965 32.8908 7.04449 32.2418 7.04449Z" fill="#00D108"/>
</g>
</g>
<g id="Group_3">
<g id="Group_4">
<path id="Vector_2" d="M20.3762 2.99679L19.2021 0.648439C18.9097 0.0682054 18.2068 -0.164529 17.6265 0.123283C17.0463 0.413361 16.8112 1.11859 17.1014 1.69883L18.2756 4.04718C18.5653 4.62507 19.267 4.86249 19.8511 4.57234C20.4312 4.28226 20.6663 3.57703 20.3762 2.99679Z" fill="#00D108"/>
</g>
</g>
<g id="Group_5">
<g id="Group_6">
<path id="Vector_3" d="M28.0703 0.123269C27.4923 -0.164543 26.7849 0.0682695 26.4948 0.648425L25.3206 2.99678C25.0305 3.57701 25.2656 4.28217 25.8457 4.57232C26.4316 4.86326 27.1324 4.6231 27.4213 4.04717L28.5955 1.69881C28.8855 1.11858 28.6505 0.413347 28.0703 0.123269Z" fill="#00D108"/>
</g>
</g>
<g id="Group_7">
<g id="Group_8">
<path id="Vector_4" d="M15.8033 7.04449H13.455C12.806 7.04449 12.2808 7.56965 12.2808 8.21871C12.2808 8.86769 12.8059 9.39293 13.455 9.39293H15.8033C16.4523 9.39293 16.9776 8.86777 16.9776 8.21871C16.9776 7.56965 16.4523 7.04449 15.8033 7.04449Z" fill="#00D108"/>
</g>
</g>
<g id="Group_9">
<g id="Group_10">
<path id="Vector_5" d="M8.75821 18.8646H4.06142C3.41299 18.8646 2.88721 19.3903 2.88721 20.0388V38.8257C2.88721 39.4741 3.41291 39.9999 4.06142 39.9999H8.75813C9.40657 39.9999 9.93235 39.4742 9.93235 38.8257V20.0388C9.93235 19.3903 9.40673 18.8646 8.75821 18.8646Z" fill="#00D108"/>
</g>
</g>
<g id="Group_11">
<g id="Group_12">
<path id="Vector_6" d="M38.0894 21.9772C37.8823 20.1557 36.1808 18.8647 34.3476 18.8647H25.1933C25.9713 17.4716 26.3889 13.5315 26.3703 11.922C26.3396 9.2578 24.1333 7.1228 21.469 7.1228H20.5001C19.8511 7.1228 19.3259 7.64796 19.3259 8.29702C19.3259 11.0122 18.2686 15.9132 16.2747 17.9072C14.9326 19.2493 13.7852 19.7357 12.2808 20.4875V38.1061C14.5841 38.8738 17.5086 40 21.9662 40H29.6471C32.178 40 34.1491 37.656 33.1684 35.1795C34.6625 34.7724 35.7644 33.4021 35.7644 31.7807C35.7644 31.3231 35.6761 30.8852 35.5167 30.4827C38.0346 29.7967 38.9614 26.6877 37.2138 24.7356C37.8559 24.0183 38.2099 23.0372 38.0894 21.9772Z" fill="#00D108"/>
</g>
</g>
</g>
<defs>
<clipPath id="clip0_6_335">
<rect width="40" height="40" fill="white" transform="translate(0.5)"/>
</clipPath>
</defs>
</svg>
