<svg width="24" height="24" viewBox="0 0 24 24" fill="none" xmlns="http://www.w3.org/2000/svg">
<g id="location (2) 1">
<g id="layer1">
<path id="path1943" d="M11.5737 0C6.84967 0 3 3.85149 3 8.57557C3 11.9432 5.03142 15.6358 6.99807 18.5858C8.96472 21.5357 10.9342 23.7172 10.9342 23.7172C11.0146 23.8062 11.1127 23.8774 11.2223 23.926C11.3319 23.9747 11.4505 24 11.5704 24C11.6903 24 11.8089 23.9747 11.9185 23.926C12.0281 23.8774 12.1262 23.8062 12.2066 23.7172C12.2066 23.7172 14.1761 21.5357 16.1427 18.5858C18.1094 15.6358 20.1408 11.9432 20.1408 8.57557C20.1408 3.85149 16.2978 0 11.5737 0ZM11.5737 1.71444C15.3713 1.71444 18.4264 4.77802 18.4264 8.57557C18.4264 11.2084 16.6087 14.8002 14.718 17.6364C13.1454 19.9952 12.0585 21.1871 11.5737 21.7433C11.0901 21.1884 10.0014 19.9967 8.42786 17.6364C6.53708 14.8002 4.71442 11.2084 4.71442 8.57557C4.71442 4.77802 7.77621 1.71444 11.5737 1.71444ZM11.5737 5.1451C9.69021 5.1451 8.14324 6.69202 8.14324 8.57557C8.14324 10.4591 9.69021 12.0043 11.5737 12.0043C13.4573 12.0043 15.0026 10.4591 15.0026 8.57557C15.0026 6.69202 13.4573 5.1451 11.5737 5.1451ZM11.5737 6.85935C12.5307 6.85935 13.2882 7.61855 13.2882 8.57557C13.2882 9.53255 12.5307 10.2898 11.5737 10.2898C10.6168 10.2898 9.85933 9.53255 9.85933 8.57557C9.85933 7.61855 10.6168 6.85935 11.5737 6.85935Z" fill="#2F80ED"/>
</g>
</g>
</svg>
