<svg width="41" height="40" viewBox="0 0 41 40" fill="none" xmlns="http://www.w3.org/2000/svg">
<g id="star (5) 1" clip-path="url(#clip0_6_395)">
<path id="Vector" d="M40.3957 15.3438C40.1339 14.5339 39.4155 13.9586 38.5655 13.882L27.0205 12.8337L22.4552 2.14829C22.1186 1.36519 21.352 0.858276 20.5002 0.858276C19.6484 0.858276 18.8818 1.36519 18.5452 2.15012L13.98 12.8337L2.43303 13.882C1.58462 13.9604 0.868046 14.5339 0.604673 15.3438C0.341299 16.1538 0.584531 17.0422 1.22633 17.6022L9.95306 25.2556L7.37975 36.591C7.19145 37.4245 7.51495 38.286 8.20649 38.7859C8.57821 39.0544 9.01309 39.1912 9.45164 39.1912C9.82976 39.1912 10.2048 39.0892 10.5415 38.8878L20.5002 32.9358L30.4553 38.8878C31.1838 39.3261 32.1021 39.2861 32.7921 38.7859C33.4839 38.2845 33.8071 37.4226 33.6188 36.591L31.0455 25.2556L39.7722 17.6037C40.414 17.0422 40.6591 16.1553 40.3957 15.3438Z" fill="#FFC107"/>
</g>
<defs>
<clipPath id="clip0_6_395">
<rect width="40" height="40" fill="white" transform="translate(0.5)"/>
</clipPath>
</defs>
</svg>
