<svg width="24" height="24" viewBox="0 0 24 24" fill="none" xmlns="http://www.w3.org/2000/svg">
<g id="stethoscope (1) 1" clip-path="url(#clip0_6_261)">
<g id="Group">
<g id="Group_2">
<path id="Vector" d="M9.19725 0.934325L12.0002 0.934325L12.0002 2.68614L10.0732 2.68614L10.0732 5.98539C10.0732 8.8832 12.4309 11.2409 15.3287 11.2409C18.2265 11.2409 20.5841 8.88325 20.5841 5.98544L20.5841 2.68614L18.7155 2.68614L18.7155 0.934326L21.46 0.934326C21.9438 0.934326 22.3359 1.32644 22.3359 1.81023L22.3359 5.98544C22.3359 9.84939 19.1926 12.9927 15.3286 12.9927C11.4647 12.9927 8.32135 9.84939 8.32135 5.98543L8.32135 1.81023C8.32135 1.32643 8.71346 0.934325 9.19725 0.934325Z" fill="#2F80ED"/>
</g>
</g>
<g id="Group_3">
<g id="Group_4">
<path id="Vector_2" d="M5.78127 13.7226L5.78127 17.8686C5.78127 20.2835 7.74594 22.2482 10.1608 22.2482C12.5758 22.2482 14.5404 20.2835 14.5404 17.8686L14.5404 12.146L16.2922 12.146L16.2922 17.8686C16.2922 21.2494 13.5419 24 10.1608 24C6.78013 24 4.02946 21.2494 4.02946 17.8686L4.02946 13.7226L5.78127 13.7226Z" fill="#2F80ED"/>
</g>
</g>
<g id="Group_5">
<g id="Group_6">
<path id="Vector_3" d="M4.90507 8.05835C6.69251 8.05835 8.14624 9.51208 8.14624 11.2992C8.14624 13.0861 6.69251 14.5401 4.90535 14.5401C3.11819 14.5401 1.66446 13.0861 1.66418 11.2992C1.66423 9.51208 3.1182 8.05835 4.90507 8.05835ZM4.90535 12.7883C5.72665 12.7883 6.39471 12.1203 6.39471 11.2993C6.39471 10.4783 5.72669 9.81026 4.90535 9.81026C4.08433 9.81026 3.41632 10.4783 3.41632 11.2993C3.41632 12.1203 4.08433 12.7883 4.90535 12.7883Z" fill="#2F80ED"/>
</g>
</g>
<g id="Group_7">
<g id="Group_8">
<path id="Vector_4" d="M18.7447 -7.65741e-08C19.2285 -3.42793e-08 19.6206 0.392109 19.6206 0.875906L19.6206 2.74453C19.6206 3.22833 19.2285 3.62044 18.7447 3.62044C18.2609 3.62044 17.8688 3.22833 17.8688 2.74453L17.8688 0.875906C17.8688 0.392109 18.2609 -1.18869e-07 18.7447 -7.65741e-08Z" fill="#2F80ED"/>
</g>
</g>
<g id="Group_9">
<g id="Group_10">
<path id="Vector_5" d="M11.971 -7.65741e-08C12.4548 -3.42792e-08 12.8469 0.392109 12.8469 0.875906L12.8469 2.74453C12.8469 3.22833 12.4548 3.62044 11.971 3.62044C11.4872 3.62044 11.0951 3.22833 11.0951 2.74453L11.0951 0.875906C11.0951 0.392109 11.4872 -1.18869e-07 11.971 -7.65741e-08Z" fill="#2F80ED"/>
</g>
</g>
</g>
<defs>
<clipPath id="clip0_6_261">
<rect width="24" height="24" fill="white" transform="matrix(-1 -8.74228e-08 -8.74228e-08 1 24 0)"/>
</clipPath>
</defs>
</svg>
