<svg width="21" height="20" viewBox="0 0 21 20" fill="none" xmlns="http://www.w3.org/2000/svg">
<path d="M20.8881 7.48337C20.7182 6.96209 20.2674 6.58311 19.7242 6.504L14.2221 5.7045L11.7635 0.736687C11.2767 -0.245562 9.66773 -0.245562 9.18092 0.736687L6.72231 5.7045L1.23321 6.504C0.691592 6.58311 0.240796 6.96341 0.070864 7.48492C-0.0990684 8.00488 0.0421368 8.57678 0.435257 8.95973L4.4164 12.8401L3.47725 18.3149C3.3851 18.8549 3.60696 19.4023 4.05046 19.7249C4.49551 20.046 5.08464 20.088 5.56858 19.833L10.4717 17.2475L15.3891 19.833C15.5995 19.9439 15.8299 19.9987 16.0589 19.9987C16.357 19.9987 16.6551 19.905 16.9072 19.7251C17.3509 19.401 17.5726 18.8551 17.4804 18.3151L16.5428 12.8403L20.524 8.95995C20.9171 8.5781 21.0581 8.00488 20.8881 7.48337Z" fill="#F2BE04"/>
</svg>
