<svg width="47" height="47" viewBox="0 0 47 47" fill="none" xmlns="http://www.w3.org/2000/svg">
<g clip-path="url(#clip0_62_1952)">
<path d="M-0.011279 24.6848L11.8878 36.584C12.3153 37.0832 13.0665 37.1414 13.5656 36.7138C14.0647 36.2864 14.1229 35.5352 13.6954 35.0361C13.6555 34.9895 13.6121 34.9461 13.5656 34.9063L3.70122 25.0299L50.8101 25.03C51.4672 25.03 52 24.4972 52 23.84C52 23.1828 51.4672 22.6501 50.8101 22.6501L3.70122 22.6501L13.5656 12.7857C14.0647 12.3583 14.1229 11.6071 13.6954 11.1079C13.2678 10.6088 12.5167 10.5506 12.0176 10.9782C11.9711 11.0181 11.9276 11.0614 11.8878 11.1079L-0.0113818 23.0072C-0.47267 23.4711 -0.47267 24.2207 -0.011279 24.6848Z" fill="#006D2C"/>
</g>
<defs>
<clipPath id="clip0_62_1952">
<rect width="47" height="47" fill="white" transform="translate(47 47) rotate(-180)"/>
</clipPath>
</defs>
</svg>
