<svg width="71" height="71" viewBox="0 0 71 71" fill="none" xmlns="http://www.w3.org/2000/svg">
<g opacity="0.1" clip-path="url(#clip0_62_1942)">
<path d="M42.4765 54.3716C40.701 55.1162 39.9564 57.2354 40.7582 58.9537L43.5648 64.8532C44.3666 66.5136 46.314 67.2588 48.0323 66.5136C52.9008 64.4517 57.0819 61.7597 60.4039 58.4949C64.4705 54.658 67.2198 50.2478 68.709 45.3793C70.1981 40.453 71 33.7522 71 25.2181L71 7.63435C71 5.74424 69.4536 4.19778 67.5634 4.19778L45.0539 4.19778C43.1638 4.19778 41.6174 5.74424 41.6174 7.63435L41.6174 30.1438C41.6174 32.0345 43.1638 33.5804 45.0539 33.5804L55.8218 33.5804C55.7073 39.3659 54.3327 44.0047 51.8125 47.4991C49.7506 50.3045 46.6577 52.5955 42.4765 54.3716Z" fill="#006D2C"/>
<path d="M2.03965 54.3717C0.264087 55.1163 -0.47993 57.2355 0.321362 58.9538L3.12789 64.7953C3.92976 66.4564 5.87714 67.2009 7.59543 66.4564C12.4066 64.3944 16.5311 61.7024 19.9098 58.495C23.977 54.6002 26.7829 50.1899 28.2727 45.3215C29.7618 40.5109 30.5059 33.809 30.5059 25.2176L30.5059 7.63382C30.5059 5.74371 28.9594 4.19725 27.0693 4.19725L4.5598 4.19725C2.66969 4.19725 1.12323 5.7437 1.12323 7.63381L1.12323 30.1433C1.12323 32.034 2.66968 33.5799 4.55979 33.5799L15.385 33.5799C15.2704 39.3653 13.8952 44.0041 11.3756 47.4985C9.31371 50.3045 6.2208 52.5955 2.03965 54.3717Z" fill="#006D2C"/>
</g>
<defs>
<clipPath id="clip0_62_1942">
<rect width="71" height="71" fill="white" transform="translate(71 71) rotate(-180)"/>
</clipPath>
</defs>
</svg>
