<svg width="113" height="17" viewBox="0 0 113 17" fill="none" xmlns="http://www.w3.org/2000/svg">
<path d="M9.53154 10.0985C9.96711 10.2167 9.76608 9.42896 9.88334 9.03509C10.4194 8.95631 10.1011 9.6259 10.2687 10.0198C10.6037 9.90161 10.8885 9.27141 11.123 9.35019C11.123 9.46835 11.19 9.50774 11.123 9.66529C11.4916 9.15325 12.1617 9.82283 12.5972 9.15325C12.6307 9.23203 12.6307 9.27141 12.6475 9.35019C12.5972 8.95631 12.5972 8.60183 12.614 8.32612C12.815 8.32612 12.9993 7.93224 13.0495 8.40489C12.9323 8.40489 12.9155 8.56244 12.8485 8.6806L13.0663 8.52305C13.2338 9.23203 12.7815 8.71999 12.7648 9.23203C13.1836 9.07448 13.6694 8.60183 13.9709 8.83815C14.0212 9.50774 13.2338 8.95631 13.6359 9.58651L13.1668 9.23203C13.5019 10.3349 12.882 9.11386 13.1668 10.2955C13.8034 10.6106 13.8872 10.0592 14.507 10.3743C14.6578 10.0198 14.4735 9.82283 14.6243 9.46835C15.5457 8.91693 15.2944 11.2408 15.9645 10.453C16.1487 10.0198 16.2325 9.19264 16.6848 9.70467L16.5005 10.453C17.1204 10.6106 16.8691 9.42896 17.5057 10.0198C17.3884 10.2955 17.0199 10.2167 17.1036 10.2955C17.5057 10.9651 17.4052 9.90161 17.7235 9.941L17.7737 10.6106C18.4271 10.6106 19.1642 10.1773 19.8845 10.1379C19.8343 10.3349 19.717 10.5318 19.8845 10.7681C20.8059 10.4924 21.8278 11.0438 22.7157 11.4771L23.0675 10.9257C23.0675 10.9257 23.2015 11.2014 23.1177 11.3196C23.4528 11.5559 23.1345 10.9651 23.302 10.7287C23.503 10.7287 23.5533 11.0832 23.436 11.2408C24.0559 10.7681 25.1783 10.2955 25.7981 10.9257L25.6808 11.0832C26.1834 11.3589 26.2504 9.90161 26.7027 10.453L26.619 10.5712C27.6911 10.8469 28.8806 10.3349 29.7014 11.2408C29.8522 10.4136 30.7736 11.5953 30.8406 10.453C31.4604 11.0045 31.2761 11.2408 32.1473 11.5953C32.3818 11.6347 32.4823 10.8863 32.7839 10.7287V11.3196L33.1859 10.6894L33.4037 11.3983L33.6717 11.2408C33.5712 11.2408 33.4372 10.9651 33.454 10.8075C33.8728 10.5318 34.4758 11.2014 34.4926 11.5165L35.481 10.9651C35.4642 11.2014 35.2967 11.3196 35.1627 11.4771C35.682 10.8469 35.2632 12.1073 35.749 11.5165C35.682 11.3983 35.7825 11.162 35.7993 11.0438C36.0506 11.3983 36.5867 11.3983 37.0055 11.2014L36.9384 11.6347C37.6756 11.7134 38.4797 11.3589 39.3173 11.2802C39.0157 11.1226 39.0828 10.3743 39.3173 10.2955L39.4178 10.9257C39.5686 10.5318 39.1665 10.6894 39.4848 10.1773C39.7864 10.2167 39.7026 10.8863 39.5183 11.1226L39.8869 10.8863C39.8869 10.8863 39.8199 11.2014 39.8031 11.4377C39.9539 11.0438 40.4565 12.0285 40.6742 11.3196V11.5165C41.5286 11.4771 41.8972 11.2014 42.5673 11.1226C42.5673 10.5712 42.8353 10.65 43.0363 10.2167C43.5389 10.3349 44.0917 10.7287 44.6781 10.65C45.0969 10.3349 44.7953 10.1773 44.9796 9.82283C45.0131 10.3349 45.6162 10.2167 45.3146 10.6106C46.0182 10.453 46.2193 10.4136 47.1239 9.90161C47.0234 9.70467 46.9061 9.6259 46.9564 9.46835C47.1239 9.35019 47.3249 9.6259 47.3082 9.90161H47.2579C48.2463 9.11386 49.62 11.162 50.4074 10.0198H50.3571L51.178 9.42896C51.5633 9.46835 50.9602 9.82283 51.245 10.0985C52.1329 9.15325 52.6689 10.0198 53.406 9.38958C54.0091 10.8075 55.4498 8.9957 56.2372 9.82283L56.1869 9.46835C56.3712 9.11386 56.4382 9.6259 56.589 9.70467C56.5555 9.42896 56.3712 9.42896 56.4885 9.23203C58.1805 8.56244 60.0065 9.23203 61.7487 9.23203C62.3853 9.23203 62.0503 7.38082 62.8879 8.08979L62.6869 8.75938C63.9433 7.77469 65.3002 8.3655 66.5399 7.53837C66.4729 7.69592 66.4729 7.89286 66.3556 7.89286C66.6404 8.32612 67.3273 7.77469 67.3273 7.38082C67.5283 7.38082 67.3775 7.73531 67.5116 7.89286C67.7796 8.12918 68.1649 7.18389 68.3157 7.65653C68.3492 7.73531 68.2487 7.81408 68.1984 7.85347C68.3659 7.61715 69.0025 7.81408 68.8182 7.26266C69.2873 7.4596 69.7061 6.90817 70.0914 7.18389C70.326 6.55369 70.8955 7.38082 70.9625 6.5143C70.9625 7.42021 71.8002 7.10511 72.085 6.67185C71.9844 6.94756 72.353 6.90817 72.2357 7.30205C72.5708 7.26266 72.8891 7.06572 72.8053 6.59308C73.4419 7.57776 74.045 5.60839 74.4135 6.94756C75.4187 6.35675 76.3401 5.96288 77.2447 5.72656C77.2279 6.59308 76.2395 5.8841 76.2898 6.8294C77.1442 6.39614 77.63 5.60839 78.4844 5.76594C78.7021 5.8841 78.3671 6.15982 78.2833 6.31736C79.1377 5.92349 79.9418 6.31736 80.6957 5.84472C80.6957 5.92349 80.6119 6.00227 80.5282 6.08104C80.6789 6.08104 80.88 6.1992 80.8632 5.80533L80.7124 5.92349C80.4779 5.33268 81.3155 4.70249 81.3323 4.38739C81.081 5.52962 82.0861 4.6631 81.6841 6.12043C81.7846 6.04165 81.9019 5.84472 81.8851 5.56901C82.0359 5.64778 82.0861 5.80533 81.9354 6.12043C82.4714 5.92349 82.2872 5.49023 82.773 5.49023C82.773 5.68717 82.6725 5.76594 82.6222 6.00227C82.8735 5.60839 83.1248 5.25391 83.5268 5.41146C83.4933 5.52962 83.5436 5.68717 83.4263 5.68717C84.1299 5.68717 84.6493 4.74187 85.4199 5.13575C85.1853 5.96288 85.6879 5.45084 85.7047 6.15981L86.1235 5.96288L85.9559 5.60839C86.3245 5.64778 86.6595 5.13575 86.9611 5.41146L86.6763 5.68717L87.3631 5.60839L86.9778 5.29329C87.3631 4.9782 86.9611 4.348 87.4469 4.62371C87.3464 4.70249 87.8154 4.6631 87.9997 5.13575C88.184 4.93881 88.385 4.70249 88.6531 4.89942C88.7201 5.13575 88.5693 5.68717 88.6196 5.8841C88.8206 5.29329 89.4739 5.8841 89.7252 5.21452C89.6415 5.37207 89.6247 5.72655 89.6582 5.80533L89.8257 5.33268C89.9933 5.52962 90.01 5.60839 89.9765 5.8841C90.4791 6.04165 89.8425 4.93881 90.4288 5.41146C90.3786 5.41146 90.3953 5.52962 90.2948 5.56901C90.8979 5.8841 91.4842 5.49023 92.0203 5.84472C92.1543 6.63246 91.5345 5.92349 91.6852 6.59308C92.4894 6.59308 93.3772 6.08104 94.1479 6.47491L94.0138 6.35675C94.1814 5.33268 94.5667 7.02634 94.9855 6.67185C94.885 6.71124 94.8347 7.22327 94.8682 7.10511C95.3875 7.42021 95.9571 7.18389 96.778 7.10511L96.6607 7.34143C96.9622 7.69592 97.4648 7.77469 97.7999 8.01102C97.9171 7.77469 98.1014 7.89286 98.0176 7.4596C98.939 9.35019 100.045 7.4596 100.866 9.15325C100.765 9.11386 100.581 9.23202 100.681 9.3108L101.469 9.46835C101.452 8.9957 101.385 9.15325 101.268 8.71999C101.385 8.52305 101.636 8.40489 101.82 8.52305C101.435 8.64122 101.753 9.23203 101.887 9.54712C101.887 9.38958 101.938 9.27141 101.938 9.11386C102.273 10.0985 102.088 8.24734 102.591 9.11386L102.541 9.3108C102.759 9.3108 102.976 9.11386 103.194 9.3108C103.228 9.86222 102.943 9.42896 102.893 9.82283C103.211 9.98038 103.613 9.19264 103.831 9.86222C103.68 9.941 103.496 9.82283 103.345 9.86222C103.596 10.65 103.646 10.4924 103.864 10.7287H103.847L104.333 11.2802L104.216 11.0438C104.752 9.98038 105.037 11.3196 105.657 10.7681C105.054 11.2802 105.523 11.2014 105.405 11.7528C105.523 11.9891 105.69 12.3042 105.623 12.4224C105.925 12.1467 105.975 13.092 106.411 12.6587C106.411 12.8557 106.662 12.8557 106.561 13.2889C106.896 13.3677 106.528 12.9344 106.578 12.6981C107.148 12.383 107.617 14.313 108.421 13.9979C109.074 14.1161 109.275 13.604 109.878 13.801C110.012 14.2342 109.627 14.313 109.627 14.313C109.895 14.825 110.113 14.9826 110.431 15.022C110.347 15.1401 110.381 15.2977 110.431 15.5734C110.666 15.7309 110.682 15.0613 110.934 15.5734C110.85 15.7309 110.733 15.9673 110.599 16.0854C110.883 16.1642 111.202 16.0854 111.503 16.1642C111.52 16.5581 111.252 16.4793 111.135 16.5975C111.47 16.755 111.972 17.0701 112.157 16.6762L111.989 16.3217C112.106 16.4005 111.989 16.7944 111.872 16.7944C111.537 16.9125 111.52 16.2824 111.537 16.0854L111.755 16.1642C111.738 14.9432 110.934 15.5734 110.565 15.1795L110.85 14.5887L110.347 14.8644C110.297 14.5887 110.297 14.1161 110.515 14.1554C110.28 13.5252 110.213 14.1948 110.029 13.5646C110.012 13.4859 110.029 13.4465 110.063 13.4465H109.744C109.744 13.4465 109.778 12.8557 109.945 13.092C109.51 12.2255 109.041 12.9738 108.94 12.2255H108.99C108.237 11.9104 108.84 12.7375 108.22 12.9738L108.069 11.2802L107.918 11.7922C107.918 11.7922 107.717 11.5559 107.768 11.3589C107.449 11.5559 107.768 11.6347 107.567 11.9104C107.282 11.1226 106.561 11.4771 106.595 10.4924C106.411 10.8469 106.896 11.0832 106.478 11.1226C106.494 10.0592 106.025 10.9651 105.757 10.2955C105.925 9.86222 106.193 10.3349 105.925 9.66529C105.623 10.4136 105.305 9.07448 105.02 9.03509C104.92 9.74406 104.384 8.91693 103.898 8.87754C103.948 8.6806 103.06 8.01102 102.658 7.49898V7.38082C102.524 8.01102 102.088 7.65653 101.753 7.65653C101.804 7.22327 101.887 7.10511 102.072 6.98695L101.77 6.8294C101.67 7.02634 101.569 7.10511 101.368 7.06572L101.485 6.59308C101.067 6.39614 100.598 6.79001 100.095 6.1992C100.028 6.67185 100.396 7.77469 99.8102 7.85347C99.8102 7.57776 99.8269 7.10511 99.9777 7.06572C99.9274 7.06572 99.7934 7.22327 99.7096 7.06572L99.9777 6.71124C99.7599 6.39614 99.8269 7.02634 99.6259 6.90817C99.6594 6.5143 99.5086 6.55369 99.5589 6.27798C99.6091 6.27798 99.7096 6.5143 99.7934 6.39614C99.5756 6.23859 99.3411 5.8841 99.2741 5.56901C99.2741 5.80533 99.2406 6.08104 99.0731 6.08104C98.6542 5.96288 98.9725 5.56901 98.738 5.25391C98.6207 5.49023 98.3695 5.09636 98.3192 5.68717C98.2019 5.64778 98.2019 5.37207 98.1517 5.17513C97.9171 5.33268 97.1465 4.86003 97.3476 5.56901L97.3978 5.64778H97.3643C96.6272 6.00227 95.9236 4.78126 95.2033 4.86003V4.6631C94.7844 4.74187 94.2819 4.50555 93.9636 4.86003C93.8463 4.86003 93.6955 4.42677 93.7458 4.22984C93.4107 4.30861 93.3772 4.50555 92.9249 4.07229C93.26 3.79658 92.8244 3.75719 93.26 3.91474C92.8579 3.63903 92.7742 3.32393 92.3051 3.7178C92.4726 3.24515 92.0203 3.00883 91.8193 3.12699L92.1041 3.56025C91.8863 3.56025 91.6852 3.52087 91.4842 3.4027L91.6182 2.77251C90.7806 1.78782 90.0268 3.83596 89.4237 2.37863C89.1891 2.81189 89.876 2.77251 89.6582 3.28454C89.2729 3.12699 88.8876 2.14231 88.7536 2.10292C88.2175 1.66966 88.2343 3.00883 87.6647 2.69373C87.7317 2.93006 87.7819 3.56025 87.3631 3.7178C86.9778 3.59964 86.8941 2.69373 87.1454 2.53618C87.2459 2.53618 87.2794 2.61496 87.2794 2.69373C87.4134 2.61496 87.5809 2.53618 87.4301 2.26047L87.3799 2.4968C87.1956 2.22108 86.6428 2.22108 86.7768 1.82721C86.4753 2.02415 86.6428 2.1817 86.8606 2.33925C86.358 1.94537 86.0732 2.26047 85.5539 1.98476C85.6376 2.10292 85.7047 2.41802 85.6209 2.37863C84.867 2.02415 85.2858 2.81189 84.7665 2.85128C84.4817 2.4968 84.8838 2.02415 84.3645 2.26047C84.0462 1.98476 84.2974 1.63028 84.4315 1.47273C83.9456 1.90599 83.5436 1.11824 83.2756 1.03947L83.5268 0.842529C83.3761 0.960691 83.2588 0.960691 83.1248 0.960691L83.2588 1.43334C83.108 1.35456 82.9908 1.35456 82.9908 1.15763C82.84 1.47273 83.108 1.94537 82.8065 2.33925C82.6055 2.10292 82.2034 2.57557 82.1364 1.94537C82.7562 2.1817 82.0694 1.31518 82.5887 1.2364C82.4882 1.31518 82.3709 1.31518 82.2202 1.2364C82.2034 1.15763 82.2369 1.11824 82.2872 1.07885C81.7008 0.527431 82.0191 1.78782 81.3993 1.74844C81.483 1.39395 81.2653 1.07885 81.1647 1.15763C81.416 1.15763 81.282 1.74844 81.0642 2.02415C80.6789 1.74844 80.6454 2.22108 80.4276 2.1817L80.6622 2.29986C80.5784 2.65435 80.3941 2.61496 80.1094 2.73312C80.0926 2.45741 80.3606 2.53618 80.2601 2.41802C79.9586 3.04822 79.5733 1.78782 79.1545 2.22108C78.9534 1.98476 79.1377 1.5515 78.9534 1.39395C78.4844 1.8666 78.4341 0.921304 77.9483 1.35456C78.0991 1.82721 78.1158 1.70905 77.7808 2.1817L78.6016 1.82721L78.0823 2.53618C78.3336 2.53618 78.6016 2.22108 78.7524 2.29986C78.5011 2.69373 78.5346 2.57557 78.6519 2.96944C78.3168 2.26047 77.9818 3.4027 77.5965 2.96944V1.90599C77.0102 1.43334 76.5578 2.57557 75.804 2.33925L76.0553 2.53618C75.9548 3.00883 75.5862 2.65435 75.3517 2.85128C75.3684 2.45741 75.2177 2.33925 75.1004 2.10292C75.1171 2.37863 74.5476 2.10292 74.4805 2.93006L74.1287 2.45741C73.5089 2.29986 73.4419 3.63903 72.8556 3.56025C73.0231 3.12699 72.7551 2.89067 73.1404 2.53618C72.9393 2.53618 72.7718 2.53618 72.7718 2.77251C72.6545 2.53618 72.2357 3.36332 72.0515 3.00883C71.9677 3.20577 71.9509 3.59964 71.7332 3.59964C71.6997 3.52087 71.7332 3.4027 71.7332 3.4027C71.7332 3.59964 71.3981 3.7178 71.5991 4.11168C70.9625 2.96944 69.9072 4.42677 69.3543 3.44209C68.9355 3.63903 68.4162 3.83596 68.0309 3.91474C68.0476 3.79658 68.0309 3.7178 68.0979 3.75719C67.5451 3.48148 67.7963 4.93881 67.1765 4.62371C66.8415 4.0329 67.4948 4.22984 67.2938 4.0329C67.1765 2.77251 66.5567 4.30861 66.1379 3.63903L66.2384 3.56025C65.9201 3.16638 65.4845 4.15106 64.9652 4.15106C64.9652 4.15106 64.9819 4.0329 64.9652 3.95413C64.6301 4.6631 63.9768 4.9782 63.491 5.25391C63.625 4.74187 63.7088 4.93881 63.5915 4.46616C63.3737 4.58432 63.6753 5.25391 63.2397 5.49023C63.0889 5.25391 62.7706 5.05697 62.7036 4.50555L63.1224 4.42677C62.8879 3.75719 62.5864 4.54494 62.3686 4.42677V4.11168C61.7487 4.30861 61.7655 5.09636 61.0786 5.13575L61.1624 5.37207C60.8106 6.1992 60.8441 4.9782 60.4756 5.60839L60.3415 4.86003C60.107 5.09636 59.5039 5.76594 59.0516 5.96288C59.2861 5.33268 59.7887 4.9782 60.107 4.58432C59.8557 4.58432 59.2694 4.78126 59.1521 5.17513C59.2526 5.09636 59.3699 4.86003 59.4704 4.9782C59.1856 5.64778 58.8003 6.00227 58.3145 6.04165C58.3648 4.50555 57.0246 5.84472 56.6393 4.74187C55.7849 5.45084 54.9138 4.74187 53.9254 4.9782C54.3107 6.08104 53.6406 5.05697 53.7243 6.23859C53.4898 6.35675 53.406 6.35675 53.3725 6.23859L52.6522 5.60839C52.4679 5.29329 52.87 5.29329 52.8365 5.05697C52.3171 5.05697 52.6019 4.58432 52.2669 4.30861C52.3507 4.74187 52.0994 4.93881 51.8146 4.82065L52.2334 5.33268C51.5298 6.08104 51.5968 4.38739 50.8764 5.13575L51.0942 4.74187C50.7257 5.01758 49.7205 4.89942 49.3855 5.92349C49.3185 5.80533 49.2179 5.49023 49.3855 5.37207C48.4976 5.37207 47.4422 6.63246 46.7386 6.12043L46.8056 5.80533C46.6381 5.92349 46.5208 6.39614 46.3198 6.12043C46.3198 6.00227 46.3868 5.80533 46.3198 5.80533C46.236 5.92349 45.8842 6.35675 45.6664 6.23859L45.8507 5.8841C44.9796 5.60839 44.544 6.8294 43.8237 7.10511C43.8237 6.23859 43.1201 6.00227 42.785 5.92349V5.80533C41.7966 5.80533 41.093 6.67185 40.1717 7.06572C39.5853 6.15982 38.2116 6.79001 37.2735 6.31736C37.4243 6.47491 37.2567 6.98695 37.0892 7.10511C36.8714 6.94756 36.4861 7.73531 36.5196 6.94756H36.6034C36.4359 6.1992 35.9836 6.39614 35.6318 6.39614L35.5815 7.42021C34.6601 5.92349 33.1859 8.08979 32.6833 6.71124C32.4656 6.98695 32.1975 6.98695 31.9797 7.22327V6.67185C31.3767 6.55369 31.0751 6.47491 30.3213 6.59308L30.472 6.1992C30.0532 6.1992 29.936 7.81408 29.5339 7.85347L29.4166 7.02634C28.6795 7.02634 27.9257 6.27798 27.1886 7.02634C27.1886 6.90817 27.2221 6.67185 27.3393 6.63246C26.9875 6.63246 25.9824 6.04165 26.1164 7.18389C26.1164 6.43553 25.3458 7.06572 24.9437 7.38082L25.0108 6.8294C24.659 7.49898 24.659 7.69592 24.1731 7.85347C24.0559 7.77469 24.0726 7.42021 24.2234 7.53837C23.8548 7.22327 23.9218 8.05041 23.4695 7.73531L23.6371 7.38082C23.2517 7.30205 23.2853 7.49898 23.0675 7.89286C22.8162 8.08979 22.3304 7.73531 22.2801 7.22327C22.2299 7.53837 22.0121 7.89286 21.7775 7.73531C21.744 7.53837 21.8278 7.42021 21.8781 7.38082C21.2415 6.94756 20.9064 7.93224 20.4709 7.38082C20.4709 7.18389 20.4373 7.10511 20.4038 7.06572C20.9064 7.1445 21.3252 7.18389 21.2917 7.22327C21.2917 6.71124 20.8897 6.59308 21.2247 5.92349C20.8897 6.27798 20.3033 7.06572 19.918 6.79001C19.9013 6.75063 19.8845 6.67185 19.8678 6.59308H19.918C19.8343 6.47491 19.7505 6.5143 19.6667 6.59308C19.5327 6.5143 19.4657 6.43553 19.3317 6.39614C19.2982 5.96288 18.8626 6.12043 18.6616 6.08104C18.6616 6.63246 18.3936 6.5143 18.6448 6.98695C18.6113 6.94756 18.6783 6.90817 18.8291 6.90817C18.8626 6.90817 18.8961 6.90817 18.9129 6.86879C19.0469 6.90817 19.2312 6.90817 19.4322 6.90817C19.2647 7.18389 19.0972 7.38082 18.8626 7.06572C18.7454 7.42021 18.6281 7.77469 18.5611 7.93224C18.293 7.10511 17.757 6.63246 17.69 6.15981C17.0534 6.39614 16.2157 6.15981 15.7802 7.1445C15.5959 7.26266 15.5792 6.8294 15.5121 6.63246C15.6127 6.55369 15.7467 6.59308 15.7969 6.43553C15.4284 6.67185 14.7415 6.43553 14.6243 7.10511C14.1887 6.71124 14.8923 6.47491 14.2725 6.47491L14.3562 6.27798C13.1836 4.89942 12.3292 7.81408 11.0225 6.04165C11.1063 6.15982 11.1565 6.1992 11.1733 6.31736C9.66556 5.29329 7.99032 6.31736 6.51611 4.82065C6.09731 4.50555 6.0303 4.93881 5.7455 5.21452L5.6785 4.58432L5.19268 5.13575C4.53933 5.45084 4.17078 3.4027 3.31641 4.11168L3.40017 4.54494C3.11538 4.38739 2.47879 4.50555 2.5458 4.0329C2.51229 4.11168 2.42853 4.42677 2.32802 4.19045V3.87535L1.59091 4.19045C1.05484 3.79658 1.74168 3.00883 0.954322 2.69373C0.652779 2.69373 0.0496935 3.32393 0.150208 3.56025C0.267475 3.59964 0.451751 3.83596 0.434998 4.15106L0.150208 4.22984C0.0496935 5.13575 -0.218345 6.00227 0.418246 6.8294L0.920818 6.43553L1.03808 6.90817L0.636027 6.8294C0.837056 7.30205 1.00458 6.98695 1.1721 6.8294C1.18886 7.06572 1.25587 7.26266 1.33963 7.38082L1.8422 6.67185C1.8757 7.02634 1.59091 7.30205 1.89246 7.61715C2.12699 7.26266 1.72493 6.75062 2.11024 6.59308C2.31127 7.06572 2.2275 7.38082 2.51229 7.10511C2.52905 7.34143 2.47879 7.49898 2.36152 7.53837C2.61281 7.34143 2.98136 7.61715 3.13213 7.18389C3.33316 7.77469 3.93625 7.30205 3.86924 8.12918C3.953 7.93224 4.32155 7.57776 4.53933 7.57776C4.08702 8.52305 5.34345 7.85347 5.19268 8.91693C5.52772 8.05041 6.26483 8.79876 6.80091 8.40489C6.7674 8.48367 6.70039 8.60183 6.66689 8.56244C6.95168 8.71999 7.01869 9.03509 7.20296 9.23203C7.26997 8.48367 7.73904 8.40489 8.00708 7.97163C8.32537 8.79876 7.75579 8.83815 7.83955 9.54712C7.83955 8.91693 8.4929 9.07448 8.39238 8.52305C8.64367 9.03509 8.62692 8.79877 8.72743 9.46835C8.81119 8.52305 8.99547 9.35019 9.24675 8.83815C9.61531 9.38957 9.31376 9.74406 9.76608 9.54712C9.96711 9.90161 9.56505 10.1379 9.56505 10.1379L9.53154 10.0985ZM19.9348 10.0198C19.851 10.0198 19.7673 10.0198 19.717 10.0198C19.7673 10.0198 19.8175 10.0198 19.9348 10.0198ZM20.8059 10.0985C20.7054 10.0985 20.5714 10.0592 20.4373 10.0592C20.4038 9.86222 20.4373 9.66529 20.5379 9.70467C20.4876 9.82283 20.6886 9.941 20.8227 10.1379L20.8059 10.0985ZM19.0469 6.08104C19.1809 6.00227 19.2312 6.12043 19.2479 6.23859C19.1809 6.23859 19.1139 6.23859 19.0134 6.27798V6.35675C19.0134 6.35675 19.0134 6.15982 19.0469 6.08104Z" fill="#2E68B8"/>
</svg>
