<svg width="311" height="263" viewBox="0 0 311 263" fill="none" xmlns="http://www.w3.org/2000/svg">
<path d="M275.647 258.859H310.561L294.283 119.95L275.647 258.859Z" fill="#E0E0E0"/>
<path d="M103.856 119.95L81.126 260.498L275.092 263L294.284 119.95H103.856Z" fill="#FAFAFA"/>
<path d="M285.647 184.336H93.4434L97.6249 158.457H289.118L285.647 184.336Z" fill="#EBEBEB"/>
<path d="M285.66 184.356H93.4229V184.336L97.6111 158.437H289.138V158.457L285.66 184.356ZM93.4631 184.322H285.633L289.104 158.47H97.6379L93.4564 184.322H93.4631Z" fill="#263238"/>
<path d="M103.857 119.95L97.625 158.456H289.118L294.285 119.95H103.857Z" fill="#2E68B8"/>
<path d="M103.856 119.951C105.244 119.951 181.429 119.884 294.291 119.798H294.472L294.445 119.977C288.829 161.854 282.463 209.345 275.742 259.504L275.722 259.656H273.383C201.754 259.643 135.385 259.636 81.2935 259.623H81.126L81.1528 259.457C94.9036 174.98 103.669 121.105 103.856 119.951C103.669 121.105 95.0108 175 81.4342 259.497L81.2935 259.331C135.385 259.324 201.754 259.311 273.383 259.298H275.568L275.393 259.451C282.128 209.292 288.508 161.801 294.13 119.924L294.284 120.103C181.423 120.01 105.237 119.951 103.85 119.951H103.856Z" fill="#263238"/>
<path d="M289.118 158.457C289.118 158.55 246.251 158.629 193.378 158.629C140.506 158.629 97.625 158.55 97.625 158.457C97.625 158.364 140.486 158.284 193.378 158.284C246.271 158.284 289.118 158.364 289.118 158.457Z" fill="#263238"/>
<path d="M285.646 184.336C285.646 184.429 242.537 184.509 189.364 184.509C136.19 184.509 93.0742 184.429 93.0742 184.336C93.0742 184.243 136.176 184.164 189.364 184.164C242.551 184.164 285.646 184.243 285.646 184.336Z" fill="#263238"/>
<path d="M281.733 208.151C281.733 208.244 238.624 208.324 185.45 208.324C132.277 208.324 89.1611 208.244 89.1611 208.151C89.1611 208.058 132.263 207.979 185.45 207.979C238.638 207.979 281.733 208.058 281.733 208.151Z" fill="#263238"/>
<path d="M277.826 231.966C277.826 232.059 234.717 232.139 181.543 232.139C128.369 232.139 85.2539 232.059 85.2539 231.966C85.2539 231.873 128.356 231.793 181.543 231.793C234.731 231.793 277.826 231.873 277.826 231.966Z" fill="#263238"/>
<path d="M108.352 259.689C108.259 259.676 111.777 237.002 116.213 209.047C120.649 181.084 124.328 158.437 124.422 158.457C124.516 158.47 120.998 181.144 116.561 209.1C112.125 237.049 108.453 259.703 108.352 259.689Z" fill="#263238"/>
<path d="M137.993 259.689C137.899 259.676 141.417 237.002 145.854 209.047C150.29 181.084 153.969 158.437 154.062 158.457C154.156 158.47 150.638 181.144 146.202 209.1C141.766 237.049 138.094 259.703 137.993 259.689Z" fill="#263238"/>
<path d="M165.527 258.674C165.433 258.661 168.918 236.213 173.307 208.542C177.703 180.865 181.342 158.444 181.436 158.457C181.53 158.47 178.045 180.918 173.656 208.595C169.267 236.266 165.628 258.688 165.527 258.674Z" fill="#263238"/>
<path d="M192.774 259.477C192.68 259.464 196.192 236.837 200.621 208.941C205.051 181.038 208.716 158.437 208.81 158.457C208.904 158.47 205.393 181.098 200.963 208.994C196.534 236.883 192.868 259.49 192.774 259.477Z" fill="#263238"/>
<path d="M220.148 259.477C220.055 259.464 223.566 236.837 227.995 208.941C232.425 181.038 236.09 158.437 236.184 158.457C236.278 158.47 232.767 181.098 228.337 208.994C223.908 236.883 220.242 259.49 220.148 259.477Z" fill="#263238"/>
<path d="M247.503 259.623C247.409 259.61 250.927 236.949 255.357 209.014C259.793 181.071 263.465 158.437 263.559 158.457C263.653 158.47 260.135 181.131 255.698 209.073C251.262 237.009 247.59 259.643 247.496 259.63L247.503 259.623Z" fill="#263238"/>
<g opacity="0.2">
<path d="M230.281 160.262C233.584 158.815 235.642 155.418 236.499 151.941C237.357 148.464 237.216 144.847 237.337 141.277C237.458 137.707 237.893 134.011 239.743 130.946C240.835 129.127 242.37 127.621 243.583 125.883C244.795 124.144 245.693 122.014 245.244 119.944L224.618 120.05L230.281 160.268V160.262Z" fill="black"/>
</g>
<path d="M144.728 186.253C144.728 186.253 144.667 186.346 144.527 186.492C144.359 186.665 144.151 186.877 143.903 187.129C143.361 187.68 142.557 188.463 141.558 189.418C139.561 191.336 136.753 193.931 133.57 196.711C130.387 199.491 127.439 201.926 125.267 203.652C124.182 204.514 123.297 205.204 122.681 205.669C122.399 205.881 122.158 206.054 121.964 206.2C121.796 206.319 121.709 206.379 121.696 206.366C121.689 206.359 121.763 206.279 121.917 206.147C122.105 205.987 122.326 205.795 122.594 205.563C123.23 205.032 124.081 204.322 125.107 203.459C127.231 201.688 130.153 199.226 133.329 196.445C136.505 193.665 139.333 191.104 141.377 189.233C142.369 188.33 143.18 187.58 143.796 187.023C144.058 186.791 144.279 186.592 144.46 186.432C144.614 186.3 144.701 186.233 144.708 186.24L144.728 186.253Z" fill="#263238"/>
<path d="M143.213 206.644C143.213 206.644 142.912 206.378 142.409 205.861C141.873 205.297 141.169 204.547 140.312 203.651C138.502 201.74 136.083 199.179 133.403 196.352C130.695 193.545 128.25 191.01 126.42 189.113C125.556 188.217 124.845 187.48 124.303 186.916C123.807 186.392 123.539 186.1 123.559 186.08C123.579 186.06 123.874 186.326 124.396 186.823C124.919 187.314 125.67 188.038 126.588 188.94C128.424 190.745 130.93 193.273 133.644 196.113C136.358 198.953 138.764 201.568 140.486 203.485C141.344 204.441 142.034 205.224 142.503 205.775C142.972 206.319 143.22 206.631 143.207 206.644H143.213Z" fill="#263238"/>
<path d="M150.369 192.351C150.369 192.351 150.436 192.178 150.577 191.84C150.724 191.508 150.972 191.017 151.381 190.433C152.192 189.285 153.753 187.693 156.347 186.764C156.99 186.532 157.693 186.346 158.444 186.246C159.195 186.127 159.999 186.114 160.83 186.187C162.492 186.319 164.261 186.903 165.923 187.905C167.584 188.907 169.132 190.367 170.312 192.218C171.464 194.063 172.309 196.352 172.148 198.807C172.068 200.028 171.686 201.263 171.002 202.351C170.318 203.439 169.367 204.388 168.241 205.118C165.99 206.578 163.162 207.314 160.28 207.168C158.839 207.089 157.378 206.79 155.991 206.246C154.604 205.695 153.284 204.866 152.239 203.731C151.723 203.154 151.287 202.503 150.945 201.8C150.61 201.09 150.389 200.334 150.262 199.551C150.021 197.985 150.202 196.359 150.677 194.819C151.649 191.741 153.88 188.974 156.883 187.354C159.858 185.682 163.704 185.483 166.968 186.897C168.603 187.58 170.084 188.682 171.196 190.102C172.315 191.522 172.972 193.273 173.193 195.078C173.414 196.883 173.14 198.768 172.322 200.44C171.913 201.269 171.377 202.046 170.727 202.722C170.071 203.393 169.327 203.97 168.516 204.441C165.232 206.306 161.212 206.551 157.74 205.443C155.998 204.892 154.37 203.996 153.05 202.762C151.729 201.541 150.771 199.922 150.436 198.184C150.081 196.458 150.289 194.607 151.14 193.068C151.562 192.298 152.152 191.628 152.842 191.104C153.532 190.573 154.316 190.188 155.127 189.909C156.749 189.358 158.457 189.226 160.113 189.259C161.768 189.299 163.41 189.484 164.978 189.936C166.532 190.38 168.027 191.09 169.199 192.178C170.372 193.253 171.17 194.693 171.471 196.2C171.786 197.706 171.672 199.265 171.21 200.679C170.741 202.099 169.903 203.353 168.871 204.361C166.8 206.379 164.039 207.487 161.359 207.6C160.019 207.659 158.685 207.474 157.472 207.036C156.259 206.591 155.167 205.894 154.336 204.985C153.492 204.089 152.889 203.028 152.52 201.926C152.138 200.831 151.984 199.69 152.031 198.595C152.098 196.385 153.096 194.415 154.403 192.995C155.717 191.561 157.332 190.619 158.913 190.108C160.501 189.577 162.063 189.531 163.416 189.683C166.15 190.029 168.047 191.15 169.186 191.986C169.762 192.411 170.164 192.782 170.426 193.034C170.68 193.293 170.808 193.433 170.808 193.433C170.808 193.433 170.667 193.313 170.399 193.061C170.131 192.816 169.722 192.457 169.139 192.039C167.993 191.23 166.097 190.135 163.396 189.816C162.056 189.677 160.521 189.737 158.96 190.261C157.405 190.778 155.824 191.714 154.544 193.121C153.264 194.514 152.306 196.439 152.245 198.595C152.205 199.663 152.353 200.778 152.735 201.847C153.103 202.915 153.693 203.95 154.51 204.813C155.315 205.689 156.373 206.365 157.553 206.79C158.732 207.208 160.032 207.387 161.339 207.328C163.952 207.215 166.653 206.12 168.663 204.149C169.662 203.167 170.473 201.953 170.922 200.579C171.371 199.212 171.471 197.706 171.17 196.253C170.875 194.8 170.117 193.426 168.985 192.397C167.859 191.356 166.412 190.666 164.884 190.234C163.356 189.796 161.734 189.611 160.099 189.577C158.471 189.544 156.795 189.684 155.227 190.221C153.666 190.739 152.225 191.76 151.435 193.227C150.63 194.68 150.429 196.452 150.771 198.117C151.093 199.79 152.004 201.336 153.284 202.517C154.557 203.705 156.145 204.58 157.841 205.118C161.225 206.199 165.159 205.961 168.335 204.149C169.119 203.691 169.843 203.134 170.473 202.49C171.096 201.84 171.612 201.097 172.007 200.3C172.791 198.701 173.059 196.876 172.845 195.131C172.637 193.386 171.994 191.694 170.922 190.327C169.849 188.96 168.422 187.892 166.834 187.228C163.664 185.861 159.945 186.047 157.043 187.666C154.122 189.239 151.937 191.94 150.986 194.932C150.516 196.432 150.342 198.011 150.577 199.517C150.691 200.267 150.912 201.004 151.227 201.681C151.555 202.357 151.971 202.981 152.467 203.539C153.472 204.64 154.752 205.443 156.105 205.987C157.459 206.525 158.886 206.817 160.3 206.903C163.121 207.055 165.902 206.339 168.1 204.919C170.305 203.519 171.786 201.21 171.913 198.821C172.081 196.439 171.27 194.189 170.138 192.364C168.985 190.533 167.464 189.093 165.835 188.098C164.2 187.102 162.465 186.518 160.83 186.379C160.012 186.306 159.221 186.313 158.477 186.425C157.734 186.518 157.037 186.698 156.4 186.923C153.827 187.819 152.265 189.378 151.441 190.506C151.026 191.077 150.764 191.555 150.61 191.887C150.456 192.218 150.369 192.384 150.369 192.384V192.351Z" fill="#2E68B8"/>
<path d="M168.522 210.672C168.583 210.745 163.269 215.244 156.648 220.718C150.027 226.192 144.606 230.572 144.545 230.499C144.485 230.426 149.799 225.927 156.42 220.453C163.041 214.978 168.455 210.599 168.522 210.672Z" fill="#263238"/>
<path d="M169.681 229.916C169.681 229.916 169.346 229.71 168.79 229.285C168.187 228.821 167.396 228.204 166.438 227.46C164.461 225.908 161.747 223.751 158.758 221.349C155.77 218.947 153.076 216.757 151.139 215.158C150.208 214.382 149.444 213.738 148.854 213.254C148.318 212.796 148.03 212.537 148.05 212.517C148.063 212.497 148.385 212.723 148.941 213.147C149.544 213.612 150.335 214.229 151.293 214.972C153.27 216.525 155.984 218.682 158.973 221.084C161.961 223.486 164.649 225.675 166.585 227.275C167.517 228.051 168.281 228.695 168.87 229.179C169.406 229.637 169.695 229.896 169.675 229.916H169.681Z" fill="#263238"/>
<path d="M224.463 210.924C224.524 211.004 219.437 214.853 213.105 219.531C206.772 224.209 201.599 227.938 201.539 227.865C201.478 227.785 206.565 223.937 212.897 219.259C219.223 214.581 224.403 210.851 224.463 210.924Z" fill="#263238"/>
<path d="M226.434 227.254C226.381 227.334 220.986 224.016 214.379 219.849C207.772 215.675 202.458 212.231 202.511 212.152C202.565 212.072 207.959 215.383 214.567 219.557C221.174 223.724 226.488 227.175 226.434 227.254Z" fill="#263238"/>
<path d="M169.394 259.483C169.327 259.417 174.608 253.942 181.188 247.254C187.769 240.565 193.163 235.197 193.23 235.263C193.297 235.33 188.023 240.804 181.436 247.499C174.856 254.188 169.461 259.556 169.394 259.49V259.483Z" fill="#2E68B8"/>
<path d="M191.715 259.477C191.715 259.477 191.628 259.404 191.5 259.251C191.346 259.059 191.159 258.833 190.931 258.555C190.408 257.904 189.711 257.042 188.867 255.987C187.111 253.83 184.638 250.89 181.764 247.765C178.889 244.64 176.161 241.926 174.151 239.995C173.173 239.066 172.369 238.296 171.759 237.719C171.504 237.473 171.29 237.268 171.115 237.095C170.968 236.949 170.901 236.869 170.908 236.863C170.914 236.856 171.002 236.916 171.162 237.049C171.35 237.208 171.578 237.394 171.853 237.626C172.449 238.13 173.293 238.88 174.319 239.822C176.376 241.707 179.137 244.401 182.018 247.533C184.9 250.665 187.352 253.638 189.054 255.841C189.906 256.942 190.582 257.845 191.038 258.475C191.239 258.767 191.413 259.006 191.554 259.211C191.668 259.384 191.722 259.477 191.715 259.484V259.477Z" fill="#2E68B8"/>
<path d="M136.859 231.568C136.859 231.568 137.073 247.871 132.919 257.632L107.595 253.359C107.595 253.359 115.221 237.911 113.143 229.325L136.859 231.568Z" fill="#EBEBEB"/>
<path d="M136.854 230.957C136.854 230.957 133.684 250.95 131.741 256.909L106.564 251.992C106.564 251.992 111.744 232.642 111.671 227.254L136.854 230.957Z" fill="#2E68B8"/>
<path d="M114.231 236.226C114.21 236.319 117.97 237.181 122.627 238.15C127.284 239.119 131.077 239.835 131.091 239.742C131.111 239.65 127.351 238.787 122.694 237.818C118.037 236.849 114.251 236.133 114.231 236.226Z" fill="white"/>
<path d="M113.587 240.466C113.567 240.559 117.326 241.421 121.984 242.39C126.641 243.359 130.434 244.075 130.454 243.982C130.474 243.89 126.715 243.027 122.057 242.058C117.4 241.089 113.614 240.373 113.594 240.466H113.587Z" fill="white"/>
<path d="M117.274 245.263C117.267 245.309 117.789 245.462 118.654 245.674C119.518 245.887 120.711 246.152 122.038 246.431C123.365 246.71 124.571 246.942 125.442 247.088C126.32 247.24 126.863 247.307 126.876 247.267C126.883 247.221 126.36 247.068 125.496 246.856C124.631 246.643 123.439 246.378 122.112 246.099C120.785 245.82 119.579 245.588 118.708 245.442C117.83 245.29 117.287 245.223 117.274 245.263Z" fill="white"/>
<path d="M256.656 185.789C256.656 185.789 259.25 201.681 256.623 211.814L231.266 211.276C231.266 211.276 236.452 195.099 233.169 187.01L256.663 185.796L256.656 185.789Z" fill="#EBEBEB"/>
<path d="M256.556 185.191C256.556 185.191 256.382 205.171 255.356 211.269L230.046 210.081C230.046 210.081 232.271 190.44 231.413 185.191H256.549H256.556Z" fill="#455A64"/>
<path d="M234.985 194.083C234.985 194.176 238.791 194.256 243.489 194.262C248.187 194.269 252 194.202 252 194.11C252 194.017 248.193 193.937 243.489 193.93C238.791 193.924 234.985 193.99 234.979 194.083H234.985Z" fill="white"/>
<path d="M235.226 198.31C235.226 198.403 239.033 198.482 243.73 198.489C248.428 198.496 252.241 198.429 252.241 198.336C252.241 198.243 248.434 198.164 243.73 198.157C239.033 198.151 235.226 198.217 235.22 198.31H235.226Z" fill="white"/>
<path d="M239.762 202.205C239.762 202.251 240.305 202.291 241.182 202.324C242.06 202.358 243.273 202.377 244.607 202.377C245.947 202.377 247.16 202.364 248.038 202.331C248.916 202.304 249.458 202.258 249.458 202.218C249.458 202.172 248.916 202.132 248.038 202.099C247.16 202.066 245.947 202.046 244.613 202.046C243.273 202.046 242.06 202.059 241.189 202.092C240.311 202.119 239.768 202.165 239.768 202.205H239.762Z" fill="white"/>
<path d="M262.058 139.983C257.327 139.983 252.562 137.051 250.056 132.419C247.637 127.946 246.853 122.479 247.911 117.416C249.305 110.76 253.742 105.339 259.216 103.607C263.88 102.127 272.203 102.964 276.123 109.453C279.179 114.503 278.858 119.738 278.844 119.957C278.77 121.052 277.812 121.882 276.7 121.809C275.594 121.736 274.756 120.787 274.83 119.692C274.83 119.612 275.051 115.425 272.672 111.497C269.643 106.487 263.003 106.58 260.443 107.396C255.759 108.882 252.75 113.906 251.845 118.225C250.974 122.386 251.611 126.872 253.594 130.534C255.571 134.191 259.572 136.46 263.116 135.916C264.209 135.75 265.241 136.493 265.408 137.581C265.576 138.67 264.825 139.685 263.726 139.851C263.17 139.937 262.614 139.977 262.051 139.977L262.058 139.983Z" fill="#FFC727"/>
<path d="M132.242 139.983C127.511 139.983 122.747 137.05 120.24 132.419C117.821 127.946 117.037 122.478 118.096 117.422C119.269 111.822 123.236 105.379 129.455 103.594C132.289 102.784 135.7 102.957 138.582 104.058L137.134 107.774C134.675 106.832 132.128 106.978 130.567 107.422C125.95 108.743 122.954 113.806 122.023 118.232C121.152 122.392 121.788 126.878 123.772 130.541C125.749 134.197 129.763 136.466 133.294 135.922L133.904 139.857C133.348 139.943 132.785 139.983 132.229 139.983H132.242Z" fill="#FFC727"/>
<path d="M260.376 120.056L258.526 130.083H285.74L288.152 120.156L260.376 120.056Z" fill="#2E68B8"/>
<path d="M139.137 138.398C139.137 140.767 137.201 142.684 134.808 142.684C132.416 142.684 130.479 140.767 130.479 138.398C130.479 136.029 132.416 134.111 134.808 134.111C137.201 134.111 139.137 136.029 139.137 138.398Z" fill="#263238"/>
<path d="M268.812 138.398C268.812 140.767 266.876 142.684 264.483 142.684C262.091 142.684 260.154 140.767 260.154 138.398C260.154 136.029 262.091 134.111 264.483 134.111C266.876 134.111 268.812 136.029 268.812 138.398Z" fill="#263238"/>
<path d="M197.397 55.4326L190.28 82.1607L165.714 84.7752V89.0883L200.232 90.2893L206.718 60.3031L197.397 55.4326Z" fill="#FFBE9D"/>
<path d="M207.759 90.9997C207.759 90.9997 169.374 89.1882 158.444 97.6618C147.508 106.135 152.769 119.951 152.769 119.951L214.547 119.791L219.995 88.79L207.759 91.0063V90.9997Z" fill="#FA849B"/>
<path d="M214.285 111.457C214.285 111.457 214.091 111.457 213.735 111.417C213.374 111.378 212.844 111.325 212.161 111.238C210.794 111.072 208.823 110.794 206.398 110.389C201.546 109.586 194.878 108.199 187.668 106.102C184.063 105.047 180.658 103.979 177.509 103.209C174.359 102.453 171.464 101.962 169.018 101.869C166.572 101.763 164.582 101.935 163.235 102.194C162.552 102.28 162.042 102.446 161.687 102.506C161.332 102.579 161.145 102.619 161.145 102.605C161.145 102.592 161.325 102.539 161.674 102.44C162.029 102.36 162.532 102.167 163.215 102.061C164.562 101.763 166.566 101.55 169.032 101.623C171.505 101.69 174.42 102.154 177.589 102.897C180.759 103.654 184.177 104.716 187.775 105.771C194.972 107.861 201.613 109.281 206.451 110.15C208.87 110.588 210.834 110.9 212.194 111.112C212.851 111.212 213.367 111.298 213.756 111.358C214.111 111.417 214.298 111.451 214.298 111.464L214.285 111.457Z" fill="#455A64"/>
<path d="M178.609 103.023C178.528 103.103 177.242 101.723 175.204 100.681C173.181 99.6125 171.304 99.3537 171.324 99.2409C171.324 99.2011 171.807 99.2077 172.557 99.3603C173.308 99.513 174.327 99.8315 175.365 100.369C176.404 100.913 177.248 101.557 177.804 102.081C178.361 102.605 178.635 102.983 178.609 103.017V103.023Z" fill="#455A64"/>
<path d="M211.82 173.612L212.336 189.591L209.066 202.344C208.831 203.267 209.428 204.189 210.372 204.362C210.902 204.454 211.438 204.295 211.82 203.924C214.259 201.561 223.199 192.829 223.098 191.661C222.977 190.307 223.681 174.774 223.681 174.774L211.82 173.612Z" fill="#0F4C81"/>
<g opacity="0.6">
<path d="M210.364 204.361L223.083 190.586V191.263C223.096 191.847 222.895 192.417 222.514 192.869C221.502 194.07 218.627 197.328 211.865 203.93C211.47 204.315 210.907 204.481 210.364 204.368V204.361Z" fill="white"/>
</g>
<g opacity="0.6">
<path d="M219.727 185.457C219.325 185.735 219.198 186.346 219.466 186.751C219.734 187.162 220.357 187.295 220.759 187.016C221.168 186.744 221.342 186.021 221.027 185.643C220.719 185.264 219.975 185.152 219.647 185.51" fill="white"/>
</g>
<path d="M213.991 197.341C213.897 197.388 213.529 196.552 212.564 196.114C211.612 195.643 210.721 195.875 210.701 195.775C210.687 195.735 210.888 195.609 211.264 195.556C211.639 195.497 212.182 195.543 212.711 195.795C213.241 196.047 213.616 196.439 213.803 196.764C213.998 197.089 214.025 197.328 213.984 197.341H213.991Z" fill="#FA849B"/>
<path d="M212.864 199.497C212.791 199.57 212.268 199.053 211.43 198.82C210.599 198.575 209.876 198.734 209.849 198.635C209.802 198.555 210.572 198.21 211.524 198.482C212.476 198.747 212.945 199.451 212.864 199.491V199.497Z" fill="#FA849B"/>
<path d="M216.108 194.58C216.035 194.66 215.23 193.864 213.964 193.393C212.704 192.902 211.572 192.968 211.565 192.862C211.538 192.776 212.738 192.543 214.091 193.067C215.452 193.572 216.189 194.541 216.108 194.587V194.58Z" fill="#FA849B"/>
<path d="M216.363 189.711C216.323 189.804 215.425 189.445 214.266 189.412C213.107 189.366 212.189 189.664 212.155 189.565C212.108 189.485 213.033 189.014 214.279 189.06C215.526 189.094 216.417 189.631 216.363 189.704V189.711Z" fill="#FA849B"/>
<path d="M216.33 185.019C216.283 185.112 215.378 184.588 214.152 184.654C212.926 184.694 212.075 185.291 212.014 185.205C211.988 185.172 212.162 184.973 212.53 184.754C212.899 184.535 213.475 184.336 214.132 184.302C214.789 184.276 215.385 184.428 215.767 184.614C216.156 184.8 216.343 184.986 216.323 185.019H216.33Z" fill="#FA849B"/>
<path d="M214.171 183.757C214.171 183.757 214.111 183.545 214.145 183.154C214.178 182.769 214.285 182.198 214.614 181.568C214.788 181.269 214.962 180.884 215.411 180.672C215.632 180.566 215.967 180.599 216.162 180.811C216.356 181.017 216.416 181.276 216.423 181.528C216.416 182.543 215.545 183.532 214.392 183.691C213.233 183.83 212.181 183.18 211.719 182.311C211.618 182.085 211.544 181.807 211.665 181.535C211.786 181.262 212.114 181.15 212.342 181.189C212.824 181.256 213.126 181.528 213.407 181.727C213.97 182.165 214.319 182.629 214.52 182.961C214.728 183.293 214.795 183.505 214.774 183.512C214.721 183.552 214.359 182.729 213.26 181.926C212.985 181.74 212.664 181.508 212.315 181.481C212.148 181.468 212 181.535 211.947 181.667C211.886 181.8 211.92 181.999 212.014 182.172C212.409 182.888 213.374 183.472 214.346 183.339C215.317 183.22 216.081 182.344 216.095 181.528C216.095 181.329 216.041 181.136 215.934 181.017C215.827 180.904 215.666 180.871 215.518 180.931C215.203 181.057 214.996 181.395 214.828 181.681C214.158 182.862 214.238 183.771 214.165 183.751L214.171 183.757Z" fill="#FA849B"/>
<path d="M219.994 88.7829C219.994 88.7829 203.396 119.857 203.168 125.259C202.94 130.66 203.168 180.646 203.168 180.646H228.86C229.544 180.646 233.377 158.131 232.599 152.949C231.815 147.773 229.048 119.91 229.048 119.91H243.83C243.83 119.91 247.885 115.617 247.737 110.169C247.657 107.163 245.673 101.019 243.696 97.7608C242.43 95.6706 234.321 84.7219 234.321 84.7219L219.994 88.7763V88.7829Z" fill="#FA849B"/>
<path d="M218.881 90.8868C218.881 90.8868 218.861 90.9531 218.808 91.0659C218.747 91.1987 218.667 91.3645 218.566 91.5702C218.332 92.0347 218.01 92.685 217.602 93.5078C217.173 94.3506 216.65 95.3791 216.054 96.5602C215.752 97.1574 215.43 97.7944 215.089 98.4646C214.767 99.1481 214.432 99.878 214.077 100.634C212.649 103.68 210.947 107.297 209.064 111.311C208.119 113.322 207.128 115.425 206.096 117.615C205.586 118.71 205.064 119.818 204.534 120.946C204.038 122.081 203.65 123.275 203.395 124.516C203.134 125.757 203.026 127.004 203.006 128.252C202.959 129.493 202.939 130.72 202.919 131.928C202.886 134.337 202.872 136.666 202.879 138.882C202.879 143.315 202.933 147.302 202.98 150.653C203.033 153.985 203.073 156.692 203.1 158.59C203.114 159.505 203.12 160.229 203.127 160.746C203.127 160.978 203.127 161.164 203.127 161.31C203.127 161.436 203.127 161.503 203.114 161.503C203.114 161.503 203.1 161.436 203.087 161.31C203.08 161.164 203.067 160.978 203.053 160.746C203.033 160.229 203 159.505 202.959 158.59C202.892 156.718 202.805 154.004 202.725 150.653C202.644 147.302 202.577 143.308 202.551 138.875C202.537 136.659 202.544 134.33 202.571 131.915C202.591 130.707 202.611 129.479 202.658 128.232C202.678 126.991 202.785 125.704 203.053 124.443C203.315 123.176 203.71 121.955 204.219 120.807C204.749 119.679 205.278 118.564 205.794 117.469C206.833 115.286 207.831 113.182 208.783 111.172C210.693 107.17 212.415 103.561 213.862 100.522C214.224 99.7652 214.573 99.0419 214.901 98.3584C215.249 97.6883 215.584 97.0579 215.893 96.4673C216.516 95.2928 217.052 94.2776 217.494 93.4415C217.93 92.6319 218.272 91.9949 218.52 91.5371C218.633 91.338 218.721 91.1721 218.794 91.046C218.855 90.9332 218.895 90.8801 218.902 90.8868H218.881Z" fill="#455A64"/>
<path d="M213.507 101.47C213.413 101.497 212.857 99.7451 212.173 97.5885C211.49 95.4319 210.94 93.6801 211.034 93.647C211.121 93.6138 211.825 95.3191 212.508 97.489C213.198 99.6522 213.6 101.45 213.513 101.477L213.507 101.47Z" fill="#455A64"/>
<path d="M232.645 152C232.645 152 232.605 151.88 232.572 151.648C232.531 151.376 232.485 151.038 232.424 150.633C232.31 149.697 232.15 148.43 231.955 146.884C231.587 143.665 231.091 139.306 230.541 134.495C230.005 129.651 229.543 125.265 229.275 122.087C229.141 120.534 229.033 119.26 228.953 118.317C228.926 117.906 228.899 117.568 228.886 117.289C228.873 117.057 228.873 116.931 228.886 116.931C228.899 116.931 228.92 117.05 228.96 117.282C228.993 117.554 229.04 117.893 229.094 118.304C229.201 119.24 229.348 120.514 229.523 122.06C229.878 125.278 230.36 129.638 230.89 134.455C231.399 139.273 231.861 143.632 232.203 146.851C232.351 148.403 232.471 149.677 232.565 150.613C232.598 151.024 232.625 151.363 232.645 151.635C232.659 151.867 232.659 151.993 232.645 151.993V152Z" fill="#455A64"/>
<path d="M226.124 5.55959C225.728 2.93854 228.027 0.35066 230.687 0.0387876C233.347 -0.27972 236.008 1.39908 237.234 3.76135C238.46 6.12362 238.373 9.00346 237.435 11.4852C236.799 13.164 235.525 14.8627 233.723 14.9954C231.987 15.1215 230.54 13.7678 229.347 12.5137" fill="#263238"/>
<path d="M207.26 18.7109C201.919 7.07872 214.625 1.23277 221.554 3.17699C228.067 5.00178 230.848 8.20676 231.921 12.5265C232.993 16.8463 232.939 21.5177 231.23 25.6318C230.386 27.6557 228.872 29.7193 226.674 29.9715" fill="#263238"/>
<path d="M225.708 9.64004C226.854 9.75948 227.711 10.7283 227.691 11.863L226.438 41.4709C226.391 44.9679 221.231 46.9453 217.452 46.8657C213.632 46.786 213.505 44.9347 213.451 41.6036C213.357 36.043 213.364 33.9594 213.357 33.9926C213.357 33.9926 208.533 33.1964 207.534 26.9655C207.038 23.8667 207.192 18.7839 207.46 14.63C207.702 10.8942 210.201 6.30234 213.961 6.70048L225.708 9.64004Z" fill="#FFBE9D"/>
<path d="M209.9 18.173C209.886 18.5977 210.235 18.956 210.677 18.9826C211.119 19.0091 211.495 18.684 211.508 18.2593C211.521 17.8346 211.173 17.4763 210.731 17.4498C210.288 17.4232 209.913 17.7484 209.9 18.173Z" fill="#263238"/>
<path d="M208.566 17.277C208.666 17.3832 209.276 16.932 210.147 16.9386C211.012 16.9254 211.655 17.3699 211.749 17.2638C211.796 17.2173 211.695 17.0315 211.414 16.8258C211.139 16.6268 210.677 16.4343 210.134 16.4343C209.591 16.4343 209.135 16.6334 208.874 16.8391C208.606 17.0448 208.519 17.2306 208.566 17.277Z" fill="#263238"/>
<path d="M218.39 18.1725C218.377 18.5972 218.725 18.9555 219.167 18.9821C219.61 19.0086 219.985 18.6835 219.998 18.2588C220.012 17.8341 219.663 17.4758 219.221 17.4493C218.779 17.4227 218.403 17.7479 218.39 18.1725Z" fill="#263238"/>
<path d="M217.11 17.4357C217.21 17.5419 217.82 17.0907 218.691 17.0973C219.556 17.0841 220.199 17.5286 220.293 17.4225C220.34 17.376 220.239 17.1902 219.958 16.9845C219.683 16.7854 219.221 16.593 218.678 16.593C218.135 16.593 217.679 16.7921 217.418 16.9978C217.15 17.2035 217.063 17.3893 217.11 17.4357Z" fill="#263238"/>
<path d="M213.954 23.8131C213.954 23.7666 213.418 23.6737 212.54 23.5609C212.319 23.541 212.111 23.4946 212.071 23.342C212.017 23.1827 212.111 22.9438 212.218 22.6917C212.426 22.1608 212.647 21.6034 212.875 21.0195C213.787 18.6373 214.443 16.6798 214.349 16.6467C214.249 16.6135 213.438 18.5113 212.527 20.8934C212.306 21.484 212.098 22.0414 211.897 22.5789C211.81 22.831 211.669 23.1097 211.783 23.4415C211.843 23.6074 212.004 23.7268 212.145 23.76C212.285 23.7998 212.413 23.8065 212.52 23.8131C213.398 23.8595 213.947 23.8662 213.947 23.8131H213.954Z" fill="#263238"/>
<path d="M213.357 33.9923C213.357 33.9923 217.593 34.2643 221.788 31.7627C221.788 31.7627 219.744 36.0426 213.445 35.4587L213.357 33.9856V33.9923Z" fill="#EB996E"/>
<path d="M214.323 25.8837C214.638 25.4723 215.181 25.2533 215.723 25.3064C216.099 25.3462 216.481 25.5254 216.709 25.8306C216.936 26.1359 216.983 26.5672 216.775 26.8592C216.541 27.1843 216.052 27.2639 215.636 27.1445C215.221 27.025 214.866 26.7596 214.524 26.4876C214.43 26.4146 214.336 26.3349 214.276 26.2354C214.216 26.1359 214.202 26.0032 214.276 25.9169" fill="#EB996E"/>
<path d="M216.514 24.4108C216.374 24.4042 216.373 25.3332 215.563 25.9967C214.759 26.6603 213.753 26.5541 213.747 26.6868C213.733 26.7466 213.968 26.866 214.397 26.8793C214.812 26.8925 215.422 26.7598 215.911 26.3551C216.4 25.9503 216.615 25.4062 216.648 25.0213C216.682 24.6298 216.581 24.3976 216.514 24.4042V24.4108Z" fill="#263238"/>
<path d="M216.714 15.9301C216.801 16.1624 217.666 16.0562 218.684 16.1756C219.703 16.2752 220.527 16.5738 220.661 16.3614C220.722 16.2619 220.581 16.0429 220.246 15.8173C219.918 15.5917 219.388 15.3794 218.778 15.3064C218.169 15.24 217.606 15.3396 217.237 15.4855C216.862 15.6315 216.674 15.8173 216.714 15.9301Z" fill="#263238"/>
<path d="M208.888 14.7821C209.042 14.9745 209.638 14.7755 210.355 14.7622C211.072 14.729 211.682 14.8949 211.823 14.6892C211.883 14.5897 211.789 14.3972 211.521 14.2114C211.26 14.0256 210.818 13.8797 210.329 13.8929C209.833 13.9062 209.404 14.0854 209.156 14.2844C208.901 14.4835 208.821 14.6892 208.888 14.7821Z" fill="#263238"/>
<path d="M217.083 4.62329C214.791 4.69628 213.049 5.39302 211.039 6.48125C209.028 7.56949 207.34 9.37437 206.723 11.5575C206.589 12.022 206.515 12.5528 206.777 12.9642C207.118 13.5083 207.916 13.5946 208.506 13.3358C209.089 13.0704 209.511 12.5528 209.913 12.0551C210.208 13.1965 211.354 14.0657 212.546 14.0525C213.739 14.0392 214.865 13.1434 215.14 11.9954C215.147 13.1898 216.359 14.1785 217.566 14.1387C218.772 14.0989 219.844 13.1699 220.246 12.0419C220.474 13.1036 220.708 14.2051 221.352 15.0876C221.995 15.9701 223.161 16.574 224.2 16.2356C224.052 17.1645 223.905 18.14 224.24 19.0225C224.575 19.905 225.909 34.8948 226.807 34.5896C227.678 34.291 227.671 18.996 227.872 18.1068C228.267 16.3882 228.602 14.643 228.549 12.8846C228.495 11.1262 228.019 9.33455 226.927 7.94772C225.801 6.5078 224.093 5.59872 222.317 5.13423C220.541 4.66974 218.678 4.61666 216.842 4.6432" fill="#263238"/>
<path d="M229.695 31.9223C229.695 31.9223 229.634 31.9621 229.5 32.0085C229.373 32.055 229.172 32.1081 228.911 32.1479C228.395 32.2275 227.604 32.2275 226.699 31.9223C225.808 31.6369 224.776 30.9933 224.113 29.9117C223.429 28.8434 223.168 27.4233 223.282 26.01C223.389 24.5899 223.717 23.2894 223.871 22.0883C224.039 20.8939 224.119 19.8057 224.153 18.89C224.18 17.9743 224.173 17.2311 224.153 16.7201C224.139 16.2092 224.133 15.9239 224.159 15.9172C224.18 15.9172 224.233 16.1959 224.287 16.7069C224.34 17.2178 224.387 17.9676 224.394 18.89C224.394 19.8123 224.34 20.9138 224.186 22.1281C224.046 23.3425 223.724 24.6497 223.623 26.0299C223.516 27.4034 223.751 28.7372 224.381 29.7458C224.99 30.7677 225.929 31.3848 226.78 31.69C227.631 32.0019 228.388 32.0483 228.891 32.0085C229.4 31.9687 229.675 31.8824 229.688 31.9156L229.695 31.9223Z" fill="#263238"/>
<path d="M214.865 3.82056C214.865 3.82056 215.173 4.34477 215.194 5.30029C215.22 6.23591 214.892 7.61611 213.853 8.69107C212.808 9.7594 211.427 10.1376 210.483 10.1443C209.518 10.1642 208.961 9.90538 208.975 9.87884C208.988 9.81912 209.551 9.98501 210.469 9.89875C211.367 9.82576 212.64 9.43426 213.605 8.44556C214.564 7.45685 214.912 6.18282 214.952 5.29366C214.999 4.39122 214.812 3.83383 214.872 3.82056H214.865Z" fill="#455A64"/>
<path d="M215.805 11.1599C215.838 11.1599 215.758 11.5912 215.282 12.0491C214.813 12.5069 213.922 12.9117 212.91 12.852C211.904 12.7856 211.08 12.3742 210.544 12.0491C210.001 11.7173 209.713 11.4519 209.74 11.4187C209.767 11.3789 210.109 11.5647 210.665 11.8367C211.221 12.1022 212.012 12.4539 212.936 12.5136C213.855 12.5667 214.665 12.2415 215.128 11.8699C215.604 11.4983 215.764 11.1334 215.818 11.1665L215.805 11.1599Z" fill="#455A64"/>
<path d="M230.969 9.25591C231.01 9.25591 231.016 9.91283 230.849 10.9613C230.681 11.9964 230.319 13.4761 229.308 14.8033C228.282 16.1304 226.781 16.774 225.702 16.8337C225.16 16.8736 224.717 16.8006 224.429 16.7077C224.141 16.6148 223.994 16.5351 224 16.5152C224.014 16.4489 224.644 16.7276 225.676 16.5882C226.687 16.4688 228.068 15.8251 229.033 14.5909C229.991 13.3434 230.38 11.9234 230.608 10.9148C230.829 9.89956 230.916 9.24927 230.969 9.25591Z" fill="#455A64"/>
<path d="M232.122 12.2749C232.122 12.2749 232.189 12.4607 232.222 12.7991C232.256 13.1375 232.289 13.6352 232.256 14.2523C232.196 15.46 231.867 17.2582 230.581 18.7247C229.944 19.448 229.153 19.9788 228.349 20.231C227.545 20.4898 226.761 20.4831 226.144 20.3637C225.521 20.2376 225.059 19.9987 224.777 19.793C224.489 19.5873 224.375 19.4347 224.389 19.4214C224.422 19.3617 224.992 19.939 226.191 20.1248C226.781 20.2111 227.512 20.1845 228.249 19.9324C228.992 19.6802 229.723 19.1759 230.319 18.4991C231.539 17.1189 231.894 15.4202 232.015 14.239C232.129 13.038 232.068 12.2815 232.122 12.2815V12.2749Z" fill="#455A64"/>
<path d="M143.794 92.4783L131.625 120.023H148.378L160.299 92.2593L143.794 92.4783Z" fill="#455A64"/>
<path d="M134.949 63.1959L148.673 89.9107H191.936L190.187 86.4204L177.656 86.0488L167.443 63.5276C166.806 62.1275 165.399 61.2251 163.851 61.2251H136.175C135.157 61.2251 134.493 62.2934 134.956 63.1959H134.949Z" fill="#E0E0E0"/>
<path d="M156.614 75.1592C156.614 76.0617 155.87 76.7982 154.959 76.7982C154.048 76.7982 153.304 76.0617 153.304 75.1592C153.304 74.2568 154.048 73.5203 154.959 73.5203C155.87 73.5203 156.614 74.2568 156.614 75.1592Z" fill="#263238"/>
<path d="M196.539 89.95H143.653V92.5047H196.539V89.95Z" fill="#455A64"/>
<path d="M180.249 91.231L196.339 120.049H204.032L205.707 116.751L207.248 113.281L196.54 92.505L180.249 91.231Z" fill="#455A64"/>
<path d="M208.206 41.8225C208.206 41.8225 198.865 45.0806 196.854 55.4321L206.719 60.3026L208.206 41.8225Z" fill="#60DE93"/>
<path d="M208.206 41.8229C208.206 41.8229 201.666 56.3283 201.92 64.2445C202.007 67.0049 203.837 74.178 203.837 74.178L207.228 92.0078C207.228 92.0078 233.235 88.5175 233.811 88.5175C234.388 88.5175 232.94 73.8927 232.94 73.8927L237.182 45.7777C237.182 45.7777 235.239 41.949 226.473 40.6218C221.206 39.8256 208.213 41.8229 208.213 41.8229H208.206Z" fill="#60DE93"/>
<path d="M205.767 50.2425C205.828 50.2756 205.137 51.3506 204.32 53.2285C203.904 54.1641 203.489 55.3054 203.114 56.5994C202.758 57.8999 202.443 59.3465 202.263 60.8926C202.095 62.4387 202.068 63.9184 202.122 65.2654C202.202 66.6124 202.343 67.8201 202.537 68.8155C202.913 70.8194 203.341 72.0204 203.274 72.0404C203.254 72.047 203.134 71.755 202.946 71.2109C202.846 70.9388 202.732 70.6071 202.631 70.2089C202.524 69.8108 202.39 69.3662 202.296 68.8619C202.068 67.8599 201.894 66.639 201.8 65.2787C201.726 63.9184 201.74 62.4121 201.914 60.8461C202.102 59.2801 202.423 57.8137 202.805 56.5065C203.207 55.1992 203.65 54.0513 204.099 53.1223C204.3 52.6512 204.541 52.2464 204.729 51.8815C204.916 51.5165 205.104 51.2179 205.258 50.9724C205.566 50.488 205.747 50.2226 205.767 50.2358V50.2425Z" fill="#263238"/>
<path d="M211.368 41.6901L211.75 37.722C211.831 36.866 212.554 36.2025 213.425 36.1892L226.258 36.0034C227.069 35.9901 227.746 36.6072 227.806 37.4035L228.135 41.6901C228.135 41.6901 226.754 45.0543 222.981 46.8658C219.209 48.6773 213.345 48.7371 213.345 48.7371L211.368 41.6901Z" fill="#60DE93"/>
<path d="M214.726 36.2157C214.767 36.2555 214.579 36.4744 214.499 36.9058C214.405 37.3371 214.472 37.9608 214.525 38.6708C214.619 40.0842 214.626 41.2388 214.525 41.2454C214.432 41.2454 214.271 40.1107 214.177 38.6974C214.123 38.0006 214.09 37.3238 214.264 36.846C214.425 36.3683 214.713 36.1825 214.733 36.2157H214.726Z" fill="#263238"/>
<path d="M217.802 41.1388C217.708 41.1388 217.56 40.0241 217.48 38.6439C217.447 37.9538 217.4 37.33 217.467 36.8522C217.534 36.3745 217.735 36.129 217.768 36.1555C217.815 36.1821 217.708 36.4342 217.715 36.8722C217.715 37.3035 217.802 37.9338 217.829 38.6239C217.909 40.0041 217.896 41.1322 217.802 41.1388Z" fill="#263238"/>
<path d="M221.656 41.0327C221.562 41.046 221.334 39.9578 221.153 38.6041C220.973 37.2504 220.906 36.1423 220.999 36.129C221.093 36.1158 221.321 37.204 221.502 38.5576C221.683 39.9113 221.75 41.0195 221.656 41.0327Z" fill="#263238"/>
<path d="M224.979 41.3117C224.885 41.3249 224.61 40.1372 224.497 38.6375C224.376 37.1379 224.47 35.9236 224.564 35.9236C224.664 35.9236 224.731 37.1313 224.845 38.611C224.959 40.0907 225.08 41.2918 224.979 41.3117Z" fill="#263238"/>
<g opacity="0.3">
<path d="M227.525 56.4871C227.016 60.9594 227.351 68.6501 228.945 72.8637L236.437 60.6078L227.525 56.4871Z" fill="black"/>
</g>
<path d="M236.485 44.8752L236.518 44.9151C238.642 47.1247 240.197 49.8055 241.055 52.7384L242.435 58.9692L227.693 61.232C227.693 61.232 226.426 57.7615 227.13 53.0702C227.833 48.3722 236.491 44.8819 236.491 44.8819L236.485 44.8752Z" fill="#60DE93"/>
<path d="M242.435 58.9685C242.435 58.9685 242.335 59.0016 242.147 59.0415C241.92 59.0813 241.638 59.1344 241.303 59.1941C240.512 59.3201 239.453 59.4927 238.147 59.705C235.413 60.1164 231.687 60.6804 227.465 61.3175L227.277 61.344V61.1516C227.237 60.269 227.21 59.3533 227.197 58.4177C227.163 55.9625 227.163 53.6268 227.338 51.4968C227.465 49.3535 228.169 47.4756 229.053 46.1087C229.938 44.7285 231.01 43.8858 231.801 43.4412C232.196 43.2156 232.524 43.0762 232.752 43.0033C232.98 42.9236 233.101 42.8905 233.101 42.9037C233.114 42.9369 232.632 43.0895 231.868 43.5606C231.11 44.0318 230.099 44.8878 229.261 46.2481C228.423 47.6017 227.767 49.4265 227.659 51.53C227.505 53.6401 227.512 55.9758 227.545 58.4177C227.572 59.3533 227.592 60.269 227.619 61.1449L227.425 60.9857C231.653 60.3951 235.386 59.8709 238.12 59.4927C239.427 59.3268 240.499 59.1874 241.29 59.0879C241.631 59.0481 241.913 59.0215 242.147 58.995C242.342 58.9751 242.449 58.9751 242.449 58.9817L242.435 58.9685Z" fill="#263238"/>
<path d="M211.295 49.8182C211.228 49.8912 210.31 49.1878 209.245 48.2456C208.173 47.3033 207.362 46.4871 207.422 46.4141C207.489 46.3411 208.407 47.0445 209.473 47.9868C210.545 48.929 211.356 49.7452 211.295 49.8182Z" fill="#FAFAFA"/>
<path d="M209.305 57.4958C209.359 57.5754 208.548 58.166 207.496 58.8097C206.444 59.4533 205.559 59.9112 205.505 59.8315C205.452 59.7519 206.263 59.1613 207.315 58.5177C208.36 57.874 209.251 57.4162 209.305 57.4958Z" fill="#FAFAFA"/>
<path d="M217.528 59.3865C217.435 59.3865 217.435 58.1125 217.528 56.5465C217.622 54.9871 217.776 53.7197 217.877 53.7263C217.971 53.7263 217.971 55.0004 217.877 56.5664C217.783 58.1257 217.629 59.3865 217.528 59.3865Z" fill="#FAFAFA"/>
<path d="M225.522 67.0635C225.441 67.1232 224.677 66.1676 223.659 65.0661C222.64 63.958 221.749 63.1219 221.816 63.0489C221.876 62.9759 222.882 63.7125 223.914 64.8339C224.952 65.9553 225.596 67.017 225.522 67.0635Z" fill="#FAFAFA"/>
<path d="M226.647 51.0129C226.701 51.0925 225.823 51.7693 224.691 52.5191C223.558 53.2756 222.593 53.8197 222.539 53.7401C222.486 53.6605 223.364 52.9836 224.496 52.2338C225.629 51.4774 226.594 50.9332 226.647 51.0129Z" fill="#FAFAFA"/>
<path d="M219.424 45.2065C219.478 45.2861 218.52 45.9828 217.293 46.7658C216.06 47.5488 215.022 48.1129 214.975 48.0332C214.921 47.9536 215.879 47.2569 217.106 46.4739C218.339 45.6909 219.377 45.1268 219.424 45.2065Z" fill="#FAFAFA"/>
<path d="M225.937 47.516C225.85 47.5492 225.394 46.6136 224.919 45.4325C224.45 44.2447 224.135 43.256 224.228 43.2162C224.316 43.183 224.771 44.1186 225.247 45.3064C225.716 46.4942 226.031 47.4829 225.937 47.5227V47.516Z" fill="#FAFAFA"/>
<path d="M234.897 50.4223C234.83 50.4886 234.16 49.9379 233.403 49.188C232.646 48.4382 232.083 47.7813 232.15 47.7083C232.217 47.6419 232.887 48.1927 233.644 48.9425C234.402 49.6923 234.964 50.3493 234.897 50.4223Z" fill="#FAFAFA"/>
<path d="M231.225 56.8984C231.131 56.8984 230.997 55.996 230.937 54.8746C230.876 53.7465 230.903 52.8308 230.997 52.8308C231.091 52.8308 231.225 53.7332 231.285 54.8547C231.345 55.9761 231.318 56.8918 231.225 56.8984Z" fill="#FAFAFA"/>
<path d="M238.65 55.5579C238.65 55.6508 237.591 55.6774 236.305 55.4783C235.018 55.2859 234.02 54.9475 234.046 54.8612C234.073 54.7683 235.092 54.9475 236.358 55.1399C237.625 55.3323 238.657 55.4584 238.65 55.5579Z" fill="#FAFAFA"/>
<path d="M208.629 68.9288C208.542 68.9686 207.939 67.887 207.282 66.5068C206.625 65.1266 206.163 63.9786 206.25 63.9388C206.337 63.899 206.94 64.9806 207.597 66.3608C208.253 67.741 208.716 68.889 208.629 68.9288Z" fill="#FAFAFA"/>
<path d="M218.439 79.4C218.358 79.4531 217.628 78.5905 216.81 77.4691C215.986 76.3476 215.383 75.3921 215.463 75.3324C215.544 75.2793 216.274 76.1419 217.092 77.2634C217.916 78.3848 218.519 79.3403 218.439 79.4Z" fill="#FAFAFA"/>
<path d="M226.607 75.0076C226.641 75.0938 225.649 75.5583 224.382 76.0427C223.116 76.5271 222.064 76.8456 222.03 76.7527C221.997 76.6665 222.988 76.202 224.255 75.7176C225.521 75.2332 226.574 74.9147 226.607 75.0076Z" fill="#FAFAFA"/>
<path d="M206.564 83.4873C206.477 83.4475 206.765 82.6313 207.208 81.6625C207.65 80.6937 208.079 79.9439 208.166 79.9837C208.253 80.0235 207.965 80.8397 207.523 81.8085C207.08 82.7773 206.651 83.5271 206.564 83.4873Z" fill="#FAFAFA"/>
<path d="M200.259 53.5011C200.179 53.5409 199.77 52.811 199.609 51.8024C199.441 50.8004 199.596 49.9776 199.683 49.9909C199.783 49.9975 199.79 50.7938 199.951 51.7493C200.105 52.7048 200.346 53.4613 200.252 53.5011H200.259Z" fill="#FAFAFA"/>
<path d="M211.45 76.7725C211.403 76.8588 210.512 76.454 209.46 75.8767C208.407 75.2994 207.597 74.7619 207.644 74.6757C207.69 74.5894 208.582 74.9942 209.634 75.5715C210.686 76.1488 211.497 76.6862 211.45 76.7725Z" fill="#FAFAFA"/>
<path d="M217.923 65.7169C217.99 65.7899 217.192 66.606 216.14 67.5483C215.095 68.4905 214.19 69.1939 214.123 69.1209C214.056 69.0479 214.854 68.2318 215.906 67.2895C216.951 66.3473 217.856 65.6439 217.923 65.7169Z" fill="#FAFAFA"/>
<g opacity="0.3">
<path d="M213.962 65.5117C214.384 67.7944 215.262 70.0704 216.944 71.6828C218.626 73.2953 221.213 74.1181 223.39 73.2687C223.846 73.0895 224.322 72.7909 224.429 72.3198C224.556 71.7691 224.108 71.225 223.585 71.006C223.062 70.787 222.472 70.8069 221.903 70.7737C218.659 70.5946 215.584 68.6238 214.089 65.7705" fill="black"/>
</g>
<path d="M222.674 70.8601C222.674 70.8601 222.513 70.9132 222.225 70.9397C221.93 70.9729 221.501 70.9663 220.978 70.9132C220.456 70.8601 219.832 70.7207 219.176 70.4951C218.519 70.2496 217.829 69.9178 217.159 69.46C216.495 68.9955 215.932 68.4713 215.477 67.9471C215.028 67.4162 214.679 66.892 214.451 66.4209C214.217 65.9564 214.063 65.5583 213.989 65.2729C213.915 64.9942 213.882 64.835 213.909 64.8283C213.969 64.8084 214.157 65.4256 214.666 66.3014C214.92 66.746 215.276 67.2304 215.718 67.7347C216.174 68.2258 216.723 68.7301 217.36 69.1747C218.003 69.6126 218.666 69.9444 219.29 70.1965C219.92 70.4288 220.509 70.5947 221.019 70.6743C222.03 70.8468 222.674 70.8004 222.68 70.8667L222.674 70.8601Z" fill="#263238"/>
<path d="M185.785 81.5564L195.495 80.4018L202.337 84.8411L228.492 78.6301L229.109 60.8999L240.722 59.387V80.8531C240.608 86.3142 236.024 90.6339 230.509 90.4879L192.198 89.4395L190.57 86.2146L182.348 85.9757L185.779 81.5631L185.785 81.5564Z" fill="#FFBE9D"/>
<path d="M228.156 78.6301C228.156 78.6301 227.988 78.6898 227.667 78.7761C227.318 78.869 226.842 78.9884 226.246 79.1411C224.979 79.4529 223.19 79.8975 220.999 80.435C216.536 81.5033 210.418 82.9764 203.656 84.5955C203.113 84.7216 202.577 84.8543 202.041 84.9804L201.974 84.9936L201.921 84.9605C199.502 83.3878 197.196 81.8882 195.085 80.508L195.179 80.5279C191.339 80.9659 188.016 81.3507 185.469 81.636L185.536 81.6029C184.451 82.9698 183.586 84.058 182.97 84.8278C182.682 85.1861 182.454 85.4648 182.279 85.6771C182.119 85.8695 182.032 85.9624 182.025 85.9558C182.018 85.9492 182.092 85.843 182.233 85.6439C182.393 85.425 182.615 85.133 182.883 84.768C183.479 83.985 184.323 82.8769 185.375 81.4901L185.402 81.4569H185.442C187.989 81.1384 191.306 80.727 195.146 80.2492H195.199L195.24 80.2691C197.357 81.636 199.662 83.1291 202.088 84.7017L201.968 84.6818C202.497 84.5557 203.04 84.4296 203.583 84.2969C210.351 82.711 216.476 81.2711 220.945 80.2227C223.15 79.7184 224.946 79.3136 226.219 79.0216C226.822 78.8889 227.305 78.7894 227.653 78.7098C227.982 78.6434 228.156 78.6102 228.156 78.6235V78.6301Z" fill="#EB996E"/>
<path d="M191.084 84.3102C191.084 84.3965 189.396 84.4629 187.312 84.4629C187.077 84.4629 186.849 84.4629 186.621 84.4629L186.715 84.4297C185.368 85.5445 184.316 86.3474 184.269 86.2943C184.222 86.2412 185.194 85.3388 186.521 84.2041L186.561 84.1709H186.615C186.836 84.1709 187.07 84.1709 187.305 84.1709C189.389 84.1709 191.078 84.2373 191.078 84.3235L191.084 84.3102Z" fill="#EB996E"/>
<path d="M232.968 81.5299C232.887 81.5763 232.385 80.362 231.065 79.5591C229.758 78.7297 228.438 78.8027 228.444 78.7098C228.444 78.6766 228.759 78.6036 229.289 78.6434C229.811 78.6832 230.535 78.8757 231.225 79.3003C231.909 79.7317 232.398 80.2957 232.666 80.7403C232.934 81.1915 233.001 81.51 232.974 81.5233L232.968 81.5299Z" fill="#EB996E"/>
<path d="M65.3838 223.279H21.625V229.231H65.3838V223.279Z" fill="#0E1738"/>
<path d="M65.4579 229.311H21.5518V223.206H65.4579V229.311ZM21.6992 229.165H65.3105V223.359H21.6992V229.165Z" fill="#0E1738"/>
<path d="M25.6797 227.254L31.9788 258.023H55.2855L61.3769 229.232L25.6797 227.254Z" fill="#0E1738"/>
<path d="M25.6797 255.11L29.0437 259.688H57.3696L61.3769 255.11H25.6797Z" fill="#0E1738"/>
<path d="M41.8625 228.15C41.7757 228.15 41.6689 213.897 41.6155 196.313C41.5688 178.728 41.5955 164.475 41.6823 164.475C41.7691 164.475 41.8759 178.728 41.9293 196.313C41.976 213.89 41.9493 228.15 41.8625 228.15Z" fill="#263238"/>
<path d="M51.6125 192.477C51.6125 192.477 51.579 192.596 51.4919 192.808C51.3914 193.047 51.2574 193.352 51.1032 193.731C51.0161 193.936 50.9223 194.155 50.8151 194.394C50.728 194.646 50.6275 194.918 50.5269 195.204C50.4197 195.496 50.3058 195.808 50.1919 196.133C50.078 196.465 49.9841 196.823 49.8702 197.194C49.3944 198.674 49.0125 200.486 48.6439 202.503C48.3223 204.527 48.0877 206.77 47.9671 209.139C47.7527 213.87 48.0274 218.163 48.3156 221.255C48.4563 222.801 48.597 224.055 48.7042 224.918C48.7511 225.323 48.7846 225.654 48.8114 225.913C48.8315 226.139 48.8382 226.265 48.8315 226.265C48.8181 226.265 48.7913 226.152 48.7511 225.927C48.7042 225.668 48.6506 225.343 48.5836 224.938C48.4429 224.082 48.2686 222.828 48.1011 221.282C47.7527 218.189 47.4511 213.883 47.6655 209.125C47.7862 206.75 48.0341 204.494 48.3692 202.456C48.7511 200.433 49.1599 198.614 49.6625 197.135C49.7831 196.763 49.8836 196.405 50.011 196.08C50.1383 195.755 50.2589 195.443 50.3728 195.157C50.4867 194.872 50.594 194.6 50.6878 194.354C50.795 194.109 50.9089 193.897 51.0027 193.698C51.1837 193.333 51.3311 193.034 51.445 192.795C51.5522 192.589 51.6125 192.483 51.6192 192.49L51.6125 192.477Z" fill="#263238"/>
<path d="M50.4937 180.951C50.4937 180.951 50.4535 181.117 50.353 181.422C50.2391 181.754 50.085 182.192 49.8973 182.749C49.7968 183.041 49.6829 183.36 49.5623 183.705C49.455 184.063 49.3344 184.441 49.2071 184.853C48.9525 185.676 48.6576 186.618 48.3896 187.673C48.2488 188.197 48.1014 188.748 47.9473 189.319C47.8133 189.896 47.6792 190.5 47.5385 191.123C47.2302 192.364 47.0091 193.711 46.7277 195.118C46.2452 197.951 45.823 201.077 45.5281 204.381C45.2534 207.686 45.1328 210.844 45.0859 213.718C45.0792 216.591 45.1127 219.179 45.2333 221.349C45.2735 222.437 45.3405 223.412 45.4008 224.275C45.4477 225.137 45.508 225.881 45.5617 226.484C45.6086 227.068 45.6421 227.533 45.6689 227.878C45.689 228.196 45.6957 228.369 45.6823 228.369C45.6689 228.369 45.6421 228.203 45.6019 227.885C45.5617 227.54 45.508 227.075 45.4343 226.491C45.3606 225.887 45.2869 225.144 45.2199 224.281C45.1462 223.419 45.0591 222.437 45.0055 221.349C44.858 219.179 44.7977 216.584 44.791 213.704C44.8178 210.825 44.9317 207.659 45.2065 204.348C45.5013 201.037 45.9369 197.898 46.4328 195.065C46.721 193.652 46.9555 192.305 47.2705 191.064C47.4179 190.44 47.5586 189.836 47.6993 189.259C47.8602 188.688 48.0143 188.137 48.1617 187.613C48.4365 186.558 48.7514 185.623 49.0262 184.8C49.1602 184.388 49.2875 184.01 49.4014 183.652C49.5355 183.307 49.6561 182.988 49.7633 182.703C49.9777 182.159 50.1453 181.721 50.2726 181.396C50.3932 181.097 50.4602 180.944 50.4736 180.951H50.4937Z" fill="#263238"/>
<path d="M39.0958 230.671C39.0958 230.671 39.0824 230.618 39.069 230.505C39.0556 230.379 39.0422 230.213 39.0288 230.014C38.9953 229.563 38.9551 228.926 38.9015 228.13C38.7943 226.464 38.6468 224.102 38.4659 221.189C38.084 215.33 37.5345 207.228 36.5427 198.323C36.0334 193.87 35.4437 189.643 34.8272 185.808C34.4988 183.897 34.204 182.072 33.8689 180.38C33.5607 178.681 33.2323 177.109 32.924 175.669C32.6359 174.229 32.3142 172.942 32.0596 171.8C31.8049 170.659 31.5637 169.683 31.356 168.894C31.1616 168.111 31.0142 167.5 30.9003 167.056C30.8534 166.857 30.8199 166.704 30.7864 166.578C30.7663 166.472 30.7529 166.412 30.7596 166.412C30.7596 166.412 30.7864 166.465 30.8199 166.571C30.8534 166.697 30.9003 166.85 30.9606 167.042C31.0812 167.48 31.2554 168.091 31.4699 168.867C31.691 169.657 31.9591 170.632 32.2271 171.767C32.5019 172.902 32.8369 174.189 33.1385 175.629C33.4601 177.062 33.8019 178.635 34.1236 180.34C34.472 182.032 34.7736 183.857 35.1086 185.768C35.7385 189.603 36.3416 193.837 36.8509 198.296C37.8494 207.208 38.3654 215.316 38.6871 221.182C38.8479 224.115 38.9618 226.491 39.0288 228.13C39.0556 228.933 39.0824 229.563 39.0958 230.021C39.0958 230.22 39.1025 230.386 39.1092 230.512C39.1092 230.625 39.1092 230.678 39.1025 230.678L39.0958 230.671Z" fill="#263238"/>
<path d="M41.5084 171.329C41.3208 169.312 39.2568 167.786 37.2063 167.766C35.1557 167.746 33.2459 168.96 31.9995 170.566C30.7463 172.172 30.0561 174.129 29.4932 176.08C28.1128 180.838 27.3622 185.835 27.9519 190.752C28.5416 195.668 30.5587 200.506 34.117 203.976C34.6933 204.54 35.4439 205.104 36.2413 204.938C36.6769 204.846 37.032 204.547 37.3604 204.255C44.3564 197.998 48.3973 188.622 48.1225 179.285C48.0689 177.414 47.821 175.47 46.7756 173.91C45.7302 172.351 43.291 170.699 41.5151 171.323" fill="#74A587"/>
<path d="M26.2112 155.152C25.2462 156.877 24.2879 158.602 23.323 160.328C23.256 160.447 23.1688 160.586 23.0281 160.593C22.874 160.606 22.7601 160.467 22.6797 160.334C20.1399 156.472 17.5935 152.61 15.0537 148.742L16.8094 147.753L26.2045 155.145L26.2112 155.152Z" fill="#74A587"/>
<g opacity="0.2">
<path d="M26.2112 155.152C25.2462 156.877 24.2879 158.602 23.323 160.328C23.256 160.447 23.1688 160.586 23.0281 160.593C22.874 160.606 22.7601 160.467 22.6797 160.334C20.1399 156.472 17.5935 152.61 15.0537 148.742L16.8094 147.753L26.2045 155.145L26.2112 155.152Z" fill="black"/>
</g>
<path d="M41.6838 164.475C33.0124 159.405 24.3411 154.342 15.6698 149.273C15.4017 149.12 15.1136 148.934 15.0332 148.642C14.9326 148.264 15.2208 147.893 15.4955 147.607C19.074 143.951 24.2741 141.834 29.4005 142.199C34.5269 142.564 39.459 145.497 41.9719 149.943C44.4849 154.382 44.5653 160.261 41.6838 164.475Z" fill="#74A587"/>
<path d="M19.415 144.422C19.415 144.422 19.529 144.396 19.7568 144.382C19.9779 144.369 20.313 144.329 20.7419 144.336C21.5996 144.316 22.8393 144.369 24.3538 144.621C25.8683 144.867 27.6374 145.351 29.4936 146.167C31.3499 146.983 33.2664 148.165 35.0087 149.711C36.7443 151.277 38.118 153.048 39.1232 154.794C40.1284 156.539 40.7918 158.237 41.1872 159.704C41.5893 161.17 41.7702 162.391 41.8305 163.234C41.8774 163.652 41.8707 163.984 41.8841 164.209C41.8841 164.435 41.8841 164.548 41.8774 164.548C41.8506 164.548 41.8171 164.083 41.7166 163.247C41.6161 162.411 41.4016 161.21 40.9795 159.764C40.1552 156.897 38.2454 153.028 34.801 149.936C31.3566 146.851 27.2755 145.358 24.3136 144.833C22.8192 144.561 21.5929 144.469 20.7419 144.455C19.8908 144.435 19.4217 144.455 19.4217 144.422H19.415Z" fill="#263238"/>
<path d="M38.1585 153.984C38.1719 154.024 37.6694 154.249 36.8451 154.574C36.0142 154.9 34.8549 155.311 33.5615 155.716C32.2682 156.12 31.0754 156.446 30.2109 156.658C29.3465 156.87 28.8037 156.963 28.7903 156.923C28.7769 156.884 29.2996 156.711 30.1506 156.446C31.1089 156.147 32.228 155.802 33.461 155.424C34.694 155.032 35.8064 154.674 36.7647 154.369C37.6091 154.097 38.1384 153.944 38.1518 153.984H38.1585Z" fill="#263238"/>
<path d="M34.0646 143.088C34.1447 143.082 34.3317 144.362 34.3717 145.962C34.4118 147.561 34.2983 148.848 34.2115 148.848C34.1247 148.848 34.1047 147.554 34.058 145.968C34.0179 144.382 33.9779 143.095 34.058 143.088H34.0646Z" fill="#263238"/>
<path d="M15.4426 148.988C15.4292 148.948 16.1529 148.689 17.3323 148.331C18.5117 147.973 20.1602 147.515 21.9963 147.077C23.8324 146.639 25.5077 146.301 26.7274 146.095C27.947 145.883 28.7042 145.79 28.7109 145.83C28.7176 145.876 27.9738 146.042 26.7676 146.307C25.5614 146.573 23.8995 146.944 22.07 147.376C20.2406 147.814 18.5921 148.232 17.3926 148.544C16.1998 148.849 15.456 149.035 15.4426 148.995V148.988Z" fill="#263238"/>
<path d="M29.6876 166.552C27.4494 164.873 25.0839 164.541 22.2761 164.654C19.4683 164.767 16.7409 165.609 14.1677 166.724C9.77841 168.629 5.65718 171.429 3.03702 175.397C0.416856 179.365 -0.494505 184.62 1.46894 188.947C1.66328 189.378 1.91792 189.829 2.3602 190.015C2.82258 190.214 3.35198 190.055 3.82776 189.902C8.82014 188.29 13.8393 186.664 18.4296 184.143C23.02 181.621 27.1948 178.111 29.6541 173.519C30.2438 172.418 30.7397 171.236 30.8335 169.996C30.9274 168.755 30.5856 167.428 29.6876 166.552Z" fill="#74A587"/>
<path d="M29.7278 166.028C29.7278 166.028 29.6071 166.087 29.3659 166.174C29.0979 166.267 28.7494 166.386 28.3205 166.532C28.0927 166.605 27.838 166.691 27.5633 166.784C27.2885 166.884 26.9937 167.003 26.6787 167.123C26.0488 167.375 25.3117 167.627 24.541 167.998C24.1524 168.178 23.7436 168.357 23.3147 168.549C22.8926 168.742 22.4637 168.98 22.0214 169.206C21.1167 169.644 20.1987 170.208 19.227 170.779C17.3172 171.973 15.2867 173.42 13.3166 175.118C11.3598 176.837 9.65771 178.642 8.21696 180.367C7.52003 181.25 6.84321 182.079 6.28702 182.909C6.00557 183.32 5.71071 183.705 5.46277 184.096C5.21483 184.488 4.98028 184.866 4.75244 185.224C4.28336 185.934 3.9349 186.624 3.59984 187.208C3.43901 187.507 3.27818 187.779 3.14416 188.031C3.01684 188.29 2.90292 188.529 2.7957 188.741C2.59466 189.146 2.43383 189.471 2.30651 189.723C2.19259 189.949 2.12558 190.062 2.11888 190.055C2.11218 190.055 2.15238 189.929 2.2529 189.697C2.36682 189.438 2.51425 189.1 2.68848 188.688C2.789 188.469 2.89621 188.224 3.01013 187.965C3.13746 187.706 3.28488 187.427 3.44571 187.122C3.76737 186.525 4.10243 185.828 4.55811 185.105C4.77925 184.74 5.01379 184.355 5.25503 183.957C5.49627 183.559 5.79113 183.167 6.07258 182.749C6.62207 181.907 7.29889 181.071 7.98912 180.175C9.42987 178.43 11.1387 176.605 13.1088 174.873C15.0924 173.161 17.1362 171.714 19.0729 170.527C20.058 169.963 20.9827 169.405 21.9008 168.967C22.3565 168.742 22.7853 168.509 23.2142 168.324C23.6431 168.138 24.0586 167.959 24.4539 167.786C25.238 167.428 25.9751 167.189 26.6184 166.95C26.9401 166.837 27.2349 166.724 27.5164 166.631C27.7911 166.552 28.0525 166.472 28.287 166.406C28.7226 166.28 29.0777 166.18 29.3525 166.107C29.5937 166.041 29.7278 166.014 29.7278 166.021V166.028Z" fill="#263238"/>
<path d="M12.2513 175.404C12.2781 175.483 9.83888 176.266 6.80995 177.142C3.78101 178.018 1.30157 178.662 1.28147 178.582C1.25466 178.502 3.6939 177.726 6.72283 176.844C9.75177 175.968 12.2312 175.324 12.2513 175.404Z" fill="#263238"/>
<path d="M12.0235 187.295C11.9832 187.295 11.9296 186.651 11.9028 185.616C11.876 184.581 11.8693 183.141 11.9162 181.561C11.9631 179.976 12.0436 178.542 12.1307 177.507C12.2178 176.472 12.3049 175.835 12.3451 175.835C12.392 175.835 12.3786 176.479 12.3451 177.514C12.3116 178.648 12.2647 180.035 12.2178 181.561C12.1776 183.088 12.1441 184.474 12.1173 185.609C12.0905 186.644 12.0637 187.288 12.0168 187.288L12.0235 187.295Z" fill="#263238"/>
<path d="M22.3159 182.106C22.2287 182.106 21.954 179.193 21.706 175.59C21.4514 171.986 21.3174 169.06 21.4045 169.053C21.4916 169.053 21.7664 171.966 22.0143 175.57C22.2689 179.173 22.403 182.099 22.3159 182.106Z" fill="#263238"/>
<path d="M9.50279 168.775C9.50279 168.735 10.1729 168.715 11.2451 168.722C12.324 168.729 13.805 168.762 15.4467 168.815C17.0885 168.868 18.5695 168.934 19.6417 169.001C20.7139 169.067 21.3773 169.127 21.3773 169.167C21.3773 169.206 20.7139 169.226 19.635 169.22C18.5561 169.213 17.0751 169.18 15.4333 169.127C13.7916 169.074 12.3106 169.007 11.2317 168.941C10.1595 168.875 9.49609 168.815 9.49609 168.775H9.50279Z" fill="#263238"/>
<path d="M35.2216 205.363C35.2216 205.363 35.2015 205.244 35.1814 205.012C35.168 204.746 35.1546 204.414 35.1345 203.996C35.0943 203.12 35.0876 201.846 35.1211 200.267C35.1479 198.695 35.2551 196.823 35.4427 194.746C35.6438 192.676 35.9386 190.4 36.3608 188.038C36.7897 185.676 37.3056 183.439 37.8417 181.429C38.3912 179.418 38.9407 177.627 39.4634 176.14C39.9794 174.654 40.4351 173.459 40.7769 172.65C40.9377 172.272 41.0717 171.96 41.1722 171.714C41.266 171.502 41.3197 171.396 41.3331 171.396C41.3398 171.396 41.3063 171.515 41.2325 171.734C41.1454 171.986 41.0315 172.298 40.8908 172.69C40.5825 173.513 40.1604 174.714 39.6712 176.207C39.1753 177.7 38.6459 179.491 38.1165 181.502C37.6005 183.512 37.0979 185.742 36.6623 188.098C36.2469 190.453 35.9453 192.716 35.7242 194.78C35.5231 196.843 35.3958 198.708 35.3355 200.28C35.2752 201.846 35.2484 203.12 35.2484 203.996C35.2484 204.408 35.2417 204.746 35.235 205.012C35.235 205.244 35.2216 205.363 35.2082 205.363H35.2216Z" fill="#263238"/>
<path d="M36.5965 187.792C36.5965 187.792 36.2346 188.257 35.5578 188.92C34.8877 189.584 33.9294 190.48 32.8371 191.422C31.7448 192.371 30.7262 193.187 29.9757 193.764C29.2252 194.342 28.736 194.667 28.7092 194.634C28.6824 194.6 29.118 194.209 29.835 193.592C30.6324 192.902 31.584 192.086 32.6294 191.19C33.6681 190.281 34.6129 189.451 35.4037 188.761C36.114 188.137 36.563 187.759 36.5898 187.792H36.5965Z" fill="#263238"/>
<path d="M44.8325 194.355C44.7923 194.381 44.3835 193.791 43.7268 192.842C43.0165 191.813 42.1319 190.539 41.1535 189.126C40.155 187.726 39.2571 186.465 38.5267 185.45C37.8498 184.507 37.4411 183.923 37.4746 183.897C37.5081 183.87 37.9839 184.414 38.7009 185.317C39.4246 186.226 40.3896 187.5 41.4082 188.953C42.4267 190.4 43.2979 191.74 43.9077 192.729C44.5175 193.711 44.866 194.341 44.8258 194.361L44.8325 194.355Z" fill="#263238"/>
<path d="M40.5161 173.698C40.563 173.771 37.8289 175.596 34.4046 177.772C30.9803 179.949 28.1725 181.654 28.1256 181.588C28.0787 181.515 30.8128 179.69 34.2371 177.514C37.6547 175.337 40.4692 173.632 40.5161 173.698Z" fill="#263238"/>
<path d="M48.2302 181.946C48.1698 182.006 46.3203 180.314 44.0955 178.157C41.8707 176.007 40.115 174.209 40.1753 174.149C40.2356 174.09 42.0852 175.782 44.31 177.938C46.5348 180.088 48.2905 181.886 48.2302 181.946Z" fill="#263238"/>
<path d="M50.1719 181.78L52.5173 181.588C54.1859 181.448 55.8009 180.964 57.2617 180.148C57.9788 179.743 58.7092 179.352 59.4731 179.046C62.3747 177.892 65.6181 178.097 68.7409 177.945C73.8405 177.693 78.8865 176.412 83.4835 174.209C83.7515 174.083 83.9861 173.891 84.1268 173.632C84.6093 172.762 83.7113 171.986 82.9407 171.515C78.987 169.1 74.9596 166.658 70.4698 165.457C65.98 164.256 60.8871 164.461 57.0607 167.069C52.5642 170.128 50.9291 176.419 50.1719 181.767" fill="#74A587"/>
<path d="M84.1734 173.353C84.1734 173.353 84.0327 173.3 83.778 173.167C83.4966 173.021 83.128 172.829 82.6656 172.59C81.7007 172.086 80.3135 171.342 78.5578 170.513C76.8021 169.69 74.6711 168.754 72.1917 168.084C69.7256 167.407 66.8776 167.049 63.9425 167.421C61.0208 167.799 58.3269 168.927 56.4238 170.619C54.5073 172.304 53.3345 174.335 52.5103 176.067C51.6861 177.812 51.1768 179.292 50.8082 180.307C50.634 180.791 50.4932 181.183 50.3927 181.482C50.2922 181.747 50.2386 181.886 50.2252 181.886C50.2118 181.886 50.252 181.74 50.3324 181.462C50.4262 181.163 50.5469 180.765 50.6943 180.267C51.0293 179.239 51.5051 177.746 52.316 175.974C53.1268 174.222 54.2861 172.145 56.2429 170.407C58.1862 168.662 60.9404 167.5 63.909 167.115C66.891 166.737 69.786 167.109 72.2721 167.812C74.7716 168.509 76.9026 169.464 78.6583 170.32C80.4073 171.183 81.7811 171.953 82.7327 172.49C83.1816 172.749 83.5435 172.961 83.8182 173.121C84.0662 173.267 84.1935 173.346 84.1868 173.36L84.1734 173.353Z" fill="#263238"/>
<path d="M78.5386 176.353C78.4917 176.426 75.4159 174.455 71.6766 171.96C67.9373 169.465 64.9419 167.382 64.9888 167.309C65.0357 167.236 68.1049 169.207 71.8508 171.702C75.5901 174.197 78.5855 176.28 78.5386 176.353Z" fill="#263238"/>
<path d="M75.5891 167.017C75.6025 167.096 74.537 167.368 73.1901 167.494C71.8431 167.62 70.7441 167.541 70.7441 167.461C70.7441 167.375 71.8297 167.309 73.1633 167.189C74.4968 167.07 75.5757 166.937 75.5891 167.023V167.017Z" fill="#263238"/>
<path d="M61.8186 164.574C61.8923 164.621 61.4433 165.51 60.8134 166.572C60.1835 167.633 59.6139 168.456 59.5401 168.41C59.4664 168.363 59.9154 167.474 60.5453 166.412C61.1752 165.357 61.7448 164.528 61.8186 164.574Z" fill="#263238"/>
<path d="M64.5661 178.144C64.546 178.177 63.9764 177.885 63.0852 177.348C62.2006 176.817 61.0011 176.034 59.7212 175.112C58.4412 174.189 57.3088 173.32 56.4979 172.683C55.6871 172.046 55.1979 171.635 55.2247 171.602C55.2515 171.568 55.7876 171.913 56.6319 172.511C57.55 173.174 58.6691 173.977 59.9021 174.866C61.182 175.782 62.3547 176.592 63.2058 177.169C64.0568 177.746 64.5862 178.104 64.5661 178.144Z" fill="#263238"/>
<path d="M53.6316 191.654C51.3934 191.07 48.7196 193.227 48.2573 195.476C47.7949 197.726 48.6459 200.022 49.6444 202.092C51.8491 206.677 54.8981 210.931 58.9054 214.089C62.9195 217.254 67.9386 219.278 73.0651 219.252C72.1202 214.899 73.313 210.347 72.7903 205.921C72.3279 202.059 70.5119 198.369 67.7175 195.636C64.9298 192.902 61.1838 191.137 57.2771 190.719C55.8497 190.566 54.1945 190.34 53.6249 191.648" fill="#74A587"/>
<path d="M73.0719 219.258C73.0719 219.258 72.958 219.218 72.7502 219.112C72.5492 219.006 72.2543 218.827 71.9126 218.555C71.2089 218.024 70.4048 217.009 69.7012 215.628C69.346 214.945 68.9439 214.195 68.5553 213.372C68.18 212.543 67.7712 211.66 67.3491 210.731C66.9202 209.809 66.4511 208.847 65.8681 207.911C65.2851 206.976 64.5949 206.06 63.8309 205.164C62.2964 203.379 60.6546 201.84 59.2272 200.36C57.7932 198.894 56.587 197.48 55.7158 196.186C54.838 194.906 54.3019 193.751 54.0003 192.941C53.8529 192.53 53.7524 192.212 53.6987 191.993C53.6451 191.774 53.6183 191.654 53.625 191.654C53.6518 191.647 53.7792 192.105 54.1075 192.902C54.4426 193.691 54.9988 194.813 55.89 196.067C56.7746 197.328 57.9875 198.714 59.4283 200.161C60.8623 201.621 62.5175 203.16 64.0655 204.958C64.8361 205.861 65.5397 206.79 66.1227 207.745C66.7125 208.701 67.1815 209.676 67.6037 210.605C68.0192 211.534 68.4146 212.424 68.7831 213.253C69.1584 214.076 69.5471 214.826 69.8888 215.516C70.5656 216.903 71.3162 217.904 71.9796 218.455C72.6363 219.013 73.0786 219.218 73.0585 219.252L73.0719 219.258Z" fill="#263238"/>
<path d="M61.4849 215.642C61.4447 215.635 61.5117 215.064 61.6926 214.149C61.8669 213.233 62.155 211.979 62.5437 210.619C62.9323 209.252 63.3478 208.031 63.6829 207.161C64.0112 206.292 64.2525 205.768 64.2927 205.781C64.3329 205.795 64.1654 206.345 63.8906 207.234C63.6159 208.117 63.2339 209.345 62.8452 210.705C62.4566 212.065 62.1416 213.306 61.9071 214.202C61.6792 215.098 61.5318 215.655 61.4849 215.648V215.642Z" fill="#263238"/>
<path d="M72.6491 204.946C72.6357 204.985 72.0393 204.839 71.0744 204.587C70.1094 204.335 68.7759 203.997 67.2949 203.665C65.8139 203.333 64.4603 203.074 63.4819 202.895C62.5036 202.709 61.8937 202.597 61.9004 202.55C61.9004 202.51 62.5237 202.55 63.5154 202.683C64.5072 202.809 65.8743 203.035 67.3619 203.366C68.8496 203.698 70.1831 204.076 71.1347 204.382C72.0862 204.687 72.6626 204.912 72.6491 204.952V204.946Z" fill="#263238"/>
<path d="M53.1766 208.057C53.1364 208.051 53.2235 207.387 53.4178 206.332C53.6122 205.271 53.9271 203.817 54.3493 202.225C54.7715 200.632 55.2138 199.212 55.5622 198.19C55.9107 197.168 56.1653 196.551 56.2055 196.565C56.2457 196.578 56.0715 197.222 55.7767 198.257C55.4818 199.292 55.073 200.719 54.6509 202.304C54.2354 203.89 53.8869 205.33 53.6323 206.379C53.3776 207.42 53.2168 208.071 53.1766 208.064V208.057Z" fill="#263238"/>
<path d="M67.5093 195.636C67.5026 195.722 64.7015 195.496 61.2638 195.138C57.8261 194.78 55.0451 194.415 55.0518 194.328C55.0585 194.242 57.8596 194.468 61.2973 194.826C64.735 195.184 67.516 195.549 67.5093 195.636Z" fill="#263238"/>
<path d="M65.4589 229.211C65.4589 229.298 55.6283 229.364 43.5058 229.364C31.3834 229.364 21.5527 229.298 21.5527 229.211C21.5527 229.125 31.3767 229.059 43.5058 229.059C55.635 229.059 65.4589 229.125 65.4589 229.211Z" fill="white"/>
<path d="M58.623 241.732C58.623 241.819 52.0022 241.885 43.8335 241.885C35.6647 241.885 29.0439 241.819 29.0439 241.732C29.0439 241.646 35.6647 241.58 43.8335 241.58C52.0022 241.58 58.623 241.646 58.623 241.732Z" fill="white"/>
<path d="M58.8779 243.524C58.8779 243.611 52.2571 243.677 44.0884 243.677C35.9196 243.677 29.2988 243.611 29.2988 243.524C29.2988 243.438 35.9196 243.372 44.0884 243.372C52.2571 243.372 58.8779 243.438 58.8779 243.524Z" fill="white"/>
<path d="M58.8779 240.26C58.8779 240.346 52.0293 240.412 43.5791 240.412C35.1289 240.412 28.2803 240.346 28.2803 240.26C28.2803 240.174 35.1289 240.107 43.5791 240.107C52.0293 240.107 58.8779 240.174 58.8779 240.26Z" fill="white"/>
</svg>
