<svg width="381" height="238" viewBox="0 0 381 238" fill="none" xmlns="http://www.w3.org/2000/svg">
<g clip-path="url(#clip0_62_1984)">
<path d="M329.231 208.231C332.989 220.003 308.451 219.874 308.881 220.003L129.011 219.868C97.5153 220.458 38.6622 220.618 11.7043 186.577C9.83132 184.207 8.22858 181.634 6.80392 178.968C-6.00572 154.932 -4.68546 113.27 45.589 95.0617C64.1955 88.3249 83.9565 85.4938 102.717 79.0763C124.436 71.6516 145.088 61.4635 164.143 48.6653C221.086 10.3752 251.79 12.586 276.599 22.4549C300.842 32.0903 317.742 54.395 321.113 80.2677C324.226 104.218 312.301 125.872 299.921 145.886C271.305 192.135 324.969 194.855 329.237 208.231H329.231Z" fill="url(#paint0_linear_62_1984)" fill-opacity="0.15"/>
<path d="M55.2465 70.6843C55.6298 71.9147 56.8576 73.2517 58.5965 74.1621C61.18 75.4992 63.9054 75.3782 64.6791 73.8847C65.5734 72.1565 63.8416 70.5776 62.6847 69.525C61.9607 68.8636 61.471 68.2733 61.1445 67.3203C60.8039 66.3175 60.6832 65.2436 60.5838 64.191C60.5412 63.7572 60.5199 63.3233 60.4703 62.8966C60.4703 62.8682 60.3425 62.2779 60.3141 62.3134L56.0911 67.2207L55.793 68.444C55.6014 68.6076 55.4382 68.7996 55.3175 69.0201C55.0691 69.5108 55.0549 70.0869 55.2394 70.6843H55.2465Z" fill="#2C2A2B"/>
<path d="M28.9502 48.5161C31.3917 50.4364 34.9262 50.0097 36.8497 47.5631C38.766 45.1166 38.3401 41.5748 35.8986 39.6474C33.4571 37.7272 29.9225 38.1539 27.9991 40.6004C26.0828 43.047 26.5086 46.5888 28.9502 48.5161Z" fill="#263238"/>
<mask id="mask0_62_1984" style="mask-type:luminance" maskUnits="userSpaceOnUse" x="26" y="38" width="13" height="12">
<path d="M28.9502 48.5161C31.3917 50.4364 34.9262 50.0097 36.8497 47.5631C38.766 45.1166 38.3401 41.5748 35.8986 39.6474C33.4571 37.7272 29.9225 38.1539 27.9991 40.6004C26.0828 43.047 26.5086 46.5888 28.9502 48.5161Z" fill="white"/>
</mask>
<g mask="url(#mask0_62_1984)">
<path d="M26.3594 49.3482C24.3934 49.3482 22.5054 48.765 20.944 47.6484C19.0632 46.3042 17.8779 44.3626 17.6153 42.1793C17.3527 39.9887 18.0411 37.8196 19.5529 36.07C21.0575 34.3276 23.2081 33.2039 25.5999 32.9123C27.9918 32.6207 30.3411 33.1967 32.2219 34.5338C34.1027 35.878 35.288 37.8196 35.5506 40.003C35.8132 42.1935 35.1248 44.3626 33.613 46.1122C32.1083 47.8547 29.9578 48.9784 27.5659 49.27C27.1614 49.3197 26.7639 49.3411 26.3594 49.3411V49.3482ZM17.963 42.1366C18.2115 44.2275 19.3471 46.0838 21.1498 47.3639C22.9597 48.6512 25.2238 49.2059 27.5305 48.9286C29.8371 48.6512 31.9025 47.5702 33.3575 45.8917C34.8054 44.2204 35.4654 42.1437 35.2099 40.0528C34.9615 37.9618 33.8259 36.1056 32.0232 34.8254C30.2133 33.5381 27.9563 32.9834 25.6425 33.2608C23.3358 33.5381 21.2705 34.6192 19.8155 36.2976C18.3676 37.9689 17.7075 40.0456 17.963 42.1366Z" fill="#263238"/>
<path d="M28.7865 44.9316C26.3804 44.9316 24.3151 43.2958 24.0454 41.0484C23.9034 39.8607 24.2725 38.6872 25.0958 37.7342C25.912 36.7883 27.0689 36.1838 28.3606 36.0273C31.0364 35.7002 33.4495 37.4284 33.7405 39.8749C34.0315 42.3215 32.101 44.5689 29.4252 44.8889C29.2123 44.9174 28.9923 44.9245 28.7794 44.9245L28.7865 44.9316ZM29.0065 36.3473C28.8078 36.3473 28.609 36.3616 28.4032 36.3829C27.1966 36.5323 26.1178 37.0941 25.3584 37.9689C24.6061 38.8437 24.2583 39.9176 24.3931 41.0057C24.6628 43.2531 26.8985 44.8462 29.3827 44.5475C31.8668 44.2488 33.6624 42.1721 33.3927 39.9247C33.1443 37.8551 31.2351 36.3473 28.9994 36.3473H29.0065Z" fill="#263238"/>
</g>
<path d="M59.5622 83.7918C59.6119 83.8771 61.6276 91.0034 63.693 98.3217C64.4595 101.046 65.226 103.791 65.9074 106.216C66.0635 106.757 66.3971 107.219 66.532 107.738C67.5966 111.806 70.0807 114.246 73.6507 112.859L80.3579 109.95L68.1147 76.4095C68.1147 76.4095 64.0407 73.3229 61.4856 74.2972C58.0363 75.6272 57.5465 80.6838 59.5622 83.7847V83.7918Z" fill="#2E68B8"/>
<path d="M63.6924 98.3217C64.4589 101.046 65.2254 103.791 65.9068 106.216C66.0629 106.757 66.2688 107.269 66.5314 107.738C66.3397 103.407 68.689 98.592 68.5542 98.4284L65.63 96.8708L63.6924 98.3217Z" fill="#2C2A2B"/>
<path d="M50.271 68.2946C49.902 68.4653 49.689 68.5649 49.689 68.5649L51.3995 74.8519L56.4458 76.6869L62.1806 75.8405C62.2516 75.5632 57.8086 74.0554 59.4126 68.5862C59.4126 68.5862 59.4126 68.572 59.4126 68.5649C59.4126 68.2804 59.7107 67.8181 59.8029 67.5408C59.9378 67.1638 60.0443 66.7727 60.1507 66.3815C60.3566 65.5494 60.5127 64.7031 60.6121 63.8425C61.0024 60.4074 60.6121 56.5669 59.0932 53.4163C59.079 53.3878 59.0577 53.3451 59.0293 53.2883C58.8661 52.9113 58.4331 51.9299 57.9363 50.9982C57.4182 50.0025 56.822 49.0637 56.4174 48.957C56.0768 48.8646 55.7929 49.3624 55.4948 49.7607C55.3102 50.0096 55.1115 50.223 54.9057 50.223C54.2385 50.223 53.5997 50.4363 53.0036 50.8275C52.9255 50.8773 52.8474 50.9342 52.7764 50.9839C50.5975 52.6197 49.0645 56.6878 49.0645 61.4458C49.0645 64.0203 49.5187 66.3957 50.2781 68.2946H50.271Z" fill="#6B3217"/>
<path d="M33.8334 77.8817C37.297 81.0324 39.1849 87.2127 38.7449 91.0959L38.3049 97.1482L38.2907 97.2691C38.2552 97.639 38.2197 98.0159 38.1842 98.4C38.1345 98.912 38.0919 99.5023 38.0352 100.135C37.6874 100.135 36.7363 113.911 34.8768 120.76C40.7961 120.867 46.7296 120.782 52.6489 120.49C53.3515 120.774 54.0826 121.045 54.8349 121.294C61.6485 123.513 68.7318 120.974 68.7318 120.974C69.0441 120.006 68.6253 118.285 67.8091 117.055C66.5599 115.17 65.694 113.691 65.4314 111.721C65.105 109.253 64.9346 106.771 64.892 104.26C65.0269 103.435 65.1546 102.582 65.2966 101.707C65.2966 101.672 65.2966 101.629 65.3108 101.593C65.3676 101.572 65.396 101.565 65.396 101.565C68.0007 100.427 69.115 98.7556 69.186 96.7998C69.115 95.4485 68.5827 93.45 67.582 91.6435C67.5536 91.5866 67.5181 91.5368 67.4897 91.4871C67.3407 91.231 67.1845 90.975 67.0142 90.719C66.5954 90.086 66.1341 89.4388 65.6231 88.7987C65.4811 84.624 68.2775 77.647 68.1285 76.5518C68.1214 76.5233 68.1072 76.4807 68.1001 76.4522C67.9014 76.0042 67.6175 75.677 67.2413 75.5134C64.8423 74.468 61.9608 73.4723 60.1012 72.8109L51.783 83.4149L39.6392 73.6074C39.263 73.1309 38.7804 72.754 38.1771 72.4979C38.1771 72.4979 31.8603 75.2147 31.3067 76.1677C31.0299 76.8789 32.0804 76.31 33.8263 77.896L33.8334 77.8817Z" fill="#FFC727"/>
<path d="M56.4271 55.9807C58.8419 53.3233 57.9142 48.5365 54.3551 45.289C50.796 42.0416 45.9532 41.5632 43.5384 44.2206C41.1236 46.878 42.0513 51.6648 45.6104 54.9123C49.1695 58.1598 54.0123 58.6381 56.4271 55.9807Z" fill="#263238"/>
<path d="M35.4947 96.0956C35.4947 96.1454 35.5089 96.1952 35.516 96.245C35.594 96.7144 35.6721 97.1624 35.7431 97.6318C36.0483 99.5379 38.2059 112.731 38.2059 112.731C39.5047 113.776 42.2728 117.93 47.2197 117.965C49.6541 112.332 48.9231 103.286 46.4035 103.073C37.6665 102.34 39.0931 90.5198 38.9937 90.3776L35.6224 95.356L35.4805 96.0956H35.4947Z" fill="#2C2A2B"/>
<path d="M39.7457 46.3185C37.4603 47.3924 36.9351 51.0978 38.5746 54.5969C40.2142 58.096 43.3938 60.059 45.6792 58.985C47.9646 57.9111 48.4898 54.2057 46.8503 50.7066C45.2108 47.2075 42.0311 45.2446 39.7457 46.3185Z" fill="#263238"/>
<path d="M47.8586 75.0866C52.3584 75.0866 56.2833 74.0198 58.3913 72.4267C58.4978 72.3485 58.59 72.2702 58.6894 72.192L60.3147 72.8534L60.2508 72.9246L51.7906 83.9553L39.001 74.1123C40.5411 74.4252 46.0346 75.0866 47.8515 75.0866H47.8586Z" fill="#2E68B8"/>
<path d="M34.2666 120.938C34.2666 121.23 34.515 121.514 34.9834 121.784C35.1964 121.912 35.4661 122.026 35.7713 122.147C38.4683 123.178 44.4941 123.904 51.5064 123.904C52.7272 123.904 53.9266 123.882 55.0764 123.84C60.5273 123.641 65.0271 122.993 67.2486 122.147C68.2139 121.777 68.7533 121.365 68.7533 120.938C68.7533 120.369 67.8093 119.829 66.1769 119.38C63.5508 118.648 59.1433 118.136 53.9976 118.008C53.1814 117.987 52.3581 117.972 51.5064 117.972C45.3103 117.972 39.8736 118.534 36.8359 119.38C36.5094 119.473 36.2113 119.565 35.9416 119.658C34.8628 120.049 34.2666 120.483 34.2666 120.938Z" fill="#2C2A2B"/>
<path d="M41.1445 72.8535L42.7699 74.6031C44.31 74.916 46.0347 75.0938 47.8588 75.0938C52.5786 75.0938 56.6738 73.9132 58.6895 72.1992L57.781 71.8294C56.3473 71.2391 55.2969 70.0229 54.8924 68.5792C54.7646 68.1453 54.7078 67.6902 54.7078 67.2208V57.7546H44.9204V67.7684C44.9204 69.5037 44.019 71.111 42.5356 72.0143L41.1516 72.8606L41.1445 72.8535Z" fill="#FFB287"/>
<path d="M47.0205 63.5438C47.0205 63.5438 48.9652 67.107 54.8845 68.572C54.7568 68.1382 54.6929 67.683 54.6929 67.2136V64.4684L47.0205 63.5438Z" fill="#2C2A2B"/>
<path d="M31.6973 112.332L35.5654 109.473C36.2539 108.399 36.7436 107.183 37.0985 105.932C37.8792 103.179 38.014 100.285 38.1915 98.3573C38.227 97.9732 38.2625 97.5963 38.2979 97.2265L38.3121 97.1055L38.7522 91.0532C39.1922 87.17 37.9147 80.6696 34.4866 77.4763C32.8116 75.9117 31.5837 75.8477 31.3211 76.1108C31.0798 76.5304 27.4033 86.5442 25.1179 106.309C24.6779 110.099 27.4601 112.304 31.7044 112.318L31.6973 112.332Z" fill="#2E68B8"/>
<path d="M52.5334 65.4767L52.3713 65.4962C48.6295 65.9473 45.227 63.2701 44.7769 59.5207L43.3366 47.5238L56.084 45.9871L57.6405 58.9513C58.0262 62.1641 55.7388 65.0831 52.5325 65.4697L52.5334 65.4767Z" fill="#FFB287"/>
<path d="M52.6354 51.3111C53.7284 49.8531 56.7164 49.7891 57.2984 51.7022C57.3126 51.7591 57.2487 51.8089 57.192 51.7876C56.4822 51.5102 55.8718 51.56 55.1763 51.6596C54.4807 51.7378 53.7994 51.9938 53.1322 52.1147C52.6851 52.2143 52.3515 51.6524 52.6283 51.304L52.6354 51.3111Z" fill="#2C2A2B"/>
<path d="M49.4056 52.4846C48.5113 52.6909 47.5247 52.8829 46.6943 53.3238C46.4104 53.4803 46.1052 53.6795 45.8426 53.9924C45.8142 54.0279 45.7646 54.0279 45.7362 53.9995C45.5445 53.5443 45.722 53.0109 45.9704 52.6126C46.7724 51.4534 48.348 50.8773 49.6824 51.4818C50.2005 51.7877 49.9805 52.4135 49.4127 52.4917L49.4056 52.4846Z" fill="#2C2A2B"/>
<path d="M47.3473 56.0549C47.3473 56.0549 47.3118 56.0549 47.2905 56.0478C47.1982 56.0193 47.1485 55.9197 47.1769 55.8273C47.1911 55.7917 47.4537 54.9738 48.0996 54.5187C48.2131 54.4333 48.3267 54.3764 48.4474 54.3338C48.788 54.1986 49.1429 54.1915 49.4623 54.3053C49.7959 54.412 50.0372 54.6182 50.1508 54.7178L50.1933 54.7534C50.2856 54.7818 50.314 54.8743 50.2856 54.9667C50.2572 55.0592 50.1366 55.1018 50.0443 55.0734C50.0017 55.0592 49.9733 55.0307 49.9165 54.9881C49.8172 54.9027 49.6184 54.732 49.3487 54.6396C49.1003 54.5471 48.8377 54.5613 48.568 54.668C48.4758 54.7036 48.3835 54.7463 48.2983 54.8174C47.7518 55.2014 47.5105 55.934 47.5034 55.9411C47.4821 56.0122 47.4111 56.062 47.3331 56.062L47.3473 56.0549Z" fill="#2C2A2B"/>
<path d="M53.1529 55.3578C53.1529 55.3578 53.1174 55.3578 53.0961 55.3507C53.0039 55.3223 52.9542 55.2227 52.9826 55.1303C52.9968 55.0947 53.2594 54.2768 53.9052 53.8288C54.0188 53.7434 54.1324 53.6865 54.253 53.6367C54.6008 53.5016 54.9486 53.4945 55.268 53.6083C55.6016 53.715 55.8358 53.9212 55.9564 54.0208L55.999 54.0563C56.0913 54.0848 56.1268 54.1772 56.0913 54.2697C56.0629 54.3622 55.9422 54.4048 55.85 54.3764C55.8074 54.3622 55.779 54.3337 55.7222 54.291C55.6299 54.2057 55.4241 54.035 55.1544 53.9426C54.906 53.8572 54.6434 53.8643 54.3737 53.971C54.2814 54.0066 54.1963 54.0492 54.104 54.1204C53.5575 54.5044 53.3162 55.2369 53.3091 55.2441C53.2878 55.3152 53.2168 55.365 53.1387 55.365L53.1529 55.3578Z" fill="#2C2A2B"/>
<path d="M54.4878 54.6894C54.5375 55.0734 54.8782 55.3508 55.2544 55.3081C55.6305 55.2654 55.9002 54.9098 55.8576 54.5258C55.808 54.1417 55.4673 53.8644 55.0911 53.907C54.7149 53.9497 54.4452 54.3053 54.4878 54.6894Z" fill="#2C2A2B"/>
<path d="M48.774 55.3792C48.8236 55.7632 49.1643 56.0406 49.5405 55.9979C49.9167 55.9553 50.1864 55.5997 50.1438 55.2156C50.0941 54.8316 49.7534 54.5542 49.3772 54.5969C49.0011 54.6395 48.7314 54.9951 48.774 55.3792Z" fill="#2C2A2B"/>
<path d="M51.6129 58.16C51.6129 58.16 51.5561 58.16 51.5419 58.16C51.4425 58.16 51.3644 58.0818 51.3715 57.9822C51.3715 57.8826 51.4496 57.8115 51.549 57.8115C51.5703 57.8115 51.5987 57.8115 51.62 57.8115C52.0103 57.8115 52.6136 57.7689 52.9046 57.6551C52.8336 57.1501 52.3155 54.8743 51.9748 53.4518C51.9535 53.3594 52.0103 53.2598 52.1026 53.2385C52.1949 53.2172 52.2942 53.274 52.3155 53.3665C53.3659 57.7902 53.3092 57.8258 53.1743 57.9111C52.7981 58.1387 51.8897 58.16 51.6129 58.16Z" fill="#A55930"/>
<path d="M45.594 103.3C45.5088 103.3 45.4308 103.3 45.3456 103.3C45.2462 103.3 45.1682 103.222 45.1753 103.122C45.1753 103.023 45.2675 102.937 45.3527 102.952C48.1278 102.98 50.0583 102.347 50.0725 102.34C53.6071 100.797 54.6007 98.1155 53.018 94.3817C52.9825 94.2892 53.018 94.1896 53.1102 94.1541C53.2025 94.1185 53.3019 94.1541 53.3374 94.2465C54.9911 98.1439 53.8981 101.053 50.1932 102.674C50.1009 102.703 48.291 103.314 45.5869 103.314L45.594 103.3Z" fill="#2C2A2B"/>
<path d="M60.8753 102.525C60.7901 102.525 60.712 102.525 60.6268 102.525C60.5275 102.525 60.4494 102.447 60.4565 102.347C60.4565 102.248 60.5346 102.162 60.6339 102.176C63.4091 102.212 65.3396 101.572 65.3538 101.565C68.8883 100.022 69.882 97.3403 68.2992 93.6065C68.285 93.5709 66.6171 89.6948 64.7931 87.803C64.7292 87.7319 64.7292 87.6252 64.7931 87.5541C64.864 87.4901 64.9705 87.4901 65.0415 87.5541C66.9152 89.4957 68.5547 93.3006 68.6186 93.4642C70.2723 97.3616 69.1793 100.27 65.4744 101.892C65.3822 101.92 63.5723 102.532 60.8682 102.532L60.8753 102.525Z" fill="#2C2A2B"/>
<path d="M51.8186 50.2798C51.9393 50.3723 52.0599 50.4719 52.209 50.5857C52.3864 50.7208 52.578 50.8559 52.7626 50.9911C54.4518 52.1788 56.4107 53.2171 59.0226 53.3025C58.8593 52.9255 58.4264 51.9441 57.9296 51.0124C57.0282 50.4719 56.0984 50.0309 55.4809 49.7749C55.3958 49.7322 55.3177 49.7038 55.2538 49.6753C54.7215 49.4691 54.175 49.3837 53.6356 49.4549C52.9684 49.5331 52.3651 49.8247 51.8115 50.287L51.8186 50.2798Z" fill="#2C2A2B"/>
<path d="M43.3803 45.6357L48.0717 44.1138L50.1442 45.2375C50.1442 45.2375 50.2081 45.1663 50.2506 45.1379L49.3848 42.6771C50.7617 42.9403 52.1457 43.2105 53.5226 43.4737C55.7441 43.9004 58.0721 44.1849 60.102 45.2446C61.5711 46.0127 63.1184 47.9187 62.4512 49.5118C61.564 51.6312 59.2219 52.698 55.4247 51.8801C53.8846 51.5458 52.5218 50.9555 51.4785 50.223C51.4785 50.223 51.4643 50.2088 51.4359 50.1874C50.9959 49.8816 47.4187 47.4777 45.2327 49.3411C42.9048 51.3325 45.2824 56.5171 45.2824 56.5171C45.2824 56.5171 43.2383 58.0818 43.1603 57.8613C43.0822 57.6409 39.2354 49.8034 39.2354 49.8034L43.3945 45.6286L43.3803 45.6357Z" fill="#263238"/>
<path d="M34.7354 81.9711C34.6644 82.2272 34.3521 82.9099 34.1463 83.4931H36.9498C37.2763 82.4476 37.5176 81.2884 37.6241 80.0011C37.6454 79.7664 37.837 81.3026 37.7802 83.4931H42.8833C43.8273 81.8502 44.7783 79.553 45.0126 76.694C45.0409 76.3526 45.4384 79.7664 44.8919 83.4931H48.4761C49.8034 79.105 49.1291 74.1834 47.2483 70.0656C46.1482 67.6617 45.4029 65.3218 45.339 62.6477L45.5023 56.574L37.6383 50.9626C37.7589 53.7079 37.5105 56.5598 37.3686 57.1786C36.6872 60.1585 36.1194 61.837 34.9554 64.5537C34.7922 64.9449 34.6289 65.3361 34.4799 65.7344C33.1598 69.2121 34.6715 71.9645 35.1329 75.3925C35.431 77.583 35.2535 79.8873 34.7425 81.9782L34.7354 81.9711Z" fill="#263238"/>
<path d="M43.0324 59.2198C44.2319 60.1657 45.7224 60.2724 46.3612 59.4616C46.9999 58.6508 46.5386 57.2213 45.3391 56.2754C44.1396 55.3295 42.6492 55.2228 42.0104 56.0336C41.3716 56.8444 41.833 58.2739 43.0324 59.2198Z" fill="#FFB287"/>
<path d="M34.7139 73.1379C34.8061 73.5575 34.9197 73.9558 35.0687 74.3399C35.2178 74.7239 35.381 75.1009 35.5727 75.4494C35.4449 74.9871 35.3101 74.5532 35.1468 74.1336C35.012 73.7851 34.8771 73.4509 34.7139 73.1379Z" fill="#6B3217"/>
<path d="M44.0969 47.4849C44.0614 47.4849 44.0188 47.4706 43.9904 47.4493C43.962 47.428 41.2721 45.3512 39.5261 46.6385C39.448 46.6954 39.3416 46.6812 39.2777 46.603C39.2209 46.5247 39.2351 46.4181 39.3132 46.354C41.265 44.9103 44.0827 47.0795 44.1963 47.1719C44.2743 47.2288 44.2885 47.3426 44.2246 47.4209C44.1892 47.4635 44.1395 47.492 44.0898 47.492L44.0969 47.4849Z" fill="#2C2A2B"/>
<path d="M44.7921 56.0904C44.7921 56.0904 44.7424 56.0904 44.714 56.0762C44.6714 56.0549 44.6288 56.0193 44.5507 55.9482C44.1533 55.5997 43.0887 54.6752 41.5556 55.4006C41.4704 55.4433 41.364 55.4006 41.3214 55.3152C41.2788 55.2299 41.3214 55.1232 41.4066 55.0805C43.1454 54.2626 44.3733 55.3295 44.7779 55.6779C44.8205 55.7135 44.8559 55.742 44.8701 55.7562C44.9553 55.7989 44.9908 55.8984 44.9482 55.9909C44.9198 56.0549 44.8559 56.0904 44.785 56.0904H44.7921Z" fill="#2C2A2B"/>
<path d="M38.958 76.8647C38.958 76.8647 38.9367 76.8647 38.9296 76.8647C38.8373 76.8505 38.7663 76.758 38.7876 76.6585C39.1638 74.4537 38.6315 72.9744 38.0637 71.4098C37.5881 70.0798 37.0913 68.7072 37.2049 66.8652C37.3965 63.7501 39.2419 60.9266 40.0297 59.7176C40.1929 59.4687 40.3562 59.2197 40.3774 59.1557C40.3916 59.0633 40.4839 58.9993 40.5833 59.0206C40.6755 59.0419 40.7394 59.1344 40.7252 59.2268C40.7039 59.3335 40.6046 59.49 40.3278 59.9167C39.5541 61.0973 37.7443 63.871 37.5597 66.8936C37.4533 68.6574 37.9359 70.0016 38.4043 71.296C38.958 72.8322 39.5328 74.4253 39.1425 76.7225C39.1283 76.8078 39.0573 76.8718 38.9721 76.8718L38.958 76.8647Z" fill="#2C2A2B"/>
<path d="M32.4563 130.703H70.5485L67.2482 122.147L66.1694 119.373C63.5433 118.641 59.1358 118.129 53.9901 118.001C53.1739 117.979 52.3506 117.965 51.4989 117.965C45.3028 117.965 39.8661 118.527 36.8284 119.373L35.7566 122.147L32.4492 130.703H32.4563Z" fill="#13254D"/>
<path d="M39.4335 156.171C45.5799 157.238 52.3438 147.814 54.5299 135.119C54.7925 133.619 54.977 132.146 55.0835 130.703C55.268 128.292 55.2609 125.987 55.0835 123.84C54.8989 121.706 54.5299 119.743 53.9975 118.001C53.1813 117.979 52.358 117.965 51.5063 117.965C45.3102 117.965 39.8736 118.527 36.8358 119.373C36.5093 119.466 36.2113 119.558 35.9415 119.651C35.6009 120.333 35.2815 121.045 34.9834 121.784C33.8123 124.601 32.8825 127.801 32.2863 131.25C30.0861 143.945 33.2871 155.097 39.4335 156.164V156.171Z" fill="#13254D"/>
<path d="M27.5737 114.537C26.3103 113.179 24.9121 110.924 25.1179 108.357C25.5438 102.994 31.2431 99.6872 36.1474 102.447C39.9091 104.004 44.4302 105.583 44.4302 105.604C44.6502 105.619 44.6431 105.825 44.8561 105.882C48.6887 106.977 48.9229 114.018 46.9995 120.248C45.2322 125.959 41.6338 131.499 38.0921 131.535C37.7728 131.535 37.4463 131.499 37.1269 131.407C36.1687 131.137 35.4519 130.482 34.9409 129.558C33.5001 127.431 32.7619 123.648 32.2012 121.059C31.6831 118.698 29.6532 116.493 28.4609 115.355C28.1486 115.113 27.8576 114.85 27.5879 114.566C27.5879 114.566 27.5737 114.551 27.5737 114.544V114.537Z" fill="#2E68B8"/>
<path d="M45.1331 78.1164H45.126C45.0267 78.1164 44.9557 78.0311 44.9557 77.9315C45.0692 75.3712 44.2033 73.7425 43.2878 72.0214C42.2302 70.0301 41.1372 67.9747 41.3785 64.3191C41.3785 64.2195 41.4708 64.1484 41.5631 64.1555C41.6624 64.1555 41.7334 64.248 41.7263 64.3404C41.4921 67.8965 42.5638 69.9092 43.6001 71.8507C44.5369 73.6145 45.4241 75.2859 45.3106 77.9458C45.3106 78.0382 45.2254 78.1164 45.1331 78.1164Z" fill="#2C2A2B"/>
<path d="M58.9655 51.0053C56.7866 51.0053 55.0548 49.6966 53.3656 48.4236C51.6409 47.1292 49.8594 45.785 47.6308 45.8775C47.5386 45.8775 47.4534 45.8064 47.4463 45.7068C47.4463 45.6072 47.5173 45.529 47.6166 45.5219C49.9659 45.4365 51.8041 46.802 53.5785 48.1391C55.5871 49.654 57.4892 51.0835 60.0869 50.5287C61.038 50.3225 62.4362 49.4833 62.4007 48.3169C62.4007 48.2173 62.4717 48.1391 62.571 48.1391C62.6491 48.1391 62.7485 48.2102 62.7485 48.3098C62.7911 49.6753 61.2225 50.6425 60.1579 50.8772C59.7462 50.9626 59.3488 51.0053 58.9726 51.0053H58.9655Z" fill="#2C2A2B"/>
<path d="M41.5979 51.0195H41.5837C41.4844 51.0124 41.4134 50.927 41.4276 50.8275C41.5057 50.0452 41.8321 49.4335 42.407 48.9997C44.0324 47.7764 47.1198 48.3596 48.1347 48.5587C48.227 48.573 48.2909 48.5872 48.3405 48.5943C48.4328 48.6085 48.5038 48.701 48.4896 48.7934C48.4754 48.893 48.3831 48.957 48.2909 48.9357C48.2412 48.9286 48.1702 48.9143 48.0779 48.893C45.459 48.3952 43.6278 48.5232 42.6271 49.2699C42.1373 49.6398 41.8534 50.1732 41.7896 50.8488C41.7825 50.9413 41.7044 51.0053 41.6121 51.0053L41.5979 51.0195Z" fill="#2C2A2B"/>
<path d="M70.265 101.295L77.7315 96.565C81.8055 93.9834 85.8794 91.4017 89.9534 88.8271C90.8548 88.2511 94.8932 85.5698 94.8932 85.5698C97.0722 85.7263 100.557 94.5168 101.466 98.3288C102.268 101.7 103.502 106.429 101.749 109.687C100.777 111.493 98.733 111.721 96.9018 111.365C95.5533 111.102 94.3184 110.483 93.0266 110.049C91.6213 109.573 90.2373 109.495 88.7752 109.751L74.7648 113.598C71.6419 114.281 69.1365 113.065 67.866 111.116C66.333 108.762 67.3621 103.08 70.2579 101.302L70.265 101.295Z" fill="#2E68B8"/>
<path d="M93.0199 98.5848C93.0412 98.8408 93.0696 99.0968 93.1051 99.3671C94.042 106.785 97.6191 111.785 100.337 111.038C103.077 110.263 103.269 104.971 101.516 98.2861C101.118 96.6716 100.671 95.0857 100.195 93.6206C99.2799 90.79 98.2437 88.379 97.2004 86.9424C96.5545 86.0463 95.9157 85.52 95.2982 85.5057C94.3401 85.4702 93.5806 86.9708 93.1619 89.3534C92.736 91.7572 92.6509 95.0501 93.027 98.599L93.0199 98.5848Z" fill="#2C2A2B"/>
<path d="M38.4326 131.492C40.8528 131.819 44.6996 127.595 47.1412 120.483C48.0425 117.823 48.4116 115.234 48.3548 112.987C48.2839 110.142 47.5244 107.845 46.3108 106.607C45.892 106.18 45.4307 105.882 44.9126 105.725C44.6216 105.64 44.3448 105.597 44.0609 105.597C41.9174 105.597 40.0863 108.101 38.8229 112.062C38.4113 113.349 38.0706 114.793 37.7938 116.351C36.4453 123.271 33.5992 130.838 38.4326 131.492Z" fill="#2C2A2B"/>
<path d="M71.8552 103.108C71.8552 103.108 71.8339 103.108 71.8197 103.108C71.7274 103.094 71.6636 103.001 71.6778 102.902C72.1249 100.519 74.1903 98.2434 77.5048 96.4867C77.5687 96.4512 77.6113 96.4298 77.6325 96.4156C77.7106 96.3658 77.8242 96.3872 77.8739 96.4725C77.9235 96.5579 77.9023 96.6645 77.8171 96.7143C77.7958 96.7285 77.7461 96.757 77.668 96.7925C74.4529 98.4994 72.4443 100.69 72.0184 102.959C72.0042 103.044 71.9262 103.101 71.8481 103.101L71.8552 103.108Z" fill="#2C2A2B"/>
<path d="M37.9645 102.02H37.9503C37.851 102.013 37.78 101.928 37.7942 101.828L38.8304 90.3633C38.8304 90.3633 38.8304 90.3136 38.8304 90.214C38.8446 88.4075 38.1846 87.1274 36.8786 86.3877C36.7935 86.3379 36.7651 86.2312 36.8077 86.1459C36.8573 86.0606 36.9638 86.0321 37.049 86.0748C38.4827 86.8784 39.1995 88.2653 39.1853 90.2069C39.1853 90.2709 39.1853 90.3207 39.1853 90.342L38.1491 101.849C38.142 101.942 38.0639 102.006 37.9716 102.006L37.9645 102.02Z" fill="#2C2A2B"/>
<path d="M40.6473 83.55C40.6047 83.55 40.5693 83.5357 40.5338 83.5073C40.4628 83.4433 40.4486 83.3366 40.5125 83.2584C41.6126 81.9355 43.1811 78.031 40.988 74.3825C40.9383 74.2972 40.9667 74.1905 41.0448 74.1407C41.13 74.0909 41.2364 74.1194 41.2861 74.1976C43.5786 78.0026 41.9391 82.092 40.7822 83.4788C40.7467 83.5215 40.697 83.5428 40.6473 83.5428V83.55Z" fill="#2C2A2B"/>
<path d="M45.034 106.124C45.034 106.124 44.9914 106.124 44.9701 106.109L38.0997 103.414C34.5936 102.262 30.9384 101.757 28.0142 105.875C27.9574 105.953 27.851 105.974 27.7729 105.917C27.6948 105.86 27.6735 105.754 27.7303 105.676C30.7893 101.373 34.5865 101.892 38.2204 103.094L45.0979 105.789C45.1901 105.825 45.2327 105.924 45.1972 106.017C45.1688 106.088 45.105 106.131 45.034 106.131V106.124Z" fill="#2C2A2B"/>
<path d="M34.7352 129.394C34.6784 129.394 34.6287 129.366 34.5933 129.323C32.3646 126.236 32.2795 122.09 32.2227 119.067C32.1872 117.403 32.1588 115.96 31.7543 115.398C31.6975 115.319 31.7117 115.213 31.7897 115.149C31.8678 115.092 31.9743 115.106 32.0382 115.184C32.5137 115.831 32.5421 117.254 32.5776 119.053C32.6344 122.033 32.7195 126.108 34.8843 129.11C34.941 129.188 34.9268 129.295 34.8417 129.351C34.8133 129.373 34.7778 129.387 34.7352 129.387V129.394Z" fill="#2C2A2B"/>
<path d="M93.438 110.369C93.438 110.369 93.3954 110.369 93.3812 110.362C93.3315 110.348 93.2322 110.298 93.0831 110.227C89.9602 108.705 87.0999 108.271 84.5874 108.933C84.4952 108.961 84.3958 108.904 84.3745 108.805C84.3461 108.712 84.4029 108.613 84.5023 108.591C87.0999 107.902 90.0383 108.343 93.2393 109.907C93.367 109.971 93.4593 110.014 93.5019 110.028C93.5941 110.064 93.6438 110.163 93.6083 110.256C93.5799 110.327 93.5161 110.369 93.4451 110.369H93.438Z" fill="#2C2A2B"/>
<path d="M26.3388 97.5109C26.3388 97.5109 26.3033 97.5109 26.282 97.5038C26.1898 97.4682 26.1401 97.3686 26.1756 97.2833C27.0131 94.8794 29.7172 91.5083 30.6044 90.3988L30.7038 90.2779C30.7676 90.1997 30.8741 90.1926 30.9522 90.2495C31.0302 90.3135 31.0373 90.4202 30.9806 90.4984L30.8812 90.6193C30.0011 91.7146 27.3325 95.0572 26.5092 97.4042C26.4808 97.4753 26.4169 97.5251 26.3459 97.5251L26.3388 97.5109Z" fill="#2C2A2B"/>
<path d="M38.3543 103.556C38.2692 103.556 38.1911 103.492 38.184 103.407C37.9782 102.006 35.9057 100.47 34.7985 99.6375C34.2946 99.2605 34.0532 99.0756 33.9681 98.9476C33.9184 98.8623 33.9468 98.7556 34.0249 98.7058C34.11 98.656 34.2165 98.6845 34.2662 98.7627C34.3159 98.8409 34.6636 99.1041 35.0043 99.353C36.2393 100.27 38.2975 101.807 38.5247 103.35C38.5389 103.442 38.475 103.535 38.3756 103.549C38.3685 103.549 38.3614 103.549 38.3472 103.549L38.3543 103.556Z" fill="#2C2A2B"/>
<path d="M75.9647 97.7883C75.8937 97.7883 75.8298 97.7456 75.8014 97.6745C75.695 97.4185 74.2684 95.74 71.1171 95.6974C71.0177 95.6974 70.9396 95.6191 70.9467 95.5196C70.9467 95.42 71.039 95.3489 71.1242 95.3489C74.5026 95.3915 76.0285 97.2905 76.1279 97.5607C76.1634 97.6532 76.1137 97.7527 76.0214 97.7883C76.0001 97.7954 75.9789 97.8025 75.9647 97.8025V97.7883Z" fill="#2C2A2B"/>
<path d="M65.6299 88.6919C65.5377 88.6919 65.4596 88.6208 65.4525 88.5284C65.2893 86.0747 66.4036 84.0976 67.5463 83.7917C67.6385 83.7633 67.7379 83.8202 67.7592 83.9198C67.7876 84.0122 67.7308 84.1118 67.6314 84.1331C66.7726 84.3607 65.6299 86.0534 65.7932 88.507C65.7932 88.6066 65.7293 88.6848 65.6299 88.6919C65.6299 88.6919 65.6228 88.6919 65.6157 88.6919H65.6299Z" fill="#2C2A2B"/>
<path d="M47.0706 130.76L47.6526 131.862L49.1359 134.664L62.394 159.748L66.9861 168.439L66.7732 171.625L62.9618 228.166L66.0138 229.894L91.9835 228.166L87.803 166.135C87.6682 164.215 87.1643 162.337 86.3055 160.609L67.1565 121.927L47.0635 130.76H47.0706Z" fill="#13254D"/>
<path d="M62.3938 159.741L66.9859 168.432L66.773 171.618L66.8156 171.604C67.1988 167.344 67.5324 166.178 68.1286 165.061C67.1917 164.606 64.6508 164.008 57.3475 146.065C54.3311 138.64 54.9699 133.441 54.906 133.256L49.1357 134.657L62.3938 159.741Z" fill="#2C2A2B"/>
<path d="M62.9619 228.159C63.2529 229.482 65.4744 230.357 69.4632 230.726C71.3937 230.897 73.743 230.968 76.4897 230.911C77.4905 230.89 78.4486 230.869 79.3642 230.826C80.8831 230.769 82.2671 230.698 83.5375 230.606C85.1274 230.478 86.5114 230.328 87.6754 230.129C90.2943 229.681 91.7848 229.048 91.9906 228.152C92.2745 226.872 89.542 225.563 82.9413 226.502C81.5644 226.694 80.0243 226.993 78.3067 227.398C76.0142 227.946 74.0553 228.33 72.3803 228.579C71.8125 228.671 71.2731 228.742 70.7762 228.792C70.3362 228.849 69.9245 228.892 69.5271 228.92C64.0691 229.382 62.9761 228.145 62.9761 228.145L62.9619 228.159Z" fill="#2C2A2B"/>
<path d="M36.3956 236.608L38.9507 237.483C40.0366 237.86 41.2219 237.838 42.3007 237.44L44.9481 236.459C46.1333 236.018 46.907 234.88 46.8857 233.621L46.8289 230.2C47.3186 228.55 45.7217 227.05 44.1106 227.647C44.1106 227.647 36.1969 228.778 35.0329 229.887L34.3799 233.073C34.0676 234.588 34.9335 236.103 36.3956 236.601V236.608Z" fill="#2C2A2B"/>
<path d="M40.8322 232.398C45.041 230.527 46.7089 229.269 46.7089 229.269L35.8994 229.325L40.8322 232.398Z" fill="#FFB287"/>
<path d="M25.3739 228.372C25.3526 228.422 25.3242 228.472 25.3242 228.529C25.3242 229.859 31.8042 230.947 39.7889 230.947C47.7736 230.947 53.629 229.966 54.1968 228.721H54.282L53.5225 164.89L55.2188 128.953L31.5842 139.287L31.719 141.99L31.7403 142.395C31.7403 142.459 31.7403 142.523 31.7403 142.587L31.79 143.512V143.547L32.7482 162.885C32.8334 164.57 32.7695 166.263 32.5707 167.941L32.0668 172.13C32.0668 172.13 32.0668 172.152 32.0668 172.159L25.3242 228.365H25.3739V228.372Z" fill="#13254D"/>
<path d="M53.976 155.495C53.8766 155.495 53.8057 155.41 53.8057 155.318C53.8695 153.212 54.4302 134.75 54.8348 133.768C55.2607 132.737 57.4964 131.706 57.5886 131.663C57.6738 131.62 57.7803 131.663 57.8228 131.748C57.8654 131.834 57.8228 131.94 57.7377 131.983C57.1273 132.26 55.4665 133.157 55.1613 133.903C54.8703 134.6 54.4019 147.096 54.1605 155.325C54.1605 155.417 54.0825 155.495 53.9831 155.495H53.976Z" fill="#2C2A2B"/>
<path d="M55.0551 127.147C54.9557 127.147 54.8848 127.061 54.8848 126.962C54.9132 126.187 54.9344 125.298 54.9486 124.38C54.9841 122.126 54.9557 119.572 54.9202 118.043C54.9202 117.944 54.9912 117.866 55.0906 117.866C55.1829 117.866 55.2609 117.944 55.268 118.036C55.3035 119.572 55.3319 122.126 55.2964 124.387C55.2822 125.305 55.2609 126.201 55.2325 126.976C55.2325 127.069 55.1545 127.147 55.0551 127.147Z" fill="#2C2A2B"/>
<path d="M68.1291 124.053H67.9233C66.7948 124.053 64.772 124.018 63.4093 123.989H62.884C62.3588 123.968 62.0252 123.961 62.0181 123.961C61.933 123.961 61.862 123.897 61.8478 123.811L60.9961 118.506C60.9819 118.413 61.0458 118.321 61.1381 118.307C61.2374 118.292 61.3226 118.356 61.3368 118.456L62.1672 123.619C62.3162 123.619 62.5647 123.626 62.884 123.633H63.4093C64.7649 123.662 66.7877 123.697 67.9162 123.705H68.122C68.2214 123.705 68.2994 123.783 68.2994 123.882C68.2994 123.982 68.2214 124.06 68.122 124.06L68.1291 124.053Z" fill="#2C2A2B"/>
<path d="M41.4993 124.053C41.1302 124.053 40.8889 124.053 40.8392 124.039C40.747 124.018 40.6831 123.925 40.6973 123.833C40.7186 123.74 40.8108 123.676 40.9031 123.69C41.1302 123.726 44.8919 123.662 47.447 123.612L48.3555 117.979C48.3697 117.88 48.4619 117.823 48.5542 117.83C48.6465 117.844 48.7174 117.937 48.6961 118.029L47.7664 123.804C47.7522 123.89 47.6812 123.954 47.596 123.954C46.723 123.968 43.0253 124.039 41.4922 124.039L41.4993 124.053Z" fill="#2C2A2B"/>
<path d="M66.4328 176.917C66.4328 176.917 66.4257 176.917 66.4186 176.917C66.3193 176.917 66.2483 176.824 66.2554 176.732C66.3973 174.641 66.518 172.962 66.6386 171.597C67.0219 167.365 67.3555 166.135 67.973 164.99C68.051 164.841 68.1362 164.691 68.2285 164.528C68.2782 164.442 68.3846 164.414 68.4698 164.464C68.555 164.513 68.5833 164.62 68.5337 164.705C68.4485 164.855 68.3633 164.997 68.2924 165.146C67.6962 166.256 67.3697 167.451 66.9935 171.625C66.8729 172.991 66.7522 174.669 66.6102 176.753C66.6102 176.846 66.5251 176.917 66.4328 176.917Z" fill="#2C2A2B"/>
<path d="M82.4514 163.973C82.3876 163.973 82.3237 163.937 82.2882 163.866C82.2456 163.781 82.2882 163.674 82.3734 163.631C84.9923 162.444 86.2912 162.508 86.9157 162.771C87.3771 162.963 87.4906 163.269 87.5048 163.297C87.5403 163.39 87.4906 163.489 87.3984 163.525C87.3061 163.56 87.2067 163.511 87.1784 163.425C87.1784 163.411 87.0861 163.219 86.7525 163.091C86.1847 162.863 84.9923 162.828 82.5153 163.952C82.494 163.966 82.4656 163.966 82.4443 163.966L82.4514 163.973Z" fill="#2C2A2B"/>
<path d="M39.9016 163.973C39.8378 163.973 39.7739 163.937 39.7384 163.866C39.6958 163.781 39.7384 163.674 39.8236 163.632C44.2098 161.64 46.8997 163.568 47.0133 163.653C47.0914 163.71 47.1056 163.824 47.0488 163.902C46.992 163.98 46.8856 163.994 46.8004 163.937C46.772 163.916 44.153 162.053 39.9584 163.959C39.9371 163.973 39.9087 163.973 39.8874 163.973H39.9016Z" fill="#2C2A2B"/>
<path d="M32.755 162.885C32.8402 164.57 32.7763 166.263 32.5776 167.941L32.0737 172.13C32.2298 171.633 34.5578 166.363 33.9119 160.502C33.3086 155.054 32.1092 148.206 31.7969 143.547L32.755 162.885Z" fill="#2C2A2B"/>
<path d="M89.8683 196.937C89.776 196.937 89.6979 196.866 89.6908 196.774C89.2295 189.875 84.8078 179.541 84.1477 179.107C84.0696 179.05 84.0483 178.944 84.098 178.866C84.1548 178.787 84.2613 178.766 84.3393 178.816C85.113 179.335 89.5631 189.74 90.0386 196.752C90.0386 196.852 89.9747 196.93 89.8754 196.937C89.8754 196.937 89.8683 196.937 89.8612 196.937H89.8683Z" fill="#2C2A2B"/>
<path d="M63.5081 220.222C63.5081 220.222 63.4939 220.222 63.4868 220.222C63.3874 220.215 63.3235 220.122 63.3306 220.03C64.1042 213.11 68.4763 205.465 70.8185 201.361C71.5282 200.123 72.1954 198.95 72.1883 198.737C72.1741 198.637 72.238 198.552 72.3373 198.537C72.4367 198.523 72.5219 198.594 72.536 198.687C72.5786 198.964 72.2025 199.64 71.1165 201.532C68.7815 205.614 64.4378 213.217 63.6713 220.066C63.6642 220.158 63.5861 220.222 63.4939 220.222H63.5081Z" fill="#2C2A2B"/>
<path d="M53.6922 179.136C53.5929 179.136 53.5148 179.058 53.5148 178.965C53.4083 170.267 49.9377 161.761 49.0008 160.801C48.9298 160.73 48.9369 160.623 49.0008 160.552C49.0718 160.481 49.1782 160.488 49.2492 160.552C50.3919 161.733 53.7561 170.566 53.8626 178.958C53.8626 179.058 53.7845 179.136 53.6922 179.136Z" fill="#2C2A2B"/>
<path d="M28.6172 201.091C28.6172 201.091 28.5888 201.091 28.5746 201.091C28.4823 201.069 28.4256 200.977 28.4469 200.877C29.7741 195.301 36.2044 184.641 36.7225 184C36.7864 183.929 36.8929 183.915 36.9709 183.972C37.049 184.036 37.0561 184.143 36.9993 184.221C36.4883 184.854 30.1077 195.422 28.7946 200.963C28.7733 201.041 28.7024 201.098 28.6243 201.098L28.6172 201.091Z" fill="#2C2A2B"/>
<path d="M79.7971 147.615C79.7332 147.615 79.6693 147.58 79.6409 147.523C79.6197 147.473 77.1426 142.751 71.0672 140.588C70.9749 140.56 70.9252 140.453 70.9607 140.361C70.9962 140.268 71.0956 140.219 71.1878 140.254C77.3981 142.459 79.9319 147.309 79.9603 147.359C80.0029 147.444 79.9674 147.551 79.8823 147.594C79.8539 147.608 79.8326 147.615 79.8042 147.615H79.7971Z" fill="#2C2A2B"/>
<path d="M31.7972 141.094C31.7972 141.094 31.7759 141.094 31.7688 141.094C31.6765 141.079 31.6056 140.987 31.6268 140.887C32.1308 137.865 34.331 136.158 35.6511 135.141C36.1408 134.764 36.5596 134.437 36.6377 134.23C36.6732 134.138 36.7725 134.088 36.8648 134.124C36.9571 134.159 37.0067 134.259 36.9713 134.351C36.8648 134.65 36.4673 134.956 35.8711 135.418C34.5936 136.407 32.4573 138.064 31.9817 140.944C31.9675 141.03 31.8966 141.094 31.8114 141.094H31.7972Z" fill="#2C2A2B"/>
<path d="M69.655 127.147C69.655 127.147 69.5911 127.14 69.5556 127.118C69.5343 127.104 67.256 125.632 61.3651 125.511C61.2658 125.511 61.1877 125.426 61.1948 125.333C61.1948 125.234 61.2941 125.155 61.3722 125.163C67.3838 125.283 69.655 126.77 69.7472 126.834C69.8253 126.891 69.8466 126.997 69.7969 127.076C69.7614 127.125 69.7047 127.154 69.6479 127.154L69.655 127.147Z" fill="#2C2A2B"/>
<path d="M70.7617 228.813C72.3374 229.233 75.6732 230.101 79.3639 230.84C83.0759 231.594 87.2066 232.213 90.1875 232.064C90.1875 232.064 89.1158 231.246 87.6679 230.143C86.2413 229.048 84.4457 227.668 82.9339 226.516C81.557 226.708 80.0168 227.007 78.2992 227.412C75.226 228.152 72.749 228.586 70.7617 228.813Z" fill="#FFB287"/>
<path d="M68.2848 118.122C68.2067 118.122 68.1428 118.072 68.1144 118.001C67.3195 115.426 64.3882 114.117 63.2881 113.62C62.9616 113.47 62.8623 113.428 62.8055 113.371C62.7416 113.3 62.7487 113.186 62.8197 113.122C62.8907 113.058 62.99 113.065 63.061 113.122C63.1036 113.15 63.2668 113.228 63.4301 113.3C64.5728 113.812 67.6105 115.17 68.4551 117.894C68.4835 117.986 68.4338 118.086 68.3415 118.114C68.3273 118.114 68.3061 118.122 68.2919 118.122H68.2848Z" fill="#2C2A2B"/>
<path d="M78.5979 235.726V233.351L85.8586 235.726H97.463C98.5915 235.726 99.6916 235.449 100.685 234.908C101.239 234.603 101.097 233.756 100.472 233.664L83.5377 230.613L72.3734 228.593C71.8056 228.685 71.2662 228.756 70.7694 228.806C70.3293 228.863 69.9177 228.906 69.5202 228.934L69.4705 230.734L69.3428 235.726H78.605H78.5979Z" fill="#2C2A2B"/>
<path d="M42.2727 106.479C41.6055 106.821 44.9626 109.751 45.7788 108.94C49.1572 105.59 52.1382 101.963 51.9395 100.896C51.9536 100.683 51.7123 100.555 51.542 100.683C51.542 100.683 47.2125 103.962 42.2727 106.486V106.479Z" fill="#FFB287"/>
<path d="M48.2341 112.155C48.1347 112.695 48.2625 113.243 48.589 113.684L48.7167 113.854L52.4003 94.9861C52.3506 93.5922 52.7765 93.2508 53.2662 93.2579L70.1369 93.2863L69.633 92.8383C69.3704 92.4613 68.9445 92.2409 68.4832 92.2338L52.6416 92.1555C52.1803 92.1555 51.7828 92.4827 51.6976 92.9378L48.2199 112.147L48.2341 112.155Z" fill="#2C2A2B"/>
<path d="M52.052 93.77L48.4891 113.221C48.411 113.648 48.7375 114.046 49.1776 114.046H65.3314C65.7857 114.046 66.176 113.726 66.2683 113.285L70.2926 93.8838C70.3849 93.45 70.0513 93.0446 69.6112 93.0446L52.996 92.9877C52.5347 92.9877 52.1372 93.3148 52.052 93.77Z" fill="#5AC7E0"/>
<path d="M58.8941 100.32C58.9438 101.06 59.7245 101.615 60.633 101.558C61.5414 101.494 62.2441 100.846 62.1944 100.1C62.1447 99.3529 61.364 98.8053 60.4555 98.8622C59.547 98.9262 58.8444 99.5734 58.8941 100.32Z" fill="#2C2A2B"/>
<path d="M93.0195 98.5848L100.188 93.6134L101.792 92.4969L97.9309 86.4872L97.1857 86.9352L93.1472 89.3462C92.7214 91.7501 92.6362 95.043 93.0124 98.5919L93.0195 98.5848Z" fill="#FFB287"/>
<path d="M97.9385 86.8215L100.181 93.5708C100.181 93.5708 107.442 92.3618 108.94 91.0034C110.054 89.9863 106.555 85.4489 106.555 85.4489L97.9385 86.8215Z" fill="#FFB287"/>
<path d="M95.3118 88.1799C94.7582 88.692 98.7896 90.5909 99.3574 89.5881C101.692 85.4418 103.566 81.139 103.091 80.1575C103.048 79.9513 102.778 79.8873 102.651 80.0579C102.651 80.0579 99.3787 84.4034 95.3189 88.1799H95.3118Z" fill="#FFB287"/>
<path d="M106.455 87.4403C106.561 87.4118 106.689 87.3621 106.781 87.3194L106.93 87.234C107.037 87.17 107.094 87.1274 107.179 87.0705C107.328 86.9638 107.47 86.8571 107.605 86.7504C107.874 86.5371 108.123 86.3166 108.371 86.0961C108.861 85.6481 109.329 85.1858 109.776 84.7022C110.5 83.9198 111.544 82.6112 112.289 81.5515C112.466 81.2955 112.253 80.9541 111.948 81.0039C111.395 81.0964 110.891 81.388 110.522 81.8076C109.961 82.4476 109.379 82.9739 108.69 83.6069C108.236 84.0194 107.768 84.4177 107.285 84.7875C107.044 84.9724 106.803 85.1502 106.554 85.3138C106.433 85.3991 106.313 85.4703 106.199 85.5414C106.15 85.5698 106.079 85.6125 106.043 85.6267L105.986 85.6552C105.986 85.6552 106.05 85.6196 106.093 85.6196L106.455 87.4332V87.4403Z" fill="#FFB287"/>
<path d="M106.519 88.7062C106.625 88.6777 106.753 88.635 106.838 88.5924L106.994 88.5141C107.108 88.4572 107.186 88.4075 107.285 88.3577C107.47 88.251 107.64 88.1443 107.811 88.0447C108.151 87.8314 108.485 87.6109 108.811 87.3833C109.464 86.9282 110.096 86.4516 110.713 85.9396C111.821 85.015 113.176 83.6068 114.099 82.3196C114.22 82.156 114.099 81.9213 113.893 81.9213C113.198 81.9142 112.523 82.1915 112.055 82.7107C111.388 83.4575 110.678 84.0691 109.769 84.7234C109.166 85.1644 108.535 85.5769 107.896 85.9609C107.576 86.1529 107.25 86.3379 106.923 86.5157C106.76 86.601 106.597 86.6863 106.441 86.7646C106.363 86.8001 106.277 86.8428 106.214 86.8713L106.114 86.9139C106.114 86.9139 106.143 86.8997 106.157 86.8997L106.519 88.7133V88.7062Z" fill="#FFB287"/>
<path d="M106.874 90.5482C106.966 90.5127 107.065 90.4771 107.136 90.4415L107.299 90.3562C107.413 90.2993 107.498 90.2424 107.598 90.1926C107.789 90.0788 107.974 89.9721 108.151 89.8584C108.513 89.6308 108.868 89.3961 109.209 89.1472C109.897 88.6564 110.571 88.1444 111.21 87.5896C112.324 86.6295 113.829 85.1573 114.83 83.8487C115 83.6282 114.823 83.3082 114.539 83.3295H114.432C113.787 83.3935 113.197 83.7136 112.764 84.1972C112.019 85.0222 111.239 85.648 110.252 86.3948C109.62 86.8713 108.953 87.3194 108.279 87.739C107.938 87.9452 107.598 88.1444 107.257 88.3364C107.087 88.4288 106.909 88.5213 106.739 88.6066C106.654 88.6422 106.561 88.692 106.49 88.7275L106.377 88.7773C106.377 88.7773 106.363 88.7773 106.355 88.7844L106.866 90.5624L106.874 90.5482Z" fill="#FFB287"/>
<path d="M106.973 91.9066L107.2 91.8425L107.349 91.7857L107.633 91.6719C107.753 91.6221 107.867 91.5723 107.988 91.5154C108.222 91.4087 108.456 91.302 108.683 91.1882C109.535 90.7544 110.358 90.285 111.139 89.7374C112.232 88.9835 113.652 87.6465 114.581 86.4303C114.752 86.2098 114.603 85.8898 114.326 85.8684C113.801 85.8329 113.282 86.032 112.92 86.4161C112.182 87.2055 111.274 87.8669 110.316 88.4359C109.556 88.8911 108.754 89.2751 107.945 89.6165C107.739 89.7018 107.526 89.7801 107.321 89.8583C107.214 89.8939 107.108 89.9365 107.008 89.9721L106.774 90.0432L106.66 90.0788C106.66 90.0788 106.632 90.0788 106.625 90.0859L106.987 91.8994L106.973 91.9066Z" fill="#FFB287"/>
<path d="M50.5205 108.577C50.6412 108.606 50.7902 108.627 50.8967 108.634H51.0883C51.2303 108.634 51.3083 108.613 51.4219 108.606C51.6277 108.584 51.8122 108.556 52.0039 108.52C52.38 108.456 52.7349 108.378 53.0969 108.293C53.8137 108.122 54.5093 107.916 55.1977 107.688C56.3191 107.311 58.0296 106.607 59.3143 105.974C59.6266 105.825 59.5982 105.377 59.2717 105.263C58.6826 105.057 58.0438 105.071 57.4547 105.284C56.5676 105.604 55.723 105.811 54.7222 106.052C54.0622 106.209 53.395 106.344 52.7349 106.451C52.4013 106.501 50.6625 106.735 50.6979 106.757L50.5276 108.577H50.5205Z" fill="#FFB287"/>
<path d="M51.2939 109.786C51.4075 109.808 51.5424 109.822 51.6346 109.822H51.8192C51.9469 109.815 52.0392 109.801 52.1527 109.793C52.3728 109.779 52.5715 109.751 52.7773 109.729C53.1819 109.68 53.5864 109.616 53.9839 109.545C54.7859 109.409 55.5737 109.239 56.3616 109.025C57.7811 108.648 59.6406 107.93 61.0459 107.141C61.2304 107.041 61.2162 106.771 61.0246 106.686C60.3858 106.38 59.6406 106.344 58.9876 106.622C58.0508 107.027 57.1352 107.283 56.0138 107.496C55.2685 107.646 54.5091 107.752 53.7497 107.831C53.3735 107.873 52.9902 107.902 52.6141 107.923C52.4295 107.93 52.2379 107.944 52.0605 107.944C51.9753 107.944 51.8759 107.944 51.805 107.944H51.6914C51.6914 107.944 51.7269 107.944 51.7411 107.944L51.301 109.779L51.2939 109.786Z" fill="#FFB287"/>
<path d="M50.1299 111.543C50.2292 111.55 50.3428 111.557 50.4209 111.557H50.6054C50.7332 111.543 50.8325 111.536 50.9532 111.522C51.1803 111.5 51.3932 111.479 51.6133 111.451C52.0462 111.394 52.4721 111.33 52.8979 111.251C53.7496 111.095 54.5871 110.91 55.4175 110.675C56.8583 110.27 58.8811 109.559 60.3716 108.776C60.6271 108.641 60.5987 108.271 60.329 108.172L60.2225 108.136C59.5979 107.909 58.9166 107.951 58.3133 108.207C57.27 108.648 56.2763 108.89 55.0484 109.153C54.2535 109.324 53.4515 109.445 52.6495 109.545C52.2449 109.594 51.8475 109.63 51.4429 109.651C51.2442 109.665 51.0455 109.673 50.8538 109.68C50.7616 109.68 50.6551 109.68 50.577 109.68H50.4493C50.4493 109.68 50.4351 109.673 50.428 109.68L50.137 111.543H50.1299Z" fill="#FFB287"/>
<path d="M49.4629 112.475L49.6971 112.503H49.8603L50.1655 112.524C50.3004 112.524 50.4281 112.524 50.5559 112.524C50.8185 112.524 51.074 112.524 51.3366 112.503C52.309 112.446 53.2671 112.347 54.2253 112.162C55.5525 111.906 57.4263 111.244 58.789 110.49C59.0374 110.355 59.0303 109.993 58.7819 109.865C58.3064 109.616 57.7386 109.587 57.2488 109.801C56.2339 110.234 55.1196 110.483 53.9911 110.618C53.0968 110.732 52.1954 110.761 51.294 110.739C51.0669 110.739 50.8398 110.718 50.6127 110.704C50.4991 110.697 50.3856 110.69 50.272 110.675L50.0236 110.647L49.91 110.633C49.91 110.633 49.8816 110.626 49.8674 110.626L49.4629 112.468V112.475Z" fill="#FFB287"/>
<path d="M38.8164 112.055L42.138 112.823C43.4085 113.115 44.7144 113.236 46.0204 113.157C46.7088 113.115 47.525 113.058 48.3554 112.987C50.435 112.809 52.6352 112.503 53.4514 112.041C54.7148 111.308 52.0035 106.7 52.0035 106.7L46.3114 106.607L45.6442 106.593L45.7294 106.18C45.7294 106.18 45.0551 105.939 44.0614 105.597C41.918 105.597 40.0869 108.101 38.8235 112.062L38.8164 112.055Z" fill="#FFB287"/>
<path d="M51.9533 110.085C51.861 110.085 51.7901 110.014 51.7759 109.921C51.7688 109.822 51.8398 109.737 51.932 109.729C56.6377 109.324 59.9948 107.539 60.9174 107.005L61.0381 107.141L61.0949 107.311C60.158 107.859 56.7441 109.673 51.9675 110.085C51.9675 110.085 51.9604 110.085 51.9533 110.085Z" fill="#A55930"/>
<path d="M52.0881 111.735C52.003 111.735 51.9249 111.671 51.9107 111.579C51.9036 111.479 51.9675 111.394 52.0668 111.387C56.1408 110.96 60.2431 108.655 60.2786 108.627C60.3638 108.577 60.4703 108.606 60.5199 108.691C60.5696 108.776 60.5412 108.883 60.4561 108.933C60.4135 108.954 56.2473 111.301 52.1023 111.735C52.1023 111.735 52.0881 111.735 52.081 111.735H52.0881Z" fill="#A55930"/>
<path d="M51.9533 108.549C51.861 108.549 51.783 108.478 51.7759 108.385C51.7688 108.286 51.8398 108.207 51.9391 108.193C53.8767 108.044 55.7434 107.333 55.7647 107.326C55.8569 107.29 55.9563 107.34 55.9918 107.425C56.0273 107.518 55.9776 107.617 55.8924 107.653C55.8143 107.681 53.9548 108.385 51.9675 108.542C51.9675 108.542 51.9604 108.542 51.9533 108.542V108.549Z" fill="#A55930"/>
<path d="M99.5135 89.2254C99.4639 89.2254 99.4142 89.204 99.3787 89.1613C99.3148 89.0831 99.329 88.9764 99.4 88.9124C99.9536 88.4573 100.692 87.0989 101.43 85.1928C101.451 85.143 101.465 85.1075 101.465 85.1004C101.508 85.015 101.614 84.9724 101.7 85.015C101.785 85.0577 101.827 85.1573 101.785 85.2497L101.756 85.3208C101.309 86.473 100.443 88.507 99.6271 89.1827C99.5916 89.2111 99.5561 89.2254 99.5135 89.2254Z" fill="#A55930"/>
<path d="M108.761 90.3918C108.69 90.3918 108.627 90.3491 108.598 90.2851L108.513 90.0717C108.045 88.9196 106.952 86.2099 106.022 85.7903C105.937 85.7476 105.894 85.648 105.937 85.5556C105.979 85.4702 106.079 85.4276 106.171 85.4702C107.228 85.9539 108.279 88.5497 108.847 89.9437L108.932 90.1571C108.967 90.2495 108.932 90.3491 108.832 90.3846C108.811 90.3918 108.79 90.3989 108.769 90.3989L108.761 90.3918Z" fill="#A55930"/>
<path d="M102.069 90.3917C102.034 90.3917 101.998 90.3775 101.963 90.3562C101.104 89.709 99.2516 89.5525 98.4709 90.2708C98.3999 90.3348 98.2864 90.3277 98.2225 90.2566C98.1586 90.1855 98.1657 90.0717 98.2367 90.0077C99.1594 89.1685 101.211 89.3392 102.176 90.0717C102.254 90.1286 102.268 90.2424 102.211 90.3206C102.176 90.3633 102.126 90.3917 102.069 90.3917Z" fill="#A55930"/>
<path d="M108.634 89.4956C108.57 89.4956 108.513 89.4601 108.478 89.4032C108.428 89.3178 108.464 89.2112 108.549 89.1685C109.436 88.6849 110.784 87.9452 110.855 87.9025C110.934 87.8528 111.047 87.8741 111.097 87.9594C111.146 88.0377 111.125 88.1444 111.047 88.2013C110.976 88.2439 109.244 89.1969 108.712 89.4814C108.684 89.4956 108.655 89.5028 108.627 89.5028L108.634 89.4956Z" fill="#A55930"/>
<path d="M107.818 88.2155C107.754 88.2155 107.697 88.1799 107.661 88.123C107.612 88.0377 107.647 87.931 107.732 87.8812C109.521 86.8784 111.92 84.8017 111.941 84.7804C112.012 84.7164 112.126 84.7164 112.19 84.7946C112.253 84.8728 112.253 84.9795 112.182 85.0435C112.161 85.0649 109.748 87.1629 107.903 88.187C107.874 88.2013 107.846 88.2084 107.818 88.2084V88.2155Z" fill="#A55930"/>
<path d="M107.08 86.6793C107.009 86.6793 106.945 86.6366 106.917 86.5726C106.881 86.4802 106.917 86.3806 107.009 86.345C108.294 85.8116 110.579 83.8701 110.6 83.8558C110.671 83.7918 110.785 83.7989 110.849 83.8772C110.913 83.9483 110.906 84.0621 110.828 84.1261C110.735 84.2043 108.478 86.1246 107.144 86.6722C107.123 86.6793 107.101 86.6864 107.08 86.6864V86.6793Z" fill="#A55930"/>
<path d="M44.9342 57.6124C44.8774 57.6124 44.8206 57.5839 44.7851 57.5342C44.7497 57.4773 43.9264 56.2184 42.5778 56.8158C42.4856 56.8514 42.3862 56.8158 42.3436 56.7234C42.3081 56.6309 42.3436 56.5314 42.4359 56.4887C44.0612 55.7775 45.0691 57.3279 45.0832 57.3421C45.1329 57.4204 45.1116 57.5342 45.0265 57.5839C44.9981 57.6053 44.9626 57.6124 44.9342 57.6124Z" fill="#A55930"/>
<path d="M53.7918 87.1131C53.728 87.1131 53.6641 87.0775 53.6357 87.0135C53.6215 86.9851 52.1878 84.0905 48.9585 81.9924C48.8804 81.9426 48.852 81.8288 48.9088 81.7506C48.9656 81.6724 49.072 81.6439 49.1501 81.7008C52.4646 83.8558 53.9338 86.8357 53.948 86.8642C53.9906 86.9495 53.948 87.0562 53.8699 87.0989C53.8486 87.1131 53.8202 87.1131 53.7918 87.1131Z" fill="#2C2A2B"/>
<path d="M52.9901 60.4998C52.9901 60.5567 52.9901 60.6207 52.9688 60.6705C52.8269 61.2253 51.9681 61.4742 51.0596 61.2324C50.1511 60.9977 49.5336 60.3505 49.6756 59.7957C49.6969 59.7389 49.7111 59.6891 49.7395 59.6393C50.1653 59.874 50.7047 60.0945 51.3151 60.2509C51.9255 60.4074 52.5004 60.4856 52.9901 60.4998Z" fill="#2C2A2B"/>
<path d="M52.9899 60.4999C52.5002 60.4928 51.9253 60.4075 51.3149 60.251C50.7045 60.0945 50.1722 59.8741 49.7393 59.6394C49.9948 59.1913 50.7684 59.0135 51.5846 59.2269C52.3937 59.4331 52.9757 59.9736 52.9828 60.4928L52.9899 60.4999Z" fill="white"/>
<path d="M122.406 180.528V48.0916H228.486V180.528H122.406Z" fill="white" stroke="#191A1D"/>
<path d="M122.357 181.4H228.429V207.847C228.429 211.171 225.742 213.862 222.428 213.862H128.358C125.044 213.862 122.357 211.171 122.357 207.847V181.4Z" fill="#2E68B8" stroke="#191A1D"/>
<path d="M128.351 22.5238H222.428C225.742 22.5238 228.429 25.2149 228.429 28.5384V47.0916H122.35V28.5384C122.35 25.2149 125.037 22.5238 128.351 22.5238Z" fill="#2E68B8" stroke="#191A1D"/>
<path d="M131.474 28.5242C131.474 30.48 129.891 32.0589 127.946 32.0589C126.002 32.0589 124.419 30.4729 124.419 28.5242C124.419 26.5755 126.002 24.9895 127.946 24.9895C129.891 24.9895 131.474 26.5755 131.474 28.5242Z" fill="white"/>
<path d="M129.714 30.5298C129.657 30.5298 129.593 30.5085 129.551 30.4587L126.023 26.924C125.931 26.8315 125.931 26.6822 126.023 26.5897C126.116 26.4973 126.265 26.4973 126.357 26.5897L129.884 30.1244C129.977 30.2169 129.977 30.3662 129.884 30.4587C129.842 30.5013 129.778 30.5298 129.721 30.5298H129.714Z" fill="#1388E5"/>
<path d="M126.179 30.5298C126.122 30.5298 126.058 30.5085 126.015 30.4587C125.923 30.3662 125.923 30.2169 126.015 30.1244L129.543 26.5897C129.635 26.4973 129.784 26.4973 129.877 26.5897C129.969 26.6822 129.969 26.8315 129.877 26.924L126.349 30.4587C126.306 30.5013 126.243 30.5298 126.186 30.5298H126.179Z" fill="#1388E5"/>
<path d="M199.078 147.814H134.654C131.659 147.814 129.238 150.247 129.238 153.241V162.636C129.238 164.563 127.975 166.263 126.137 166.818H199.085C202.08 166.818 204.5 164.385 204.5 161.391V153.241C204.5 150.24 202.073 147.814 199.085 147.814H199.078Z" fill="#FFCECE"/>
<path d="M209.531 124.857H134.057C131.275 124.857 129.018 127.289 129.018 130.283V135.831C129.018 137.758 127.846 139.458 126.129 140.012H209.531C212.314 140.012 214.571 137.58 214.571 134.586V130.29C214.571 127.289 212.314 124.864 209.531 124.864V124.857Z" fill="#FFCECE"/>
<path d="M217.971 40.1168C217.098 40.1168 216.218 39.8323 215.501 39.2776C214.231 38.3032 213.088 37.1582 212.116 35.8851C211.299 34.8112 211.065 33.403 211.491 32.1157C211.541 31.9522 211.597 31.817 211.661 31.689C211.683 31.6463 211.704 31.5966 211.732 31.5468C212.002 31.0347 212.343 30.5866 212.357 30.5653C212.513 30.3306 212.769 30.1813 213.074 30.1528C213.429 30.1173 213.783 30.2524 214.053 30.5226L215.267 31.7388C215.721 32.194 215.771 32.8838 215.38 33.3034L214.266 34.4983C215.033 35.4371 215.948 36.3545 216.885 37.1155L218.077 36.006C218.503 35.6149 219.185 35.6646 219.639 36.1198L220.853 37.336C221.122 37.6062 221.257 37.9618 221.222 38.3174C221.193 38.6232 221.044 38.8793 220.796 39.0429C220.796 39.0429 220.349 39.3913 219.831 39.6616C219.781 39.6901 219.731 39.7114 219.681 39.7327C219.554 39.7967 219.419 39.8536 219.291 39.8963L219.22 39.9105C218.816 40.0457 218.39 40.1097 217.971 40.1097V40.1168ZM213.166 30.6151C213.166 30.6151 213.123 30.6151 213.109 30.6151C212.946 30.6293 212.811 30.7076 212.726 30.8356C212.712 30.8498 212.385 31.2765 212.137 31.753C212.116 31.7957 212.094 31.8313 212.08 31.8739C212.023 31.9877 211.974 32.1015 211.938 32.2153C211.555 33.3959 211.761 34.6405 212.485 35.5864C213.436 36.831 214.543 37.9405 215.785 38.8935C216.729 39.6189 217.978 39.8252 219.114 39.4482L219.185 39.434C219.263 39.4056 219.376 39.3558 219.483 39.2989L219.618 39.2349C220.086 38.986 220.512 38.6588 220.519 38.6588C220.661 38.5664 220.732 38.4312 220.753 38.2676C220.774 38.0543 220.689 37.8338 220.519 37.6631L219.305 36.447C219.036 36.1767 218.624 36.134 218.39 36.3474L216.906 37.7342L216.75 37.6062C215.679 36.7528 214.621 35.7002 213.769 34.6263L213.642 34.4698L215.033 32.9763C215.246 32.7416 215.203 32.3362 214.933 32.066L213.72 30.8498C213.571 30.7004 213.372 30.608 213.173 30.608L213.166 30.6151Z" fill="white"/>
<path d="M219.214 34.3987C219.086 34.3987 218.979 34.292 218.979 34.164V29.7332C218.979 29.6052 219.086 29.4985 219.214 29.4985C219.341 29.4985 219.448 29.6052 219.448 29.7332V34.164C219.448 34.292 219.341 34.3987 219.214 34.3987Z" fill="white"/>
<path d="M221.421 32.1869H216.999C216.871 32.1869 216.765 32.0802 216.765 31.9522C216.765 31.8242 216.871 31.7175 216.999 31.7175H221.421C221.548 31.7175 221.655 31.8242 221.655 31.9522C221.655 32.0802 221.548 32.1869 221.421 32.1869Z" fill="white"/>
<path d="M217.353 204.704H133.922C130.026 204.704 126.86 201.539 126.86 197.627C126.86 193.723 130.019 190.551 133.922 190.551H217.353C221.25 190.551 224.415 193.715 224.415 197.627C224.415 201.532 221.257 204.704 217.353 204.704Z" fill="white"/>
<path d="M221.427 197.634C221.427 200.187 219.362 202.257 216.821 202.257C214.28 202.257 212.215 200.187 212.215 197.634C212.215 195.081 214.28 193.011 216.821 193.011C219.362 193.011 221.427 195.081 221.427 197.634Z" fill="white"/>
<path d="M216.813 199.27C215.94 199.27 215.23 198.559 215.23 197.684V195.323C215.23 194.448 215.94 193.737 216.813 193.737C217.686 193.737 218.396 194.448 218.396 195.323V197.684C218.396 198.559 217.686 199.27 216.813 199.27ZM216.813 194.199C216.196 194.199 215.699 194.704 215.699 195.316V197.677C215.699 198.296 216.203 198.793 216.813 198.793C217.424 198.793 217.928 198.289 217.928 197.677V195.316C217.928 194.697 217.424 194.199 216.813 194.199Z" fill="#0E1738"/>
<path d="M216.814 200.387C215.451 200.387 214.344 199.277 214.344 197.912C214.344 197.784 214.45 197.677 214.578 197.677C214.706 197.677 214.812 197.784 214.812 197.912C214.812 199.021 215.714 199.917 216.814 199.917C217.914 199.917 218.815 199.014 218.815 197.912C218.815 197.784 218.922 197.677 219.049 197.677C219.177 197.677 219.284 197.784 219.284 197.912C219.284 199.277 218.176 200.387 216.814 200.387Z" fill="#0E1738"/>
<path d="M216.813 201.532C216.686 201.532 216.579 201.425 216.579 201.297V200.152C216.579 200.024 216.686 199.917 216.813 199.917C216.941 199.917 217.048 200.024 217.048 200.152V201.297C217.048 201.425 216.941 201.532 216.813 201.532Z" fill="#0E1738"/>
<path d="M210.533 129.956H133.525C133.397 129.956 133.298 129.856 133.298 129.728C133.298 129.6 133.397 129.501 133.525 129.501H210.533C210.66 129.501 210.76 129.6 210.76 129.728C210.76 129.856 210.66 129.956 210.533 129.956Z" fill="white"/>
<path d="M177.196 135.361H133.525C133.397 135.361 133.298 135.262 133.298 135.134C133.298 135.006 133.397 134.906 133.525 134.906H177.196C177.324 134.906 177.423 135.006 177.423 135.134C177.423 135.262 177.324 135.361 177.196 135.361Z" fill="white"/>
<path d="M199.432 152.409H134.078C133.95 152.409 133.844 152.302 133.844 152.174C133.844 152.046 133.95 151.939 134.078 151.939H199.432C199.559 151.939 199.666 152.046 199.666 152.174C199.666 152.302 199.559 152.409 199.432 152.409Z" fill="white"/>
<path d="M199.432 163.219H134.078C133.95 163.219 133.844 163.112 133.844 162.984C133.844 162.856 133.95 162.75 134.078 162.75H199.432C199.559 162.75 199.666 162.856 199.666 162.984C199.666 163.112 199.559 163.219 199.432 163.219Z" fill="white"/>
<path d="M180.993 157.814H134.071C133.943 157.814 133.837 157.707 133.837 157.579C133.837 157.451 133.943 157.344 134.071 157.344H180.993C181.12 157.344 181.227 157.451 181.227 157.579C181.227 157.707 181.12 157.814 180.993 157.814Z" fill="white"/>
<path d="M144.526 66.2606H232.251C236.325 66.2606 239.625 69.9233 239.625 74.4466V88.6066C239.625 91.5084 241.342 94.0687 243.848 94.9079H144.526C140.452 94.9079 137.151 91.2452 137.151 86.7291V74.4466C137.151 69.9304 140.452 66.2606 144.526 66.2606Z" fill="#FF8080"/>
<path d="M233.032 73.1735H144.044C143.859 73.1735 143.71 73.0242 143.71 72.8393C143.71 72.6544 143.859 72.505 144.044 72.505H233.032C233.216 72.505 233.365 72.6544 233.365 72.8393C233.365 73.0242 233.216 73.1735 233.032 73.1735Z" fill="white"/>
<path d="M233.032 89.4602H144.044C143.859 89.4602 143.71 89.3108 143.71 89.1259C143.71 88.941 143.859 88.7916 144.044 88.7916H233.032C233.216 88.7916 233.365 88.941 233.365 89.1259C233.365 89.3108 233.216 89.4602 233.032 89.4602Z" fill="white"/>
<path d="M233.031 81.3168H169.147C168.963 81.3168 168.813 81.1675 168.813 80.9826C168.813 80.7977 168.963 80.6483 169.147 80.6483H233.031C233.216 80.6483 233.365 80.7977 233.365 80.9826C233.365 81.1675 233.216 81.3168 233.031 81.3168Z" fill="white"/>
<path d="M130.991 177.343C130.366 177.343 129.855 176.831 129.855 176.206C129.855 175.58 130.366 175.068 130.991 175.068C131.616 175.068 132.127 175.58 132.127 176.206C132.127 176.831 131.616 177.343 130.991 177.343Z" fill="#B1E4FA"/>
<path d="M135.505 177.343C134.88 177.343 134.369 176.831 134.369 176.206C134.369 175.58 134.88 175.068 135.505 175.068C136.129 175.068 136.64 175.58 136.64 176.206C136.64 176.831 136.129 177.343 135.505 177.343Z" fill="#B1E4FA"/>
<path d="M140.019 177.343C139.395 177.343 138.884 176.831 138.884 176.206C138.884 175.58 139.395 175.068 140.019 175.068C140.644 175.068 141.155 175.58 141.155 176.206C141.155 176.831 140.644 177.343 140.019 177.343Z" fill="#B1E4FA"/>
<path d="M132.978 200.828C132.851 200.828 132.744 200.721 132.744 200.593V194.377C132.744 194.249 132.851 194.142 132.978 194.142C133.106 194.142 133.213 194.249 133.213 194.377V200.593C133.213 200.721 133.106 200.828 132.978 200.828Z" fill="#0E1738"/>
<path d="M135.931 197.72H130.033C129.905 197.72 129.799 197.613 129.799 197.485C129.799 197.357 129.905 197.25 130.033 197.25H135.931C136.059 197.25 136.165 197.357 136.165 197.485C136.165 197.613 136.059 197.72 135.931 197.72Z" fill="#0E1738"/>
<path d="M261.67 123.413C261.592 124.458 261.244 128.299 260.201 132.936C259.335 136.762 257.993 141.129 255.921 144.913C253.231 149.834 249.313 153.746 243.635 154.187C243.301 154.215 242.975 154.229 242.648 154.229C229.696 154.229 225.288 134.01 225.103 133.128C224.692 131.158 225.948 129.223 227.914 128.811C229.88 128.398 231.811 129.657 232.222 131.627C233.102 135.745 236.978 147.388 243.067 146.911C246.282 146.662 248.696 143.54 250.456 139.536C251.577 136.99 252.429 134.088 253.053 131.336C253.82 127.958 254.246 124.821 254.402 122.865C254.558 120.86 256.304 119.338 258.306 119.508C260.314 119.665 261.819 121.414 261.663 123.42L261.67 123.413Z" fill="#1388E5"/>
<mask id="mask1_62_1984" style="mask-type:luminance" maskUnits="userSpaceOnUse" x="225" y="119" width="37" height="36">
<path d="M242.648 154.222C229.696 154.222 225.288 134.01 225.103 133.128C224.692 131.158 225.948 129.224 227.914 128.804C229.887 128.391 231.811 129.65 232.229 131.62C233.109 135.738 236.985 147.381 243.074 146.911C250.853 146.314 253.941 128.903 254.409 122.858C254.565 120.853 256.311 119.338 258.32 119.501C260.321 119.658 261.826 121.407 261.67 123.413C261.443 126.436 258.98 153.006 243.635 154.187C243.301 154.215 242.975 154.222 242.656 154.222H242.648Z" fill="white"/>
</mask>
<g mask="url(#mask1_62_1984)">
<path d="M225.842 139.479C225.018 139.479 224.216 139.394 223.45 139.209C221.093 138.661 219.362 137.331 218.574 135.468C218.531 135.361 218.574 135.24 218.687 135.198C218.794 135.155 218.915 135.198 218.957 135.311C219.695 137.054 221.321 138.298 223.542 138.81C225.792 139.33 228.361 139.052 230.796 138.014C235.792 135.887 238.617 131.215 237.084 127.602C237.041 127.495 237.084 127.374 237.198 127.332C237.304 127.289 237.425 127.332 237.467 127.445C239.086 131.272 236.168 136.193 230.959 138.405C229.277 139.123 227.517 139.486 225.842 139.486V139.479Z" fill="#2C2A2B"/>
<path d="M229.823 148.44C229 148.44 228.198 148.355 227.431 148.17C225.075 147.622 223.343 146.292 222.555 144.429C222.513 144.322 222.555 144.201 222.669 144.159C222.775 144.116 222.896 144.159 222.939 144.273C223.677 146.015 225.302 147.26 227.523 147.772C229.773 148.298 232.343 148.013 234.777 146.975C239.774 144.849 242.599 140.176 241.065 136.563C241.023 136.456 241.065 136.336 241.179 136.293C241.286 136.25 241.406 136.293 241.449 136.407C243.067 140.233 240.15 145.154 234.94 147.366C233.258 148.085 231.498 148.447 229.823 148.447V148.44Z" fill="#2C2A2B"/>
<path d="M239.114 159.379C239 159.379 238.908 159.286 238.908 159.172C238.908 159.059 239 158.966 239.114 158.966C243.039 158.966 246.226 154.542 246.226 149.095C246.226 143.647 243.032 139.223 239.114 139.223C239 139.223 238.908 139.131 238.908 139.017C238.908 138.903 239 138.811 239.114 138.811C243.266 138.811 246.644 143.426 246.644 149.095C246.644 154.763 243.266 159.379 239.114 159.379Z" fill="#2C2A2B"/>
<path d="M255.757 156.171C255.694 156.171 255.63 156.143 255.587 156.086C255.523 155.993 255.544 155.865 255.637 155.794C258.831 153.511 258.866 148.056 255.708 143.625C254.175 141.47 252.123 139.877 249.937 139.145C247.773 138.419 245.736 138.626 244.203 139.728C244.11 139.792 243.983 139.771 243.912 139.678C243.848 139.586 243.869 139.458 243.961 139.387C245.608 138.206 247.78 137.986 250.072 138.754C252.344 139.515 254.466 141.157 256.048 143.384C259.335 147.999 259.256 153.724 255.878 156.135C255.843 156.164 255.8 156.171 255.757 156.171Z" fill="#2C2A2B"/>
<path d="M260.2 132.936C259.334 136.762 257.993 141.129 255.921 144.913C254.104 142.025 252.074 140.418 250.47 139.536C251.591 136.99 252.443 134.088 253.067 131.336L258.703 131.407L260.2 132.936Z" fill="#2C2A2B"/>
</g>
<path d="M270.265 95.2706C269.321 97.0558 267.568 98.4568 265.374 98.9689C264.714 99.1254 264.047 99.1894 263.401 99.168C260.236 99.0827 257.447 96.9989 256.73 93.9336C255.871 90.2353 258.348 86.5015 262.266 85.584C266.184 84.6737 270.059 86.9282 270.918 90.6265C271.294 92.248 271.024 93.8767 270.272 95.2706H270.265Z" fill="#FEC510"/>
<mask id="mask2_62_1984" style="mask-type:luminance" maskUnits="userSpaceOnUse" x="256" y="85" width="16" height="15">
<path d="M270.91 90.6265C271.769 94.3247 269.292 98.0585 265.374 98.9689C261.457 99.8792 257.588 97.6247 256.73 93.9336C255.871 90.2353 258.348 86.5015 262.266 85.5911C266.184 84.6808 270.052 86.9353 270.91 90.6265Z" fill="white"/>
</mask>
<g mask="url(#mask2_62_1984)">
<path d="M257.653 100.825C257.568 100.825 257.489 100.761 257.475 100.676C257.461 100.576 257.525 100.484 257.624 100.462C259.321 100.164 260.172 96.8353 259.512 93.0446C258.852 89.2468 256.936 86.4091 255.232 86.7007C255.133 86.7149 255.041 86.6509 255.02 86.5513C255.005 86.4517 255.069 86.3593 255.169 86.3379C257.099 86.0108 259.164 88.9196 259.867 92.9806C260.57 97.0416 259.612 100.484 257.681 100.818C257.674 100.818 257.66 100.818 257.653 100.818V100.825Z" fill="#2C2A2B"/>
</g>
<path d="M270.265 95.2706C269.321 97.0558 267.568 98.4568 265.374 98.9689C264.714 99.1254 264.047 99.1894 263.401 99.168C266.609 95.4698 266.24 88.6707 266.176 88.2582L270.272 95.2706H270.265Z" fill="#2C2A2B"/>
<path d="M324.432 93.9336C323.659 97.2762 320.415 99.4454 316.895 99.1467C316.533 99.1182 316.157 99.0613 315.787 98.9689C312.984 98.3217 310.919 96.2094 310.28 93.7131C310.024 92.7245 310.003 91.6791 310.244 90.6265C311.103 86.9282 314.978 84.6737 318.896 85.584C322.814 86.4944 325.291 90.2353 324.432 93.9336Z" fill="#FEC510"/>
<path d="M316.895 99.1467C316.533 99.1183 316.157 99.0614 315.788 98.9689C312.984 98.3217 310.919 96.2094 310.28 93.7131L314.581 88.2582C314.532 88.7418 313.758 95.1426 316.888 99.1467H316.895Z" fill="#2C2A2B"/>
<mask id="mask3_62_1984" style="mask-type:luminance" maskUnits="userSpaceOnUse" x="310" y="85" width="15" height="15">
<path d="M310.252 90.6265C309.393 94.3247 311.87 98.0585 315.788 98.9689C319.706 99.8792 323.574 97.6247 324.433 93.9336C325.292 90.2353 322.815 86.5015 318.897 85.5911C314.979 84.6808 311.111 86.9353 310.252 90.6265Z" fill="white"/>
</mask>
<g mask="url(#mask3_62_1984)">
<path d="M323.51 100.825C323.51 100.825 323.488 100.825 323.481 100.825C321.551 100.491 320.593 97.0415 321.295 92.9877C321.998 88.9267 324.07 86.0179 325.994 86.345C326.093 86.3593 326.157 86.4588 326.143 86.5584C326.129 86.658 326.029 86.722 325.93 86.7077C324.234 86.4162 322.31 89.261 321.65 93.0517C320.99 96.8424 321.835 100.171 323.538 100.47C323.638 100.484 323.701 100.583 323.687 100.683C323.673 100.768 323.595 100.832 323.51 100.832V100.825Z" fill="#2C2A2B"/>
</g>
<path d="M304.929 108.755H276C272.103 108.755 268.782 105.939 268.136 102.084L264.942 82.981C264.268 78.9343 267.376 75.2502 271.471 75.2502H309.45C313.545 75.2502 316.661 78.9343 315.98 82.981L312.786 102.084C312.14 105.932 308.818 108.755 304.922 108.755H304.929Z" fill="#FEC510"/>
<path d="M289.946 77.9315C289.875 77.9315 289.804 77.9102 289.74 77.8746C289.172 77.5475 289.037 74.8733 289.094 73.5149C289.186 71.1964 289.832 67.0643 293.132 65.4926C293.338 65.393 293.594 65.4783 293.693 65.6917C293.792 65.898 293.7 66.154 293.494 66.2536C292.103 66.915 291.103 68.188 290.506 70.0443C289.513 73.1451 290.038 76.7367 290.258 77.2274C290.379 77.3626 290.414 77.5617 290.315 77.7253C290.237 77.8604 290.095 77.9386 289.953 77.9386L289.946 77.9315Z" fill="#FEC510"/>
<path d="M298.193 63.0958C298.952 64.4186 298.243 66.2606 296.596 67.2136C294.949 68.1666 293.005 67.8608 292.238 66.538C291.472 65.2151 292.188 63.3731 293.835 62.4201C295.482 61.4671 297.426 61.7729 298.193 63.0958Z" fill="#FEC510"/>
<path d="M274.786 108.933C274.694 108.933 274.616 108.869 274.609 108.776L269.96 75.3853C269.946 75.2857 270.017 75.1933 270.116 75.1791C270.208 75.1648 270.308 75.236 270.322 75.3355L274.971 108.727C274.985 108.826 274.914 108.919 274.815 108.933C274.807 108.933 274.8 108.933 274.786 108.933Z" fill="#2C2A2B"/>
<path d="M305.915 108.933C305.915 108.933 305.901 108.933 305.886 108.933C305.787 108.919 305.716 108.826 305.73 108.727L310.379 75.3355C310.393 75.236 310.486 75.1648 310.585 75.1791C310.684 75.1933 310.755 75.2857 310.741 75.3853L306.092 108.776C306.078 108.869 306 108.933 305.915 108.933Z" fill="#2C2A2B"/>
<path d="M310.677 88.3648C310.677 94.8226 306.099 103.976 290.293 103.976C275.389 103.976 270.25 94.8297 270.25 88.3648C270.25 81.9 279.711 80.5771 290.293 80.5771C300.876 80.5771 310.677 81.9 310.677 88.3648Z" fill="white"/>
<path d="M283.714 90.9109C283.714 93.4499 281.656 95.5124 279.122 95.5124C276.589 95.5124 274.53 93.4499 274.53 90.9109C274.53 88.3719 276.589 86.3094 279.122 86.3094C281.656 86.3094 283.714 88.3719 283.714 90.9109Z" fill="#2C2A2B"/>
<path d="M306.398 90.9109C306.398 93.4499 304.34 95.5124 301.806 95.5124C299.272 95.5124 297.214 93.4499 297.214 90.9109C297.214 88.3719 299.272 86.3094 301.806 86.3094C304.34 86.3094 306.398 88.3719 306.398 90.9109Z" fill="#2C2A2B"/>
<path d="M329.472 130.184L328.933 132.552C326.506 143.099 321.899 153.049 315.157 161.498C298.84 181.945 280.301 182.094 263.636 159.563C257.745 151.605 253.7 142.423 251.485 132.772L250.889 130.184C249.037 122.111 256.283 114.608 265.936 114.608H314.433C324.078 114.608 331.332 122.119 329.479 130.184H329.472Z" fill="#FEC510"/>
<mask id="mask4_62_1984" style="mask-type:luminance" maskUnits="userSpaceOnUse" x="250" y="114" width="80" height="63">
<path d="M263.635 159.571C257.744 151.605 253.699 142.431 251.477 132.772L250.881 130.191C249.029 122.119 256.275 114.608 265.928 114.608H314.425C324.078 114.608 331.324 122.119 329.472 130.191L328.925 132.559C326.505 143.106 321.891 153.063 315.149 161.512C298.832 181.959 280.293 182.109 263.628 159.578L263.635 159.571Z" fill="white"/>
</mask>
<g mask="url(#mask4_62_1984)">
<path d="M331.58 130.433C332.666 135.105 330.423 139.628 326.569 140.525C322.715 141.421 318.712 138.363 317.626 133.683C316.54 129.003 318.783 124.487 322.637 123.591C326.491 122.695 330.494 125.753 331.58 130.433Z" fill="#2C2A2B"/>
<path d="M323.858 143.561C318.556 143.561 313.737 138.633 312.807 131.983C311.813 124.843 315.681 118.378 321.438 117.574C327.187 116.785 332.68 121.927 333.674 129.067C334.667 136.208 330.799 142.672 325.043 143.476C324.646 143.533 324.248 143.561 323.858 143.561ZM322.623 117.901C322.247 117.901 321.87 117.93 321.494 117.979C315.965 118.755 312.253 125.006 313.219 131.926C314.184 138.839 319.457 143.839 324.986 143.064C330.515 142.288 334.227 136.037 333.262 129.117C332.368 122.673 327.719 117.901 322.623 117.901Z" fill="#2C2A2B"/>
<path d="M247.503 140.866C246.552 140.866 245.608 140.717 244.685 140.397C239.191 138.505 236.629 131.414 238.971 124.594C240.107 121.301 242.201 118.555 244.877 116.863C247.566 115.163 250.519 114.736 253.181 115.661C258.674 117.553 261.236 124.643 258.894 131.464C256.942 137.139 252.201 140.866 247.503 140.866ZM250.342 115.604C248.589 115.604 246.786 116.152 245.097 117.218C242.499 118.854 240.469 121.521 239.362 124.729C237.091 131.329 239.539 138.185 244.813 140.005C250.086 141.826 256.225 137.936 258.497 131.336C260.768 124.736 258.319 117.88 253.046 116.059C252.173 115.76 251.264 115.604 250.342 115.604Z" fill="#2C2A2B"/>
<path d="M289.932 184.185C278.711 184.185 269.576 180.807 269.576 176.661C269.576 172.514 278.711 169.136 289.932 169.136C301.153 169.136 310.287 172.514 310.287 176.661C310.287 180.807 301.153 184.185 289.932 184.185ZM289.932 169.549C278.938 169.549 269.988 172.742 269.988 176.661C269.988 180.579 278.931 183.773 289.932 183.773C300.933 183.773 309.876 180.579 309.876 176.661C309.876 172.742 300.933 169.549 289.932 169.549Z" fill="#2C2A2B"/>
</g>
<path d="M318.258 161.619C312.665 161.619 305.965 159.627 297.917 155.645C296.114 154.749 295.376 152.565 296.263 150.759C297.157 148.952 299.336 148.213 301.139 149.102C318.691 157.8 323.659 153.412 325.526 151.754C328.401 149.208 327.151 145.012 323.83 136.691C322.68 133.818 321.495 130.845 320.6 127.744C320.04 125.81 321.154 123.783 323.085 123.228C325.015 122.673 327.038 123.783 327.591 125.717C328.386 128.47 329.508 131.272 330.587 133.981C333.773 141.961 337.379 151.001 330.345 157.224C327.038 160.147 323.056 161.619 318.258 161.619Z" fill="#1388E5"/>
<path d="M313.588 114.608C313.588 115.376 303.233 115.988 290.457 115.988C277.682 115.988 267.341 115.376 267.341 114.608H313.588Z" fill="#2C2A2B"/>
<mask id="mask5_62_1984" style="mask-type:luminance" maskUnits="userSpaceOnUse" x="295" y="123" width="40" height="39">
<path d="M318.258 161.619C312.665 161.619 305.965 159.627 297.917 155.645C296.114 154.749 295.376 152.565 296.263 150.759C297.157 148.952 299.336 148.213 301.139 149.102C318.691 157.8 323.659 153.412 325.526 151.754C328.401 149.208 327.151 145.012 323.83 136.691C322.68 133.818 321.495 130.845 320.6 127.744C320.04 125.81 321.154 123.783 323.085 123.228C325.015 122.673 327.038 123.783 327.591 125.717C328.386 128.47 329.508 131.272 330.587 133.981C333.773 141.961 337.379 151.001 330.345 157.224C327.038 160.147 323.056 161.619 318.258 161.619Z" fill="white"/>
</mask>
<g mask="url(#mask5_62_1984)">
<path d="M300.287 163.461C300.024 163.461 299.762 163.439 299.506 163.404C299.393 163.39 299.315 163.283 299.329 163.169C299.343 163.055 299.442 162.977 299.563 162.991C301.437 163.247 303.332 162.494 304.922 160.844C306.526 159.179 307.604 156.825 307.974 154.201C308.726 148.81 306.171 143.988 302.288 143.44C302.175 143.426 302.097 143.32 302.111 143.206C302.125 143.092 302.225 143.007 302.345 143.028C306.455 143.604 309.166 148.639 308.385 154.258C308.009 156.968 306.888 159.407 305.22 161.135C303.758 162.65 302.033 163.454 300.294 163.454L300.287 163.461Z" fill="#2C2A2B"/>
<path d="M313.701 167.031C313.445 167.031 313.19 167.01 312.927 166.974C312.814 166.96 312.736 166.853 312.75 166.74C312.764 166.626 312.863 166.547 312.984 166.562C316.866 167.109 320.642 163.162 321.387 157.771C322.14 152.38 319.585 147.558 315.702 147.011C315.589 146.997 315.511 146.89 315.525 146.776C315.539 146.662 315.638 146.584 315.759 146.598C319.869 147.174 322.58 152.21 321.799 157.828C321.068 163.091 317.519 167.024 313.694 167.024L313.701 167.031Z" fill="#2C2A2B"/>
<path d="M338.407 153.333H338.393C338.28 153.326 338.194 153.227 338.201 153.113C338.478 149.194 334.298 145.688 328.882 145.304C323.474 144.92 318.832 147.793 318.556 151.712C318.549 151.826 318.449 151.911 318.336 151.904C318.222 151.897 318.137 151.797 318.144 151.683C318.435 147.537 323.268 144.486 328.911 144.884C334.553 145.29 338.911 148.988 338.613 153.134C338.606 153.241 338.514 153.326 338.407 153.326V153.333Z" fill="#2C2A2B"/>
<path d="M317.434 139.479C317.328 139.479 317.236 139.394 317.228 139.287C316.909 135.141 321.246 131.414 326.888 130.98C329.607 130.774 332.233 131.35 334.262 132.609C336.321 133.882 337.534 135.695 337.691 137.715C337.698 137.829 337.612 137.929 337.499 137.936C337.371 137.95 337.286 137.858 337.279 137.744C337.137 135.859 335.987 134.159 334.05 132.957C332.091 131.741 329.55 131.186 326.924 131.386C321.508 131.798 317.349 135.326 317.647 139.244C317.654 139.358 317.569 139.458 317.456 139.465H317.441L317.434 139.479Z" fill="#2C2A2B"/>
</g>
<path d="M301.728 143.263H277.255C275.254 143.263 273.543 141.819 273.21 139.842L271.556 130.127C271.13 127.616 273.061 125.326 275.602 125.326H303.374C305.915 125.326 307.846 127.616 307.42 130.127L305.766 139.842C305.432 141.819 303.722 143.263 301.72 143.263H301.728Z" fill="#FEC510"/>
<path d="M301.728 143.448H277.255C275.162 143.448 273.38 141.947 273.032 139.87L271.379 130.155C271.166 128.903 271.514 127.637 272.33 126.663C273.146 125.689 274.338 125.141 275.602 125.141H303.374C304.637 125.141 305.83 125.696 306.646 126.663C307.462 127.63 307.81 128.903 307.597 130.155L305.943 139.87C305.589 141.94 303.814 143.448 301.72 143.448H301.728ZM275.602 125.511C274.445 125.511 273.352 126.016 272.607 126.905C271.861 127.794 271.542 128.953 271.741 130.098L273.394 139.813C273.714 141.705 275.339 143.085 277.262 143.085H301.735C303.651 143.085 305.276 141.712 305.603 139.813L307.256 130.098C307.448 128.953 307.136 127.794 306.391 126.905C305.645 126.016 304.552 125.511 303.395 125.511H275.623H275.602Z" fill="white"/>
<path d="M303.296 131.883H299.818C299.719 131.883 299.634 131.798 299.634 131.698C299.634 131.599 299.719 131.514 299.818 131.514H303.296C303.395 131.514 303.481 131.599 303.481 131.698C303.481 131.798 303.395 131.883 303.296 131.883Z" fill="white"/>
<path d="M297.931 131.883H287.746C287.647 131.883 287.562 131.798 287.562 131.698C287.562 131.599 287.647 131.514 287.746 131.514H297.931C298.03 131.514 298.115 131.599 298.115 131.698C298.115 131.798 298.03 131.883 297.931 131.883Z" fill="white"/>
<path d="M283.75 131.883H275.687C275.588 131.883 275.503 131.798 275.503 131.698C275.503 131.599 275.588 131.514 275.687 131.514H283.75C283.85 131.514 283.935 131.599 283.935 131.698C283.935 131.798 283.85 131.883 283.75 131.883Z" fill="white"/>
<path d="M303.297 137.075H294.581C294.482 137.075 294.396 136.99 294.396 136.89C294.396 136.791 294.482 136.705 294.581 136.705H303.297C303.396 136.705 303.481 136.791 303.481 136.89C303.481 136.99 303.396 137.075 303.297 137.075Z" fill="white"/>
<path d="M291.522 137.075H281.046C280.947 137.075 280.861 136.99 280.861 136.89C280.861 136.791 280.947 136.705 281.046 136.705H291.522C291.621 136.705 291.706 136.791 291.706 136.89C291.706 136.99 291.621 137.075 291.522 137.075Z" fill="white"/>
<path d="M278.803 137.075H275.687C275.588 137.075 275.503 136.99 275.503 136.89C275.503 136.791 275.588 136.705 275.687 136.705H278.803C278.903 136.705 278.988 136.791 278.988 136.89C278.988 136.99 278.903 137.075 278.803 137.075Z" fill="white"/>
<path d="M291.827 97.5038C291.827 98.2577 291.217 98.8693 290.464 98.8693C289.712 98.8693 289.102 98.2577 289.102 97.5038C289.102 96.7499 289.712 96.1383 290.464 96.1383C291.217 96.1383 291.827 96.7499 291.827 97.5038Z" fill="#1388E5"/>
<path d="M289.492 200.657C281.557 200.657 273.125 199.512 273.125 197.4C273.125 195.287 281.557 194.142 289.492 194.142C297.427 194.142 305.859 195.287 305.859 197.4C305.859 199.512 297.427 200.657 289.492 200.657ZM289.492 194.668C280.159 194.668 273.657 196.105 273.657 197.392C273.657 198.68 280.159 200.116 289.492 200.116C298.825 200.116 305.326 198.68 305.326 197.392C305.326 196.105 298.825 194.668 289.492 194.668Z" fill="white"/>
<path d="M289.493 189.861C274.936 189.861 259.456 188.381 259.456 185.636C259.456 182.891 274.929 181.412 289.493 181.412C304.057 181.412 319.529 182.891 319.529 185.636C319.529 188.381 304.057 189.861 289.493 189.861ZM289.493 181.938C272.104 181.938 259.988 183.887 259.988 185.629C259.988 187.372 272.104 189.32 289.493 189.32C306.881 189.32 318.997 187.372 318.997 185.629C318.997 183.887 306.881 181.938 289.493 181.938Z" fill="white"/>
<path d="M276.723 90.1855C276.723 90.5909 276.397 90.9109 275.999 90.9109C275.602 90.9109 275.275 90.5838 275.275 90.1855C275.275 89.7872 275.602 89.4601 275.999 89.4601C276.397 89.4601 276.723 89.7872 276.723 90.1855Z" fill="white"/>
<path d="M300.145 90.1855C300.145 90.5909 299.819 90.9109 299.421 90.9109C299.024 90.9109 298.697 90.5838 298.697 90.1855C298.697 89.7872 299.024 89.4601 299.421 89.4601C299.819 89.4601 300.145 89.7872 300.145 90.1855Z" fill="white"/>
</g>
<defs>
<linearGradient id="paint0_linear_62_1984" x1="365.219" y1="16.3059" x2="-46.0068" y2="68.0085" gradientUnits="userSpaceOnUse">
<stop offset="0.213542" stop-color="#3B781F"/>
<stop offset="1" stop-color="#FDFFA7"/>
</linearGradient>
<clipPath id="clip0_62_1984">
<rect width="381" height="237.506" fill="white" transform="translate(0 0.246704)"/>
</clipPath>
</defs>
</svg>
