<svg width="309" height="221" viewBox="0 0 309 221" fill="none" xmlns="http://www.w3.org/2000/svg">
<g clip-path="url(#clip0_62_87)">
<path d="M302.26 163.68C302.135 163.68 302.01 163.669 301.874 163.642C301.162 163.523 300.607 163.069 300.318 162.355C299.97 161.489 300.095 160.396 300.623 159.698C301.031 158.881 302.086 158.021 303.218 157.518C302.989 157.225 302.706 156.998 302.375 156.863C301.613 156.56 300.226 156.5 299.171 156.987C298.621 157.242 298.262 157.599 298.11 158.048C298.061 158.188 297.909 158.264 297.767 158.221C297.626 158.172 297.55 158.021 297.593 157.88C297.789 157.29 298.257 156.814 298.937 156.5C299.987 156.013 301.553 155.959 302.576 156.365C303.055 156.555 303.441 156.89 303.745 157.317C303.941 157.252 304.137 157.198 304.327 157.161C305.481 156.776 306.482 156.798 307.259 157.236C308.097 157.707 308.685 158.659 308.995 160.071C309.027 160.217 308.935 160.364 308.788 160.396C308.641 160.428 308.494 160.337 308.462 160.19C308.184 158.935 307.684 158.102 306.987 157.707C306.346 157.344 305.497 157.339 304.463 157.68C304.317 157.707 304.175 157.745 304.028 157.794C304.594 158.93 304.686 160.472 304.311 161.727C303.936 162.977 303.191 163.68 302.26 163.68ZM303.511 157.983C302.456 158.432 301.461 159.227 301.085 159.979C300.645 160.569 300.547 161.467 300.824 162.154C300.977 162.528 301.298 162.999 301.972 163.112C303.131 163.339 303.626 162.117 303.783 161.576C304.126 160.423 304.028 158.989 303.511 157.983Z" fill="black"/>
<path d="M76.4317 179.311C75.099 179.311 73.8533 178.787 72.9068 177.813C72.488 177.342 72.1671 176.714 71.9767 176.038C71.275 175.979 70.595 175.735 70.0021 175.324C68.9632 174.61 68.2615 173.436 68.0765 172.11C67.8698 170.465 68.441 169.453 69.3331 168.095C69.4146 167.971 69.5833 167.938 69.7084 168.02C69.8335 168.101 69.8716 168.269 69.7845 168.393C68.936 169.681 68.4246 170.546 68.615 172.04C68.7782 173.214 69.3983 174.253 70.3122 174.88C70.78 175.205 71.3022 175.405 71.8516 175.481C71.7373 174.826 71.7373 174.15 71.8788 173.538C72.1399 172.381 72.8307 171.536 73.8751 171.093C74.5061 170.822 75.1751 170.898 75.6538 171.282C76.2087 171.726 76.4426 172.505 76.2848 173.365C76.0074 174.496 74.7182 175.6 73.2876 175.946C73.0374 176 72.7926 176.038 72.5424 176.049C72.711 176.585 72.9721 177.071 73.3094 177.45C74.196 178.359 75.3982 178.83 76.6656 178.77C78.0037 178.7 79.2494 178.067 80.0762 177.017C80.1687 176.898 80.3427 176.882 80.457 176.974C80.5766 177.066 80.593 177.239 80.5005 177.353C79.5758 178.522 78.1832 179.236 76.6873 179.311C76.6003 179.311 76.5133 179.317 76.4262 179.317L76.4317 179.311ZM74.6312 171.466C74.4517 171.466 74.2667 171.504 74.0818 171.585C72.9776 172.056 72.5587 172.965 72.4064 173.652C72.2759 174.236 72.2813 174.891 72.4064 175.508C72.6566 175.508 72.9123 175.475 73.1625 175.416C74.3864 175.124 75.5233 174.166 75.7517 173.246C75.8714 172.597 75.7082 172.013 75.3166 171.699C75.1208 171.542 74.8923 171.466 74.6366 171.466H74.6312Z" fill="black"/>
<path d="M78.6451 24.2608C78.4928 24.2608 78.3731 24.1418 78.3731 23.9903C78.3623 21.68 79.2598 19.3697 80.7122 17.9575C81.7402 16.9566 83.0185 16.4263 84.4219 16.4155C85.5207 14.6949 87.8217 13.6399 89.8398 13.9699C91.0256 14.1647 92.0591 14.8086 93.06 15.4308C94.9149 16.5832 96.5141 17.5788 98.5703 15.4145C98.6736 15.3063 98.8477 15.3009 98.9565 15.4037C99.0653 15.5065 99.0707 15.6797 98.9673 15.7879C96.6066 18.2713 94.6592 17.0594 92.7717 15.8907C91.8143 15.2955 90.8243 14.6841 89.7473 14.5056C88.0665 14.2296 86.1028 15.0737 85.0638 16.4426C87.2342 16.659 88.3439 18.0224 88.6594 19.2831C88.9531 20.4572 88.605 21.6259 87.8271 22.0641C87.3811 22.313 86.4237 22.5294 85.0366 21.1443C83.8018 19.9107 83.47 18.3958 84.1173 16.9674C82.9641 17.0431 81.9524 17.5084 81.0875 18.3471C79.7385 19.6618 78.9008 21.8261 78.9117 23.9903C78.9117 24.1418 78.792 24.2608 78.6397 24.2608H78.6451ZM84.732 16.962C84.732 16.962 84.7102 16.9998 84.7048 17.0161C84.0412 18.3038 84.2968 19.6294 85.4283 20.7656C86.2551 21.5934 87.0329 21.891 87.566 21.5934C88.1208 21.2796 88.3656 20.3436 88.1372 19.4184C88.0012 18.8665 87.3484 17.081 84.732 16.962Z" fill="black"/>
<path d="M302.233 100.101C300.329 100.101 298.844 98.932 298.458 97.1249C298.11 95.4909 298.643 94.3926 299.16 93.7649C299.894 92.8614 301.085 92.3203 302.331 92.3203C304.077 92.3203 305.54 93.3159 306.253 94.9823C306.568 95.7506 306.52 96.6758 306.117 97.5848C305.655 98.6236 304.784 99.4785 303.849 99.8194C303.321 100.009 302.777 100.106 302.239 100.106L302.233 100.101ZM302.331 92.856C301.243 92.856 300.215 93.3213 299.579 94.1004C298.953 94.8741 298.746 95.8805 298.991 97.0113C299.323 98.5587 300.596 99.5596 302.233 99.5596C302.706 99.5596 303.19 99.4731 303.658 99.3053C304.463 99.0132 305.214 98.2719 305.617 97.363C305.959 96.5892 306.008 95.8155 305.747 95.1879C305.127 93.7325 303.849 92.8614 302.331 92.8614V92.856Z" fill="#F2AC30"/>
<path d="M29.9831 174.047C28.0793 174.047 26.5943 172.878 26.2081 171.071C25.8599 169.432 26.393 168.339 26.9098 167.711C27.6441 166.808 28.8354 166.267 30.081 166.267C31.8271 166.267 33.2904 167.262 33.9975 168.929C34.313 169.697 34.2641 170.622 33.8615 171.531C33.3992 172.57 32.5288 173.425 31.5932 173.766C31.0656 173.955 30.5216 174.052 29.9831 174.052V174.047ZM30.081 166.802C28.9931 166.802 27.965 167.268 27.3286 168.047C26.7031 168.82 26.4964 169.827 26.7411 170.952C27.073 172.5 28.3458 173.501 29.9831 173.501C30.4618 173.501 30.9405 173.414 31.4083 173.246C32.2134 172.954 32.964 172.213 33.3665 171.304C33.7092 170.53 33.7582 169.756 33.4971 169.129C32.877 167.673 31.5987 166.802 30.081 166.802Z" fill="#70BADB"/>
<path d="M296.266 136.671C295.249 136.671 294.302 136.173 293.736 135.345L288.286 127.359C287.829 126.688 287.666 125.882 287.818 125.087C287.97 124.286 288.427 123.599 289.096 123.144L297.125 117.718C297.631 117.377 298.219 117.198 298.833 117.198C299.85 117.198 300.797 117.696 301.368 118.524L306.819 126.504C307.765 127.89 307.401 129.783 306.008 130.719L297.985 136.141C297.479 136.482 296.886 136.66 296.277 136.66L296.266 136.671ZM298.828 117.739C298.327 117.739 297.843 117.885 297.424 118.167L289.396 123.594C288.846 123.967 288.471 124.535 288.346 125.19C288.221 125.844 288.357 126.51 288.732 127.056L294.182 135.042C294.65 135.724 295.428 136.13 296.266 136.13C296.766 136.13 297.256 135.984 297.669 135.702L305.693 130.281C306.835 129.507 307.134 127.954 306.356 126.813L300.906 118.832C300.438 118.151 299.66 117.739 298.822 117.739H298.828Z" fill="#70BADB"/>
<path d="M57.0723 206.949C55.9572 206.949 55.1412 206.067 54.94 204.649L53.3625 193.563C53.2319 192.632 53.406 191.859 53.8629 191.334C54.4776 190.631 55.5438 190.479 56.7133 190.95L67.1518 195.132C68.1799 195.543 68.8109 196.214 68.9251 197.02C69.0393 197.827 68.6205 198.644 67.7501 199.325L58.8891 206.229C58.2853 206.7 57.6597 206.949 57.0723 206.949ZM55.4132 191.215C54.9345 191.215 54.5429 191.377 54.2709 191.686C53.9228 192.086 53.7868 192.724 53.8956 193.487L55.473 204.574C55.6362 205.721 56.2346 206.408 57.0668 206.408C57.5292 206.408 58.0405 206.197 58.5464 205.802L67.4075 198.898C68.12 198.341 68.4682 197.702 68.3811 197.096C68.2941 196.49 67.7828 195.971 66.9451 195.63L56.5066 191.447C56.1149 191.291 55.745 191.209 55.4078 191.209L55.4132 191.215Z" fill="#F2AC30"/>
<path d="M141.646 21.7558C141.157 21.7558 140.635 21.6043 140.091 21.3121L130.229 15.9178C129.255 15.3876 128.711 14.6463 128.695 13.8293C128.678 13.0123 129.19 12.2494 130.142 11.6813L139.77 5.88119C140.335 5.54033 140.885 5.36719 141.402 5.36719C142.647 5.36719 143.469 6.36814 143.501 7.92098L143.735 19.11C143.751 19.9974 143.518 20.7116 143.05 21.1877C142.685 21.5556 142.201 21.7558 141.646 21.7558ZM141.402 5.91365C140.988 5.91365 140.52 6.06515 140.053 6.3465L130.425 12.1466C129.647 12.6119 129.228 13.2071 129.244 13.8185C129.255 14.4299 129.701 15.0088 130.495 15.4417L140.357 20.836C141.287 21.3446 142.152 21.3338 142.669 20.8089C143.028 20.441 143.213 19.8621 143.197 19.1208L142.963 7.9318C142.936 6.68196 142.343 5.90824 141.407 5.90824L141.402 5.91365Z" fill="#F2C87E"/>
<path d="M180.36 221H180.349C157.851 221 138.323 219.317 125.371 216.266C110.63 212.792 100.811 206.77 96.1877 198.368C92.2821 191.269 92.1026 182.547 95.6546 172.446C95.7906 172.067 95.9266 171.672 96.068 171.261C98.8422 163.264 104.004 148.38 128.575 118.719C146.438 97.1577 169.361 85.2815 193.126 85.2815C201.895 85.2815 210.609 86.8884 219.029 90.0536C240.026 97.953 257.58 110.646 269.802 126.77C280.089 140.339 286.496 156.203 287.851 171.439C289.314 187.904 284.609 201.468 275.563 206.835C259.081 216.618 215.874 220.995 180.365 220.995L180.36 221ZM193.121 85.828C169.524 85.828 146.748 97.6338 128.988 119.07C104.483 148.65 99.3427 163.475 96.5794 171.439C96.4379 171.851 96.2965 172.251 96.1659 172.63C92.6683 182.58 92.8315 191.15 96.6609 198.113C101.208 206.375 110.907 212.305 125.496 215.741C138.41 218.782 157.889 220.459 180.349 220.459H180.36C215.798 220.459 258.891 216.104 275.28 206.375C284.141 201.116 288.748 187.747 287.307 171.493C284.962 145.16 265.625 108.168 218.834 90.5676C210.473 87.4241 201.824 85.828 193.121 85.828Z" fill="black"/>
<mask id="mask0_62_87" style="mask-type:luminance" maskUnits="userSpaceOnUse" x="0" y="33" width="141" height="126">
<path d="M2.93716 84.5183C0.195623 96.4216 -3.35097 129.518 8.84997 142.244C21.0509 154.969 30.3036 156.733 51.1698 157.123C72.036 157.512 82.4691 158.686 97.8195 157.707C113.17 156.728 137.186 156.192 139.742 121.684C144.366 59.3538 97.2973 30.5966 59.5087 33.9241C21.7145 37.2625 8.10475 62.0645 2.93716 84.5183Z" fill="white"/>
</mask>
<g mask="url(#mask0_62_87)">
<path d="M73.5091 63.5415C74.5915 65.3054 75.4782 68.4381 75.9678 71.863C76.3104 74.2599 76.9523 74.5088 79.3131 75.5855C81.6739 76.6622 82.2178 78.7182 80.9395 79.8923C79.1173 81.5641 79.1173 80.6497 78.8725 82.538C78.7093 83.7933 79.052 84.7996 77.3494 84.2586C76.6803 84.0476 75.3041 83.2306 75.1083 83.3821C74.5208 83.8366 74.7003 85.5463 76.9469 86.834C77.7628 87.3047 78.4428 87.2398 77.7193 90.9623C77.0883 94.2032 73.1446 94.7064 69.2336 93.9706C65.3225 93.2347 66.133 96.1727 64.5827 100.36C63.0325 104.548 62.8094 106.896 64.9526 108.655C67.0958 110.419 68.793 118.859 68.5699 120.915C68.3469 122.971 60.9654 127.229 54.6936 120.325C51.2993 115.629 47.459 106.593 47.459 106.593C47.459 106.593 51.4462 101.085 51.37 95.729C51.2993 90.3671 49.0093 70.1803 56.4615 64.4505C63.9137 58.7207 72.7747 62.1294 73.5145 63.5469L73.5091 63.5415Z" fill="white"/>
<path d="M62.3856 124.372C60.3838 124.372 57.3921 123.702 54.4819 120.504C51.0876 115.813 47.2364 106.788 47.1983 106.696C47.1602 106.61 47.1711 106.507 47.2255 106.431C47.2636 106.377 51.1583 100.934 51.0876 95.7289C51.0767 94.9877 51.0223 93.938 50.9625 92.7206C50.5709 85.1026 49.7549 69.2496 56.2878 64.234C59.8018 61.5341 63.4681 60.9714 65.9267 60.9714C69.9194 60.9714 73.2267 62.4215 73.7434 63.4224C74.7987 65.143 75.7125 68.2108 76.2293 71.8304C76.5448 74.0325 77.0724 74.276 79.2809 75.277L79.4169 75.3419C80.7876 75.9641 81.6689 76.9488 81.8429 78.0418C81.968 78.8209 81.7069 79.5513 81.1086 80.0978C80.4613 80.6929 80.0315 80.9689 79.7487 81.1583C79.2809 81.4667 79.27 81.4721 79.1231 82.5812C79.0905 82.8085 79.0796 83.0303 79.0687 83.2359C79.0198 84.0908 78.9382 85.0647 77.2465 84.5236C76.9636 84.4316 76.5774 84.2477 76.2021 84.0691C75.8757 83.9122 75.397 83.685 75.2066 83.6417C75.1087 83.7553 75.0598 83.9501 75.0761 84.1828C75.1196 84.8266 75.6636 85.7951 77.0615 86.5959C77.1323 86.6392 77.203 86.6716 77.2737 86.7095C78.1603 87.1694 78.6281 87.5968 77.9645 91.0109C77.5239 93.2833 75.4677 94.5332 72.1768 94.5332C71.2358 94.5332 70.224 94.4304 69.1579 94.2302C68.7771 94.1598 68.4344 94.122 68.1352 94.122C66.5305 94.122 66.2314 95.1121 65.6983 97.3467C65.4807 98.2611 65.2359 99.2999 64.8116 100.447C63.1635 104.894 63.2396 106.907 65.0999 108.444C67.3302 110.278 69.0491 118.773 68.8152 120.942C68.6683 122.327 65.8941 124.378 62.3693 124.378L62.3856 124.372ZM47.7586 106.626C48.2536 107.778 51.7948 115.862 54.9008 120.163C57.6586 123.193 60.4926 123.831 62.3802 123.831C65.6657 123.831 68.1733 121.916 68.2875 120.877C68.4997 118.892 66.7862 110.516 64.7681 108.855C62.4291 106.929 62.8044 104.348 64.3166 100.258C64.73 99.143 64.9694 98.1258 65.187 97.2222C65.6874 95.1067 66.0519 93.5809 68.1515 93.5809C68.4833 93.5809 68.8532 93.6188 69.2721 93.6999C70.3002 93.8947 71.2847 93.9921 72.1877 93.9921C74.3091 93.9921 76.9473 93.4565 77.4423 90.9081C78.0624 87.7267 77.649 87.5103 77.0343 87.191C76.9582 87.1532 76.882 87.1099 76.8059 87.0666C75.4623 86.2983 74.6192 85.2324 74.5485 84.2206C74.5158 83.7661 74.6572 83.382 74.9347 83.1656C75.1686 82.9816 75.582 83.1656 76.4523 83.5768C76.8113 83.7499 77.1812 83.9231 77.4314 84.0042C77.7197 84.0962 77.9482 84.1395 78.1168 84.1395C78.4377 84.1395 78.4976 84.0096 78.5465 83.198C78.5574 82.9816 78.5737 82.749 78.6064 82.5055C78.7696 81.2502 78.8348 81.115 79.4713 80.7038C79.7378 80.5306 80.1458 80.2655 80.7604 79.7028C81.2174 79.2808 81.4186 78.7235 81.3262 78.1283C81.1847 77.2356 80.3906 76.3753 79.2102 75.8397L79.0742 75.7747C76.8276 74.7521 76.0715 74.4059 75.7125 71.9116C75.2012 68.3623 74.32 65.3702 73.2919 63.6929C72.9492 63.0329 70.0445 61.5179 65.9485 61.5179C63.5769 61.5179 60.0303 62.0644 56.6414 64.6668C50.337 69.5093 51.142 85.1729 51.5282 92.699C51.5935 93.9218 51.6424 94.9768 51.6533 95.7235C51.724 100.728 48.3896 105.755 47.7804 106.626H47.7586Z" fill="black"/>
<path d="M51.1689 157.128C52.5452 157.718 65.5348 158.4 65.5348 158.4C65.5348 158.4 71.2409 140.29 68.8802 119.535C64.1586 123.647 58.8387 122.668 53.5297 118.361C56.8751 128.544 55.303 149.488 51.1689 157.128Z" fill="black"/>
<path d="M71.1547 76.7813C71.443 77.6957 72.1012 78.3071 72.6234 78.1448C73.1456 77.9825 73.3415 77.106 73.0532 76.1916C72.7649 75.2772 72.1067 74.6658 71.5845 74.8281C71.0623 74.9904 70.8664 75.8669 71.1547 76.7813Z" fill="black"/>
<path d="M72.0413 75.2716C72.0413 75.2716 71.9924 75.2716 71.9652 75.2608C71.8183 75.2175 71.7367 75.066 71.7802 74.9253L72.2752 73.2589C72.3188 73.1182 72.4711 73.0316 72.6125 73.0749C72.7594 73.1182 72.841 73.2697 72.7974 73.4104L72.3024 75.0768C72.2698 75.1959 72.161 75.2716 72.0413 75.2716Z" fill="black"/>
<path d="M58.9425 130.503C57.4249 119.357 52.4151 111.982 47.9818 105.149C47.3019 104.099 46.6709 104.251 46.3826 104.31C44.2612 104.727 41.9004 105.717 42.5042 107.01C42.6347 107.28 42.8305 107.562 43.0753 107.876C42.156 108.06 41.0572 108.287 39.7463 108.574C34.8235 109.65 31.7773 111.587 28.7312 114.623C25.6796 117.658 10.0789 136.471 5.74902 141.27C11.4551 152.231 21.2518 153.849 21.2518 153.849C21.2518 153.849 30.2053 144.895 35.8135 138.04C35.6177 139.408 34.9269 152.134 32.9577 157.128C36.4336 159.135 46.0997 159.038 51.474 158.811C52.3552 159.617 55.793 158.892 55.793 158.892C55.793 158.892 60.5146 142.054 58.9425 130.503Z" fill="#006D2C"/>
<path d="M42.3569 66.5769C39.7731 67.5291 36.8956 69.8827 35.3453 79.941C34.5946 84.8051 32.7833 90.0263 33.1205 94.9878C33.4414 99.63 37.483 100.896 41.6062 101.719C45.2344 102.444 59.3447 105.787 60.2367 99.7437C61.2757 92.6937 50.1028 89.1552 51.7075 82.6084C52.0339 81.2774 53.3775 79.6272 54.7591 79.3188C56.5215 78.9238 57.0492 80.4279 58.4199 81.3477C60.0899 82.4677 61.0908 81.813 62.0971 80.1304C63.049 78.5397 62.69 75.9913 62.5377 74.2058C62.3419 71.8684 62.059 71.019 64.1043 70.3535C66.8621 69.4499 69.2284 67.5887 66.5684 64.4505C70.1096 68.6329 71.8829 67.9728 74.7604 66.1386C77.6379 64.3044 77.7848 62.6164 76.6806 59.4566C75.5709 56.3022 72.1766 51.4544 66.1985 52.1902C60.2204 52.926 60.8079 54.5384 53.6494 56.01C46.491 57.4763 41.9109 59.6081 42.3569 66.5823V66.5769Z" fill="black"/>
<path d="M69.0819 72.0578C69.0493 72.0578 69.0221 72.0578 68.9894 72.0416C68.848 71.9929 68.7718 71.836 68.8262 71.6953C69.0166 71.1542 70.11 68.4436 72.6448 67.9241C72.7917 67.8971 72.9385 67.9891 72.9657 68.1352C72.9984 68.2812 72.9005 68.4219 72.7536 68.4544C70.5071 68.9143 69.5171 71.3869 69.3376 71.8793C69.2995 71.9875 69.1907 72.0578 69.0819 72.0578Z" fill="black"/>
<path d="M51.2668 158.573C51.2668 158.573 51.256 158.573 51.2505 158.573C51.0982 158.562 50.984 158.437 50.9949 158.286C51.0112 158.053 51.0601 157.409 51.1308 156.479C51.5551 151.036 52.6866 136.579 52.2731 133.278C51.838 129.821 52.779 128.955 54.2042 127.646C54.3837 127.484 54.5686 127.31 54.7645 127.121C54.0628 126.677 52.2188 125.514 50.8262 124.665C49.3684 123.777 49.0475 122.576 48.1935 119.362C47.9378 118.405 47.6495 117.317 47.2633 115.992C46.0938 111.955 44.4293 109.943 43.3251 108.612C43.0531 108.287 42.8192 108.006 42.6288 107.735C42.5418 107.616 42.569 107.443 42.6941 107.356C42.8192 107.27 42.9878 107.297 43.0748 107.421C43.2598 107.676 43.4883 107.951 43.7493 108.271C44.8808 109.634 46.5888 111.701 47.7909 115.845C48.1772 117.176 48.4818 118.313 48.7211 119.227C49.537 122.289 49.8417 123.431 51.1145 124.205C52.8661 125.271 55.3247 126.834 55.3519 126.851C55.4227 126.894 55.4662 126.97 55.4771 127.051C55.4879 127.132 55.4553 127.213 55.4009 127.273C55.1126 127.559 54.8406 127.814 54.585 128.046C53.1924 129.329 52.42 130.032 52.8225 133.213C53.2468 136.568 52.11 151.068 51.6802 156.522C51.6095 157.453 51.5551 158.091 51.5442 158.324C51.5334 158.465 51.4137 158.578 51.2723 158.578L51.2668 158.573Z" fill="white"/>
<path d="M89.2569 123.161L87.1899 129.231C87.1899 129.231 82.2671 120.326 79.1176 116.408C76.1748 112.751 71.9428 110.457 68.592 109.212C66.3292 105.49 63.1361 104.949 63.1361 104.949C63.1361 104.949 62.8805 105.831 63.3483 106.945C63.8161 108.06 68.8803 116.792 67.6999 130.698C66.5196 144.597 62.4834 158.4 62.4834 158.4H65.535C65.535 158.4 65.5568 158.324 65.6003 158.183C67.8958 158.475 72.5683 158.946 72.7152 157.913C72.911 156.544 75.571 145.577 77.143 142.152C81.8646 150.863 86.2489 152.643 92.5914 149.992C97.1226 148.098 100.86 132.948 101.355 126.981C101.452 126.883 89.2515 123.161 89.2515 123.161H89.2569Z" fill="#006D2C"/>
<path d="M65.5355 158.67C65.5355 158.67 65.4811 158.67 65.4539 158.659C65.3125 158.616 65.2309 158.465 65.2744 158.324C65.3343 158.124 71.383 138.418 72.2588 134.653C73.1563 130.779 73.1291 130.313 72.5417 129.177C71.8073 127.749 71.1709 126.494 71.1709 126.494C71.1056 126.369 71.1491 126.218 71.2688 126.142C71.9324 125.736 73.597 124.432 73.3141 123.328C72.6885 120.877 70.2897 112.751 68.5436 109.667L68.4892 109.569C68.413 109.439 68.462 109.277 68.5926 109.201C68.7231 109.126 68.8863 109.174 68.9624 109.304L69.0223 109.407C70.801 112.54 73.2162 120.731 73.8472 123.204C74.2171 124.654 72.4057 126.039 71.7693 126.472C71.9814 126.889 72.4764 127.868 73.0258 128.939C73.7112 130.27 73.684 130.925 72.7865 134.783C71.9107 138.565 65.8564 158.292 65.7966 158.492C65.7585 158.605 65.6552 158.681 65.5355 158.681V158.67Z" fill="white"/>
<path d="M77.1484 142.417C77.1103 142.417 77.0722 142.411 77.0342 142.39C76.8982 142.325 76.8383 142.168 76.8982 142.033C81.3205 132.402 79.6724 128.934 78.6878 126.861C78.5192 126.499 78.3669 126.191 78.2635 125.882C78.2145 125.741 78.2907 125.59 78.4376 125.541C78.579 125.493 78.7367 125.574 78.7803 125.714C78.8727 125.99 79.0142 126.288 79.1773 126.634C80.2054 128.793 81.9189 132.402 77.3877 142.26C77.3442 142.357 77.2409 142.417 77.143 142.417H77.1484Z" fill="black"/>
<path d="M88.7896 133.17C88.6863 133.17 88.5884 133.116 88.5449 133.019C88.534 132.997 87.4461 130.735 86.4724 128.403C86.4125 128.268 86.4778 128.106 86.6192 128.052C86.7552 127.998 86.9184 128.057 86.9728 128.198C87.9411 130.514 89.0235 132.764 89.0344 132.786C89.0997 132.921 89.0399 133.084 88.9039 133.149C88.8658 133.165 88.8277 133.176 88.7842 133.176L88.7896 133.17Z" fill="black"/>
<path d="M90.041 120.834C91.1507 117.382 92.7717 108.06 93.1416 104.608C93.5115 101.156 91.4444 96.3132 93.8813 93.2292C96.3183 90.1452 97.8686 88.6032 98.5322 87.0611C99.1958 85.5191 100.746 85.2973 101.557 86.8393C102.367 88.3813 101.116 91.0974 99.2665 93.0074C103.77 90.1452 104.14 91.1732 105.538 88.9711C106.942 86.769 109.672 81.1149 111.446 81.261C112.92 79.2808 114.617 80.3791 114.916 83.0952C115.803 83.0195 116.613 85.0755 116.026 88.1595C118.164 89.4093 117.946 93.9596 114.916 97.4116C111.892 100.863 106.131 102.92 104.88 105.706C103.624 108.498 101.557 124.87 101.557 124.87L90.041 120.834Z" fill="white"/>
<path d="M101.556 125.141C101.524 125.141 101.497 125.141 101.464 125.125L89.9485 121.088C89.8125 121.04 89.7363 120.888 89.7798 120.753C90.8949 117.279 92.5159 107.897 92.8695 104.581C92.9946 103.417 92.8369 102.092 92.6682 100.69C92.3419 97.9743 92.0046 95.1662 93.6637 93.0615C94.4143 92.1147 95.078 91.3139 95.66 90.6105C96.9709 89.0306 97.8358 87.9918 98.2764 86.9584C98.6626 86.0602 99.348 85.5246 100.104 85.5246C100.773 85.5246 101.393 85.9628 101.79 86.7203C102.514 88.1 101.774 90.1831 100.507 91.9415C101.671 91.2814 102.476 90.9243 103.069 90.6646C104.146 90.1939 104.548 90.0154 105.304 88.825C105.604 88.3543 105.973 87.7105 106.365 87.0233C108.231 83.7716 109.89 81.0717 111.304 80.9905C111.962 80.1573 112.588 79.9788 113.001 79.9788C114.073 79.9788 114.905 81.0987 115.15 82.8464C115.324 82.8896 115.536 82.9979 115.743 83.2467C116.287 83.9014 116.755 85.5408 116.314 88.0297C117.005 88.5004 117.456 89.3012 117.625 90.3508C117.989 92.5854 117.005 95.4259 115.106 97.5847C113.676 99.2133 111.707 100.501 109.797 101.745C107.714 103.104 105.75 104.391 105.109 105.814C103.885 108.536 101.828 124.735 101.807 124.897C101.796 124.978 101.752 125.049 101.682 125.092C101.638 125.119 101.589 125.13 101.54 125.13L101.556 125.141ZM90.3782 120.661L101.328 124.502C101.638 122.095 103.455 108.2 104.63 105.598C105.337 104.029 107.366 102.703 109.515 101.296C111.391 100.068 113.333 98.8021 114.709 97.2331C116.504 95.1879 117.44 92.5204 117.097 90.4374C116.94 89.4689 116.521 88.7601 115.884 88.3922C115.786 88.3327 115.732 88.2191 115.754 88.1108C116.183 85.86 115.852 84.2206 115.335 83.593C115.248 83.4902 115.112 83.3658 114.96 83.3658C114.818 83.3658 114.66 83.263 114.644 83.1277C114.475 81.5695 113.817 80.5198 113.012 80.5198C112.572 80.5198 112.104 80.8336 111.663 81.4234C111.609 81.4991 111.516 81.5424 111.424 81.5316C110.151 81.5316 108.16 84.9998 106.849 87.2938C106.452 87.9864 106.077 88.6357 105.772 89.1172C104.924 90.4482 104.412 90.67 103.292 91.1624C102.459 91.5249 101.323 92.0227 99.4133 93.2401C99.2991 93.3104 99.1413 93.2887 99.0543 93.1859C98.9673 93.0777 98.9727 92.9262 99.0706 92.8289C100.741 91.0975 102.095 88.4625 101.312 86.9746C101.002 86.3903 100.577 86.0656 100.104 86.0656C99.5711 86.0656 99.0761 86.4823 98.7714 87.1748C98.2982 88.2786 97.4115 89.3444 96.0734 90.9622C95.4914 91.6656 94.8332 92.4609 94.088 93.4024C92.5649 95.3339 92.8858 98.0284 93.2013 100.636C93.3754 102.07 93.5386 103.423 93.408 104.646C93.0599 107.908 91.4933 116.987 90.3727 120.672L90.3782 120.661Z" fill="black"/>
<path d="M101.926 98.0502C101.801 98.0502 101.692 97.969 101.66 97.8446C101.284 96.2864 99.8865 93.7434 99.1141 93.2348C98.989 93.1536 98.9563 92.9859 99.0379 92.8615C99.1195 92.737 99.2881 92.7046 99.4132 92.7857C100.371 93.4188 101.807 96.1457 102.182 97.7202C102.215 97.8662 102.128 98.0123 101.981 98.0448C101.959 98.0448 101.937 98.0502 101.915 98.0502H101.926Z" fill="black"/>
<path d="M110.929 96.5839C110.831 96.5839 110.733 96.5298 110.684 96.4324C110.407 95.886 107.143 91.9904 105.897 91.5738C105.756 91.5251 105.68 91.3736 105.723 91.2329C105.772 91.0922 105.924 91.0165 106.066 91.0598C107.496 91.5359 110.869 95.5938 111.168 96.189C111.233 96.3242 111.179 96.4866 111.048 96.5515C111.01 96.5731 110.967 96.5785 110.929 96.5785V96.5839Z" fill="black"/>
<path d="M110.265 96.9519C110.161 96.9519 110.063 96.8924 110.02 96.795C109.954 96.6597 110.02 96.4974 110.15 96.4379C111.004 96.0429 112.886 93.6461 113.392 90.9083C113.653 89.5016 114.089 88.6305 114.72 88.2409C115.307 87.8784 115.954 88.0028 116.389 88.1273C116.536 88.1706 116.618 88.3167 116.574 88.4627C116.531 88.6088 116.384 88.69 116.237 88.6467C115.693 88.4898 115.312 88.506 115.002 88.7008C114.513 89.0038 114.148 89.7775 113.925 91.0057C113.403 93.8246 111.445 96.4379 110.379 96.9303C110.341 96.9465 110.303 96.9573 110.265 96.9573V96.9519Z" fill="black"/>
<path d="M109.307 94.528C109.231 94.528 109.155 94.4955 109.101 94.436C109.003 94.3224 109.014 94.1547 109.128 94.0519C110.738 92.6613 111.396 90.6324 111.995 87.597C112.544 84.8052 113.61 83.2524 115.166 82.9764C115.313 82.9494 115.454 83.0468 115.481 83.1983C115.509 83.3443 115.411 83.485 115.258 83.5121C113.947 83.7447 113.028 85.1515 112.528 87.7053C111.908 90.8542 111.211 92.9697 109.487 94.4631C109.438 94.5063 109.373 94.528 109.307 94.528Z" fill="black"/>
<path d="M107.611 92.6179C107.556 92.6179 107.502 92.6017 107.453 92.5693C107.328 92.4827 107.301 92.315 107.388 92.1905C108.187 91.0597 109.194 87.8242 110.004 85.2217C110.608 83.2793 111.13 81.5966 111.505 80.9095C111.576 80.7796 111.745 80.7309 111.875 80.8013C112.006 80.8716 112.055 81.0393 111.984 81.1692C111.63 81.8076 111.092 83.5444 110.521 85.384C109.661 88.1596 108.682 91.3032 107.834 92.5043C107.779 92.5801 107.698 92.6179 107.611 92.6179Z" fill="black"/>
<path d="M35.2261 138.895C35.1662 138.895 35.101 138.873 35.052 138.83C34.9378 138.732 34.9215 138.565 35.0194 138.446C36.6784 136.503 40.0129 132.992 40.051 132.954C40.1543 132.846 40.3284 132.84 40.4372 132.943C40.546 133.046 40.5514 133.219 40.4481 133.327C40.4154 133.36 37.0864 136.866 35.4382 138.797C35.3838 138.862 35.3077 138.895 35.2315 138.895H35.2261Z" fill="black"/>
<path d="M89.562 119.957C88.4741 121.986 87.8431 125.276 88.0661 125.574C88.2891 125.866 96.3614 126.52 101.866 130.443C103.123 131.027 103.52 125.249 103.324 124.578C102.807 122.814 90.2202 119.227 89.5565 119.963L89.562 119.957Z" fill="black"/>
<path d="M58.845 130.281C58.7798 130.281 58.7199 130.259 58.6655 130.216C58.6383 130.194 56.1633 128.052 55.0047 127.289C54.8796 127.208 54.847 127.04 54.9285 126.915C55.0101 126.791 55.1788 126.759 55.3039 126.84C56.4843 127.624 58.9157 129.718 59.0191 129.81C59.1333 129.907 59.1442 130.081 59.0463 130.194C58.9919 130.254 58.9157 130.286 58.8396 130.286L58.845 130.281Z" fill="white"/>
<path d="M67.8091 129.182C67.7384 129.182 67.6677 129.155 67.6187 129.101C67.5099 128.993 67.5099 128.825 67.6187 128.717C68.6577 127.684 69.9849 126.888 70.8661 126.364C71.0837 126.234 71.2741 126.12 71.4155 126.028C71.5406 125.947 71.7093 125.979 71.7908 126.109C71.8724 126.234 71.8344 126.401 71.7093 126.483C71.5624 126.58 71.372 126.694 71.1435 126.829C70.2895 127.337 68.9949 128.111 67.9995 129.101C67.9451 129.155 67.8744 129.182 67.8091 129.182Z" fill="white"/>
<path d="M59.9058 90.7297C59.6175 88.0623 57.5015 85.3246 54.9939 86.9207C52.8126 88.3058 52.1436 92.0445 54.1453 93.8137C54.9939 94.5658 56.3756 94.9175 57.5233 94.6957C59.4543 94.3169 60.1017 92.5423 59.9058 90.7297Z" fill="#F2AC30"/>
</g>
<path d="M85.6892 158.362C80.3802 158.362 75.1854 158.167 69.1692 157.94C64.0017 157.745 58.1432 157.523 51.1643 157.393C30.7877 157.009 21.2358 155.554 8.65406 142.428C-3.1226 130.157 -0.46265 98.0719 2.67054 84.4589C9.80725 53.4456 28.9219 36.3536 59.4814 33.6591C61.4396 33.486 63.4468 33.3994 65.4431 33.3994C85.6566 33.3994 105.957 42.2132 119.746 56.9841C130.337 68.3246 142.457 88.7603 140.009 121.711C137.501 155.527 114.383 156.955 99.0869 157.907L97.8303 157.989C93.7561 158.248 89.894 158.367 85.6838 158.367L85.6892 158.362ZM65.4486 33.9459C63.4631 33.9459 61.4723 34.0325 59.5358 34.2056C29.2374 36.873 10.2859 53.8243 3.20362 84.5834C0.0921861 98.1044 -2.5732 129.946 9.05115 142.065C21.4914 155.04 30.9617 156.484 51.1806 156.863C58.1596 156.993 64.0234 157.215 69.1964 157.41C75.2072 157.637 80.4019 157.832 85.7001 157.832C89.8994 157.832 93.7452 157.713 97.8086 157.453L99.0651 157.372C114.176 156.436 137.006 155.024 139.481 121.678C141.401 95.7562 134.444 73.5133 119.36 57.3628C105.669 42.7056 85.5206 33.9513 65.454 33.9513L65.4486 33.9459Z" fill="black"/>
<path d="M93.2504 46.9476C96.9384 45.99 108.721 43.7608 114.889 42.4839C121.063 41.207 127.792 40.3305 128.673 40.7309C129.554 41.1313 119.774 53.4079 115.21 58.2665C113.687 59.3054 111.604 57.39 111.604 57.39C107.274 61.8538 102.389 63.5256 101.584 63.6879C100.784 63.8448 100.382 58.905 100.3 55.9562C100.218 53.0075 100.746 52.434 98.2983 51.2545C90.6829 47.5861 93.2504 46.9476 93.2504 46.9476Z" fill="#70BADB"/>
<path d="M101.584 63.9639C101.464 63.9639 101.355 63.8827 101.323 63.7637C101.285 63.6176 101.366 63.4715 101.513 63.4336C101.916 63.2876 103.379 60.934 104.445 59.2134C105.593 57.363 106.675 55.6154 107.323 54.9769C108.541 53.765 119.752 46.1523 124.512 42.9492L101.209 52.1472C101.067 52.2013 100.909 52.1364 100.855 51.9957C100.801 51.855 100.866 51.6981 101.007 51.644L126.655 41.5208C126.791 41.4667 126.943 41.5317 127.003 41.6615C127.063 41.7914 127.003 41.9483 126.878 42.0132C126.084 42.4298 108.987 54.0896 107.714 55.3557C107.116 55.9508 105.995 57.7525 104.913 59.4947C103.058 62.4868 102.188 63.8124 101.66 63.9531C101.638 63.9585 101.611 63.9639 101.589 63.9639H101.584Z" fill="black"/>
<path d="M112.082 57.9852C112.028 57.9852 111.968 57.9689 111.925 57.9311L111.805 57.8445C110.162 56.6488 108.117 55.1609 107.638 55.4043C107.502 55.4693 107.339 55.4152 107.274 55.2853C107.208 55.15 107.263 54.9877 107.393 54.9228C108.133 54.5549 109.602 55.5775 112.126 57.4117L112.24 57.4982C112.36 57.5848 112.387 57.7579 112.3 57.877C112.246 57.9473 112.164 57.9906 112.082 57.9906V57.9852Z" fill="black"/>
<path d="M132.997 101.611C129.913 101.892 128.167 103.796 128.472 109.212C128.782 114.634 127.547 120.228 129.706 122.322C131.866 124.422 137.316 124.422 142.353 124.508C147.39 124.595 153.918 124.449 155.849 124.422C160.396 124.357 162.017 123.572 162.632 120.028C162.997 117.945 162.121 106.188 162.094 104.949C162.017 101.87 160.01 101.475 155.615 101.275C151.399 101.086 135.875 101.34 132.997 101.605V101.611Z" fill="#F2AC30"/>
<path d="M145.378 115.959C145.378 115.959 145.339 115.959 145.318 115.959C143.147 115.927 141.385 114.114 140.09 112.534C137.702 109.618 132.323 103.64 131.012 102.525C130.897 102.428 130.887 102.26 130.979 102.146C131.077 102.033 131.246 102.022 131.36 102.114C132.687 103.239 138.105 109.261 140.504 112.194C141.722 113.682 143.37 115.391 145.318 115.418C146.71 115.429 148.163 114.59 149.642 112.892C153.716 108.217 159.76 102.33 159.82 102.271C159.928 102.168 160.102 102.168 160.206 102.271C160.309 102.379 160.309 102.547 160.206 102.655C160.146 102.714 154.119 108.585 150.061 113.243C148.467 115.072 146.939 115.959 145.378 115.959Z" fill="black"/>
<path d="M129.712 122.598C129.614 122.598 129.516 122.544 129.467 122.447C129.402 122.311 129.456 122.149 129.592 122.084C130.299 121.732 133.906 118.345 136.538 115.878C138.72 113.828 139.971 112.664 140.265 112.48C140.395 112.405 140.558 112.442 140.64 112.572C140.716 112.702 140.678 112.865 140.547 112.946C140.286 113.103 138.649 114.645 136.914 116.273C133.345 119.622 130.56 122.214 129.837 122.571C129.799 122.593 129.755 122.598 129.717 122.598H129.712Z" fill="black"/>
<path d="M160.451 123.469C160.359 123.469 160.266 123.421 160.217 123.334C160.043 123.042 158.02 120.856 156.061 118.746C153.478 115.959 150.801 113.076 150.393 112.437C150.312 112.313 150.35 112.145 150.48 112.064C150.611 111.983 150.774 112.021 150.856 112.15C151.237 112.746 154.011 115.738 156.459 118.378C158.955 121.067 160.495 122.734 160.685 123.058C160.761 123.188 160.718 123.35 160.587 123.426C160.544 123.453 160.495 123.464 160.451 123.464V123.469Z" fill="black"/>
<mask id="mask1_62_87" style="mask-type:luminance" maskUnits="userSpaceOnUse" x="159" y="0" width="140" height="122">
<path d="M206.698 3.86874C187.697 7.85092 157.948 16.0804 159.319 52.1364C160.69 88.1978 174.626 106.783 197.897 113.99C221.167 121.202 278.272 128.609 290.396 104.635C302.521 80.6609 298.523 46.4337 292.268 32.2039C286.012 17.9741 270.841 -9.58193 206.698 3.86333V3.86874Z" fill="white"/>
</mask>
<g mask="url(#mask1_62_87)">
<path d="M258.101 33.2807C256.606 26.9666 242.827 18.8507 236.931 21.1069C231.034 23.3631 238.563 25.9764 238.563 25.9764C229.495 24.3533 225.143 25.4354 224.24 27.6916C223.337 29.9478 227.139 30.8459 227.139 30.8459C220.976 31.0245 214.084 35.8074 215.08 39.1403C216.075 42.4787 220.155 41.2613 220.155 41.2613C214.351 45.9035 215.297 50.627 221.352 50.0697C214.987 54.831 214.079 63.5799 216.527 66.7342C218.975 69.8886 221.352 65.111 221.352 65.111C218.795 72.1448 222.603 76.7438 226.226 70.8787C225.41 78.9026 232.574 79.9847 234.836 76.0187C237.012 83.6855 242.18 82.5114 243.088 78.724C245.901 82.2409 251.427 81.0668 252.515 77.2794C255.599 80.8883 258.319 77.5932 258.047 74.8014C261.218 78.4968 266.206 78.9513 267.202 72.2314C271.733 75.5697 274.001 75.4777 272.777 67.4971C280.349 70.2457 284.336 61.8593 275.633 54.647C281.437 56.1782 280.801 50.2266 272.505 46.6664C278.353 46.5312 279.076 42.5652 276.177 39.6327C273.278 36.7002 268.382 31.0191 258.091 33.2753L258.101 33.2807Z" fill="black"/>
<path d="M229.288 48.6845C228.402 53.9706 229.979 55.5397 231.551 59.2567C233.129 62.9792 230.926 66.8964 235.119 71.5387C239.031 75.8726 244.938 75.602 244.938 75.602L246.613 82.3544L261.083 78.632L257.933 65.0731C257.933 65.0731 260.887 63.4607 260 57.6822C259.113 51.9092 259.016 37.6145 244.943 39.7679C230.871 41.9213 230.577 44.4642 229.294 48.6736L229.288 48.6845Z" fill="white"/>
<path d="M246.607 82.6304C246.559 82.6304 246.51 82.6196 246.466 82.5925C246.401 82.5547 246.357 82.4952 246.341 82.4248L244.72 75.878C243.692 75.878 238.475 75.667 234.912 71.7227C232.22 68.7361 232.095 65.9767 231.991 63.5419C231.926 62.0811 231.866 60.7068 231.301 59.365C230.996 58.6454 230.691 58.0123 230.403 57.401C229.223 54.9337 228.292 52.9805 229.021 48.6412L229.157 48.1868C230.387 44.091 231.126 41.6183 244.899 39.5082C245.862 39.3621 246.792 39.2864 247.663 39.2864C258.025 39.2864 259.265 49.5286 260.005 55.6479C260.092 56.3892 260.174 57.0655 260.266 57.6498C261.055 62.7845 258.895 64.7377 258.237 65.203L261.343 78.5779C261.376 78.7186 261.289 78.8647 261.147 78.9025L246.678 82.625C246.678 82.625 246.635 82.6358 246.613 82.6358L246.607 82.6304ZM244.932 75.337C245.057 75.337 245.166 75.4235 245.199 75.5426L246.803 82.0299L260.75 78.4426L257.661 65.1435C257.633 65.0244 257.688 64.9054 257.797 64.8459C257.824 64.8297 260.571 63.2281 259.728 57.731C259.635 57.1358 259.554 56.4541 259.461 55.7129C258.743 49.7721 257.536 39.8328 247.657 39.8328C246.814 39.8328 245.911 39.9032 244.976 40.0493C231.545 42.1053 230.844 44.4535 229.674 48.3491L229.549 48.7711C228.858 52.9048 229.712 54.6957 230.893 57.1737C231.186 57.7905 231.491 58.429 231.801 59.1594C232.405 60.5932 232.47 62.0162 232.535 63.5257C232.644 65.9875 232.753 68.5305 235.32 71.371C238.736 75.153 243.757 75.3478 244.731 75.3478C244.992 75.3478 244.927 75.3478 244.938 75.3478L244.932 75.337Z" fill="black"/>
<path d="M263.334 52.7586C262.845 49.8099 262.241 47.018 260.707 44.3885C259.76 42.7653 258.906 41.0989 257.307 40.0222C252.82 36.9868 246.771 37.1708 241.663 38.2259C237.605 39.0645 233.09 40.4929 229.946 43.2739C228.902 44.1991 224.67 48.3923 227.411 49.6043C229.016 50.3131 230.784 48.8089 231.997 47.7917C232.051 47.9432 232.138 48.111 232.263 48.3003C233.079 49.5177 235.119 49.653 236.479 49.3825C240.015 48.8414 243.415 46.5419 245.998 43.9719C245.454 44.7835 244.774 45.8656 245.046 46.9477C245.59 48.1651 246.814 48.3003 247.902 48.3003C250.214 48.1651 252.39 46.2714 254.022 44.7835C252.662 47.3535 251.166 49.9235 251.03 52.8993C250.894 54.252 251.03 55.7399 251.574 56.9572C252.254 58.5804 253.75 58.5804 255.11 57.6336C254.43 59.7978 254.022 61.8268 254.974 63.991C255.539 65.2787 257.329 67.4646 259.826 67.0101C261.817 66.6476 262.187 62.0053 262.91 60.3821C264.259 57.3576 263.889 56.0537 263.34 52.7586H263.334Z" fill="black"/>
<path d="M226.563 50.5729C225.345 50.5729 224.17 50.1401 223.838 48.9119C223.648 48.1977 223.762 47.332 223.931 46.7639C224.262 45.6493 225.28 44.0748 226.199 43.2524C226.308 43.1496 226.482 43.1605 226.585 43.2741C226.683 43.3877 226.678 43.5554 226.563 43.6582C225.72 44.4103 224.757 45.909 224.453 46.9208C224.306 47.424 224.203 48.1706 224.366 48.7766C224.774 50.3024 226.944 50.0373 227.374 49.9669C228.663 49.7613 229.62 49.4692 230.382 49.0417C230.513 48.9714 230.681 49.0147 230.752 49.1445C230.823 49.2744 230.779 49.4421 230.648 49.5125C229.827 49.9669 228.815 50.2808 227.461 50.4972C227.167 50.5459 226.868 50.5675 226.563 50.5675V50.5729Z" fill="white"/>
<path d="M240.919 66.4637C240.919 66.4637 240.908 66.4637 240.902 66.4637C239.113 66.3663 237.992 65.9551 237.481 65.2031C236.844 64.2725 237.252 63.0605 237.644 61.8864C237.72 61.6592 237.796 61.4319 237.867 61.2047C238.471 59.2028 237.089 56.7896 235.55 55.3937C234.337 54.29 232.786 54.0844 231.796 54.3657C231.231 54.528 230.845 54.8418 230.73 55.2368C230.687 55.3829 230.54 55.4641 230.393 55.4262C230.246 55.3829 230.165 55.2368 230.203 55.0907C230.366 54.5118 230.888 54.0627 231.639 53.8463C232.781 53.5217 234.543 53.7489 235.909 54.9933C237.622 56.5516 239.053 59.1216 238.378 61.3562C238.308 61.5834 238.231 61.8161 238.155 62.0541C237.807 63.1038 237.443 64.1859 237.927 64.8947C238.329 65.4844 239.341 65.8307 240.924 65.9173C241.076 65.9281 241.191 66.0525 241.18 66.204C241.174 66.3501 241.049 66.4583 240.908 66.4583L240.919 66.4637Z" fill="black"/>
<path d="M240.086 54.5063C240.026 54.5063 239.966 54.4847 239.917 54.4468C239.798 54.3548 239.781 54.1817 239.874 54.068C240.826 52.8777 243.573 50.4051 248.583 53.2456C248.713 53.3214 248.757 53.4837 248.686 53.6136C248.61 53.7434 248.447 53.7867 248.316 53.7164C243.839 51.1842 241.375 53.0617 240.298 54.4035C240.244 54.4684 240.168 54.5063 240.086 54.5063Z" fill="black"/>
<path d="M246.472 58.6887C246.929 59.5328 246.907 60.4309 246.423 60.6906C245.939 60.9503 245.177 60.4742 244.721 59.6302C244.264 58.7861 244.291 57.888 244.769 57.6337C245.254 57.374 246.015 57.8501 246.472 58.6941V58.6887Z" fill="black"/>
<path d="M245.101 58.0286C245.058 58.0286 245.014 58.0178 244.971 57.9961L243.432 57.1791C243.301 57.1088 243.247 56.9465 243.317 56.8112C243.388 56.6813 243.551 56.6327 243.687 56.6976L245.227 57.5146C245.357 57.5849 245.412 57.7472 245.341 57.8825C245.292 57.9745 245.199 58.0286 245.101 58.0286Z" fill="black"/>
<path d="M236.213 59.5706C236.67 60.4146 236.648 61.3128 236.164 61.5725C235.68 61.8322 234.919 61.3561 234.462 60.5066C234.005 59.6626 234.027 58.7644 234.511 58.5101C234.995 58.2504 235.756 58.7265 236.213 59.5706Z" fill="black"/>
<path d="M234.842 58.9107C234.798 58.9107 234.755 58.8998 234.711 58.8782L233.172 58.0612C233.041 57.9909 232.987 57.8285 233.058 57.6933C233.128 57.5634 233.291 57.5147 233.427 57.5797L234.967 58.3967C235.097 58.467 235.152 58.6293 235.081 58.7646C235.032 58.8566 234.94 58.9107 234.842 58.9107Z" fill="black"/>
<path d="M242.745 71.068C241.445 71.068 240.173 69.8668 239.155 67.6918C239.112 67.6052 239.123 67.5024 239.183 67.4212C239.237 67.3401 239.335 67.2968 239.433 67.3076C239.71 67.3347 239.999 67.3617 240.281 67.3617C241.331 67.3617 242.577 66.9505 245.824 64.8512C245.911 64.7971 246.026 64.7917 246.113 64.8512C246.2 64.9053 246.254 65.0027 246.243 65.1055C245.906 68.7847 244.562 71.068 242.745 71.068ZM239.857 67.892C240.727 69.5747 241.766 70.5269 242.745 70.5269C244.149 70.5269 245.259 68.617 245.639 65.6141C242.229 67.7729 241.086 67.9731 239.857 67.8866V67.892Z" fill="black"/>
<path d="M241.984 70.857C241.984 70.857 241.935 70.857 241.914 70.8462C241.767 70.8083 241.685 70.6568 241.723 70.5162C242.202 68.7686 244.155 67.4646 245.438 67.5349C245.591 67.5458 245.705 67.6702 245.694 67.8217C245.683 67.9678 245.569 68.0868 245.406 68.076C244.312 68.0057 242.653 69.1852 242.251 70.6568C242.218 70.7759 242.109 70.857 241.99 70.857H241.984Z" fill="black"/>
<path d="M209.287 116.841C211.871 114.347 224.197 98.1208 228.995 92.3207C233.792 86.5206 239.33 86.3745 246.858 86.2987C245.003 78.9079 245.498 78.7456 245.868 78.8213C246.238 78.8971 253.271 80.4229 260.283 75.575C262.143 75.0772 262.067 82.4843 263.835 83.4366C265.608 84.3888 277.418 81.9703 283.249 87.7704C289.08 93.5706 293.138 107.297 293.138 107.297C289.967 112.361 268.41 128.296 241.321 120.953C240.804 118.676 237.11 115.153 236.006 110.673C231.432 116.62 228.184 121.024 228.184 121.024C228.184 121.024 213.644 120.072 209.287 116.841Z" fill="#F2AC30"/>
<path d="M252.505 88.5226C249.54 88.5226 247.473 87.3323 246.657 86.4828C246.554 86.3746 246.559 86.2015 246.668 86.0987C246.777 85.9959 246.951 86.0013 247.054 86.1095C248.577 87.6948 254.838 90.5462 263.286 83.085C263.4 82.9876 263.569 82.993 263.672 83.1066C263.77 83.2203 263.759 83.388 263.65 83.4908C259.282 87.3485 255.453 88.5226 252.51 88.5226H252.505Z" fill="black"/>
<path d="M250.943 88.4522C250.829 88.4522 250.72 88.3765 250.682 88.2628C250.584 87.9382 248.267 80.358 248.022 79.2867C247.99 79.1406 248.082 78.9945 248.229 78.9621C248.376 78.9296 248.523 79.0216 248.555 79.1677C248.795 80.2227 251.183 88.0248 251.21 88.1059C251.253 88.2466 251.172 88.3981 251.03 88.4414C251.003 88.4468 250.976 88.4522 250.949 88.4522H250.943Z" fill="black"/>
<path d="M254.136 88.4036C254.022 88.4036 253.913 88.3278 253.875 88.2142L251.019 79.1569C250.976 79.0163 251.052 78.8648 251.199 78.8161C251.34 78.7728 251.492 78.8485 251.541 78.9946L254.397 88.0519C254.44 88.1926 254.364 88.3441 254.217 88.3928C254.19 88.4036 254.163 88.4036 254.136 88.4036Z" fill="black"/>
<path d="M257.488 87.4242C257.373 87.4242 257.265 87.3539 257.226 87.2403L254.371 78.578C254.322 78.4373 254.403 78.2858 254.545 78.2371C254.686 78.1884 254.839 78.2696 254.887 78.4102L257.743 87.0725C257.792 87.2132 257.711 87.3647 257.569 87.4134C257.542 87.4242 257.515 87.4242 257.482 87.4242H257.488Z" fill="black"/>
<path d="M260.539 85.8607C260.419 85.8607 260.316 85.7849 260.278 85.6659L257.868 77.5392C257.825 77.3985 257.906 77.247 258.053 77.2038C258.195 77.1605 258.347 77.2416 258.39 77.3877L260.8 85.5144C260.844 85.6551 260.762 85.8066 260.615 85.8498C260.588 85.8553 260.566 85.8607 260.539 85.8607Z" fill="black"/>
<path d="M245.014 75.9267C244.987 75.9267 244.954 75.9267 244.927 75.9267C244.774 75.9267 244.66 75.7969 244.66 75.6508C244.66 75.4993 244.774 75.3857 244.938 75.3857C246.863 75.4506 252.047 73.7679 255.349 69.71C255.441 69.591 255.615 69.5747 255.73 69.6721C255.844 69.7641 255.866 69.9372 255.768 70.0509C252.395 74.1954 247.081 75.9267 245.008 75.9267H245.014Z" fill="black"/>
<path d="M237.04 113.66C236.936 113.66 236.839 113.6 236.79 113.498C234.989 109.424 234.848 105.36 234.848 104.213C234.848 104.062 234.967 103.943 235.12 103.943C235.272 103.943 235.392 104.062 235.392 104.213C235.392 105.014 235.484 109.202 237.29 113.281C237.35 113.417 237.29 113.579 237.149 113.638C237.111 113.655 237.078 113.66 237.04 113.66Z" fill="black"/>
<path d="M276.678 118.8C276.558 118.8 276.449 118.724 276.417 118.605C276.395 118.524 273.969 110.279 272.952 107.162C272.903 107.021 272.984 106.87 273.126 106.821C273.273 106.778 273.42 106.854 273.469 106.994C274.491 110.116 276.917 118.373 276.939 118.454C276.982 118.6 276.901 118.746 276.754 118.789C276.727 118.795 276.705 118.8 276.678 118.8Z" fill="black"/>
<path d="M258.842 67.4808C257.998 67.4808 257.025 67.2049 255.98 66.6584C255.85 66.5881 255.795 66.4257 255.866 66.2959C255.937 66.1606 256.1 66.1119 256.236 66.1823C257.476 66.8315 258.591 67.0696 259.451 66.8802C261.474 66.4203 262.312 62.898 262.312 61.1126C262.312 60.9989 262.388 60.8961 262.497 60.8583C262.606 60.8204 262.731 60.8583 262.802 60.9502C263.726 62.146 264.814 62.7033 266.229 62.7033C267.605 62.6113 268.937 61.0963 269.106 59.9006C269.128 59.7545 269.269 59.6463 269.416 59.6734C269.563 59.695 269.666 59.8303 269.645 59.9818C269.443 61.3993 267.909 63.1361 266.245 63.2497C264.885 63.2497 263.764 62.779 262.829 61.8159C262.644 64.0289 261.594 66.9614 259.57 67.4213C259.342 67.47 259.097 67.497 258.847 67.497L258.842 67.4808Z" fill="white"/>
</g>
<path d="M246.548 121.294H246.543C227.346 121.294 208.297 117.501 197.815 114.255C173.021 106.572 160.342 86.2555 159.047 52.1527C158.443 36.2997 163.883 24.0556 175.208 15.7612C184.581 8.89518 196.357 5.76246 206.643 3.60905C218.05 1.21758 228.543 0.00561523 237.834 0.00561523C254.588 0.00561523 268.002 3.9391 277.706 11.6979C285.686 18.0823 289.814 25.9547 292.518 32.1065C295.961 39.9356 298.251 52.4557 298.501 64.7701C298.714 75.5047 297.528 91.1574 290.641 104.765C283.733 118.427 262.85 121.3 246.548 121.3V121.294ZM237.834 0.541261C228.581 0.541261 218.121 1.74782 206.752 4.13388C182.72 9.17112 158.324 18.8182 159.586 52.131C160.869 85.9795 173.429 106.134 197.973 113.741C209.238 117.231 228.625 120.759 246.537 120.759H246.543C262.693 120.759 283.363 117.94 290.146 104.522C296.978 91.0114 298.159 75.4506 297.947 64.7809C297.702 52.5314 295.428 40.0925 292.012 32.3229C288.188 23.6336 278.038 0.546672 237.828 0.546672L237.834 0.541261Z" fill="black"/>
<path d="M183.373 28.0215H162.05C158.346 28.0215 155.512 31.1921 155.74 35.0282L156.317 44.7726C156.524 48.322 159.516 51.1084 162.986 51.0543L178.413 50.8217C179.218 53.2023 179.805 55.518 181.35 55.4044C182.454 55.2962 182.927 52.9751 183.243 50.7297C186.479 50.5295 189.145 47.7863 189.264 44.4047L189.613 34.8659C189.749 31.1164 186.964 28.0161 183.379 28.0161L183.373 28.0215Z" fill="white"/>
<path d="M181.241 55.6857C179.728 55.6857 179.108 53.8029 178.385 51.617C178.331 51.4438 178.271 51.2707 178.211 51.0976L162.882 51.3248C159.259 51.3248 156.257 48.4518 156.039 44.7834L155.463 35.039C155.348 33.0696 156.028 31.1488 157.334 29.7745C158.574 28.4706 160.244 27.751 162.05 27.751H183.373C185.097 27.751 186.718 28.4435 187.937 29.6934C189.242 31.0406 189.955 32.9289 189.884 34.8821L189.536 44.4209C189.411 47.8296 186.773 50.6701 183.482 50.9894C183.134 53.3808 182.628 55.5559 181.377 55.6803C181.328 55.6803 181.284 55.6803 181.241 55.6803V55.6857ZM178.412 50.5565C178.526 50.5565 178.635 50.6323 178.668 50.7405C178.749 50.9785 178.826 51.2166 178.902 51.4493C179.571 53.4836 180.164 55.2312 181.328 55.1393C182.361 55.0365 182.802 51.8875 182.97 50.6972C182.987 50.5673 183.096 50.4699 183.221 50.4645C186.338 50.2698 188.872 47.6078 188.987 44.3993L189.335 34.8605C189.4 33.0587 188.747 31.3111 187.545 30.0667C186.435 28.9197 184.95 28.2866 183.373 28.2866H162.05C160.402 28.2866 158.868 28.9467 157.731 30.1424C156.529 31.4085 155.898 33.1832 156.007 35.0065L156.583 44.751C156.779 48.0785 159.602 50.7783 162.882 50.7783H162.975L178.401 50.5457L178.412 50.5565Z" fill="black"/>
<path d="M166.157 39.8381C166.157 41.0122 165.221 41.9644 164.068 41.9644C162.915 41.9644 161.979 41.0122 161.979 39.8381C161.979 38.664 162.915 37.7063 164.068 37.7063C165.221 37.7063 166.157 38.6586 166.157 39.8381Z" fill="#70BADB"/>
<path d="M174.42 39.8381C174.42 41.0122 173.484 41.9644 172.331 41.9644C171.178 41.9644 170.242 41.0122 170.242 39.8381C170.242 38.664 171.178 37.7063 172.331 37.7063C173.484 37.7063 174.42 38.6586 174.42 39.8381Z" fill="#70BADB"/>
<path d="M182.687 39.8381C182.687 41.0122 181.752 41.9644 180.599 41.9644C179.445 41.9644 178.51 41.0122 178.51 39.8381C178.51 38.664 179.445 37.7063 180.599 37.7063C181.752 37.7063 182.687 38.6586 182.687 39.8381Z" fill="#70BADB"/>
<path d="M251.955 211.261H230.785C230.632 211.261 230.513 211.142 230.513 210.99C230.513 210.839 230.632 210.72 230.785 210.72H251.955C252.108 210.72 252.227 210.839 252.227 210.99C252.227 211.142 252.108 211.261 251.955 211.261Z" fill="black"/>
<path d="M189.384 134.61C183.112 131.601 181.932 124.843 191.081 122.273C184.657 114.417 191.152 109.867 195.509 108.985C199.866 108.103 208.499 110.305 216.838 117.431C225.177 124.551 228.794 124.919 231.307 130.498C233.815 136.076 232.634 140.41 230.127 146.064C227.619 151.718 227.32 153.476 232.194 158.032C237.067 162.582 241.049 167.138 237.655 175.724C234.261 184.316 193.665 181.157 191.745 175.286C189.825 169.416 194.4 147.903 194.4 147.903L189.379 134.615L189.384 134.61Z" fill="black"/>
<path d="M184.733 169.778C183.776 165.596 184.886 155.987 193.295 151.204C199.426 147.714 202.668 152.6 202.668 152.6L203.625 168.68C203.625 168.68 186.795 169.854 184.728 169.784L184.733 169.778Z" fill="black"/>
<path d="M137.49 145.62C136.75 144.592 135.646 143.185 134.613 143.921C133.579 144.657 135.222 150.619 139.851 149.878C138.67 148.114 137.49 145.62 137.49 145.62Z" fill="white"/>
<path d="M139.079 150.214C136.484 150.214 134.885 148.104 134.308 146.302C134.009 145.366 133.868 144.127 134.461 143.705C134.7 143.537 134.956 143.45 135.222 143.45C136.141 143.45 136.963 144.419 137.713 145.469C137.751 145.533 138.926 148.012 140.08 149.732C140.129 149.808 140.139 149.905 140.101 149.992C140.063 150.078 139.987 150.138 139.895 150.149C139.617 150.192 139.345 150.214 139.079 150.214ZM135.222 143.991C135.064 143.991 134.923 144.04 134.776 144.143C134.575 144.284 134.477 145.057 134.825 146.139C135.374 147.849 136.783 149.678 139.079 149.678C139.182 149.678 139.285 149.678 139.389 149.667C138.295 147.947 137.256 145.766 137.246 145.745C136.887 145.252 135.984 143.997 135.222 143.997V143.991Z" fill="black"/>
<path d="M150.556 146.285C148.048 145.479 146.422 143.494 147.232 141.881C148.043 140.269 150.703 142.395 152.547 143.862C154.391 145.328 156.164 145.625 156.164 145.625C156.164 145.625 153.434 147.021 150.556 146.285Z" fill="white"/>
<path d="M152.313 146.767C151.682 146.767 151.067 146.691 150.491 146.545C148.81 146.004 147.466 144.938 146.966 143.753C146.672 143.061 146.683 142.368 146.993 141.751C147.233 141.275 147.64 141.026 148.168 141.026C149.43 141.026 151.236 142.466 152.688 143.618C154.489 145.046 156.197 145.349 156.213 145.355C156.327 145.376 156.42 145.463 156.436 145.582C156.453 145.696 156.398 145.809 156.289 145.863C156.219 145.901 154.494 146.767 152.313 146.767ZM148.168 141.567C147.847 141.567 147.63 141.703 147.483 141.995C147.243 142.471 147.238 142.996 147.472 143.542C147.912 144.581 149.125 145.533 150.649 146.02C151.165 146.15 151.736 146.221 152.319 146.221C153.553 146.221 154.652 145.918 155.332 145.674C154.619 145.441 153.521 144.971 152.389 144.067C151.04 142.996 149.245 141.567 148.174 141.567H148.168Z" fill="black"/>
<path d="M153.19 168.821C152.994 164.514 152.499 155.9 151.813 153.157C151.123 150.414 146.793 151.198 146.499 151.101C146.205 151.004 140.815 153.033 138.16 147.676C135.5 142.314 137.643 140.334 139.117 140.848C139.634 139.084 141.108 139.598 141.924 140.48C142.664 138.938 144.802 140.556 145.319 142.536C145.835 144.516 146.352 146.28 150.486 145.766C154.62 145.252 159.712 144.078 161.708 150.024C163.704 155.971 165.325 165.223 165.325 165.223C165.325 165.223 164.537 171.098 153.195 168.821H153.19Z" fill="white"/>
<path d="M157.922 169.616C156.497 169.616 154.886 169.437 153.14 169.086C153.015 169.059 152.928 168.956 152.923 168.831C152.792 165.921 152.297 156.187 151.552 153.222C151.236 151.972 149.996 151.339 147.853 151.339C147.505 151.339 147.195 151.355 146.966 151.366C146.694 151.382 146.548 151.388 146.455 151.366C146.395 151.366 146.292 151.393 146.15 151.42C145.688 151.512 144.916 151.664 143.986 151.664C141.271 151.664 139.171 150.322 137.915 147.79C136.066 144.062 136.604 142.201 137.088 141.427C137.518 140.745 138.236 140.399 138.943 140.518C139.318 139.549 139.987 139.398 140.368 139.398C140.858 139.398 141.407 139.636 141.875 140.047C142.109 139.75 142.43 139.593 142.805 139.593C143.888 139.593 145.188 140.935 145.585 142.466C146.02 144.138 146.395 145.582 149.159 145.582C149.55 145.582 149.985 145.555 150.459 145.496C150.763 145.458 151.068 145.414 151.383 145.377C152.596 145.214 153.853 145.047 155.082 145.047C157.334 145.047 160.5 145.555 161.969 149.938C163.943 155.835 165.581 165.082 165.597 165.174C165.597 165.201 165.597 165.228 165.597 165.255C165.591 165.298 164.933 169.611 157.927 169.611L157.922 169.616ZM153.456 168.599C155.093 168.918 156.594 169.075 157.922 169.075C164.112 169.075 164.966 165.618 165.042 165.223C164.917 164.508 163.334 155.754 161.441 150.111C160.098 146.102 157.329 145.588 155.071 145.588C153.875 145.588 152.64 145.755 151.443 145.912C151.128 145.956 150.818 145.993 150.513 146.031C150.018 146.091 149.561 146.123 149.148 146.123C145.966 146.123 145.481 144.251 145.052 142.601C144.687 141.21 143.539 140.134 142.794 140.134C142.517 140.134 142.31 140.285 142.163 140.594C142.125 140.675 142.049 140.729 141.957 140.745C141.864 140.761 141.777 140.729 141.717 140.659C141.309 140.215 140.787 139.939 140.363 139.939C139.9 139.939 139.569 140.269 139.378 140.918C139.356 140.989 139.307 141.048 139.242 141.081C139.177 141.113 139.095 141.119 139.03 141.097C138.497 140.913 137.899 141.156 137.551 141.708C137.208 142.255 136.604 143.921 138.405 147.546C139.579 149.916 141.456 151.117 143.986 151.117C144.867 151.117 145.606 150.971 146.047 150.885C146.259 150.841 146.384 150.82 146.471 150.82C146.499 150.82 146.558 150.83 146.586 150.836C146.689 150.836 146.798 150.825 146.939 150.82C147.179 150.809 147.499 150.793 147.858 150.793C150.279 150.793 151.699 151.566 152.085 153.087C152.825 156.03 153.314 165.434 153.461 168.593L153.456 168.599Z" fill="black"/>
<path d="M140.259 150.549C140.2 150.549 140.145 150.533 140.091 150.495C138.421 149.213 137.311 147.292 136.794 144.792C136.762 144.646 136.86 144.5 137.007 144.473C137.153 144.446 137.3 144.538 137.327 144.684C137.817 147.054 138.856 148.866 140.423 150.073C140.542 150.165 140.564 150.333 140.472 150.452C140.417 150.522 140.336 150.554 140.254 150.554L140.259 150.549Z" fill="black"/>
<path d="M147.239 149.564H147.228C145.705 149.499 144.448 148.85 143.485 147.644C141.641 145.328 141.435 141.6 141.658 140.437C141.685 140.291 141.826 140.193 141.973 140.22C142.12 140.247 142.218 140.388 142.191 140.534C141.989 141.589 142.202 145.16 143.91 147.308C144.769 148.39 145.895 148.969 147.249 149.023C147.402 149.029 147.516 149.159 147.511 149.305C147.505 149.451 147.385 149.564 147.239 149.564Z" fill="black"/>
<path d="M144.355 151.545C144.355 151.545 144.339 151.545 144.334 151.545C142.914 151.426 141.728 150.766 140.809 149.586C138.638 146.789 138.649 141.93 138.845 140.805C138.872 140.659 139.008 140.556 139.161 140.583C139.308 140.61 139.405 140.751 139.384 140.897C139.193 141.973 139.182 146.605 141.239 149.256C142.06 150.311 143.115 150.901 144.377 151.004C144.53 151.015 144.638 151.144 144.627 151.296C144.617 151.437 144.497 151.545 144.355 151.545Z" fill="black"/>
<path d="M195.509 173.669C197.946 174.772 205.028 177.267 217.876 174.036C217.436 182.845 216.549 201.419 216.549 201.419C216.549 201.419 205.844 207.441 198.685 204.942C196.695 201.565 195.514 173.663 195.514 173.663L195.509 173.669Z" fill="black"/>
<path d="M197.7 166.694C199.838 166.402 202.15 165.59 201.927 162.068C201.704 158.546 201.116 153.92 201.116 153.92C195.579 153.849 190.118 150.982 187.61 145.328C185.102 139.674 188.42 136.736 190.264 130.865C192.109 124.989 195.579 120.147 203.33 120.661C211.082 121.175 215.216 124.843 215.216 124.843C213.889 131.742 212.561 141.508 215.439 142.098C218.316 142.687 219.056 137.618 219.056 137.618C223.413 135.486 227.972 138.078 226.215 141.876C224.077 146.502 218.98 144.154 218.98 144.154C217.946 146.794 213.589 149.732 213.589 149.732C214.253 155.164 214.917 164.151 219.051 164.665C217.354 173.257 216.472 176.384 216.472 176.384C216.472 176.384 201.639 179.982 196.248 174.696C196.471 172.862 197.7 166.694 197.7 166.694Z" fill="white"/>
<path d="M206.333 177.851C201.519 177.851 198.06 176.855 196.058 174.891C195.998 174.832 195.971 174.75 195.982 174.664C196.199 172.841 197.391 166.894 197.439 166.645C197.461 166.532 197.554 166.445 197.668 166.429C199.762 166.142 201.873 165.401 201.661 162.084C201.47 159.054 201.002 155.164 200.877 154.185C194.856 154.023 189.694 150.69 187.36 145.441C185.516 141.281 186.724 138.592 188.257 135.178C188.861 133.83 189.487 132.44 190.009 130.784C192.348 123.339 196.7 119.947 203.352 120.39C211.109 120.904 215.227 124.492 215.401 124.643C215.472 124.708 215.504 124.8 215.488 124.897C213.497 135.253 213.497 141.427 215.499 141.833C215.635 141.86 215.771 141.876 215.896 141.876C218.137 141.876 218.784 137.623 218.79 137.58C218.801 137.493 218.86 137.418 218.937 137.374C219.997 136.855 221.145 136.579 222.244 136.579C224.05 136.579 225.589 137.299 226.367 138.5C227.009 139.501 227.047 140.734 226.465 141.984C225.306 144.489 223.31 145.014 221.836 145.014C220.634 145.014 219.595 144.679 219.132 144.5C218.034 146.881 214.628 149.342 213.889 149.856C213.938 150.273 213.987 150.706 214.041 151.15C214.667 156.549 215.521 163.946 219.089 164.389C219.165 164.4 219.23 164.438 219.274 164.497C219.317 164.557 219.334 164.633 219.317 164.708C217.637 173.208 216.739 176.417 216.734 176.444C216.706 176.536 216.63 176.612 216.538 176.633C216.489 176.644 211.517 177.834 206.333 177.834V177.851ZM196.537 174.594C198.451 176.395 201.748 177.31 206.333 177.31C210.919 177.31 215.374 176.357 216.249 176.157C216.44 175.438 217.288 172.148 218.73 164.887C214.982 164.07 214.123 156.663 213.492 151.22C213.432 150.717 213.377 150.224 213.323 149.764C213.312 149.662 213.356 149.564 213.443 149.51C213.486 149.483 217.74 146.588 218.73 144.056C218.757 143.986 218.812 143.932 218.882 143.905C218.953 143.878 219.029 143.878 219.1 143.905C219.111 143.91 220.362 144.478 221.836 144.478C223.745 144.478 225.138 143.564 225.97 141.762C226.476 140.669 226.454 139.647 225.905 138.797C225.23 137.748 223.859 137.125 222.244 137.125C221.27 137.125 220.258 137.358 219.307 137.802C219.165 138.613 218.371 142.417 215.896 142.417C215.733 142.417 215.559 142.401 215.385 142.363C212.959 141.87 212.801 136.011 214.922 124.952C214.204 124.373 210.173 121.386 203.32 120.932C196.879 120.504 192.816 123.675 190.531 130.947C190.004 132.629 189.34 134.101 188.758 135.399C187.278 138.689 186.114 141.286 187.86 145.22C190.134 150.338 195.215 153.568 201.122 153.649C201.258 153.649 201.372 153.752 201.389 153.887C201.394 153.936 201.982 158.562 202.205 162.052C202.438 165.753 199.936 166.635 197.934 166.938C197.733 167.955 196.77 172.841 196.537 174.599V174.594Z" fill="black"/>
<path d="M195.95 142.076C195.906 142.076 195.857 142.065 195.814 142.038C194.258 141.156 193.442 140.291 193.317 139.393C193.164 138.278 194.073 137.374 194.949 136.498C195.123 136.325 195.291 136.157 195.455 135.984C196.891 134.464 196.738 131.688 195.988 129.756C195.667 128.929 195.123 128.436 194.377 128.296C193.387 128.117 192.321 128.604 191.821 129.156C191.718 129.269 191.549 129.275 191.435 129.172C191.32 129.069 191.315 128.901 191.418 128.788C192.038 128.112 193.284 127.543 194.481 127.76C195.134 127.879 196.009 128.29 196.499 129.556C197.337 131.71 197.456 134.648 195.852 136.346C195.688 136.52 195.514 136.693 195.335 136.871C194.552 137.656 193.741 138.462 193.855 139.311C193.953 140.02 194.698 140.778 196.08 141.557C196.211 141.633 196.254 141.795 196.183 141.925C196.134 142.011 196.042 142.06 195.95 142.06V142.076Z" fill="black"/>
<path d="M209.287 132.922C209.2 132.922 209.113 132.878 209.064 132.802C206.192 128.544 203.146 129.129 201.58 129.865C201.444 129.929 201.28 129.865 201.215 129.735C201.15 129.599 201.215 129.437 201.346 129.372C202.733 128.728 206.301 127.738 209.51 132.499C209.592 132.624 209.559 132.792 209.434 132.873C209.391 132.905 209.336 132.916 209.282 132.916L209.287 132.922Z" fill="black"/>
<path d="M204.903 136.774C204.615 137.688 203.957 138.3 203.429 138.137C202.907 137.975 202.711 137.098 202.999 136.184C203.288 135.27 203.946 134.658 204.468 134.821C204.99 134.983 205.186 135.854 204.898 136.774H204.903Z" fill="black"/>
<path d="M204.614 135.421C204.495 135.421 204.386 135.345 204.353 135.226L203.858 133.56C203.815 133.414 203.896 133.268 204.043 133.225C204.19 133.181 204.337 133.262 204.381 133.408L204.876 135.075C204.919 135.221 204.837 135.367 204.691 135.41C204.663 135.416 204.642 135.421 204.614 135.421Z" fill="black"/>
<path d="M194.155 134.766C193.866 135.681 193.208 136.292 192.686 136.13C192.164 135.968 191.968 135.091 192.256 134.177C192.545 133.262 193.203 132.651 193.725 132.813C194.247 132.976 194.443 133.852 194.155 134.766Z" fill="black"/>
<path d="M193.861 133.414C193.741 133.414 193.632 133.338 193.599 133.219L193.104 131.553C193.061 131.407 193.143 131.26 193.289 131.217C193.431 131.174 193.583 131.255 193.627 131.401L194.122 133.068C194.165 133.208 194.084 133.36 193.937 133.403C193.91 133.408 193.888 133.414 193.861 133.414Z" fill="black"/>
<path d="M195.84 147.508C195.269 147.508 194.785 147.314 194.415 146.924C193.757 146.237 193.458 144.965 193.54 143.142C193.54 143.039 193.61 142.942 193.708 142.904C193.806 142.866 193.915 142.882 193.996 142.953C194.388 143.31 195.53 143.721 197.472 143.721C198.685 143.721 200.018 143.553 201.329 143.234C201.449 143.207 201.563 143.256 201.628 143.358C201.688 143.461 201.677 143.586 201.601 143.678C199.447 146.112 197.353 147.514 195.851 147.514L195.84 147.508ZM194.067 143.651C194.062 145.041 194.312 146.037 194.807 146.545C195.84 147.622 198.147 146.524 200.611 143.937C197.978 144.451 195.329 144.3 194.073 143.645L194.067 143.651Z" fill="black"/>
<path d="M194.698 147.016C194.655 147.016 194.606 147.005 194.562 146.978C194.432 146.902 194.388 146.74 194.464 146.61C195.106 145.501 197.701 144.814 199.251 145.333C199.392 145.382 199.469 145.533 199.42 145.674C199.371 145.815 199.218 145.891 199.077 145.842C197.674 145.366 195.411 146.053 194.932 146.875C194.883 146.962 194.791 147.011 194.698 147.011V147.016Z" fill="black"/>
<path d="M201.003 154.212C200.845 154.212 200.698 154.098 200.698 153.942C200.698 153.79 200.818 153.671 200.97 153.671C200.981 153.671 200.992 153.671 201.003 153.671C203.761 153.671 208.199 152.091 211.175 150.522C211.305 150.452 211.474 150.5 211.545 150.636C211.615 150.766 211.567 150.933 211.431 151.004C208.395 152.605 203.848 154.217 201.003 154.217V154.212Z" fill="black"/>
<path d="M152.993 167.576C154.25 168.014 160.375 168.014 165.319 165.228C166.13 169.708 169.16 183.067 169.16 183.067C173.364 178.516 179.196 173.155 181.855 170.877C184.51 168.599 188.573 166.397 192.555 166.543C196.542 166.689 198.609 166.467 198.609 166.467C198.609 166.467 195.438 172.045 197.059 187.536C198.68 203.026 199.197 205.082 199.197 205.082L193.736 204.568C193.736 204.568 194.845 201.116 191.522 197.15C188.198 193.184 187.241 190.69 186.8 187.752C183.259 191.35 173.81 201.333 165.912 201.408C158.014 201.484 155.207 194.434 154.103 185.626C152.993 176.817 152.993 167.565 152.993 167.565V167.576Z" fill="#006D2C"/>
<path d="M213.819 201.322C211.605 201.982 202.081 204.795 197.729 204.503C193.372 204.211 188.873 202.079 185.327 202.961C181.786 203.843 175.704 208.285 176.139 210.044C176.471 211.402 178.098 210.666 178.098 210.666C178.69 211.916 179.871 211.25 179.871 211.25C180.464 212.5 183.194 211.764 184.815 210.368C186.442 208.972 188.433 208.237 190.94 209.118C193.448 210 197.359 211.245 201.939 211.467C206.514 211.688 217.295 211.185 217.295 211.185C217.295 211.185 218.922 204.833 213.825 201.311L213.819 201.322Z" fill="white"/>
<path d="M181.165 212.17C180.393 212.17 179.974 211.894 179.751 211.602C179.598 211.656 179.392 211.705 179.163 211.705C178.799 211.705 178.315 211.575 177.961 211.007C177.771 211.066 177.482 211.142 177.183 211.142C176.498 211.142 176.03 210.774 175.867 210.114C175.35 208.009 181.856 203.551 185.256 202.702C185.854 202.555 186.485 202.48 187.203 202.48C188.916 202.48 190.733 202.896 192.659 203.34C194.329 203.724 196.059 204.119 197.745 204.233C201.574 204.498 209.516 202.323 213.743 201.062C213.824 201.04 213.906 201.051 213.977 201.1C219.166 204.687 217.572 211.196 217.55 211.261C217.523 211.375 217.42 211.461 217.3 211.467C217.229 211.467 209.995 211.802 204.92 211.802C203.707 211.802 202.7 211.78 201.922 211.748C197.467 211.532 193.665 210.374 190.848 209.384C188.71 208.637 186.806 209.021 184.989 210.579C183.901 211.515 182.335 212.165 181.171 212.165L181.165 212.17ZM179.86 210.991C179.887 210.991 179.914 210.991 179.941 211.001C180.012 211.023 180.072 211.077 180.104 211.142C180.295 211.542 180.784 211.624 181.165 211.624C182.209 211.624 183.629 211.023 184.63 210.168C186.594 208.48 188.704 208.053 191.027 208.87C193.807 209.844 197.56 210.991 201.95 211.202C202.717 211.239 203.718 211.256 204.92 211.256C209.5 211.256 215.842 210.985 217.066 210.931C217.273 209.865 218.04 204.66 213.77 201.614C209.478 202.891 201.591 205.028 197.707 204.768C195.977 204.649 194.225 204.249 192.539 203.859C190.646 203.427 188.857 203.015 187.208 203.015C186.539 203.015 185.946 203.08 185.397 203.221C181.834 204.108 176.036 208.464 176.405 209.979C176.509 210.401 176.759 210.596 177.194 210.596C177.597 210.596 177.983 210.422 177.988 210.422C178.124 210.363 178.282 210.422 178.347 210.552C178.543 210.958 178.81 211.158 179.174 211.158C179.479 211.158 179.734 211.018 179.74 211.018C179.783 210.996 179.827 210.985 179.87 210.985L179.86 210.991Z" fill="black"/>
<path d="M247.25 196.133C244.003 187.471 241.196 178.073 238.541 173.815C235.887 169.556 232.71 165.59 226.803 165.006C222.522 164.714 218.682 164.568 218.682 164.568C217.278 168.242 212.774 186.005 215.14 200.911C214.107 200.911 213.367 201.5 213.367 201.5C215.728 203.41 217.055 206.862 216.468 211.483C226.727 212.289 237.579 210.677 241.12 209.795C244.661 208.913 250.492 204.801 247.245 196.139L247.25 196.133ZM226.433 198.849L226.95 192.681L228.647 198.406L226.433 198.844V198.849Z" fill="#006D2C"/>
<path d="M149.033 146.085C148.892 146.085 148.772 145.977 148.761 145.831C148.751 145.68 148.865 145.555 149.017 145.544C149.523 145.512 150.132 145.458 150.801 145.393C153.032 145.182 155.806 144.922 157.465 145.35C157.612 145.387 157.699 145.534 157.661 145.68C157.623 145.826 157.476 145.912 157.329 145.874C155.757 145.469 153.037 145.728 150.85 145.934C150.181 145.999 149.561 146.053 149.05 146.085C149.044 146.085 149.039 146.085 149.033 146.085Z" fill="black"/>
<path d="M187.018 189.283C186.893 189.283 186.779 189.197 186.751 189.067C186.256 186.611 186.811 183.462 187.578 181.433C187.633 181.292 187.79 181.222 187.926 181.276C188.068 181.33 188.139 181.481 188.084 181.622C187.535 183.083 186.746 186.275 187.284 188.964C187.312 189.11 187.219 189.251 187.072 189.283C187.056 189.283 187.034 189.283 187.018 189.283Z" fill="black"/>
<path d="M213.536 201.565C213.416 201.565 213.307 201.484 213.275 201.365C213.236 201.219 213.324 201.073 213.47 201.035C215.858 200.407 230.812 197.486 236.088 197.037C236.235 197.026 236.371 197.134 236.382 197.286C236.393 197.437 236.284 197.567 236.132 197.578C230.882 198.027 215.983 200.932 213.606 201.56C213.585 201.565 213.557 201.571 213.536 201.571V201.565Z" fill="black"/>
<path d="M227.32 193.909C227.206 193.909 227.097 193.834 227.059 193.72C226.526 192.059 225.209 186.822 224.578 184.306L224.393 183.575C224.355 183.429 224.448 183.283 224.589 183.245C224.731 183.207 224.883 183.299 224.921 183.44L225.106 184.17C225.737 186.681 227.048 191.907 227.576 193.552C227.619 193.693 227.543 193.844 227.401 193.893C227.374 193.904 227.347 193.904 227.32 193.904V193.909Z" fill="black"/>
<path d="M179.86 211.526C179.86 211.526 179.843 211.526 179.832 211.526C179.68 211.51 179.571 211.38 179.588 211.234C179.675 210.249 183.651 206.954 187.241 205.932C187.388 205.888 187.535 205.975 187.578 206.116C187.622 206.262 187.535 206.408 187.393 206.451C183.787 207.479 180.191 210.644 180.137 211.283C180.126 211.423 180.006 211.532 179.865 211.532L179.86 211.526Z" fill="black"/>
<path d="M178.091 210.942C177.939 210.942 177.819 210.823 177.819 210.671C177.819 209.259 180.8 206.283 185.467 204.833C185.614 204.79 185.761 204.871 185.81 205.012C185.854 205.152 185.777 205.304 185.631 205.353C180.838 206.841 178.369 209.757 178.369 210.677C178.369 210.828 178.249 210.947 178.097 210.947L178.091 210.942Z" fill="black"/>
<path d="M197.353 210.46H174.044L164.666 183.213C163.851 180.837 161.114 178.89 158.585 178.89H118.778C116.254 178.89 114.856 180.832 115.672 183.213L125.333 211.283C126.388 214.01 126.513 216.25 129.26 216.25H197.347C198.952 216.25 200.258 214.951 200.258 213.355C200.258 211.759 198.952 210.46 197.347 210.46H197.353Z" fill="#F2AC30"/>
<path d="M171.988 211.234H125.692C125.54 211.234 125.42 211.115 125.42 210.963C125.42 210.812 125.54 210.693 125.692 210.693H171.988C172.14 210.693 172.26 210.812 172.26 210.963C172.26 211.115 172.14 211.234 171.988 211.234Z" fill="black"/>
<path d="M144.203 201.511C142.19 201.511 139.976 199.526 139.269 197.085C138.861 195.689 139.008 194.385 139.671 193.509C140.156 192.865 140.895 192.513 141.744 192.513C143.757 192.513 145.97 194.499 146.678 196.939C147.086 198.335 146.939 199.639 146.275 200.516C145.791 201.16 145.051 201.511 144.203 201.511ZM141.744 193.054C141.059 193.054 140.493 193.325 140.107 193.834C139.546 194.575 139.432 195.706 139.791 196.934C140.438 199.158 142.413 200.97 144.203 200.97C144.888 200.97 145.454 200.7 145.84 200.191C146.4 199.45 146.514 198.319 146.155 197.091C145.514 194.867 143.534 193.054 141.749 193.054H141.744Z" fill="black"/>
</g>
<defs>
<clipPath id="clip0_62_87">
<rect width="309" height="221" fill="white"/>
</clipPath>
</defs>
</svg>
