<svg width="425" height="206" viewBox="0 0 425 206" fill="none" xmlns="http://www.w3.org/2000/svg">
<path d="M179.165 1H116.732V43.6295H179.165V1Z" stroke="#EBEBEB" stroke-miterlimit="10"/>
<path d="M121.409 3.52856C121.409 4.22047 120.847 4.78296 120.157 4.78296C119.466 4.78296 118.904 4.22047 118.904 3.52856C118.904 2.83666 119.466 2.27417 120.157 2.27417C120.847 2.27417 121.409 2.83666 121.409 3.52856Z" fill="#A6A6A6"/>
<path d="M126.522 3.52856C126.522 4.22047 125.961 4.78296 125.27 4.78296C124.579 4.78296 124.018 4.22047 124.018 3.52856C124.018 2.83666 124.579 2.27417 125.27 2.27417C125.961 2.27417 126.522 2.83666 126.522 3.52856Z" fill="#EBEBEB"/>
<path d="M131.635 3.52856C131.635 4.22047 131.074 4.78296 130.383 4.78296C129.692 4.78296 129.131 4.22047 129.131 3.52856C129.131 2.83666 129.692 2.27417 130.383 2.27417C131.074 2.27417 131.635 2.83666 131.635 3.52856Z" fill="#FFC727"/>
<path d="M116.732 5.98291H179.165" stroke="#EBEBEB" stroke-miterlimit="10"/>
<path d="M378.815 102.487L382.934 95.8313L380.887 94.5619C380.291 94.1936 379.978 93.5116 380.037 92.8098C380.067 92.4315 380.082 92.0482 380.072 91.6649C380.057 90.9531 380.415 90.291 381.041 89.9525L383.148 88.8176L379.451 81.9135L377.344 83.0484C376.738 83.372 375.997 83.3421 375.436 82.9439C375.093 82.7049 374.74 82.4859 374.377 82.2868C373.771 81.9583 373.408 81.3062 373.433 80.6143L373.508 78.22L365.691 77.9761L365.617 80.3803C365.597 81.0722 365.184 81.6945 364.558 81.9881C364.374 82.0728 364.196 82.1673 364.017 82.2619C363.838 82.3565 363.664 82.461 363.49 82.5656C362.899 82.924 362.163 82.9289 361.577 82.5656L359.53 81.2962L355.41 87.9515L357.462 89.2258C358.059 89.5941 358.367 90.2761 358.307 90.973C358.272 91.3513 358.262 91.7296 358.267 92.1129C358.282 92.8247 357.925 93.4868 357.298 93.8203L355.187 94.9552L358.884 101.859L360.995 100.724C361.622 100.391 362.372 100.456 362.953 100.859C363.266 101.078 363.589 101.277 363.922 101.456C364.538 101.795 364.931 102.427 364.906 103.129L364.832 105.548L372.643 105.792L372.718 103.388C372.738 102.686 373.17 102.073 373.801 101.775C373.975 101.69 374.149 101.605 374.318 101.511C374.487 101.421 374.656 101.322 374.82 101.227C375.421 100.864 376.171 100.844 376.768 101.212L378.805 102.477L378.815 102.487ZM372.911 97.1006C369.468 99.5497 364.702 98.1111 363.187 94.1587C362.158 91.4708 363.092 88.3447 365.438 86.6772C368.881 84.2232 373.657 85.6717 375.172 89.619C376.201 92.307 375.257 95.4281 372.911 97.1006Z" fill="#EBEBEB"/>
<path d="M109.552 82.3663C109.979 82.6152 110.213 83.0831 110.188 83.5759C110.183 83.7103 110.178 83.8447 110.178 83.9791C110.178 84.1135 110.178 84.2529 110.188 84.3873C110.213 84.8801 109.979 85.348 109.552 85.5919L108.096 86.4331L110.834 91.1869L112.29 90.3457C112.717 90.0968 113.244 90.1217 113.656 90.3954C113.885 90.5448 114.118 90.6792 114.362 90.8036C114.799 91.0276 115.082 91.4706 115.082 91.9634V93.6409H120.563V91.9634C120.563 91.4706 120.847 91.0276 121.284 90.8036C121.527 90.6792 121.761 90.5448 121.989 90.3954C122.402 90.1266 122.929 90.1017 123.356 90.3457L124.812 91.1869L127.55 86.4331L126.089 85.5869C125.662 85.343 125.428 84.8751 125.453 84.3823C125.458 84.2479 125.463 84.1135 125.463 83.9791C125.463 83.8447 125.463 83.7103 125.453 83.5759C125.428 83.0831 125.662 82.6102 126.089 82.3663L127.545 81.5251L124.807 76.7713L123.356 77.6126C122.929 77.8614 122.402 77.8366 121.989 77.5678C121.761 77.4184 121.522 77.284 121.279 77.1596C120.842 76.9356 120.558 76.4926 120.558 75.9998V74.3223H115.077V75.9998C115.077 76.4926 114.794 76.9356 114.357 77.1596C114.113 77.284 113.875 77.4234 113.646 77.5678C113.234 77.8366 112.707 77.8614 112.28 77.6126L110.829 76.7713L108.091 81.5251L109.547 82.3663H109.552ZM117.82 79.4842C120.3 79.4842 122.308 81.5002 122.308 83.9791C122.308 86.458 120.295 88.469 117.82 88.469C115.346 88.469 113.338 86.458 113.338 83.9791C113.338 81.5002 115.346 79.4842 117.82 79.4842Z" fill="#EBEBEB"/>
<path d="M103.909 120.253H99.2227V153.653H103.909V120.253Z" fill="#EBEBEB"/>
<path d="M111.963 128.342H107.277V153.658H111.963V128.342Z" fill="#EBEBEB"/>
<path d="M120.014 141H115.328V153.659H120.014V141Z" fill="#EBEBEB"/>
<path d="M128.069 133.767H123.383V153.653H128.069V133.767Z" fill="#EBEBEB"/>
<path d="M136.123 126.176H131.438V153.658H136.123V126.176Z" fill="#EBEBEB"/>
<path d="M144.174 121.711H139.488V153.658H144.174V121.711Z" fill="#EBEBEB"/>
<path d="M96.504 116.007L96.5587 125.42L96.5835 134.833L96.6233 153.659L96.504 153.539C100.812 153.529 105.116 153.519 109.424 153.539L122.344 153.564L135.263 153.589L148.183 153.659L135.263 153.728L122.344 153.753L109.424 153.778C105.116 153.793 100.812 153.788 96.504 153.778H96.3848V153.659L96.4245 134.833L96.4494 125.42L96.504 116.007Z" fill="#EBEBEB"/>
<path d="M95.4707 117.893C95.8136 117.789 96.1614 117.764 96.5043 117.759C96.8472 117.759 97.195 117.789 97.5379 117.893C97.195 117.998 96.8472 118.023 96.5043 118.028C96.1614 118.028 95.8136 117.998 95.4707 117.893Z" fill="#EBEBEB"/>
<path d="M95.4707 120.756C95.8136 120.651 96.1614 120.626 96.5043 120.621C96.8472 120.621 97.195 120.651 97.5379 120.756C97.195 120.86 96.8472 120.885 96.5043 120.89C96.1614 120.89 95.8136 120.86 95.4707 120.756Z" fill="#EBEBEB"/>
<path d="M95.4707 123.618C95.8136 123.513 96.1614 123.488 96.5043 123.483C96.8472 123.483 97.195 123.513 97.5379 123.618C97.195 123.722 96.8472 123.747 96.5043 123.752C96.1614 123.752 95.8136 123.722 95.4707 123.618Z" fill="#EBEBEB"/>
<path d="M95.4707 126.48C95.8136 126.376 96.1614 126.351 96.5043 126.346C96.8472 126.346 97.195 126.376 97.5379 126.48C97.195 126.585 96.8472 126.61 96.5043 126.614C96.1614 126.614 95.8136 126.585 95.4707 126.48Z" fill="#EBEBEB"/>
<path d="M95.4707 129.342C95.8136 129.237 96.1614 129.212 96.5043 129.208C96.8472 129.208 97.195 129.237 97.5379 129.342C97.195 129.446 96.8472 129.471 96.5043 129.476C96.1614 129.476 95.8136 129.446 95.4707 129.342Z" fill="#EBEBEB"/>
<path d="M95.4707 132.199C95.8136 132.095 96.1614 132.07 96.5043 132.065C96.8472 132.065 97.195 132.095 97.5379 132.199C97.195 132.304 96.8472 132.329 96.5043 132.334C96.1614 132.334 95.8136 132.304 95.4707 132.199Z" fill="#EBEBEB"/>
<path d="M95.4707 135.062C95.8136 134.957 96.1614 134.932 96.5043 134.927C96.8472 134.927 97.195 134.957 97.5379 135.062C97.195 135.166 96.8472 135.191 96.5043 135.196C96.1614 135.196 95.8136 135.166 95.4707 135.062Z" fill="#EBEBEB"/>
<path d="M95.4707 137.924C95.8136 137.819 96.1614 137.794 96.5043 137.789C96.8472 137.789 97.195 137.819 97.5379 137.924C97.195 138.028 96.8472 138.053 96.5043 138.058C96.1614 138.058 95.8136 138.028 95.4707 137.924Z" fill="#EBEBEB"/>
<path d="M95.4707 140.786C95.8136 140.681 96.1614 140.656 96.5043 140.651C96.8472 140.651 97.195 140.681 97.5379 140.786C97.195 140.89 96.8472 140.915 96.5043 140.92C96.1614 140.92 95.8136 140.89 95.4707 140.786Z" fill="#EBEBEB"/>
<path d="M95.4707 143.648C95.8136 143.544 96.1614 143.519 96.5043 143.514C96.8472 143.514 97.195 143.544 97.5379 143.648C97.195 143.753 96.8472 143.778 96.5043 143.783C96.1614 143.783 95.8136 143.753 95.4707 143.648Z" fill="#EBEBEB"/>
<path d="M95.4707 146.505C95.8136 146.401 96.1614 146.376 96.5043 146.371C96.8472 146.371 97.195 146.401 97.5379 146.505C97.195 146.61 96.8472 146.635 96.5043 146.64C96.1614 146.64 95.8136 146.61 95.4707 146.505Z" fill="#EBEBEB"/>
<path d="M95.4707 149.368C95.8136 149.263 96.1614 149.238 96.5043 149.233C96.8472 149.233 97.195 149.263 97.5379 149.368C97.195 149.472 96.8472 149.497 96.5043 149.502C96.1614 149.502 95.8136 149.472 95.4707 149.368Z" fill="#EBEBEB"/>
<path d="M359.863 10.8806H136.152V163.265H359.863V10.8806Z" fill="#263238"/>
<path d="M359.863 140.79H136.152V163.27H359.863V140.79Z" fill="#E4E4E4"/>
<path d="M291.602 190.737H204.413V198.034H291.602V190.737Z" fill="#C2C2C2"/>
<path d="M281.216 190.742H214.794L216.483 178.073L216.568 177.476L216.722 176.291L216.801 175.694L216.96 174.504L216.985 174.32L217.04 173.907L217.204 172.717L217.279 172.12L218.461 163.27H277.554L278.667 171.617L278.722 172.02L278.906 173.404L278.955 173.807L279.03 174.32L279.144 175.191L279.194 175.589L279.378 176.983L279.437 177.376L281.216 190.742Z" fill="#E4E4E4"/>
<path d="M251.645 150.516C251.645 152.567 249.986 154.23 247.938 154.23C245.891 154.23 244.231 152.567 244.231 150.516C244.231 148.466 245.891 146.803 247.938 146.803C249.986 146.803 251.645 148.466 251.645 150.516Z" fill="#37474F"/>
<path d="M279.03 174.32L217.278 172.12L218.461 163.27H277.554L279.03 174.32Z" fill="#C2C2C2"/>
<path d="M349.536 20.7915H146.473V130.217H349.536V20.7915Z" fill="white"/>
<path d="M349.537 20.7915H146.474V130.217H349.537V20.7915Z" fill="white"/>
<path d="M345.94 25.7441H146.474V39.8959H345.94V25.7441Z" fill="#2E68B8"/>
<path d="M158.003 30.4734H153.183V31.2499H158.003V30.4734Z" fill="white"/>
<path d="M158.003 33.9526H153.183V34.7292H158.003V33.9526Z" fill="white"/>
<path d="M158.003 32.2305H153.183V33.007H158.003V32.2305Z" fill="white"/>
<path d="M314.487 30.5181H205.121V34.6844H314.487V30.5181Z" fill="white"/>
<path d="M314.526 34.7241H205.076V30.4731H314.526V34.7241Z" fill="white"/>
<path d="M314.531 30.4731H310.282V34.7291H314.531V30.4731Z" fill="#455A64"/>
<path d="M313.721 33.7683L313.338 34.062L312.628 33.1212L312.369 32.7777C312.419 32.7578 312.474 32.7279 312.518 32.6931C312.608 32.6234 312.672 32.5338 312.717 32.4392L312.995 32.8026L313.731 33.7732L313.721 33.7683Z" fill="white"/>
<path d="M312.966 31.5483C312.613 31.0903 311.957 31.0007 311.495 31.3541C311.038 31.7076 310.948 32.3646 311.301 32.8276C311.619 33.2407 312.181 33.3552 312.628 33.1163C312.677 33.0914 312.727 33.0565 312.772 33.0217C312.856 32.957 312.931 32.8773 312.991 32.7977C313.249 32.4343 313.254 31.9266 312.966 31.5483ZM312.514 32.6882C312.469 32.723 312.414 32.7529 312.364 32.7728C312.111 32.8724 311.808 32.8027 311.634 32.5737C311.425 32.2999 311.475 31.9017 311.748 31.6926C312.022 31.4836 312.419 31.5333 312.628 31.8071C312.767 31.9913 312.792 32.2302 312.707 32.4293C312.668 32.5289 312.598 32.6185 312.509 32.6832L312.514 32.6882Z" fill="white"/>
<path d="M206.213 31.3342H205.989V33.8629H206.213V31.3342Z" fill="#C7C7C7"/>
<path d="M338.631 34.8438C338.427 34.9732 338.199 35.0678 337.95 35.1275C337.309 35.2868 336.668 35.1624 336.146 34.8388C335.64 34.5252 335.247 34.0175 335.093 33.3903C334.785 32.121 335.56 30.8367 336.827 30.5281C338.094 30.2195 339.371 30.996 339.684 32.2653C339.933 33.2858 339.476 34.3162 338.631 34.8388V34.8438Z" fill="#455A64"/>
<path d="M338.109 32.5587C338.109 32.9569 337.786 33.2805 337.388 33.2805C336.991 33.2805 336.668 32.9569 336.668 32.5587C336.668 32.1605 336.991 31.8369 337.388 31.8369C337.786 31.8369 338.109 32.1605 338.109 32.5587Z" fill="white"/>
<path d="M338.631 34.5447V34.8434C338.427 34.9728 338.199 35.0674 337.95 35.1271C337.309 35.2864 336.668 35.162 336.146 34.8384V34.5447C336.146 33.8578 336.703 33.3003 337.389 33.3003C338.075 33.3003 338.631 33.8578 338.631 34.5447Z" fill="white"/>
<path d="M330.447 35.1973H328.802V34.6149C328.802 34.585 328.782 34.5502 328.752 34.5352C328.693 34.5054 328.633 34.4705 328.574 34.4307C328.544 34.4108 328.509 34.4108 328.479 34.4307L327.972 34.7244L327.152 33.3007L327.659 33.0071C327.684 32.9921 327.704 32.9573 327.699 32.9224C327.699 32.8876 327.699 32.8527 327.699 32.8229C327.699 32.793 327.699 32.7532 327.699 32.7233C327.699 32.6885 327.684 32.6536 327.659 32.6387L327.152 32.345L327.972 30.9214L328.474 31.2151C328.504 31.23 328.539 31.23 328.569 31.2151C328.623 31.1802 328.683 31.1454 328.747 31.1105C328.777 31.0956 328.797 31.0657 328.797 31.0309V30.4485H330.442V31.0309C330.442 31.0657 330.462 31.0956 330.492 31.1105C330.551 31.1404 330.611 31.1752 330.671 31.2151C330.7 31.235 330.735 31.235 330.765 31.2151L331.267 30.9214L332.087 32.345L331.58 32.6387C331.555 32.6536 331.535 32.6885 331.54 32.7233C331.54 32.7582 331.54 32.788 331.54 32.8229C331.54 32.8577 331.54 32.8926 331.54 32.9224C331.54 32.9573 331.555 32.9921 331.58 33.0071L332.087 33.3007L331.267 34.7244L330.76 34.4307C330.73 34.4158 330.695 34.4158 330.666 34.4307C330.611 34.4705 330.551 34.5054 330.487 34.5352C330.457 34.5502 330.437 34.58 330.437 34.6149V35.1973H330.447ZM329.215 34.7891H330.039V34.6149C330.039 34.4257 330.144 34.2565 330.313 34.1718C330.362 34.147 330.407 34.1221 330.452 34.0922C330.611 33.9877 330.81 33.9827 330.974 34.0773L331.123 34.1669L331.535 33.4501L331.381 33.3605C331.222 33.2659 331.128 33.0917 331.138 32.9025V32.8229V32.7432C331.128 32.5541 331.222 32.3749 331.381 32.2803L331.53 32.1907L331.118 31.4739L330.969 31.5585C330.805 31.6531 330.606 31.6481 330.447 31.5436C330.402 31.5137 330.352 31.4888 330.308 31.4639C330.139 31.3743 330.034 31.2051 330.034 31.0209V30.8467H329.21V31.0209C329.21 31.2101 329.105 31.3793 328.936 31.4639C328.887 31.4888 328.842 31.5137 328.797 31.5436C328.638 31.6481 328.439 31.6531 328.275 31.5585L328.126 31.4739L327.714 32.1907L327.863 32.2753C328.022 32.3699 328.116 32.5441 328.111 32.7383V32.8179V32.8975C328.121 33.0867 328.027 33.2659 327.868 33.3555L327.719 33.4451L328.131 34.1619L328.28 34.0723C328.439 33.9777 328.643 33.9827 328.802 34.0872C328.847 34.1171 328.892 34.142 328.941 34.1669C329.11 34.2515 329.215 34.4257 329.215 34.6099V34.7841V34.7891ZM329.627 34.0325C328.956 34.0325 328.415 33.4849 328.415 32.8179C328.415 32.1509 328.961 31.6033 329.627 31.6033C330.293 31.6033 330.844 32.1509 330.844 32.8179C330.844 33.4849 330.298 34.0325 329.627 34.0325ZM329.627 32.0065C329.185 32.0065 328.822 32.3699 328.822 32.8129C328.822 33.2559 329.185 33.6193 329.627 33.6193C330.069 33.6193 330.432 33.2559 330.432 32.8129C330.432 32.3699 330.069 32.0065 329.627 32.0065Z" fill="#455A64"/>
<path d="M195.222 32.2305H162.088V33.8184H195.222V32.2305Z" fill="#455A64"/>
<path d="M349.537 20.7915H146.474V25.7444H349.537V20.7915Z" fill="#455A64"/>
<path d="M150.404 23.2652C150.404 23.9421 149.857 24.4947 149.177 24.4947C148.496 24.4947 147.949 23.9471 147.949 23.2652C147.949 22.5832 148.496 22.0356 149.177 22.0356C149.857 22.0356 150.404 22.5832 150.404 23.2652Z" fill="#C7C7C7"/>
<path d="M155.408 23.2652C155.408 23.9421 154.861 24.4947 154.181 24.4947C153.5 24.4947 152.953 23.9471 152.953 23.2652C152.953 22.5832 153.5 22.0356 154.181 22.0356C154.861 22.0356 155.408 22.5832 155.408 23.2652Z" fill="white"/>
<path d="M160.418 23.2652C160.418 23.9421 159.871 24.4947 159.19 24.4947C158.509 24.4947 157.963 23.9471 157.963 23.2652C157.963 22.5832 158.509 22.0356 159.19 22.0356C159.871 22.0356 160.418 22.5832 160.418 23.2652Z" fill="#FFC727"/>
<path d="M349.543 25.7441H345.94V130.217H349.543V25.7441Z" fill="#DBDBDB"/>
<path d="M347.739 68.6426C347.227 68.6426 346.81 68.2244 346.81 67.7117V27.3969C346.81 26.8842 347.227 26.4661 347.739 26.4661C348.251 26.4661 348.668 26.8842 348.668 27.3969V67.7068C348.668 68.2195 348.251 68.6376 347.739 68.6376V68.6426Z" fill="#A6A6A6"/>
<path d="M191.066 48.0996H154.186V123.742H191.066V48.0996Z" fill="#EBEBEB"/>
<path d="M339.116 47.552H197.396V124.005H339.116V47.552Z" fill="#EBEBEB"/>
<path d="M313.799 61.196H306.996V106.543H313.799V61.196Z" fill="#2E68B8"/>
<path d="M278.731 64.0979H271.929V106.543H278.731V64.0979Z" fill="#2E68B8"/>
<path d="M220.284 65.188H213.481V106.543H220.284V65.188Z" fill="#2E68B8"/>
<path d="M231.973 72.0623H225.17V106.543H231.973V72.0623Z" fill="#455A64"/>
<path d="M243.665 84.5964H236.862V106.543H243.665V84.5964Z" fill="#2E68B8"/>
<path d="M255.352 71.4602H248.549V106.543H255.352V71.4602Z" fill="#2E68B8"/>
<path d="M267.039 77.2195H260.236V106.543H267.039V77.2195Z" fill="#455A64"/>
<path d="M290.42 70.644H283.617V106.544H290.42V70.644Z" fill="#455A64"/>
<path d="M302.106 81.2166H295.304V106.543H302.106V81.2166Z" fill="#2E68B8"/>
<path d="M325.486 56.9202H318.684V106.543H325.486V56.9202Z" fill="#455A64"/>
<path d="M208.771 56.5566L208.866 69.0558L208.91 81.5549L208.975 106.548L208.771 106.344C228.504 106.284 276.585 106.369 296.317 106.384L312.78 106.429L327.38 106.548L312.78 106.668L296.317 106.712C276.585 106.727 228.504 106.812 208.771 106.752H208.562V106.548L208.627 81.5549L208.672 69.0558L208.766 56.5566H208.771Z" fill="#C7C7C7"/>
<path d="M206.978 59.4238C207.574 59.2446 208.17 59.1998 208.771 59.1948C209.368 59.2048 209.964 59.2446 210.565 59.4238C209.969 59.603 209.373 59.6478 208.771 59.6528C208.175 59.6428 207.579 59.603 206.978 59.4238Z" fill="#C7C7C7"/>
<path d="M206.978 64.3867C207.574 64.2075 208.17 64.1627 208.771 64.1577C209.368 64.1677 209.964 64.2075 210.565 64.3867C209.969 64.5659 209.373 64.6107 208.771 64.6157C208.175 64.6057 207.579 64.5659 206.978 64.3867Z" fill="#C7C7C7"/>
<path d="M206.978 69.3447C207.574 69.1655 208.17 69.1207 208.771 69.1157C209.368 69.1257 209.964 69.1655 210.565 69.3447C209.969 69.5239 209.373 69.5687 208.771 69.5737C208.175 69.5637 207.579 69.5239 206.978 69.3447Z" fill="#C7C7C7"/>
<path d="M206.978 74.3071C207.574 74.1279 208.17 74.0831 208.771 74.0781C209.368 74.0881 209.964 74.1279 210.565 74.3071C209.969 74.4863 209.373 74.5311 208.771 74.5361C208.175 74.5261 207.579 74.4863 206.978 74.3071Z" fill="#C7C7C7"/>
<path d="M206.978 79.2702C207.574 79.091 208.17 79.0462 208.771 79.0413C209.368 79.0512 209.964 79.091 210.565 79.2702C209.969 79.4494 209.373 79.4942 208.771 79.4992C208.175 79.4893 207.579 79.4494 206.978 79.2702Z" fill="#C7C7C7"/>
<path d="M206.978 84.2278C207.574 84.0486 208.17 84.0038 208.771 83.9988C209.368 84.0087 209.964 84.0486 210.565 84.2278C209.969 84.407 209.373 84.4518 208.771 84.4567C208.175 84.4468 207.579 84.407 206.978 84.2278Z" fill="#C7C7C7"/>
<path d="M206.978 89.1909C207.574 89.0117 208.17 88.9669 208.771 88.9619C209.368 88.9719 209.964 89.0117 210.565 89.1909C209.969 89.3701 209.373 89.4149 208.771 89.4199C208.175 89.4099 207.579 89.3701 206.978 89.1909Z" fill="#C7C7C7"/>
<path d="M206.978 94.1538C207.574 93.9746 208.17 93.9298 208.771 93.9248C209.368 93.9348 209.964 93.9746 210.565 94.1538C209.969 94.333 209.373 94.3778 208.771 94.3828C208.175 94.3728 207.579 94.333 206.978 94.1538Z" fill="#C7C7C7"/>
<path d="M206.978 99.1115C207.574 98.9323 208.17 98.8875 208.771 98.8826C209.368 98.8925 209.964 98.9323 210.565 99.1115C209.969 99.2907 209.373 99.3355 208.771 99.3405C208.175 99.3306 207.579 99.2907 206.978 99.1115Z" fill="#C7C7C7"/>
<path d="M180.353 52.6841H158.449V54.8295H180.353V52.6841Z" fill="#C7C7C7"/>
<path d="M162.534 58.3337H186.798" stroke="#C7C7C7" stroke-miterlimit="10"/>
<path d="M162.534 60.7332H186.798" stroke="#C7C7C7" stroke-miterlimit="10"/>
<path d="M162.534 63.1323H181.347" stroke="#C7C7C7" stroke-miterlimit="10"/>
<path d="M180.353 88.957H158.449V91.1024H180.353V88.957Z" fill="#C7C7C7"/>
<path d="M162.534 94.6067H186.798" stroke="#C7C7C7" stroke-miterlimit="10"/>
<path d="M162.534 97.0059H186.798" stroke="#C7C7C7" stroke-miterlimit="10"/>
<path d="M162.534 99.4053H181.347" stroke="#C7C7C7" stroke-miterlimit="10"/>
<path d="M162.534 67.9307H186.798" stroke="#C7C7C7" stroke-miterlimit="10"/>
<path d="M162.534 70.3301H186.798" stroke="#C7C7C7" stroke-miterlimit="10"/>
<path d="M162.534 72.7344H186.798" stroke="#C7C7C7" stroke-miterlimit="10"/>
<path d="M162.534 75.1335H181.347" stroke="#C7C7C7" stroke-miterlimit="10"/>
<path d="M162.534 79.9319H186.798" stroke="#C7C7C7" stroke-miterlimit="10"/>
<path d="M162.534 82.3315H186.798" stroke="#C7C7C7" stroke-miterlimit="10"/>
<path d="M162.534 84.7356H181.347" stroke="#C7C7C7" stroke-miterlimit="10"/>
<path d="M217.448 111.551H213.482V115.523H217.448V111.551Z" fill="#2E68B8"/>
<path d="M221.876 112.541C225.21 112.437 228.54 112.392 231.874 112.352C235.208 112.312 238.537 112.317 241.872 112.292L251.87 112.347L256.869 112.417C258.533 112.457 260.203 112.482 261.868 112.541C260.203 112.596 258.533 112.621 256.869 112.666L251.87 112.736L241.872 112.79C238.537 112.77 235.208 112.775 231.874 112.731C228.54 112.691 225.21 112.641 221.876 112.541Z" fill="#C7C7C7"/>
<path d="M221.876 114.363C224.067 114.259 226.254 114.214 228.445 114.174C230.637 114.134 232.823 114.139 235.014 114.114C237.206 114.134 239.392 114.134 241.584 114.169L244.868 114.239C245.961 114.279 247.06 114.303 248.153 114.363C247.06 114.418 245.961 114.443 244.868 114.488L241.584 114.557C239.392 114.597 237.206 114.597 235.014 114.612C232.823 114.592 230.637 114.597 228.445 114.552C226.254 114.512 224.067 114.463 221.876 114.363Z" fill="#C7C7C7"/>
<path d="M274.265 111.551H270.3V115.523H274.265V111.551Z" fill="#455A64"/>
<path d="M278.698 112.541C282.033 112.437 285.362 112.392 288.696 112.352C292.03 112.312 295.36 112.317 298.694 112.292L308.692 112.347L313.691 112.417C315.356 112.457 317.025 112.482 318.69 112.541C317.025 112.596 315.356 112.621 313.691 112.666L308.692 112.736L298.694 112.79C295.36 112.77 292.03 112.775 288.696 112.731C285.362 112.691 282.033 112.641 278.698 112.541Z" fill="#C7C7C7"/>
<path d="M278.698 114.363C280.89 114.259 283.076 114.214 285.267 114.174C287.459 114.134 289.645 114.139 291.837 114.114C294.028 114.134 296.214 114.134 298.406 114.169L301.69 114.239C302.784 114.279 303.882 114.303 304.975 114.363C303.882 114.418 302.784 114.443 301.69 114.488L298.406 114.557C296.214 114.597 294.028 114.597 291.837 114.612C289.645 114.592 287.459 114.597 285.267 114.552C283.076 114.512 280.89 114.463 278.698 114.363Z" fill="#C7C7C7"/>
<path d="M424.873 43.3604H341.48V112.79H424.873V43.3604Z" fill="white"/>
<path d="M424.873 112.79L341.481 112.86H341.411V112.79L341.356 43.3605V43.2361H341.481L424.873 43.3008H424.932V43.3605L424.873 112.79ZM424.873 112.79L424.813 43.3605L424.873 43.4203L341.481 43.485L341.605 43.3605L341.55 112.79L341.481 112.721L424.873 112.79Z" fill="#263238"/>
<path d="M424.972 43.3606H341.386V48.9108H424.972V43.3606Z" fill="#37474F"/>
<path d="M345.789 46.1331C345.789 46.8947 345.173 47.507 344.417 47.507C343.662 47.507 343.046 46.8898 343.046 46.1331C343.046 45.3765 343.662 44.7593 344.417 44.7593C345.173 44.7593 345.789 45.3765 345.789 46.1331Z" fill="#C7C7C7"/>
<path d="M350.022 47.507C350.779 47.507 351.393 46.8919 351.393 46.1331C351.393 45.3744 350.779 44.7593 350.022 44.7593C349.264 44.7593 348.65 45.3744 348.65 46.1331C348.65 46.8919 349.264 47.507 350.022 47.507Z" fill="white"/>
<path d="M357.009 46.1331C357.009 46.8947 356.392 47.507 355.637 47.507C354.882 47.507 354.266 46.8898 354.266 46.1331C354.266 45.3765 354.882 44.7593 355.637 44.7593C356.392 44.7593 357.009 45.3765 357.009 46.1331Z" fill="#FFC727"/>
<path d="M354.883 101.247H351.861V104.274H354.883V101.247Z" fill="#263238"/>
<path d="M357.695 102.043C358.724 101.959 359.753 101.919 360.781 101.884C361.81 101.849 363.673 101.884 363.673 101.884L365.214 101.944C365.725 101.978 366.242 101.998 366.754 102.043C366.242 102.088 365.725 102.108 365.214 102.143L363.673 102.202C363.673 102.202 361.81 102.237 360.781 102.202C359.753 102.168 358.724 102.128 357.695 102.043Z" fill="#C7C7C7"/>
<path d="M357.695 103.557C358.719 103.472 359.743 103.432 360.766 103.397C361.79 103.363 363.479 103.452 363.479 103.452C363.991 103.487 364.503 103.507 365.015 103.552C364.503 103.597 363.991 103.616 363.479 103.651C363.479 103.651 361.79 103.741 360.766 103.706C359.743 103.671 358.719 103.631 357.695 103.547V103.557Z" fill="#C7C7C7"/>
<path d="M378.838 101.247H375.816V104.274H378.838V101.247Z" fill="#455A64"/>
<path d="M381.65 102.043C382.679 101.959 383.708 101.919 384.736 101.884C385.765 101.849 387.628 101.884 387.628 101.884L389.169 101.944C389.681 101.979 390.197 101.999 390.709 102.043C390.197 102.088 389.681 102.108 389.169 102.143L387.628 102.203C387.628 102.203 385.765 102.238 384.736 102.203C383.708 102.168 382.679 102.128 381.65 102.043Z" fill="#C7C7C7"/>
<path d="M381.65 103.557C382.674 103.472 383.698 103.432 384.721 103.397C385.745 103.363 387.434 103.452 387.434 103.452C387.946 103.487 388.458 103.507 388.97 103.552C388.458 103.597 387.946 103.616 387.434 103.651C387.434 103.651 385.745 103.741 384.721 103.706C383.698 103.671 382.674 103.631 381.65 103.547V103.557Z" fill="#C7C7C7"/>
<path d="M402.795 101.247H399.773V104.274H402.795V101.247Z" fill="#FFC727"/>
<path d="M405.607 102.043C406.636 101.959 407.665 101.919 408.693 101.884C409.722 101.849 411.585 101.884 411.585 101.884L413.126 101.944C413.638 101.978 414.154 101.998 414.666 102.043C414.154 102.088 413.638 102.108 413.126 102.143L411.585 102.202C411.585 102.202 409.722 102.237 408.693 102.202C407.665 102.168 406.636 102.128 405.607 102.043Z" fill="#C7C7C7"/>
<path d="M405.607 103.557C406.631 103.472 407.655 103.432 408.678 103.397C409.702 103.363 411.392 103.452 411.392 103.452C411.903 103.487 412.415 103.507 412.927 103.552C412.415 103.597 411.903 103.616 411.392 103.651C411.392 103.651 409.702 103.741 408.678 103.706C407.655 103.671 406.631 103.631 405.607 103.547V103.557Z" fill="#C7C7C7"/>
<path d="M349.854 92.2621C355.334 92.1575 360.82 92.1127 366.301 92.0729L382.749 92.0132L399.197 92.0679L407.421 92.1376L415.645 92.2621L407.421 92.3865L399.197 92.4562L382.749 92.511L366.301 92.4512C360.82 92.4114 355.334 92.3616 349.854 92.2621Z" fill="#EBEBEB"/>
<path d="M349.854 87.7025C355.334 87.598 360.82 87.5532 366.301 87.5133L382.749 87.4536L399.197 87.5084L407.421 87.5781L415.645 87.7025L407.421 87.8269L399.197 87.8966L382.749 87.9514L366.301 87.8917C360.82 87.8518 355.334 87.8021 349.854 87.7025Z" fill="#EBEBEB"/>
<path d="M349.854 83.1481C355.334 83.0435 360.82 82.9987 366.301 82.9589L382.749 82.8992L399.197 82.9539L407.421 83.0236L415.645 83.1481L407.421 83.2725L399.197 83.3422L382.749 83.3969L366.301 83.3372C360.82 83.2974 355.334 83.2476 349.854 83.1481Z" fill="#EBEBEB"/>
<path d="M349.854 78.5882C355.334 78.4837 360.82 78.4389 366.301 78.3991L382.749 78.3394L399.197 78.3941L407.421 78.4638L415.645 78.5882L407.421 78.7127L399.197 78.7824L382.749 78.8371L366.301 78.7774C360.82 78.7376 355.334 78.6878 349.854 78.5882Z" fill="#EBEBEB"/>
<path d="M349.854 74.0336C355.334 73.929 360.82 73.8842 366.301 73.8444L382.749 73.7847L399.197 73.8394L407.421 73.9091L415.645 74.0336L407.421 74.158L399.197 74.2277L382.749 74.2824L366.301 74.2227C360.82 74.1829 355.334 74.1331 349.854 74.0336Z" fill="#EBEBEB"/>
<path d="M349.854 69.474C355.334 69.3695 360.82 69.3247 366.301 69.2848L382.749 69.2251L399.197 69.2799L407.421 69.3495L415.645 69.474L407.421 69.5984L399.197 69.6681L382.749 69.7229L366.301 69.6631C360.82 69.6233 355.334 69.5735 349.854 69.474Z" fill="#EBEBEB"/>
<path d="M349.854 64.9195C355.334 64.815 360.82 64.7702 366.301 64.7304L382.749 64.6707L399.197 64.7254L407.421 64.7951L415.645 64.9195L407.421 65.044L399.197 65.1137L382.749 65.1684L366.301 65.1087C360.82 65.0689 355.334 65.0191 349.854 64.9195Z" fill="#EBEBEB"/>
<path d="M349.854 60.3597C355.334 60.2552 360.82 60.2104 366.301 60.1706L382.749 60.1108L399.197 60.1656L407.421 60.2353L415.645 60.3597L407.421 60.4842L399.197 60.5539L382.749 60.6086L366.301 60.5489C360.82 60.5091 355.334 60.4593 349.854 60.3597Z" fill="#EBEBEB"/>
<path d="M349.854 55.805C355.334 55.7005 360.82 55.6557 366.301 55.6159L382.749 55.5562L399.197 55.6109L407.421 55.6806L415.645 55.805L407.421 55.9295L399.197 55.9992L382.749 56.0539L366.301 55.9942C360.82 55.9544 355.334 55.9046 349.854 55.805Z" fill="#EBEBEB"/>
<path d="M352.873 90.2065L361.465 88.2503L369.549 80.3058L372.834 82.501L379.359 75.9751L382.926 78.1106L385.207 76.1991L391.732 83.0883L400.259 72.8242L407.28 80.3058L415.643 76.4779" stroke="#455A64" stroke-miterlimit="10"/>
<path d="M361.475 89.0368C361.95 89.0368 362.335 88.6512 362.335 88.1756C362.335 87.7 361.95 87.3145 361.475 87.3145C361 87.3145 360.615 87.7 360.615 88.1756C360.615 88.6512 361 89.0368 361.475 89.0368Z" fill="#455A64"/>
<path d="M370.325 80.3753C370.325 80.8532 369.937 81.2365 369.465 81.2365C368.993 81.2365 368.605 80.8482 368.605 80.3753C368.605 79.9024 368.993 79.5142 369.465 79.5142C369.937 79.5142 370.325 79.9024 370.325 80.3753Z" fill="#455A64"/>
<path d="M380.293 76.0396C380.293 76.5175 379.905 76.9008 379.433 76.9008C378.961 76.9008 378.573 76.5125 378.573 76.0396C378.573 75.5667 378.961 75.1785 379.433 75.1785C379.905 75.1785 380.293 75.5667 380.293 76.0396Z" fill="#455A64"/>
<path d="M383.791 78.1453C383.791 78.6232 383.403 79.0065 382.931 79.0065C382.459 79.0065 382.071 78.6182 382.071 78.1453C382.071 77.6724 382.459 77.2842 382.931 77.2842C383.403 77.2842 383.791 77.6724 383.791 78.1453Z" fill="#455A64"/>
<path d="M386.082 76.2635C386.082 76.7414 385.694 77.1246 385.222 77.1246C384.75 77.1246 384.362 76.7364 384.362 76.2635C384.362 75.7906 384.75 75.4023 385.222 75.4023C385.694 75.4023 386.082 75.7906 386.082 76.2635Z" fill="#455A64"/>
<path d="M400.179 73.6854C400.654 73.6854 401.039 73.2999 401.039 72.8243C401.039 72.3487 400.654 71.9631 400.179 71.9631C399.704 71.9631 399.319 72.3487 399.319 72.8243C399.319 73.2999 399.704 73.6854 400.179 73.6854Z" fill="#455A64"/>
<path d="M407.409 81.0426C407.884 81.0426 408.269 80.6571 408.269 80.1815C408.269 79.7059 407.884 79.3203 407.409 79.3203C406.935 79.3203 406.55 79.7059 406.55 80.1815C406.55 80.6571 406.935 81.0426 407.409 81.0426Z" fill="#455A64"/>
<path d="M416.504 76.5972C416.504 77.0751 416.116 77.4584 415.644 77.4584C415.172 77.4584 414.784 77.0701 414.784 76.5972C414.784 76.1243 415.172 75.7361 415.644 75.7361C416.116 75.7361 416.504 76.1243 416.504 76.5972Z" fill="#455A64"/>
<path d="M392.572 83.0235C392.572 83.5014 392.184 83.8847 391.712 83.8847C391.24 83.8847 390.853 83.4964 390.853 83.0235C390.853 82.5506 391.24 82.1624 391.712 82.1624C392.184 82.1624 392.572 82.5506 392.572 83.0235Z" fill="#455A64"/>
<path d="M352.873 90.1517L361.857 80.3057L365.534 82.2471L375.234 72.3712L377.908 74.5664L382.504 70.5991L391.284 76.9308L393.208 74.7356L398.142 79.2903L405.412 72.8242L410.013 76.7616L415.643 75.2434" stroke="#263238" stroke-miterlimit="10"/>
<path d="M361.787 81.3314C362.262 81.3314 362.647 80.9459 362.647 80.4703C362.647 79.9947 362.262 79.6091 361.787 79.6091C361.313 79.6091 360.928 79.9947 360.928 80.4703C360.928 80.9459 361.313 81.3314 361.787 81.3314Z" fill="#263238"/>
<path d="M366.349 82.1976C366.349 82.6754 365.962 83.0587 365.49 83.0587C365.017 83.0587 364.63 82.6705 364.63 82.1976C364.63 81.7247 365.017 81.3364 365.49 81.3364C365.962 81.3364 366.349 81.7247 366.349 82.1976Z" fill="#263238"/>
<path d="M375.98 72.4312C375.98 72.9091 375.592 73.2924 375.12 73.2924C374.648 73.2924 374.261 72.9041 374.261 72.4312C374.261 71.9583 374.648 71.5701 375.12 71.5701C375.592 71.5701 375.98 71.9583 375.98 72.4312Z" fill="#263238"/>
<path d="M378.872 74.5367C378.872 75.0146 378.484 75.3978 378.012 75.3978C377.54 75.3978 377.152 75.0096 377.152 74.5367C377.152 74.0638 377.54 73.6755 378.012 73.6755C378.484 73.6755 378.872 74.0638 378.872 74.5367Z" fill="#263238"/>
<path d="M383.374 70.5992C383.374 71.0771 382.986 71.4603 382.514 71.4603C382.042 71.4603 381.654 71.0721 381.654 70.5992C381.654 70.1263 382.042 69.738 382.514 69.738C382.986 69.738 383.374 70.1263 383.374 70.5992Z" fill="#263238"/>
<path d="M391.23 77.767C391.705 77.767 392.089 77.3814 392.089 76.9058C392.089 76.4302 391.705 76.0447 391.23 76.0447C390.755 76.0447 390.37 76.4302 390.37 76.9058C390.37 77.3814 390.755 77.767 391.23 77.767Z" fill="#263238"/>
<path d="M393.967 74.7654C393.967 75.2433 393.58 75.6266 393.108 75.6266C392.636 75.6266 392.248 75.2383 392.248 74.7654C392.248 74.2926 392.636 73.9043 393.108 73.9043C393.58 73.9043 393.967 74.2926 393.967 74.7654Z" fill="#263238"/>
<path d="M398.897 79.3204C398.897 79.7982 398.509 80.1815 398.037 80.1815C397.565 80.1815 397.178 79.7933 397.178 79.3204C397.178 78.8475 397.565 78.4592 398.037 78.4592C398.509 78.4592 398.897 78.8475 398.897 79.3204Z" fill="#263238"/>
<path d="M406.331 73.0382C406.331 73.516 405.943 73.8993 405.471 73.8993C404.999 73.8993 404.611 73.511 404.611 73.0382C404.611 72.5653 404.999 72.177 405.471 72.177C405.943 72.177 406.331 72.5653 406.331 73.0382Z" fill="#263238"/>
<path d="M410.053 77.6378C410.528 77.6378 410.913 77.2523 410.913 76.7767C410.913 76.3011 410.528 75.9155 410.053 75.9155C409.578 75.9155 409.193 76.3011 409.193 76.7767C409.193 77.2523 409.578 77.6378 410.053 77.6378Z" fill="#263238"/>
<path d="M416.504 75.1788C416.504 75.6566 416.116 76.0399 415.644 76.0399C415.172 76.0399 414.784 75.6517 414.784 75.1788C414.784 74.7059 415.172 74.3176 415.644 74.3176C416.116 74.3176 416.504 74.7059 416.504 75.1788Z" fill="#263238"/>
<path d="M353.072 89.9575L364.029 83.6557L369.938 86.3238L373.172 85.2337L376.626 87.3691L383.662 82.1972L386.435 84.4472L389.446 83.5462L394.351 86.3238L402.043 82.6452L406.948 86.3238L415.644 80.0618" stroke="#FFC727" stroke-miterlimit="10"/>
<path d="M364.893 83.6558C364.893 84.1337 364.506 84.517 364.033 84.517C363.561 84.517 363.174 84.1287 363.174 83.6558C363.174 83.1829 363.561 82.7947 364.033 82.7947C364.506 82.7947 364.893 83.1829 364.893 83.6558Z" fill="#FFC727"/>
<path d="M369.938 87.1552C370.413 87.1552 370.797 86.7696 370.797 86.294C370.797 85.8184 370.413 85.4329 369.938 85.4329C369.463 85.4329 369.078 85.8184 369.078 86.294C369.078 86.7696 369.463 87.1552 369.938 87.1552Z" fill="#FFC727"/>
<path d="M373.182 86.2443C373.657 86.2443 374.042 85.8587 374.042 85.3831C374.042 84.9075 373.657 84.522 373.182 84.522C372.707 84.522 372.322 84.9075 372.322 85.3831C372.322 85.8587 372.707 86.2443 373.182 86.2443Z" fill="#FFC727"/>
<path d="M377.536 87.3143C377.536 87.7921 377.148 88.1754 376.676 88.1754C376.204 88.1754 375.816 87.7872 375.816 87.3143C375.816 86.8414 376.204 86.4531 376.676 86.4531C377.148 86.4531 377.536 86.8414 377.536 87.3143Z" fill="#FFC727"/>
<path d="M387.26 84.3228C387.26 84.8007 386.873 85.184 386.401 85.184C385.929 85.184 385.541 84.7957 385.541 84.3228C385.541 83.8499 385.929 83.4617 386.401 83.4617C386.873 83.4617 387.26 83.8499 387.26 84.3228Z" fill="#FFC727"/>
<path d="M394.316 87.1105C394.791 87.1105 395.175 86.7249 395.175 86.2493C395.175 85.7737 394.791 85.3882 394.316 85.3882C393.841 85.3882 393.456 85.7737 393.456 86.2493C393.456 86.7249 393.841 87.1105 394.316 87.1105Z" fill="#FFC727"/>
<path d="M407.072 87.1105C407.546 87.1105 407.931 86.7249 407.931 86.2493C407.931 85.7737 407.546 85.3882 407.072 85.3882C406.597 85.3882 406.212 85.7737 406.212 86.2493C406.212 86.7249 406.597 87.1105 407.072 87.1105Z" fill="#FFC727"/>
<path d="M383.608 83.0187C384.082 83.0187 384.467 82.6331 384.467 82.1575C384.467 81.6819 384.082 81.2964 383.608 81.2964C383.133 81.2964 382.748 81.6819 382.748 82.1575C382.748 82.6331 383.133 83.0187 383.608 83.0187Z" fill="#FFC727"/>
<path d="M389.506 84.517C389.981 84.517 390.366 84.1314 390.366 83.6558C390.366 83.1802 389.981 82.7947 389.506 82.7947C389.031 82.7947 388.646 83.1802 388.646 83.6558C388.646 84.1314 389.031 84.517 389.506 84.517Z" fill="#FFC727"/>
<path d="M402.834 82.5958C402.834 83.0736 402.446 83.4569 401.974 83.4569C401.502 83.4569 401.114 83.0687 401.114 82.5958C401.114 82.1229 401.502 81.7346 401.974 81.7346C402.446 81.7346 402.834 82.1229 402.834 82.5958Z" fill="#FFC727"/>
<path d="M416.504 80.0616C416.504 80.5395 416.116 80.9227 415.644 80.9227C415.172 80.9227 414.784 80.5345 414.784 80.0616C414.784 79.5887 415.172 79.2004 415.644 79.2004C416.116 79.2004 416.504 79.5887 416.504 80.0616Z" fill="#FFC727"/>
<path d="M352.154 53.6697L352.254 64.4216L352.318 75.1785L352.368 85.9305L352.388 96.6874L352.154 96.4535L367.812 96.4485L383.47 96.4734L399.123 96.553L414.781 96.6874L399.123 96.8218L383.47 96.9015L367.812 96.9263L352.154 96.9214H351.921V96.6874L351.941 85.9305L351.99 75.1785L352.055 64.4216L352.154 53.6697Z" fill="#EBEBEB"/>
<path d="M83.5161 108.926H0.124023V174.856H83.5161V108.926Z" fill="white"/>
<path d="M83.5163 174.856L0.124228 174.926H0.0546684V174.856L0 108.926V108.802H0.124228L83.5163 108.866H83.576V108.926L83.5163 174.856ZM83.5163 174.856L83.4567 108.926L83.5163 108.986L0.124228 109.05L0.248457 108.926L0.193804 174.856L0.124228 174.787L83.5163 174.856Z" fill="#263238"/>
<path d="M83.6161 108.926H0.0302734V114.476H83.6161V108.926Z" fill="#37474F"/>
<path d="M4.43339 111.703C4.43339 112.465 3.81721 113.077 3.0619 113.077C2.30659 113.077 1.69043 112.46 1.69043 111.703C1.69043 110.947 2.30659 110.329 3.0619 110.329C3.81721 110.329 4.43339 110.947 4.43339 111.703Z" fill="#C7C7C7"/>
<path d="M8.66737 113.077C9.42482 113.077 10.0389 112.462 10.0389 111.703C10.0389 110.944 9.42482 110.329 8.66737 110.329C7.90992 110.329 7.2959 110.944 7.2959 111.703C7.2959 112.462 7.90992 113.077 8.66737 113.077Z" fill="white"/>
<path d="M15.6531 111.703C15.6531 112.465 15.037 113.077 14.2816 113.077C13.5263 113.077 12.9102 112.46 12.9102 111.703C12.9102 110.947 13.5263 110.329 14.2816 110.329C15.037 110.329 15.6531 110.947 15.6531 111.703Z" fill="#2E68B8"/>
<path d="M13.9968 163.696H10.9756V166.723H13.9968V163.696Z" fill="#2E68B8"/>
<path d="M16.8145 164.488C17.8431 164.403 18.8717 164.363 19.9003 164.328C20.9289 164.293 22.7923 164.328 22.7923 164.328L24.3327 164.388C24.8446 164.423 25.3614 164.443 25.8732 164.488C25.3614 164.532 24.8446 164.552 24.3327 164.587L22.7923 164.647C22.7923 164.647 20.9289 164.682 19.9003 164.647C18.8717 164.612 17.8431 164.572 16.8145 164.488Z" fill="#C7C7C7"/>
<path d="M16.8145 166.001C17.8381 165.916 18.8617 165.876 19.8854 165.841C20.909 165.806 22.5985 165.896 22.5985 165.896C23.1103 165.931 23.6222 165.951 24.134 165.996C23.6222 166.04 23.1103 166.06 22.5985 166.095C22.5985 166.095 20.909 166.185 19.8854 166.15C18.8617 166.115 17.8381 166.075 16.8145 165.991V166.001Z" fill="#C7C7C7"/>
<path opacity="0.5" d="M10.9746 148.14C12.9573 148.14 14.1399 141.609 16.9475 141.609C19.7551 141.609 20.0532 146.373 22.4185 146.373C24.7838 146.373 24.7093 138.006 27.8895 138.006C31.0698 138.006 30.3294 141.4 33.6537 141.4C36.9781 141.4 35.7209 133.516 39.1943 133.516C42.6678 133.516 41.2615 144.377 44.884 144.377C47.1748 144.377 48.0642 140.928 50.7973 140.928C52.606 140.928 53.6744 142.655 56.0447 142.655C58.415 142.655 58.9268 136.019 61.8834 136.019C64.8401 136.019 65.178 139.947 67.3544 139.947C69.5309 139.947 70.3111 133.516 74.3013 133.516V158.952H10.9796V148.14H10.9746Z" fill="#2E68B8"/>
<path d="M10.9746 148.454V147.827C11.5759 147.827 12.4008 146.303 13.007 145.188C14.0455 143.277 15.1189 141.296 16.9475 141.296C18.7762 141.296 19.5812 142.744 20.3514 144.024C20.9526 145.024 21.5788 146.059 22.4185 146.059C23.1589 146.059 23.8 144.048 24.2671 142.58C25.0323 140.176 25.8274 137.687 27.8895 137.687C29.7281 137.687 30.4536 138.663 31.0897 139.524C31.7108 140.36 32.2425 141.082 33.6537 141.082C34.9308 141.082 35.4327 139.24 35.9147 137.458C36.4862 135.362 37.0725 133.197 39.1943 133.197C41.3162 133.197 41.8379 135.925 42.4094 138.812C42.8715 141.146 43.443 144.058 44.884 144.058C45.7437 144.058 46.4493 143.342 47.1947 142.58C48.104 141.654 49.1326 140.604 50.7923 140.604C51.7911 140.604 52.5663 141.032 53.3216 141.445C54.1117 141.878 54.9266 142.326 56.0348 142.326C56.8547 142.326 57.605 140.748 58.2063 139.479C59.0908 137.617 60.0001 135.691 61.8784 135.691C63.7568 135.691 64.6562 136.945 65.4662 138.05C66.0575 138.857 66.614 139.618 67.3495 139.618C67.9756 139.618 68.6812 138.399 69.3073 137.319C70.3757 135.477 71.7024 133.187 74.2963 133.187V133.814C72.2987 133.814 71.1459 135.8 70.1322 137.553C69.2626 139.056 68.5719 140.24 67.3495 140.24C66.1271 140.24 65.3966 139.315 64.6761 138.334C63.9506 137.343 63.2002 136.318 61.8784 136.318C60.6461 136.318 59.7964 138.105 59.051 139.678C58.2162 141.435 57.4957 142.953 56.0397 142.953C54.5838 142.953 53.6446 142.416 52.78 141.938C52.0892 141.555 51.488 141.226 50.7973 141.226C49.6047 141.226 48.75 142.092 47.9301 142.928C47.0853 143.785 46.2157 144.676 44.889 144.676C42.6727 144.676 42.1212 141.863 41.5298 138.887C41.0826 136.627 40.531 133.809 39.1993 133.809C37.8676 133.809 37.2713 135.8 36.7893 137.562C36.2129 139.688 35.6663 141.694 33.6537 141.694C31.6412 141.694 30.9605 140.688 30.2996 139.797C29.7033 138.991 29.1915 138.299 27.8895 138.299C26.5876 138.299 25.7628 140.738 25.1367 142.7C24.431 144.915 23.8695 146.667 22.4235 146.667C20.9775 146.667 20.2917 145.492 19.5414 144.248C18.8457 143.093 18.1302 141.903 16.9574 141.903C15.7847 141.903 14.6866 143.834 13.8468 145.392C12.9225 147.095 12.197 148.434 10.9845 148.434L10.9746 148.454Z" fill="#2E68B8"/>
<path d="M9.33984 127.089C20.1676 127.02 30.9904 127.04 41.8181 127.01C52.6459 127.04 63.4687 127.02 74.2964 127.089C63.4687 127.159 52.6459 127.139 41.8181 127.169C30.9904 127.139 20.1676 127.159 9.33984 127.089Z" fill="#C7C7C7"/>
<path d="M9.33984 133.515C20.1676 133.446 30.9904 133.466 41.8181 133.436C52.6459 133.466 63.4687 133.446 74.2964 133.515C63.4687 133.585 52.6459 133.565 41.8181 133.595C30.9904 133.565 20.1676 133.585 9.33984 133.515Z" fill="#C7C7C7"/>
<path d="M9.33984 139.947C20.1676 139.877 30.9904 139.897 41.8181 139.867C52.6459 139.897 63.4687 139.877 74.2964 139.947C63.4687 140.017 52.6459 139.997 41.8181 140.026C30.9904 139.997 20.1676 140.017 9.33984 139.947Z" fill="#C7C7C7"/>
<path d="M9.33984 146.373C20.1676 146.304 30.9904 146.324 41.8181 146.294C52.6459 146.324 63.4687 146.304 74.2964 146.373C63.4687 146.443 52.6459 146.423 41.8181 146.453C30.9904 146.423 20.1676 146.443 9.33984 146.373Z" fill="#C7C7C7"/>
<path d="M9.33984 152.804C20.1676 152.735 30.9904 152.755 41.8181 152.725C52.6459 152.755 63.4687 152.735 74.2964 152.804C63.4687 152.874 52.6459 152.854 41.8181 152.884C30.9904 152.854 20.1676 152.874 9.33984 152.804Z" fill="#C7C7C7"/>
<path d="M22.4189 122.908C22.5133 128.916 22.4885 134.924 22.5282 140.933C22.4885 146.941 22.5133 152.949 22.4189 158.957C22.3245 152.949 22.3493 146.941 22.3096 140.933C22.3493 134.924 22.3245 128.916 22.4189 122.908Z" fill="#C7C7C7"/>
<path d="M33.6542 122.908C33.7487 128.916 33.7238 134.924 33.7636 140.933C33.7238 146.941 33.7487 152.949 33.6542 158.957C33.5598 152.949 33.5847 146.941 33.5449 140.933C33.5847 134.924 33.5598 128.916 33.6542 122.908Z" fill="#C7C7C7"/>
<path d="M44.8837 122.908C44.9781 128.916 44.9533 134.924 44.9931 140.933C44.9533 146.941 44.9781 152.949 44.8837 158.957C44.7893 152.949 44.8142 146.941 44.7744 140.933C44.8142 134.924 44.7893 128.916 44.8837 122.908Z" fill="#C7C7C7"/>
<path d="M56.1191 122.908C56.2135 128.916 56.1887 134.924 56.2284 140.933C56.1887 146.941 56.2135 152.949 56.1191 158.957C56.0247 152.949 56.0495 146.941 56.0098 140.933C56.0495 134.924 56.0247 128.916 56.1191 122.908Z" fill="#C7C7C7"/>
<path d="M67.3496 122.908C67.444 128.916 67.4191 134.924 67.4589 140.933C67.4191 146.941 67.444 152.949 67.3496 158.957C67.2551 152.949 67.28 146.941 67.2402 140.933C67.28 134.924 67.2551 128.916 67.3496 122.908Z" fill="#C7C7C7"/>
<path d="M10.9743 123.296C11.0439 129.24 11.1085 135.178 11.1135 141.122L11.183 158.947L10.9743 158.803L42.6327 158.843L58.4644 158.872L74.296 158.952L58.4644 159.032L42.6327 159.062L10.9743 159.096H10.7656V158.947L10.8352 141.122C10.8402 135.178 10.9048 129.235 10.9743 123.296Z" fill="#C7C7C7"/>
<path d="M194.59 204.331C193.522 204.679 163.081 204.411 161.928 203.664C161.491 203.385 161.267 198.94 161.158 193.564C161.133 192.404 158.832 173.688 158.832 173.688L179.186 173.807L180.786 193.679C180.786 193.679 192.394 199.005 193.576 199.956C194.749 200.911 195.663 203.983 194.595 204.326L194.59 204.331Z" fill="#F7A9A0"/>
<path d="M160.864 190.737C161.028 192.25 161.143 193.315 161.147 193.564C161.262 198.94 161.48 203.385 161.923 203.664C163.076 204.41 193.521 204.679 194.585 204.331C195.653 203.982 194.739 200.911 193.566 199.96C192.388 199.005 180.776 193.678 180.776 193.678L180.537 190.737H160.864Z" fill="white"/>
<path d="M194.591 204.331C193.522 204.68 163.081 204.411 161.928 203.664C161.491 203.385 161.268 198.94 161.158 193.564L180.786 193.679C180.786 193.679 192.394 199.005 193.577 199.956C194.75 200.911 195.664 203.983 194.596 204.326L194.591 204.331Z" fill="#83C8FC"/>
<path d="M194.164 203.107C189.06 202.937 168.468 202.728 163.41 202.952C163.37 202.952 163.37 202.982 163.41 202.982C168.463 203.261 189.06 203.301 194.164 203.191C194.273 203.191 194.273 203.112 194.164 203.107Z" fill="#263238"/>
<path d="M182.755 194.206C180.712 194.162 178.337 194.863 177.055 196.526C177.005 196.591 177.1 196.66 177.159 196.631C179.013 195.695 180.777 194.998 182.789 194.46C182.933 194.42 182.904 194.211 182.755 194.206Z" fill="#263238"/>
<path d="M184.33 194.839C182.287 194.794 179.912 195.496 178.63 197.158C178.58 197.223 178.675 197.293 178.735 197.263C180.588 196.327 182.352 195.63 184.365 195.093C184.509 195.053 184.479 194.844 184.33 194.839Z" fill="#263238"/>
<path d="M185.9 195.466C183.858 195.421 181.483 196.123 180.2 197.781C180.151 197.845 180.245 197.915 180.305 197.885C182.158 196.949 183.922 196.252 185.935 195.715C186.079 195.675 186.049 195.466 185.9 195.461V195.466Z" fill="#263238"/>
<path d="M187.469 196.098C185.427 196.053 183.052 196.755 181.77 198.418C181.72 198.482 181.815 198.552 181.874 198.522C183.728 197.586 185.492 196.889 187.504 196.352C187.648 196.312 187.618 196.103 187.469 196.098Z" fill="#263238"/>
<path d="M129.846 98.1406C129.846 98.1406 152.982 138.704 153.583 141.542C154.503 145.897 159.785 193.967 159.785 193.967L182.558 193.828C182.558 193.828 178.131 150.845 174.27 138.331C172.163 131.502 161.077 112.979 155.879 103.84C155.412 103.024 155.551 99.2855 155.551 99.2855L129.846 98.1406Z" fill="#37474F"/>
<path d="M180.368 190.02C176.835 189.95 166.146 189.656 161.44 190.035C161.405 190.035 161.405 190.1 161.44 190.105C163.055 190.358 176.835 190.189 180.368 190.119C180.432 190.119 180.432 190.025 180.368 190.02Z" fill="#263238"/>
<path d="M133.836 101.884C135.357 104.338 136.962 106.737 138.512 109.171C140.067 111.606 141.618 114.04 143.143 116.489C146.199 121.382 149.171 126.33 152.083 131.303C153.449 133.637 154.751 135.992 155.68 138.525C156.6 141.039 157.216 143.652 157.658 146.281C158.105 148.929 158.393 151.602 158.657 154.275C158.94 157.122 159.218 159.964 159.502 162.812C160.078 168.636 161.305 179.552 161.882 185.376C161.951 186.088 162.021 186.805 162.086 187.521C162.095 187.626 161.907 187.646 161.897 187.541C161.246 181.757 160.063 170.856 159.477 165.062C159.184 162.18 158.895 159.292 158.602 156.41C158.329 153.727 158.075 151.044 157.693 148.376C157.315 145.753 156.818 143.14 156.058 140.601C155.258 137.943 154.115 135.444 152.749 133.02C149.961 128.062 147.004 123.184 144.048 118.321C141.066 113.413 138.055 108.524 134.934 103.701C134.547 103.104 134.159 102.511 133.761 101.929C133.732 101.884 133.811 101.839 133.836 101.889V101.884Z" fill="#263238"/>
<path d="M139.006 205.989C137.888 205.904 109.082 193.798 108.287 192.678C108.262 192.638 108.247 192.569 108.247 192.464C108.267 191.469 110.314 187.999 112.043 183.444C112.153 183.151 122.036 166.426 122.036 166.426L140.864 174.191L130.191 190.931C130.191 190.931 138.956 200.234 139.692 201.559C140.422 202.883 140.119 206.073 139.001 205.999L139.006 205.989Z" fill="#F7A9A0"/>
<path d="M108.247 192.459C108.247 192.564 108.262 192.638 108.287 192.673C109.082 193.798 137.883 205.904 139.006 205.989C140.119 206.063 140.422 202.873 139.692 201.549C138.961 200.224 130.191 190.921 130.191 190.921L131.801 188.397L113.584 180.776C112.68 182.319 112.068 183.37 112.043 183.439C110.309 187.999 108.262 191.464 108.247 192.459Z" fill="white"/>
<path d="M139.006 205.989C137.888 205.909 109.082 193.803 108.292 192.678C107.989 192.255 109.331 188.308 112.044 183.444L130.196 190.926C130.196 190.926 138.962 200.224 139.697 201.553C140.428 202.877 140.124 206.068 139.006 205.989Z" fill="#83C8FC"/>
<path d="M139.067 204.695C134.401 202.619 115.389 194.69 110.618 192.992C110.578 192.977 110.569 193.002 110.608 193.022C115.19 195.183 134.266 202.958 139.037 204.77C139.136 204.81 139.166 204.735 139.067 204.69V204.695Z" fill="#263238"/>
<path d="M131.827 192.156C129.953 191.344 127.488 191.105 125.675 192.161C125.605 192.201 125.665 192.3 125.729 192.295C127.802 192.126 129.695 192.141 131.762 192.4C131.906 192.42 131.961 192.211 131.827 192.156Z" fill="#263238"/>
<path d="M133.049 193.331C131.176 192.519 128.711 192.28 126.897 193.336C126.828 193.375 126.887 193.475 126.952 193.47C129.024 193.301 130.917 193.316 132.985 193.575C133.129 193.594 133.183 193.385 133.049 193.331Z" fill="#263238"/>
<path d="M134.271 194.5C132.397 193.689 129.933 193.45 128.119 194.505C128.049 194.545 128.109 194.645 128.174 194.64C130.246 194.465 132.139 194.485 134.206 194.744C134.35 194.764 134.405 194.555 134.271 194.5Z" fill="#263238"/>
<path d="M135.489 195.675C133.615 194.864 131.151 194.625 129.337 195.68C129.267 195.72 129.327 195.819 129.391 195.814C131.464 195.64 133.357 195.66 135.424 195.919C135.568 195.939 135.623 195.73 135.489 195.675Z" fill="#263238"/>
<path d="M130.886 191.454L109.812 182.623C109.812 182.623 138.777 139.725 139.005 136.848C139.209 134.299 127.949 111.964 127.571 105.493C127.169 98.5091 130.587 93.1481 134.314 89.8379L155.552 99.2807C155.552 99.2807 153.694 103.079 150.037 105.09C150.037 105.09 160.924 130.879 160.194 138.759C159.458 146.684 130.881 191.449 130.881 191.449L130.886 191.454Z" fill="#37474F"/>
<path d="M131.874 187.432C128.828 186.073 129.722 186.421 126.661 185.097C125.16 184.45 115.312 180.204 113.811 179.845C113.776 179.835 113.756 179.89 113.786 179.91C115.093 180.736 125.016 184.808 126.527 185.425C129.613 186.69 128.743 186.292 131.839 187.521C131.899 187.546 131.933 187.456 131.879 187.432H131.874Z" fill="#263238"/>
<path d="M153.644 104.671C151.363 105.134 149.117 105.911 146.966 106.752C146.881 106.787 146.921 106.911 147.01 106.886C149.251 106.259 151.532 105.677 153.733 104.935C153.907 104.875 153.823 104.642 153.649 104.676L153.644 104.671Z" fill="#263238"/>
<path d="M151.06 103.736C150.841 104.109 150.653 104.502 150.484 104.9C150.354 105.209 150.186 105.543 150.186 105.881C150.186 105.946 150.275 105.966 150.315 105.926C150.573 105.677 150.712 105.314 150.876 105.005C151.065 104.647 151.264 104.293 151.443 103.925C151.562 103.681 151.194 103.507 151.06 103.736Z" fill="#263238"/>
<path d="M151.354 101.685C151.493 101.351 151.632 101.013 151.776 100.684C151.925 100.341 152.099 100.002 152.223 99.6487C152.243 99.594 152.333 99.6338 152.308 99.6886C152.169 100.022 152.079 100.385 151.965 100.729C151.856 101.077 151.736 101.421 151.617 101.764C151.393 102.406 151.125 103.044 150.842 103.661C151.2 103.661 151.567 103.651 151.895 103.492C152.248 103.322 152.467 102.949 152.646 102.611C152.844 102.237 153.023 101.854 153.227 101.481C153.451 101.067 153.699 100.664 153.848 100.216C153.868 100.161 153.953 100.196 153.933 100.256C153.595 101.177 153.257 102.093 152.735 102.939C152.531 103.273 152.362 103.616 151.99 103.745C151.592 103.88 151.155 103.85 150.743 103.815C150.693 103.83 150.623 103.795 150.643 103.735C150.847 103.049 151.075 102.352 151.349 101.69L151.354 101.685Z" fill="#263238"/>
<path d="M150.369 105.935C151.124 107.593 151.785 109.246 152.496 110.898C153.186 112.511 153.827 114.144 154.453 115.786C155.716 119.102 156.844 122.471 157.823 125.881C158.309 127.569 158.757 129.266 159.154 130.974C159.557 132.686 159.949 134.418 160.103 136.175C160.257 137.937 160.113 139.675 159.601 141.372C159.085 143.094 156.257 149.496 155.224 150.82C154.553 151.686 154.573 151.666 154.811 151.168C155.482 149.765 159.671 142.034 159.616 137.589C159.596 135.852 159.179 133.816 158.806 132.123C158.429 130.396 157.996 128.679 157.524 126.971C156.595 123.611 155.482 120.316 154.339 117.021C153.698 115.179 153.007 113.352 152.356 111.51C151.701 109.654 151.02 107.986 150.289 105.96C150.269 105.906 150.349 105.876 150.369 105.93V105.935Z" fill="#263238"/>
<path d="M134.358 100.291C134.741 100.156 135.263 100.395 135.65 100.465C136.147 100.554 136.644 100.609 137.151 100.634C137.648 100.659 138.145 100.644 138.642 100.599C139.134 100.559 139.64 100.505 140.073 100.241C140.803 99.7979 141.414 99.0114 141.916 98.3294C142.463 97.5828 143.034 96.7216 143.362 95.8555C143.382 95.8007 143.457 95.8405 143.442 95.8903C143.278 96.3981 143.154 96.9108 142.94 97.4036C142.741 97.8665 142.493 98.3145 142.224 98.7426C141.727 99.544 141.156 100.395 140.311 100.863C139.427 101.356 138.294 101.311 137.315 101.241C136.748 101.202 136.187 101.122 135.63 100.998C135.233 100.908 134.557 100.833 134.304 100.48C134.259 100.415 134.284 100.321 134.358 100.296V100.291Z" fill="#263238"/>
<path d="M115.903 178.656C119.451 173.419 125.16 163.598 128.579 158.282C132.008 152.95 135.377 147.579 138.701 142.179C139.496 140.889 140.41 139.6 140.932 138.162C141.499 136.603 141.206 135.08 140.728 133.542C139.859 130.72 138.761 127.972 137.578 125.269C136.39 122.556 135.108 119.888 133.846 117.21C132.594 114.552 131.262 111.889 130.323 109.101C129.429 106.438 129.106 103.686 129.851 100.948C130.591 98.23 132.152 95.8009 133.782 93.531C134.209 92.9337 134.646 92.3413 135.079 91.744C135.113 91.6992 135.178 91.7539 135.148 91.7987C133.354 94.1582 131.605 96.662 130.537 99.4446C130.01 100.818 129.662 102.272 129.608 103.75C129.558 105.249 129.816 106.737 130.244 108.171C131.068 110.958 132.385 113.601 133.618 116.225C134.875 118.908 136.162 121.571 137.374 124.274C138.592 126.991 139.725 129.754 140.654 132.586C141.066 133.846 141.529 135.17 141.484 136.514C141.434 137.987 140.714 139.306 139.973 140.541C136.738 145.912 133.384 151.218 129.99 156.49C126.581 161.781 120.882 171.572 117.359 176.789C116.916 177.446 116.469 178.103 116.022 178.76C115.967 178.84 115.848 178.745 115.903 178.661V178.656Z" fill="#263238"/>
<path d="M149.908 66.0042C150.942 71.7286 157.889 87.5678 162.371 90.8979C164.985 92.8392 181.457 100.51 182.496 98.7429C183.465 97.1002 183.564 84.2377 183.564 84.2377C179.698 82.9684 168.94 79.5735 167.693 79.3246C166.818 79.1554 161.039 71.7485 154.872 64.2719C151.459 60.1354 149.292 62.5894 149.908 66.0042Z" fill="#F7A9A0"/>
<path d="M180.091 82.2167L178.669 99.4546C178.669 99.4546 165.148 94.3674 161.223 90.8979C157.297 87.4284 151.379 74.3468 149.724 67.5124C148.069 60.6779 151.26 59.324 156.646 65.6109C161.079 70.7828 166.927 78.1001 167.742 78.5082C168.557 78.9164 180.091 82.2217 180.091 82.2217V82.2167Z" fill="#FF5F81"/>
<path d="M151.936 68.3386C151.832 68.4182 151.742 68.468 151.633 68.4929C151.419 68.5327 151.21 68.473 151.066 68.3137C150.838 68.0947 150.46 68.03 150.187 68.1644C150.092 68.1992 150.008 68.2689 149.943 68.3435C149.958 68.4083 149.973 68.473 149.998 68.5427C150.092 68.463 150.172 68.4282 150.271 68.4033C150.48 68.3485 150.704 68.4033 150.843 68.5476C151.061 68.7816 151.424 68.8563 151.712 68.7318C151.856 68.6771 151.976 68.5626 152.055 68.4531C152.125 68.3386 152.204 68.234 152.269 68.1146C152.15 68.1892 152.045 68.2689 151.936 68.3386ZM159.434 68.906C159.415 69.0056 159.39 69.0753 159.345 69.1549C159.231 69.3391 159.042 69.4486 158.833 69.4486C158.525 69.4387 158.207 69.6477 158.093 69.9414C158.028 70.0808 158.023 70.2451 158.053 70.3745C158.078 70.5089 158.093 70.6333 158.128 70.7627C158.162 70.6333 158.182 70.5089 158.207 70.3745C158.222 70.2451 158.262 70.1505 158.316 70.0509C158.436 69.8717 158.624 69.7672 158.843 69.7722C159.171 69.7672 159.469 69.5482 159.574 69.2545C159.588 69.2097 159.603 69.1599 159.608 69.1101C159.549 69.0454 159.494 68.9757 159.434 68.906ZM178.804 89.5438C178.769 89.4194 178.754 89.2899 178.72 89.1555C178.68 89.2899 178.665 89.4194 178.645 89.5438C178.63 89.6931 178.595 89.7827 178.541 89.8823C178.426 90.0665 178.238 90.176 178.029 90.176C177.721 90.166 177.403 90.3751 177.289 90.6738C177.224 90.8082 177.219 90.9724 177.254 91.1018C177.274 91.2362 177.289 91.3657 177.323 91.4901C177.358 91.3657 177.378 91.2362 177.403 91.1018C177.418 90.9724 177.457 90.8778 177.512 90.7833C177.631 90.5991 177.825 90.4946 178.039 90.5045C178.367 90.4946 178.665 90.2805 178.769 89.9868C178.824 89.8425 178.819 89.6732 178.804 89.5438ZM163.315 84.7004C163.285 84.571 163.271 84.4466 163.236 84.3122C163.196 84.4466 163.181 84.571 163.156 84.7004C163.141 84.8448 163.107 84.9394 163.052 85.034C162.943 85.2181 162.754 85.3326 162.545 85.3326C162.232 85.3227 161.914 85.5317 161.805 85.8254C161.74 85.9598 161.73 86.1291 161.765 86.2535C161.79 86.3929 161.805 86.5173 161.835 86.6468C161.874 86.5173 161.894 86.3929 161.914 86.2535C161.934 86.1291 161.969 86.0295 162.028 85.9349C162.148 85.7557 162.336 85.6512 162.55 85.6562C162.878 85.6512 163.181 85.4322 163.285 85.1385C163.34 84.9941 163.33 84.8299 163.315 84.7004ZM152.816 75.7455C152.786 75.616 152.771 75.4916 152.736 75.3572C152.696 75.4916 152.681 75.616 152.661 75.7455C152.652 75.8251 152.637 75.8898 152.617 75.9446C152.657 76.0491 152.701 76.1536 152.746 76.2632C152.766 76.2383 152.776 76.2134 152.786 76.1835C152.84 76.0441 152.835 75.8749 152.816 75.7455ZM174.526 96.6222C174.411 96.7118 174.327 96.7566 174.223 96.7914C174.014 96.8362 173.795 96.7815 173.646 96.6371C173.432 96.4181 173.06 96.3285 172.782 96.4579C172.637 96.5077 172.508 96.6222 172.439 96.7317C172.409 96.7815 172.379 96.8263 172.344 96.876C172.379 96.891 172.409 96.9059 172.444 96.9208C172.478 96.8959 172.518 96.8711 172.553 96.8462C172.652 96.7665 172.747 96.7167 172.851 96.6968C173.07 96.657 173.273 96.7167 173.428 96.8711C173.656 97.0951 174.024 97.1598 174.312 97.0204C174.446 96.9656 174.565 96.8362 174.635 96.7317C174.705 96.6222 174.789 96.5226 174.849 96.4031C174.739 96.4728 174.635 96.5525 174.526 96.6222ZM168.145 79.9069C168.036 79.9915 167.947 80.0413 167.842 80.0761C167.638 80.1209 167.415 80.0662 167.271 79.9218C167.057 79.6978 166.684 79.6132 166.401 79.7376C166.262 79.7924 166.133 79.9069 166.063 80.0164C165.989 80.1309 165.909 80.2304 165.84 80.3549C165.959 80.2802 166.063 80.2006 166.173 80.1309C166.277 80.0512 166.371 80.0014 166.476 79.9766C166.689 79.9367 166.898 80.0014 167.047 80.1508C167.281 80.3748 167.648 80.4395 167.932 80.3051C168.066 80.2503 168.185 80.1209 168.26 80.0164C168.329 79.9069 168.409 79.8023 168.473 79.6829C168.359 79.7526 168.26 79.8372 168.145 79.9069ZM172.3 85.6562C172.19 85.7458 172.101 85.7906 171.996 85.8254C171.788 85.8752 171.569 85.8204 171.42 85.6711C171.211 85.4521 170.834 85.3625 170.555 85.4919C170.411 85.5467 170.287 85.6562 170.212 85.7707C170.143 85.8802 170.063 85.9847 169.989 86.1042C170.108 86.0295 170.212 85.9548 170.327 85.8802C170.426 85.8005 170.526 85.7557 170.625 85.7308C170.844 85.691 171.047 85.7557 171.201 85.9051C171.435 86.1291 171.798 86.1938 172.086 86.0594C172.22 85.9996 172.339 85.8752 172.414 85.7707C172.483 85.6562 172.563 85.5566 172.623 85.4372C172.513 85.5068 172.414 85.5865 172.3 85.6562ZM157.546 82.3858C157.437 82.4754 157.347 82.5202 157.243 82.555C157.034 82.6048 156.816 82.555 156.667 82.4007C156.458 82.1817 156.08 82.0921 155.802 82.2215C155.713 82.2564 155.633 82.3062 155.568 82.3709L155.658 82.555C155.727 82.5102 155.802 82.4804 155.877 82.4605C156.09 82.4206 156.294 82.4854 156.448 82.6347C156.682 82.8587 157.044 82.9234 157.332 82.789C157.467 82.7293 157.586 82.6048 157.66 82.5003C157.73 82.3858 157.81 82.2862 157.869 82.1668C157.76 82.2365 157.66 82.3161 157.546 82.3858ZM178.799 83.0229C178.67 83.008 178.566 82.9732 178.481 82.9085C178.297 82.789 178.193 82.5998 178.203 82.3858C178.193 82.0573 177.979 81.7536 177.686 81.6491C177.542 81.5943 177.373 81.6043 177.244 81.6292C177.12 81.6491 176.99 81.664 176.856 81.6989C176.99 81.7387 177.12 81.7536 177.244 81.7785C177.388 81.7934 177.487 81.8233 177.582 81.883C177.761 81.9925 177.875 82.1817 177.875 82.3908C177.865 82.7044 178.074 83.0229 178.362 83.1325C178.501 83.1972 178.67 83.2071 178.799 83.1822C178.933 83.1474 179.063 83.1325 179.187 83.1026C179.063 83.0628 178.933 83.0429 178.799 83.0229ZM167.46 92.0377C167.33 92.0227 167.226 91.9879 167.142 91.9232C166.958 91.8037 166.853 91.6146 166.863 91.4005C166.853 91.072 166.64 90.7683 166.346 90.6638C166.197 90.609 166.033 90.619 165.904 90.6439C165.78 90.6638 165.651 90.6837 165.517 90.7136C165.651 90.7534 165.78 90.7683 165.904 90.7932C166.048 90.8082 166.143 90.838 166.242 90.8978C166.421 91.0073 166.535 91.2014 166.535 91.4055C166.525 91.7191 166.734 92.0377 167.022 92.1472C167.161 92.2119 167.33 92.2218 167.46 92.1969C167.594 92.1621 167.723 92.1472 167.847 92.1173C167.723 92.0775 167.594 92.0625 167.46 92.0377ZM161.243 77.1442C161.114 77.1293 161.02 77.0944 160.925 77.0397C160.741 76.9202 160.637 76.7211 160.647 76.512C160.637 76.1885 160.423 75.8848 160.13 75.7803C159.991 75.7156 159.817 75.7256 159.698 75.7504C159.564 75.7803 159.434 75.7952 159.3 75.8251C159.434 75.8699 159.564 75.8848 159.698 75.9097C159.832 75.9247 159.931 75.9446 160.026 76.0043C160.205 76.1138 160.319 76.3129 160.319 76.512C160.319 76.8306 160.518 77.1492 160.811 77.2637C160.945 77.3234 161.114 77.3234 161.243 77.3035C161.377 77.2786 161.507 77.2637 161.641 77.2239C161.507 77.189 161.377 77.1741 161.243 77.1442Z" fill="white"/>
<path opacity="0.1" d="M149.724 67.5124C151.379 74.3469 157.297 87.4284 161.218 90.8979C163.3 92.7397 168.075 95.0294 172.105 96.7816C172.14 96.7916 172.18 96.8065 172.215 96.8264L150.236 62.0618C150.117 62.0618 150.003 62.0717 149.893 62.0916C149.178 62.9379 149.068 64.7896 149.729 67.5124H149.724Z" fill="black"/>
<path d="M175.081 97.0952C175.409 94.6611 176.378 84.6608 176.442 82.4855C176.442 82.3362 176.353 82.2964 176.328 82.4507C175.175 89.7132 175.185 94.676 174.987 97.0753C174.982 97.1351 175.076 97.155 175.081 97.0903V97.0952Z" fill="#263238"/>
<path d="M126.976 98.2201C127.035 98.3147 158.44 103.183 158.773 102.899C159.24 102.506 156.542 68.8115 155.131 63.6347C154.53 61.4295 149.59 60.0158 147.195 61.4295C141.197 64.9737 134.355 79.2698 132.616 83.6303C129.734 90.8082 126.762 97.8866 126.976 98.2201Z" fill="#FF5F81"/>
<path d="M144.278 64.4658C144.253 64.3264 144.238 64.197 144.203 64.0725C144.168 64.197 144.154 64.3264 144.124 64.4658C144.109 64.6002 144.079 64.6947 144.024 64.7893C143.91 64.9735 143.711 65.093 143.513 65.088C143.373 65.088 143.229 65.1278 143.1 65.2025C142.986 65.3418 142.872 65.4812 142.757 65.6256C142.708 65.755 142.708 65.9043 142.727 66.0188C142.757 66.1433 142.772 66.2727 142.807 66.4071C142.847 66.2727 142.862 66.1433 142.881 66.0188C142.901 65.8844 142.931 65.7849 142.996 65.6903C143.115 65.5161 143.309 65.4016 143.523 65.4115C143.845 65.4115 144.154 65.1875 144.253 64.8938C144.308 64.7594 144.303 64.5852 144.278 64.4658ZM144.278 72.694C144.154 72.6741 144.054 72.6442 143.96 72.5845C143.776 72.465 143.672 72.2709 143.682 72.0518C143.672 71.7382 143.458 71.4247 143.165 71.3201C143.021 71.2654 142.852 71.2753 142.732 71.2952C142.598 71.3201 142.469 71.34 142.335 71.3799C142.469 71.4097 142.598 71.4247 142.732 71.4495C142.867 71.4645 142.966 71.4993 143.06 71.5541C143.244 71.6636 143.354 71.8627 143.354 72.0668C143.354 72.3754 143.552 72.7039 143.845 72.8085C143.985 72.8682 144.154 72.8782 144.278 72.8533C144.412 72.8234 144.541 72.8085 144.67 72.7736C144.541 72.7338 144.412 72.7189 144.278 72.694ZM152.661 98.419C152.527 98.4041 152.432 98.3692 152.338 98.3095C152.159 98.19 152.05 97.9959 152.055 97.7819C152.055 97.4533 151.836 97.1497 151.538 97.0452C151.404 96.9904 151.23 97.0003 151.11 97.0252C150.981 97.0451 150.847 97.0651 150.723 97.0949C150.847 97.1347 150.981 97.1497 151.11 97.1746C151.245 97.1945 151.344 97.2243 151.433 97.2791C151.622 97.3886 151.741 97.5827 151.741 97.7868C151.732 98.1004 151.93 98.419 152.223 98.5285C152.358 98.5932 152.532 98.6032 152.661 98.5783C152.79 98.5484 152.914 98.5285 153.053 98.4987C152.914 98.4588 152.79 98.4439 152.661 98.419ZM143.488 94.7753C143.354 94.7604 143.259 94.7205 143.165 94.6658C142.991 94.5463 142.877 94.3522 142.886 94.1381C142.886 93.8096 142.663 93.506 142.37 93.4014C142.231 93.3467 142.057 93.3467 141.937 93.3716C141.803 93.4014 141.674 93.4213 141.55 93.4512C141.674 93.491 141.803 93.506 141.937 93.5309C142.076 93.5458 142.166 93.5707 142.265 93.6354C142.449 93.7449 142.568 93.939 142.568 94.1431C142.558 94.4567 142.757 94.7753 143.055 94.8848C143.19 94.9495 143.363 94.9495 143.488 94.9296C143.617 94.9047 143.746 94.8848 143.88 94.845C143.746 94.8151 143.617 94.8002 143.488 94.7753ZM130.623 97.6325C130.488 97.6126 130.394 97.5778 130.3 97.523C130.126 97.4035 130.011 97.2094 130.021 96.9954C130.021 96.6668 129.798 96.3632 129.505 96.2587C129.365 96.2039 129.192 96.2039 129.072 96.2288C128.938 96.2587 128.809 96.2736 128.68 96.3084C128.809 96.3483 128.938 96.3632 129.072 96.3881C129.211 96.403 129.301 96.4279 129.4 96.4926C129.584 96.6021 129.703 96.7963 129.703 97.0004C129.693 97.314 129.892 97.6325 130.19 97.742C130.324 97.8067 130.498 97.8067 130.623 97.7819C130.752 97.7619 130.881 97.742 131.015 97.7022C130.881 97.6723 130.752 97.6574 130.623 97.6325ZM148.328 83.8143C148.203 83.7993 148.104 83.7695 148.01 83.7097C147.831 83.5903 147.726 83.3912 147.731 83.1871C147.726 82.8586 147.508 82.5549 147.215 82.4504C147.075 82.3857 146.902 82.3956 146.782 82.4205C146.648 82.4504 146.524 82.4653 146.385 82.5002C146.524 82.54 146.648 82.5549 146.782 82.5798C146.921 82.5947 147.016 82.6196 147.11 82.6744C147.294 82.7889 147.403 82.983 147.403 83.1871C147.403 83.5007 147.607 83.8242 147.9 83.9338C148.034 83.9985 148.203 83.9985 148.328 83.9736C148.467 83.9487 148.591 83.9338 148.725 83.8939C148.591 83.8641 148.467 83.8441 148.328 83.8143ZM158.176 91.3705C158.112 91.3506 158.057 91.3257 158.003 91.2859C157.819 91.1664 157.714 90.9773 157.724 90.7632C157.714 90.4347 157.501 90.131 157.208 90.0265C157.063 89.9718 156.894 89.9817 156.77 90.0066C156.641 90.0265 156.512 90.0464 156.378 90.0763C156.512 90.1161 156.641 90.1311 156.77 90.1559C156.909 90.1709 157.009 90.2007 157.103 90.2605C157.287 90.37 157.396 90.5641 157.396 90.7682C157.386 91.0818 157.595 91.4004 157.883 91.5099C157.978 91.5547 158.092 91.5746 158.191 91.5746C158.186 91.5099 158.181 91.4402 158.176 91.3705ZM157.426 82.4703C157.367 82.5101 157.307 82.535 157.242 82.5549C157.034 82.6047 156.815 82.5549 156.666 82.4006C156.457 82.1816 156.08 82.092 155.801 82.2214C155.657 82.2762 155.533 82.3857 155.458 82.5002C155.389 82.6097 155.309 82.7142 155.24 82.8337C155.359 82.759 155.458 82.6843 155.573 82.6097C155.672 82.535 155.771 82.4852 155.876 82.4603C156.089 82.4205 156.293 82.4852 156.447 82.6346C156.681 82.8586 157.044 82.9233 157.332 82.7889C157.371 82.769 157.411 82.749 157.446 82.7192C157.441 82.6346 157.436 82.5499 157.426 82.4703ZM141.172 86.1339C141.147 85.9995 141.132 85.8701 141.093 85.7457C141.063 85.8701 141.043 85.9995 141.013 86.1339C140.998 86.2683 140.973 86.3629 140.919 86.4624C140.804 86.6416 140.611 86.7611 140.407 86.7561C140.099 86.7561 139.771 86.9552 139.661 87.2489C139.607 87.3833 139.597 87.5526 139.622 87.682C139.647 87.8164 139.661 87.9458 139.701 88.0802C139.741 87.9458 139.756 87.8164 139.781 87.682C139.796 87.5526 139.825 87.458 139.89 87.3634C140.009 87.1792 140.203 87.0747 140.417 87.0847C140.735 87.0747 141.043 86.8607 141.147 86.567C141.207 86.4326 141.197 86.2534 141.172 86.1339ZM156.437 102.132C156.412 101.998 156.398 101.869 156.358 101.744C156.328 101.869 156.308 101.998 156.278 102.132C156.263 102.267 156.239 102.361 156.179 102.461C156.139 102.521 156.094 102.575 156.04 102.62C156.154 102.635 156.263 102.65 156.368 102.66C156.388 102.63 156.403 102.6 156.412 102.565C156.467 102.431 156.462 102.252 156.437 102.132ZM152.815 75.7453C152.785 75.6159 152.77 75.4915 152.735 75.3571C152.696 75.4915 152.681 75.6159 152.661 75.7453C152.641 75.8897 152.611 75.9843 152.556 76.0789C152.442 76.268 152.253 76.3775 152.045 76.3775C151.736 76.3676 151.418 76.5766 151.304 76.8703C151.24 77.0097 151.235 77.174 151.264 77.3034C151.289 77.4378 151.304 77.5622 151.339 77.6916C151.374 77.5622 151.394 77.4378 151.418 77.3034C151.433 77.174 151.473 77.0794 151.528 76.9798C151.647 76.8006 151.836 76.6961 152.055 76.7011C152.382 76.6961 152.681 76.4771 152.785 76.1834C152.84 76.044 152.835 75.8748 152.815 75.7453ZM135.343 83.1273C135.214 83.1124 135.12 83.0826 135.02 83.0278C134.841 82.9083 134.737 82.7092 134.742 82.5002C134.737 82.1716 134.518 81.873 134.225 81.7684C134.091 81.7037 133.917 81.7087 133.798 81.7336C133.659 81.7684 133.535 81.7834 133.4 81.8132C133.535 81.853 133.659 81.873 133.798 81.8929C133.932 81.9078 134.026 81.9327 134.126 81.9924C134.305 82.1019 134.419 82.301 134.419 82.5002C134.419 82.8187 134.618 83.1373 134.911 83.2518C135.045 83.3115 135.214 83.3115 135.343 83.2866C135.477 83.2667 135.602 83.2518 135.741 83.212C135.602 83.1771 135.477 83.1622 135.343 83.1273ZM136.094 99.0114C136.064 98.872 136.049 98.7475 136.014 98.6181C135.974 98.7475 135.959 98.872 135.94 99.0114C135.92 99.1458 135.895 99.2403 135.835 99.3399C135.761 99.4544 135.666 99.534 135.552 99.5938C135.686 99.6087 135.81 99.6286 135.945 99.6535C135.994 99.5888 136.034 99.5191 136.064 99.4394C136.118 99.305 136.118 99.1308 136.094 99.0114ZM151.935 68.3384C151.831 68.4181 151.741 68.4679 151.632 68.4928C151.418 68.5326 151.21 68.4728 151.066 68.3136C150.837 68.0945 150.459 68.0298 150.186 68.1642C150.042 68.219 149.928 68.3484 149.858 68.4529C149.784 68.5624 149.699 68.667 149.635 68.7864C149.754 68.7118 149.858 68.6371 149.967 68.5624C150.072 68.4728 150.161 68.428 150.271 68.4032C150.479 68.3484 150.703 68.4032 150.842 68.5475C151.061 68.7815 151.423 68.8561 151.712 68.7317C151.856 68.6769 151.975 68.5624 152.055 68.4529C152.124 68.3384 152.204 68.2339 152.268 68.1145C152.149 68.1891 152.045 68.2688 151.935 68.3384ZM141.381 77.9156C141.276 78.0052 141.192 78.0451 141.078 78.065C140.864 78.1098 140.655 78.05 140.511 77.8908C140.283 77.6668 139.91 77.607 139.632 77.7414C139.488 77.7962 139.373 77.9206 139.304 78.0252C139.234 78.1396 139.145 78.2442 139.08 78.3636C139.199 78.289 139.304 78.2093 139.413 78.1396C139.517 78.05 139.607 78.0052 139.716 77.9804C139.925 77.9206 140.148 77.9804 140.288 78.1247C140.506 78.3537 140.869 78.4333 141.157 78.3039C141.301 78.2491 141.421 78.1396 141.5 78.0252C141.575 77.9156 141.649 77.8111 141.714 77.6916C141.594 77.7663 141.49 77.841 141.381 77.9156ZM134.235 92.0176C134.131 92.1072 134.031 92.157 133.932 92.1719C133.718 92.2167 133.51 92.157 133.361 92.0027C133.127 91.7737 132.759 91.709 132.481 91.8434C132.342 91.9081 132.223 92.0375 132.158 92.1271C132.074 92.2416 131.999 92.3462 131.934 92.4656C132.054 92.4009 132.158 92.3213 132.267 92.2416C132.372 92.157 132.461 92.1072 132.571 92.0823C132.779 92.0375 132.998 92.0923 133.137 92.2317C133.351 92.4557 133.723 92.5453 134.012 92.4158C134.156 92.3611 134.275 92.2416 134.345 92.1371C134.414 92.0276 134.504 91.923 134.568 91.8036C134.449 91.8683 134.345 91.9479 134.235 92.0176ZM151.165 90.5741C151.061 90.6587 150.961 90.7035 150.852 90.7284C150.643 90.7682 150.43 90.7035 150.286 90.5542C150.057 90.3202 149.684 90.2555 149.401 90.3998C149.267 90.4546 149.148 90.584 149.078 90.6886C149.003 90.7931 148.929 90.8927 148.854 91.0121C148.974 90.9524 149.078 90.8678 149.187 90.7931C149.302 90.7134 149.386 90.6637 149.49 90.6288C149.699 90.584 149.923 90.6388 150.062 90.7831C150.276 91.0071 150.653 91.0918 150.931 90.9673C151.076 90.9126 151.2 90.7931 151.274 90.6886C151.344 90.5741 151.423 90.4695 151.488 90.3501C151.374 90.4198 151.274 90.4944 151.165 90.5741ZM145.287 99.529C145.182 99.6087 145.088 99.6535 144.978 99.6784C144.77 99.7182 144.556 99.6535 144.412 99.5042C144.183 99.2702 143.806 99.2055 143.527 99.3499C143.393 99.4046 143.274 99.534 143.204 99.6386C143.13 99.7431 143.05 99.8426 142.981 99.9621C143.1 99.9024 143.204 99.8227 143.314 99.7431C143.428 99.6634 143.513 99.6137 143.617 99.5788C143.826 99.534 144.049 99.5888 144.188 99.7331C144.402 99.9571 144.78 100.047 145.058 99.9173C145.202 99.8626 145.326 99.7431 145.401 99.6386C145.47 99.529 145.55 99.4245 145.615 99.305C145.5 99.3698 145.401 99.4444 145.287 99.529ZM158.549 96.5623C158.475 96.622 158.42 96.6917 158.38 96.7564C158.301 96.866 158.221 96.9705 158.157 97.09C158.276 97.0153 158.38 96.9406 158.49 96.866C158.514 96.8411 158.539 96.8261 158.564 96.8062C158.559 96.7266 158.554 96.6469 158.549 96.5623Z" fill="white"/>
<path d="M185.274 82.5383L182.386 79.2427L166.556 93.1636L169.444 96.4592L185.274 82.5383Z" fill="#455A64"/>
<path d="M214.368 54.0377C206.119 44.6248 191.808 43.6939 182.407 51.957C173.01 60.2201 172.081 74.556 180.33 83.9689C188.583 93.3868 202.889 94.3127 212.286 86.0496C221.688 77.7816 222.617 63.4506 214.368 54.0327V54.0377ZM183.912 80.818C177.403 73.3862 178.133 62.0718 185.552 55.546C192.971 49.0201 204.271 49.7568 210.785 57.1886C217.3 64.6204 216.565 75.9348 209.141 82.4607C201.722 88.9865 190.427 88.2498 183.912 80.818Z" fill="#263238"/>
<path d="M171.864 94.7437L168.573 90.988C168.276 90.6492 167.761 90.6156 167.423 90.9131L155.832 101.107C155.493 101.404 155.46 101.92 155.757 102.259L159.048 106.014C159.345 106.353 159.86 106.387 160.198 106.089L171.789 95.8958C172.128 95.5983 172.161 95.0825 171.864 94.7437Z" fill="#263238"/>
<g opacity="0.4">
<path d="M209.14 82.4604C201.721 88.9863 190.426 88.2496 183.912 80.8178C177.402 73.386 178.133 62.0716 185.552 55.5457C192.97 49.0199 204.27 49.7566 210.785 57.1884C217.299 64.6202 216.564 75.9346 209.14 82.4604Z" fill="white"/>
<path d="M204.907 85.2332C197.89 88.5186 189.279 86.9406 183.912 80.813C182.804 79.5486 181.905 78.1698 181.209 76.7163L204.907 85.2283V85.2332Z" fill="#EBEBEB"/>
<path d="M215.172 70.3695L182.719 58.7066C183.514 57.5667 184.468 56.5015 185.556 55.5408C186.808 54.4357 188.175 53.5447 189.611 52.8528L213.572 61.4593C214.874 64.2767 215.406 67.348 215.172 70.3645V70.3695Z" fill="#EBEBEB"/>
<path d="M210.422 81.2159L179.509 70.1105C179.44 68.9407 179.485 67.761 179.639 66.5962L212.559 78.4233C211.953 79.4089 211.242 80.3447 210.427 81.2159H210.422Z" fill="#EBEBEB"/>
<path d="M214.82 72.7937L181.452 60.8073C181.552 60.6132 181.651 60.424 181.755 60.2349L214.944 72.1566C214.909 72.3706 214.87 72.5797 214.82 72.7937Z" fill="#EBEBEB"/>
<path d="M210.173 56.5263L195.365 51.2051C195.897 51.1454 196.434 51.1105 196.97 51.1006L209.015 55.4263C209.418 55.7697 209.801 56.1381 210.178 56.5263H210.173Z" fill="#EBEBEB"/>
</g>
<path d="M188.622 59.2639C188.622 59.2639 188.661 59.2341 188.681 59.2191C188.955 59.0001 188.403 59.4232 188.592 59.2838C188.82 59.1196 189.044 58.9603 189.282 58.806C190.102 58.2734 190.967 57.8104 191.866 57.4172C191.991 57.3624 192.12 57.3126 192.249 57.2579C192.289 57.238 191.946 57.3774 192.219 57.2678C192.299 57.238 192.378 57.2081 192.458 57.1782C192.761 57.0638 193.074 56.9592 193.382 56.8646C194.068 56.6506 194.768 56.4863 195.474 56.3669C195.643 56.337 195.812 56.3171 195.986 56.2872C196.214 56.2524 195.722 56.3121 196.036 56.2823C196.14 56.2723 196.239 56.2623 196.344 56.2524C196.736 56.2175 197.129 56.1976 197.521 56.1927C197.949 56.1927 198.371 56.2026 198.793 56.2325C198.987 56.2474 199.181 56.2673 199.375 56.2872C199.708 56.3221 199.236 56.2623 199.474 56.3022C199.588 56.3221 199.708 56.337 199.822 56.3569C200.861 56.5361 201.864 56.8348 202.848 57.2131C202.868 57.223 203.042 57.2927 202.898 57.233C202.749 57.1733 202.977 57.2678 203.002 57.2778C203.146 57.3425 203.286 57.4022 203.43 57.4719C203.703 57.6014 203.971 57.7308 204.235 57.8751C204.796 58.1738 205.338 58.5023 205.865 58.8558C206.471 59.2589 207.36 58.9553 207.703 58.358C208.086 57.691 207.812 56.9194 207.206 56.5162C203.857 54.2812 199.852 53.1313 195.832 53.6092C193.139 53.9278 190.52 54.8487 188.219 56.2922C187.707 56.6158 187.195 56.9642 186.728 57.3525C186.187 57.8054 186.217 58.796 186.718 59.2589C187.295 59.7916 188.04 59.7517 188.622 59.2689V59.2639Z" fill="white"/>
<path d="M185.824 62.1362C185.303 62.6539 184.468 62.649 183.951 62.1263C183.434 61.6036 183.439 60.7674 183.961 60.2497C184.483 59.732 185.317 59.737 185.834 60.2596C186.351 60.7823 186.346 61.6186 185.824 62.1362Z" fill="white"/>
<path d="M143.722 63.8239C137.088 69.7226 124.988 86.1641 126.966 89.2304C131.453 96.1793 140.522 103.347 144.278 105.468C145.898 106.384 154.977 95.129 153.57 93.7203C151.886 92.0279 140.402 84.2228 140.477 83.5956C140.561 82.9087 144.87 74.78 147.185 68.1197C150.057 59.8517 146.489 61.3649 143.722 63.8239Z" fill="#F7A9A0"/>
<path d="M147.434 91.3958C147.434 91.3958 153.084 91.0374 156.791 90.9777C158.858 90.9428 162.406 91.2017 163.937 91.8737C166.228 92.8792 175.157 98.5389 173.835 100.739C172.638 102.73 165.582 96.8913 165.582 96.8913C165.582 96.8913 173.224 102.153 171.341 104.283C169.458 106.414 162.362 98.7529 162.362 98.7529C162.362 98.7529 170.094 104.338 167.803 106.225C166.074 107.653 159.256 101.078 159.256 101.078C159.256 101.078 165.87 105.921 164.151 107.469C162.257 109.176 155.579 103.502 155.579 103.502C150.56 106.697 146.883 106.444 144.279 105.463C143.673 105.234 147.434 91.3958 147.434 91.3958Z" fill="#F7A9A0"/>
<path d="M163.405 95.1589C169.328 98.6035 171.182 102.113 171.112 102.028C169.507 100.062 166.446 97.6328 165.582 96.9658C164.717 96.3037 164.24 95.8557 163.38 95.1887C163.36 95.1738 163.38 95.1439 163.405 95.1589Z" fill="#263238"/>
<path d="M160.597 97.9814C163.509 99.43 166.302 102.003 167.127 103.044C167.191 103.128 167.142 103.133 167.057 103.069C165.979 102.193 161.691 98.8277 160.578 98.0113C160.558 97.9964 160.578 97.9765 160.597 97.9864V97.9814Z" fill="#263238"/>
<path d="M158.014 100.251C160.518 101.744 161.492 102.665 162.953 104.318C163.023 104.398 162.943 104.408 162.864 104.338C161.249 102.954 159.986 101.859 157.979 100.311C157.949 100.286 157.979 100.226 158.019 100.246L158.014 100.251Z" fill="#263238"/>
<path d="M150.351 90.6191L139.737 103.477C139.737 103.477 126.072 91.2513 126.415 87.6673C126.897 82.6198 140.234 66.4073 143.886 63.4107C147.449 60.4838 149.476 61.2254 148.025 65.9941C146.709 70.3297 141.193 83.1574 141.193 83.3516C141.193 83.5457 150.351 90.624 150.351 90.624V90.6191Z" fill="#FF5F81"/>
<path d="M150.346 90.6092C150.346 90.6092 150.331 90.5942 150.326 90.5942C150.311 90.5793 150.306 90.5743 150.291 90.5644V90.5544C150.232 90.4996 150.167 90.4499 150.098 90.42C149.884 90.3005 149.616 90.2906 149.402 90.4001C149.268 90.4548 149.148 90.5843 149.079 90.6888C149.004 90.7933 148.93 90.8929 148.855 91.0124C148.975 90.9526 149.079 90.868 149.188 90.7933C149.302 90.7137 149.387 90.6639 149.491 90.6291C149.7 90.5843 149.924 90.639 150.063 90.7834C150.088 90.8132 150.117 90.8381 150.152 90.858L150.351 90.6141L150.346 90.6092ZM134.236 92.0179C134.132 92.1075 134.032 92.1572 133.933 92.1722C133.719 92.217 133.511 92.1572 133.361 92.0029C133.128 91.774 132.76 91.7092 132.482 91.8436C132.343 91.9084 132.224 92.0378 132.159 92.1274C132.074 92.2419 132 92.3464 131.935 92.4659C132.055 92.4012 132.159 92.3215 132.268 92.2419C132.373 92.1572 132.462 92.1075 132.571 92.0826C132.78 92.0378 132.999 92.0925 133.138 92.2319C133.352 92.4559 133.724 92.5455 134.012 92.4161C134.157 92.3613 134.276 92.2419 134.345 92.1373C134.415 92.0278 134.504 91.9233 134.569 91.8038C134.45 91.8685 134.345 91.9482 134.236 92.0179ZM131.781 77.9159C131.702 77.9856 131.632 78.0254 131.553 78.0503C131.478 78.1548 131.404 78.2544 131.334 78.3589C131.409 78.3539 131.483 78.334 131.558 78.3041C131.702 78.2494 131.821 78.1399 131.901 78.0254C131.975 77.9159 132.055 77.8114 132.119 77.6919C132 77.7666 131.896 77.8412 131.781 77.9159ZM141.382 77.9159C141.277 78.0055 141.193 78.0453 141.079 78.0652C140.865 78.11 140.656 78.0503 140.512 77.891C140.284 77.667 139.911 77.6073 139.633 77.7417C139.488 77.7964 139.374 77.9209 139.305 78.0254C139.235 78.1399 139.146 78.2444 139.081 78.3639C139.2 78.2892 139.305 78.2096 139.414 78.1399C139.518 78.0503 139.608 78.0055 139.717 77.9806C139.926 77.9209 140.149 77.9806 140.288 78.125C140.507 78.3539 140.87 78.4336 141.158 78.3041C141.302 78.2494 141.421 78.1399 141.501 78.0254C141.575 77.9159 141.65 77.8114 141.715 77.6919C141.595 77.7666 141.491 77.8412 141.382 77.9159ZM136.095 99.0116C136.065 98.8722 136.05 98.7478 136.015 98.6184C135.975 98.7478 135.96 98.8722 135.94 99.0116C135.921 99.146 135.896 99.2406 135.836 99.3401C135.772 99.4397 135.687 99.5193 135.588 99.5691C135.662 99.6388 135.737 99.7135 135.811 99.7832C135.926 99.6936 136.015 99.5741 136.065 99.4397C136.119 99.3053 136.119 99.1311 136.095 99.0116ZM137.218 72.0869C137.188 71.9575 137.173 71.8331 137.138 71.6987C137.098 71.8331 137.083 71.9575 137.064 72.0869C137.044 72.2313 137.014 72.3259 136.959 72.4254C136.845 72.6096 136.656 72.7191 136.447 72.7191C136.134 72.7092 135.821 72.9182 135.707 73.2119C135.642 73.3513 135.637 73.5156 135.667 73.645C135.692 73.7794 135.707 73.9038 135.742 74.0332C135.776 73.9038 135.796 73.7794 135.821 73.645C135.836 73.5156 135.876 73.421 135.931 73.3214C136.05 73.1422 136.239 73.0377 136.457 73.0427C136.785 73.0377 137.083 72.8187 137.188 72.525C137.242 72.3856 137.237 72.2164 137.218 72.0869ZM135.344 83.1276C135.215 83.1127 135.121 83.0828 135.021 83.028C134.842 82.9086 134.738 82.7095 134.743 82.5004C134.738 82.1719 134.519 81.8732 134.226 81.7687C134.092 81.704 133.918 81.7089 133.799 81.7338C133.66 81.7687 133.535 81.7836 133.401 81.8135C133.535 81.8533 133.66 81.8732 133.799 81.8931C133.933 81.908 134.027 81.9329 134.127 81.9927C134.306 82.1022 134.42 82.3013 134.42 82.5004C134.42 82.819 134.619 83.1376 134.912 83.252C135.046 83.3118 135.215 83.3118 135.344 83.2869C135.478 83.267 135.603 83.252 135.742 83.2122C135.603 83.1774 135.478 83.1624 135.344 83.1276ZM129.461 85.3527C129.436 85.2133 129.421 85.0888 129.386 84.9594C129.351 85.0888 129.336 85.2133 129.302 85.3527C129.287 85.4871 129.262 85.5816 129.207 85.6762C129.093 85.8604 128.899 85.9799 128.7 85.9699C128.387 85.9699 128.064 86.174 127.95 86.4677C127.895 86.6021 127.886 86.7713 127.91 86.9007C127.935 87.0351 127.95 87.1596 127.99 87.294C128.03 87.1596 128.045 87.0351 128.069 86.9007C128.084 86.7713 128.114 86.6767 128.184 86.5772C128.303 86.398 128.492 86.2935 128.705 86.2984C129.023 86.2935 129.336 86.0744 129.436 85.7807C129.496 85.6463 129.486 85.4721 129.461 85.3527ZM141.173 86.1342C141.148 85.9998 141.133 85.8703 141.093 85.7459C141.064 85.8703 141.044 85.9998 141.014 86.1342C140.999 86.2686 140.974 86.3631 140.92 86.4627C140.805 86.6419 140.611 86.7614 140.408 86.7564C140.1 86.7564 139.772 86.9555 139.662 87.2492C139.608 87.3836 139.598 87.5528 139.623 87.6822C139.647 87.8166 139.662 87.9461 139.702 88.0805C139.742 87.9461 139.757 87.8166 139.782 87.6822C139.797 87.5528 139.826 87.4582 139.891 87.3637C140.01 87.1795 140.204 87.075 140.418 87.0849C140.736 87.075 141.044 86.8609 141.148 86.5672C141.208 86.4328 141.198 86.2536 141.173 86.1342ZM142.803 64.3963C142.803 64.3963 142.808 64.4112 142.808 64.4162C142.813 64.4063 142.813 64.3963 142.813 64.3864C142.813 64.3913 142.808 64.3913 142.803 64.3963ZM143.489 94.7755C143.354 94.7606 143.26 94.7208 143.166 94.666C142.992 94.5466 142.877 94.3524 142.887 94.1384C142.887 93.8099 142.664 93.5062 142.371 93.4017C142.231 93.3469 142.057 93.3469 141.938 93.3718C141.804 93.4017 141.675 93.4216 141.551 93.4515C141.675 93.4913 141.804 93.5062 141.938 93.5311C142.077 93.546 142.167 93.5709 142.266 93.6356C142.45 93.7451 142.569 93.9393 142.569 94.1434C142.559 94.457 142.758 94.7755 143.056 94.8851C143.19 94.9498 143.364 94.9498 143.489 94.9299C143.618 94.905 143.747 94.8851 143.881 94.8452C143.747 94.8154 143.618 94.8004 143.489 94.7755ZM144.279 72.6942C144.154 72.6743 144.055 72.6444 143.961 72.5847C143.777 72.4653 143.672 72.2711 143.682 72.0521C143.672 71.7385 143.459 71.4249 143.166 71.3204C143.022 71.2656 142.853 71.2756 142.733 71.2955C142.599 71.3204 142.47 71.3403 142.336 71.3801C142.47 71.41 142.599 71.4249 142.733 71.4498C142.867 71.4647 142.967 71.4996 143.061 71.5543C143.245 71.6638 143.354 71.8629 143.354 72.067C143.354 72.3756 143.553 72.7042 143.846 72.8087C143.986 72.8684 144.154 72.8784 144.279 72.8535C144.413 72.8236 144.542 72.8087 144.671 72.7739C144.542 72.734 144.413 72.7191 144.279 72.6942ZM144.279 64.466C144.254 64.3266 144.239 64.2022 144.204 64.0728C144.164 64.2022 144.149 64.3266 144.125 64.466C144.11 64.6004 144.08 64.695 144.025 64.7896C143.916 64.9737 143.712 65.0932 143.513 65.0882C143.205 65.0882 142.887 65.2873 142.773 65.581C142.708 65.7154 142.703 65.8896 142.728 66.0191C142.758 66.1485 142.773 66.2729 142.808 66.4073C142.848 66.2729 142.862 66.1435 142.887 66.0191C142.902 65.8847 142.937 65.7851 142.997 65.6955C143.116 65.5163 143.31 65.4068 143.523 65.4167C143.846 65.4167 144.149 65.1928 144.254 64.8991C144.309 64.7647 144.304 64.5904 144.279 64.471V64.466Z" fill="white"/>
<path d="M137.77 100.45C139.39 98.6135 145.755 90.8482 147.017 89.0761C147.107 88.9516 147.047 88.867 146.943 88.9815C141.949 94.3724 139.201 98.499 137.7 100.381C137.661 100.425 137.73 100.495 137.77 100.445V100.45Z" fill="#263238"/>
<path d="M146.734 69.6282C146.758 69.5684 146.858 69.6033 146.838 69.663C146.644 70.2504 146.331 71.1215 145.944 72.1369C145.978 72.0822 146.013 72.0274 146.043 71.9727C146.286 71.5645 146.515 71.1514 146.719 70.7233C146.739 70.6785 146.808 70.7133 146.788 70.7581C146.585 71.1962 146.376 71.6292 146.147 72.0573C145.993 72.341 145.839 72.6297 145.65 72.8936C144.02 77.1197 141.536 83.1527 141.536 83.307C141.536 83.5709 148.94 89.2704 150.431 90.5397C150.485 90.5895 150.123 90.9578 150.078 91.0176C150.043 91.0624 149.983 91.0325 149.993 90.9777C149.993 90.9777 150.068 90.8085 150.182 90.6393C148.741 89.6089 141.178 83.7152 141.074 83.4365C140.945 83.098 145.934 71.4251 146.729 69.6331L146.734 69.6282Z" fill="#263238"/>
<path d="M129.58 93.1729C130.022 93.5413 133.978 97.9665 134.41 98.3846C134.445 98.4195 134.4 98.4692 134.36 98.4444C132.611 97.1949 129.883 93.9793 129.545 93.2078C129.535 93.1829 129.56 93.158 129.58 93.1779V93.1729Z" fill="#263238"/>
<path d="M189.592 82.4854C189.712 84.81 191.028 88.1799 190.566 89.8475C190.144 91.3507 188.752 91.3607 188.752 91.3607C188.752 91.3607 190.005 92.8043 189.334 94.2478C188.991 94.9895 187.5 95.089 187.5 95.089C187.5 95.089 188.454 96.2887 187.779 97.5331C187.242 98.5237 185.831 98.4739 185.831 98.4739C185.831 98.4739 186.208 100.052 185.339 100.888C183.57 102.581 174.63 98.8721 174.615 95.0044C174.605 93.2025 176.742 94.2229 176.742 94.2229C176.742 94.2229 174.029 92.0078 174.744 90.1412C175.46 88.2745 178.153 89.7728 178.153 89.7728C178.153 89.7728 175.54 87.6025 176.479 85.7458C177.453 83.8095 179.892 85.7707 179.892 85.7707C179.892 85.7707 178.461 83.5954 179.505 82.336C181.224 80.2553 184.499 85.1136 186.66 85.4621L188.146 82.336L189.597 82.4804L189.592 82.4854Z" fill="#F7A9A0"/>
<path d="M190.029 85.96C190.109 83.7499 191.828 83.496 192.494 81.4651C193.229 79.2102 190.412 78.7124 188.196 82.2317L186.655 85.4672L190.029 85.96Z" fill="#F7A9A0"/>
<path d="M185.607 98.4989C185.636 98.5089 185.631 98.5537 185.597 98.5487C182.362 98.0459 178.958 96.5028 176.617 94.1832C176.543 94.1085 176.632 93.9493 176.732 94.0189C179.604 95.9503 182.302 97.4337 185.607 98.5039V98.4989Z" fill="#263238"/>
<path d="M187.535 95.1242C187.569 95.1341 187.55 95.1938 187.51 95.1889C184.176 94.6562 180.394 92.8095 178.009 89.8129C177.929 89.7084 177.954 89.5341 178.059 89.6486C179.793 91.5203 184.553 94.1784 187.53 95.1242H187.535Z" fill="#263238"/>
<path d="M179.783 85.4972C182.178 88.2798 185.229 90.012 188.613 91.3411C188.657 91.356 188.628 91.4207 188.588 91.4158C186.754 91.2166 184.687 90.1464 183.147 89.1758C181.671 88.2449 180.528 87.11 179.688 85.5818C179.653 85.5221 179.733 85.4375 179.788 85.4972H179.783Z" fill="#263238"/>
<path d="M152.801 66.9001C151.166 66.8105 148.96 63.4058 148.483 61.2056C148.453 61.0563 149.054 59.7471 149.71 58.1194C150.102 57.1338 150.52 56.0237 150.828 54.9834L156.87 58.4977C156.87 58.4977 155.588 60.4888 155.062 62.3057C155.022 62.46 154.992 62.6043 154.982 62.7437C154.982 62.7636 154.982 62.7885 154.972 62.8184C154.863 63.6696 154.376 66.9897 152.801 66.9051V66.9001Z" fill="#F7A9A0"/>
<path d="M154.297 62.649C154.535 62.7286 154.764 62.7784 154.972 62.8133C154.977 62.7834 154.982 62.7585 154.987 62.7386C155.002 62.5992 155.022 62.4499 155.067 62.3006C155.594 60.4837 156.871 58.4926 156.871 58.4926L151.022 55.0928C150.853 56.6558 150.654 61.4842 154.292 62.649H154.297Z" fill="#263238"/>
<path d="M150.133 48.6121C149.343 51.0064 150.456 58.0001 152.13 59.593C154.56 61.9027 158.62 62.2113 160.593 59.2645C162.511 56.4122 160.901 47.3228 159.017 45.8693C156.25 43.7289 151.295 45.0779 150.128 48.6171L150.133 48.6121Z" fill="#F7A9A0"/>
<path d="M157.059 53.2212C157.059 53.2212 157.024 53.2511 157.029 53.271C157.119 53.7389 157.139 54.2914 156.736 54.5154C156.726 54.5204 156.726 54.5453 156.746 54.5403C157.253 54.386 157.218 53.6543 157.059 53.2262V53.2212Z" fill="#263238"/>
<path d="M156.562 52.7934C155.796 52.8532 155.97 54.3813 156.681 54.3266C157.377 54.2718 157.203 52.7436 156.562 52.7934Z" fill="#263238"/>
<path d="M159.685 52.8926C159.685 52.8926 159.724 52.9125 159.724 52.9324C159.764 53.4103 159.888 53.9479 160.335 54.0524C160.35 54.0524 160.35 54.0823 160.335 54.0773C159.804 54.0624 159.645 53.3456 159.685 52.8926Z" fill="#263238"/>
<path d="M160.047 52.3502C160.802 52.2059 161.035 53.7291 160.335 53.8634C159.649 53.9978 159.411 52.4747 160.047 52.3502Z" fill="#263238"/>
<path d="M155.882 52.1662C156.085 52.0915 156.259 51.987 156.448 51.8874C156.667 51.7779 156.851 51.7132 156.975 51.4942C157.039 51.3747 156.985 51.1856 156.88 51.1109C156.627 50.9317 156.329 51.0014 156.065 51.1209C155.777 51.2503 155.588 51.4245 155.444 51.7082C155.305 51.982 155.618 52.2657 155.887 52.1662H155.882Z" fill="#263238"/>
<path d="M160.547 51.509C160.333 51.499 160.135 51.4542 159.921 51.4194C159.682 51.3846 159.489 51.3796 159.3 51.2054C159.2 51.1158 159.195 50.9167 159.275 50.8071C159.459 50.5632 159.767 50.5334 160.055 50.5632C160.368 50.5981 160.602 50.7076 160.825 50.9316C161.039 51.1506 160.83 51.514 160.547 51.504V51.509Z" fill="#263238"/>
<path d="M156.871 57.577C156.995 57.6766 157.129 57.8159 157.298 57.811C157.462 57.806 157.651 57.7114 157.795 57.6318C157.81 57.6268 157.825 57.6367 157.82 57.6517C157.715 57.8458 157.472 57.9902 157.248 57.9802C157.03 57.9653 156.901 57.796 156.826 57.6019C156.816 57.577 156.851 57.5621 156.871 57.577Z" fill="#263238"/>
<path d="M157.204 56.1036C157.517 56.4868 157.929 56.666 158.361 56.6959C158.555 56.7108 158.754 56.6959 158.943 56.6561C158.983 56.6511 159.017 56.6411 159.052 56.6312C159.087 56.6212 159.117 56.6163 159.156 56.6013C159.211 56.5864 159.236 56.5366 159.241 56.4868C159.241 56.4868 159.241 56.452 159.231 56.4371L159.226 56.3923C159.196 56.0289 159.097 55.4764 159.097 55.4764C159.236 55.5261 159.952 55.7551 159.917 55.566C159.643 53.998 159.335 52.2557 158.734 50.7525C158.714 50.7027 158.64 50.7226 158.65 50.7724C158.853 52.2906 159.325 53.759 159.554 55.2772C159.33 55.2175 158.958 55.108 158.769 55.1329C158.719 55.1528 158.978 56.1931 158.978 56.3574C158.978 56.3574 158.978 56.3624 158.978 56.3773C158.376 56.5267 157.894 56.3923 157.253 56.0488C157.214 56.0239 157.179 56.0637 157.214 56.0986L157.204 56.1036Z" fill="#263238"/>
<path d="M158.709 56.4967C158.709 56.4967 158.436 56.9696 158.013 57.1787C157.859 57.2583 157.685 57.2981 157.497 57.2732C157.109 57.2185 157.059 56.87 157.094 56.5664C157.124 56.3175 157.213 56.0935 157.213 56.0935C157.213 56.0935 157.825 56.5465 158.714 56.5017L158.709 56.4967Z" fill="#263238"/>
<path d="M158.013 57.1789C157.859 57.2586 157.685 57.2984 157.497 57.2735C157.109 57.2187 157.059 56.8703 157.094 56.5667C157.502 56.5667 157.934 56.7906 158.013 57.1839V57.1789Z" fill="#FF98B9"/>
<path d="M152.294 52.4447C152.766 51.0857 152.005 48.801 152.691 48.1937C154.172 46.8845 157.158 49.4481 159.226 49.4779C161.228 49.5078 161.909 48.2235 161.561 46.5908C161.213 44.9581 159.842 43.8531 157.601 43.4997C155.28 43.1313 153.153 44.0522 151.996 44.7839C151.996 44.7839 152.507 43.9775 152.319 43.7236C152.13 43.4698 151.146 44.2413 150.843 44.5748C150.535 44.9084 150.346 45.5356 150.346 45.5356C150.346 45.5356 149.983 45.426 149.431 45.431C148.925 45.441 148.279 45.8342 148.239 45.9537C148.199 46.0732 148.93 46.1727 149.441 46.2026C149.441 46.2026 148.477 47.4619 148.487 48.5471C148.497 49.6322 150.142 54.7942 150.545 54.8539C151.066 54.9286 152.105 52.9972 152.294 52.4447Z" fill="#263238"/>
<path d="M149.634 46.0682C149.634 46.0682 149.674 46.0831 149.659 46.0981C149.167 46.5162 148.77 47.004 148.566 47.6213C148.328 48.343 148.367 49.1196 148.526 49.8563C148.829 51.2849 149.515 52.5791 150.107 53.8982C150.121 53.938 150.057 53.9679 150.037 53.9281C149.321 52.5692 148.591 51.0957 148.328 49.5725C148.104 48.2734 148.417 46.78 149.634 46.0632V46.0682Z" fill="#263238"/>
<path d="M152.612 47.6662C153.198 47.5865 153.854 47.6512 154.425 47.8006C154.992 47.9499 155.469 48.3033 155.976 48.5871C157.109 49.2142 158.351 49.707 159.668 49.6374C159.683 49.6374 159.688 49.6622 159.668 49.6622C158.465 49.8016 157.293 49.4333 156.229 48.8957C155.692 48.6219 155.191 48.2336 154.624 48.0295C153.983 47.7956 153.287 47.8006 152.617 47.7807C152.547 47.7807 152.542 47.6811 152.617 47.6711L152.612 47.6662Z" fill="#263238"/>
<path d="M153.227 44.2214C154.037 43.8182 154.917 43.5544 155.801 43.3951C156.656 43.2408 157.536 43.1811 158.39 43.3254C159.871 43.5793 161.228 44.54 161.561 46.0682C161.73 46.8447 161.64 47.6909 161.238 48.3828C161.213 48.4276 161.143 48.3928 161.163 48.343C161.784 47.014 161.561 45.3912 160.438 44.3957C159.23 43.3254 157.521 43.2309 156.005 43.4598C155.046 43.6042 154.132 43.8929 153.227 44.2314C153.222 44.2314 153.217 44.2264 153.227 44.2214Z" fill="#263238"/>
<path d="M151.489 54.3212C151.489 54.3212 149.924 52.0663 148.9 52.6238C147.877 53.1813 149.049 56.4517 150.247 56.8997C151.445 57.3477 151.882 56.2476 151.882 56.2476L151.489 54.3212Z" fill="#F7A9A0"/>
<path d="M149.263 53.5499C149.263 53.5499 149.238 53.5748 149.258 53.5798C150.097 53.9232 150.535 54.7047 150.843 55.5161C150.594 55.2025 150.257 55.0333 149.839 55.327C149.819 55.3419 149.839 55.3767 149.864 55.3718C150.207 55.2971 150.455 55.3618 150.689 55.6356C150.853 55.8297 150.962 56.0786 151.081 56.3026C151.121 56.3773 151.255 56.3374 151.225 56.2528C151.225 56.2478 151.225 56.2379 151.221 56.2329C151.245 55.1627 150.416 53.6544 149.268 53.5449L149.263 53.5499Z" fill="#263238"/>
<path d="M155.046 62.3305L152.905 66.0887L148.666 60.3743L147.046 61.7929C147.046 61.7929 150.768 70.4542 150.847 70.0958L152.954 66.8951L154.987 69.608L155.623 63.5949L155.046 62.3305Z" fill="white"/>
<path d="M155.468 66.656C155.538 65.6605 155.637 64.66 155.667 63.6594C155.667 63.6246 155.617 63.5997 155.603 63.6395C155.275 64.5654 155.021 68.3783 154.892 69.2843C154.892 69.2843 154.887 69.2743 154.882 69.2743C154.798 69.1598 152.984 66.8751 152.959 66.8999C152.532 67.3927 150.986 69.7273 150.872 69.9414C150.286 68.5675 147.995 63.5449 147.259 62.2209C147.239 62.181 147.18 62.2059 147.195 62.2457C147.682 63.6793 150.698 70.4292 150.758 70.4242C150.792 70.459 152.71 67.5919 152.969 67.0393C153.262 67.5222 155.061 70.0658 155.091 69.9214C155.275 68.9358 155.404 67.6615 155.473 66.661L155.468 66.656Z" fill="#263238"/>
</svg>
