<svg width="319" height="266" viewBox="0 0 319 266" fill="none" xmlns="http://www.w3.org/2000/svg">
<path d="M147.241 137.12H45.0596L64.4824 143.876V172.59C64.4824 176.323 67.5056 179.346 71.2382 179.346H147.241C150.973 179.346 153.997 176.323 153.997 172.59V143.876C153.997 140.143 150.973 137.12 147.241 137.12Z" fill="#EFEFEF"/>
<g opacity="0.15">
<path d="M112.617 146.731H77.1494V150.109H112.617V146.731Z" fill="#0E1738"/>
<path d="M141.329 166.367H77.1494V169.745H141.329V166.367Z" fill="#0E1738"/>
<path d="M141.329 156.544H77.1494V159.922H141.329V156.544Z" fill="#0E1738"/>
</g>
<path opacity="0.15" d="M153.997 172.591V143.877C153.997 140.144 150.974 137.12 147.241 137.12H96.1504V179.347H147.241C150.974 179.347 153.997 176.323 153.997 172.591Z" fill="#0E1738"/>
<path d="M275.609 106.21H165.828C161.166 106.21 157.383 109.993 157.383 114.655V156.881C157.383 161.543 161.166 165.327 165.828 165.327H275.609C280.27 165.327 284.054 161.543 284.054 156.881V118.878L315.299 106.21H275.609Z" fill="#EFEFEF"/>
<path opacity="0.15" d="M176.376 137.457H265.046V134.079H176.376V137.457Z" fill="#0E1738"/>
<path opacity="0.15" d="M176.376 124.393L265.046 124.393V121.014L176.376 121.014V124.393Z" fill="#0E1738"/>
<path opacity="0.15" d="M203.399 150.514H265.046V147.136H203.399V150.514Z" fill="#0E1738"/>
<path opacity="0.15" d="M165.828 106.21C161.166 106.21 157.383 109.993 157.383 114.655V156.881C157.383 161.543 161.166 165.327 165.828 165.327H222.821V122.281H253.222C259.277 122.281 264.2 117.357 264.2 111.302V106.21H165.828Z" fill="#0E1738"/>
<path d="M242.944 0.517323C226.756 -5.05656 217.754 36.2493 217.754 36.2493C207.198 22.0359 192.419 46.6877 205.931 66.0696L211.564 69.3801C245.199 64.2623 245.765 43.2927 232.11 42.8704C232.11 42.8704 255.257 4.75685 242.944 0.525768V0.517323Z" fill="url(#paint0_linear_62_2762)" fill-opacity="0.15"/>
<path d="M204.461 66.7874L207.298 63.5866C208.236 62.5141 209.215 61.4669 210.094 60.3436C211.884 58.1225 213.725 55.9352 215.38 53.6043C218.834 49.0523 221.942 44.2385 224.889 39.3318C227.836 34.4251 230.437 29.3157 232.818 24.105C235.174 18.8858 237.294 13.5399 238.865 8.02515C237.429 13.5821 235.436 18.9871 233.207 24.2739C230.944 29.5522 228.461 34.746 225.623 39.7541C222.786 44.7537 219.78 49.6773 216.41 54.3475C214.797 56.7375 212.999 58.984 211.242 61.2726C210.389 62.4296 209.426 63.5106 208.506 64.617L205.719 67.9191L204.469 66.7874H204.461Z" fill="#2E68B8"/>
<path d="M203.398 48.7737H115.573C107.178 48.7737 100.372 55.5796 100.372 63.9752V244.704C100.372 253.1 107.178 259.906 115.573 259.906H203.398C211.793 259.906 218.598 253.1 218.598 244.704V63.9752C218.598 55.5796 211.793 48.7737 203.398 48.7737Z" fill="#0E1738"/>
<path d="M215.221 244.704V63.9752C215.221 57.4454 209.928 52.1519 203.398 52.1519L115.573 52.1519C109.044 52.1519 103.75 57.4454 103.75 63.9752L103.75 244.704C103.75 251.234 109.044 256.528 115.573 256.528H203.398C209.928 256.528 215.221 251.234 215.221 244.704Z" fill="white"/>
<path d="M176.797 52.1519H138.796C140.662 52.1519 142.174 53.6636 142.174 55.53V58.9081C142.174 60.7745 143.685 62.2862 145.552 62.2862H173.419C175.286 62.2862 176.797 60.7745 176.797 58.9081V55.53C176.797 53.6636 178.309 52.1519 180.175 52.1519H176.797Z" fill="#0E1738"/>
<path d="M191.998 123.945H110.929L123.596 129.012V142.525C123.596 144.391 125.107 145.903 126.974 145.903H191.998C193.864 145.903 195.376 144.391 195.376 142.525V127.323C195.376 125.457 193.864 123.945 191.998 123.945Z" fill="#DEDEDE"/>
<path d="M183.975 134.079H134.996V135.768H183.975V134.079Z" fill="white"/>
<path d="M162.019 139.358H134.996V141.047H162.019V139.358Z" fill="white"/>
<path d="M183.975 128.802H134.996V130.491H183.975V128.802Z" fill="white"/>
<path d="M191.998 162.785H126.974C125.107 162.785 123.596 164.297 123.596 166.163V181.365C123.596 183.231 125.107 184.743 126.974 184.743H191.998C193.864 184.743 195.376 183.231 195.376 181.365V167.852L208.043 162.785H191.998Z" fill="#DEDEDE"/>
<path d="M162.585 173.763C162.585 175.469 161.2 176.863 159.486 176.863C157.772 176.863 156.387 175.478 156.387 173.763C156.387 172.049 157.772 170.664 159.486 170.664C161.2 170.664 162.585 172.049 162.585 173.763Z" fill="white"/>
<path d="M178.207 173.763C178.207 175.469 176.822 176.863 175.108 176.863C173.394 176.863 172.009 175.478 172.009 173.763C172.009 172.049 173.394 170.664 175.108 170.664C176.822 170.664 178.207 172.049 178.207 173.763Z" fill="white"/>
<path d="M140.764 173.763C140.764 175.469 142.149 176.863 143.863 176.863C145.577 176.863 146.962 175.478 146.962 173.763C146.962 172.049 145.577 170.664 143.863 170.664C142.149 170.664 140.764 172.049 140.764 173.763Z" fill="white"/>
<path d="M159.485 252.204C161.351 252.204 162.863 250.691 162.863 248.826C162.863 246.96 161.351 245.448 159.485 245.448C157.62 245.448 156.107 246.96 156.107 248.826C156.107 250.691 157.62 252.204 159.485 252.204Z" fill="#9CAFCD"/>
<path d="M131.255 245.448V252.204L124.499 248.826L131.255 245.448Z" fill="#9CAFCD"/>
<path d="M194.472 245.448H187.716V252.204H194.472V245.448Z" fill="#9CAFCD"/>
<path d="M277.711 265.834C255.358 265.834 237.177 247.651 237.177 225.297C237.177 224.832 237.557 224.452 238.021 224.452C238.486 224.452 238.866 224.832 238.866 225.297C238.866 246.714 256.296 264.145 277.711 264.145C278.176 264.145 278.556 264.525 278.556 264.989C278.556 265.454 278.176 265.834 277.711 265.834Z" fill="#0891F9"/>
<path d="M290.319 263.782C289.964 263.782 289.635 263.563 289.517 263.208C289.365 262.769 289.61 262.287 290.049 262.135C305.908 256.815 316.557 242.002 316.557 225.297C316.557 214.445 311.946 203.998 303.915 196.642C303.569 196.33 303.552 195.789 303.864 195.451C304.177 195.105 304.709 195.08 305.055 195.401C313.441 203.077 318.246 213.972 318.246 225.305C318.246 242.745 307.133 258.191 290.589 263.748C290.496 263.782 290.412 263.791 290.319 263.791V263.782Z" fill="#0891F9"/>
<g opacity="0.4">
<path d="M277.711 265.834C255.358 265.834 237.177 247.651 237.177 225.297C237.177 224.832 237.557 224.452 238.021 224.452C238.486 224.452 238.866 224.832 238.866 225.297C238.866 246.714 256.296 264.145 277.711 264.145C278.176 264.145 278.556 264.525 278.556 264.989C278.556 265.454 278.176 265.834 277.711 265.834Z" fill="white"/>
<path d="M290.319 263.782C289.964 263.782 289.635 263.563 289.517 263.208C289.365 262.769 289.61 262.287 290.049 262.135C305.908 256.815 316.557 242.002 316.557 225.297C316.557 214.445 311.946 203.998 303.915 196.642C303.569 196.33 303.552 195.789 303.864 195.451C304.177 195.105 304.709 195.08 305.055 195.401C313.441 203.077 318.246 213.972 318.246 225.305C318.246 242.745 307.133 258.191 290.589 263.748C290.496 263.782 290.412 263.791 290.319 263.791V263.782Z" fill="white"/>
</g>
<path d="M277.71 259.923C296.832 259.923 312.334 244.42 312.334 225.297C312.334 206.174 296.832 190.671 277.71 190.671C258.588 190.671 243.087 206.174 243.087 225.297C243.087 244.42 258.588 259.923 277.71 259.923Z" fill="#0891F9"/>
<path opacity="0.4" d="M277.71 259.923C296.832 259.923 312.334 244.42 312.334 225.297C312.334 206.174 296.832 190.671 277.71 190.671C258.588 190.671 243.087 206.174 243.087 225.297C243.087 244.42 258.588 259.923 277.71 259.923Z" fill="white"/>
<mask id="mask0_62_2762" style="mask-type:luminance" maskUnits="userSpaceOnUse" x="243" y="190" width="70" height="70">
<path d="M312.334 225.297C312.334 244.417 296.829 259.922 277.71 259.922C258.591 259.922 243.087 244.417 243.087 225.297C243.087 206.177 258.591 190.671 277.71 190.671C296.829 190.671 312.334 206.177 312.334 225.297Z" fill="white"/>
</mask>
<g mask="url(#mask0_62_2762)">
<path d="M250.502 227.45L241.846 237.01L234.879 229.426L244.312 218.87L250.502 227.45Z" fill="#FF847F"/>
<path d="M258.667 200.484C258.667 200.484 249.8 204.926 240.367 221.116L248.888 230.828L266.343 213.659L258.658 200.484H258.667Z" fill="#2E68B8"/>
<path d="M267.535 197.697H283.648L295.166 200.484C298.73 207.232 292.126 234.248 297.962 258.588C297.962 258.588 269.165 263.444 254.176 258.588C254.176 258.588 260.923 247.93 257.638 232.526C254.775 219.081 253.703 209.369 258.668 200.484C258.668 200.484 262.485 198.964 267.527 197.697H267.535Z" fill="#2E68B8"/>
<path opacity="0.15" d="M296.281 209.031L291.721 208.296C291.679 215.753 286.257 231.36 273.404 229.95C273.404 229.95 292.591 235.11 291.409 241.021C290.226 246.933 272.509 252.422 269.03 252.845C265.559 253.267 268.937 255.243 283.597 255.243C288.048 255.243 289.779 257.084 290.057 259.652C294.795 259.12 297.945 258.588 297.945 258.588C293.57 240.354 296.18 220.618 296.264 209.031H296.281Z" fill="#0E1738"/>
</g>
<path d="M296.027 195.966L275.946 195.122C275.946 195.122 267.239 197.925 260.145 197.41C261.868 194.877 262.223 190.789 262.223 190.789C262.223 190.789 261.176 194.378 258.963 197.284C258.195 197.182 257.46 197.039 256.768 196.836C256.768 196.836 263.202 188.771 260.635 176.998C257.468 162.481 267.003 156.941 277.001 158.486C277.001 158.486 288.925 157.008 290.403 169.82C291.467 179.059 299.971 190.553 296.027 195.966Z" fill="#0E1738"/>
<path d="M286.932 176.711C286.113 176.018 284.77 175.858 283.596 176.703V173.054C283.596 168.164 279.636 164.195 274.738 164.195C267.391 164.195 261.429 170.157 261.429 177.505V182.547C261.429 186.854 263.895 190.578 267.484 192.411V199.733L283.63 197.689L283.588 183.873C286.569 184.616 288.984 178.451 286.923 176.703L286.932 176.711Z" fill="#FFC3BD"/>
<path d="M267.493 192.428V194.734C278.412 197.115 281.537 187.75 281.537 187.75C275.955 194.126 269.723 193.273 267.493 192.428Z" fill="#FF847F"/>
<path d="M260.636 173.155C260.636 173.155 264.698 170.521 266.471 169.034C266.471 169.034 265.061 171.458 262.358 173.417C262.358 173.417 272.914 173.468 276.782 170.039C276.782 170.039 279.586 182.732 283.597 176.702L284.332 163.072L262.671 164.195L260.636 173.147V173.155Z" fill="#0E1738"/>
<path d="M292.067 183.037C285.843 185.596 283.605 183.881 283.605 183.881C283.605 183.881 282.592 193.745 280.7 197.335C280.7 197.335 293.013 198.669 296.036 195.967C296.036 195.967 296.036 189.312 292.067 183.037Z" fill="#0E1738"/>
<path d="M273.336 178.687C273.802 178.687 274.18 178.309 274.18 177.842C274.18 177.376 273.802 176.998 273.336 176.998C272.869 176.998 272.491 177.376 272.491 177.842C272.491 178.309 272.869 178.687 273.336 178.687Z" fill="#0E1738"/>
<path d="M265.55 178.687C266.016 178.687 266.394 178.309 266.394 177.842C266.394 177.376 266.016 176.998 265.55 176.998C265.083 176.998 264.705 177.376 264.705 177.842C264.705 178.309 265.083 178.687 265.55 178.687Z" fill="#0E1738"/>
<path d="M268.404 178.146C268.058 179.193 267.594 180.165 267.222 181.144C267.129 181.389 267.036 181.626 266.977 181.871C266.918 182.107 266.876 182.344 266.952 182.42C267.214 182.774 267.67 183.137 268.075 183.501C267.534 183.349 267.019 183.197 266.546 182.749C266.487 182.681 266.428 182.605 266.386 182.487C266.352 182.386 266.344 182.301 266.344 182.217C266.344 182.048 266.344 181.896 266.378 181.752C266.437 181.465 266.521 181.195 266.622 180.933C267.045 179.903 267.636 178.974 268.396 178.163L268.404 178.146Z" fill="#FF847F"/>
<path d="M275.945 176.482C275.084 175.967 274.349 175.469 273.539 175.224C272.736 174.954 271.9 174.979 270.896 175.097C271.25 174.734 271.706 174.481 272.221 174.363C272.728 174.236 273.285 174.27 273.8 174.43C274.822 174.768 275.599 175.562 275.945 176.499V176.482Z" fill="#0E1738"/>
<path d="M262.366 176.483C262.721 175.545 263.498 174.76 264.511 174.414C265.018 174.253 265.575 174.22 266.09 174.346C266.605 174.465 267.061 174.718 267.416 175.081C266.411 174.963 265.575 174.937 264.773 175.208C263.962 175.453 263.236 175.959 262.366 176.466V176.483Z" fill="#0E1738"/>
<path d="M268.404 186.414C269.248 186.212 270.034 186.186 270.802 186.136C271.191 186.136 271.571 186.093 271.942 186.068C272.322 186.026 272.685 186 273.082 185.832C272.922 186.262 272.491 186.533 272.094 186.693C271.689 186.862 271.258 186.929 270.836 186.955C269.992 186.98 269.156 186.845 268.396 186.414H268.404Z" fill="#FF847F"/>
<path d="M255.999 202.258C255.999 202.258 268.548 212.772 292.1 199.741L283.647 197.698C283.647 197.698 271.52 197.098 267.535 197.698C259.2 198.948 255.999 202.258 255.999 202.258Z" fill="#FFC3BD"/>
<path d="M283.672 181.871C284.137 181.407 284.66 180.714 284.221 180.376C284.179 180.343 284.111 180.275 284.035 180.191C283.968 180.115 283.9 180.022 283.858 179.937C283.757 179.76 283.698 179.566 283.655 179.371C283.579 178.983 283.596 178.594 283.715 178.206C283.782 178.012 283.858 177.809 284.086 177.623C284.323 177.463 284.491 177.429 284.694 177.387C285.074 177.328 285.488 177.328 285.86 177.513C286.24 177.682 286.51 178.054 286.594 178.417C286.67 178.789 286.645 179.143 286.569 179.49C286.493 178.806 286.231 178.113 285.674 177.969C285.412 177.893 285.108 177.893 284.821 177.969C284.686 178.003 284.517 178.062 284.475 178.105C284.432 178.138 284.365 178.265 284.331 178.392C284.238 178.654 284.221 178.974 284.263 179.262C284.28 179.405 284.314 179.549 284.373 179.675C284.399 179.743 284.441 179.794 284.475 179.853C284.508 179.895 284.551 179.963 284.627 180.055C284.753 180.224 284.855 180.452 284.829 180.689C284.804 180.917 284.694 181.103 284.576 181.246C284.314 181.525 284.019 181.711 283.706 181.863L283.672 181.871Z" fill="#FF847F"/>
<path d="M285.116 184.304C285.816 184.304 286.383 183.736 286.383 183.037C286.383 182.337 285.816 181.77 285.116 181.77C284.417 181.77 283.85 182.337 283.85 183.037C283.85 183.736 284.417 184.304 285.116 184.304Z" fill="#2E68B8"/>
<path d="M238.6 192.131L237.82 192.454C237.389 192.632 237.185 193.126 237.363 193.557L243.18 207.602C243.359 208.033 243.853 208.237 244.284 208.059L245.064 207.736C245.495 207.557 245.699 207.063 245.521 206.632L239.704 192.588C239.525 192.157 239.031 191.952 238.6 192.131Z" fill="#0E1738"/>
<path d="M241.904 193.83L243.601 192.639L239.134 192.082L239.336 192.209L238.602 192.116L237.825 192.437C237.394 192.614 237.192 193.112 237.369 193.543L243.322 207.917C243.441 208.196 243.694 208.398 243.998 208.432L248.567 208.685L247.731 207.883L241.904 193.822V193.83Z" fill="#0E1738"/>
<path d="M241.697 193.342L243.258 192.696C243.687 192.518 244.183 192.724 244.361 193.153L250.178 207.197C250.356 207.626 250.15 208.123 249.721 208.301L248.941 208.624C248.512 208.801 248.015 208.596 247.837 208.167L241.697 193.342Z" fill="#0E1738"/>
<path opacity="0.2" d="M242.477 193.027L243.258 192.704C243.687 192.526 244.183 192.732 244.361 193.161L250.501 207.986L248.941 208.632C248.512 208.81 248.015 208.604 247.837 208.175L242.02 194.131C241.843 193.701 242.048 193.205 242.477 193.027Z" fill="white"/>
<path d="M241.118 197.149C240.789 197.284 240.375 197.047 240.197 196.617C240.02 196.186 240.147 195.721 240.476 195.586C240.806 195.451 241.219 195.688 241.397 196.118C241.574 196.549 241.447 197.014 241.118 197.149Z" fill="#E8E9FD"/>
<path d="M254.175 208.491L276.714 229.57L292.734 211.472L300.376 218.862L281.266 241.647C279.374 243.902 275.937 244.003 273.919 241.858L248.897 215.34L254.175 208.482V208.491Z" fill="#FFC3BD"/>
<path d="M248.897 215.357C248.897 215.357 243.856 211.877 242.065 208.305C240.275 204.733 239.532 201.034 241.221 201.034C242.91 201.034 248.897 207.317 248.897 207.317C248.897 207.317 249.564 207.503 249.716 205.966C249.919 203.981 249.328 201.042 250.51 201.034C252.596 201.008 254.184 208.499 254.184 208.499L248.906 215.357H248.897Z" fill="#FFC3BD"/>
<path d="M295.167 200.484C298.536 201.692 305.326 206.405 303.991 214.368C303.105 219.647 292.025 232.661 292.025 232.661L281.528 221.961L295.158 200.484H295.167Z" fill="#2E68B8"/>
<g opacity="0.15">
<path d="M282.541 222.991C282.161 222.696 281.798 222.383 281.427 222.071L281.351 222.003L281.41 221.885C282.55 219.656 283.85 217.536 285.184 215.433C286.536 213.347 287.946 211.286 289.542 209.352C288.461 211.616 287.203 213.769 285.894 215.88C284.568 217.983 283.192 220.069 281.663 222.046L281.646 221.86C281.95 222.231 282.254 222.603 282.55 222.991H282.541Z" fill="#0E1738"/>
</g>
<path d="M6.47577 65.157C6.34065 65.157 6.19709 65.1232 6.07042 65.0557C5.66507 64.8276 5.51307 64.3125 5.74107 63.9071C10.1323 55.9517 17.1499 49.6177 25.4933 46.0791C25.924 45.9018 26.4222 46.096 26.5995 46.5267C26.7853 46.9574 26.5827 47.4557 26.152 47.6331C18.1464 51.0196 11.4244 57.0918 7.2189 64.7179C7.0669 64.9965 6.77978 65.157 6.47577 65.157Z" fill="#0891F9"/>
<path d="M41.2593 123.962C18.9061 123.962 0.724609 105.779 0.724609 83.4242C0.724609 79.531 1.27352 75.6799 2.37133 71.9809C2.50645 71.5333 2.97091 71.2799 3.41848 71.4066C3.86605 71.5417 4.11939 72.0062 3.99272 72.4538C2.94557 76.0008 2.422 79.6914 2.422 83.4158C2.422 104.833 19.8519 122.264 41.2677 122.264C41.7322 122.264 42.1122 122.644 42.1122 123.109C42.1122 123.573 41.7322 123.953 41.2677 123.953L41.2593 123.962Z" fill="#0891F9"/>
<path d="M61.1129 118.633C60.8257 118.633 60.5386 118.481 60.3782 118.21C60.1417 117.805 60.2853 117.29 60.6822 117.053C72.6568 110.103 80.0966 97.2155 80.0966 83.4244C80.0966 82.9599 80.4766 82.5798 80.9411 82.5798C81.4055 82.5798 81.7855 82.9599 81.7855 83.4244C81.7855 97.8236 74.0248 111.268 61.5266 118.514C61.3915 118.591 61.248 118.624 61.1044 118.624L61.1129 118.633Z" fill="#0891F9"/>
<g opacity="0.4">
<path d="M6.47577 65.157C6.34065 65.157 6.19709 65.1232 6.07042 65.0557C5.66507 64.8276 5.51307 64.3125 5.74107 63.9071C10.1323 55.9517 17.1499 49.6177 25.4933 46.0791C25.924 45.9018 26.4222 46.096 26.5995 46.5267C26.7853 46.9574 26.5827 47.4557 26.152 47.6331C18.1464 51.0196 11.4244 57.0918 7.2189 64.7179C7.0669 64.9965 6.77978 65.157 6.47577 65.157Z" fill="white"/>
<path d="M41.2593 123.962C18.9061 123.962 0.724609 105.779 0.724609 83.4242C0.724609 79.531 1.27352 75.6799 2.37133 71.9809C2.50645 71.5333 2.97091 71.2799 3.41848 71.4066C3.86605 71.5417 4.11939 72.0062 3.99272 72.4538C2.94557 76.0008 2.422 79.6914 2.422 83.4158C2.422 104.833 19.8519 122.264 41.2677 122.264C41.7322 122.264 42.1122 122.644 42.1122 123.109C42.1122 123.573 41.7322 123.953 41.2677 123.953L41.2593 123.962Z" fill="white"/>
<path d="M61.1129 118.633C60.8257 118.633 60.5386 118.481 60.3782 118.21C60.1417 117.805 60.2853 117.29 60.6822 117.053C72.6568 110.103 80.0966 97.2155 80.0966 83.4244C80.0966 82.9599 80.4766 82.5798 80.9411 82.5798C81.4055 82.5798 81.7855 82.9599 81.7855 83.4244C81.7855 97.8236 74.0248 111.268 61.5266 118.514C61.3915 118.591 61.248 118.624 61.1044 118.624L61.1129 118.633Z" fill="white"/>
</g>
<path d="M41.2591 118.05C60.3811 118.05 75.8825 102.548 75.8825 83.4245C75.8825 64.3013 60.3811 48.7988 41.2591 48.7988C22.1372 48.7988 6.63574 64.3013 6.63574 83.4245C6.63574 102.548 22.1372 118.05 41.2591 118.05Z" fill="#0891F9"/>
<path opacity="0.4" d="M41.2591 118.05C60.3811 118.05 75.8825 102.548 75.8825 83.4245C75.8825 64.3013 60.3811 48.7988 41.2591 48.7988C22.1372 48.7988 6.63574 64.3013 6.63574 83.4245C6.63574 102.548 22.1372 118.05 41.2591 118.05Z" fill="white"/>
<mask id="mask1_62_2762" style="mask-type:luminance" maskUnits="userSpaceOnUse" x="6" y="48" width="70" height="71">
<path d="M75.8825 83.4245C75.8825 102.545 60.378 118.05 41.2591 118.05C22.1403 118.05 6.63574 102.553 6.63574 83.4245C6.63574 64.2959 22.1403 48.7988 41.2591 48.7988C60.378 48.7988 75.8825 64.3044 75.8825 83.4245Z" fill="white"/>
</mask>
<g mask="url(#mask1_62_2762)">
<path d="M67.7256 82.6051L76.3814 92.1651L83.3483 84.5813L73.9156 74.0247L67.7256 82.6051Z" fill="#FF847F"/>
<path d="M59.5591 55.6394C59.5591 55.6394 68.426 60.0816 77.8588 76.2712L69.3381 85.9833L51.8828 68.814L59.5675 55.6394H59.5591Z" fill="#FEC510"/>
<path d="M68.882 86.5743L78.5512 76.0177L75.5364 71.8711L65.293 83.4242L68.882 86.5743Z" fill="white"/>
<path d="M35.1788 54.4656H51.2913L59.5672 55.6479C59.5672 55.6479 70.0217 75.241 66.3398 129.206C60.3779 133.606 30.6271 133.927 22.5539 128.657C22.5539 128.657 21.8192 59.3469 23.6602 57.6326C25.5011 55.9182 35.1788 54.4656 35.1788 54.4656Z" fill="#FEC510"/>
<path opacity="0.15" d="M38.9025 113.743C37.07 108.676 57.1178 112.578 57.3796 109.52C57.5569 107.409 46.0805 106.843 40.3128 98.1192C35.1024 90.2398 24.6985 72.0318 22.7309 68.5776C22.1228 88.5169 22.5451 128.657 22.5451 128.657C30.6182 133.919 60.369 133.606 66.331 129.206C66.5505 125.955 66.7194 122.839 66.8461 119.832C58.3338 116.597 40.2199 117.391 38.9025 113.743Z" fill="#0E1738"/>
</g>
<path d="M61.2895 16.4114C55.868 17.7626 52.1354 13.5738 49.4838 12.4252C42.8209 9.54537 36.1495 13.92 35.1784 17.3235C27.139 17.3235 30.3058 28.5304 33.4895 35.1177H51.3669C65.0221 25.7772 61.2979 16.4029 61.2979 16.4029L61.2895 16.4114Z" fill="#0E1738"/>
<path d="M46.2915 19.2742C40.1691 19.2742 35.212 24.24 35.212 30.3544V31.7732C34.0382 30.9287 32.6955 31.0891 31.8763 31.7816C29.8074 33.5214 32.231 39.6864 35.212 38.9517V55.9605H51.3245V47.4983C54.9136 45.6657 57.3794 41.9413 57.3794 37.6342V30.3628C57.3794 24.24 52.4139 19.2826 46.2999 19.2826L46.2915 19.2742Z" fill="#FFC3BD"/>
<path d="M37.2812 42.8198C37.2812 42.8198 40.3974 52.2025 51.3248 49.821V47.507C49.0954 48.3515 42.8717 49.196 37.2812 42.8198Z" fill="#FF847F"/>
<path d="M35.1792 31.7477L36.2347 35.2947C36.353 35.7339 36.8343 35.9619 37.2481 35.7761L37.3072 35.7508C37.5268 35.6579 37.6788 35.4636 37.7295 35.2272C38.6922 31.013 41.6647 29.5857 41.3354 25.4644C41.3354 25.4644 53.766 29.9067 58.6977 24.3666C63.6294 18.8264 43.3621 15.3301 38.9455 17.1543C34.5289 18.97 35.1792 31.7393 35.1792 31.7393V31.7477Z" fill="#0E1738"/>
<path d="M45.4802 33.7586C45.9466 33.7586 46.3247 33.3805 46.3247 32.9141C46.3247 32.4477 45.9466 32.0696 45.4802 32.0696C45.0138 32.0696 44.6357 32.4477 44.6357 32.9141C44.6357 33.3805 45.0138 33.7586 45.4802 33.7586Z" fill="#0E1738"/>
<path d="M53.2663 33.7586C53.7327 33.7586 54.1108 33.3805 54.1108 32.9141C54.1108 32.4477 53.7327 32.0696 53.2663 32.0696C52.8 32.0696 52.4219 32.4477 52.4219 32.9141C52.4219 33.3805 52.8 33.7586 53.2663 33.7586Z" fill="#0E1738"/>
<path d="M50.404 33.2178C51.164 34.0201 51.7467 34.9575 52.1773 35.9879C52.2787 36.2497 52.3631 36.5199 52.4222 36.8071C52.456 36.9506 52.4645 37.1026 52.456 37.2716C52.456 37.356 52.4391 37.4405 52.4138 37.5418C52.3716 37.66 52.3125 37.736 52.2533 37.8036C51.7804 38.2512 51.2653 38.4117 50.7249 38.5552C51.1302 38.1921 51.5862 37.8289 51.848 37.4742C51.924 37.3982 51.8818 37.1618 51.8227 36.9253C51.7636 36.6888 51.6707 36.4439 51.5778 36.199C51.1978 35.2193 50.7417 34.2566 50.3955 33.2009L50.404 33.2178Z" fill="#FF847F"/>
<path d="M42.8711 31.5628C43.2258 30.6253 44.0027 29.8399 45.0161 29.4937C45.5227 29.3332 46.0801 29.2994 46.5952 29.4261C47.1019 29.5443 47.5664 29.7977 47.921 30.1608C46.9161 30.0426 46.0801 30.0173 45.2778 30.2875C44.4671 30.5324 43.7409 31.0392 42.8711 31.5459V31.5628Z" fill="#0E1738"/>
<path d="M56.4503 31.563C55.589 31.0478 54.8543 30.5495 54.0436 30.3046C53.2413 30.0344 52.4053 30.0597 51.4004 30.1779C51.7551 29.8148 52.2111 29.5614 52.7262 29.4432C53.2329 29.3165 53.7902 29.3503 54.3054 29.5108C55.3272 29.8486 56.1041 30.6424 56.4503 31.5798V31.563Z" fill="#0E1738"/>
<path d="M51.3583 41.1315C51.029 41.5369 50.5308 41.7902 50.0241 41.9253C49.509 42.0605 48.9685 42.0689 48.4449 41.976C47.9213 41.8662 47.3978 41.6635 46.984 41.292C46.5702 40.9373 46.2662 40.4052 46.2915 39.8816C46.6124 40.2954 46.9671 40.5572 47.3556 40.7515C47.744 40.9373 48.1662 41.0724 48.5969 41.1484C49.0276 41.2413 49.4752 41.2666 49.9312 41.2751C50.3872 41.2751 50.8432 41.2328 51.3499 41.1315H51.3583Z" fill="#FF847F"/>
<path d="M35.1361 36.9504C34.8237 36.7984 34.5281 36.6041 34.2663 36.3339C34.1481 36.1903 34.0299 36.0045 34.013 35.7765C33.9876 35.54 34.089 35.312 34.2157 35.1431C34.2917 35.0502 34.3423 34.9911 34.3677 34.9404C34.4014 34.8813 34.4437 34.8306 34.469 34.7631C34.5281 34.6364 34.5619 34.4928 34.5788 34.3493C34.621 34.0621 34.5957 33.7412 34.5112 33.4794C34.4774 33.3527 34.4014 33.2176 34.3677 33.1923C34.3254 33.15 34.1565 33.0909 34.0214 33.0571C33.7343 32.9811 33.4303 32.9811 33.1685 33.0571C32.6112 33.1923 32.3578 33.8932 32.2734 34.5773C32.1974 34.2395 32.172 33.8763 32.248 33.5047C32.3325 33.1416 32.6027 32.77 32.9827 32.6011C33.3543 32.4153 33.7681 32.4153 34.1481 32.4744C34.3508 32.5166 34.5197 32.5504 34.7561 32.7109C34.9841 32.8967 35.0601 33.0994 35.1277 33.2936C35.2375 33.6821 35.2544 34.0706 35.1868 34.459C35.1446 34.6533 35.0855 34.8391 34.9841 35.0249C34.9419 35.1178 34.8743 35.2022 34.8068 35.2782C34.7223 35.3627 34.6548 35.4303 34.621 35.464C34.1819 35.7934 34.7055 36.4859 35.1699 36.9588L35.1361 36.9504Z" fill="#FF847F"/>
<path d="M73.7531 64.8639L74.5333 65.1871C74.9642 65.3656 75.4582 65.1609 75.6366 64.73L81.4536 50.6857C81.6321 50.2547 81.4275 49.7607 80.9966 49.5822L80.2164 49.259C79.7855 49.0805 79.2915 49.2852 79.1131 49.7161L73.2961 63.7605C73.1176 64.1914 73.3222 64.6854 73.7531 64.8639Z" fill="#0E1738"/>
<path d="M76.9139 50.9691L75.2165 49.7783L79.6837 49.2209L79.4811 49.3476L80.2157 49.2547L80.9927 49.5757C81.4233 49.753 81.626 50.2513 81.4487 50.682L75.4951 65.0558C75.3769 65.3345 75.1236 65.5372 74.8196 65.571L70.251 65.8244L71.087 65.0221L76.9139 50.9607V50.9691Z" fill="#0E1738"/>
<path d="M69.8751 65.7618L69.0949 65.4386C68.6658 65.2608 68.4601 64.7643 68.6379 64.3352L74.4548 50.2908C74.6326 49.8617 75.1291 49.656 75.5582 49.8337L77.1186 50.4801L70.9784 65.3047C70.8007 65.7339 70.3042 65.9395 69.8751 65.7618Z" fill="#0E1738"/>
<path opacity="0.2" d="M69.8751 65.7618L68.3147 65.1154L74.4548 50.2908C74.6326 49.8617 75.1291 49.656 75.5582 49.8337L76.3384 50.1569C76.7675 50.3347 76.9732 50.8312 76.7954 51.2604L70.9784 65.3047C70.8007 65.7339 70.3042 65.9395 69.8751 65.7618Z" fill="white"/>
<path d="M77.6988 54.2884C78.0282 54.4235 78.442 54.187 78.6193 53.7563C78.7966 53.3256 78.67 52.8611 78.3406 52.726C78.0113 52.5909 77.5975 52.8273 77.4201 53.258C77.2428 53.6887 77.3695 54.1532 77.6988 54.2884Z" fill="#E8E9FD"/>
<path d="M64.6421 65.6391L42.1032 86.7185L27.0378 66.7961L18.4326 76.0099L34.5114 96.8613C37.7288 101.033 43.9357 101.27 47.4656 97.3595L69.9117 72.4966L64.6337 65.6306L64.6421 65.6391Z" fill="#FFC3BD"/>
<path d="M69.9202 72.4966C69.9202 72.4966 74.9617 69.0171 76.752 65.4448C78.5422 61.8724 79.2854 58.1734 77.5964 58.1734C75.9075 58.1734 69.9202 64.4567 69.9202 64.4567C69.9202 64.4567 69.2531 64.6425 69.101 63.1055C68.8984 61.1208 69.4895 58.1818 68.3072 58.1734C66.2214 58.1481 64.6338 65.639 64.6338 65.639L69.9117 72.505L69.9202 72.4966Z" fill="#FFC3BD"/>
<path d="M23.6524 57.6328C20.2829 58.8405 13.4934 63.553 14.8276 71.5169C15.7143 76.7952 26.7938 89.8093 26.7938 89.8093L37.2906 79.1092L23.6608 57.6328H23.6524Z" fill="#FEC510"/>
<path opacity="0.15" d="M36.2766 80.1311C36.5721 79.7511 36.8762 79.3795 37.1886 79.0163L37.1717 79.1768C35.4068 76.8374 33.7938 74.4052 32.24 71.9392C30.6946 69.4647 29.1999 66.948 27.8994 64.3215C29.7235 66.6186 31.3618 69.0424 32.9409 71.4916C34.5116 73.9492 36.0317 76.4405 37.3913 79.0416L37.442 79.143L37.3744 79.2021C37.0113 79.523 36.6481 79.8355 36.2766 80.1395V80.1311Z" fill="#0E1738"/>
<path d="M26.7427 90.1808L37.7884 78.9485L34.6807 74.1938L22.875 86.0341L26.7427 90.1808Z" fill="white"/>
<path d="M47.61 69.5402C47.4242 67.5133 46.7824 62.0154 44.9668 57.2101L48.1251 56.0193C50.1181 61.2976 50.7852 67.1248 50.9794 69.2953C51.0217 69.7682 50.6585 70.182 50.1856 70.2074L48.4967 70.3087C48.0407 70.334 47.6522 70.0047 47.61 69.5486V69.5402Z" fill="white"/>
<path d="M33.0934 54.8118L35.213 51.0452C35.213 51.0452 41.9688 56.1799 46.1152 55.9012C50.2615 55.6225 51.2918 52.1684 51.2918 52.1684L52.8709 54.6851C52.8709 54.6851 53.1243 58.7473 51.5789 59.6594C51.5789 59.6594 47.8126 56.7457 46.1152 57.2356C44.4262 57.7254 41.5381 60.791 41.5381 60.791L33.085 54.8118H33.0934Z" fill="white"/>
<path d="M253.221 75.8237H130.772L150.195 82.58V111.294C150.195 115.027 153.219 118.05 156.951 118.05H253.221C256.954 118.05 259.977 115.027 259.977 111.294V82.58C259.977 78.8471 256.954 75.8237 253.221 75.8237Z" fill="#FFCECE"/>
<path opacity="0.5" d="M156.951 75.8237H253.221C256.954 75.8237 259.977 78.8471 259.977 82.58V111.294C259.977 115.027 256.954 118.05 253.221 118.05H156.951C153.219 118.05 150.195 115.027 150.195 111.294V82.58L130.772 75.8237H156.951Z" fill="#FFCECE"/>
<path d="M218.597 85.4341H162.862V88.8122H218.597V85.4341Z" fill="#FF8080"/>
<path d="M247.31 105.069H162.862V108.447H247.31V105.069Z" fill="#FF8080"/>
<path d="M247.31 95.2476H162.862V98.6257H247.31V95.2476Z" fill="#FF8080"/>
<path opacity="0.15" d="M156.951 118.05L215.22 125.651V118.05H156.951Z" fill="#FFCECE"/>
<path d="M162.018 190.671H65.748C62.0154 190.671 58.9922 193.695 58.9922 197.428V226.142C58.9922 229.874 62.0154 232.898 65.748 232.898H162.018C165.75 232.898 168.774 229.874 168.774 226.142V197.428L188.196 190.671H162.018Z" fill="#FF8080"/>
<path d="M127.394 200.274H71.6592V203.652H127.394V200.274Z" fill="white"/>
<path d="M156.106 219.909H71.6592V223.287H156.106V219.909Z" fill="white"/>
<path d="M156.106 210.095H71.6592V213.474H156.106V210.095Z" fill="white"/>
<path opacity="0.15" d="M162.019 232.898L103.75 240.499V232.898H162.019Z" fill="#FF8080"/>
<defs>
<linearGradient id="paint0_linear_62_2762" x1="251.523" y1="-1.28326e-05" x2="193.343" y2="2.99911" gradientUnits="userSpaceOnUse">
<stop offset="0.213542" stop-color="#3B781F"/>
<stop offset="1" stop-color="#FDFFA7"/>
</linearGradient>
</defs>
</svg>
