<svg width="123" height="133" viewBox="0 0 123 133" fill="none" xmlns="http://www.w3.org/2000/svg">
<g clip-path="url(#clip0_112_261)">
<path d="M29.5306 3.88517C29.6212 3.57297 30.0426 3.01826 30.164 3.24149L29.626 4.32649L29.5306 3.88517Z" fill="#2E68B8"/>
<path d="M31.8682 2.75771C31.7316 3.35738 31.4055 4.35342 30.6775 5.19528C31.1024 4.1151 30.81 4.48159 31.3639 3.21318C31.2769 2.99991 30.8815 3.33653 30.6578 3.72293C30.7483 3.41073 30.2742 3.76213 30.5784 3.09822C31.2803 2.47444 31.5793 2.59873 31.451 3.42645C31.6487 3.25814 31.7735 2.95589 31.8682 2.75771Z" fill="#2E68B8"/>
<path d="M48.7107 12.4541L48.5172 12.4739C48.5172 12.4739 48.6414 12.434 48.7107 12.4541Z" fill="#2E68B8"/>
<path d="M58.3878 19.7734C58.3878 19.7734 58.3693 19.5788 58.4688 19.4941C58.473 19.6089 58.4772 19.7236 58.3878 19.7734Z" fill="#2E68B8"/>
<path d="M60.7928 20.2077C60.7928 20.2077 60.6901 20.1779 60.6558 20.1679C60.7787 20.1285 60.8572 20.1138 60.7928 20.2077Z" fill="#2E68B8"/>
<path d="M48.71 12.4547L49.1826 12.366C48.9789 12.6831 48.8818 12.5045 48.71 12.4547Z" fill="#2E68B8"/>
<path d="M32.4617 6.61522C32.4617 6.61522 32.4534 6.38708 32.4937 6.24827C32.5079 6.32763 32.5322 6.3723 32.5464 6.45166L32.4961 6.62518L32.4617 6.61522Z" fill="#2E68B8"/>
<path d="M45.0312 8.45465L44.9282 8.42477C44.9282 8.42477 45.0875 8.13235 45.1378 7.95883L44.9969 8.44469L45.0312 8.45465Z" fill="#2E68B8"/>
<path d="M41.8236 5.9077C41.8236 5.9077 41.3804 6.79453 41.1324 7.13629C41.3117 6.77462 41.372 6.56648 41.3335 6.4425C41.4525 6.28897 41.5815 6.10074 41.7893 5.89774L41.8236 5.9077Z" fill="#2E68B8"/>
<path d="M35.5029 3.69904L35.4844 3.5039C35.4844 3.5039 35.4886 3.61897 35.5029 3.69904Z" fill="#2E68B8"/>
<path d="M47.5108 10.0388C47.5108 10.0388 47.6853 9.82445 47.7747 9.77467C47.7098 9.86938 47.6103 9.95408 47.5108 10.0388Z" fill="#2E68B8"/>
<path d="M75.3672 115.778L75.456 115.728L75.9612 115.912L75.3672 115.778Z" fill="#2E68B8"/>
<path d="M84.0639 52.1511C83.0664 52.1251 83.2311 53.2258 82.1022 53.0113C82.4958 52.9374 83.3629 51.8726 84.0639 52.1511Z" fill="#2E68B8"/>
<path d="M32.6193 6.58592C32.6193 6.58592 32.7121 6.65034 32.7363 6.69489C32.6678 6.67502 32.5993 6.65515 32.6193 6.58592Z" fill="#2E68B8"/>
<path d="M70.1077 29.036C70.1077 29.036 69.8396 29.1854 69.7056 29.26C69.795 29.2103 69.8944 29.1256 70.1077 29.036Z" fill="#2E68B8"/>
<path d="M71.186 32.6208C71.186 32.6208 71.4252 32.5759 71.409 32.7616C71.3743 32.7515 71.3191 32.8117 71.2843 32.8017C71.3599 32.6712 71.3455 32.5908 71.186 32.6208Z" fill="#2E68B8"/>
<path d="M73.3675 35.5099C73.3675 35.5099 73.2428 35.5499 73.163 35.5649L73.124 35.4393L73.3675 35.5099Z" fill="#2E68B8"/>
<path d="M76.3173 99.9204C76.5718 100.069 76.8264 100.218 77.1254 100.343C76.4588 100.074 76.0433 100.48 76.3173 99.9204Z" fill="#2E68B8"/>
<path d="M32.7846 6.14445C32.6455 6.36746 32.6052 6.50628 32.6639 6.5609L32.581 6.46161C32.581 6.46161 32.7302 6.20389 32.819 6.15441L32.7846 6.14445Z" fill="#2E68B8"/>
<path d="M65.0557 37.7269L65.4863 38.0399C65.4863 38.0399 65.1629 37.8709 65.0557 37.7269Z" fill="#2E68B8"/>
<path d="M80.7569 76.6514L80.6483 76.77C80.6483 76.77 80.6683 76.7008 80.7569 76.6514Z" fill="#2E68B8"/>
<path d="M66.2938 39.3644C66.629 39.2359 66.8653 39.1915 67.0228 39.162C67.0027 39.2314 66.9482 39.2908 66.8493 39.375L66.2938 39.3644Z" fill="#2E68B8"/>
<path d="M73.7565 102.976C73.8973 102.49 75.0429 103.161 75.8185 103.311C76.3671 102.83 74.9819 102.73 74.4342 102.308C74.8782 102.06 76.1504 102.166 76.1622 101.868C75.9562 101.809 75.9076 101.719 75.6228 101.674C76.7535 101.626 76.0578 100.56 77.4489 100.512C77.356 100.447 77.263 100.383 77.16 100.353C77.7479 100.636 78.3902 100.86 78.8709 100.999C78.9313 100.791 79.8057 100.857 79.0218 100.479C78.9816 100.618 78.6726 100.528 78.3777 100.518L78.8158 100.419C77.6844 99.8279 78.3132 100.612 77.4305 100.318C77.9733 99.9869 79.1099 99.79 78.8772 99.3088C77.7399 98.8662 78.2338 99.9872 77.3445 99.2029L77.63 99.8873C75.9409 98.9087 77.6768 100.239 75.806 99.2456C75.6981 98.4622 76.6453 98.6617 76.5132 97.8336C77.2058 97.884 77.4545 98.1818 78.1471 98.2322C79.6062 97.5647 75.4599 96.5881 77.2162 96.3076C78.0563 96.3632 79.5629 96.6872 78.924 95.9379L77.569 95.733C77.6227 95.0341 79.5782 95.8643 78.8866 94.9117C78.3313 94.9011 78.3136 95.3472 78.1721 95.1934C77.2384 94.4338 79.0281 95.0655 79.0943 94.7087L77.9269 94.3702C78.3199 93.6568 79.3853 93.0632 79.7884 92.3151C79.4249 92.2849 79.0413 92.3241 78.7139 92.0412C79.565 91.1598 79.0871 89.8554 78.5589 88.7245L79.651 88.5523C79.651 88.5523 79.2005 88.3089 78.9986 88.3632C78.6872 87.8968 79.6712 88.483 80.1092 88.3843C80.2382 88.1961 79.5959 87.9723 79.2366 88.0561C80.2375 87.5566 81.4882 86.4527 80.4817 85.5591L80.1567 85.6529C79.8168 85.0279 82.3754 85.3185 81.4803 84.6829L81.2683 84.7719C81.0065 83.4925 82.0813 82.2248 80.5941 81.1918C82.1427 81.1144 79.983 79.9617 82.1254 80.0188C81.113 79.274 80.7335 79.4272 80.0864 78.4498C80.0094 78.2019 81.4106 78.1193 81.6242 77.7676L80.5137 77.7464L81.6762 77.3314L80.3656 77.1018L80.6378 76.8047C80.6378 76.8047 81.1227 77.0581 81.4619 77.0436C81.9763 76.5535 80.7075 75.9223 80.1179 75.9018L81.0051 74.7676C80.5428 74.8216 80.4138 75.0098 80.1474 75.1582C81.2573 74.5399 78.9782 75.0825 79.9993 74.5136C80.2397 74.5833 80.6535 74.44 80.8796 74.4304C80.2029 74.1966 80.1922 73.5918 80.436 73.136L79.683 73.2937C79.4278 72.5052 79.9154 71.5936 79.8034 70.6962C80.2095 70.9644 81.5036 70.7379 81.584 70.4604L80.419 70.4987C81.0891 70.2417 80.9139 70.7174 81.713 70.2722C81.5431 69.9597 80.3521 70.216 80.0212 70.4585L80.3781 69.9979C80.0389 70.0124 79.8512 70.146 79.4233 70.21C80.1377 69.9282 78.1587 69.6929 79.3657 69.2531L79.0265 69.2676C78.9044 68.4049 79.237 67.8996 79.1434 67.1956C80.1325 66.9935 79.8638 66.7651 80.6084 66.3794C80.1939 65.8831 79.3071 65.4756 79.2377 64.8162C79.6248 64.2515 80.041 64.485 80.5495 64.1435C79.639 64.3308 79.5696 63.6714 79.021 64.1516C78.9575 63.3435 78.9835 63.1254 79.4042 61.9312C79.8121 61.9366 79.9737 62.0211 80.2845 61.848C80.3549 61.6051 79.7753 61.5499 79.3616 61.6932L79.3314 61.7973C80.2606 60.2616 75.9959 60.078 77.4946 58.6323L77.4644 58.7363L78.0526 57.4779C77.7453 57.1255 77.5039 57.9581 76.8658 57.8482C77.9666 56.3624 76.0788 56.4543 76.7499 55.2951C74.0488 55.7529 76.0469 53.0981 74.0963 53.0214L74.6877 52.7792C75.1576 52.3138 74.2413 52.6498 74.0353 52.5901C74.5035 52.3874 74.635 52.5759 74.9072 52.2788C74.798 50.2164 72.3476 49.1675 70.9266 47.7777C70.4435 47.2616 73.5595 45.7583 71.8149 45.7413L70.9395 46.578C71.4441 44.5808 69.3881 44.0975 69.6264 42.2487C69.453 42.4617 69.1665 42.6794 69.2494 42.7787C68.3632 43.0106 68.6164 41.8806 69.1793 41.4798C68.9934 41.3507 68.6365 41.8113 68.2429 41.8852C67.6675 41.944 68.718 40.6315 67.9047 40.9974C67.7715 41.0716 67.7212 41.245 67.7011 41.3144C67.9248 40.928 67.0765 40.6444 68.023 40.2044C67.3363 40.0052 67.7795 39.1184 67.0668 39.1374C67.7705 38.2509 66.1012 38.7446 67.2974 37.7C66.0325 38.7247 65.7145 37.7675 66.0832 37.0095C65.7807 37.4107 65.4977 37.103 65.052 37.6131C64.8477 37.2906 64.8311 36.8345 65.5272 36.3594C63.5815 37.0362 65.8459 34.2331 63.6848 35.5244C63.6106 34.1114 63.373 32.8768 62.9277 31.8451C61.7457 32.969 63.5749 32.8225 62.2555 33.9066C62.121 32.7018 62.7636 31.3839 61.7939 30.8771C61.4648 30.8568 61.3624 31.4665 61.2133 31.7241C61.0343 30.544 59.8066 30.4136 59.8295 29.1793C59.7205 29.2981 59.6703 29.4716 59.63 29.6103C59.5672 29.4417 59.1837 29.4809 59.7323 29.0007L59.6619 29.2435C60.673 28.7094 60.8207 27.1728 61.2019 26.7568C59.8933 28.4457 60.2061 26.4681 58.6578 28.7268C58.7081 28.5533 58.8087 28.2064 59.2041 27.8698C58.988 27.8448 58.746 28.0378 58.4577 28.5183C58.2954 27.7943 59.0057 27.3986 58.5954 27.0164C58.3332 27.2788 58.3173 27.4622 58.0693 27.804C58.3492 27.0954 58.6291 26.3869 58.0696 26.2623C57.9406 26.4505 57.7086 26.6088 57.7915 26.7081C57.2799 26.0333 58.0575 24.3785 56.9428 24.2433C56.074 25.5708 56.3716 24.4161 55.4316 25.3469L55.3522 24.7222L55.9394 24.366C55.612 24.083 56.0067 23.1069 55.4313 23.1657L55.2502 23.7901L54.8618 23.0758L55.5503 23.0122C55.6786 22.1845 56.7281 21.7743 56.0455 21.6892C56.0296 21.8726 55.7181 21.4062 55.0321 21.8466C55.1628 21.3956 55.3037 20.91 54.8171 20.9193C54.4761 21.1965 53.8855 22.0782 53.6434 22.2712C54.2299 21.2755 53.0891 21.3584 53.6957 20.2933C53.5809 20.5609 53.1252 21.1056 52.992 21.1798L53.4495 20.3723C53.1245 20.4661 52.9913 20.5403 52.6344 21.0009C52.0809 20.7276 53.9052 19.8276 52.8776 19.9057C52.8474 20.0097 52.7485 20.0939 52.7669 20.2872C51.9571 20.1276 52.083 18.9232 51.2873 18.8429C50.2787 19.7538 51.5142 19.4727 50.6346 20.1954C50.0845 19.3966 50.1695 17.6914 49.2625 17.3532L49.4887 17.3436C50.5753 15.7784 48.3563 17.6545 48.5692 16.6633C48.5533 16.8467 48.0372 17.5996 48.1319 17.4014C47.4694 17.247 47.432 16.2208 47.031 15.1644L46.8215 15.6301C46.2704 15.7335 45.8903 15.2473 45.4339 15.1525C45.6433 14.6868 45.403 14.6171 45.9517 14.1369C43.288 15.6209 44.9715 11.4835 42.6831 12.7003C42.7761 12.7648 42.6797 13.2258 42.5867 13.1612L42.1112 12.2336C42.6658 11.6047 42.5066 11.897 43.0352 11.4862C43.2447 11.0204 43.2381 10.5296 43.0522 10.4005C43.0671 11.1194 42.2538 11.4852 41.8441 11.7425C42.0075 11.5642 42.1223 11.2967 42.2957 11.0837C41.0267 11.9943 43.2291 9.66209 42.1008 10.0871L41.8771 10.4735C41.7859 10.1462 41.9569 9.55646 41.6479 9.46686C40.9944 10.1799 41.61 9.98237 41.1585 10.6412C40.8997 10.3781 41.6087 8.70337 40.7693 9.28732C40.7475 9.61944 40.9334 9.74856 40.9216 10.046C39.9733 10.7488 40.0881 10.4812 39.759 10.461L38.9575 10.5294L39.2682 10.3563C40.3157 8.02762 38.7584 9.41875 39.1482 7.68911C38.7785 9.34938 38.7251 8.50657 38.1244 9.42295C37.8237 9.56139 37.4099 9.70465 37.3194 10.0169C37.5809 9.11494 36.5262 10.3133 36.9084 8.99515C36.6805 9.26753 36.6195 8.83617 36.172 9.60897C36.008 9.14773 36.5976 9.16828 36.8213 8.78187C36.9875 7.43864 34.843 9.18599 35.0469 7.32724C34.8076 6.35531 35.3456 5.27031 35.1104 4.41241C34.602 4.75385 34.5524 5.56679 34.5524 5.56679C33.9367 5.76435 33.7709 5.56586 33.6714 5.01051C33.5809 5.32271 33.3488 5.48106 33.0523 5.73353C32.8622 5.4904 33.6104 4.57915 32.9947 4.7767C32.8154 5.13837 32.5414 5.69821 32.455 6.12444C32.3597 5.68312 32.4336 4.91483 32.3382 4.47351C31.9126 4.9142 32.008 5.35551 31.8873 5.77178C31.7232 5.31055 31.3289 4.74494 31.7721 3.85811L32.1859 3.71485C32.1859 3.71485 31.6657 4.35372 31.674 4.58177C31.5457 5.40949 32.2737 4.56762 32.4672 4.28529L32.376 3.958C33.7231 2.39311 33.0291 4.78666 33.4997 4.96073L34.1525 3.60816L33.8833 4.92153C34.1799 4.66907 34.7102 3.99551 34.6533 3.67817C35.3737 3.24775 34.6196 4.30771 35.3258 3.79796C35.4247 3.71381 35.4448 3.64443 35.4649 3.57505L35.52 4.15512C35.6106 3.84292 36.1693 3.32803 35.8644 3.35245C36.8595 3.00168 36.1003 4.84984 36.9212 4.07254L36.9514 3.96847C37.3926 4.88611 36.375 4.92949 36.213 6.38676L38.0987 4.37636L37.5566 5.34733C37.5566 5.34733 37.8313 5.42698 38.0651 5.0059C37.9024 5.82366 37.7384 5.36243 37.4928 6.08095C38.4109 5.48221 38.2229 7.15756 39.2936 5.77576C38.9592 6.54374 38.5791 6.05746 38.6183 6.82094C39.7878 5.35498 38.8652 7.38142 39.7087 6.91149C40.152 6.02466 39.5707 6.23216 40.3799 5.75228C39.6525 7.23365 41.224 5.92185 41.3194 6.36317C40.5897 7.46777 41.6232 7.24098 41.8299 7.94021C42.0537 7.55382 43.1223 7.97648 43.8107 7.91286L43.9397 7.72464C43.2343 8.87388 43.8381 8.97376 44.0022 9.43499C44.4537 8.77621 44.5786 8.47396 44.6206 8.07247L44.9237 8.31079C44.7343 8.70715 44.7326 8.96988 44.8096 9.21783L45.3215 8.35093C45.7075 8.68849 45.4342 9.88783 46.3346 9.73524C45.8185 10.4881 44.4062 11.5076 44.5626 12.3803C44.8994 11.9891 45.4297 11.3155 45.3971 11.0428C45.377 11.1122 45.3007 11.5038 45.557 11.3901L45.7984 10.5575C46.2808 10.4342 45.5286 11.2314 45.7689 11.3011C46.2004 10.7117 46.233 10.9844 46.5111 10.5385C46.5313 10.4692 46.1761 10.667 46.2566 10.3895C46.5313 10.4692 47.0682 10.2864 47.4636 9.94977C47.1913 10.2469 46.9031 10.7274 47.0002 10.906C47.3862 11.2435 47.6477 10.3416 48.0958 10.2083C47.8863 10.674 48.4676 10.4665 47.8083 11.3283C47.9356 11.4028 48.2623 11.0463 48.4701 10.8433C48.3879 11.3836 49.3392 11.697 48.4253 12.4098L48.3566 12.3899C48.3566 12.3899 48.3365 12.4592 48.3265 12.4939C48.3421 13.8522 50.0818 13.1157 50.4643 13.9787L50.6922 13.7064C50.8403 14.351 51.4039 14.5896 51.1968 15.4321C51.3141 15.5413 51.877 15.1405 52.0906 14.7887C52.2203 15.24 52.0067 15.5917 52.7839 15.4787C52.8821 14.755 53.2237 15.1173 52.7732 14.8738C53.3427 14.9638 53.8269 14.5777 53.6181 15.6829C54.0412 14.8655 54.6593 15.0447 54.6617 15.4214L53.9816 15.7131C54.0929 15.971 54.3232 16.0754 54.5535 16.1798L55.2187 15.1693C56.9466 14.7302 55.0262 18.2723 57.1974 16.9464C56.853 17.7491 56.3959 17.0148 55.9425 17.9363C56.4132 18.1104 57.9185 17.1555 58.0014 17.2547C58.916 17.1815 57.2824 18.9641 58.1023 19.089C57.7613 19.3662 56.9404 20.1436 57.0541 20.7782C57.5147 20.987 58.7068 19.8284 58.6902 19.3723C58.6416 19.283 58.5185 19.3225 58.4096 19.4414C58.4012 19.2133 58.3686 18.9406 58.8369 18.738L58.5889 19.0797C59.0471 18.9117 59.5059 19.3832 59.8687 18.7739C59.8552 19.3341 59.5059 19.3832 59.1667 19.3977C60.0369 19.3492 59.8701 20.0529 60.6213 20.1579C60.3993 20.2816 59.9797 20.5735 60.0383 20.6281C61.0784 20.8921 59.7868 21.4954 60.1024 22.0758C60.8069 21.8287 61.0885 20.8575 61.152 21.6656C61.7274 21.6068 62.0073 20.8982 62.1078 20.5513C61.9636 21.5624 63.2652 20.9245 63.5985 21.0588L63.6263 20.5779C63.6245 20.8407 63.7418 20.9499 63.8247 21.0491L63.0842 21.5489C63.3003 21.574 63.4275 21.6485 63.6797 21.4208C63.4157 21.9459 62.5924 22.3465 62.3267 23.1344C62.8091 23.011 62.4932 23.9724 63.3828 23.215C62.5587 22.976 64.2381 22.4476 63.9225 21.8672C63.9065 22.0506 64.0237 22.1598 64.2398 22.1849C64.3387 22.1007 64.4032 22.0066 64.389 21.9273C65.6043 21.7156 63.7178 23.0865 64.2454 23.5779C64.6224 23.0479 65.238 22.8503 65.2221 23.0337C64.9876 22.8153 64.3626 23.6871 64.2117 24.2074C64.8801 24.2132 64.2911 24.8321 64.5114 24.9712L64.1479 24.941C63.7709 25.471 63.9668 25.5654 64.0823 25.9374C64.4777 25.6007 64.1344 25.5012 64.3463 25.4122C63.7841 26.4526 65.7534 25.1809 65.5605 26.1027C66.043 25.9794 66.4602 25.3107 66.8095 25.2615C66.5965 26.2527 67.8916 25.124 67.7674 26.0657C67.0027 26.5209 67.166 26.3426 66.8358 27.2246L66.6125 26.0693L66.1172 27.3923C65.9171 27.1839 66.0981 26.5595 65.8477 26.5245C65.5335 27.2231 65.6868 27.0795 65.0653 27.4258C66.2781 26.8373 65.0483 28.5114 66.0031 28.2994L67.5704 26.8736C68.7556 26.7659 67.6086 28.5393 68.6186 28.9073L68.132 28.9166C67.5673 29.5803 68.4333 29.4177 68.3369 29.8786C68.8513 29.3885 69.1561 29.364 69.58 29.1861C69.1846 29.5227 70.0732 29.6675 69.0445 30.6479L70.0194 30.3665C70.779 30.6995 69.0039 32.3283 69.6303 32.7356C70.0818 32.0768 70.6916 32.028 70.8341 31.2796C70.9999 31.4781 71.2403 31.5478 70.8549 31.8497C71.2788 31.6718 70.5331 32.9598 71.1931 32.7375C70.9995 33.0198 70.4509 33.5 70.661 33.6738C70.7942 33.5996 70.9475 33.456 70.9475 33.456C70.661 33.6738 70.8351 34.1003 70.0419 34.3968C72.2339 33.641 71.1362 36.1431 73.0375 35.491C73.1371 36.0464 73.3195 36.701 73.5623 37.1474C73.7156 37.0038 73.8488 36.9296 73.7458 36.8998C74.6687 37.0546 72.3057 38.4001 73.3316 38.5848C74.5084 38.2491 73.6015 37.9109 74.0981 37.8669C76.0917 36.6399 74.3475 38.8041 75.7504 38.4588L75.8007 38.2853C76.6567 38.1575 75.576 39.574 76.0449 40.0108C76.0449 40.0108 76.1982 39.8672 76.3213 39.8277C75.543 40.843 75.6551 41.7404 75.68 42.4246C76.3477 41.7908 75.9682 41.944 76.7916 41.5435C76.8142 41.8509 75.4698 42.2508 75.5149 42.8656C76.0317 42.7522 76.6012 42.8421 77.479 42.3821L77.2807 41.9109C78.522 41.4811 77.5862 42.526 77.8952 42.6156L78.3593 42.2989C78.6146 43.0874 77.4059 43.7899 77.873 44.4895L77.4593 44.6327C76.469 45.737 78.3295 44.5842 77.6257 45.4707L78.9416 44.9121C78.8109 45.3631 78.2528 46.5175 78.2636 47.1223C79.0845 46.345 79.2371 45.5619 79.5756 44.9079C79.7213 45.1758 79.9724 45.8503 79.4237 46.3305C79.474 46.157 79.7119 45.85 79.4858 45.8596C78.6791 46.7163 78.4092 47.3901 78.7006 47.9259C81.0979 46.5903 79.9859 49.0131 82.1176 48.4654C81.6264 49.9024 83.3835 50.2615 83.7341 51.4913C81.5983 51.925 83.8153 51.8533 81.7607 52.649C81.7388 52.9811 81.8217 53.0803 81.9448 53.0408L83.4858 53.3748C84.1642 53.3459 83.8326 52.9489 84.2908 52.7809C84.6952 53.3118 85.2498 52.6829 85.9709 52.892C85.2078 53.0844 85.0084 53.5154 85.4246 53.7489L84.2998 53.6484C83.5298 54.8918 86.2847 53.7351 85.539 55.0231L86.0978 54.5082C85.8581 55.078 86.6912 56.1845 85.1759 57.1742C85.4364 57.1745 86.0562 57.0909 86.1266 56.8481C86.7294 57.8502 85.0455 59.8063 86.3444 60.3334L86.8226 60.096C86.7522 60.3388 85.9389 60.7047 86.5327 60.8393C86.7446 60.7503 87.0453 60.6118 87.0939 60.7011C86.9406 60.8447 86.3072 61.4884 86.6992 61.6772L87.2177 61.3011C88.1455 62.2094 86.2264 63.3076 86.0235 64.2642C87.5739 63.924 88.2127 64.6733 88.5544 65.0356L88.7562 64.9813C89.2099 66.241 87.8704 67.3945 87.3952 68.6481C89.2151 69.1758 88.4114 71.0487 89.4363 72.1356C89.1474 71.9766 88.2068 72.2679 88.0677 72.4908C88.4052 72.7391 87.0449 73.3224 88.4562 73.2052L88.4076 73.1159C89.8272 73.2266 89.4644 73.8359 89.5154 74.302L87.6418 74.4733C90.4456 75.5871 86.688 77.506 89.1359 78.1782C88.6476 78.4502 88.6601 78.7923 88.1717 79.0644L89.1692 79.0904C89.3801 79.9036 89.4855 80.3102 89.1696 81.2716L89.9225 81.1139C89.9433 81.684 86.9509 81.606 86.8544 82.0669L88.3368 82.3463C88.2126 83.2881 89.4536 84.4 87.9643 85.1716C88.1804 85.1966 88.6226 85.212 88.6972 85.0832C88.6795 85.5293 89.4564 86.958 87.4347 86.4846C88.7898 86.6895 87.4135 87.4562 86.7375 87.8619L87.7149 87.9573C86.3865 88.1738 86.0331 88.1089 85.5874 88.619C85.6946 88.7629 86.3671 88.8827 86.1327 88.6643C86.5714 89.2051 85.1435 88.8663 85.5521 89.5113L86.2062 89.4377C86.1784 89.9185 85.8694 89.8289 85.0578 89.932C84.6239 90.1447 85.1254 90.8542 85.9839 91.1031C85.4386 91.0578 84.6614 91.1709 84.8657 91.4934C85.209 91.5929 85.4109 91.5386 85.5239 91.5338C86.0338 92.4714 84.1075 92.4393 84.9725 93.179C85.2815 93.2686 85.4532 93.3184 85.5361 93.4176C85.6485 92.7733 85.7206 92.2677 85.6318 92.3172C86.5447 92.5067 86.5655 93.0768 87.898 92.9743C87.1149 93.2361 85.4858 93.5911 85.8014 94.1715C85.9044 94.2013 85.963 94.2559 86.1004 94.2958L86.2235 94.2562C86.2235 94.2562 86.1631 94.4644 85.9956 94.5286C86.0927 94.7072 86.1999 94.8511 86.1597 94.9899C86.8807 95.1989 86.4108 95.6643 86.3747 95.9171C85.4133 95.6384 85.4944 96.0003 84.7508 95.4839C84.8095 95.5385 84.8639 95.4791 84.9485 95.3156C84.9586 95.2809 85.003 95.2562 85.0817 95.2414L85.013 95.2215C85.013 95.2215 85.148 94.8845 85.2184 94.6417C84.6773 94.7105 84.2049 94.7991 84.6738 95.2359C84.0156 95.1955 83.3472 95.1897 83.0181 95.1695C84.2767 95.8353 84.841 96.7134 85.645 97.0217C84.9086 97.6356 84.7886 98.6913 82.838 98.6146C82.5373 98.7531 83.2827 99.0068 83.5372 99.1558C83.7391 99.1015 83.7551 98.9181 84.0499 98.9284C83.4828 99.2152 83.5161 100.127 82.1912 99.8185C82.5897 100.498 83.4391 99.8795 83.0218 100.548L83.4297 100.554C84.9887 102.623 79.4897 101.818 81.5478 104.22C81.4063 104.066 81.3577 103.977 81.1618 103.882C81.683 106.064 78.8452 107.122 80.0089 109.527C80.2014 110.147 79.3773 109.908 78.6444 109.997L79.6242 110.469L78.2674 110.527C77.1492 110.917 80.2728 112.725 78.3246 113.025L77.6882 112.653C77.6906 113.029 76.9057 113.554 77.6955 113.783C77.5581 113.743 76.9643 113.608 77.2574 113.881L77.7867 114.11L76.5797 114.55C76.732 115.308 78.7228 115.246 78.4855 116.193C78.1547 116.436 76.5859 116.582 76.2929 116.309C76.3331 116.171 76.0945 115.838 75.5652 115.609L75.1757 115.797C73.582 115.26 71.9137 114.852 71.1251 113.72L72.2859 113.568L71.6009 113.106L71.4015 113.537C70.7709 113.016 71.4878 113.111 71.9744 113.102C71.5825 112.913 71.338 112.729 71.2409 112.551L72.9411 112.592C72.3532 112.309 71.6304 112.363 71.432 111.891C72.2034 111.927 72.7049 112.637 73.3205 112.439C72.69 111.918 72.0962 111.783 72.8291 111.695C72.4371 111.506 72.1423 111.496 71.9505 111.515C72.536 111.422 72.4264 110.901 73.3049 111.081C72.5471 110.485 73.8755 110.268 72.3848 109.761C72.7826 109.801 73.7315 109.738 73.8706 109.515C71.9259 109.289 74.1078 108.568 72.1507 108.001C73.8592 108.271 73.3067 107.095 74.3846 106.843C74.2473 106.804 73.9525 106.793 74.0354 106.893C74.0329 106.516 73.5824 106.272 73.3438 105.94C74.6728 106.363 75.157 105.977 76.0758 106.018C74.9462 105.164 74.4561 105.698 73.2803 105.132C74.3489 105.555 74.5945 104.836 75.4369 105.268C74.7478 104.692 75.1397 104.881 74.1113 104.32C75.7838 104.842 74.5008 104.132 75.5812 104.257C74.9323 103.543 74.0621 103.591 74.7422 103.299C74.2976 102.907 73.5689 103.11 73.5689 103.11L73.7565 102.976ZM80.1074 92.37C80.1074 92.37 79.9885 92.5236 79.9684 92.593C79.9784 92.5583 79.9985 92.4889 80.1074 92.37ZM80.3891 91.3987C80.3891 91.3987 80.3773 91.6962 80.3371 91.8349C80.6804 91.9345 81.0338 91.9994 81.0297 91.8853C80.8035 91.895 80.6579 91.6271 80.3891 91.3987ZM86.6203 95.1986C86.6203 95.1986 86.6119 94.9706 86.4503 94.8861C86.4302 94.9555 86.3657 95.0496 86.2668 95.1337L86.1638 95.1039C86.3355 95.1537 86.5072 95.2034 86.6647 95.1739L86.6203 95.1986Z" fill="#2E68B8"/>
<path d="M85.2152 95.1667C85.2152 95.1667 85.1359 95.1816 85.1258 95.2165C85.0567 95.1964 84.9733 95.0965 84.9489 95.0516L85.2801 95.072L85.2497 95.1767L85.2152 95.1667Z" fill="#2E68B8"/>
<path d="M48.4736 12.4989C48.4736 12.4989 48.4534 12.5684 48.3746 12.5832C48.3847 12.5485 48.4291 12.5237 48.4736 12.4989Z" fill="#2E68B8"/>
<path d="M80.2604 77.7094L80.4799 77.7348L80.2748 77.7899L80.2604 77.7094Z" fill="#2E68B8"/>
<path d="M41.8836 11.8632C41.8836 11.8632 41.7381 11.9738 41.6828 12.0342C41.7032 11.9637 41.7934 11.9135 41.8836 11.8632Z" fill="#2E68B8"/>
<path d="M39.7879 10.6196L39.3153 10.7083C39.5617 10.6292 39.7192 10.5997 39.7879 10.6196Z" fill="#2E68B8"/>
<path d="M37.9634 9.97799C37.9634 9.97799 38.1126 9.72028 38.1872 9.59142L37.9634 9.97799Z" fill="#2E68B8"/>
<path d="M59.6443 29.6862C59.6443 29.6862 59.6341 29.7214 59.6588 29.7668C59.6221 30.0235 59.6179 29.9077 59.6443 29.6862Z" fill="#2E68B8"/>
<path d="M55.0121 21.9157C54.9517 22.1239 54.9014 22.2975 54.8955 22.4462C54.7238 22.3964 54.6207 22.3665 55.0121 21.9157Z" fill="#2E68B8"/>
<path d="M64.9961 37.6707L65.0566 37.7271L64.9961 37.6707Z" fill="#2E68B8"/>
<path d="M55.2232 22.7292C54.9869 22.7735 54.914 22.6395 54.8856 22.4808C55.023 22.5206 55.1947 22.5705 55.2232 22.7292Z" fill="#2E68B8"/>
<path d="M31.0273 5.78564L30.9246 5.75584C30.9246 5.75584 30.9547 5.65199 30.999 5.62731L31.0273 5.78564Z" fill="#2E68B8"/>
<path d="M31.0332 5.6369L31.0048 5.47858C31.0048 5.47858 31.0733 5.49844 31.0332 5.6369Z" fill="#2E68B8"/>
<path d="M30.9578 5.124L31.0049 5.47827C31.0049 5.47827 30.8321 5.42817 30.9578 5.124Z" fill="#2E68B8"/>
<path d="M33.3506 6.7599L33.1813 7.08701C33.1813 7.08701 33.2316 6.9135 33.3506 6.7599Z" fill="#2E68B8"/>
<path d="M33.9118 7.26143C33.7401 7.21165 33.0884 7.66198 33.0315 7.34465L33.1807 7.08704C32.9611 7.58746 34.1272 6.64698 33.9017 7.29612L33.9118 7.26143Z" fill="#2E68B8"/>
<path d="M39.0609 5.29464L38.3541 5.1649C38.6506 4.91243 39.0904 4.55108 38.9003 4.30794C40.2405 3.794 38.267 4.95163 39.0609 5.29464Z" fill="#2E68B8"/>
<path d="M41.0209 5.97585C40.8605 5.62751 41.3445 5.50376 41.474 5.31493C41.4663 5.72772 41.436 5.83212 41.0209 5.97585Z" fill="#2E68B8"/>
<path d="M52.4942 14.6802L53.0446 13.9372C53.1559 14.1952 52.8167 14.2096 52.4942 14.6802Z" fill="#2E68B8"/>
<path d="M51.5592 20.0875L50.9921 20.3744L51.4295 19.6362L51.5592 20.0875Z" fill="#2E68B8"/>
<path d="M57.0212 16.1429L57.0371 15.9594L57.1367 16.515L57.0212 16.1429Z" fill="#2E68B8"/>
<path d="M73.6789 34.4359L72.7164 35.0594C72.7969 34.7818 73.7653 34.0097 73.6789 34.4359Z" fill="#2E68B8"/>
<path d="M78.5364 44.1172C79.075 43.9338 79.5329 44.0289 79.1404 44.481C78.964 44.3167 78.4515 44.2812 78.5364 44.1172Z" fill="#2E68B8"/>
<path d="M89.2654 74.9064L89.6409 74.639L89.3282 75.0751L89.2654 74.9064Z" fill="#2E68B8"/>
<path d="M97.9187 103.476C98.02 103.769 98.2368 104.433 98.1639 104.299L97.7831 103.174L97.9288 103.441L97.9187 103.476Z" fill="#2E68B8"/>
<path d="M98.4053 105.648C98.1927 105.097 97.8302 104.165 97.508 103.094C97.909 104.15 97.7349 103.724 98.2228 104.993C98.2957 105.127 98.1517 104.597 98.012 104.18C98.1132 104.473 97.9794 103.907 98.2204 104.617C98.4455 105.509 98.4254 105.579 98.15 104.859C98.227 105.107 98.3283 105.4 98.381 105.603L98.4053 105.648Z" fill="#2E68B8"/>
<path d="M95.959 108.436L95.9306 108.278C95.9306 108.278 95.969 108.401 95.959 108.436Z" fill="#2E68B8"/>
<path d="M94.2837 109.716C94.2837 109.716 94.3572 109.851 94.4062 109.941C94.3572 109.851 94.3327 109.806 94.2837 109.716Z" fill="#2E68B8"/>
<path d="M94.413 111.071C94.413 111.071 94.4231 111.037 94.4331 111.002C94.4717 111.126 94.4616 111.161 94.413 111.071Z" fill="#2E68B8"/>
<path d="M95.9584 108.434L96.04 108.798C95.9238 108.424 95.9727 108.514 95.9584 108.434Z" fill="#2E68B8"/>
<path d="M97.0745 103.04C97.0745 103.04 97.1381 103.211 97.2119 103.346C97.1771 103.336 97.1627 103.256 97.1279 103.246L97.0644 103.075L97.0745 103.04Z" fill="#2E68B8"/>
<path d="M97.081 109.062C97.081 109.062 97.1823 109.355 97.2451 109.523L97.081 109.062Z" fill="#2E68B8"/>
<path d="M97.7588 109.033C97.7588 109.033 97.4307 108.111 97.2909 107.694C97.4407 108.076 97.4935 108.279 97.5521 108.334C97.6149 108.502 97.6919 108.75 97.7688 108.998L97.7588 109.033Z" fill="#2E68B8"/>
<path d="M98.2054 106.981L98.2783 107.115C98.2783 107.115 98.2297 107.026 98.2054 106.981Z" fill="#2E68B8"/>
<path d="M96.7086 109.441C96.7086 109.441 96.7861 109.691 96.835 109.781L96.7086 109.441Z" fill="#2E68B8"/>
<path d="M76.284 109.538C76.284 109.538 76.3325 109.627 76.3467 109.706C76.2982 109.617 76.284 109.538 76.284 109.538Z" fill="#2E68B8"/>
<path d="M77.6521 114.447L77.6764 114.491L77.9092 114.973L77.6521 114.447Z" fill="#2E68B8"/>
<path d="M88.8076 113.846C88.5381 112.978 88.2936 112.794 88.0099 111.847C88.1597 112.229 88.6737 113.28 88.8076 113.846Z" fill="#2E68B8"/>
<path d="M88.0098 111.847L87.9754 111.837L87.9712 111.723L88.0098 111.847Z" fill="#2E68B8"/>
<path d="M92.7529 112.433C92.7529 112.433 92.6516 112.14 92.6131 112.016C92.6617 112.105 92.7002 112.229 92.7529 112.433Z" fill="#2E68B8"/>
<path d="M91.7487 111.277C91.7487 111.277 91.8013 111.48 91.7286 111.346C91.7386 111.311 91.7144 111.267 91.6902 111.222C91.7286 111.346 91.7871 111.4 91.7244 111.232L91.7487 111.277Z" fill="#2E68B8"/>
<path d="M91.2012 111.494C91.2012 111.494 91.1623 111.369 91.148 111.289L91.2113 111.459L91.2012 111.494Z" fill="#2E68B8"/>
<path d="M78.1174 109.24C78.2291 109.498 78.3307 109.792 78.4668 110.096C78.1703 109.444 78.004 109.244 78.1174 109.24Z" fill="#2E68B8"/>
<path d="M97.2549 103.584C97.1779 103.336 97.1293 103.247 97.1151 103.168C97.1151 103.168 97.1151 103.168 97.1494 103.178C97.1879 103.302 97.2507 103.47 97.2649 103.55L97.2549 103.584Z" fill="#2E68B8"/>
<path d="M82.0811 107.646L81.998 107.547C81.998 107.547 81.998 107.547 82.0811 107.646Z" fill="#2E68B8"/>
<path d="M88.6173 103.975C88.7085 104.303 88.7613 104.506 88.7998 104.63C88.7856 104.551 88.7269 104.496 88.6884 104.372L88.593 103.931L88.6173 103.975Z" fill="#2E68B8"/>
<path d="M76.9468 108.15C76.9468 108.15 77.4993 109.326 77.8534 110.03C78.1021 110.328 77.491 109.098 77.2641 108.468C77.4785 108.756 78.0168 109.852 78.0369 109.783C77.9498 109.569 77.9255 109.525 77.8142 109.267C78.324 110.204 78.0161 109.213 78.6372 110.408C78.5987 110.284 78.5502 110.195 78.5016 110.105C78.7728 110.711 79.034 111.35 79.2081 111.777C79.2425 111.787 79.6309 112.501 79.2626 111.718C79.2626 111.718 79.1169 111.45 78.9712 111.182L79.1755 111.504C78.6917 110.349 78.947 111.137 78.5644 110.274C78.803 110.607 79.3229 111.509 79.2317 111.182C78.7378 110.061 78.9487 110.874 78.5821 109.828L78.6674 110.304C77.9568 108.518 78.6615 110.453 77.9124 108.543C77.8756 108.156 78.2824 109.064 78.2901 108.653C78.5613 109.258 78.6969 109.56 79.0025 110.175C79.6639 111.232 77.9009 107.299 78.6778 108.728C79.0219 109.467 79.6614 110.855 79.4405 110.077L78.8738 108.822C78.9241 108.649 79.7318 110.613 79.4724 109.71C79.2397 109.229 79.2095 109.333 79.1467 109.164C78.7801 108.118 79.5009 109.869 79.5896 109.819L79.0958 108.698C79.2817 108.827 79.7731 109.572 79.9934 109.711C79.8335 109.363 79.6635 109.051 79.548 108.679C79.9625 109.175 79.8546 108.392 79.7367 107.643L80.2122 108.571C80.2122 108.571 80.0482 108.11 79.9511 107.931C79.8456 107.524 80.2223 108.536 80.4064 108.928C80.4751 108.948 80.2039 108.343 80.0582 108.075C80.5396 108.854 81.1483 109.707 80.7918 108.626L80.6461 108.358C80.5851 107.927 81.6113 110.293 81.2832 109.37L81.1861 109.192C81.2239 108.676 81.8083 109.485 81.3221 107.952C81.9273 109.331 81.2628 107.258 82.0806 109.188C81.7827 108.161 81.6127 107.849 81.4948 107.1C81.525 106.996 82.0817 108.285 82.2131 108.474L81.8021 107.452L82.3161 108.504L81.8524 107.279L82.0081 107.512C82.0081 107.512 82.1621 108.008 82.2734 108.266C82.5606 108.688 82.1656 107.483 81.953 106.932L82.5031 107.731C82.3289 107.304 82.2461 107.205 82.1004 106.937C82.6244 107.954 81.6752 105.836 82.1507 106.764C82.2377 106.977 82.4219 107.369 82.509 107.582C82.2821 106.952 82.4053 106.913 82.571 107.111L82.2513 106.417C82.3217 106.174 82.6775 106.616 82.835 106.586C82.9161 106.948 83.4242 108.148 83.5071 108.248L83.0819 107.147C83.3774 107.796 83.2217 107.563 83.58 108.381C83.5859 108.233 83.1263 107.122 82.922 106.799L83.1607 107.132C83.025 106.829 82.9279 106.651 82.7882 106.234C83.0837 106.884 82.4517 105.084 82.9699 106.249L82.8443 105.912C82.8443 105.912 83.2162 106.17 83.3636 106.175C83.7603 107.118 83.7177 106.88 84.0617 107.619C84.0492 107.277 83.8283 106.498 83.9657 106.538C84.2428 106.994 84.2997 107.312 84.5809 107.882C84.2327 107.029 84.3701 107.069 84.0988 106.464C84.3049 106.523 84.3392 106.533 84.7821 107.188C84.8976 107.56 84.926 107.719 85.0717 107.987C85.1445 108.121 85.0006 107.59 84.8164 107.198L84.7679 107.109C85.4577 108.324 84.2057 104.426 85.0495 106.138L85.001 106.048L85.5309 106.916C85.5309 106.916 85.2254 106.301 85.0915 105.736C85.8098 107.11 85.2951 105.419 85.7806 106.312C84.8935 103.723 86.2229 106.327 85.7425 104.646L85.9794 105.241C86.2607 105.812 85.8982 104.879 85.8698 104.721C86.0338 105.182 86.0481 105.261 86.1736 105.599C86.784 106.189 86.5055 104.454 86.6179 103.81C86.6783 103.601 87.8852 106.885 87.4676 105.372L86.998 104.296C87.7566 105.531 87.4763 104.058 88.1478 105.08C88.0364 104.823 87.9109 104.485 87.9008 104.52C87.6556 103.697 88.0784 104.421 88.3396 105.061C88.3597 104.991 88.137 104.476 88.0215 104.104C87.9019 103.618 88.5213 105.076 88.2661 104.287C88.2276 104.163 88.1547 104.03 88.1304 103.985C88.3146 104.377 88.2494 103.831 88.5675 104.788C88.4821 104.312 88.8747 105.141 88.7509 104.541C89.1963 105.573 88.7301 103.971 89.2708 105.444C88.7058 103.926 88.9746 104.154 89.2944 104.849C89.096 104.378 89.1748 104.363 88.9136 103.723C88.9823 103.743 89.138 103.976 89.4276 104.775C88.8501 102.915 90.2146 106.169 89.4144 103.793C89.9059 104.537 90.286 105.024 90.6034 105.341C90.0384 103.824 90.363 105.272 89.7838 103.675C90.1781 104.24 90.7449 105.495 90.7868 105.094C90.7442 104.856 90.5257 104.454 90.4143 104.196C90.8087 104.761 90.6765 103.933 91.1236 104.702C91.0851 104.578 90.988 104.4 90.9394 104.31C91.0081 104.33 90.9311 104.082 91.1822 104.757L91.0851 104.578C91.4174 105.615 91.9758 106.642 92.154 107.182C91.3907 105.193 92.1232 106.647 91.1371 104.142C91.21 104.276 91.3456 104.579 91.5096 105.04C91.4812 104.881 91.4042 104.633 91.1815 104.117C91.4202 104.45 91.6511 105.194 91.7399 105.144C91.6144 104.807 91.5415 104.673 91.3917 104.291C91.6872 104.941 91.9484 105.581 91.9359 105.239C91.8488 105.025 91.7718 104.777 91.7718 104.777C91.9435 104.827 92.6257 106.454 92.5321 105.75C91.9813 104.312 92.4124 105.264 91.9688 103.97L92.1631 104.327L92.3556 104.947C92.3556 104.947 92.8168 105.795 92.7215 105.354L92.4988 104.838L92.709 105.012L92.8186 105.532C93.1241 106.147 93.3978 107.129 93.361 106.742C93.2882 106.609 93.4155 106.683 93.1845 105.939C93.3687 106.331 93.5428 106.758 93.4959 106.406C93.3562 105.989 93.0038 105.022 92.9025 104.729C93.3035 105.786 93.1713 104.958 93.5965 106.059C93.4852 105.801 93.2684 105.136 93.1956 105.002L93.5095 105.845C93.4425 105.563 93.404 105.439 93.2258 104.898C93.2761 104.725 93.7606 106.52 93.6427 105.771C93.6284 105.692 93.5455 105.593 93.507 105.469C93.5147 105.057 93.9316 105.93 93.8806 105.464C93.4713 104.18 93.6662 105.176 93.344 104.105C93.5886 104.289 94.1997 105.519 94.2316 105.152L94.26 105.311C94.8919 107.111 94.045 104.384 94.4376 105.212C94.3991 105.088 94.2007 104.617 94.148 104.413C94.1699 104.081 94.524 104.786 94.8597 105.297L94.6956 104.836C94.6003 104.394 94.7761 104.558 94.7779 104.295C94.9419 104.757 94.9721 104.652 95.1788 105.352C94.4792 102.629 96.0403 106.617 95.4604 104.38L95.2763 103.989L95.5735 104.376C95.8288 105.164 95.7275 104.871 95.8856 105.481C96.0497 105.943 96.2096 106.29 96.254 106.265C96.0212 105.784 95.8346 105.015 95.7049 104.564C95.7819 104.812 95.8933 105.07 95.9703 105.318C95.5669 103.885 96.5151 106.905 96.3202 105.908L96.1804 105.492C96.1804 105.492 96.5245 106.231 96.5304 106.082C96.2366 105.17 96.3563 105.655 96.0809 104.936C96.1496 104.956 96.7874 106.608 96.528 105.705C96.4066 105.482 96.4066 105.482 96.2609 105.214C95.9488 104.108 96.05 104.401 96.0317 104.208L95.9907 103.707L96.0577 103.989C96.9365 106.35 96.3549 104.377 96.9886 105.914C96.4035 104.466 96.6747 105.071 96.3424 104.034C96.2755 103.752 96.1943 103.39 96.093 103.097C96.417 103.906 95.955 102.418 96.4288 103.608C96.3376 103.281 96.4489 103.539 96.1694 102.706C96.3251 102.939 96.3376 103.281 96.4773 103.697C96.9369 104.808 96.2658 102.245 96.9095 103.748C97.2594 104.338 97.6403 105.464 97.9316 105.999C97.7877 105.469 97.5022 104.784 97.5022 104.784C97.3926 104.264 97.4755 104.363 97.6697 104.72C97.5685 104.428 97.4915 104.18 97.376 103.808C97.4689 103.872 97.8054 105.023 97.6958 104.502C97.5803 104.13 97.3434 103.535 97.2279 103.163C97.3635 103.466 97.6448 104.036 97.7804 104.339C97.6122 103.763 97.4766 103.461 97.3167 103.114C97.4724 103.347 97.6625 103.59 97.9562 104.502L98.0031 104.854C98.0031 104.854 97.7478 104.066 97.685 103.897C97.3996 103.213 97.6975 104.239 97.823 104.577L97.9545 104.765C98.5361 106.739 97.6958 104.502 97.6455 104.675L98.1276 106.094L97.6437 104.938C97.7592 105.31 98.0044 106.133 98.1015 106.312C98.2639 107.036 97.8688 105.831 98.0898 106.609C98.1282 106.733 98.1425 106.813 98.1667 106.857L97.9826 106.466C98.0839 106.758 98.2906 107.457 98.2722 107.264C98.4387 108.102 97.7481 106.247 98.0603 107.353L98.1088 107.442C97.8216 107.021 97.7422 106.396 97.2341 105.196L98.0082 107.789L97.6416 106.743C97.6416 106.743 97.6014 106.881 97.7856 107.273C97.5001 106.589 97.6559 106.822 97.4048 106.148C97.6441 107.119 97.0631 105.785 97.5879 107.442C97.2983 106.643 97.4398 106.797 97.1828 106.271C97.746 108.052 97.0028 105.993 97.2036 106.841C97.5317 107.764 97.4221 107.243 97.6229 108.091C97.068 106.539 97.6253 108.468 97.4453 108.19C97.026 106.94 97.1682 107.734 96.9154 107.322C97.0551 107.738 96.9646 108.051 97.0499 108.527L97.137 108.74C96.7177 107.49 96.6816 107.743 96.5602 107.52C96.8255 108.274 96.9268 108.566 97.0624 108.869L96.9937 108.849C96.8439 108.467 96.7468 108.288 96.674 108.154L97.0021 109.077C97.0021 109.077 96.4881 108.025 96.5918 108.695C96.2879 107.817 95.8561 106.225 95.5305 105.679C95.6945 106.141 95.9397 106.964 96.0368 107.142C96.0126 107.098 95.887 106.76 95.9397 106.964L96.2394 107.728C96.3205 108.09 95.9782 107.088 95.9924 107.167C96.2092 107.832 96.1464 107.663 96.3247 108.204C96.349 108.248 96.2578 107.921 96.3348 108.169C96.3289 108.318 96.4343 108.724 96.5883 109.22C96.4728 108.848 96.2945 108.308 96.2016 108.243C96.0986 108.213 96.4468 109.066 96.5279 109.428C96.3639 108.967 96.4735 109.488 96.1412 108.451C96.1412 108.451 96.2609 108.937 96.3622 109.23C96.1881 108.803 96.1218 109.16 95.7996 108.089L95.8197 108.019L95.751 108C95.2856 107.037 95.673 108.654 95.4101 108.277L95.5357 108.614C95.3414 108.257 95.2811 108.465 94.9714 107.736C94.9714 107.736 95.1195 108.381 95.2693 108.762C95.1136 108.529 94.9981 108.157 95.0976 108.713C95.3446 109.273 95.2415 109.243 95.3161 109.114C95.3387 109.422 95.5169 109.962 95.1101 109.055C95.424 109.898 95.4222 110.161 95.3109 109.903L95.1628 109.258C95.1628 109.258 95.0598 109.228 95.064 109.342L95.4791 110.478C95.8037 111.926 94.3783 108.241 95.0754 110.586C94.7414 109.813 94.9516 109.987 94.6134 109.099C94.5631 109.272 95.0879 110.929 95.0879 110.929C95.1916 111.598 94.4057 109.302 94.4567 109.768C94.3169 109.351 93.9603 108.27 93.7561 107.948C93.7058 108.121 94.2607 109.673 94.4306 109.986C94.465 109.996 94.4265 109.872 94.388 109.748C94.4608 109.882 94.5579 110.06 94.6876 110.512L94.5378 110.13C94.6432 110.536 94.5302 110.541 94.7913 111.181C94.5971 110.824 94.5302 110.541 94.4875 110.303C94.6013 110.938 94.3543 110.377 94.381 110.799C94.3384 110.561 94.14 110.09 94.14 110.09C94.1709 110.625 93.7959 109.351 93.6544 109.197C93.8025 109.841 94.1951 110.67 93.9281 110.179C94.0235 110.62 94.2846 111.26 94.4202 111.562C94.0418 110.813 94.441 112.132 94.4351 112.281L94.6051 112.594C94.6051 112.594 94.508 112.415 94.4636 112.44L94.2184 111.617C94.2184 111.617 94.2125 111.765 94.338 112.103C94.1154 111.587 93.8702 110.764 93.5504 110.069C93.6558 110.476 93.2975 109.657 93.6541 110.738C93.6274 110.317 94.0106 111.82 94.1965 111.949C94.1237 111.815 94.1136 111.849 94.1421 112.008C94.1806 112.132 94.2291 112.221 94.2433 112.301C94.4726 113.307 93.7696 111.11 93.6707 111.195C93.9076 111.79 94.0415 112.355 94.003 112.231C94.013 112.196 93.6607 111.229 93.4522 110.793C93.5375 111.269 93.2479 110.47 93.2278 110.54L93.1852 110.302C92.9483 109.706 92.9625 109.786 92.821 109.632C92.985 110.093 92.9909 109.944 93.0437 110.148C92.5983 109.116 93.3114 111.278 92.9816 110.619C93.1213 111.035 93.3624 111.744 93.4637 112.037C93.0853 111.288 93.6645 112.885 93.3589 112.27C93.0794 111.437 93.1664 111.65 92.8324 110.876L93.2025 111.397L92.6743 110.266C92.6743 110.266 92.9514 110.723 92.9129 110.599C92.6174 109.949 92.7045 110.162 92.4877 109.498C92.8727 110.738 92.1235 108.828 92.3243 109.676L93.0534 111.655C93.2684 112.582 92.4748 110.697 92.54 111.243L92.4589 110.881C92.1693 110.082 92.3316 110.806 92.1617 110.494C92.4128 111.168 92.4554 111.406 92.5952 111.823C92.4069 111.317 92.4963 111.907 92.0285 110.568L92.2879 111.47C92.3146 111.892 91.45 109.61 91.4482 109.873C91.7579 110.602 91.8776 111.088 92.1447 111.579C92.1447 111.579 92.1044 111.718 91.9404 111.257C92.0801 111.673 91.5235 110.384 91.7059 111.039C91.5703 110.736 91.3192 110.061 91.2991 110.131C91.3376 110.255 91.4246 110.468 91.4246 110.468C91.2991 110.131 91.2162 110.032 90.9509 109.278C91.6053 111.385 90.5874 109.248 91.1406 111.063C90.9748 110.864 90.7989 110.7 90.7303 110.68C90.8173 110.894 90.8558 111.018 90.8416 110.938C90.9897 111.583 90.0481 109.054 90.2104 109.778C90.5669 110.859 90.4917 110.348 90.5971 110.755C91.4132 112.947 90.3384 110.492 90.7719 111.821L90.8447 111.955C91.0657 112.733 90.3977 111.186 90.3474 111.359C90.3474 111.359 90.4001 111.562 90.4729 111.696C89.969 110.61 89.7304 110.278 89.506 110.025C89.8542 110.878 89.7144 110.461 90.0182 111.339C89.9353 111.24 89.4917 109.945 89.326 109.747C89.4799 110.243 89.5854 110.649 89.9135 111.572L90.0165 111.602C90.4459 112.817 89.9135 111.572 89.9561 111.81L90.1788 112.326C89.9929 112.196 89.4806 110.882 89.4061 111.011L89.2663 110.594C88.7096 109.305 89.4973 111.338 89.0561 110.421L89.5583 111.77C89.3884 111.457 88.9028 110.564 88.7471 110.331C89.1782 111.283 89.4453 111.774 89.7366 112.31C89.7265 112.345 89.5649 112.26 89.2694 111.611C89.3422 111.745 89.4779 112.047 89.4251 111.844C88.9798 110.812 88.7027 110.356 88.6139 110.405C89.6242 112.954 88.6187 111.159 89.3377 113.172C88.8178 112.269 89.1869 113.693 88.9465 113.623C88.2275 111.609 88.8778 113.603 88.0659 111.525C87.983 111.426 87.9729 111.46 88.0458 111.594L88.3864 112.859C88.5789 113.479 88.5948 113.295 88.7932 113.766C88.7429 113.94 89.097 114.644 89.2652 115.22C88.9898 114.5 88.8199 114.188 88.8868 114.471L88.5789 113.479C88.0205 112.452 89.1421 115.259 88.5837 114.232L88.8893 114.847C88.6607 114.48 88.633 114.961 87.9507 113.334C88.0277 113.582 88.2403 114.133 88.3132 114.267C88.2226 114.579 87.2474 112.679 87.5352 113.74L87.7579 114.256C87.7579 114.256 87.3167 113.338 87.5051 113.844C87.5921 114.058 87.7378 114.325 87.7277 114.36C87.6306 114.181 87.3008 113.522 87.3577 113.839L87.6046 114.4C87.6982 115.104 86.8218 113.12 86.5287 112.847C87.1138 114.295 87.179 114.84 87.2116 115.113L87.2987 115.326C87.2182 115.604 86.4999 114.23 86.0855 113.733C86.6203 115.355 86.0015 114.536 86.2065 115.498C86.1396 115.216 85.7227 114.343 85.6498 114.209C85.7411 114.536 85.1157 113.227 85.6866 114.596C86.1989 115.91 85.9502 115.612 85.9301 115.682L85.2094 113.931C86.0865 116.554 84.3888 113.166 85.2433 115.482C85.0748 115.208 84.9062 114.933 84.7377 114.659L85.1344 115.601C85.1226 115.899 85.1268 116.013 84.9066 115.874L85.2021 116.523C85.2021 116.523 83.9615 113.87 83.8584 113.84L84.4193 115.243C84.4193 115.243 84.6711 116.557 83.9812 115.342C84.0683 115.555 84.2524 115.947 84.2767 115.992C84.2566 116.061 84.4515 117.058 83.6337 115.128C84.1661 116.373 83.5834 115.302 83.2477 114.791L83.6545 115.699C83.0919 114.558 82.9664 114.22 82.7177 113.923C82.7562 114.047 83.0174 114.687 82.9404 114.439C83.0843 114.969 82.5134 113.6 82.623 114.121L82.9043 114.691C82.9043 114.691 82.7385 114.493 82.4187 113.798C82.2245 113.441 82.3726 114.086 82.7208 114.939C82.4982 114.423 82.1683 113.763 82.2353 114.046C82.3709 114.349 82.4579 114.562 82.5065 114.651C82.6445 115.331 81.8694 113.639 82.1874 114.596C82.323 114.899 82.3858 115.067 82.4 115.147C82.4888 115.097 82.519 114.993 82.4604 114.939C82.8086 115.792 82.827 115.985 83.3895 117.126C83.0496 116.501 82.3556 115.172 82.451 115.613C82.4995 115.702 82.5138 115.782 82.5523 115.905L82.6008 115.995C82.6008 115.995 82.6008 115.995 82.4836 115.886C82.512 116.044 82.5606 116.134 82.5505 116.168C82.836 116.853 82.6216 116.565 82.6015 116.634C82.2047 115.692 82.2231 115.885 81.9335 115.087C81.9477 115.166 81.9821 115.176 82.0407 115.231C82.0407 115.231 82.0407 115.231 82.0892 115.32L82.0407 115.231C82.0407 115.231 82.1094 115.251 82.1437 115.261C81.9009 114.814 81.7168 114.422 81.895 114.963C81.6137 114.392 81.3425 113.787 81.2069 113.485C81.6848 114.789 81.9502 115.543 82.2741 116.351C81.9283 115.875 81.8579 116.118 81.0141 114.407C80.8927 114.183 81.2024 114.912 81.3037 115.205C81.4008 115.384 81.4108 115.349 81.5322 115.572C81.2794 115.16 81.2575 115.492 80.7151 114.282C80.8833 114.857 81.2534 115.378 81.0331 115.239L81.2274 115.597C81.8676 117.625 79.5119 112.655 80.3547 115.268C80.292 115.1 80.2777 115.02 80.1806 114.842C80.3839 116.066 79.1439 114.052 79.6427 115.927C79.7138 116.323 79.3798 115.55 79.0642 114.969L79.4852 115.956L78.8783 114.84C78.3969 114.061 79.7856 117.36 78.9258 115.832L78.6403 115.147C78.6403 115.147 78.2886 114.82 78.657 115.603C78.5841 115.469 78.3372 114.909 78.4527 115.281L78.6754 115.797L78.1353 114.963C78.1964 115.395 79.0704 117.002 78.9858 117.165C78.8543 116.977 78.1402 115.717 78.0146 115.379C78.0247 115.345 77.9335 115.018 77.6765 114.492L77.4864 114.249C76.774 112.726 76.0273 111.193 75.6808 110.077L76.2007 110.98L75.9011 110.216L75.7981 110.186C75.5126 109.502 75.8282 110.082 76.0467 110.484C75.8626 110.092 75.7613 109.8 75.7329 109.641L76.4754 111.06C76.2042 110.455 75.8886 109.874 75.7974 109.547C76.1272 110.207 76.3683 110.916 76.6211 111.328C76.3457 110.609 76.0988 110.048 76.38 110.618C76.1959 110.227 76.0845 109.969 75.9774 109.825C76.2202 110.271 76.1976 109.964 76.5559 110.782C76.2177 109.895 76.8105 110.931 76.1466 109.498C76.3065 109.845 76.7192 110.604 76.7879 110.624C75.9441 108.913 76.8725 110.46 76.0346 108.6C76.7813 110.133 76.532 109.196 77.0376 110.019C76.9648 109.886 76.8434 109.662 76.892 109.752C76.8979 109.603 76.6995 109.132 76.6083 108.804C77.1993 110.104 77.3893 110.347 77.8021 111.106C77.3141 109.836 77.0796 109.618 76.5715 108.418C77.0512 109.459 77.14 109.41 77.5225 110.273C77.2329 109.474 77.407 109.901 76.9475 108.79C77.6741 110.392 77.1032 109.023 77.603 109.995C77.3234 109.162 76.9593 108.492 77.2464 108.914C77.0581 108.408 76.7324 107.863 76.7324 107.863L76.9468 108.15ZM80.0745 110.073L80.0058 110.053C80.0058 110.053 80.0402 110.063 80.0745 110.073ZM80.242 110.008L80.2219 110.078C80.3475 110.415 80.5174 110.728 80.5275 110.693C80.4404 110.48 80.3877 110.276 80.2864 109.984L80.242 110.008ZM82.6903 116.585C82.6903 116.585 82.7104 116.515 82.6133 116.337C82.6133 116.337 82.5446 116.317 82.5304 116.238L82.4919 116.114C82.4919 116.114 82.6518 116.461 82.6903 116.585Z" fill="#2E68B8"/>
<path d="M82.1039 115.399L82.0446 115.344C82.0302 115.263 81.981 115.173 81.9564 115.127L82.0938 115.434L82.1039 115.399Z" fill="#2E68B8"/>
<path d="M95.9307 108.277C95.9307 108.277 95.9508 108.208 95.8921 108.153C95.882 108.188 95.9063 108.233 95.9307 108.277Z" fill="#2E68B8"/>
<path d="M81.7041 107.272L81.792 107.487L81.694 107.307L81.7041 107.272Z" fill="#2E68B8"/>
<path d="M95.709 104.678C95.709 104.678 95.6452 104.507 95.6308 104.426C95.6103 104.497 95.6597 104.587 95.709 104.678Z" fill="#2E68B8"/>
<path d="M96.0361 104.322L95.989 103.967C96.0075 104.162 96.0463 104.287 96.0361 104.322Z" fill="#2E68B8"/>
<path d="M96.1619 103.756C96.1619 103.756 96.2632 104.049 96.3018 104.173L96.1619 103.756Z" fill="#2E68B8"/>
<path d="M90.9639 104.355C90.9639 104.355 90.9639 104.355 90.9293 104.345C90.8314 104.165 90.8904 104.22 90.9639 104.355Z" fill="#2E68B8"/>
<path d="M93.1885 106.053C93.1885 106.053 93.0285 105.706 92.9799 105.616C93.0001 105.547 93.0101 105.512 93.1885 106.053Z" fill="#2E68B8"/>
<path d="M92.9258 105.676C92.9258 105.676 92.9317 105.528 92.9802 105.617C92.9601 105.686 92.9985 105.81 92.9258 105.676Z" fill="#2E68B8"/>
<path d="M97.3083 102.886L97.3183 102.851C97.3183 102.851 97.3567 102.975 97.3467 103.009L97.2982 102.92L97.3083 102.886Z" fill="#2E68B8"/>
<path d="M97.3893 102.982L97.4395 103.074C97.4395 103.074 97.4395 103.074 97.3893 102.982Z" fill="#2E68B8"/>
<path d="M97.5508 103.332L97.4283 103.107C97.4283 103.107 97.4384 103.072 97.5508 103.332Z" fill="#2E68B8"/>
<path d="M97.0684 103.455L96.942 103.116C96.942 103.116 97.0052 103.286 97.0684 103.455Z" fill="#2E68B8"/>
<path d="M96.8966 103.405C96.8966 103.405 96.7094 102.634 96.8413 102.823L96.9429 103.117C96.7539 102.609 97.1342 104.002 96.8966 103.405Z" fill="#2E68B8"/>
<path d="M97.8304 107.888L97.8422 107.591C97.9577 107.963 98.1016 108.493 98.1603 108.548C98.3836 109.703 97.9151 107.725 97.8304 107.888Z" fill="#2E68B8"/>
<path d="M97.6838 108.522C97.6838 108.522 97.8621 109.063 97.9492 109.276C97.8236 108.939 97.765 108.884 97.6838 108.522Z" fill="#2E68B8"/>
<path d="M95.4911 109.275L95.7959 110.156C95.7959 110.156 95.6699 109.818 95.4911 109.275Z" fill="#2E68B8"/>
<path d="M93.5104 104.942L93.3315 104.4L93.6221 105.201L93.5104 104.942Z" fill="#2E68B8"/>
<path d="M95.4049 111.246L95.4883 111.345L95.2726 111.056L95.4049 111.246Z" fill="#2E68B8"/>
<path d="M91.6383 112.298L91.2374 111.241C91.2374 111.241 91.7739 112.6 91.6383 112.298Z" fill="#2E68B8"/>
<path d="M89.651 111.834C89.8293 112.375 89.9105 112.737 89.6878 112.221C89.7079 112.151 89.5781 111.7 89.651 111.834Z" fill="#2E68B8"/>
<path d="M85.6155 115.476L85.7764 115.825L85.5952 115.545L85.6155 115.476Z" fill="#2E68B8"/>
<path d="M58.4075 89.8008C58.5566 89.5432 58.9881 88.9538 58.9478 89.0925L58.3169 90.113L58.4075 89.8008Z" fill="#2E68B8"/>
<path d="M59.981 88.2263C59.7171 88.7514 59.1708 89.6084 58.5014 90.5048C59.0879 89.5091 58.8542 89.9302 59.5354 88.7363C59.5756 88.5976 59.2388 88.9888 58.9808 89.3652C59.1299 89.1076 58.7487 89.5236 59.1559 88.8895C59.7407 88.1566 59.8336 88.2211 59.4851 88.9098C59.6585 88.6968 59.8076 88.4392 59.9366 88.251L59.981 88.2263Z" fill="#2E68B8"/>
<path d="M65.8759 90.8754L65.7425 90.9498C65.7425 90.9498 65.8415 90.8655 65.8759 90.8754Z" fill="#2E68B8"/>
<path d="M68.9383 93.531C68.9383 93.531 69.0141 93.4002 69.1043 93.3499C69.0838 93.4204 69.0285 93.4808 68.9383 93.531Z" fill="#2E68B8"/>
<path d="M70.4152 93.32C70.4152 93.32 70.3464 93.3001 70.3363 93.3348C70.4253 93.2853 70.5041 93.2705 70.4152 93.32Z" fill="#2E68B8"/>
<path d="M65.8739 90.8751L66.2314 90.676C65.9675 90.9401 65.9979 90.8353 65.8739 90.8751Z" fill="#2E68B8"/>
<path d="M58.9397 91.0456C58.9397 91.0456 58.9903 90.871 59.0999 90.7514C59.0898 90.7863 59.0695 90.8561 59.0594 90.8911L58.9397 91.0456Z" fill="#2E68B8"/>
<path d="M65.3178 88.9465C65.3178 88.9465 65.5014 88.6987 65.6103 88.5798L65.3077 88.9812L65.3178 88.9465Z" fill="#2E68B8"/>
<path d="M64.3963 87.8895C64.3963 87.8895 63.8015 88.6572 63.5191 88.989C63.7671 88.6472 63.8861 88.4937 63.9062 88.4243C64.0252 88.2708 64.1885 88.0925 64.3963 87.8895Z" fill="#2E68B8"/>
<path d="M66.1641 89.4926C66.1641 89.4926 66.3732 89.2883 66.428 89.2285L66.1641 89.4926Z" fill="#2E68B8"/>
<path d="M80.6738 116.865C80.6738 116.865 80.58 116.8 80.5209 116.745C80.6248 116.775 80.6738 116.865 80.6738 116.865Z" fill="#2E68B8"/>
<path d="M77.3779 112.826L77.3436 112.816L76.8786 112.493L77.3779 112.826Z" fill="#2E68B8"/>
<path d="M76.5885 105.151C75.6981 105.269 75.5431 105.675 74.5154 105.753C74.9091 105.679 75.9888 105.165 76.5885 105.151Z" fill="#2E68B8"/>
<path d="M74.5156 105.753L74.4124 105.723C74.4468 105.733 74.4812 105.743 74.5257 105.718L74.5156 105.753Z" fill="#2E68B8"/>
<path d="M73.289 96.6333C73.289 96.6333 72.9864 96.7726 72.897 96.8224C72.9864 96.7726 73.1103 96.7329 73.289 96.6333Z" fill="#2E68B8"/>
<path d="M70.9469 95.4673L71.1041 95.4378C71.1041 95.4378 70.9812 95.4773 70.9469 95.4673Z" fill="#2E68B8"/>
<path d="M72.6022 98.3536C72.6022 98.3536 72.8057 98.2989 72.7061 98.3837C72.6715 98.3737 72.6267 98.3986 72.582 98.4235C72.7162 98.3487 72.7365 98.2788 72.6022 98.3536Z" fill="#2E68B8"/>
<path d="M73.1174 99.405C73.1174 99.405 72.9931 99.4449 72.9136 99.4598L72.9339 99.3898L73.1275 99.37L73.1174 99.405Z" fill="#2E68B8"/>
<path d="M78.3871 119.361C78.177 119.187 77.8981 118.993 77.6536 118.81C78.2356 119.241 78.5304 119.252 78.3871 119.361Z" fill="#2E68B8"/>
<path d="M59.2973 90.5849C59.1582 90.8079 59.0937 90.9021 59.0735 90.9715C59.0735 90.9715 59.0836 90.9368 59.0937 90.9021C59.2026 90.7832 59.2772 90.6543 59.3317 90.5949L59.2973 90.5849Z" fill="#2E68B8"/>
<path d="M65.5677 102.068L65.777 102.128C65.777 102.128 65.5924 102.113 65.5677 102.068Z" fill="#2E68B8"/>
<path d="M69.6217 113.773L69.4984 113.813C69.4984 113.813 69.4984 113.813 69.6217 113.773Z" fill="#2E68B8"/>
<path d="M65.8176 102.629C66.1527 102.501 66.3547 102.446 66.4779 102.407C66.389 102.456 66.3446 102.481 66.2558 102.531L65.8176 102.629Z" fill="#2E68B8"/>
<path d="M80.2604 119.189C80.2604 119.189 79.1491 118.529 78.5227 118.121C78.0906 118.071 79.2705 118.752 79.7737 119.199C79.4304 119.099 78.3777 118.493 78.3476 118.597C78.5335 118.726 78.5921 118.781 78.8123 118.92C77.8769 118.423 78.5401 119.217 77.3844 118.581C77.4774 118.646 77.5703 118.71 77.6633 118.775C77.1399 118.397 76.5822 118.01 76.1761 117.742C76.1216 117.801 75.4265 117.374 76.1258 117.915C76.1358 117.881 76.4147 118.074 76.645 118.179L76.2673 118.069C77.2554 118.769 76.6793 118.189 77.4572 118.715C77.0452 118.596 76.0897 118.168 76.304 118.456C77.2922 119.156 76.7906 118.447 77.6112 119.211L77.3241 118.789C78.8397 119.981 77.2613 118.621 78.9042 119.887C79.0541 120.269 78.2317 119.767 78.4159 120.159C77.8381 119.841 77.6137 119.588 77.0116 119.225C75.8299 118.807 79.3822 121.191 77.9175 120.466C77.2124 120.073 75.9353 119.214 76.5014 119.829L77.6712 120.545C77.6695 120.807 75.9579 119.521 76.6068 120.236C77.0816 120.524 77.0875 120.375 77.2047 120.485C77.991 121.239 76.4896 120.127 76.415 120.256L77.4031 120.956C77.2013 121.01 76.6762 120.895 76.2784 120.855L66.1997 119.926L70.2487 118.543C70.2487 118.543 70.505 118.429 70.5938 118.38C70.2303 118.349 69.8567 118.354 69.479 118.244C70.1047 118.012 69.4097 117.585 68.6845 117.262L69.7364 117.228C69.7364 117.228 69.28 117.134 69.0538 117.143C68.6761 117.034 69.7121 117.184 70.1301 117.155C70.2188 117.105 69.5363 117.02 69.2314 117.044C70.1217 116.927 71.2198 116.606 70.0766 116.312L69.7718 116.336C69.3355 116.172 71.9201 116.245 70.9385 116.035L70.7467 116.055C70.292 115.697 71.2729 115.267 69.6774 114.993C71.1817 114.94 68.9966 114.645 71.1248 114.623C70.0989 114.438 69.7052 114.512 69.0042 114.233C68.9113 114.169 70.3125 114.086 70.5345 113.963L69.4381 114.021L70.599 113.868L69.2623 113.857L69.5529 113.753C69.5529 113.753 70.0538 113.823 70.3586 113.799C70.8511 113.641 69.589 113.5 69.0237 113.524L69.9501 113.154C69.4978 113.173 69.3646 113.247 69.084 113.316C70.1963 113.075 67.919 113.355 68.9526 113.128C69.213 113.128 69.6067 113.054 69.8328 113.045C69.1745 113.004 69.1461 112.845 69.4125 112.697L68.6453 112.775C68.4452 112.567 68.9436 112.26 68.911 111.988C69.2644 112.052 70.5827 111.871 70.6815 111.786L69.5308 111.904C70.2393 111.771 69.973 111.919 70.8491 111.722C70.6874 111.638 69.5165 111.825 69.1572 111.909L69.5366 111.755C69.1874 111.805 68.9956 111.824 68.5676 111.888C69.2762 111.755 67.3884 111.847 68.6481 111.611L68.2988 111.66C68.2561 111.422 68.6456 111.234 68.6717 111.016C69.6851 110.858 69.4347 110.823 70.2421 110.606C69.8987 110.507 69.0931 110.461 69.1191 110.243C69.5974 110.005 69.9508 110.07 70.522 109.898C69.6216 110.05 69.682 109.842 69.022 110.064C69.1024 109.787 69.1225 109.717 69.8429 109.287C70.2265 109.248 70.3739 109.253 70.6989 109.159C70.8321 109.085 70.3011 109.119 69.863 109.218L69.7742 109.267C71.0416 108.619 67.028 109.11 68.8264 108.428L68.7376 108.478L69.6355 107.948C69.4295 107.889 68.9654 108.205 68.4001 108.229C69.8249 107.552 68.0685 107.832 68.9908 107.348C66.3382 107.895 69.0102 106.639 67.2538 106.919L67.8594 106.756C68.4507 106.514 67.4758 106.796 67.3284 106.79C67.8209 106.632 67.8795 106.687 68.2246 106.524C68.7851 105.746 67.0062 105.719 66.2709 105.431C66.0406 105.326 69.2922 104.126 67.7862 104.441L66.7065 104.955C67.8625 104.05 66.3625 104.216 67.2923 103.32C67.0704 103.444 66.7253 103.607 66.7495 103.652C65.932 103.904 66.6039 103.384 67.2153 103.072C67.1123 103.042 66.624 103.314 66.2889 103.443C65.7964 103.601 67.1827 102.8 66.3895 103.096C66.2664 103.136 66.1575 103.254 66.0788 103.269C66.444 103.037 65.8686 103.095 66.805 102.69C66.2983 102.769 67.0832 102.244 66.4877 102.372C67.4401 101.784 65.888 102.387 67.2986 101.63C65.8537 102.377 66.0087 101.97 66.6504 101.555C66.2407 101.812 66.1578 101.713 65.5707 102.069C65.5322 101.945 65.7843 101.717 66.5189 101.366C64.7005 102.117 67.7009 100.242 65.4427 101.355C66.0517 100.667 66.4045 100.092 66.5796 99.6162C65.1833 100.452 66.6164 100.003 65.1413 100.854C65.5727 100.264 66.6743 99.4181 66.2078 99.358C65.9716 99.4023 65.6449 99.7589 65.4129 99.9172C65.8443 99.3278 65.0026 99.535 65.6116 98.8467C65.4784 98.9209 65.3695 99.0397 65.2707 99.1239C65.2908 99.0545 65.0001 99.1583 65.6317 98.7773L65.4784 98.9209C66.4107 98.4015 67.2275 97.5102 67.6916 97.1934C65.9928 98.4307 67.1162 97.2522 64.9776 98.8509C65.0865 98.732 65.3386 98.5043 65.7483 98.247C65.5908 98.2766 65.3588 98.4349 64.919 98.7963C65.1427 98.4099 65.8429 98.0488 65.7358 97.9049C65.4493 98.1227 65.3504 98.2069 65.0196 98.4494C65.5582 98.0039 66.0725 97.5137 65.7576 97.5728C65.57 97.7065 65.338 97.8648 65.3723 97.8748C65.3296 97.6368 66.6792 96.4486 65.9605 96.6163C64.7501 97.5815 65.4822 96.8537 64.4008 97.6307L64.6488 97.2889L65.1916 96.9574C65.1916 96.9574 65.8208 96.1997 65.3626 96.3677L64.9814 96.7837L65.082 96.4368L65.5159 96.2241C66.006 95.6893 66.8939 95.1947 66.4558 95.2933C66.3812 95.4221 66.3729 95.1941 65.6869 95.6344C66.0035 95.3126 66.2859 94.9808 65.9852 95.1192C65.6442 95.3964 64.8292 96.025 64.5871 96.2181C65.4323 95.4854 64.6391 95.7819 65.5388 94.9898C65.331 95.1928 64.7924 95.6383 64.6592 95.7125L65.3269 95.0788C65.0605 95.2272 64.9617 95.3113 64.5219 95.6727C64.2815 95.603 65.8655 94.6333 65.1854 94.9249C65.1652 94.9943 65.0321 95.0685 64.9232 95.1874C64.4952 95.2513 65.1243 94.4936 64.6318 94.6516C63.5747 95.4732 64.4969 94.9885 63.583 95.7013C63.5806 95.3245 64.4234 94.2151 64.0155 94.2097L64.1487 94.1355C65.5284 92.8433 63.3052 94.6054 63.8799 93.9071C63.8053 94.0359 63.1377 94.6696 63.2566 94.5161C62.8973 94.5999 63.3589 93.9065 63.6087 93.302L63.2819 93.6585C62.8824 93.8811 62.8841 93.6184 62.6379 93.6974C62.9646 93.3409 62.8515 93.3457 63.4002 92.8655C61.1527 94.583 63.9316 91.2897 62.1038 92.7152C62.1038 92.7152 61.88 93.1016 61.8558 93.057L62.0066 92.5366C62.5512 91.9424 62.3334 92.1801 62.8276 91.7593C63.13 91.3581 63.3336 91.0411 63.275 90.9865C62.9868 91.467 62.3594 91.962 62.0084 92.2739C62.1717 92.0956 62.3795 91.8926 62.5529 91.6797C61.4455 92.6747 63.6621 90.4218 62.8571 91.0157L62.5748 91.3475C62.6351 91.1394 63.0021 90.6441 62.8446 90.6737C62.1568 91.3768 62.6209 91.0601 62.0764 91.6543C62.0379 91.5303 63.1085 90.1485 62.3965 90.807C62.2574 91.0299 62.316 91.0845 62.1769 91.3074C61.3217 92.0748 61.5294 91.8718 61.3275 91.926L60.8735 92.2081L61.1156 92.015C62.6622 90.0191 61.1978 91.4748 62.1211 90.0878C61.2523 91.4154 61.5464 90.7861 60.8527 91.638C60.6106 91.831 60.3585 92.0587 60.175 92.3064C60.6811 91.5882 59.6364 92.7519 60.3561 91.682C60.1282 91.9543 60.2531 91.6521 59.7228 92.3257C59.8032 92.0481 60.114 91.875 60.4064 91.5085C61.013 90.4434 59.1917 92.3597 60.012 90.9429C60.2475 90.2591 60.937 89.2932 61.108 88.7035C60.6925 89.1095 60.3883 89.7734 60.3883 89.7734C59.9929 90.1101 59.9888 89.996 60.1438 89.5897C59.9947 89.8473 59.7869 90.0503 59.549 90.3574C59.5448 90.2434 60.2687 89.2875 59.8632 89.6588C59.6596 89.9758 59.317 90.5157 59.1033 90.8675C59.1938 90.5553 59.5122 89.9707 59.6472 89.6337C59.2802 90.129 59.1553 90.4313 58.9417 90.783C59.0222 90.5055 59.0097 90.1634 59.5459 89.3411L59.798 89.1134C59.798 89.1134 59.3021 89.7969 59.2275 89.9257C58.8789 90.6144 59.5382 89.7526 59.7418 89.4356L59.8122 89.1927C61.1007 87.5732 59.8632 89.6588 60.055 89.6392L60.9037 88.381L60.2871 89.4808C60.5593 89.1837 61.0796 88.5448 61.15 88.302C61.6744 87.7772 60.8961 88.7925 61.485 88.1735C61.5839 88.0894 61.604 88.02 61.6241 87.9506L61.4934 88.4016C61.6082 88.134 62.1083 87.5645 61.9207 87.6982C62.6025 87.1438 61.4958 88.7783 62.2581 87.9464L62.2883 87.8424C62.2304 88.4273 61.6532 88.7488 61.0265 89.8833L62.8436 87.853L62.1742 88.7494C62.1742 88.7494 62.3316 88.7199 62.5796 88.3781C62.1967 89.0568 62.2529 88.7346 61.8558 89.334C62.6122 88.6508 61.8665 89.9388 62.9958 88.6116C62.4999 89.2951 62.4673 89.0224 62.2377 89.5575C63.4658 88.1462 62.1371 89.9044 62.8189 89.35C63.4138 88.5824 62.9941 88.8743 63.6416 88.31C62.6254 89.6324 64.0797 88.2114 63.9548 88.5136C63.1079 89.509 63.7838 89.1033 63.6531 89.5543C63.9354 89.2225 64.412 89.2479 64.8559 89.0005L65.0193 88.8223C64.1379 89.8077 64.4529 89.7486 64.3623 90.0608C64.9069 89.4666 65.0904 89.2189 65.2839 88.9366L65.3668 89.0358C65.0845 89.3676 64.9554 89.5559 64.9051 89.7293L65.5686 88.9816C65.5686 88.9816 64.9964 90.0566 65.6078 89.745C64.9645 90.4234 63.6895 91.4827 63.4155 92.0426C63.7765 91.696 64.3655 91.0771 64.4945 90.8888C64.4744 90.9582 64.2465 91.2306 64.4341 91.097L64.9645 90.4234C65.2853 90.2156 64.5087 90.9682 64.6218 90.9633C65.1018 90.4632 65.0172 90.6267 65.3983 90.2108C65.4185 90.1414 65.132 90.3592 65.2953 90.1809C65.4528 90.1513 65.818 89.9188 66.2134 89.5822C65.9068 89.8693 65.5357 90.2506 65.5055 90.3547C65.5783 90.4886 66.1531 89.7903 66.4739 89.5825C66.1371 89.9737 66.5911 89.6917 65.8246 90.4096C65.8589 90.4195 66.2099 90.1076 66.452 89.9146C66.1839 90.3257 66.6362 90.3064 65.7566 91.0292L65.6879 91.0092C65.6879 91.0092 65.6678 91.0786 65.6578 91.1133C65.0914 92.0396 66.4735 91.1242 66.3226 91.6445L66.5748 91.4168C66.3854 91.8132 66.6358 91.8482 66.1256 92.4524C66.16 92.4623 66.6785 92.0862 66.9851 91.799C66.9046 92.0765 66.5637 92.3537 67.1207 92.1016C67.4877 91.6063 67.5504 91.7749 67.3888 91.6904C67.7481 91.6066 68.1779 91.2799 67.583 92.0476C68.2507 91.4139 68.5556 91.3895 68.3721 91.6371L67.795 91.9586C67.795 91.9586 67.8577 92.1273 67.9708 92.1224L68.8705 91.3304C70.2509 90.6776 67.3382 93.4056 69.4063 92.0498C68.8275 92.6341 68.825 92.2573 68.1029 92.9505C68.319 92.9755 69.7799 92.0453 69.8042 92.0899C70.4642 91.8677 68.5476 93.3426 69.0644 93.2292C68.6991 93.4618 67.7953 94.1399 67.5716 94.5263C67.7877 94.5513 69.1112 93.5813 69.339 93.3089C69.3491 93.2742 69.226 93.3137 69.1171 93.4326C69.1916 93.3038 69.3207 93.1155 69.7202 92.8929L69.3793 93.1701C69.7688 92.9822 69.8659 93.1608 70.4045 92.7153C70.1565 93.0571 69.8659 93.1608 69.654 93.2498C70.2696 93.0522 69.8784 93.5029 70.3064 93.4389C70.0844 93.5626 69.6748 93.8199 69.6991 93.8645C70.3088 93.8157 69.1202 94.4488 69.0841 94.7016C69.6855 94.4247 70.3289 93.7463 69.9963 94.2516C70.4101 94.1083 70.9244 93.6182 71.1866 93.3557C70.632 93.9846 71.8206 93.3515 72.0367 93.3766L72.2646 93.1042C72.1356 93.2924 72.1699 93.3024 72.1942 93.347L71.4738 93.7775C71.4738 93.7775 71.6555 93.7925 71.942 93.5748C71.5022 93.9361 70.7475 94.3566 70.1888 94.8715C70.5783 94.6836 69.945 95.3273 70.8974 94.7385C70.4451 94.7578 71.8598 94.115 71.906 93.8275C71.7971 93.9464 71.8657 93.9663 72.0232 93.9368C72.122 93.8526 72.2108 93.8031 72.2653 93.7437C73.2603 93.3929 71.2525 94.5406 71.4183 94.7391C71.9368 94.363 72.4494 94.1356 72.3849 94.2297C72.3364 94.1404 71.4769 94.7937 71.1159 95.1403C71.6084 94.9822 70.9022 95.492 71.0052 95.5219L70.769 95.5662C70.2505 95.9423 70.3535 95.9722 70.2588 96.1704C70.6684 95.9131 70.4867 95.898 70.6986 95.809C69.819 96.5317 71.8168 95.4187 71.2823 95.9783C71.6961 95.835 72.3235 95.34 72.5698 95.261C71.9809 95.88 73.4317 94.9844 72.9416 95.5192C72.1969 95.905 72.3402 95.7961 71.6926 96.3605L72.0554 95.7512L71.1013 96.6027C71.1013 96.6027 71.4582 96.1421 71.3007 96.1716C70.7621 96.6171 70.9397 96.5182 70.2939 96.8198C71.4623 96.2561 69.7837 97.424 70.6112 97.1375L72.4172 96.0441C73.3477 95.7874 71.7034 96.9653 72.293 96.9858L71.9337 97.0697C71.2376 97.5447 71.942 97.2977 71.6798 97.5601C72.3013 97.2139 72.5476 97.1349 72.9371 96.947C72.4931 97.1943 73.1029 97.1454 71.8598 97.838L72.7418 97.492C73.2083 97.5521 71.1217 98.7145 71.4308 98.8041C72.0724 98.3885 72.5649 98.2305 72.9804 97.8244C73.039 97.8791 73.1864 97.8842 72.7425 98.1315C73.1663 97.9536 71.9961 98.78 72.6218 98.5478C72.3454 98.7309 71.7238 99.0771 71.7825 99.1317C71.9156 99.0575 72.0932 98.9586 72.0932 98.9586C71.7825 99.1317 71.7322 99.3052 71.0177 99.5869C73.1067 98.8012 71.1557 100.266 72.9541 99.5843C72.8049 99.8419 72.6901 100.109 72.7428 100.313C72.9204 100.214 73.0435 100.174 72.9749 100.154C73.6734 100.056 71.1991 101.144 71.942 101.021C73.0501 100.665 72.4605 100.645 72.8642 100.536C74.9934 99.6115 72.7092 100.942 73.9848 100.522L74.0837 100.438C74.8467 100.246 73.3716 101.097 73.6363 101.211C73.6363 101.211 73.8139 101.112 73.9713 101.083C72.9402 101.686 72.6821 102.063 72.4442 102.37C73.2676 101.969 72.8538 102.112 73.7258 101.801C73.6512 101.93 72.3412 102.34 72.1577 102.587C72.6402 102.464 73.1025 102.41 74.0188 102.074L74.0004 101.881C75.2317 101.486 74.0431 102.119 74.2692 102.109L74.7819 101.882C74.6913 102.194 73.3855 102.718 73.5856 102.926L73.1819 103.035C71.9246 103.648 73.9692 102.887 73.047 103.372L74.4014 102.937C74.1149 103.155 73.2412 103.729 73.0234 103.967C73.9699 103.527 74.4198 103.131 74.9626 102.799C75.0111 102.888 74.965 103.176 74.3292 103.443C74.4281 103.359 74.7732 103.195 74.537 103.24C73.536 103.739 73.072 104.056 73.1347 104.225C75.7062 103.316 73.9588 104.463 76.0017 103.965C75.1422 104.619 76.6565 104.531 76.5944 105.002C74.4929 105.446 76.5542 105.141 74.4569 105.698C74.348 105.817 74.4066 105.872 74.5297 105.832L75.8522 105.765C76.482 105.646 76.2861 105.552 76.7685 105.429C76.9787 105.602 77.6689 105.276 78.3029 105.272C77.5399 105.464 77.2291 105.637 77.5482 105.692L76.5205 105.77C75.455 106.364 78.3698 105.554 77.3387 106.158L77.9744 105.891C77.6092 106.124 78.1427 106.466 76.4532 107.029C76.7238 106.995 77.3092 106.902 77.4525 106.793C77.8041 107.12 75.7981 108.005 76.8986 108.061L77.4254 107.913C77.4254 107.913 76.4747 108.239 77.0057 108.205C77.2076 108.151 77.5225 108.092 77.5568 108.102C77.3893 108.166 76.6748 108.448 76.9939 108.502L77.5752 108.295C78.3306 108.514 76.2233 109.106 75.9309 109.473C77.4954 109.212 78.0348 109.406 78.2994 109.52L78.5356 109.476C78.7884 109.888 77.3352 110.406 76.7622 110.842C78.4967 110.894 77.5586 111.562 78.5786 111.895C78.2938 111.85 77.3491 112.028 77.2159 112.102C77.5249 112.191 76.1521 112.433 77.5634 112.315C78.9546 112.267 78.5893 112.5 78.6278 112.624L76.7542 112.795C79.5147 113.032 75.7841 113.83 78.2456 113.942C77.7632 114.065 77.7673 114.179 77.3293 114.278L78.3469 114.235C78.6056 114.498 78.7572 114.617 78.5092 114.959L79.2421 114.87C79.2421 114.87 76.3065 115.11 76.2562 115.283L77.7646 115.344C77.7528 115.642 79.0576 116.02 77.6747 116.296C77.9009 116.287 78.3431 116.302 78.3975 116.243C78.426 116.401 79.4058 116.873 77.3279 116.722C78.6889 116.778 77.4534 117.059 76.8579 117.187L77.8554 117.213C76.5673 117.291 76.2381 117.271 75.8587 117.424C75.996 117.464 76.6543 117.505 76.414 117.435C76.919 117.619 75.465 117.498 75.96 117.717L76.594 117.713C76.594 117.713 76.3377 117.826 75.5805 117.87C75.1869 117.944 75.7848 118.193 76.6835 118.303C76.1382 118.257 75.3811 118.301 75.6457 118.415C75.9648 118.47 76.191 118.461 76.304 118.456C76.9505 118.794 75.113 118.712 76.0744 118.991C76.3935 119.046 76.5752 119.061 76.6783 119.091C76.6699 118.863 76.6415 118.704 76.5628 118.719C77.4715 118.794 77.6272 119.028 78.8952 119.019C78.2068 119.083 76.6581 119.16 77.0844 119.359C77.1531 119.379 77.2561 119.409 77.3934 119.449L77.4964 119.479C77.4964 119.479 77.4864 119.513 77.3289 119.543C77.4319 119.573 77.5006 119.593 77.5492 119.682L70.2792 116.897L70.2893 116.862C69.6729 116.42 70.0607 116.495 70.0565 116.381C70.8931 116.962 70.796 116.784 71.4165 117.34C71.3478 117.32 71.3134 117.31 71.2448 117.29C71.2448 117.29 71.2104 117.28 71.1418 117.26L71.2104 117.28C71.2104 117.28 71.1116 117.364 71.0571 117.423C71.5077 117.667 71.8996 117.856 71.4893 117.474C72.0571 117.826 72.6349 118.144 72.8895 118.293C71.8042 117.414 71.2725 116.809 70.5976 116.312C71.1914 116.447 71.2233 116.08 72.8537 117.004C73.0941 117.074 72.4434 116.622 72.2333 116.448C72.0616 116.398 72.0616 116.398 71.8212 116.329C72.3019 116.468 72.1864 116.096 73.3119 116.836C72.9318 116.35 72.2593 116.23 72.5742 116.171L72.2267 115.957C70.753 114.364 75.4224 117.26 73.4597 115.3C73.5769 115.409 73.6254 115.498 73.8114 115.627C73.1458 114.456 75.4061 115.262 74.1728 113.739C73.9442 113.372 74.6535 113.878 75.2514 114.127L74.3906 113.501L75.532 114.058C76.4046 114.386 73.5734 112.211 75.1855 112.942L75.7675 113.374C75.7675 113.374 76.2985 113.34 75.6135 112.878C75.7509 112.918 76.2399 113.285 75.9812 113.022L75.5164 112.699L76.4778 112.978C76.2493 112.611 74.5886 111.791 74.6791 111.479C74.9296 111.514 76.1983 112.145 76.5014 112.383C76.4913 112.418 76.7157 112.671 77.1805 112.994L77.4895 113.084C78.8595 114.007 80.3082 114.916 81.133 115.795L80.1775 115.367L80.808 115.888L80.9412 115.814C81.5031 116.316 80.9353 115.963 80.509 115.764C80.8465 116.012 81.091 116.196 81.1982 116.34L79.7779 115.59C80.3013 115.967 80.8892 116.25 81.1379 116.548C80.4914 116.21 79.9839 115.65 79.5133 115.475C80.0752 115.977 80.6086 116.32 80.0207 116.036C80.3582 116.285 80.6127 116.434 80.7744 116.518C80.3138 116.309 80.4594 116.577 79.6957 116.13C80.4192 116.716 79.3263 116.249 80.6377 117.118C80.3245 116.914 79.5407 116.536 79.4176 116.576C81.038 117.535 79.327 116.888 81.0102 118.015C79.5514 117.141 80.1802 117.925 79.2934 117.518C79.4307 117.557 79.6409 117.731 79.5823 117.677C79.6451 117.845 80.0412 118.148 80.2656 118.401C79.1158 117.617 78.7523 117.586 77.9785 117.174C79.0294 118.043 79.3687 118.028 80.4397 118.828C79.5102 118.182 79.3811 118.37 78.6132 117.809C79.2337 118.365 78.8963 118.117 79.8157 118.797C78.3528 117.809 79.5067 118.708 78.5813 118.176C79.2261 118.777 79.9069 119.125 79.3919 118.975C79.8022 119.357 80.3758 119.561 80.3758 119.561L80.2604 119.189ZM70.8442 118.415C70.8442 118.415 70.7897 118.474 70.7554 118.464C70.7554 118.464 70.7654 118.429 70.8442 118.415ZM70.8903 118.127C70.8903 118.127 70.9389 118.216 70.9288 118.251C71.2822 118.316 71.6114 118.336 71.6214 118.302C71.3953 118.311 71.2094 118.182 70.9004 118.092L70.8903 118.127ZM70.0121 116.406C70.0121 116.406 69.992 116.475 70.1779 116.604C70.1779 116.604 70.2466 116.624 70.3253 116.61L70.4283 116.639C70.2567 116.59 70.1051 116.47 69.9778 116.396L70.0121 116.406Z" fill="#2E68B8"/>
<path d="M71.1807 117.12L71.2498 117.14C71.3088 117.195 71.3678 117.25 71.4268 117.305L71.136 117.145L71.1807 117.12Z" fill="#2E68B8"/>
<path d="M65.7324 90.9843C65.7324 90.9843 65.7122 91.0538 65.6334 91.0686C65.6434 91.0339 65.6879 91.0091 65.7324 90.9843Z" fill="#2E68B8"/>
<path d="M69.1544 114.088L69.4183 114.089L69.179 114.134L69.1544 114.088Z" fill="#2E68B8"/>
<path d="M62.0291 92.2012C62.0291 92.2012 61.8836 92.3118 61.8283 92.3722C61.8487 92.3017 61.9389 92.2515 62.0291 92.2012Z" fill="#2E68B8"/>
<path d="M61.3378 91.8896L61.0149 92.0987C61.0149 92.0987 61.2931 91.9145 61.3378 91.8896Z" fill="#2E68B8"/>
<path d="M60.6251 91.9103C60.6251 91.9103 60.8087 91.6625 60.9076 91.5783L60.6251 91.9103Z" fill="#2E68B8"/>
<path d="M65.2361 99.1142C65.2361 99.1142 65.2361 99.1142 65.2261 99.1489C65.0731 99.2921 65.1274 99.2328 65.2361 99.1142Z" fill="#2E68B8"/>
<path d="M65.6969 95.5995C65.6969 95.5995 65.4346 95.8621 65.3701 95.9562C65.3014 95.9363 65.267 95.9263 65.6969 95.5995Z" fill="#2E68B8"/>
<path d="M65.4531 96.0555C65.4531 96.0555 65.2617 96.0751 65.3704 95.9565C65.4389 95.9764 65.5618 95.937 65.4531 96.0555Z" fill="#2E68B8"/>
<path d="M58.7002 90.3334L58.6289 90.5793C58.6289 90.5793 58.5593 90.5592 58.7002 90.3334Z" fill="#2E68B8"/>
<path d="M59.3643 90.8676L59.1606 91.1848C59.1606 91.1848 59.2796 91.0312 59.3643 90.8676Z" fill="#2E68B8"/>
<path d="M59.4509 91.0795C59.4509 91.0795 58.8802 91.6309 58.9509 91.3872L59.1349 91.1388C58.8214 91.5761 59.7947 90.5378 59.461 91.0447L59.4509 91.0795Z" fill="#2E68B8"/>
<path d="M63.0576 88.1407L62.6983 88.2246C62.9705 87.9275 63.3316 87.5809 63.3375 87.4322C64.2958 86.6947 62.7385 88.0858 63.0576 88.1407Z" fill="#2E68B8"/>
<path d="M63.9175 88.1266C63.978 87.9178 64.2999 87.7093 64.4294 87.5204C64.2596 87.8485 64.2049 87.9081 63.9175 88.1266Z" fill="#2E68B8"/>
<path d="M67.3259 91.5218L68.0279 90.898C68.0279 90.898 67.7758 91.1258 67.3259 91.5218Z" fill="#2E68B8"/>
<path d="M64.2592 95.2942L63.7592 95.602L64.4089 95.0358L64.2592 95.2942Z" fill="#2E68B8"/>
<path d="M69.6355 91.5146L69.7445 91.3957L69.5651 91.7575L69.6355 91.5146Z" fill="#2E68B8"/>
<path d="M73.8437 98.8269L72.8084 99.3164C72.9617 99.1728 74.0958 98.5992 73.8437 98.8269Z" fill="#2E68B8"/>
<path d="M74.1727 102.57C74.7099 102.387 75.0836 102.383 74.6051 102.62C74.502 102.59 74.0738 102.654 74.1727 102.57Z" fill="#2E68B8"/>
<path d="M78.1337 112.781L78.5054 112.662L78.1927 112.836L78.1337 112.781Z" fill="#2E68B8"/>
</g>
<defs>
<clipPath id="clip0_112_261">
<rect width="110.088" height="95.7762" fill="white" transform="matrix(0.278486 -0.96044 -0.96044 -0.278486 91.9873 132.405)"/>
</clipPath>
</defs>
</svg>
