<svg width="111" height="111" viewBox="0 0 111 111" fill="none" xmlns="http://www.w3.org/2000/svg">
<g filter="url(#filter0_d_62_863)">
<rect width="70.6689" height="70.6689" rx="4" transform="matrix(-0.988018 0.154341 0.154341 0.988018 82.8223 13)" fill="white"/>
</g>
<path d="M58.5979 76.9021C72.0748 74.0866 80.7176 60.879 77.9021 47.4021C75.0867 33.9251 61.8791 25.2823 48.4021 28.0978C34.9252 30.9133 26.2824 44.1209 29.0979 57.5978C31.9133 71.0747 45.1209 79.7175 58.5979 76.9021Z" fill="white" stroke="#263238" stroke-miterlimit="10"/>
<path d="M50.7281 60.5061C61.1328 60.5061 69.5674 52.6916 69.5674 43.0519C69.5674 33.4123 61.1328 25.5978 50.7281 25.5978C40.3234 25.5978 31.8887 33.4123 31.8887 43.0519C31.8887 52.6916 40.3234 60.5061 50.7281 60.5061Z" fill="#FEC510"/>
<path d="M48.4004 58.0457L49.0154 67.2991L58.8895 72.081L58.5847 62.5172L48.4004 58.0457Z" fill="#FFC3BD" stroke="#263238" stroke-miterlimit="10"/>
<path d="M52.9502 62.7943L58.868 67.8255V64.1296L52.9502 62.7943Z" fill="#263238"/>
<path d="M45.4641 45.2682C45.4641 45.2682 45.4641 55.5191 47.6805 59.1207C49.8969 62.7224 57.1002 64.9388 60.9789 64.3847C64.8576 63.8306 62.9182 43.3289 60.9789 39.7272C59.0395 36.1256 44.91 37.5108 45.4641 45.2682Z" fill="#FFC3BD" stroke="#263238" stroke-miterlimit="10"/>
<path d="M53.4981 77.4282C56.7894 77.4282 59.9312 76.7854 62.8069 75.6273L49.0154 67.3047L39.3408 73.0175C43.3636 75.7991 48.2397 77.4337 53.4981 77.4337V77.4282Z" fill="#006D2C"/>
<path d="M47.1265 50.5321C47.1265 50.5321 43.8019 45.5452 42.6937 48.5927C41.5855 51.6403 42.1396 54.4108 43.8019 54.9649C45.4642 55.519 47.4036 53.8567 47.4036 53.8567" fill="#FFC3BD"/>
<path d="M47.1265 50.5321C47.1265 50.5321 43.8019 45.5452 42.6937 48.5927C41.5855 51.6403 42.1396 54.4108 43.8019 54.9649C45.4642 55.519 47.4036 53.8567 47.4036 53.8567" stroke="#263238" stroke-miterlimit="10"/>
<path d="M53.2987 48.033C53.5344 48.033 53.7254 47.4079 53.7254 46.6367C53.7254 45.8655 53.5344 45.2404 53.2987 45.2404C53.0631 45.2404 52.8721 45.8655 52.8721 46.6367C52.8721 47.4079 53.0631 48.033 53.2987 48.033Z" fill="#263238"/>
<path d="M61.1668 46.1602C61.1668 46.9304 60.9784 47.5566 60.7401 47.5566C60.5019 47.5566 60.3135 46.9304 60.3135 46.1602C60.3135 45.39 60.5019 44.7639 60.7401 44.7639C60.9784 44.7639 61.1668 45.39 61.1668 46.1602Z" fill="#263238"/>
<path d="M59.5107 43.6946C59.5107 43.6946 61.3614 42.6141 62.1316 44.16L59.5107 43.6946Z" fill="white"/>
<path d="M61.2061 43.5726L61.2168 43.594C61.2168 43.594 61.2168 43.578 61.2061 43.5726Z" fill="#263238"/>
<path d="M60.9512 43.5172H60.9567L60.9512 43.4839V43.5172Z" fill="#263238"/>
<path d="M60.7129 43.5561C60.7129 43.5561 60.7351 43.5506 60.7461 43.5506C60.724 43.5561 60.7129 43.5174 60.7129 43.5561Z" fill="#263238"/>
<path d="M62.1153 44.16L62.082 44.1766C62.082 44.1766 62.1042 44.1655 62.1097 44.16H62.1153Z" fill="#263238"/>
<path d="M61.9658 44.171C61.9658 44.171 61.9824 44.171 61.988 44.171C61.9991 44.171 62.0102 44.171 62.0212 44.171L62.0545 44.1433L61.9658 44.1599V44.171Z" fill="#263238"/>
<path d="M60.5351 43.5228L60.5244 43.5496C60.5244 43.5496 60.5351 43.5335 60.5351 43.5228Z" fill="#263238"/>
<path d="M60.6084 43.1293C60.6084 43.1293 60.6191 43.1453 60.6298 43.1453L60.6084 43.1293Z" fill="#263238"/>
<path d="M60.9565 43.1459H60.9512L60.9619 43.1727L60.9565 43.1459Z" fill="#263238"/>
<path d="M61.2614 43.1569C61.2614 43.1569 61.2337 43.1569 61.2227 43.1514C61.2504 43.1514 61.2559 43.1957 61.2614 43.1569Z" fill="#263238"/>
<path d="M59.4775 43.6333C59.4775 43.6333 59.4882 43.6494 59.4989 43.6548L59.4775 43.628V43.6333Z" fill="#263238"/>
<path d="M59.4942 43.5228C59.4942 43.5228 59.4942 43.5395 59.4831 43.545C59.4831 43.5561 59.4831 43.5672 59.4775 43.5782L59.5052 43.6059L59.4942 43.5228Z" fill="#263238"/>
<path d="M60.6851 43.1846C60.6851 43.1846 60.7073 43.2012 60.7184 43.1735C60.7128 43.1625 60.6962 43.1735 60.6851 43.1846ZM60.0146 43.3786C60.0146 43.3786 60.0368 43.3786 60.0424 43.3786C60.0313 43.3786 60.0202 43.3786 60.0146 43.3786ZM61.7434 43.7498C61.7434 43.7498 61.7324 43.7332 61.7268 43.7276C61.7268 43.7387 61.7324 43.7498 61.7434 43.7498Z" fill="#263238"/>
<path d="M61.4609 43.2674L61.4824 43.2567C61.4824 43.2567 61.4663 43.2567 61.4609 43.2674Z" fill="#263238"/>
<path d="M47.4307 68.7287L48.4003 64.2405L60.7291 70.4852L61.333 74.4913L47.4307 68.7287Z" fill="#7B5DD6"/>
<path d="M54.3516 53.1971C54.3516 53.1971 54.9611 55.1365 56.4128 55.3803C57.8701 55.6241 60.5409 55.2584 61.5105 55.0146" stroke="#263238" stroke-width="0.75" stroke-miterlimit="10" stroke-linecap="round"/>
<path d="M59.0835 44.7029C59.0835 44.7029 58.7178 46.6423 59.0835 47.1299C59.4492 47.6175 61.3885 49.8007 61.3885 50.6484C61.3885 51.4962 60.6627 51.9838 58.7178 51.74" stroke="#263238" stroke-width="0.75" stroke-miterlimit="10" stroke-linecap="round"/>
<path d="M51.0713 44.459C51.0713 44.459 52.4067 42.758 55.0774 43.2456" stroke="#263238" stroke-width="0.75" stroke-miterlimit="10" stroke-linecap="round"/>
<path d="M59.5049 43.606C59.5049 43.606 60.868 42.1321 62.0981 43.8997" stroke="#263238" stroke-width="0.75" stroke-miterlimit="10" stroke-linecap="round"/>
<defs>
<filter id="filter0_d_62_863" x="0.569336" y="0.568848" width="109.591" height="109.591" filterUnits="userSpaceOnUse" color-interpolation-filters="sRGB">
<feFlood flood-opacity="0" result="BackgroundImageFix"/>
<feColorMatrix in="SourceAlpha" type="matrix" values="0 0 0 0 0 0 0 0 0 0 0 0 0 0 0 0 0 0 127 0" result="hardAlpha"/>
<feOffset dx="2" dy="2"/>
<feGaussianBlur stdDeviation="7.5"/>
<feComposite in2="hardAlpha" operator="out"/>
<feColorMatrix type="matrix" values="0 0 0 0 0.8 0 0 0 0 0.8 0 0 0 0 0.8 0 0 0 0.3 0"/>
<feBlend mode="normal" in2="BackgroundImageFix" result="effect1_dropShadow_62_863"/>
<feBlend mode="normal" in="SourceGraphic" in2="effect1_dropShadow_62_863" result="shape"/>
</filter>
</defs>
</svg>
