<svg width="111" height="111" viewBox="0 0 111 111" fill="none" xmlns="http://www.w3.org/2000/svg">
<g filter="url(#filter0_d_318_4)">
<rect x="23.9072" y="13" width="70.6689" height="70.6689" rx="4" transform="rotate(8.87859 23.9072 13)" fill="white"/>
</g>
<g clip-path="url(#clip0_318_4)">
<path d="M77.5 53C77.5 65.9787 66.9787 76.5 54 76.5C41.0213 76.5 30.5 65.9787 30.5 53C30.5 40.0213 41.0213 29.5 54 29.5C66.9787 29.5 77.5 40.0213 77.5 53Z" stroke="#191A1D"/>
<path d="M68.6688 70.9127C68.2862 71.2287 67.8871 71.5364 67.4713 71.8275C66.3486 72.6424 65.1428 73.3493 63.8788 73.948C60.8767 75.3701 57.5253 76.1684 53.991 76.1684C49.7416 76.1684 45.7582 75.0208 42.3403 73.0083C41.4588 72.5011 40.6189 71.9272 39.8206 71.3035H39.8122C39.8122 71.3035 39.7291 71.237 39.6875 71.1954C39.7041 71.1372 39.7124 71.0956 39.7291 71.0374C39.9287 70.2807 40.1199 69.499 40.2946 68.684C40.544 67.5863 40.7686 66.447 40.9682 65.2578C41.4754 62.1809 41.7748 58.8462 41.6667 55.4616C41.2592 43.1954 43.4879 38.6965 48.5025 36.2932C48.727 36.185 48.9598 36.0686 49.2093 35.9688C50.3902 35.4699 51.5877 35.3784 52.7436 35.5281H52.7519C57.043 36.1102 60.7686 40.1102 60.7686 40.1102C60.7686 40.1102 61.6002 41.2495 62.7312 43.4283C64.7603 47.3451 67.7457 54.6216 68.4942 64.5842C68.6522 66.5967 68.7187 68.7006 68.6688 70.9127Z" fill="#263238"/>
<path d="M68.4946 64.5925C67.5964 63.9272 66.7565 63.4615 66.0746 63.3202C66.0746 63.3202 61.1848 62.8462 56.9353 62.8794C56.4696 62.8961 55.9956 62.921 55.5299 62.9459C53.3511 63.0624 51.1723 63.2869 49.0185 63.6112C48.3864 63.7027 47.7544 63.8025 47.1307 63.9189C45.0517 64.2599 42.9977 64.7089 40.9686 65.2578C39.9956 65.5156 39.0309 65.7983 38.0663 66.106C37.7087 66.5551 37.3844 67.4948 37.0684 68.7838C37.8667 69.657 38.7482 70.4719 39.6879 71.1954C39.7295 71.237 39.7711 71.2703 39.8126 71.3035H39.821C40.6193 71.9272 41.4592 72.501 42.3407 73.0083C45.7586 75.0208 49.742 76.1684 53.9914 76.1684C57.5257 76.1684 60.8771 75.3701 63.8792 73.948C65.1432 73.3493 66.349 72.6424 67.4717 71.8274C67.8875 71.5364 68.2867 71.2287 68.6692 70.9127C69.875 69.9231 70.9727 68.817 71.954 67.6112C70.823 66.4969 69.6089 65.3992 68.4946 64.5925Z" fill="#FEC510"/>
<path d="M55.1388 67.7027C49.75 67.0125 48.1367 64.7089 48.1367 64.7089C50.3405 62.6382 49.9413 59.578 49.3758 57.6653C49.0681 56.6091 48.7105 55.9023 48.7105 55.9023L55.197 57.1164C55.0307 58.1892 54.9558 59.0873 54.9475 59.8441C54.9309 60.6757 55.0057 61.3326 55.1305 61.8482C55.5712 63.7859 56.6773 63.8108 56.6773 63.8108C57.8166 65.9397 55.1471 67.7027 55.1471 67.7027H55.1388Z" fill="#EEC1BB"/>
<path opacity="0.2" d="M54.9392 59.8441C54.9225 60.6757 54.9974 61.3326 55.1221 61.8482C52.5441 61.5073 50.5982 59.4532 49.3674 57.6653C49.0597 56.6091 48.7021 55.9023 48.7021 55.9023L55.1886 57.1164C55.0223 58.1892 54.9475 59.0873 54.9392 59.8441Z" fill="black"/>
<path d="M53.8756 39.1705C59.5138 39.3784 61.2186 42.4636 61.4099 48.2931C61.6594 55.5696 59.8548 60.6674 52.861 58.8545C43.3641 56.3929 44.5034 38.8212 53.8673 39.1705H53.8756Z" fill="#EEC1BB"/>
<path d="M57.7754 47.8358C57.7754 47.8358 58.4989 49.341 59.3305 50.2308C59.3305 50.2308 58.8232 50.9792 57.817 50.8129L57.7754 47.8275V47.8358Z" fill="#D4827D"/>
<path d="M51.9546 44.4096C51.8881 44.4096 51.8132 44.3846 51.7633 44.3347C51.6386 44.2266 51.6303 44.0437 51.7384 43.9189C52.7363 42.7796 54.4161 43.0457 54.4827 43.0624C54.6407 43.0873 54.7488 43.237 54.7238 43.4033C54.6989 43.5613 54.5492 43.6694 54.3829 43.6445C54.3662 43.6445 52.9525 43.42 52.1791 44.3098C52.1209 44.3763 52.0378 44.4096 51.9546 44.4096Z" fill="#263238"/>
<path d="M60.769 44.1102C60.7108 44.1102 60.6526 44.0936 60.5944 44.052C59.5216 43.2786 58.6651 43.5364 58.6235 43.5447C58.4655 43.5946 58.3075 43.5114 58.2576 43.3534C58.2077 43.1954 58.2909 43.0374 58.4489 42.9875C58.4988 42.9709 59.6131 42.6216 60.9437 43.578C61.0767 43.6694 61.1017 43.8524 61.0102 43.9854C60.952 44.0686 60.8605 44.1102 60.769 44.1102Z" fill="#263238"/>
<path d="M56.9193 53.0083C56.57 53.6736 56.1875 54.9376 56.1875 54.9376C56.0627 54.921 55.9463 54.9127 55.8299 54.8877C54.1916 54.6632 53.5097 54.0145 53.2519 53.3659C53.1105 53.0083 53.1022 52.6507 53.1272 52.368C53.1604 52.0353 53.2519 51.8025 53.2519 51.8025C54.0503 52.4428 55.5555 52.7671 56.3704 52.9085C56.7114 52.975 56.9276 52.9917 56.9276 52.9917L56.9193 53.0083Z" fill="#263238"/>
<path d="M56.3624 52.9168L56.1295 53.4823C54.5911 53.2661 53.5349 52.9085 53.1191 52.368C53.1524 52.0353 53.2439 51.8025 53.2439 51.8025C54.0422 52.4428 55.5474 52.7671 56.3624 52.9085V52.9168Z" fill="white"/>
<path d="M55.8299 54.8877C54.1917 54.6632 53.5097 54.0146 53.252 53.3659C53.8091 53.4657 54.4661 53.6487 55.0149 53.9813C55.4391 54.2308 55.6802 54.5634 55.8299 54.8877Z" fill="#DE5753"/>
<path d="M47.3642 48.4428C47.3642 48.4428 50.175 43.9106 49.9089 40.3181C49.9089 40.3181 61.2519 36.1684 61.3767 47.5281C61.3767 47.5281 62.8403 37.4989 53.1605 36.9168C43.4972 36.3347 42.99 50.5135 47.8382 54.921C47.8382 54.921 45.6261 51.2786 47.3642 48.4428Z" fill="#263238"/>
<path d="M48.2372 49.6653C48.2372 48.7588 47.3557 47.1871 45.6592 47.3035C43.9045 47.4283 42.9399 50.9875 47.2559 52.0104C47.8713 52.1601 48.2455 51.5613 48.2372 49.6653Z" fill="#EEC1BB"/>
<path d="M50.7068 35.4449C53.7588 34.5967 61.8835 34.4886 63.8045 42.896L62.6736 43.4615C62.6736 43.4615 59.9625 41.9979 56.5779 41.657C56.5779 41.657 55.9043 40.4179 54.9979 39.395C54.9979 39.395 55.1143 40.7505 54.9979 41.5405C54.9979 41.5405 49.6923 42.3139 47.3222 44.4761C43.5966 47.8607 43.3721 50.0062 43.3721 50.0062C43.3721 50.0062 40.7858 38.1975 50.7068 35.4449Z" fill="#263238"/>
<path d="M64.5949 42.8129C64.5117 42.8129 64.4286 42.763 64.4036 42.6715C63.439 39.7775 61.7924 37.7401 59.4972 36.6175C55.3142 34.5634 50.3745 36.2349 50.3246 36.2515C50.2165 36.2931 50.1001 36.2349 50.0668 36.1268C50.0336 36.0187 50.0835 35.9023 50.1916 35.869C50.2415 35.8524 55.3475 34.1227 59.6801 36.2515C62.0751 37.4324 63.7882 39.5447 64.7945 42.5468C64.8277 42.6549 64.7695 42.7713 64.6697 42.8046C64.6448 42.8046 64.6282 42.8129 64.6032 42.8129H64.5949Z" fill="#263238"/>
<path d="M52.7939 47.2536C52.7939 47.2536 54.1162 46.131 54.7399 47.6445C54.7399 47.6445 53.7669 47.1455 52.7939 47.2536Z" fill="#263238"/>
<path d="M59.0645 48.0852C59.0645 48.0852 59.7963 46.5551 60.7692 47.6362C60.7692 47.6362 59.6549 47.6694 59.0645 48.0852Z" fill="#263238"/>
</g>
<defs>
<filter id="filter0_d_318_4" x="0.569336" y="0.568848" width="109.591" height="109.591" filterUnits="userSpaceOnUse" color-interpolation-filters="sRGB">
<feFlood flood-opacity="0" result="BackgroundImageFix"/>
<feColorMatrix in="SourceAlpha" type="matrix" values="0 0 0 0 0 0 0 0 0 0 0 0 0 0 0 0 0 0 127 0" result="hardAlpha"/>
<feOffset dx="2" dy="2"/>
<feGaussianBlur stdDeviation="7.5"/>
<feComposite in2="hardAlpha" operator="out"/>
<feColorMatrix type="matrix" values="0 0 0 0 0.8 0 0 0 0 0.8 0 0 0 0 0.8 0 0 0 0.3 0"/>
<feBlend mode="normal" in2="BackgroundImageFix" result="effect1_dropShadow_318_4"/>
<feBlend mode="normal" in="SourceGraphic" in2="effect1_dropShadow_318_4" result="shape"/>
</filter>
<clipPath id="clip0_318_4">
<rect width="48" height="48" fill="white" transform="translate(30 29)"/>
</clipPath>
</defs>
</svg>
