<svg width="127" height="127" viewBox="0 0 127 127" fill="none" xmlns="http://www.w3.org/2000/svg">
<g filter="url(#filter0_d_318_3)">
<rect x="13.6191" y="20.0175" width="90.3306" height="90.3306" rx="4" transform="rotate(-3.47199 13.6191 20.0175)" fill="white"/>
</g>
<g clip-path="url(#clip0_318_3)">
<path d="M85.5 61.5C85.5 75.3071 74.3071 86.5 60.5 86.5C46.6929 86.5 35.5 75.3071 35.5 61.5C35.5 47.6929 46.6929 36.5 60.5 36.5C74.3071 36.5 85.5 47.6929 85.5 61.5Z" fill="white" stroke="#191A1D"/>
<path d="M66.2403 61.5C66.7834 60.2968 67.1678 60.8148 68.7385 62.0263C70.3093 63.2378 70.56 64.3324 70.56 65.6191C70.56 66.9058 70.3093 69.4624 70.3093 69.4624L74.3866 74.0327L72.5401 76.815L67.8028 71.4677C67.8028 71.4677 65.4633 69.7047 65.079 67.7246C64.6946 65.7444 66.2403 61.4916 66.2403 61.4916V61.5Z" fill="#EBB376"/>
<path d="M65.6967 60.1298L69.0387 66.1288C69.1891 66.3961 69.1557 66.7387 68.9552 66.9727L66.3651 69.9638C66.0392 70.3398 65.4377 70.2897 65.1787 69.8635L62.1875 64.934L65.705 60.1381L65.6967 60.1298Z" fill="#263238"/>
<path opacity="0.4" d="M65.5129 60.7731L68.4622 66.3293L65.6549 69.6296L62.6387 64.7251L65.5129 60.7731Z" fill="#407BFF"/>
<path d="M73.9441 82.1623C73.9691 82.2876 73.9858 82.4046 74.0025 82.5216C73.9357 82.438 73.8689 82.3461 73.802 82.2542C72.9247 82.8307 72.014 83.3404 71.0615 83.7916C71.2788 82.0955 71.5211 80.5665 71.7383 79.2881C71.9305 78.1184 72.1059 77.1576 72.2396 76.4808C72.3649 75.804 72.4485 75.4113 72.4652 75.3445C72.7576 75.3863 73.0501 75.4782 73.3425 75.6202C74.6208 76.2468 75.8825 77.7424 77.1107 79.7226C76.1248 80.625 75.072 81.4438 73.9441 82.1623Z" fill="#407BFF"/>
<path d="M74.0021 82.5216C73.9352 82.4381 73.8684 82.3461 73.8015 82.2542C72.9242 82.8307 72.0135 83.3404 71.061 83.7916C67.861 85.3122 64.2766 86.1645 60.5085 86.1645C52.9972 86.1645 46.2545 82.789 41.7344 77.4834C42.1605 77.3832 42.595 77.2913 43.0294 77.2077C43.0712 77.1994 43.1213 77.191 43.1631 77.1826C43.2467 77.1659 43.3302 77.1492 43.4221 77.1325C44.5501 76.9153 45.7031 76.7231 46.8561 76.556C46.8561 76.5477 46.8728 76.5477 46.8812 76.5477C47.3825 76.4725 47.8921 76.4056 48.3935 76.3388C49.0619 76.2469 49.7303 76.1717 50.3903 76.0965C50.4405 76.0965 50.499 76.0798 50.5491 76.0798C52.0781 75.9043 53.6071 75.7623 55.0943 75.6536C55.5873 75.6202 56.0719 75.5868 56.5481 75.5617H56.5565C57.1831 75.52 57.8014 75.4782 58.4113 75.4448C59.0212 75.4113 59.6312 75.3863 60.216 75.3612C60.4583 75.3529 60.7006 75.3445 60.9429 75.3362C61.6698 75.3111 62.3717 75.2944 63.0401 75.2777C65.2375 75.2275 67.1675 75.2275 68.7049 75.2442C69.0642 75.2526 69.4067 75.2526 69.7242 75.261C70.3007 75.2693 70.7937 75.286 71.1947 75.3027C72.0135 75.3194 72.4647 75.3445 72.4647 75.3445C72.565 75.7121 72.6652 76.0965 72.7571 76.4892C73.1833 78.2103 73.576 80.1153 73.9436 82.1623C73.9686 82.2877 73.9854 82.4046 74.0021 82.5216Z" fill="#006D2C"/>
<path opacity="0.2" d="M74.0021 82.5216C73.9352 82.438 73.8684 82.3461 73.8016 82.2542C72.9243 82.8307 72.0135 83.3404 71.0611 83.7916C67.861 85.3122 64.2767 86.1644 60.5085 86.1644C52.9972 86.1644 46.2545 82.789 41.7344 77.4834C41.5339 77.5252 41.3333 77.567 41.1328 77.6087C41.325 77.567 41.5255 77.5168 41.726 77.4751C42.1605 77.3832 42.595 77.2912 43.0294 77.2077C43.0712 77.1993 43.1213 77.191 43.1631 77.1826C43.2467 77.1659 43.3302 77.1492 43.4221 77.1325C44.5501 76.9153 45.7031 76.7231 46.8561 76.556C46.8561 76.5476 46.8728 76.5476 46.8812 76.5476C47.3825 76.4724 47.8922 76.4056 48.3935 76.3388C49.0619 76.2468 49.7303 76.1717 50.3903 76.0965C50.4405 76.0965 50.499 76.0797 50.5491 76.0797C52.0781 75.9043 53.6071 75.7622 55.0943 75.6536C55.5789 75.6202 56.0635 75.5868 56.5398 75.5534C57.1748 75.5116 57.793 75.4782 58.4113 75.4448C59.0212 75.4113 59.6312 75.3863 60.216 75.3612C60.4583 75.3528 60.7006 75.3445 60.9429 75.3361C61.6615 75.3111 62.3633 75.286 63.0317 75.2693C65.2375 75.2275 67.1675 75.2275 68.7049 75.2359C69.0725 75.2359 69.4067 75.2359 69.7242 75.2526C70.2924 75.2526 70.777 75.2776 71.178 75.286C72.0052 75.3111 72.4647 75.3361 72.4647 75.3361C72.565 75.7121 72.6652 76.0965 72.7572 76.4891C73.1833 78.2103 73.576 80.1153 73.9436 82.1623C73.9687 82.2876 73.9854 82.4046 74.0021 82.5216Z" fill="black"/>
<path d="M50.3486 76.063C53.0641 78.5278 59.7064 77.6171 59.7064 77.6171C59.7064 77.6171 63.8506 76.4808 62.9817 75.1857C60.5419 74.7847 59.3555 73.64 58.8626 72.1862C58.5785 71.334 58.5367 70.3815 58.6119 69.3956C58.6453 68.8776 58.7289 68.3512 58.8208 67.8415L50.6076 61.759C51.6855 65.7778 53.0056 73.1638 50.3486 76.0714V76.063Z" fill="#EBB376"/>
<path opacity="0.2" d="M52.5123 65.6191C52.8381 70.5486 56.8904 71.9105 58.8706 72.1862C58.5865 71.334 58.5447 70.3815 58.6199 69.3956L52.5039 65.6191H52.5123Z" fill="black"/>
<path d="M66.6826 50.0367C66.6826 50.0367 67.8524 57.7067 63.775 60.6561C59.7061 63.6055 59.7061 49.3265 59.7061 49.3265L66.6826 50.0367Z" fill="#263238"/>
<path d="M51.9527 66.7638C53.9245 69.6045 57.1496 70.3481 59.9486 69.4625C61.7449 68.8943 63.3659 67.6494 64.3768 65.8614C64.5105 65.6275 64.6358 65.3768 64.7445 65.1262C66.7497 60.4389 67.3847 52.2341 62.4301 49.1594C58.9125 46.9453 54.2504 47.998 52.0362 51.5239C51.4012 52.5265 51.0169 53.6629 50.8999 54.8493C50.29 60.3303 49.6717 63.522 51.9527 66.7721V66.7638Z" fill="#EBB376"/>
<path d="M58.8952 57.7736C58.7865 58.208 58.9871 58.6091 59.2795 58.6592C59.5719 58.7093 59.8644 58.3835 59.9396 57.949C60.0148 57.5062 59.8393 57.1051 59.5552 57.0634C59.2711 57.0132 58.9704 57.3307 58.8952 57.7736Z" fill="#263238"/>
<path d="M63.8915 58.6258C63.7829 59.0603 63.9918 59.4697 64.2759 59.5114C64.5599 59.5616 64.8607 59.2357 64.9359 58.8012C65.0111 58.3584 64.8357 57.9574 64.5516 57.9156C64.2675 57.8655 63.9584 58.208 63.8915 58.6258Z" fill="#263238"/>
<path d="M62.2708 58.5673C62.5633 60.0128 63.0646 61.4081 63.7414 62.7115C63.0479 63.0457 62.2458 63.0624 61.5439 62.7449L62.2708 58.559V58.5673Z" fill="#D58745"/>
<path d="M57.6177 55.8853C57.7096 55.9187 57.8182 55.8853 57.885 55.8268C58.3613 55.3589 59.038 55.1417 59.6981 55.2419C59.8401 55.2753 59.9822 55.1918 60.0156 55.0498C60.049 54.9077 59.9655 54.7657 59.8234 54.7323C58.9879 54.5819 58.1357 54.8492 57.5258 55.4425C57.4171 55.5344 57.4088 55.7015 57.5007 55.8101C57.5341 55.8351 57.5675 55.8602 57.6093 55.8769L57.6177 55.8853Z" fill="#263238"/>
<path d="M66.3402 57.2639C66.3819 57.289 66.4404 57.3057 66.4906 57.2974C66.6326 57.2556 66.7161 57.1135 66.6744 56.9715C66.4571 56.1527 65.8472 55.4843 65.0535 55.1919C64.9114 55.1501 64.7694 55.2253 64.7276 55.3673C64.6858 55.5093 64.7694 55.6514 64.9031 55.6932C65.5297 55.9438 65.9976 56.4702 66.1647 57.1219C66.1981 57.1887 66.265 57.2389 66.3402 57.2639Z" fill="#263238"/>
<path d="M56.0467 48.7416V51.1897C55.2028 51.5156 54.6179 52.3511 54.8686 53.3453C55.4033 55.4676 53.866 58.4754 52.1532 59.5449C52.1532 59.5449 52.2116 58.6592 51.443 58.7762C50.6743 58.8932 50.3234 63.4969 51.5014 65.8614C51.5014 65.8614 49.5547 63.6222 48.903 58.6592C48.3014 54.0722 48.6106 50.3542 49.7385 48.7416H56.0467Z" fill="#263238"/>
<path d="M47.7669 58.8932C48.1596 60.23 49.062 61.3496 50.2818 62.018C51.9027 62.8869 53.1142 61.5334 53.0056 59.7955C52.897 58.2498 51.9278 55.8853 50.1398 55.7516C48.3434 55.6179 47.3074 57.2556 47.7669 58.9015V58.8932Z" fill="#EBB376"/>
<path d="M56.0465 51.1897C56.0465 51.1897 57.634 52.7688 59.1797 51.6158C59.1797 51.6158 60.9259 53.0696 62.3546 52.0419C62.3546 52.0419 63.1317 53.362 64.4184 53.5208C65.7051 53.6795 65.7051 52.3594 65.7051 52.3594C65.7051 52.3594 67.727 53.5208 68.4706 52.9777C69.2142 52.4346 68.0612 50.2623 68.0612 50.2623C68.0612 50.2623 69.0137 49.7526 68.4038 48.0064C67.7939 46.2601 64.9698 46.6695 64.9698 46.6695C64.9698 46.6695 65.0784 45.0403 63.1066 43.3442C61.1348 41.6481 59.9651 43.7536 59.9651 43.7536C59.9651 43.7536 58.0601 41.1718 55.6956 41.5144C53.3311 41.857 53.6068 43.4862 53.6068 43.4862C53.6068 43.4862 50.8913 41.7901 49.6715 43.4862C48.4516 45.1823 49.6715 46.0011 49.6715 46.0011C49.6715 46.0011 46.9561 46.9118 47.0897 48.7667C47.2234 50.6215 48.6187 50.3458 48.6187 50.3458C48.6187 50.3458 47.8334 51.2315 49.6046 51.9751C51.3759 52.7187 53.0303 50.8889 53.0303 50.8889C53.0303 50.8889 52.3451 51.9417 53.6151 52.6519C54.8851 53.362 56.0632 51.2064 56.0632 51.2064L56.0465 51.1897Z" fill="#263238"/>
<path d="M61.4273 64.3993C60.7923 64.934 59.8816 66.0619 59.8816 66.0619C59.7646 65.9951 59.6476 65.9366 59.5306 65.8614C57.9682 64.9507 57.5338 64.0149 57.5421 63.2462C57.5421 62.8285 57.6841 62.4609 57.8262 62.1768C57.9933 61.8509 58.1855 61.6588 58.1855 61.6588C58.7285 62.6363 60.1239 63.5972 60.8925 64.0734C61.21 64.2823 61.4189 64.3909 61.4189 64.3909L61.4273 64.3993Z" fill="#263238"/>
<path d="M60.9013 64.0818L60.4334 64.558C58.9629 63.6974 58.0355 62.8953 57.835 62.1851C58.0021 61.8593 58.1942 61.6671 58.1942 61.6671C58.7373 62.6447 60.1326 63.6055 60.9013 64.0818Z" fill="white"/>
<path d="M59.5394 65.8614C57.977 64.9507 57.5425 64.0149 57.5509 63.2462C58.0689 63.5721 58.6621 64.0316 59.0883 64.5998C59.4141 65.0342 59.5227 65.4687 59.5394 65.8614Z" fill="#DE5753"/>
<path d="M59.7064 77.6171C59.7064 77.6171 50.1231 71.1084 47.0734 70.7408C44.0238 70.3732 44.5669 74.1831 44.5669 74.1831C44.5669 74.1831 42.2107 74.1831 43.1214 77.0824C44.0238 79.9816 57.0411 81.5775 61.8537 80.1487C66.6663 78.7116 69.5238 76.0213 68.73 73.473C67.9363 70.9246 65.7138 73.1053 65.7138 73.1053C65.7138 73.1053 64.4188 70.7074 62.5556 71.2672C60.6924 71.827 59.7148 77.6255 59.7148 77.6255L59.7064 77.6171Z" fill="#006D2C"/>
<path d="M80.0424 76.531C79.1651 77.6756 78.1876 78.7451 77.1097 79.7227C76.1238 80.625 75.0711 81.4438 73.9431 82.1624C73.9682 82.2877 73.9849 82.4047 74.0016 82.5216C73.9348 82.4381 73.8679 82.3462 73.8011 82.2543C73.1661 81.402 72.4308 80.366 71.7374 79.2882C70.8684 77.9012 70.0747 76.4558 69.7238 75.261C69.6068 74.8766 69.5399 74.5341 69.5232 74.2166L68.7295 73.1137L68.9885 72.8129L71.094 70.3398L71.5535 69.8051L72.4559 70.9831C72.4559 70.9831 73.6173 70.5654 77.3353 73.7654C78.2878 74.5842 79.257 75.6203 80.0424 76.531Z" fill="#006D2C"/>
</g>
<defs>
<filter id="filter0_d_318_3" x="0.853516" y="1.78174" width="125.166" height="125.166" filterUnits="userSpaceOnUse" color-interpolation-filters="sRGB">
<feFlood flood-opacity="0" result="BackgroundImageFix"/>
<feColorMatrix in="SourceAlpha" type="matrix" values="0 0 0 0 0 0 0 0 0 0 0 0 0 0 0 0 0 0 127 0" result="hardAlpha"/>
<feOffset dx="2" dy="2"/>
<feGaussianBlur stdDeviation="7.5"/>
<feComposite in2="hardAlpha" operator="out"/>
<feColorMatrix type="matrix" values="0 0 0 0 0.8 0 0 0 0 0.8 0 0 0 0 0.8 0 0 0 0.3 0"/>
<feBlend mode="normal" in2="BackgroundImageFix" result="effect1_dropShadow_318_3"/>
<feBlend mode="normal" in="SourceGraphic" in2="effect1_dropShadow_318_3" result="shape"/>
</filter>
<clipPath id="clip0_318_3">
<rect width="51" height="51" fill="white" transform="translate(35 36)"/>
</clipPath>
</defs>
</svg>
