<svg width="51" height="51" viewBox="0 0 51 51" fill="none" xmlns="http://www.w3.org/2000/svg">
<g clip-path="url(#clip0_62_1212)">
<path d="M50.5 25.5C50.5 39.3071 39.3071 50.5 25.5 50.5C11.6929 50.5 0.5 39.3071 0.5 25.5C0.5 11.6929 11.6929 0.5 25.5 0.5C39.3071 0.5 50.5 11.6929 50.5 25.5Z" fill="white" stroke="#191A1D"/>
<path d="M31.2403 25.5C31.7834 24.2968 32.1678 24.8148 33.7385 26.0263C35.3093 27.2378 35.56 28.3324 35.56 29.6191C35.56 30.9058 35.3093 33.4624 35.3093 33.4624L39.3866 38.0327L37.5401 40.815L32.8028 35.4677C32.8028 35.4677 30.4633 33.7047 30.079 31.7246C29.6946 29.7444 31.2403 25.4916 31.2403 25.4916V25.5Z" fill="#EBB376"/>
<path d="M30.6967 24.1298L34.0387 30.1288C34.1891 30.3961 34.1557 30.7387 33.9552 30.9727L31.3651 33.9638C31.0392 34.3398 30.4377 34.2897 30.1787 33.8635L27.1875 28.934L30.705 24.1381L30.6967 24.1298Z" fill="#263238"/>
<path opacity="0.4" d="M30.5129 24.7731L33.4622 30.3293L30.6549 33.6296L27.6387 28.7251L30.5129 24.7731Z" fill="#407BFF"/>
<path d="M38.9441 46.1623C38.9691 46.2876 38.9858 46.4046 39.0025 46.5216C38.9357 46.438 38.8689 46.3461 38.802 46.2542C37.9247 46.8307 37.014 47.3404 36.0615 47.7916C36.2788 46.0955 36.5211 44.5665 36.7383 43.2881C36.9305 42.1184 37.1059 41.1576 37.2396 40.4808C37.3649 39.804 37.4485 39.4113 37.4652 39.3445C37.7576 39.3863 38.0501 39.4782 38.3425 39.6202C39.6208 40.2468 40.8825 41.7424 42.1107 43.7226C41.1248 44.625 40.072 45.4438 38.9441 46.1623Z" fill="#407BFF"/>
<path d="M39.0021 46.5216C38.9352 46.4381 38.8684 46.3461 38.8015 46.2542C37.9242 46.8307 37.0135 47.3404 36.061 47.7916C32.861 49.3122 29.2766 50.1645 25.5085 50.1645C17.9972 50.1645 11.2545 46.789 6.73438 41.4834C7.16049 41.3832 7.59496 41.2913 8.02943 41.2077C8.0712 41.1994 8.12133 41.191 8.16311 41.1826C8.24666 41.1659 8.33021 41.1492 8.42212 41.1325C9.55007 40.9153 10.7031 40.7231 11.8561 40.556C11.8561 40.5477 11.8728 40.5477 11.8812 40.5477C12.3825 40.4725 12.8921 40.4056 13.3935 40.3388C14.0619 40.2469 14.7303 40.1717 15.3903 40.0965C15.4405 40.0965 15.499 40.0798 15.5491 40.0798C17.0781 39.9043 18.6071 39.7623 20.0943 39.6536C20.5873 39.6202 21.0719 39.5868 21.5481 39.5617H21.5565C22.1831 39.52 22.8014 39.4782 23.4113 39.4448C24.0212 39.4113 24.6312 39.3863 25.216 39.3612C25.4583 39.3529 25.7006 39.3445 25.9429 39.3362C26.6698 39.3111 27.3717 39.2944 28.0401 39.2777C30.2375 39.2275 32.1675 39.2275 33.7049 39.2442C34.0642 39.2526 34.4067 39.2526 34.7242 39.261C35.3007 39.2693 35.7937 39.286 36.1947 39.3027C37.0135 39.3194 37.4647 39.3445 37.4647 39.3445C37.565 39.7121 37.6652 40.0965 37.7571 40.4892C38.1833 42.2103 38.576 44.1153 38.9436 46.1623C38.9686 46.2877 38.9854 46.4046 39.0021 46.5216Z" fill="#006D2C"/>
<path opacity="0.2" d="M39.0021 46.5216C38.9352 46.438 38.8684 46.3461 38.8016 46.2542C37.9243 46.8307 37.0135 47.3404 36.0611 47.7916C32.861 49.3122 29.2767 50.1644 25.5085 50.1644C17.9972 50.1644 11.2545 46.789 6.73439 41.4834C6.53386 41.5252 6.33334 41.567 6.13281 41.6087C6.32498 41.567 6.52551 41.5168 6.72603 41.4751C7.1605 41.3832 7.59497 41.2912 8.02944 41.2077C8.07121 41.1993 8.12134 41.191 8.16312 41.1826C8.24667 41.1659 8.33022 41.1492 8.42213 41.1325C9.55008 40.9153 10.7031 40.7231 11.8561 40.556C11.8561 40.5476 11.8728 40.5476 11.8812 40.5476C12.3825 40.4724 12.8922 40.4056 13.3935 40.3388C14.0619 40.2468 14.7303 40.1717 15.3903 40.0965C15.4405 40.0965 15.499 40.0797 15.5491 40.0797C17.0781 39.9043 18.6071 39.7622 20.0943 39.6536C20.5789 39.6202 21.0635 39.5868 21.5398 39.5534C22.1748 39.5116 22.793 39.4782 23.4113 39.4448C24.0212 39.4113 24.6312 39.3863 25.216 39.3612C25.4583 39.3528 25.7006 39.3445 25.9429 39.3361C26.6615 39.3111 27.3633 39.286 28.0317 39.2693C30.2375 39.2275 32.1675 39.2275 33.7049 39.2359C34.0725 39.2359 34.4067 39.2359 34.7242 39.2526C35.2924 39.2526 35.777 39.2776 36.178 39.286C37.0052 39.3111 37.4647 39.3361 37.4647 39.3361C37.565 39.7121 37.6652 40.0965 37.7572 40.4891C38.1833 42.2103 38.576 44.1153 38.9436 46.1623C38.9687 46.2876 38.9854 46.4046 39.0021 46.5216Z" fill="black"/>
<path d="M15.3486 40.063C18.0641 42.5278 24.7064 41.6171 24.7064 41.6171C24.7064 41.6171 28.8506 40.4808 27.9817 39.1857C25.5419 38.7847 24.3555 37.64 23.8626 36.1862C23.5785 35.334 23.5367 34.3815 23.6119 33.3956C23.6453 32.8776 23.7289 32.3512 23.8208 31.8415L15.6076 25.759C16.6855 29.7778 18.0056 37.1638 15.3486 40.0714V40.063Z" fill="#EBB376"/>
<path opacity="0.2" d="M17.5123 29.6191C17.8381 34.5486 21.8904 35.9105 23.8706 36.1862C23.5865 35.334 23.5447 34.3815 23.6199 33.3956L17.5039 29.6191H17.5123Z" fill="black"/>
<path d="M31.6826 14.0367C31.6826 14.0367 32.8524 21.7067 28.775 24.6561C24.7061 27.6055 24.7061 13.3265 24.7061 13.3265L31.6826 14.0367Z" fill="#263238"/>
<path d="M16.9527 30.7638C18.9245 33.6045 22.1496 34.3481 24.9486 33.4625C26.7449 32.8943 28.3659 31.6494 29.3768 29.8614C29.5105 29.6275 29.6358 29.3768 29.7445 29.1262C31.7497 24.4389 32.3847 16.2341 27.4301 13.1594C23.9125 10.9453 19.2504 11.998 17.0362 15.5239C16.4012 16.5265 16.0169 17.6629 15.8999 18.8493C15.29 24.3303 14.6717 27.522 16.9527 30.7721V30.7638Z" fill="#EBB376"/>
<path d="M23.8952 21.7736C23.7865 22.208 23.9871 22.6091 24.2795 22.6592C24.5719 22.7093 24.8644 22.3835 24.9396 21.949C25.0148 21.5062 24.8393 21.1051 24.5552 21.0634C24.2711 21.0132 23.9704 21.3307 23.8952 21.7736Z" fill="#263238"/>
<path d="M28.8915 22.6258C28.7829 23.0603 28.9918 23.4697 29.2759 23.5114C29.5599 23.5616 29.8607 23.2357 29.9359 22.8012C30.0111 22.3584 29.8357 21.9574 29.5516 21.9156C29.2675 21.8655 28.9584 22.208 28.8915 22.6258Z" fill="#263238"/>
<path d="M27.2708 22.5673C27.5633 24.0128 28.0646 25.4081 28.7414 26.7115C28.0479 27.0457 27.2458 27.0624 26.5439 26.7449L27.2708 22.559V22.5673Z" fill="#D58745"/>
<path d="M22.6177 19.8853C22.7096 19.9187 22.8182 19.8853 22.885 19.8268C23.3613 19.3589 24.038 19.1417 24.6981 19.2419C24.8401 19.2753 24.9822 19.1918 25.0156 19.0498C25.049 18.9077 24.9655 18.7657 24.8234 18.7323C23.9879 18.5819 23.1357 18.8492 22.5258 19.4425C22.4171 19.5344 22.4088 19.7015 22.5007 19.8101C22.5341 19.8351 22.5675 19.8602 22.6093 19.8769L22.6177 19.8853Z" fill="#263238"/>
<path d="M31.3402 21.2639C31.3819 21.289 31.4404 21.3057 31.4906 21.2974C31.6326 21.2556 31.7161 21.1135 31.6744 20.9715C31.4571 20.1527 30.8472 19.4843 30.0535 19.1919C29.9114 19.1501 29.7694 19.2253 29.7276 19.3673C29.6858 19.5093 29.7694 19.6514 29.9031 19.6932C30.5297 19.9438 30.9976 20.4702 31.1647 21.1219C31.1981 21.1887 31.265 21.2389 31.3402 21.2639Z" fill="#263238"/>
<path d="M21.0467 12.7416V15.1897C20.2028 15.5156 19.6179 16.3511 19.8686 17.3453C20.4033 19.4676 18.866 22.4754 17.1532 23.5449C17.1532 23.5449 17.2116 22.6592 16.443 22.7762C15.6743 22.8932 15.3234 27.4969 16.5014 29.8614C16.5014 29.8614 14.5547 27.6222 13.903 22.6592C13.3014 18.0722 13.6106 14.3542 14.7385 12.7416H21.0467Z" fill="#263238"/>
<path d="M12.7669 22.8932C13.1596 24.23 14.062 25.3496 15.2818 26.018C16.9027 26.8869 18.1142 25.5334 18.0056 23.7955C17.897 22.2498 16.9278 19.8853 15.1398 19.7516C13.3434 19.6179 12.3074 21.2556 12.7669 22.9015V22.8932Z" fill="#EBB376"/>
<path d="M21.0465 15.1897C21.0465 15.1897 22.634 16.7688 24.1797 15.6158C24.1797 15.6158 25.9259 17.0696 27.3546 16.0419C27.3546 16.0419 28.1317 17.362 29.4184 17.5208C30.7051 17.6795 30.7051 16.3594 30.7051 16.3594C30.7051 16.3594 32.727 17.5208 33.4706 16.9777C34.2142 16.4346 33.0612 14.2623 33.0612 14.2623C33.0612 14.2623 34.0137 13.7526 33.4038 12.0064C32.7939 10.2601 29.9698 10.6695 29.9698 10.6695C29.9698 10.6695 30.0784 9.04028 28.1066 7.34418C26.1348 5.64808 24.9651 7.75359 24.9651 7.75359C24.9651 7.75359 23.0601 5.17184 20.6956 5.5144C18.3311 5.85696 18.6068 7.48622 18.6068 7.48622C18.6068 7.48622 15.8913 5.79012 14.6715 7.48622C13.4516 9.18232 14.6715 10.0011 14.6715 10.0011C14.6715 10.0011 11.9561 10.9118 12.0897 12.7667C12.2234 14.6215 13.6187 14.3458 13.6187 14.3458C13.6187 14.3458 12.8334 15.2315 14.6046 15.9751C16.3759 16.7187 18.0303 14.8889 18.0303 14.8889C18.0303 14.8889 17.3451 15.9417 18.6151 16.6519C19.8851 17.362 21.0632 15.2064 21.0632 15.2064L21.0465 15.1897Z" fill="#263238"/>
<path d="M26.4273 28.3993C25.7923 28.934 24.8816 30.0619 24.8816 30.0619C24.7646 29.9951 24.6476 29.9366 24.5306 29.8614C22.9682 28.9507 22.5338 28.0149 22.5421 27.2462C22.5421 26.8285 22.6841 26.4609 22.8262 26.1768C22.9933 25.8509 23.1855 25.6588 23.1855 25.6588C23.7285 26.6363 25.1239 27.5972 25.8925 28.0734C26.21 28.2823 26.4189 28.3909 26.4189 28.3909L26.4273 28.3993Z" fill="#263238"/>
<path d="M25.9013 28.0818L25.4334 28.558C23.9629 27.6974 23.0355 26.8953 22.835 26.1851C23.0021 25.8593 23.1942 25.6671 23.1942 25.6671C23.7373 26.6447 25.1326 27.6055 25.9013 28.0818Z" fill="white"/>
<path d="M24.5394 29.8614C22.977 28.9507 22.5425 28.0149 22.5509 27.2462C23.0689 27.5721 23.6621 28.0316 24.0883 28.5998C24.4141 29.0342 24.5227 29.4687 24.5394 29.8614Z" fill="#DE5753"/>
<path d="M24.7064 41.6171C24.7064 41.6171 15.1231 35.1084 12.0734 34.7408C9.02377 34.3732 9.56686 38.1831 9.56686 38.1831C9.56686 38.1831 7.2107 38.1831 8.12142 41.0824C9.02377 43.9816 22.0411 45.5775 26.8537 44.1487C31.6663 42.7116 34.5238 40.0213 33.73 37.473C32.9363 34.9246 30.7138 37.1053 30.7138 37.1053C30.7138 37.1053 29.4188 34.7074 27.5556 35.2672C25.6924 35.827 24.7148 41.6255 24.7148 41.6255L24.7064 41.6171Z" fill="#006D2C"/>
<path d="M45.0424 40.531C44.1651 41.6756 43.1876 42.7451 42.1097 43.7227C41.1238 44.625 40.0711 45.4438 38.9431 46.1624C38.9682 46.2877 38.9849 46.4047 39.0016 46.5216C38.9348 46.4381 38.8679 46.3462 38.8011 46.2543C38.1661 45.402 37.4308 44.366 36.7374 43.2882C35.8684 41.9012 35.0747 40.4558 34.7238 39.261C34.6068 38.8766 34.5399 38.5341 34.5232 38.2166L33.7295 37.1137L33.9885 36.8129L36.094 34.3398L36.5535 33.8051L37.4559 34.9831C37.4559 34.9831 38.6173 34.5654 42.3353 37.7654C43.2878 38.5842 44.257 39.6203 45.0424 40.531Z" fill="#006D2C"/>
</g>
<defs>
<clipPath id="clip0_62_1212">
<rect width="51" height="51" fill="white"/>
</clipPath>
</defs>
</svg>
