<svg width="173" height="18" viewBox="0 0 173 18" fill="none" xmlns="http://www.w3.org/2000/svg">
<g clip-path="url(#clip0_62_1161)">
<path d="M172.39 18C172.517 17.9212 172.568 17.5273 172.314 17.4485L171.983 17.9212L172.39 18Z" fill="#004AAD"/>
<path d="M171.17 15.8731C170.814 15.9913 170.356 16.267 170.382 16.9366C170.814 16.5427 170.814 16.8184 171.297 16.3458C171.551 16.4245 171.653 16.8184 171.551 17.0153C171.678 16.9366 171.882 17.3698 172.111 17.0941C171.933 16.4245 171.577 16.1488 171.068 16.267C171.017 16.07 171.145 15.9913 171.195 15.8731H171.17Z" fill="#004AAD"/>
<path d="M147.577 4.56891L147.731 4.68707C147.731 4.68707 147.628 4.6083 147.577 4.56891Z" fill="#004AAD"/>
<path d="M132.299 1.92999C132.299 1.92999 132.477 1.85122 132.477 1.81183C132.375 1.81183 132.273 1.8906 132.299 1.92999Z" fill="#004AAD"/>
<path d="M129.705 1.02408C129.705 1.02408 129.807 1.02408 129.858 1.06347C129.807 0.984692 129.731 0.945304 129.705 1.02408Z" fill="#004AAD"/>
<path d="M147.577 4.56892L147.196 4.29321C147.145 4.49015 147.399 4.49015 147.577 4.56892Z" fill="#004AAD"/>
<path d="M154.314 5.98685H154.442C154.442 5.98685 154.543 5.90808 154.569 5.78992L154.314 5.98685Z" fill="#004AAD"/>
<path d="M159.399 7.79871C159.399 7.79871 159.145 8.23197 159.068 8.46829C159.17 8.27135 159.272 8.19258 159.373 8.19258C159.373 8.07442 159.399 7.95626 159.373 7.79871H159.399Z" fill="#004AAD"/>
<path d="M5.8723 7.12913V7.05035C5.84673 7.08974 5.82116 7.12913 5.8723 7.12913Z" fill="#004AAD"/>
<path d="M0.126953 3.19034H0.229231L0.28037 2.87524L0.126953 3.19034Z" fill="#004AAD"/>
<path d="M80.9964 3.93872C81.5049 4.37198 80.2083 4.64769 80.9964 5.12034C80.9201 4.9234 81.632 4.21443 80.9964 3.93872Z" fill="#004AAD"/>
<path d="M167.534 15.1641L167.331 15.046C167.331 15.046 167.484 15.1641 167.534 15.1641Z" fill="#004AAD"/>
<path d="M80.9707 5.15973L81.0474 5.19912C81.0218 5.19912 80.9963 5.19912 80.9707 5.15973Z" fill="#004AAD"/>
<path d="M113.816 0.827148C113.816 0.827148 113.893 0.984698 113.944 1.06347C113.944 1.02409 113.919 0.94531 113.816 0.827148Z" fill="#004AAD"/>
<path d="M122.078 1.33915L121.875 1.26038C121.875 1.26038 122.028 1.33915 122.078 1.33915Z" fill="#004AAD"/>
<path d="M109.571 1.92996C109.571 1.92996 109.418 1.8118 109.266 1.92996L109.316 2.00873C109.316 2.00873 109.444 1.89057 109.571 1.96935V1.92996Z" fill="#004AAD"/>
<path d="M105.147 2.28448L105.224 2.40265L105.351 2.36326L105.147 2.28448Z" fill="#004AAD"/>
<path d="M19.3717 8.90156C19.3717 8.90156 19.2192 8.54708 19.1937 8.38953C19.2446 8.7834 18.5836 8.86217 19.3717 8.90156Z" fill="#004AAD"/>
<path d="M167.712 15.046C167.712 15.046 167.61 15.2035 167.534 15.2035H167.687C167.687 15.2035 167.738 15.1247 167.712 15.046Z" fill="#004AAD"/>
<path d="M51.2784 10.2407L51.125 10.3195C51.125 10.3195 51.2528 10.3195 51.2784 10.2407Z" fill="#004AAD"/>
<path d="M106.749 6.4989C106.622 6.30196 106.469 6.22318 106.342 6.14441C106.316 6.1838 106.291 6.22318 106.266 6.30196L106.749 6.4989Z" fill="#004AAD"/>
<path d="M14.4654 9.09848C15.1264 9.21665 14.8213 8.4289 14.9992 8.03503C15.8128 7.95625 15.3297 8.62584 15.584 9.01971C16.0924 8.90155 16.5246 8.27135 16.8805 8.35013C16.8805 8.46829 16.9822 8.50768 16.8805 8.66523C17.4398 8.15319 18.4567 8.82277 19.1177 8.15319C19.1685 8.23196 19.1685 8.27135 19.194 8.35013C19.1177 7.95625 19.1177 7.60177 19.1431 7.32606C19.4482 7.32606 19.7278 6.93218 19.8041 7.40483C19.6261 7.40483 19.6007 7.56238 19.499 7.68054L19.8295 7.52299C20.0837 8.23196 19.3973 7.71993 19.3719 8.23196C20.0075 8.07441 20.7447 7.60177 21.2023 7.83809C21.2786 8.50768 20.0837 7.95625 20.6939 8.58645L19.9821 8.23196C20.4905 9.33481 19.5499 8.1138 19.9821 9.29542C20.9481 9.61052 21.0752 9.0591 22.0159 9.3742C22.2447 9.01971 21.965 8.82277 22.1938 8.46829C23.592 7.91687 23.2107 10.2407 24.2276 9.45297C24.5073 9.01971 24.6344 8.19258 25.3208 8.70461L25.0411 9.45297C25.9818 9.61052 25.6004 8.4289 26.5665 9.01971C26.3885 9.29542 25.8292 9.21665 25.9563 9.29542C26.5665 9.965 26.4139 8.90155 26.897 8.94094L26.9732 9.61052C27.9647 9.61052 29.0833 9.17726 30.1765 9.13787C30.1002 9.33481 29.9222 9.53174 30.1765 9.76807C31.5747 9.49236 33.1255 10.0438 34.4729 10.477L35.0067 9.92562C35.0067 9.92562 35.2101 10.2013 35.083 10.3195C35.5915 10.5558 35.1084 9.96501 35.3627 9.72868C35.6677 9.72868 35.744 10.0832 35.566 10.2407C36.5067 9.76807 38.21 9.29542 39.1506 9.92562L38.9726 10.0832C39.7353 10.3589 39.837 8.90155 40.5234 9.45297L40.3963 9.57113C42.0233 9.84684 43.8283 9.33481 45.074 10.2407C45.3028 9.41358 46.7011 10.5952 46.8028 9.45297C47.7434 10.0044 47.4638 10.2407 48.7857 10.5952C49.1416 10.6346 49.2942 9.88623 49.7518 9.72868V10.3195L50.3619 9.68929L50.6924 10.3983L51.0992 10.2407C50.9466 10.2407 50.7433 9.96501 50.7687 9.80746C51.4042 9.53174 52.3195 10.2013 52.3449 10.5164L53.8448 9.965C53.8194 10.2013 53.5652 10.3195 53.3618 10.477C54.1499 9.84684 53.5143 11.1072 54.2516 10.5164C54.1499 10.3983 54.3024 10.1619 54.3278 10.0438C54.7092 10.3983 55.5227 10.3983 56.1582 10.2013L56.0566 10.6346C57.1751 10.7134 58.3954 10.3589 59.6665 10.2801C59.2089 10.1226 59.3106 9.3742 59.6665 9.29542L59.8191 9.92562C60.0479 9.53174 59.4377 9.68929 59.9208 9.17726C60.3784 9.21665 60.2513 9.88623 59.9716 10.1226L60.5309 9.88623C60.5309 9.88623 60.4292 10.2013 60.4038 10.4377C60.6326 10.0438 61.3953 11.0285 61.7258 10.3195V10.5164C63.0223 10.477 63.5816 10.2013 64.5985 10.1226C64.5985 9.57113 65.0053 9.64991 65.3103 9.21665C66.073 9.33481 66.912 9.72868 67.8018 9.64991C68.4373 9.33481 67.9797 9.17726 68.2594 8.82277C68.3102 9.33481 69.2254 9.21665 68.7678 9.61052C69.8355 9.45297 70.1406 9.41358 71.5134 8.90155C71.3609 8.70461 71.1829 8.62584 71.2592 8.46829C71.5134 8.35013 71.8185 8.62584 71.7931 8.90155H71.7168C73.2167 8.1138 75.3014 10.1619 76.4962 9.01971H76.42L77.6657 8.4289C78.2504 8.46829 77.3352 8.82277 77.7674 9.09848C79.1148 8.15319 79.9283 9.01971 81.0469 8.38951C81.9621 9.80746 84.1484 7.99564 85.3433 8.82277L85.267 8.46829C85.5466 8.1138 85.6483 8.62584 85.8771 8.70461C85.8263 8.4289 85.5466 8.4289 85.7246 8.23196C88.2923 7.56238 91.0633 8.23196 93.7073 8.23196C94.6733 8.23196 94.1649 6.38076 95.436 7.08973L95.1309 7.75932C97.0376 6.77463 99.0968 7.36544 100.978 6.53831C100.876 6.69586 100.876 6.8928 100.698 6.8928C101.131 7.32606 102.173 6.77463 102.173 6.38076C102.478 6.38076 102.249 6.73525 102.453 6.8928C102.859 7.12912 103.444 6.18382 103.673 6.65647C103.724 6.73525 103.571 6.81402 103.495 6.85341C103.749 6.61708 104.715 6.81402 104.436 6.2626C105.147 6.45954 105.783 5.90811 106.368 6.18382C106.724 5.55363 107.588 6.38076 107.69 5.51424C107.69 6.42015 108.961 6.10505 109.393 5.67179C109.24 5.9475 109.8 5.90811 109.622 6.30199C110.13 6.2626 110.613 6.06566 110.486 5.59301C111.452 6.5777 112.367 4.60833 112.927 5.9475C114.452 5.35669 115.85 4.96282 117.223 4.72649C117.198 5.59301 115.698 4.88404 115.774 5.82934C117.071 5.39608 117.808 4.60833 119.104 4.76588C119.435 4.88404 118.926 5.15975 118.799 5.3173C120.096 4.92343 121.316 5.3173 122.46 4.84466C122.46 4.92343 122.333 5.0022 122.206 5.08098C122.435 5.08098 122.74 5.19914 122.714 4.80527L122.486 4.92343C122.13 4.33262 123.401 3.70242 123.426 3.38733C123.045 4.52956 124.57 3.66304 123.96 5.12037C124.113 5.04159 124.291 4.84466 124.265 4.56894C124.494 4.64772 124.57 4.80527 124.341 5.12037C125.155 4.92343 124.875 4.49017 125.612 4.49017C125.612 4.68711 125.46 4.76588 125.384 5.0022C125.765 4.60833 126.146 4.25385 126.756 4.4114C126.706 4.52956 126.782 4.68711 126.604 4.68711C127.672 4.68711 128.46 3.74181 129.629 4.13568C129.273 4.96282 130.036 4.45078 130.061 5.15975L130.697 4.96282L130.443 4.60833C131.002 4.64772 131.51 4.13568 131.968 4.4114L131.536 4.68711L132.578 4.60833L131.993 4.29323C132.578 3.97814 131.968 3.34794 132.705 3.62365C132.553 3.70242 133.265 3.66304 133.544 4.13568C133.824 3.93875 134.129 3.70242 134.536 3.89936C134.637 4.13568 134.409 4.68711 134.485 4.88404C134.79 4.29323 135.781 4.88404 136.163 4.21446C136.036 4.37201 136.01 4.72649 136.061 4.80527L136.315 4.33262C136.57 4.52956 136.595 4.60833 136.544 4.88404C137.307 5.04159 136.341 3.93875 137.231 4.4114C137.154 4.4114 137.18 4.52956 137.027 4.56894C137.942 4.88404 138.832 4.49017 139.646 4.84466C139.849 5.6324 138.908 4.92343 139.137 5.59301C140.358 5.59301 141.705 5.08098 142.874 5.47485L142.671 5.35669C142.925 4.33262 143.51 6.02628 144.145 5.67179C143.993 5.71118 143.917 6.22321 143.967 6.10505C144.756 6.42015 145.62 6.18382 146.866 6.10505L146.688 6.34137C147.145 6.69586 147.908 6.77463 148.416 7.01096C148.594 6.77463 148.874 6.8928 148.747 6.45954C150.145 8.35013 151.823 6.45954 153.069 8.15319C152.916 8.1138 152.637 8.23196 152.789 8.31074L153.984 8.46829C153.959 7.99564 153.857 8.15319 153.679 7.71993C153.857 7.52299 154.238 7.40483 154.518 7.52299C153.933 7.64115 154.416 8.23196 154.62 8.54706C154.62 8.38951 154.696 8.27135 154.696 8.1138C155.204 9.09848 154.925 7.24728 155.687 8.1138L155.611 8.31074C155.941 8.31074 156.272 8.1138 156.602 8.31074C156.653 8.86216 156.221 8.4289 156.145 8.82277C156.628 8.98032 157.238 8.19258 157.569 8.86216C157.34 8.94094 157.06 8.82277 156.831 8.86216C157.213 9.64991 157.289 9.49236 157.619 9.72868H157.594L158.331 10.2801L158.153 10.0438C158.967 8.98032 159.399 10.3195 160.34 9.76807C159.424 10.2801 160.136 10.2013 159.958 10.7528C160.136 10.9891 160.39 11.3042 160.289 11.4223C160.746 11.1466 160.823 12.0919 161.484 11.6587C161.484 11.8556 161.865 11.8556 161.712 12.2889C162.221 12.3676 161.662 11.9344 161.738 11.698C162.602 11.3829 163.314 13.3129 164.534 12.9978C165.526 13.116 165.831 12.604 166.746 12.8009C166.949 13.2342 166.365 13.3129 166.365 13.3129C166.771 13.825 167.102 13.9825 167.585 14.0219C167.458 14.1401 167.509 14.2976 167.585 14.5733C167.941 14.7309 167.966 14.0613 168.348 14.5733C168.221 14.7309 168.043 14.9672 167.839 15.0854C168.271 15.1641 168.754 15.0854 169.212 15.1641C169.237 15.558 168.831 15.4792 168.653 15.5974C169.161 15.7549 169.924 16.07 170.204 15.6762L169.949 15.3217C170.127 15.4005 169.949 15.7943 169.771 15.7943C169.263 15.9125 169.237 15.2823 169.263 15.0854L169.593 15.1641C169.568 13.9431 168.348 14.5733 167.788 14.1794L168.221 13.5886L167.458 13.8643C167.382 13.5886 167.382 13.116 167.712 13.1554C167.356 12.5252 167.255 13.1948 166.975 12.5646C166.949 12.4858 166.975 12.4464 167.026 12.4464H166.543C166.543 12.4464 166.594 11.8556 166.848 12.0919C166.187 11.2254 165.475 11.9738 165.322 11.2254H165.399C164.255 10.9103 165.17 11.7374 164.229 11.9738L164 10.2801L163.772 10.7921C163.772 10.7921 163.467 10.5558 163.543 10.3589C163.06 10.5558 163.543 10.6346 163.238 10.9103C162.806 10.1226 161.712 10.477 161.763 9.49236C161.484 9.84684 162.221 10.0832 161.585 10.1226C161.611 9.0591 160.899 9.965 160.492 9.29542C160.746 8.86216 161.153 9.33481 160.746 8.66523C160.289 9.41358 159.806 8.07441 159.374 8.03503C159.221 8.744 158.407 7.91687 157.67 7.87748C157.746 7.68054 156.399 7.01096 155.789 6.49892V6.38076C155.586 7.01096 154.925 6.65647 154.416 6.65647C154.492 6.22321 154.62 6.10505 154.899 5.98689L154.442 5.82934C154.289 6.02628 154.136 6.10505 153.831 6.06566L154.009 5.59301C153.374 5.39608 152.662 5.78995 151.899 5.19914C151.798 5.67179 152.357 6.77463 151.467 6.85341C151.467 6.5777 151.493 6.10505 151.721 6.06566C151.645 6.06566 151.442 6.22321 151.315 6.06566L151.721 5.71118C151.391 5.39608 151.493 6.02628 151.187 5.90811C151.238 5.51424 151.01 5.55363 151.086 5.27792C151.162 5.27792 151.315 5.51424 151.442 5.39608C151.111 5.23853 150.755 4.88404 150.654 4.56894C150.654 4.80527 150.603 5.08098 150.349 5.08098C149.713 4.96282 150.196 4.56894 149.84 4.25385C149.662 4.49017 149.281 4.0963 149.205 4.68711C149.027 4.64772 149.027 4.37201 148.95 4.17507C148.594 4.33262 147.425 3.85997 147.73 4.56894L147.806 4.64772H147.755C146.637 5.0022 145.569 3.7812 144.476 3.85997V3.66304C143.84 3.74181 143.078 3.50549 142.595 3.85997C142.417 3.85997 142.188 3.42671 142.264 3.22978C141.756 3.30855 141.705 3.50549 141.018 3.07223C141.527 2.79652 140.866 2.75713 141.527 2.91468C140.917 2.63897 140.79 2.32387 140.078 2.71774C140.332 2.24509 139.646 2.00877 139.341 2.12693L139.773 2.56019C139.442 2.56019 139.137 2.52081 138.832 2.40264L139.036 1.77245C137.764 0.787763 136.62 2.8359 135.705 1.37857C135.349 1.81183 136.392 1.77245 136.061 2.28448C135.476 2.12693 134.892 1.14225 134.688 1.10286C133.875 0.669602 133.9 2.00877 133.036 1.69367C133.138 1.93 133.214 2.56019 132.578 2.71774C131.994 2.59958 131.866 1.69367 132.248 1.53612C132.4 1.53612 132.451 1.6149 132.451 1.69367C132.654 1.6149 132.909 1.53612 132.68 1.26041L132.604 1.49673C132.324 1.22102 131.485 1.22102 131.688 0.827151C131.231 1.02409 131.485 1.18164 131.816 1.33919C131.053 0.945313 130.621 1.26041 129.833 0.9847C129.96 1.10286 130.061 1.41796 129.934 1.37857C128.79 1.02409 129.426 1.81183 128.638 1.85122C128.206 1.49673 128.816 1.02409 128.028 1.26041C127.545 0.9847 127.926 0.630214 128.129 0.472665C127.392 0.905926 126.782 0.118179 126.375 0.0394048L126.756 -0.157532C126.528 -0.0393698 126.35 -0.0393698 126.146 -0.0393698L126.35 0.433278C126.121 0.354503 125.943 0.354503 125.943 0.157567C125.714 0.472665 126.121 0.945313 125.663 1.33919C125.358 1.10286 124.748 1.57551 124.646 0.945313C125.587 1.18164 124.545 0.315116 125.333 0.236341C125.18 0.315116 125.002 0.315116 124.774 0.236341C124.748 0.157567 124.799 0.118179 124.875 0.0787921C123.985 -0.47263 124.468 0.787764 123.528 0.748376C123.655 0.393891 123.324 0.0787921 123.172 0.157567C123.553 0.157567 123.35 0.748376 123.019 1.02409C122.435 0.748376 122.384 1.22102 122.053 1.18164L122.409 1.2998C122.282 1.65428 122.002 1.6149 121.57 1.73306C121.545 1.45735 121.952 1.53612 121.799 1.41796C121.341 2.04816 120.757 0.787764 120.121 1.22102C119.816 0.9847 120.096 0.55144 119.816 0.393891C119.104 0.866538 119.028 -0.0787571 118.291 0.354503C118.52 0.827151 118.545 0.708989 118.037 1.18164L119.282 0.827151L118.494 1.53612C118.876 1.53612 119.282 1.22102 119.511 1.2998C119.13 1.69367 119.181 1.57551 119.359 1.96938C118.85 1.26041 118.342 2.40264 117.757 1.96938V0.905926C116.867 0.433278 116.181 1.57551 115.037 1.33919L115.418 1.53612C115.266 2.00877 114.706 1.65428 114.35 1.85122C114.376 1.45735 114.147 1.33919 113.969 1.10286C113.994 1.37857 113.13 1.10286 113.028 1.93L112.494 1.45735C111.554 1.2998 111.452 2.63897 110.562 2.56019C110.817 2.12693 110.41 1.89061 110.995 1.53612C110.689 1.53612 110.435 1.53612 110.435 1.77245C110.257 1.53612 109.622 2.36326 109.342 2.00877C109.215 2.20571 109.19 2.59958 108.859 2.59958C108.808 2.52081 108.859 2.40264 108.859 2.40264C108.859 2.59958 108.351 2.71774 108.656 3.11161C107.69 1.96938 106.088 3.42671 105.249 2.44203C104.614 2.63897 103.825 2.8359 103.241 2.91468C103.266 2.79652 103.241 2.71774 103.342 2.75713C102.503 2.48142 102.885 3.93875 101.944 3.62365C101.436 3.03284 102.427 3.22978 102.122 3.03284C101.944 1.77245 101.004 3.30855 100.368 2.63897L100.52 2.56019C100.037 2.16632 99.3765 3.151 98.5884 3.151C98.5884 3.151 98.6138 3.03284 98.5884 2.95407C98.0799 3.66304 97.0884 3.97814 96.3512 4.25385C96.5546 3.74181 96.6817 3.93875 96.5037 3.4661C96.1732 3.58426 96.6308 4.25385 95.9699 4.49017C95.7411 4.25385 95.258 4.05691 95.1563 3.50549L95.7919 3.42671C95.436 2.75713 94.9784 3.54487 94.6479 3.42671V3.11161C93.7073 3.30855 93.7327 4.0963 92.6904 4.13568L92.8175 4.37201C92.2836 5.19914 92.3344 3.97814 91.7751 4.60833L91.5718 3.85997C91.2159 4.0963 90.3006 4.76588 89.6142 4.96282C89.9701 4.33262 90.7328 3.97814 91.2159 3.58426C90.8345 3.58426 89.9447 3.7812 89.7668 4.17507C89.9193 4.0963 90.0973 3.85997 90.2498 3.97814C89.8176 4.64772 89.2329 5.0022 88.4956 5.04159C88.5719 3.50549 86.5381 4.84466 85.9534 3.74181C84.6569 4.45078 83.3349 3.74181 81.8349 3.97814C82.4197 5.08098 81.4028 4.05691 81.5299 5.23853C81.174 5.35669 81.0469 5.35669 80.996 5.23853L79.9028 4.60833C79.6232 4.29323 80.2333 4.29323 80.1825 4.05691C79.3944 4.05691 79.8266 3.58426 79.3181 3.30855C79.4452 3.74181 79.0639 3.93875 78.6317 3.82059L79.2673 4.33262C78.1995 5.08098 78.3012 3.38733 77.2081 4.13568L77.5386 3.74181C76.9793 4.01752 75.4539 3.89936 74.9455 4.92343C74.8438 4.80527 74.6912 4.49017 74.9455 4.37201C73.5981 4.37201 71.9965 5.6324 70.9287 5.12037L71.0304 4.80527C70.7762 4.92343 70.5982 5.39608 70.2932 5.12037C70.2932 5.0022 70.3948 4.80527 70.2932 4.80527C70.166 4.92343 69.6322 5.35669 69.3017 5.23853L69.5813 4.88404C68.2594 4.60833 67.5984 5.82934 66.5052 6.10505C66.5052 5.23853 65.4375 5.0022 64.929 4.92343V4.80527C63.4291 4.80527 62.3613 5.67179 60.9631 6.06566C60.0733 5.15975 57.9887 5.78995 56.565 5.3173C56.7938 5.47485 56.5396 5.98689 56.2854 6.10505C55.9549 5.9475 55.3702 6.73525 55.421 5.9475H55.5481C55.2939 5.19914 54.6075 5.39608 54.0736 5.39608L53.9973 6.42015C52.5991 4.92343 50.3619 7.08973 49.5993 5.71118C49.2688 5.98689 48.862 5.98689 48.5315 6.22321V5.67179C47.6163 5.55363 47.1587 5.47485 46.0147 5.59301L46.2435 5.19914C45.6079 5.19914 45.43 6.81402 44.8198 6.85341L44.6419 6.02627C43.5233 6.02627 42.3793 5.27792 41.2607 6.02627C41.2607 5.90811 41.3115 5.67179 41.4895 5.6324C40.9556 5.6324 39.4303 5.04159 39.6336 6.18382C39.6336 5.43547 38.4642 6.06566 37.8541 6.38076L37.9557 5.82934C37.4219 6.49892 37.4219 6.69586 36.6846 6.85341C36.5067 6.77463 36.5321 6.42015 36.7609 6.53831C36.2016 6.22321 36.3033 7.05034 35.6169 6.73525L35.8711 6.38076C35.2864 6.30199 35.3372 6.49892 35.0067 6.8928C34.6254 7.08973 33.8882 6.73525 33.8119 6.22321C33.7356 6.53831 33.4051 6.8928 33.0492 6.73525C32.9984 6.53831 33.1255 6.42015 33.2017 6.38076C32.2357 5.9475 31.7272 6.93218 31.0663 6.38076C31.0663 6.18382 31.0154 6.10505 30.9646 6.06566C31.7272 6.14444 32.3628 6.18382 32.312 6.22321C32.312 5.71118 31.7018 5.59301 32.2103 4.92343C31.7018 5.27792 30.812 6.06566 30.2273 5.78995C30.2019 5.75056 30.1765 5.67179 30.151 5.59301H30.2273C30.1002 5.47485 29.9731 5.51424 29.846 5.59301C29.6426 5.51424 29.5409 5.43547 29.3375 5.39608C29.2867 4.96282 28.6257 5.12037 28.3206 5.08098C28.3206 5.6324 27.9139 5.51424 28.2952 5.98689C28.2444 5.9475 28.3461 5.90811 28.5749 5.90811C28.6257 5.90811 28.6765 5.90811 28.702 5.86873C28.9053 5.90811 29.185 5.90811 29.4901 5.90811C29.2358 6.18382 28.9816 6.38076 28.6257 6.06566C28.4477 6.42015 28.2698 6.77463 28.1681 6.93218C27.7613 6.10505 26.9478 5.6324 26.8461 5.15975C25.8801 5.39608 24.6089 5.15975 23.948 6.14444C23.6683 6.2626 23.6429 5.82934 23.5412 5.6324C23.6937 5.55363 23.8971 5.59301 23.9734 5.43547C23.4141 5.67179 22.3718 5.43547 22.1938 6.10505C21.5328 5.71118 22.6006 5.47485 21.6599 5.47485L21.7871 5.27792C20.0075 3.89936 18.7109 6.81402 16.728 5.04159C16.8551 5.15975 16.9314 5.19914 16.9568 5.3173C14.6688 4.29323 12.1265 5.3173 9.88933 3.82059C9.25377 3.50549 9.15208 3.93875 8.7199 4.21446L8.61821 3.58426L7.88095 4.13568C6.88948 4.45078 6.33018 2.40264 5.03364 3.11161L5.16075 3.54487C4.72857 3.38733 3.76251 3.50549 3.8642 3.03284C3.81336 3.11161 3.68624 3.42671 3.53371 3.19039V2.87529L2.41512 3.19039C1.6016 2.79652 2.64392 2.00877 1.44907 1.69367C0.991461 1.69367 0.0762515 2.32387 0.228786 2.56019C0.406744 2.59958 0.686391 2.8359 0.660969 3.151L0.228786 3.22978C0.0762515 4.13568 -0.330508 5.00221 0.635546 5.82934L1.39822 5.43547L1.57618 5.90811L0.966038 5.82934C1.27111 6.30199 1.52533 5.98689 1.77956 5.82934C1.80498 6.06566 1.90667 6.2626 2.03378 6.38076L2.79646 5.67179C2.8473 6.02628 2.41512 6.30199 2.87272 6.61708C3.22864 6.2626 2.6185 5.75056 3.20322 5.59301C3.50829 6.06566 3.38117 6.38076 3.81336 6.10505C3.83878 6.34137 3.76251 6.49892 3.58455 6.53831C3.96589 6.34137 4.52519 6.61708 4.75399 6.18382C5.05906 6.77463 5.97427 6.30199 5.87258 7.12912C5.99969 6.93218 6.55898 6.5777 6.88948 6.5777C6.20307 7.52299 8.10976 6.85341 7.88095 7.91687C8.3894 7.05034 9.50799 7.7987 10.3215 7.40483C10.2707 7.48361 10.169 7.60177 10.1181 7.56238C10.5503 7.71993 10.652 8.03503 10.9317 8.23196C11.0333 7.4836 11.7452 7.40483 12.1519 6.97157C12.635 7.7987 11.7706 7.83809 11.8977 8.54706C11.8977 7.91687 12.8892 8.07441 12.7366 7.52299C13.118 8.03503 13.0926 7.7987 13.2451 8.46829C13.3722 7.52299 13.6519 8.35013 14.0332 7.83809C14.5925 8.38951 14.1349 8.744 14.8213 8.54706C15.1264 8.90155 14.5162 9.13787 14.5162 9.13787L14.4654 9.09848ZM30.2527 9.01971C30.1256 9.01971 29.9985 9.01971 29.9222 9.01971C29.9985 9.01971 30.0748 9.01971 30.2527 9.01971ZM31.5747 9.09848C31.4222 9.09848 31.2188 9.0591 31.0154 9.0591C30.9646 8.86216 31.0154 8.66522 31.1679 8.70461C31.0917 8.82277 31.3967 8.94094 31.6001 9.13787L31.5747 9.09848ZM28.9053 5.08098C29.1087 5.0022 29.185 5.12037 29.2104 5.23853C29.1087 5.23853 29.007 5.23853 28.8545 5.27792V5.35669C28.8545 5.35669 28.8545 5.15975 28.9053 5.08098Z" fill="#004AAD"/>
<path d="M28.4981 5.78994C28.4981 5.78994 28.4473 5.78994 28.4219 5.78994C28.4727 5.82932 28.4981 5.86871 28.549 5.9081L28.6253 5.75055H28.5236L28.4981 5.78994Z" fill="#004AAD"/>
<path d="M147.756 4.68707H147.73C147.73 4.68707 147.782 4.68707 147.782 4.76585C147.782 4.76585 147.782 4.72646 147.782 4.68707H147.756Z" fill="#004AAD"/>
<path d="M49.8036 10.5164V10.3589L49.6758 10.5164H49.8036Z" fill="#004AAD"/>
<path d="M154.645 8.66522C154.645 8.66522 154.67 8.78338 154.721 8.82277C154.721 8.82277 154.696 8.70461 154.645 8.66522Z" fill="#004AAD"/>
<path d="M157.645 9.9256L158.026 10.2801C157.873 10.0831 157.746 10.0044 157.645 9.9256Z" fill="#004AAD"/>
<path d="M159.907 11.1466C159.907 11.1466 159.984 10.989 159.984 10.9496L159.907 11.1466Z" fill="#004AAD"/>
<path d="M122.257 5.04156C122.257 5.04156 122.181 5.04156 122.155 5.04156C121.927 5.15973 122.079 5.12034 122.257 5.04156Z" fill="#004AAD"/>
<path d="M133.621 4.13568C133.621 4.13568 133.366 4.33262 133.239 4.37201C133.443 4.41139 133.595 4.45078 133.621 4.13568Z" fill="#004AAD"/>
<path d="M109.623 6.30196V6.26257L109.521 6.30196H109.623Z" fill="#004AAD"/>
<path d="M132.705 4.29323C132.908 4.41139 133.061 4.41139 133.239 4.33261C133.086 4.29323 132.883 4.21445 132.705 4.29323Z" fill="#004AAD"/>
<path d="M169.619 16.582L169.721 16.6608C169.721 16.6608 169.721 16.6214 169.747 16.582H169.619Z" fill="#004AAD"/>
<path d="M169.746 16.6214H169.874C169.874 16.6214 169.772 16.5821 169.746 16.6214Z" fill="#004AAD"/>
<path d="M170.153 16.6608H169.873C169.873 16.6608 170.051 16.779 170.153 16.6608Z" fill="#004AAD"/>
<path d="M166.747 14.5733L166.67 14.7309C166.67 14.7309 166.721 14.6521 166.747 14.5733Z" fill="#004AAD"/>
<path d="M165.831 14.14C166.034 14.2976 166.263 14.849 166.594 14.8884L166.67 14.7702C166.467 14.9672 166.111 13.9431 165.831 14.14Z" fill="#004AAD"/>
<path d="M162.501 9.80746L163.264 10.3195C163.162 10.0438 163.035 9.68929 163.416 9.80746C162.552 8.744 163.518 10.3589 162.526 9.80746H162.501Z" fill="#004AAD"/>
<path d="M160.111 8.38948C160.543 8.46825 160.162 8.07438 160.213 7.99561C159.908 8.07438 159.831 8.07438 160.111 8.38948Z" fill="#004AAD"/>
<path d="M142.138 3.11158L142.214 2.59955C141.882 2.59955 142.214 2.79648 142.138 3.11158Z" fill="#004AAD"/>
<path d="M138.502 5.15971L138.807 5.51419L138.985 5.08093L138.502 5.15971Z" fill="#004AAD"/>
<path d="M136.621 1.33915L136.773 1.26038L136.214 1.37854L136.621 1.33915Z" fill="#004AAD"/>
<path d="M105.91 1.73302L106.037 2.36322C106.266 2.24505 106.291 1.53608 105.91 1.73302Z" fill="#004AAD"/>
<path d="M92.7412 3.663C92.5887 3.38729 92.2073 3.19035 91.9785 3.54484C92.2836 3.54484 92.5887 3.78116 92.7412 3.663Z" fill="#004AAD"/>
<path d="M53.2601 5.47483L53.5143 5.27789L53.0312 5.43544L53.2601 5.47483Z" fill="#004AAD"/>
</g>
<defs>
<clipPath id="clip0_62_1161">
<rect width="173" height="18" fill="white"/>
</clipPath>
</defs>
</svg>
