<svg width="127" height="127" viewBox="0 0 127 127" fill="none" xmlns="http://www.w3.org/2000/svg">
<g filter="url(#filter0_d_318_7)">
<rect width="90.3306" height="90.3306" rx="4" transform="matrix(-0.998165 -0.0605606 -0.0605606 0.998165 110.11 20.0175)" fill="white"/>
</g>
<g clip-path="url(#clip0_318_7)">
<path d="M84.5135 77.4973L84.5126 77.4986C83.4039 78.9892 82.123 80.345 80.7077 81.5282L80.7076 81.5281L80.7004 81.5344C79.4434 82.6268 78.0582 83.5854 76.5746 84.3946L76.5715 84.3963C73.0032 86.3754 68.8797 87.5076 64.5 87.5076C60.8177 87.5076 57.309 86.7053 54.1606 85.266L54.1517 85.2619L54.1425 85.2582C53.8637 85.1438 53.5805 85.0061 53.2984 84.8576L53.1891 84.8001H53.1761C51.4549 83.9325 49.8413 82.8566 48.3783 81.6215L48.3771 81.6205C46.1429 79.7462 44.239 77.4748 42.7928 74.9196L42.792 74.9181C40.6996 71.2508 39.5 67.0221 39.5 62.5076C39.5 48.6953 50.6953 37.5 64.5076 37.5C78.3196 37.5 89.5 48.6949 89.5 62.5076C89.5 68.1244 87.6406 73.3204 84.5135 77.4973Z" fill="white" stroke="#191A1D"/>
<path d="M48.0635 74.0721L50.4499 64.1521C50.4499 64.1521 51.9642 62.9436 52.0637 62.064C52.1555 61.1845 51.1306 55.9911 50.4728 55.6776C49.815 55.364 45.9296 56.7178 45.7384 57.8268C45.5472 58.9358 47.0845 63.3031 47.3905 63.6549L43.4668 75.1965L48.0635 74.0721Z" fill="#E4897B"/>
<path d="M49.9832 68.3817L48.5453 81.4223C46.3349 79.5637 44.4457 77.3151 43.0078 74.7834C43.895 71.6552 44.7899 68.8482 45.2106 67.5862C45.3482 67.135 45.4324 66.8826 45.4324 66.8826L46.2508 66.982L49.6543 67.4103L50.075 67.4639L49.9756 68.3664L49.9832 68.3817Z" fill="#407BFF"/>
<path d="M56.484 76.7874L54.266 85.0401C53.9753 84.9177 53.6847 84.78 53.4093 84.627H53.4017C51.6578 83.7628 50.0211 82.6767 48.5449 81.4223C48.7208 81.0246 53.264 70.7604 54.9696 70.8827L56.4917 76.7797L56.484 76.7874Z" fill="#407BFF"/>
<path opacity="0.3" d="M49.9832 68.3817L48.5453 81.4223C46.3349 79.5637 44.4457 77.3151 43.0078 74.7834C43.895 71.6552 44.7899 68.8482 45.2106 67.5862C45.3482 67.135 45.4324 66.8826 45.4324 66.8826L46.2508 66.982L49.6543 67.4103L50.075 67.4639L49.9756 68.3664L49.9832 68.3817Z" fill="black"/>
<path opacity="0.3" d="M56.484 76.7874L54.266 85.0401C53.9753 84.9177 53.6847 84.78 53.4093 84.627H53.4017C51.6578 83.7628 50.0211 82.6767 48.5449 81.4223C48.7208 81.0246 53.264 70.7604 54.9696 70.8827L56.4917 76.7797L56.484 76.7874Z" fill="black"/>
<path d="M51.0465 66.6684L50.2664 68.4275L44.8359 67.525L44.9583 66.5231L51.0465 66.6684Z" fill="#407BFF"/>
<path d="M79.5678 53.9872C78.933 56.4118 82.3978 63.1042 80.9904 75.2806C79.5831 87.457 66.2365 86.715 60.2325 82.6537C54.2284 78.5924 55.2686 56.5648 57.3337 52.2204C59.3988 47.8761 79.5678 53.9796 79.5678 53.9796V53.9872Z" fill="#263238"/>
<path d="M83.1015 73.6744C82.9715 74.0262 82.8568 74.378 82.7344 74.7299C82.6044 75.074 82.4896 75.4182 82.3826 75.7547C82.1608 76.4278 81.9466 77.0779 81.7324 77.7128C81.3041 78.9824 80.9217 80.1985 80.5546 81.3305C79.3002 82.4166 77.9312 83.365 76.4626 84.1681C72.9214 86.1261 68.8448 87.2504 64.5081 87.2504C60.8598 87.2504 57.3874 86.455 54.2668 85.0323C53.9761 84.91 53.6855 84.7723 53.4102 84.6193C53.4178 84.3746 53.4178 84.1222 53.4178 83.8927C53.4178 83.6633 53.4178 83.4185 53.4255 83.1814C53.4331 82.4778 53.4637 81.8276 53.479 81.2158C53.4943 80.8027 53.5172 80.405 53.5249 80.0302C53.5325 79.8314 53.5402 79.6555 53.5555 79.4719C53.5937 78.7912 53.6243 78.1717 53.6702 77.598C53.6779 77.4145 53.7008 77.2233 53.7084 77.0473C53.7467 76.5043 53.7926 76.0224 53.8308 75.5712C54.1138 72.7412 54.4809 71.6246 54.7257 71.1733C54.7716 71.0815 54.8175 71.0203 54.8557 70.9745C54.9322 70.8903 54.9704 70.8827 54.9704 70.8827C54.9704 70.8827 55.3452 70.8444 55.9724 70.7985C57.6245 70.6609 61.051 70.4161 64.1486 70.4314C64.2021 70.4314 64.271 70.4314 64.3245 70.4391C64.7375 70.4467 65.1429 70.4697 65.5559 70.4926C67.1545 70.5767 68.7453 70.7144 70.3286 70.9133C70.9175 70.9897 71.5064 71.0739 72.0954 71.158C72.7302 71.2498 73.365 71.3569 73.9998 71.464C74.084 71.4793 74.1758 71.4945 74.2599 71.5098C76.6003 71.9076 78.9178 72.4353 81.2047 73.0931C81.8395 73.269 82.4743 73.4602 83.1015 73.6591H83.1092L83.1015 73.6744Z" fill="#407BFF"/>
<path opacity="0.3" d="M83.0861 73.6744C83.0861 73.6744 83.0861 73.682 83.0784 73.6897C82.956 74.0339 82.8337 74.378 82.7342 74.7222C82.6042 75.0664 82.4895 75.4106 82.3824 75.7471C82.1606 76.4202 81.9464 77.0703 81.7323 77.7051C81.304 78.9748 80.9215 80.1909 80.5544 81.3229C79.3001 82.4089 77.931 83.3573 76.4625 84.1604C72.9212 86.1184 68.8446 87.2428 64.5079 87.2428C60.8596 87.2428 57.3872 86.4473 54.2666 85.0247C53.976 84.9023 53.6853 84.7647 53.41 84.6117H53.4023C53.4023 84.3593 53.41 84.1145 53.4176 83.8851C53.4176 83.6403 53.4176 83.4109 53.4253 83.1738C53.4329 82.4701 53.4635 81.82 53.4788 81.2081C53.4941 80.7951 53.5171 80.3974 53.5247 80.0226C53.5324 79.8237 53.54 79.6478 53.5553 79.4643C53.5859 78.7836 53.6241 78.164 53.67 77.5904C53.6777 77.4068 53.7006 77.2156 53.7083 77.0397C53.7465 76.4967 53.7924 76.0148 53.8307 75.5636C54.1137 72.7336 54.4808 71.6169 54.7255 71.1657C54.7714 71.0739 54.8173 71.0127 54.8556 70.9668C54.932 70.8827 54.9703 70.875 54.9703 70.875C54.9703 70.875 55.3451 70.8368 55.9722 70.7909C57.6243 70.6532 61.0508 70.4085 64.1484 70.4238C64.202 70.4238 64.2708 70.4238 64.3244 70.4314C64.7374 70.4391 65.1427 70.462 65.5558 70.485C67.1543 70.5691 68.7452 70.7068 70.3284 70.9056C70.9173 70.9821 71.5063 71.0663 72.0952 71.1504C72.73 71.2422 73.3649 71.3492 73.9997 71.4563C74.0838 71.4716 74.1756 71.4869 74.2597 71.5022C76.6002 71.8999 78.9176 72.4277 81.2045 73.0854C81.8394 73.2614 82.4742 73.4526 83.1014 73.6514L83.0861 73.6744Z" fill="black"/>
<path d="M68.7676 69.7813C74.2287 70.2097 74.9017 71.8617 74.3204 72.726C73.7392 73.5903 66.3354 80.8257 64.1097 85.6672C64.1097 85.6672 56.0865 68.787 68.7676 69.7813Z" fill="white"/>
<path d="M65.9534 75.2806C71.3609 74.5922 72.9824 72.2824 72.9824 72.2824C69.5482 69.0471 72.4011 63.4407 72.4011 63.4407L65.8922 64.6568C66.0605 65.7353 66.137 66.6378 66.1446 67.395C66.1905 71.3416 64.4084 71.3798 64.4084 71.3798C63.2688 73.5214 65.9458 75.2806 65.9458 75.2806H65.9534Z" fill="#E4897B"/>
<path opacity="0.2" d="M65.8916 64.6492C66.0599 65.7276 66.1364 66.6302 66.144 67.3874C70.5419 67.3874 72.4004 63.4331 72.4004 63.4331L65.8916 64.6492Z" fill="black"/>
<path d="M69.4945 46.4535C63.8347 46.1399 61.8537 49.0693 61.1195 54.8821C60.2017 62.1405 61.5325 67.4027 68.6915 66.2325C78.4127 64.6492 78.8869 46.966 69.4945 46.4535Z" fill="#E4897B"/>
<path d="M64.791 54.7674C64.791 54.7674 63.9268 56.2053 63.0166 57.0237C63.0166 57.0237 63.4602 57.8191 64.4698 57.7427L64.791 54.7674Z" fill="#DE5753"/>
<path d="M68.2787 54.4921C68.2405 54.9586 68.4623 55.3487 68.7759 55.3793C69.0894 55.4099 69.3648 55.0504 69.403 54.5838C69.4413 54.1173 69.2195 53.7272 68.9059 53.6966C68.5999 53.6737 68.3169 54.0255 68.2787 54.4921Z" fill="#263238"/>
<path d="M69.0278 53.7272L68.0488 53.253C68.0488 53.253 68.4848 54.1402 69.0278 53.7272Z" fill="#263238"/>
<path d="M62.5121 53.9413C62.4739 54.4079 62.6957 54.798 63.0093 54.8286C63.3152 54.8515 63.5982 54.4997 63.6364 54.0331C63.6747 53.5666 63.4529 53.1765 63.1393 53.1459C62.8333 53.123 62.5503 53.4748 62.5121 53.9413Z" fill="#263238"/>
<path d="M63.269 53.1842L62.29 52.71C62.29 52.71 62.726 53.5972 63.269 53.1842Z" fill="#263238"/>
<path d="M70.9558 51.8457C70.8717 51.8457 70.7952 51.8074 70.7417 51.7386C70.038 50.7673 68.5772 50.8514 68.5695 50.859C68.4165 50.8667 68.3018 50.7596 68.2865 50.6143C68.2789 50.469 68.3859 50.3466 68.5313 50.3313C68.6001 50.3313 70.2904 50.2166 71.17 51.425C71.2541 51.5397 71.2312 51.708 71.1088 51.7921C71.0629 51.8227 71.0094 51.8457 70.9558 51.8457Z" fill="#263238"/>
<path d="M62.1672 50.729C62.0755 50.729 61.9913 50.6831 61.9378 50.599C61.8613 50.4766 61.9072 50.316 62.0296 50.2395C63.4292 49.4135 64.5 49.8647 64.5459 49.88C64.6759 49.9412 64.7371 50.0942 64.6836 50.2242C64.6224 50.3542 64.4771 50.4154 64.3394 50.3619C64.3012 50.3466 63.4522 50.0024 62.2973 50.6908C62.259 50.7137 62.2131 50.729 62.1672 50.729Z" fill="#263238"/>
<path d="M65.1727 60.0142C65.4633 60.7179 65.7234 62.0181 65.7234 62.0181C65.8458 62.0181 65.9681 62.0181 66.0905 62.0028C67.7426 61.9263 68.4921 61.345 68.8134 60.7255C68.9893 60.3813 69.0352 60.0295 69.0275 59.7389C69.0275 59.4023 68.951 59.1652 68.951 59.1652C68.0944 59.7312 66.5571 59.9224 65.731 59.9836C65.3868 60.0142 65.165 60.0219 65.165 60.0219L65.1727 60.0142Z" fill="#263238"/>
<path d="M65.7391 59.976L65.915 60.5649C67.4753 60.4884 68.5614 60.2284 69.0279 59.7312C69.0279 59.3947 68.9515 59.1576 68.9515 59.1576C68.0948 59.7236 66.5575 59.9148 65.7314 59.976H65.7391Z" fill="white"/>
<path d="M66.0908 62.0028C67.7429 61.9263 68.4924 61.3451 68.8137 60.7255C68.2477 60.7714 67.5746 60.8938 66.9933 61.1768C66.5421 61.3909 66.2744 61.6969 66.0985 62.0105L66.0908 62.0028Z" fill="#DE5753"/>
<path d="M75.154 56.3277C75.154 56.3277 72.7601 51.5321 73.3643 47.9679C73.3643 47.9679 62.404 42.7746 61.2262 54.1249C61.2262 54.1249 60.6831 43.9601 70.4196 44.266C80.1408 44.572 79.3377 58.7981 74.0833 62.76C74.0833 62.76 76.6302 59.3182 75.154 56.3277Z" fill="#263238"/>
<path d="M74.1598 57.4749C74.2439 56.5648 75.2688 55.0733 76.9591 55.3563C78.703 55.647 79.3378 59.2876 74.9323 59.9148C74.2974 60.0066 73.9839 59.3718 74.1598 57.4749Z" fill="#E4897B"/>
<path d="M71.8506 47.4019C71.8506 47.4019 70.9557 54.385 75.1471 60.7179C78.3288 65.5211 74.6729 69.7354 74.6729 69.7354C74.6729 69.7354 80.3175 66.1407 80.5163 60.7179C80.5163 60.7179 85.1819 47.7537 75.4989 44.2584C75.4989 44.2584 75.4607 41.3367 69.143 41.895C62.8254 42.4534 57.7392 47.8608 56.7755 54.7674C55.8118 61.6663 59.4065 69.3607 59.4065 69.3607C59.4065 69.3607 55.5823 44.9085 71.8506 47.4019Z" fill="#263238"/>
<path d="M72.218 47.5243C71.7744 49.0923 71.6826 50.8514 71.7514 52.5417C71.8432 54.2473 72.1186 55.9453 72.5622 57.605C72.9981 59.2647 73.633 60.8709 74.4514 62.3853C75.2927 63.8767 76.3099 65.3147 77.6484 66.4084C76.264 65.3605 75.1856 63.9609 74.2831 62.4847C73.3959 60.9933 72.6922 59.3794 72.1874 57.7121C71.675 56.0447 71.3308 54.3315 71.1702 52.58C71.0401 50.8285 71.0478 49.077 71.4837 47.2949L72.2104 47.5243H72.218Z" fill="#263238"/>
<path d="M84.3167 77.3457C83.2153 78.8218 81.9457 80.168 80.546 81.3382C79.2917 82.4243 77.9226 83.3727 76.4541 84.1758C76.5382 83.8469 76.653 83.5257 76.76 83.1968C77.7314 80.451 79.4447 77.9499 80.8367 76.2061C81.9839 74.7682 82.9171 73.835 83.07 73.6974C83.0777 73.6897 83.0853 73.6821 83.0853 73.6821C83.6743 74.1639 84.0567 75.5024 84.3091 77.3533L84.3167 77.3457Z" fill="#407BFF"/>
<path opacity="0.3" d="M84.3167 77.3457C83.2153 78.8218 81.9457 80.168 80.546 81.3382C79.2917 82.4243 77.9226 83.3727 76.4541 84.1758C76.5382 83.8469 76.653 83.5257 76.76 83.1968C77.7314 80.451 79.4447 77.9499 80.8367 76.2061C81.9839 74.7682 82.9171 73.835 83.07 73.6974C83.0777 73.6897 83.0853 73.6821 83.0853 73.6821C83.6743 74.1639 84.0567 75.5024 84.3091 77.3533L84.3167 77.3457Z" fill="black"/>
</g>
<defs>
<filter id="filter0_d_318_7" x="1.70996" y="1.78174" width="125.166" height="125.166" filterUnits="userSpaceOnUse" color-interpolation-filters="sRGB">
<feFlood flood-opacity="0" result="BackgroundImageFix"/>
<feColorMatrix in="SourceAlpha" type="matrix" values="0 0 0 0 0 0 0 0 0 0 0 0 0 0 0 0 0 0 127 0" result="hardAlpha"/>
<feOffset dx="2" dy="2"/>
<feGaussianBlur stdDeviation="7.5"/>
<feComposite in2="hardAlpha" operator="out"/>
<feColorMatrix type="matrix" values="0 0 0 0 0.8 0 0 0 0 0.8 0 0 0 0 0.8 0 0 0 0.3 0"/>
<feBlend mode="normal" in2="BackgroundImageFix" result="effect1_dropShadow_318_7"/>
<feBlend mode="normal" in="SourceGraphic" in2="effect1_dropShadow_318_7" result="shape"/>
</filter>
<clipPath id="clip0_318_7">
<rect width="51" height="51" fill="white" transform="translate(39 37)"/>
</clipPath>
</defs>
</svg>
