<svg width="317" height="105" viewBox="0 0 317 105" fill="none" xmlns="http://www.w3.org/2000/svg">
<g clip-path="url(#clip0_62_10)">
<path d="M265.859 27.3414C265.685 27.233 265.531 27.2518 265.509 27.3905C265.501 27.516 265.606 27.6342 265.772 27.6442C266.187 27.669 266.221 27.559 265.859 27.3414Z" fill="#006D2C"/>
<path d="M268.016 31.2068C268.257 31.3471 268.573 31.4079 268.756 31.3629C268.968 31.3056 268.957 31.263 268.695 31.2333C268.459 31.2193 268.315 31.0847 268.338 30.9322C268.347 30.7789 268.269 30.6903 268.116 30.6951C267.641 30.7367 267.586 30.9573 268.003 31.192L268.016 31.2068Z" fill="#006D2C"/>
<path d="M269.078 35.273C269.968 35.4661 270.521 35.5131 270.333 35.4039C270.066 35.234 270.129 35.0979 270.695 34.6839C271.726 33.9337 271.645 33.2011 270.455 32.4303C269.961 32.1069 269.537 31.7736 269.486 31.6867C269.45 31.6005 269.324 31.607 269.236 31.6857C269.148 31.7784 268.555 31.9389 267.952 32.0428C267.265 32.1557 266.88 32.3147 266.955 32.4591C267.017 32.5887 266.943 32.8922 266.803 33.1498C266.632 33.4475 266.705 33.8577 266.999 34.2811C267.446 34.9236 267.514 34.9556 269.063 35.2861L269.078 35.273Z" fill="#006D2C"/>
<path d="M279.286 38.9199C279.578 38.9233 279.859 38.8561 279.933 38.7905C280.095 38.6322 279.814 38.4474 279.466 38.4686C279.327 38.4743 279.126 38.5743 278.993 38.7064C278.803 38.877 278.855 38.9221 279.286 38.9199Z" fill="#006D2C"/>
<path d="M264.621 30.6402C264.533 30.719 264.607 30.8634 264.781 30.9718C264.956 31.0802 265.163 31.0926 265.252 30.9999C265.34 30.9212 265.265 30.7767 265.091 30.6683C264.917 30.5599 264.71 30.5475 264.621 30.6402Z" fill="#006D2C"/>
<path d="M253.025 24.8811C253.289 24.8828 253.517 24.7845 253.536 24.6878C253.566 24.4238 253.27 24.2662 252.917 24.357C252.424 24.4814 252.51 24.8923 253.025 24.8811Z" fill="#006D2C"/>
<path d="M251.495 23.7684C251.502 23.6429 251.427 23.4984 251.307 23.4212C251.186 23.358 251.086 23.408 251.079 23.5196C251.072 23.6312 251.146 23.7896 251.267 23.8668C251.388 23.93 251.488 23.88 251.495 23.7684Z" fill="#006D2C"/>
<path d="M240.759 24.0785C240.162 24.0709 240.175 24.0857 240.958 24.2304C241.411 24.3134 241.887 24.4818 241.991 24.6C242.355 25.0136 244.622 25.401 245.111 25.1223C245.369 24.9838 245.666 24.9035 245.773 24.9659C245.88 25.0283 246.169 24.8496 246.435 24.5716C246.702 24.2936 247.065 24.0215 247.248 23.9764C247.46 23.9191 247.535 23.5877 247.454 23.093C247.241 22.0027 245.843 21.0095 244.363 20.9211C243.353 20.8607 242.573 21.1221 241.286 21.9828C240.693 22.3812 240.585 22.5707 240.665 23.0933C240.727 23.4469 240.901 23.7931 241.088 23.9023C241.344 24.0435 241.258 24.0804 240.759 24.0785Z" fill="#006D2C"/>
<path d="M271.297 37.169C270.851 37.1983 269.289 36.8531 268.31 36.5147C268.01 36.4128 267.694 36.3659 267.62 36.4315C267.547 36.4971 267.217 36.4494 266.863 36.3303C266.006 36.0411 266.027 36.3783 266.876 36.8069C267.294 37.0138 267.53 37.2518 267.464 37.4158C267.333 37.7578 268.126 38.6589 268.66 38.7888C268.879 38.8438 269.181 39.1278 269.33 39.4166C269.466 39.7046 269.832 40.0764 270.114 40.2471C270.395 40.4179 270.588 40.6673 270.526 40.7895C270.445 40.9806 270.471 40.9962 270.647 40.8528C270.764 40.7478 271.269 40.666 271.728 40.6514C272.576 40.6321 273.644 40.1781 273.295 39.9754C273.188 39.913 273.308 39.7662 273.537 39.64C274.399 39.1596 272.482 37.0858 271.269 37.1813L271.297 37.169Z" fill="#006D2C"/>
<path d="M278.826 43.8469C280.083 43.7121 280.22 42.3623 278.976 42.26C278.12 42.1808 277.214 43.3867 277.858 43.7611C278.02 43.8548 278.434 43.8935 278.826 43.8469Z" fill="#006D2C"/>
<path d="M255.267 33.1324C256.623 33.2134 257.506 31.4468 256.338 30.9992C255.51 30.6838 254.599 30.6014 254.585 30.8384C254.578 30.95 254.367 31.2313 254.118 31.4543C253.384 32.1102 254.021 33.0719 255.267 33.1324Z" fill="#006D2C"/>
<path d="M260.145 35.3976C260.151 35.286 260.28 35.2237 260.46 35.2344C260.791 35.2682 261.073 34.7391 260.914 34.3796C260.79 34.1202 260.401 33.887 259.733 33.6791C259.488 33.5945 259.011 33.678 258.64 33.8518C258.083 34.1125 258.021 34.2207 258.249 34.5844C258.541 35.0498 260.111 35.7315 260.144 35.4115L260.145 35.3976Z" fill="#006D2C"/>
<path d="M212.576 18.4902C213.461 18.3191 213.562 18.2552 213.647 17.7565C213.795 16.8976 212.803 16.3066 211.623 16.5439C210.752 16.7158 210.693 16.7683 210.56 17.3761C210.368 18.2603 211.255 18.7472 212.575 18.5041L212.576 18.4902Z" fill="#006D2C"/>
<path d="M238.545 48.778C238.077 48.8539 237.436 48.3742 237.707 48.1438C237.789 48.0708 237.718 47.9627 237.518 47.8598C237.331 47.7578 237.247 47.6489 237.303 47.5873C237.357 47.5387 237.051 47.2737 236.641 47.0285C235.907 46.5823 234.077 46.1743 233.819 46.4055C233.751 46.4664 233.56 46.429 233.398 46.3414C233.048 46.1518 232.181 46.4505 232.149 46.7602C232.143 46.8637 231.855 46.9373 231.546 46.9319C231.213 46.9119 230.795 47.0038 230.581 47.1339C230.368 47.2639 230.041 47.3482 229.835 47.3359C229.451 47.3 229.358 47.3464 228.682 47.8772C228.399 48.094 227.905 48.1683 227.149 48.1102C226.546 48.0612 225.94 48.0898 225.831 48.1872C225.723 48.2716 225.39 48.2258 225.104 48.0659C224.816 47.9189 224.648 47.7271 224.73 47.6411C224.812 47.5681 225.08 47.6101 225.329 47.7418C225.579 47.8736 225.784 47.8858 225.791 47.7694C225.798 47.653 225.58 47.4322 225.267 47.2708C224.943 47.0956 224.848 46.9601 225.031 46.9191C225.213 46.8781 225.577 47.0426 225.91 47.2961C226.34 47.6334 226.466 47.6799 226.428 47.4569C226.399 47.2994 226.269 47.0969 226.121 46.9843C225.418 46.4749 225.147 46.0562 225.378 45.8493C225.691 45.5694 224.774 43.8919 224.169 43.6611C223.867 43.5521 223.823 43.4197 224.038 43.2767C224.267 43.1086 224.185 42.9739 223.711 42.7119C223.336 42.5208 223.191 42.3563 223.361 42.3146C223.517 42.285 223.457 42.2164 223.228 42.1638C222.708 42.0419 222.466 42.2092 222.758 42.4863C222.868 42.5967 222.615 42.5166 222.19 42.2965C221.64 42.017 221.556 41.9211 221.889 41.954C222.299 41.9785 222.339 41.9549 222.175 41.6855C222.022 41.4427 222.075 41.4199 222.45 41.611C223.012 41.9042 223.322 41.8838 223.457 41.5673C223.531 41.4159 223.309 41.2469 222.843 41.0763C222.351 40.9041 222.094 40.681 222.022 40.3781C221.918 39.9565 221.931 39.9572 222.41 40.3494C222.68 40.5732 222.928 40.7308 222.981 40.6951C223.117 40.5863 222.324 39.6302 221.804 39.2746C221.544 39.1033 221.326 38.8696 221.332 38.7661C221.338 38.6755 221.109 38.4152 220.812 38.2027C220.294 37.8213 219.215 36.0432 219.323 35.751C219.354 35.662 219.197 35.4968 218.972 35.3795C218.747 35.2623 218.445 34.7119 218.299 34.145C218.152 33.578 217.937 33.0848 217.824 33.0262C217.575 32.8944 216.954 31.65 216.986 31.3273C216.994 31.185 216.889 31.01 216.752 30.9369C216.589 30.8493 216.547 30.9117 216.651 31.1126C216.777 31.3668 216.713 31.363 216.317 31.0927C215.957 30.8635 215.928 30.7059 216.209 30.528C216.544 30.3143 216.532 30.3006 216.076 30.3902C215.802 30.4517 215.393 30.4013 215.193 30.2985C214.981 30.182 214.017 29.9297 213.038 29.7154C211.055 29.2853 210.347 28.8536 211.211 28.6066C211.526 28.5215 211.647 28.425 211.523 28.3526C211.41 28.294 211.191 28.2939 211.033 28.3623C210.835 28.4413 210.625 28.286 210.319 27.8004C210.084 27.4358 209.495 26.7255 209.008 26.2551C208.521 25.7846 208.063 25.2639 208.007 25.1177C207.951 24.9716 207.827 24.8993 207.746 24.9593C207.664 25.0324 207.585 24.8588 207.562 24.5849C207.527 24.0895 206.228 22.9863 205.711 23.0203C205.569 23.0248 204.806 22.6546 203.983 22.1901C202.402 21.2907 200.487 20.5791 198.982 20.3205C198.485 20.2388 197.704 19.9455 197.282 19.6866C196.859 19.4277 196.09 19.1481 195.605 19.0801C195.12 19.0122 194.103 18.7827 193.368 18.583C190.466 17.7994 187.634 17.124 187.171 17.1223C186.707 17.1205 185.588 16.8849 182.758 16.1836C181.006 15.7544 177.125 14.9643 176.841 14.9862C176.725 14.9923 176.139 14.8794 175.555 14.7406C174.958 14.6011 173.533 14.3083 172.386 14.097C171.24 13.8857 170.21 13.6684 170.085 13.6089C169.959 13.5495 169.805 13.5533 169.71 13.6255C169.628 13.6985 169.311 13.6276 169.023 13.4806C168.736 13.3336 168.418 13.2627 168.337 13.3357C168.255 13.4088 168.05 13.3965 167.899 13.3226C167.75 13.2358 166.884 13.0802 165.964 12.9603C165.043 12.8404 163.754 12.6466 163.066 12.5275C162.378 12.4085 161.811 12.4007 161.792 12.5163C161.786 12.6198 161.555 12.606 161.318 12.475C160.931 12.2702 151.299 10.7341 150.742 10.7917C150.638 10.7985 150.177 10.7579 149.73 10.6923C149.284 10.6266 148.859 10.6143 148.778 10.6744C148.71 10.7352 148.456 10.6811 148.231 10.5638C148.007 10.4465 147.689 10.3756 147.532 10.4052C147.376 10.4348 146.888 10.4186 146.442 10.34C144.157 9.99582 142.047 9.75289 141.556 9.77551C141.271 9.79745 140.914 9.73717 140.801 9.69146C140.676 9.63205 139.514 9.4588 138.247 9.33116C136.979 9.20352 135.843 9.04473 135.755 9.00056C135.655 8.95562 135.448 8.96922 135.264 9.0361C135.079 9.10299 134.463 9.07912 133.889 8.97994C133.303 8.88 132.202 8.76232 131.446 8.70415C130.676 8.65815 129.948 8.54977 129.824 8.47743C129.698 8.41802 129.52 8.39435 129.452 8.45519C129.384 8.51604 128.906 8.52648 128.394 8.48288C127.868 8.45145 127.453 8.49159 127.449 8.56921C127.443 8.65976 127.214 8.60715 126.965 8.4754C126.715 8.34364 124.977 8.12295 123.079 7.98361C119.527 7.73244 113.277 7.35908 112.954 7.37872C112.838 7.38476 112.478 7.36329 112.133 7.32966C111.774 7.29525 111.462 7.34153 111.391 7.45412C111.32 7.56671 111.217 7.56058 111.147 7.43956C111.077 7.33147 109.516 7.16032 107.693 7.06439C105.87 6.96846 103.995 6.86947 103.56 6.83046C103.111 6.80363 102.636 6.77526 102.492 6.81858C102.348 6.84895 101.345 6.82796 100.24 6.7879C99.1344 6.74784 97.7582 6.71755 97.1641 6.74696C96.5835 6.76421 95.9555 6.7137 95.8182 6.64059C95.6688 6.55377 95.4483 6.57955 95.3251 6.70201C95.1898 6.81076 94.9445 6.82207 94.7694 6.73372C94.5824 6.63167 94.3906 6.60723 94.3098 6.66731C94.2418 6.72816 93.7646 6.7386 93.2657 6.68283C92.7668 6.62706 91.8533 6.61143 91.2455 6.65302C90.6385 6.68166 90.0346 6.65857 89.9102 6.58622C89.7729 6.51311 89.4248 6.51828 89.0986 6.58966C88.7724 6.66105 88.4364 6.67992 88.3368 6.62205C88.2365 6.57711 87.7745 6.54951 87.3231 6.56148C86.858 6.58562 85.8034 6.56157 84.9692 6.51173C84.1351 6.4619 83.3461 6.51862 83.2109 6.62738C83.0748 6.74907 82.9072 6.75204 82.8484 6.65766C82.7776 6.54957 82.4953 6.5327 82.1811 6.61779C81.867 6.70288 81.2736 6.71935 80.8139 6.65295C80.3671 6.58731 79.1842 6.55558 78.1898 6.60004C77.1963 6.63156 75.7672 6.62407 75.0093 6.59177C74.2522 6.54654 73.319 6.64657 72.9247 6.7788C72.5169 6.9232 72.1144 6.97705 72.002 6.91841C71.6527 6.72878 69.1259 6.77255 68.8954 6.96649C68.7729 7.07602 68.5917 7.09115 68.4537 7.03098C68.1911 6.89845 64.1708 7.15159 63.9675 7.32119C63.8858 7.39421 63.7591 7.36067 63.689 7.23965C63.4902 6.90321 62.9081 6.94633 62.9385 7.29867C62.9616 7.55968 62.9079 7.59542 62.6462 7.44997C62.2969 7.26033 58.1447 7.3498 57.9262 7.55745C57.8446 7.63046 57.1439 7.71842 56.3821 7.7508C55.6075 7.78242 54.8395 7.91829 54.665 8.03768C54.5033 8.15784 54.27 8.18285 54.1855 8.08693C53.9428 7.83875 52.2268 7.89202 52.1079 8.15754C52.0496 8.2709 51.8676 8.29897 51.7054 8.21139C51.5432 8.12381 50.9876 8.15552 50.4914 8.26868C49.9953 8.38184 48.5818 8.54406 47.3919 8.62876C46.2028 8.70052 45.2031 8.83553 45.1985 8.91314C45.1938 8.99076 44.4675 9.07718 43.563 9.127C42.6585 9.17683 41.9314 9.27619 41.9124 9.37891C41.907 9.46946 41.5656 9.57889 41.216 9.60993C40.8544 9.62727 40.1105 9.79055 39.5856 9.95392C39.0607 10.1173 38.5148 10.2015 38.4024 10.1429C38.2772 10.0835 38.1714 10.1291 38.1524 10.2318C38.1454 10.3482 38.0148 10.3794 37.8775 10.3062C37.7402 10.2331 37.5695 10.2878 37.5225 10.4278C37.4627 10.5671 37.1855 10.6803 36.9273 10.6909C36.657 10.6877 36.4206 10.7645 36.4024 10.8542C36.3969 10.9448 36.1403 10.9295 35.8385 10.8076C35.4484 10.6544 35.2151 10.6795 34.9694 10.9114C34.7918 11.0826 34.5667 11.186 34.4791 11.1418C34.3916 11.0976 33.8336 11.1681 33.2333 11.301C32.6329 11.4339 32.047 11.5417 31.9307 11.5478C31.5329 11.524 30.8098 11.9871 30.7527 12.2953C30.7155 12.4878 30.4157 12.5477 29.7764 12.4706C29.2133 12.411 28.8108 12.4649 28.7502 12.617C28.6904 12.7562 28.5084 12.7843 28.3205 12.6952C28.1206 12.5924 27.8994 12.6311 27.7738 12.7924C27.6619 12.9415 27.4209 13.0958 27.2509 13.1376C25.8146 13.4672 24.8161 13.797 24.5184 14.0389C24.3151 14.2085 23.8928 14.378 23.5425 14.422C23.2042 14.4797 22.8453 14.6659 22.7583 14.8295C22.6712 14.9931 22.5103 15.1003 22.4107 15.0424C22.2485 14.9548 20.7341 15.5135 20.0934 15.8906C19.9861 15.9621 19.8539 16.0191 19.7875 16.0541C19.7217 16.0761 19.1141 16.5461 18.4649 17.0656C17.7477 17.6458 17.107 18.023 16.8768 17.9963C16.3137 17.9367 15.0128 18.5859 15.0848 18.8888C15.1772 19.2838 14.1765 20.0808 13.8273 19.8912C13.6651 19.8036 13.4454 19.8165 13.3237 19.9131C13.202 20.0096 12.9232 20.1488 12.6861 20.2385C12.4232 20.3266 12.3521 20.4392 12.4894 20.5123C12.6139 20.5847 12.677 20.8221 12.6238 21.0656C12.5372 21.4369 12.4843 21.4597 12.191 21.1955C11.909 20.958 11.7535 20.9746 11.3068 21.3374C10.9818 21.6036 10.8652 21.8303 11.0146 21.9171C11.1889 22.0184 11.136 22.0412 10.828 22.0228C10.4943 22.0029 10.2125 22.1938 9.55014 22.9331C8.26628 24.3753 8.06498 24.7268 8.40219 24.9027C8.65189 25.0345 8.61107 25.071 8.11957 25.1065C7.46046 25.1451 7.32719 25.4357 7.83865 25.7129C8.08835 25.8447 8.04599 25.907 7.70924 25.9389C7.4495 25.9753 7.19717 26.103 7.13734 26.2422C7.07751 26.3814 6.8793 26.6812 6.67135 26.9284C6.47624 27.1764 6.35117 27.5454 6.38859 27.7813C6.42678 28.0043 6.26398 28.358 6.04629 28.5528C5.8286 28.7475 5.69765 28.9993 5.7564 29.0937C5.81516 29.1881 5.68962 29.3493 5.47888 29.4276C5.26815 29.5059 5.15235 29.7197 5.23213 29.8932C5.31191 30.0667 5.29028 30.4289 5.18267 30.7211C5.08867 31.0011 5.09734 31.2872 5.22257 31.3466C5.33498 31.4053 5.28952 31.5194 5.11883 31.5741C4.94737 31.6417 4.83822 31.9598 4.88384 32.2741C4.92945 32.5884 4.92421 33.1073 4.86716 33.4155C4.82295 33.7244 4.91603 34.1065 5.08719 34.2595C5.24551 34.4118 5.27474 34.5693 5.14486 34.5875C5.01422 34.6186 4.97696 34.8111 5.04314 34.9968C5.29965 35.6613 5.02571 37.2287 4.59033 37.6181C4.34543 37.8372 4.22654 38.1027 4.34791 38.2268C4.46851 38.3638 4.35348 38.5647 4.03158 38.7791C3.71046 38.9806 3.5659 39.2446 3.64259 39.4699C3.708 39.6685 3.69409 39.9014 3.61168 39.9873C3.13471 40.4262 3.21333 44.715 3.6999 44.9777C3.78741 45.0219 3.82329 45.2837 3.76779 45.566C3.69636 45.8992 3.78975 46.0606 4.06156 46.0379C4.55306 46.0023 4.89027 46.1783 4.49834 46.2717C4.02863 46.3734 4.27509 47.206 4.83123 47.3821C5.09686 47.4629 5.24312 47.6014 5.13505 47.6858C5.02698 47.7702 5.09934 47.8525 5.31672 47.8784C5.53411 47.9044 5.55745 47.9447 5.37471 47.9857C5.20479 48.0275 5.13058 48.1919 5.19598 48.3905C5.26139 48.5891 5.35864 48.6858 5.41306 48.6371C5.46748 48.5885 5.73744 48.8123 6.02688 49.1412C6.31632 49.47 7.04331 50.0198 7.65356 50.3678C8.45013 50.8308 8.85274 51.2054 9.08081 51.6993C9.25166 52.073 9.47539 52.4239 9.5629 52.4681C10.002 52.6631 10.9581 53.4732 10.8501 53.5576C10.6596 53.728 12.8491 55.2349 13.3849 55.3188C13.7812 55.3685 13.7902 55.4339 13.4457 55.5951C13.0869 55.7814 13.1215 55.8483 13.6858 56.1028C14.0623 56.2681 14.321 56.4653 14.2891 56.5672C14.0786 57.0739 15.5525 58.4861 16.8344 59.0171C17.3497 59.2296 17.6461 59.4421 17.5516 59.5143C17.4428 59.6117 17.5929 59.6855 17.9892 59.7352C18.3341 59.7818 18.7016 59.8816 18.8374 59.9806C19.3571 60.3362 19.8875 60.5107 20.0372 60.3768C20.1188 60.3038 19.8625 60.0678 19.4498 59.8614C19.0379 59.6421 18.7454 59.3649 18.7916 59.2379C18.853 59.0728 18.7262 59.0392 18.3607 59.1213C17.709 59.2511 16.4084 58.6022 16.36 58.119C16.346 57.9234 16.1176 57.6501 15.8807 57.5191C15.5066 57.315 15.6108 57.2953 16.4282 57.409C17.3347 57.5411 18.4731 58.1024 18.1912 58.2933C17.7764 58.5541 17.9129 58.6401 18.49 58.4669C19.2505 58.2397 20.5129 58.6656 20.473 59.1176C20.4606 59.3246 20.6901 59.3643 21.4557 59.2672C22.4154 59.1558 22.4411 59.1573 22.1138 59.4623C21.7464 59.7909 22.1215 60.4105 22.5581 60.2159C22.8882 60.0798 23.7373 60.7407 23.8507 61.2148C23.9527 61.6623 24.9266 62.1749 25.0615 61.8584C25.1221 61.7062 25.4226 61.6333 25.7932 61.6814C26.2914 61.7501 26.4777 61.8651 26.6622 62.2266C26.9964 62.8827 27.8859 63.2993 28.5905 63.1467C29.0345 63.0434 29.4028 63.1303 30.1014 63.5096C30.8625 63.9186 31.092 63.9582 31.3754 63.7415C31.5771 63.5978 31.6377 63.4456 31.5253 63.3869C31.4129 63.3283 31.3798 63.2354 31.4615 63.1624C31.6519 62.9921 33.5585 63.8459 33.543 64.1047C33.5276 64.3634 34.9984 64.7498 35.2297 64.543C35.3241 64.4707 35.5092 64.3909 35.664 64.3872C35.8059 64.3827 35.9676 64.2625 36.0139 64.1354C36.076 63.9574 36.2911 64.0222 36.9216 64.4623C37.5529 64.8895 37.8426 64.9976 38.1832 64.9012C38.6545 64.7735 39.3864 65.025 39.1423 65.2311C39.0743 65.2919 38.8266 65.342 38.5804 65.3663C38.3351 65.3776 38.2285 65.4361 38.3409 65.4948C38.4533 65.5534 39.3917 65.5835 40.4486 65.5688C41.532 65.5426 42.6076 65.6458 42.9584 65.8096C43.9867 66.2735 44.1512 66.3222 44.2865 66.2135C44.3674 66.1534 44.5591 66.1778 44.747 66.2669C44.9348 66.3561 45.1394 66.3813 45.2346 66.2961C45.3162 66.2231 45.2847 66.1043 45.1595 66.0449C44.8471 65.8835 45.3187 65.5352 45.7383 65.6251C45.9421 65.6633 45.9324 65.6108 45.7212 65.4813C45.522 65.3656 45.4286 65.2042 45.5103 65.1312C45.6047 65.0589 45.721 65.0529 45.7949 65.1092C45.868 65.1785 46.3398 65.2586 46.8274 65.2878C47.5075 65.3284 47.7467 65.4206 47.7985 65.6314C47.8495 65.8551 47.7838 65.8772 47.4972 65.7172C47.2973 65.6144 47.0542 65.5869 46.959 65.6721C46.8637 65.7573 47.0108 65.8829 47.3149 65.966C47.6447 66.0506 47.7789 66.1755 47.6708 66.2599C47.5756 66.3451 47.6721 66.4547 47.8879 66.5065C48.1415 66.5736 48.1633 66.6398 47.9389 66.7303C47.7546 66.7971 47.6835 66.9097 47.7831 66.9676C48.1203 67.1435 48.8981 66.4111 48.7257 66.0633C48.5887 65.7695 48.7435 65.7657 49.7193 66.0317C50.3532 66.1994 51.0271 66.3436 51.2076 66.3413C51.3872 66.3521 51.7668 66.4656 52.0293 66.5982C52.2911 66.7436 52.6104 66.7887 52.732 66.6921C52.8537 66.5955 52.9148 66.6511 52.8903 66.8443C52.8515 67.0627 53.0717 67.2576 53.5629 67.4427C54.1248 67.6667 54.4236 67.5504 54.4595 67.0939C54.4873 66.6282 54.5402 66.6054 55.1726 66.7989C55.6661 66.9452 55.8345 66.9293 55.8083 66.7201C55.7919 66.5633 55.8903 66.4264 56.0194 66.4211C56.1485 66.4158 56.1523 66.3512 56.0279 66.2788C55.9026 66.2194 55.6468 66.1911 55.4904 66.2207C54.9686 66.3324 54.7978 65.9587 55.1721 65.5137C55.4632 65.1676 55.5674 65.1478 55.786 65.3686C55.9315 65.5201 56.5857 65.7799 57.2453 65.9491C58.6535 66.3058 59.0764 66.7725 58.1988 67.0187C57.8974 67.1045 57.6397 67.3228 57.5473 67.5769C57.4564 67.8052 57.4743 67.936 57.5559 67.863C57.6504 67.7908 58.2823 67.7766 58.9609 67.8431C59.9082 67.9387 60.1815 67.8901 60.1569 67.6549C60.1152 67.276 60.4904 67.2464 60.7006 67.6095C60.9227 67.9863 61.2961 68.2033 61.6088 68.1441C61.7651 68.1145 61.7456 68.0095 61.5585 67.9074C61.3843 67.8061 61.2698 67.5656 61.3079 67.3602C61.4189 66.7956 61.5487 66.7774 61.8394 67.3011C62.0834 67.7441 62.146 67.7738 62.4882 67.6514C62.6989 67.5731 62.805 67.3068 62.745 67.0176C62.6121 66.4385 62.9582 66.2515 63.5949 66.5881C63.9072 66.7495 64.2054 66.7154 64.6187 66.4805C65.2314 66.1406 66.0209 66.2916 65.5863 66.6681C65.2741 66.9351 65.4997 67.0394 66.1506 66.9225C66.5931 66.8451 66.7063 66.8908 66.8425 67.1975C66.9328 67.4106 66.8593 67.562 66.6933 67.5391C66.5265 67.5292 66.5413 67.7118 66.7335 67.944C66.9257 68.1761 67.1353 68.3315 67.2034 68.2706C67.2714 68.2098 67.5537 68.2267 67.845 68.309C68.0095 68.3577 68.1378 68.3654 68.2413 68.3586C68.2246 68.4225 68.2335 68.488 68.3211 68.5321C68.4335 68.5908 68.5754 68.5863 68.657 68.5133C68.7387 68.4402 68.72 68.3223 68.6075 68.2636C68.5578 68.2347 68.4944 68.2179 68.4294 68.227C68.4302 68.2141 68.4687 68.2164 68.4702 68.1905C68.546 68.0003 68.6895 67.97 68.9392 68.1017C69.1889 68.2335 69.346 68.1909 69.4618 67.9771C69.6518 67.599 71.0988 67.7374 70.9473 68.1178C70.8851 68.2959 70.91 68.3103 71.0717 68.1902C71.1926 68.1065 71.4123 68.0937 71.5489 68.1797C71.9238 68.3709 73.221 68.2147 73.2485 67.9697C73.2555 67.8533 73.4231 67.8503 73.635 67.9668C73.8598 68.0841 74.0418 68.056 74.104 67.878C74.2835 67.4603 75.4846 67.4023 75.9378 67.7928C76.1588 67.9748 76.4613 68.0837 76.6441 68.0427C76.814 68.001 77.1446 68.0726 77.3694 68.1899C77.7692 68.3956 79.567 68.6977 80.5197 68.7027C80.7636 68.7172 81.0695 68.5538 81.1838 68.3659C81.3979 68.0152 83.5019 67.5047 83.8889 67.7096C83.9884 67.7675 84.212 67.69 84.3753 67.5439C84.6194 67.3378 84.8111 67.3623 85.4085 67.7095C86.2172 68.1862 86.2693 68.1764 86.1567 67.6893C86.0441 67.2022 86.8668 66.797 87.1924 67.167C88.1444 68.2624 88.305 68.3759 88.8425 68.434C89.1376 68.4516 89.4623 68.4061 89.5704 68.3217C89.6656 68.2365 89.9526 68.1757 90.1571 68.2009C90.3753 68.214 90.6373 68.1387 90.7221 68.014C90.8212 67.8641 91.0899 67.8932 91.4897 68.0988C91.8277 68.2618 92.3235 68.3693 92.6089 68.3344C92.8815 68.2988 93.5881 68.328 94.1625 68.4143C94.7376 68.4876 95.38 68.513 95.5756 68.4727C95.784 68.4332 96.3153 68.5948 96.7898 68.8438C97.2643 69.0929 97.7563 69.2651 97.9262 69.2233C98.0833 69.1808 98.3753 69.2501 98.5881 69.3537C99.0626 69.6028 100.151 69.499 100.298 69.1833C100.386 69.0068 100.525 69.054 100.856 69.3334C101.212 69.6273 101.326 69.6601 101.416 69.4448C101.505 69.2424 101.608 69.2485 101.801 69.4678C102.091 69.7837 102.713 69.717 103.187 69.3299C103.337 69.196 103.743 69.0775 104.041 69.0563C104.429 69.0276 104.628 68.9227 104.666 68.7172C104.802 67.9594 106.439 67.9274 107.323 68.6552C107.642 68.9209 107.806 68.9697 107.906 68.8069C108.005 68.6571 108.235 68.6967 108.619 68.9404C108.93 69.1277 109.246 69.2245 109.341 69.1523C109.422 69.0793 109.628 69.0915 109.816 69.1806C110.003 69.2827 110.197 69.2683 110.268 69.1557C110.338 69.0561 110.635 69.0478 110.888 69.1279C111.153 69.2216 111.713 69.32 112.111 69.3437C112.817 69.3859 112.83 69.3867 112.673 69.0008C112.48 68.5609 111.748 68.1017 111.717 68.3985C111.683 68.747 110.963 68.5092 110.959 68.1455C110.97 67.9644 110.843 67.7231 110.705 67.6629C110.38 67.4878 110.676 67.2847 111.082 67.3869C111.259 67.4364 111.548 67.3498 111.724 67.2045C111.968 66.9984 112.224 67.0267 112.975 67.3831C113.866 67.7869 114.442 67.8343 114.079 67.4491C113.994 67.3661 114.174 67.1562 114.454 66.9912C114.961 66.6969 116.098 66.8557 116.332 67.2461C116.391 67.3405 116.596 67.3528 116.794 67.2737C116.992 67.1947 117.387 67.2573 117.675 67.4043C117.962 67.5513 118.357 67.6268 118.555 67.5477C118.765 67.4694 118.823 67.369 118.698 67.3096C118.336 67.1192 118.948 66.7793 119.444 66.8868C119.711 66.9417 120.134 66.98 120.405 66.9702C120.974 66.9393 121.575 67.2218 121.358 67.4036C121.276 67.4766 121.296 67.5816 121.421 67.6411C121.533 67.6997 121.755 67.661 121.878 67.5385C122.055 67.3803 122.296 67.4337 122.794 67.7231C124.051 68.4603 124.241 68.5106 124.662 68.1463C124.866 67.9637 125.13 67.8497 125.23 67.9076C125.554 68.0827 126.221 67.7071 126.069 67.4384C125.964 67.2634 126.079 67.2703 126.404 67.4454C126.666 67.5909 127.009 67.6633 127.165 67.6337C127.322 67.6041 127.728 67.7063 128.04 67.8677C128.727 68.2204 129.582 68.3493 129.522 68.0731C129.501 67.981 129.701 67.8761 129.948 67.8389C130.325 67.7835 130.38 67.7219 130.251 67.5065C130.123 67.2781 130.217 67.2188 130.825 67.1643C131.732 67.0757 132.473 67.3926 131.617 67.4972C131.098 67.5571 131.109 67.5837 131.691 67.7613C132.058 67.8741 132.486 68.0295 132.673 68.1315C133.073 68.3372 134.319 67.9702 134.167 67.7015C133.921 67.2973 134.372 67.2983 134.902 67.6935C135.357 68.0452 135.51 68.0803 135.727 67.8856C135.877 67.7517 136.201 67.7192 136.467 67.7999C136.783 67.8967 137.005 67.8451 137.133 67.645C137.262 67.4191 137.43 67.4031 137.717 67.5631C137.929 67.6796 138.46 67.8541 138.879 67.9441C139.49 68.0714 139.659 68.0426 139.74 67.7618C139.858 67.2886 140.318 67.1343 140.831 67.3986C141.08 67.5303 141.273 67.5418 141.28 67.4254C141.286 67.3219 141.467 67.3068 141.654 67.4088C141.841 67.5109 141.86 67.6288 141.704 67.6584C141.351 67.7412 142.112 68.1502 142.577 68.139C142.771 68.1246 143.343 68.2497 143.85 68.3838C144.343 68.5301 144.599 68.5584 144.413 68.4434C143.827 68.1099 144.548 67.6985 145.639 67.7507C146.268 67.7883 146.685 67.6964 146.76 67.5321C146.848 67.3426 146.965 67.3366 147.197 67.5452C147.368 67.6982 147.975 67.8903 148.55 67.9636C149.175 68.0529 149.435 68.0165 149.223 67.9C148.787 67.6532 149.423 67.3537 149.886 67.589C150.048 67.6766 150.055 67.7809 149.898 67.8105C149.742 67.8401 149.724 67.9299 149.848 68.0022C149.973 68.0616 150.154 68.0594 150.236 67.9864C150.317 67.9134 150.535 67.9264 150.697 68.014C150.885 68.1161 151.054 68.0743 151.116 67.9092C151.176 67.757 151.52 67.6088 151.883 67.5785C152.323 67.5399 152.496 67.4464 152.414 67.3116C152.157 66.8679 152.648 66.8453 153.331 67.2626C153.815 67.5641 154.31 67.6975 154.966 67.7108C156.111 67.7272 156.236 67.7867 155.979 68.2127C155.851 68.4127 155.919 68.5726 156.136 68.5985C156.405 68.6146 156.46 68.566 156.342 68.3772C156.226 68.1755 156.343 68.1565 156.813 68.2625C157.156 68.3349 157.476 68.3671 157.531 68.3054C157.821 67.9852 157.978 67.9427 158.266 68.0897C158.453 68.1917 158.623 68.1499 158.684 67.9848C158.745 67.8327 158.915 67.7779 159.053 67.8511C159.215 67.9386 159.374 67.8573 159.49 67.6435C159.606 67.4297 159.765 67.3484 159.914 67.4352C160.052 67.5083 160.21 67.4528 160.257 67.3128C160.304 67.1728 160.49 67.0672 160.644 67.0764C160.811 67.0863 160.896 67.1693 160.865 67.2583C160.821 67.3466 161.275 67.7242 161.845 68.0958C162.949 68.8108 163.014 68.8017 163.819 68.0449C163.996 67.8867 164.34 67.9462 164.697 68.2143C164.87 68.3414 167.043 68.1856 167.219 68.0404C167.287 67.9795 167.594 68.0238 167.883 68.132C168.185 68.2539 168.687 68.2579 169.002 68.1599C169.33 68.0626 169.613 68.0665 169.645 68.1723C169.678 68.2781 169.811 68.2082 169.925 68.0203C170.109 67.7456 170.213 67.7259 170.483 67.9497C170.667 68.1035 170.895 68.1691 170.99 68.0839C171.085 67.9987 171.316 68.0125 171.503 68.1146C171.69 68.2166 172.013 68.2099 172.239 68.0936C172.451 67.9894 173.007 67.9448 173.428 68.0089C173.85 68.073 174.453 68.109 174.724 68.0992C175.008 68.0902 175.325 68.1741 175.42 68.2966C175.529 68.42 175.786 68.4224 176.011 68.319C176.224 68.2148 176.97 68.2205 177.659 68.3395C178.78 68.5363 178.858 68.528 178.439 68.2173C178.006 67.9059 178.008 67.88 178.516 68.0012C179.622 68.249 180.388 68.3597 180.356 68.241C180.304 68.0302 181.397 68.0566 181.527 68.259C181.598 68.3671 181.725 68.4007 181.806 68.3276C181.888 68.2546 181.91 68.1002 181.827 67.9784C181.651 67.6952 181.971 67.5066 182.32 67.6963C182.52 67.7991 182.678 67.7436 182.753 67.5663C182.858 67.3259 182.96 67.3321 183.254 67.5962C183.45 67.7637 183.752 67.8856 183.895 67.8553C184.038 67.8249 184.343 67.895 184.568 68.0123C185.117 68.3048 185.681 68.1437 185.42 67.7646C185.255 67.5081 185.312 67.4206 185.688 67.3782C185.948 67.3418 186.081 67.2718 185.995 67.2018C185.895 67.1439 186.263 67.2437 186.805 67.4319C187.348 67.6201 187.822 67.8692 187.854 67.9879C187.929 68.239 188.838 68.54 189.029 68.3697C189.097 68.3088 189.34 68.3363 189.552 68.4528C189.902 68.6295 189.916 68.6044 189.746 68.2178C189.632 67.9643 189.376 67.7283 189.136 67.6491C188.58 67.4731 189.214 66.5632 189.812 66.6898C190.231 66.7798 190.616 67.6726 190.263 67.7554C190.145 67.7873 190.15 67.9174 190.284 68.0552C190.658 68.467 192.997 68.5548 193.432 68.1783C193.649 67.9836 193.936 67.9229 194.136 68.0257C194.323 68.1277 194.569 68.1164 194.692 67.994C194.814 67.8845 195.239 67.8968 195.617 68.0233C196.968 68.4805 197.197 68.5201 197.734 68.3834C198.153 68.2657 198.182 68.2025 197.92 68.07C197.733 67.9679 197.527 67.9557 197.432 68.0409C197.351 68.1139 197.132 68.1008 196.945 68.0117C196.757 67.9097 196.675 67.7879 196.756 67.7149C196.838 67.6418 196.653 67.501 196.337 67.4042C196.009 67.2937 195.923 67.2237 196.142 67.2238C196.334 67.2353 196.898 67.0742 197.359 66.8941C198.085 66.5999 198.24 66.5962 198.428 66.893C198.546 67.0818 198.598 67.2797 198.544 67.3154C198.182 67.5663 197.969 67.8912 198.119 67.9651C198.407 68.1121 199.894 68.0062 199.917 67.8388C199.926 67.6835 200.732 67.7836 201.682 68.0351C201.936 68.1022 202.273 68.0704 202.395 67.9609C202.518 67.8513 202.879 67.847 203.181 67.9559C203.484 68.0648 203.336 67.9522 202.848 67.7153C202.173 67.3764 202.015 67.2112 202.169 66.9997C202.31 66.8004 202.516 66.7997 202.84 66.9749C203.165 67.15 203.345 67.1478 203.407 66.9698C203.483 66.7796 203.586 66.7857 203.793 66.9799C204.39 67.5478 204.683 68.0327 204.448 68.0835C204.318 68.1147 204.313 68.1923 204.438 68.2646C204.563 68.3241 204.756 68.3226 204.851 68.2374C204.974 68.1279 205.061 68.185 205.149 68.424C205.249 68.6896 205.312 68.7193 205.474 68.5992C205.582 68.5147 205.584 68.2553 205.493 68.0551C205.402 67.8549 205.445 67.5719 205.595 67.438C205.744 67.3041 205.769 67.0979 205.648 66.9738C205.527 66.8497 205.411 66.8428 205.404 66.9593C205.377 67.1913 204.295 66.9839 204.246 66.7343C204.225 66.6551 204.328 66.6483 204.465 66.7214C204.665 66.8243 204.746 66.7642 204.804 66.4431C204.861 66.1349 204.996 66.0262 205.307 66.0058C205.643 65.9869 205.64 66.0257 205.325 66.1366C205.1 66.2271 205.016 66.3519 205.153 66.425C205.303 66.4988 205.471 66.4959 205.552 66.4229C205.647 66.3506 205.839 66.3621 206.027 66.4512C206.214 66.5533 206.434 66.5404 206.556 66.4309C206.678 66.3343 207.205 66.3528 207.725 66.4878C208.308 66.6394 208.772 66.6412 208.935 66.4951C209.085 66.3613 209.4 66.2503 209.646 66.239C209.982 66.2201 209.948 66.1402 209.473 65.8912C209.124 65.7015 208.965 65.5622 209.095 65.544C209.224 65.5387 209.639 65.7063 210.038 65.9249C210.673 66.2874 210.776 66.2935 211.028 65.9451C211.183 65.7337 211.422 65.6052 211.534 65.6767C211.658 65.7491 211.957 65.702 212.194 65.6124C212.472 65.4862 212.958 65.5412 213.538 65.7575C214.521 66.1149 216.387 66.3561 216.618 66.1622C216.835 65.9675 216.784 65.9644 214.616 65.6013C213.749 65.4586 213.737 65.4449 214.087 65.1931C214.289 65.0365 214.718 64.9712 215.074 65.0444C215.839 65.181 216.054 65.038 215.826 64.5441C215.667 64.1841 215.693 64.1727 216.156 64.408C216.431 64.5413 216.737 64.5985 216.832 64.5133C216.941 64.416 217.167 64.5074 217.437 64.7312C217.695 64.9413 217.946 65.0472 218.029 64.9613C218.11 64.8883 217.941 64.6964 217.655 64.5365C217.367 64.3895 217.199 64.1847 217.295 64.0996C217.403 64.0022 217.68 64.1226 218.112 64.434C218.864 64.9982 219.193 64.8751 218.835 64.1786C218.697 63.8978 218.73 63.7829 218.917 63.8849C219.079 63.9725 219.208 63.9672 219.188 63.8752C219.168 63.7831 219.341 63.6895 219.601 63.6531C219.925 63.6076 219.98 63.559 219.805 63.4706C219.68 63.4112 219.499 63.4134 219.418 63.4864C219.323 63.5587 219.168 63.5753 219.043 63.503C218.931 63.4443 218.966 63.2777 219.13 63.1317C219.36 62.9377 219.289 62.8296 218.885 62.7016C218.43 62.5576 218.548 62.5128 219.636 62.4219C220.425 62.3652 221.13 62.4203 221.442 62.5818C221.829 62.7866 221.984 62.7829 222.14 62.5326C222.454 62.0191 222.944 62.0094 223.429 62.5187C223.647 62.7524 223.895 62.9101 223.937 62.8477C224.202 62.513 224.475 62.4644 224.717 62.7255C224.972 62.9874 224.999 62.976 224.967 62.6366C224.942 62.4144 224.776 62.1708 224.576 62.068C224.352 61.9507 224.547 61.9105 225.137 61.9457C225.689 61.9787 225.988 61.9317 225.919 61.7977C225.626 61.3128 226.154 61.3055 226.846 61.8011C227.501 62.2687 227.539 62.271 227.368 61.8973C227.243 61.6301 226.847 61.3469 226.219 61.0886C225.452 60.7702 225.378 60.7138 225.875 60.8084C226.728 60.9762 226.881 60.5699 226.212 59.9198L225.688 59.4211L226.589 59.8515C227.466 60.2673 227.479 60.2681 226.964 59.8349C226.682 59.5973 226.575 59.4482 226.725 59.5091C226.876 59.57 226.897 59.2208 226.772 58.7329C226.537 57.927 226.581 57.8258 227.117 57.702C227.978 57.5068 227.863 57.0715 226.894 56.9097C226.371 56.8136 226.16 56.6842 226.024 56.3775C225.854 55.9908 225.867 55.9786 226.33 56.214C226.955 56.5369 227.641 56.6818 227.817 56.5365C227.885 56.4757 227.626 56.2914 227.25 56.1261C226.772 55.9288 226.614 55.7766 226.763 55.6427C226.885 55.5461 226.781 55.3452 226.531 55.2134C226.219 55.052 226.187 54.9332 226.412 54.8428C226.596 54.7759 226.67 54.6245 226.573 54.5149C226.392 54.3093 226.883 54.5074 228.324 55.1777C228.712 55.3567 229.116 55.4976 229.258 55.4931C229.49 55.4811 228.71 54.9541 227.908 54.5946C227.469 54.3996 227.044 53.102 227.362 52.9522C227.468 52.9066 227.057 52.6614 226.442 52.4039C225.813 52.1457 225.526 51.9987 225.792 52.0665C226.046 52.1336 226.357 52.1003 226.478 52.0037C226.75 51.7732 227.263 52.0116 227.632 52.527C227.834 52.8117 227.922 52.8429 228.125 52.6733C228.262 52.5516 228.27 52.4093 228.146 52.337C228.02 52.2775 228.039 52.1878 228.156 52.1559C228.3 52.1255 228.348 51.9596 228.283 51.761C228.172 51.4558 228.225 51.433 228.739 51.4636C229.509 51.5096 230.594 51.8731 230.873 52.1753C231.006 52.3131 231.002 52.5985 230.872 52.8244C230.573 53.3128 231.268 53.7438 231.904 53.4572C232.221 53.3204 232.541 53.3525 232.965 53.5855C233.314 53.7752 233.734 53.8522 233.932 53.7732C234.13 53.6941 234.425 53.7117 234.613 53.8138C234.987 54.005 235.618 53.5753 235.432 53.2526C235.221 52.9024 235.601 52.7953 236.112 53.0725C236.374 53.218 236.932 53.3552 237.317 53.3782L238.023 53.4204L237.816 52.7849C237.696 52.4272 237.735 52.2088 237.885 52.2827C238.048 52.3573 238.255 52.3437 238.364 52.2334C238.486 52.1369 238.8 52.0518 239.109 52.0572C239.405 52.0619 239.681 51.9616 239.74 51.8482C239.785 51.7341 240.139 51.6384 240.499 51.634C240.899 51.6319 241.228 51.5088 241.304 51.3186C241.511 50.8636 241.259 49.6931 240.861 49.2539C240.461 48.8276 239.282 48.5105 238.554 48.6228L238.545 48.778ZM10.3752 52.4517C10.2808 52.524 10.1252 52.5407 10.0008 52.4683C9.87552 52.4089 9.85681 52.2909 9.93844 52.2179C10.0329 52.1457 10.1884 52.129 10.3129 52.2014C10.4381 52.2608 10.4569 52.3787 10.3752 52.4517ZM14.4937 55.5149C14.3992 55.5871 14.2934 55.6328 14.2316 55.5901C14.1698 55.5475 14.1374 55.4417 14.1572 55.326C14.1634 55.2225 14.2948 55.1785 14.4193 55.2508C14.5445 55.3102 14.5753 55.4419 14.4937 55.5149ZM18.0399 56.9471C17.9582 57.0201 17.7272 57.0063 17.5402 56.9042C17.3531 56.8022 17.3336 56.6972 17.4907 56.6546C17.6606 56.6128 17.8651 56.638 17.9904 56.6975C18.1028 56.7561 18.1351 56.8619 18.0399 56.9471ZM24.3323 59.6208C24.0826 59.4891 24.0012 59.3414 24.1576 59.3118C24.3275 59.27 24.532 59.2952 24.6452 59.3409C24.7576 59.3996 24.8269 59.5335 24.8199 59.65C24.813 59.7664 24.5827 59.7396 24.3323 59.6208ZM25.4927 60.6768C25.4328 60.816 25.2909 60.8205 25.1695 60.6964C25.0481 60.5723 25.0076 60.3882 25.0667 60.2619C25.1257 60.1356 25.2556 60.1174 25.3898 60.2422C25.512 60.3534 25.5517 60.5505 25.4927 60.6768ZM28.896 62.7755C28.7576 62.936 28.5538 62.8978 28.1081 62.5986C27.3652 62.0998 27.3344 61.9682 27.9958 61.8909C28.5795 61.8219 28.6927 61.8676 28.9261 62.271C29.0195 62.4324 29.0064 62.6523 28.896 62.7755ZM38.99 64.5469C38.8337 64.5765 38.6035 64.5498 38.4533 64.4759C38.2911 64.3883 38.3833 64.3549 38.6777 64.3855C39.28 64.4344 39.3547 64.4778 38.9892 64.5599L38.99 64.5469ZM43.2418 64.5153C42.7511 64.5379 42.6379 64.4922 42.5522 64.2015C42.4989 64.0166 42.3778 63.6718 42.2883 63.4457C42.1559 63.0743 42.1952 63.0637 42.8758 63.3121C43.3927 63.4988 43.6506 63.7089 43.7218 64.0247C43.8134 64.4326 43.7718 64.4821 43.2418 64.5153ZM48.4488 64.8783C48.3197 64.8836 48.1318 64.7945 48.0105 64.6704C47.8899 64.5334 47.9797 64.5387 48.243 64.6583C48.4806 64.7764 48.5779 64.8731 48.4488 64.8783ZM52.6739 25.1979C52.033 25.1466 51.7456 24.9996 52.1111 24.9176C52.281 24.8758 52.5731 24.9452 52.7858 25.0488C53.1102 25.2239 53.0966 25.2361 52.6731 25.2108L52.6739 25.1979ZM51.4158 64.7959C51.6063 64.6256 52.5905 64.7493 52.7201 64.9518C52.7788 65.0461 52.5922 65.1518 52.3461 65.1761C51.8009 65.2474 51.1853 64.9899 51.4166 64.783L51.4158 64.7959ZM52.2795 65.8601C52.0754 66.0427 51.6768 66.0318 51.5721 65.8438C51.4554 65.6421 51.9153 65.4879 52.2028 65.6349C52.328 65.6943 52.3483 65.7864 52.2795 65.8601ZM53.4268 65.4094C53.3685 65.5228 53.1306 65.6254 52.8981 65.6375C52.2646 65.6775 52.3489 65.345 52.9846 65.2661C53.3735 65.2245 53.5003 65.258 53.4268 65.4094ZM58.8754 17.7532C58.7809 17.8254 58.6254 17.8421 58.5009 17.7697C58.3765 17.6974 58.357 17.5924 58.4386 17.5193C58.5331 17.4471 58.6886 17.4304 58.8131 17.5028C58.9383 17.5622 58.957 17.6801 58.8754 17.7532ZM79.798 67.634C79.4313 67.5212 79.1563 67.5956 78.8162 67.8999C78.2047 68.4346 77.6673 68.3765 77.6772 67.7799C77.6832 67.248 77.374 67.0348 77.0218 67.3253C76.8857 67.447 76.9188 67.5399 77.0977 67.5635C77.2645 67.5735 77.2961 67.6922 77.16 67.8139C76.9695 67.9843 76.8043 67.9484 76.5238 67.685C75.9131 67.1293 75.9752 66.9512 76.8656 66.7058C77.5076 66.5235 77.8669 66.545 78.3414 66.794C78.6907 66.9836 79.0959 67.0987 79.2522 67.0691C79.6177 66.9871 80.3676 67.3694 80.3393 67.6274C80.3339 67.7179 80.0885 67.7292 79.8101 67.6477L79.798 67.634ZM89.0026 42.6871C88.8155 42.585 88.7455 42.464 88.8271 42.391C88.9088 42.318 89.0733 42.3668 89.2067 42.5045C89.3401 42.6423 89.4094 42.7763 89.3822 42.8006C89.355 42.825 89.1897 42.7891 89.0026 42.6871ZM92.2216 17.0451C92.0517 17.0868 91.8343 17.0609 91.7091 17.0015C91.5839 16.9421 91.6149 16.853 91.7841 16.8242C91.9532 16.7953 92.1714 16.8084 92.2966 16.8678C92.4219 16.9272 92.3908 17.0162 92.2216 17.0451ZM96.3139 66.8941C96.2186 66.9792 96.067 66.9312 95.9343 66.7805C95.8009 66.6427 95.7316 66.5088 95.7724 66.4722C95.8132 66.4357 95.9777 66.4845 96.152 66.5858C96.3391 66.6879 96.4091 66.8089 96.3139 66.8941ZM98.1451 68.1459C97.7125 68.3451 97.3353 68.3355 97.0135 68.1172L96.5934 67.8195L97.4088 67.7514C97.849 67.7128 98.3246 67.7282 98.4362 67.7998C98.5607 67.8721 98.4495 68.0083 98.1451 68.1459ZM100.785 37.7568C100.69 37.829 100.535 37.8457 100.41 37.7733C100.285 37.7139 100.266 37.596 100.348 37.523C100.443 37.4507 100.598 37.434 100.723 37.5064C100.848 37.5658 100.866 37.6837 100.785 37.7568ZM99.8281 69.0773C99.2744 69.2909 98.7078 69.0753 99.1852 68.8441C99.4111 68.7278 99.7214 68.7074 99.8836 68.795C100.033 68.8818 100.012 69.0104 99.8281 69.0773ZM112.568 44.4455C112.443 44.3861 112.412 44.2673 112.493 44.1943C112.588 44.1221 112.693 44.0765 112.743 44.1054C112.793 44.1343 112.825 44.2401 112.818 44.3565C112.811 44.473 112.694 44.5049 112.568 44.4455ZM120.144 35.7717C120.019 35.7122 119.987 35.5935 120.069 35.5205C120.163 35.4483 120.269 35.4027 120.319 35.4316C120.369 35.4605 120.401 35.5663 120.394 35.6827C120.387 35.7992 120.269 35.8311 120.144 35.7717ZM123.714 66.9861C123.574 66.7441 123.664 66.7365 124.127 66.9719C124.439 67.1333 124.696 67.3693 124.689 67.4858C124.66 67.7566 123.947 67.3895 123.727 66.9869L123.714 66.9861ZM135.035 21.9266C134.905 21.9319 134.718 21.8427 134.596 21.7187C134.476 21.5816 134.565 21.587 134.829 21.7066C135.066 21.8246 135.164 21.9213 135.035 21.9266ZM136.787 11.7755C136.662 11.7161 136.63 11.5973 136.712 11.5243C136.806 11.4521 136.912 11.4065 136.962 11.4354C137.012 11.4643 137.044 11.5701 137.037 11.6865C137.03 11.803 136.912 11.8349 136.787 11.7755ZM169.687 67.2531C169.593 67.3254 169.437 67.342 169.325 67.2834C169.212 67.2247 169.13 67.09 169.137 66.9736C169.144 66.8572 169.312 66.8542 169.5 66.9433C169.687 67.0454 169.769 67.1801 169.687 67.2531ZM176.324 67.8313C176.157 67.8214 176.098 67.727 176.18 67.654C176.274 67.5817 176.456 67.5536 176.568 67.6252C176.693 67.6846 176.753 67.7661 176.712 67.8026C176.671 67.8391 176.503 67.855 176.324 67.8313ZM188.62 67.4495C188.525 67.5217 188.42 67.5673 188.358 67.5247C188.296 67.4821 188.264 67.3763 188.283 67.2606C188.29 67.1571 188.421 67.113 188.546 67.1854C188.671 67.2448 188.702 67.3765 188.62 67.4495ZM191.255 68.1781C191.161 68.2504 191.005 68.267 190.881 68.1947C190.755 68.1353 190.737 68.0173 190.818 67.9443C190.913 67.8721 191.068 67.8554 191.193 67.9277C191.318 67.9872 191.337 68.1051 191.255 68.1781ZM193.579 67.6549C193.484 67.7271 193.329 67.7438 193.204 67.6714C193.079 67.612 193.06 67.4941 193.142 67.4211C193.236 67.3488 193.392 67.3321 193.516 67.4045C193.642 67.4639 193.66 67.5818 193.579 67.6549ZM194.806 67.8061C193.954 67.6253 193.099 67.055 193.543 66.9647C193.686 66.9343 193.966 66.99 194.19 67.1202C194.415 67.2375 194.748 67.2703 194.959 67.192C195.42 67.0119 195.743 67.2129 195.666 67.6368C195.624 67.9069 195.442 67.9479 194.805 67.819L194.806 67.8061ZM197.079 63.6058C196.892 63.5038 196.823 63.3698 196.904 63.2968C196.999 63.2246 197.141 63.2071 197.254 63.2658C197.366 63.3244 197.435 63.4584 197.429 63.5748C197.422 63.6912 197.266 63.7079 197.079 63.6058ZM198.744 64.627C198.627 64.6331 198.415 64.5295 198.318 64.4199C198.198 64.2828 198.287 64.2882 198.551 64.4078C198.788 64.5258 198.873 64.6218 198.744 64.627ZM199.671 67.6423C199.371 67.7153 199.132 67.4024 199.336 67.2199C199.417 67.1468 199.582 67.1956 199.715 67.3334C199.849 67.4712 199.828 67.5998 199.671 67.6423ZM207.132 64.9854C207.007 64.926 206.988 64.808 207.07 64.735C207.164 64.6627 207.32 64.6461 207.444 64.7184C207.569 64.7778 207.588 64.8958 207.506 64.9688C207.412 65.041 207.256 65.0577 207.132 64.9854ZM207.943 65.631C207.773 65.6728 207.556 65.6468 207.431 65.5874C207.306 65.528 207.337 65.439 207.506 65.4101C207.676 65.3684 207.893 65.3943 208.018 65.4537C208.144 65.5131 208.113 65.6022 207.943 65.631ZM212.382 30.1306C211.859 29.8397 211.847 29.826 212.356 29.9213C213.133 30.0716 213.308 30.1599 213.117 30.3303C213.036 30.4033 212.707 30.3057 212.382 30.1435L212.382 30.1306ZM211.873 60.647C211.682 60.6096 211.432 60.4778 211.336 60.3682C211.239 60.2586 211.393 60.2807 211.679 60.4407C211.967 60.5877 212.05 60.6965 211.859 60.6591L211.873 60.647ZM214.393 58.993C214.268 58.9336 214.249 58.8156 214.331 58.7426C214.425 58.6704 214.581 58.6537 214.705 58.7261C214.83 58.7855 214.849 58.9034 214.767 58.9764C214.673 59.0487 214.517 59.0654 214.393 58.993ZM214.765 62.0271C214.64 61.9677 214.559 61.82 214.579 61.7044C214.586 61.588 214.691 61.5423 214.816 61.6147C214.941 61.6741 215.022 61.8218 215.003 61.9374C214.996 62.0538 214.89 62.0995 214.765 62.0271ZM217.753 63.5427C217.624 63.548 217.436 63.4589 217.314 63.3348C217.194 63.1978 217.284 63.2031 217.547 63.3227C217.785 63.4408 217.882 63.5375 217.753 63.5427ZM220.23 38.4536C220.237 38.3501 220.455 38.3631 220.704 38.4949C220.954 38.6267 221.127 38.7538 221.099 38.7911C220.949 38.925 220.22 38.6347 220.23 38.4536ZM224.085 59.0917C223.835 58.9599 223.665 58.781 223.673 58.6517C223.68 58.5352 223.885 58.5475 224.122 58.6785C224.359 58.8095 224.541 58.9892 224.534 59.1185C224.527 59.2349 224.321 59.2227 224.085 59.0917ZM225.278 49.8938C224.637 49.8425 224.151 49.5798 224.53 49.4856C224.7 49.4438 225.03 49.5155 225.291 49.6739C225.677 49.8917 225.676 49.9175 225.278 49.8938ZM225.779 49.4823C225.654 49.4229 225.622 49.3042 225.704 49.2312C225.798 49.1589 225.904 49.1133 225.954 49.1423C226.004 49.1712 226.036 49.277 226.029 49.3934C226.022 49.5098 225.904 49.5417 225.779 49.4823ZM227.606 51.8763C227.396 51.9546 227.125 51.9515 226.963 51.8639C226.801 51.7763 226.821 51.6606 227.032 51.5824C227.242 51.5041 227.513 51.5072 227.675 51.5948C227.837 51.6824 227.817 51.798 227.606 51.8763ZM227.015 50.7894C227.109 50.7172 227.265 50.7005 227.377 50.7591C227.489 50.8178 227.571 50.9525 227.565 51.0689C227.558 51.1854 227.39 51.1883 227.202 51.0992C227.014 51.0101 226.933 50.8624 227.015 50.7894ZM227.09 50.1708C226.878 50.0543 226.739 49.7993 226.766 49.5672C226.78 49.3344 226.679 49.0817 226.492 48.9796C226.242 48.8479 226.374 48.7909 227.022 48.7257C227.661 48.6601 228.088 48.7807 228.301 49.0877C228.657 49.5894 227.651 50.477 227.077 50.17L227.09 50.1708Z" fill="#006D2C"/>
<path d="M246 38.8201C246.088 38.7416 246.122 38.6458 246.068 38.6146C246.015 38.5835 245.861 38.6022 245.692 38.6341C245.537 38.6667 245.504 38.7625 245.624 38.8396C245.746 38.9027 245.912 38.8987 246 38.8201Z" fill="#006D2C"/>
<path d="M198.643 12.1154C198.817 12.2098 199.041 12.1951 199.173 12.0632C199.409 11.8394 199.054 11.5104 198.608 11.5397C198.259 11.5609 198.28 11.9118 198.643 12.1154Z" fill="#006D2C"/>
<path d="M295.209 68.4767C294.573 68.4247 294.239 69.1327 294.59 69.7697C294.903 70.3344 294.93 70.35 295.506 70.2444C295.969 70.1601 296.116 70.0288 296.191 69.6973C296.347 68.9507 296.023 68.5534 295.209 68.4767Z" fill="#006D2C"/>
<path d="M256.864 49.3919C257.481 49.7507 257.633 49.7598 257.775 49.4744C257.916 49.2029 258.041 49.2104 258.438 49.528C259.113 50.0861 260.097 49.893 260.011 49.2301C259.926 48.5672 259.13 48.1698 258.716 48.5929C258.451 48.857 258.242 48.8725 257.754 48.6614C257.403 48.5005 257.074 48.4388 257 48.5044C256.927 48.57 256.697 48.6962 256.498 48.7823C256.213 48.9052 256.288 49.0357 256.866 49.364L256.864 49.3919Z" fill="#006D2C"/>
<path d="M279.942 61.8692C280.502 61.3286 280.182 60.6515 279.365 60.6167C278.811 60.5836 278.782 60.6099 278.733 61.1949C278.685 62.004 279.382 62.4097 279.929 61.8683L279.942 61.8692Z" fill="#006D2C"/>
<path d="M269.885 56.1597C269.707 56.1071 269.35 56.2817 269.07 56.5449C268.482 57.0975 268.583 57.9573 269.321 58.6311C269.729 59.0053 269.839 59.0259 270.176 58.7241C270.396 58.5274 270.602 58.3298 270.662 58.2633C270.721 58.1969 270.927 58.2372 271.129 58.3472C271.491 58.5508 271.491 58.5508 271.335 58.1496C271.25 57.9347 271.239 57.668 271.326 57.6033C271.591 57.3532 271.265 56.536 270.808 56.2708C270.567 56.1304 270.429 55.8843 270.48 55.7194C270.596 55.4045 270.039 54.9793 269.802 55.2171C269.714 55.2958 269.781 55.5657 269.933 55.8127C270.097 56.0884 270.075 56.227 269.898 56.1744L269.885 56.1597Z" fill="#006D2C"/>
<path d="M259.903 50.1192C259.764 50.1249 259.504 50.2914 259.298 50.4891C258.9 50.8713 259.428 51.3368 260.143 51.2255C260.857 51.1282 260.629 50.0646 259.903 50.1192Z" fill="#006D2C"/>
<path d="M287.97 67.6244C287.743 67.4848 287.311 67.0392 287.005 66.5871C286.34 65.6377 286.287 65.5925 285.602 65.6636C285.295 65.6872 284.964 65.6534 284.844 65.5763C284.495 65.3735 284.047 65.9065 283.738 66.8957C283.448 67.802 283.661 68.1787 284.8 68.8625C285.565 69.314 288.251 69.6565 288.493 69.335C288.779 68.9602 288.468 67.892 287.984 67.6252L287.97 67.6244Z" fill="#006D2C"/>
<path d="M257.064 50.2156C256.881 50.2606 256.76 50.4213 256.779 50.5763C256.81 50.746 256.959 50.8109 257.171 50.7536C257.354 50.7086 257.475 50.5479 257.443 50.3921C257.411 50.2223 257.262 50.1575 257.05 50.2148L257.064 50.2156Z" fill="#006D2C"/>
<path d="M261.753 52.847C261.627 52.8535 261.339 53.0322 261.148 53.2028C260.898 53.4399 260.912 53.6647 261.228 53.9496C261.781 54.4586 261.978 54.4283 262.392 53.7671C262.7 53.2675 262.367 52.7857 261.753 52.833L261.753 52.847Z" fill="#006D2C"/>
<path d="M244.609 45.1328C245.012 45.3667 245.758 45.2014 245.891 44.8317C246.039 44.4488 245.652 44.1879 245.049 44.2778C244.517 44.3579 244.247 44.9153 244.623 45.1336L244.609 45.1328Z" fill="#006D2C"/>
<path d="M311.967 84.7189C311.781 83.6578 311.191 83.0766 310.331 83.0532C308.806 83.0181 309.394 85.0271 311.079 85.6457C312.044 85.9974 312.178 85.8514 311.967 84.7189Z" fill="#006D2C"/>
<path d="M278.225 65.2788C277.844 65.382 277.686 65.9321 277.982 66.1036C278.371 66.3228 278.639 66.2548 278.843 65.8753C279.044 65.5236 278.677 65.1519 278.226 65.2649L278.225 65.2788Z" fill="#006D2C"/>
<path d="M299.681 78.4284C299.54 78.4619 299.507 78.5576 299.627 78.6347C299.749 78.6978 299.929 78.6946 300.017 78.6161C300.105 78.5375 300.125 78.4409 300.071 78.4097C300.018 78.3786 299.85 78.3965 299.681 78.4284Z" fill="#006D2C"/>
<path d="M294.52 83.7185C295.093 83.4307 294.867 82.7873 294.009 82.2741C293.459 81.9472 293.389 81.971 293.067 82.4698C292.883 82.7667 292.725 83.0793 292.735 83.1499C292.789 83.4051 294.442 84.5678 294.574 84.4497C294.647 84.3841 294.559 84.2388 294.384 84.1304C294.143 83.99 294.177 83.88 294.52 83.7185Z" fill="#006D2C"/>
<path d="M304.852 90.1852C304.372 90.3104 304.461 90.6795 305.065 91.0234C305.589 91.3204 305.603 91.3213 305.536 90.8137C305.459 90.2495 305.275 90.0706 304.866 90.1721L304.852 90.1852Z" fill="#006D2C"/>
<path d="M247.292 57.6369C246.956 57.4349 246.806 57.3979 246.963 57.5613C247.121 57.7107 247.416 57.8823 247.594 57.921C247.772 57.9596 247.641 57.8397 247.305 57.6377L247.292 57.6369Z" fill="#006D2C"/>
<path d="M246.262 59.5208C246.42 59.6702 246.715 59.8418 246.894 59.8805C247.072 59.9191 246.94 59.7992 246.605 59.5972C246.27 59.3952 246.119 59.3582 246.276 59.5216L246.262 59.5208Z" fill="#006D2C"/>
<path d="M283.104 82.8541C283.315 82.3349 283.254 82.2053 282.596 81.8301C282.179 81.5953 281.539 81.3891 281.179 81.3816C280.805 81.3593 280.396 81.2369 280.225 81.0727C279.739 80.6098 278.787 80.511 277.837 80.8461C277.114 81.0968 276.967 81.2279 276.974 81.5782C276.975 81.8022 276.859 82.1171 276.725 82.2631C276.12 82.8567 277.996 85.3899 278.884 85.1631C279.067 85.118 279.382 85.1928 279.625 85.3193C279.866 85.4597 280.06 85.4712 280.067 85.3457C280.075 85.2202 280.363 85.2794 280.725 85.483C281.088 85.6866 281.32 85.9943 281.294 86.1887C281.254 86.3963 281.383 86.5579 281.591 86.5703C281.84 86.5852 281.918 86.4359 281.833 85.997C281.63 84.9773 281.686 84.7427 282.149 84.4205C282.483 84.1885 282.662 84.1992 283.007 84.4717C283.484 84.8641 283.821 84.7863 283.444 84.3579C283.301 84.1954 283.367 84.0314 283.609 83.9199C283.937 83.7855 283.912 83.7281 283.435 83.5876C282.956 83.4611 282.909 83.3323 283.118 82.841L283.104 82.8541Z" fill="#006D2C"/>
<path d="M246.938 61.9263C246.992 62.1815 247.085 62.2431 247.435 62.208C247.769 62.186 247.747 62.1006 247.371 61.8822C246.995 61.6638 246.884 61.6711 246.939 61.9124L246.938 61.9263Z" fill="#006D2C"/>
<path d="M150.916 9.03987C151.041 9.03339 150.951 8.91624 150.721 8.80474C150.479 8.6785 150.381 8.68664 150.498 8.81936C150.615 8.95208 150.79 9.04635 150.916 9.03987Z" fill="#006D2C"/>
<path d="M272.975 80.6535C272.613 80.6739 272.539 81.4389 272.875 81.6268C273.211 81.8148 273.399 81.7001 273.594 81.2221C273.71 80.9073 273.395 80.6086 272.976 80.6396L272.975 80.6535Z" fill="#006D2C"/>
<path d="M245.89 67.1535C245.738 66.6828 245.711 66.6672 245.229 66.8342C244.803 66.9767 244.801 67.0185 245.17 67.1106C245.459 67.1697 245.51 67.2427 245.312 67.3009C245.115 67.345 245.192 67.4476 245.505 67.5502C246.105 67.7399 246.089 67.767 245.902 67.1822L245.89 67.1535Z" fill="#006D2C"/>
<path d="M281.125 88.7818C280.252 88.2818 280.197 88.2785 279.548 88.6876C278.884 89.1097 278.87 89.1089 278.099 88.5311C277.475 88.0599 277.135 87.9416 276.372 87.938C275.525 87.9294 275.354 88.0032 274.859 88.6174C274.08 89.5785 274.19 90.9985 275.14 92.0489C276.155 93.1872 276.397 93.3276 276.706 93.0242C276.854 92.8791 277.207 92.7742 277.47 92.7899C277.83 92.8114 277.902 92.7597 277.773 92.5981C277.489 92.2452 277.745 92.1346 278.514 92.2785C278.884 92.3566 279.303 92.3256 279.421 92.2067C279.539 92.0878 279.926 92.1109 280.32 92.2604C280.972 92.5093 281.029 92.4847 281.453 91.8803C281.697 91.517 281.934 90.8034 281.981 90.2604C282.048 89.3687 281.985 89.253 281.153 88.7695L281.125 88.7818Z" fill="#006D2C"/>
<path d="M240.912 67.752C240.78 67.87 240.473 67.8937 240.173 67.8058C239.886 67.7187 239.595 67.7153 239.507 67.794C239.315 67.9784 239.679 68.168 240.06 68.0648C240.258 68.0067 240.391 68.0986 240.474 68.3414C240.532 68.5267 240.703 68.6908 240.828 68.6843C240.953 68.6918 240.958 68.6081 240.81 68.5293C240.676 68.4514 240.658 68.2824 240.79 68.1644C240.923 68.0325 241.12 67.9883 241.24 68.0654C241.362 68.1286 241.475 68.0934 241.481 67.9819C241.514 67.6621 241.148 67.5143 240.898 67.7512L240.912 67.752Z" fill="#006D2C"/>
<path d="M239.176 68.6977C239.28 68.8156 239.468 68.9246 239.593 68.9182C239.719 68.9117 239.628 68.8085 239.399 68.683C239.157 68.5568 239.059 68.5649 239.176 68.6977Z" fill="#006D2C"/>
<path d="M269.277 88.6337C268.953 88.0265 268.952 87.8025 269.259 87.7789C269.929 87.7209 269.954 87.5265 269.31 87.1522C268.975 86.9502 268.699 86.6958 268.72 86.5851C268.735 86.3201 267.623 85.6519 266.883 85.4817C266.623 85.4242 266.33 85.4487 266.243 85.5134C266.169 85.593 265.942 85.6774 265.759 85.7085C265.212 85.8017 264.049 86.6839 264.174 86.9153C264.235 87.0449 264.168 87.2508 264.005 87.409C263.858 87.5542 263.82 87.9578 263.94 88.2728C264.06 88.5879 264.081 88.925 264.007 89.0046C263.683 89.3211 264.405 90.2459 265.438 90.8534C266.015 91.1818 266.425 91.5282 266.337 91.6069C266.249 91.6856 266.324 91.83 266.498 91.9384C266.914 92.1732 267.151 91.9214 266.912 91.5153C266.748 91.2396 266.806 91.1871 267.339 91.1069C267.942 91.003 267.955 91.0178 267.971 91.4526C267.983 91.7052 268.11 91.9087 268.289 91.9334C268.455 91.9433 268.534 91.5422 268.455 91.0057C268.29 89.8203 268.47 89.607 269.456 89.8339C269.989 89.9637 270.13 89.9302 269.96 89.7521C269.83 89.6044 269.527 89.1104 269.29 88.6624L269.277 88.6337Z" fill="#006D2C"/>
<path d="M246.026 74.8731C245.56 74.9992 245.223 75.7491 245.482 76.0725C245.844 76.5141 246.264 76.4552 246.7 75.9073C247 75.5332 246.999 75.3232 246.721 75.0966C246.508 74.9299 246.181 74.8264 246.012 74.8722L246.026 74.8731Z" fill="#006D2C"/>
<path d="M233.482 69.6591C233.586 69.7771 233.774 69.8861 233.899 69.8796C234.024 69.8731 233.933 69.7699 233.705 69.6445C233.462 69.5182 233.365 69.5264 233.482 69.6591Z" fill="#006D2C"/>
<path d="M228.842 72.7268C228.668 72.6186 228.474 72.607 228.386 72.6995C228.297 72.792 228.402 72.8821 228.621 72.9371C228.84 72.9921 229.048 73.0045 229.078 72.9644C229.122 72.9251 229.017 72.821 228.842 72.7268Z" fill="#006D2C"/>
<path d="M226.603 73.0268C226.707 73.1447 226.895 73.2537 227.02 73.2473C227.145 73.2408 227.054 73.1376 226.826 73.0121C226.583 72.8859 226.486 72.894 226.603 73.0268Z" fill="#006D2C"/>
<path d="M219.59 73.0558C219.502 73.1345 219.536 73.2625 219.657 73.3258C219.778 73.389 219.892 73.3398 219.899 73.2282C219.906 73.1027 219.885 72.9894 219.832 72.9582C219.778 72.927 219.679 72.9631 219.59 73.0558Z" fill="#006D2C"/>
<path d="M201.729 73.6261C201.575 73.6588 201.541 73.7546 201.661 73.8316C201.782 73.9087 201.95 73.8908 202.038 73.8122C202.126 73.7336 202.159 73.6379 202.105 73.6067C202.052 73.5756 201.898 73.5943 201.729 73.6261Z" fill="#006D2C"/>
<path d="M195.664 74.0613C195.781 74.194 195.956 74.2883 196.082 74.2818C196.207 74.2753 196.117 74.1582 195.887 74.0467C195.645 73.9204 195.547 73.9286 195.664 74.0613Z" fill="#006D2C"/>
<path d="M173.974 73.4231C174.175 73.5469 174.436 73.6044 174.605 73.5586C175.099 73.4344 174.901 73.255 174.25 73.23C173.695 73.2109 173.666 73.2371 173.974 73.4231Z" fill="#006D2C"/>
<path d="M201.649 97.7487C201.494 97.7953 201.461 97.8771 201.568 97.9394C201.689 98.0025 201.896 98.0289 202.066 97.9831C202.235 97.9374 202.254 97.8547 202.146 97.7924C202.025 97.7292 201.818 97.7029 201.649 97.7487Z" fill="#006D2C"/>
<path d="M148.991 74.0162C148.284 73.988 148.228 74.2366 148.885 74.3879C149.118 74.4438 149.412 74.4054 149.529 74.3004C149.706 74.1336 149.526 74.0389 148.991 74.0162Z" fill="#006D2C"/>
<path d="M141.158 72.6666C141.05 72.6043 140.869 72.6214 140.78 72.7138C140.692 72.7924 140.769 72.8948 140.921 72.9039C141.101 72.9146 141.254 72.9098 141.299 72.8566C141.343 72.8173 141.279 72.7297 141.158 72.6666Z" fill="#006D2C"/>
<path d="M110.38 74.5085C110.292 74.5872 110.312 74.7144 110.433 74.7776C110.554 74.8409 110.707 74.836 110.796 74.7573C110.884 74.6785 110.863 74.5513 110.742 74.4881C110.621 74.4249 110.468 74.4297 110.38 74.5085Z" fill="#006D2C"/>
<path d="M104.663 74.4467C104.78 74.5794 104.955 74.6737 105.081 74.6672C105.206 74.6607 105.116 74.5436 104.886 74.4321C104.644 74.3058 104.546 74.314 104.663 74.4467Z" fill="#006D2C"/>
<path d="M99.5966 74.662C99.5966 74.662 99.4264 74.7218 99.2944 74.8398C99.1762 74.9586 99.2198 75.1571 99.3939 75.2654C99.6762 75.4222 99.7332 75.3976 99.6962 75.0876C99.681 74.8769 99.6365 74.6924 99.5966 74.662Z" fill="#006D2C"/>
<path d="M97.4394 74.7568C97.3769 74.6413 97.1026 74.583 96.8363 74.623C96.3038 74.703 96.4738 74.8807 97.151 74.9352C97.4139 74.9509 97.5141 74.901 97.4532 74.7577L97.4394 74.7568Z" fill="#006D2C"/>
<path d="M98.1165 75.735L97.5242 75.4198L97.9299 75.8358L98.3356 76.2517L97.7572 75.9374C97.4342 75.7642 97.1055 75.6886 97.0166 75.7812C96.8397 75.9525 97.4466 76.2546 98.0685 76.3057C98.718 76.3585 98.7624 76.0814 98.1433 75.7506L98.1165 75.735Z" fill="#006D2C"/>
<path d="M93.2558 74.8291C92.9605 74.6574 92.81 74.6204 92.9132 74.7526C93.0172 74.8708 93.258 75.0252 93.4362 75.0638C93.6283 75.1033 93.5511 75.0007 93.242 74.8282L93.2558 74.8291Z" fill="#006D2C"/>
<path d="M88.3861 73.3905C88.4741 73.3118 88.4401 73.1838 88.3189 73.1205C88.1977 73.0573 88.0837 73.1065 88.077 73.2181C88.0695 73.3436 88.0905 73.4569 88.1442 73.4881C88.1979 73.5193 88.2972 73.4832 88.3861 73.3905Z" fill="#006D2C"/>
<path d="M88.8175 74.074C88.6376 74.0632 88.2996 74.141 88.0284 74.2647C87.5861 74.4621 87.5999 74.4629 88.1324 74.3828C88.441 74.3313 88.8528 74.4118 89.0529 74.5497C89.2521 74.7015 89.5247 74.7877 89.6518 74.7534C89.9482 74.6731 89.2594 74.1144 88.8166 74.0879L88.8175 74.074Z" fill="#006D2C"/>
<path d="M87.1356 73.6376C87.0329 73.7294 86.8555 73.6768 86.7003 73.4856C86.5191 73.265 86.4726 73.3461 86.5721 73.7718C86.6498 74.0982 86.8286 74.3607 86.954 74.3542C87.4001 74.3249 87.8624 73.7929 87.5801 73.6361C87.4191 73.5426 87.2245 73.5449 87.1356 73.6376Z" fill="#006D2C"/>
<path d="M79.6044 72.8099C79.5164 72.8886 79.5374 73.0019 79.644 73.0782C79.7513 73.1406 79.9581 73.167 80.1283 73.1072C80.283 73.0744 80.2628 72.9472 80.0888 72.8388C79.9147 72.7304 79.6933 72.7172 79.6044 72.8099Z" fill="#006D2C"/>
<path d="M82.0602 74.4679C81.9046 74.5145 81.872 74.5964 81.9794 74.6587C82.1006 74.7218 82.3073 74.7481 82.4767 74.7023C82.6461 74.6566 82.6649 74.5739 82.5575 74.5116C82.4363 74.4485 82.2296 74.4222 82.0602 74.4679Z" fill="#006D2C"/>
<path d="M78.7324 73.4714C78.537 73.4877 78.1805 73.4105 77.9079 73.3243C77.5816 73.2068 77.6458 73.2946 78.0745 73.558C78.4226 73.7747 78.8579 73.9266 78.9988 73.893C79.3514 73.8022 79.1353 73.4675 78.7454 73.4862L78.7324 73.4714Z" fill="#006D2C"/>
<path d="M68.8227 72.7115C68.6957 72.7459 68.6727 72.8985 68.8035 73.0323C68.9458 73.2088 69.0573 73.2015 69.1243 73.0095C69.255 72.6813 69.19 72.6075 68.8366 72.7123L68.8227 72.7115Z" fill="#006D2C"/>
</g>
<defs>
<clipPath id="clip0_62_10">
<rect width="310.919" height="86.1394" fill="white" transform="translate(5.67969) rotate(3.41892)"/>
</clipPath>
</defs>
</svg>
