<svg width="31" height="33" viewBox="0 0 31 33" fill="none" xmlns="http://www.w3.org/2000/svg">
<g clip-path="url(#clip0_1_9)">
<g filter="url(#filter0_d_1_9)">
<path fill-rule="evenodd" clip-rule="evenodd" d="M1.27108 0.844818C0.82345 0.844818 0.460571 1.2077 0.460571 1.65533V27.932C0.460571 28.654 1.33361 29.0156 1.84421 28.505L28.1204 2.22844C28.631 1.71785 28.2694 0.844818 27.5474 0.844818H1.27108ZM18.4602 18.844C18.1437 18.5274 17.6305 18.5274 17.314 18.844L7.6526 28.5046C7.14198 29.0151 7.50359 29.8881 8.2257 29.8881H27.5475C28.2697 29.8881 28.6313 29.0152 28.1207 28.5046L18.4602 18.844Z" fill="#2E68B8"/>
<path d="M0.663191 27.932V1.65532H0.257935V27.932H0.663191ZM27.9772 2.08516L1.70092 28.3618L1.98747 28.6483L28.2637 2.37172L27.9772 2.08516ZM1.27108 1.04744H27.5474V0.642181H1.27108V1.04744ZM7.79587 28.6478L17.4573 18.9873L17.1706 18.7006L7.50932 28.3613L7.79587 28.6478ZM27.5475 29.6855H8.22569V30.0908H27.5475V29.6855ZM18.3168 18.9873L27.9773 28.6479L28.264 28.3613L18.6035 18.7006L18.3168 18.9873ZM27.5475 30.0908C28.4501 30.0908 28.9021 28.9995 28.264 28.3613L27.9773 28.6479C28.3603 29.0307 28.0891 29.6855 27.5475 29.6855V30.0908ZM17.4573 18.9873C17.6946 18.7498 18.0795 18.7498 18.3168 18.9873L18.6035 18.7006C18.2078 18.3051 17.5663 18.305 17.1706 18.7006L17.4573 18.9873ZM7.50932 28.3613C6.87104 28.9995 7.32307 30.0908 8.22569 30.0908V29.6855C7.68411 29.6855 7.4129 29.0307 7.79587 28.6478L7.50932 28.3613ZM28.2637 2.37172C28.902 1.73347 28.45 0.642181 27.5474 0.642181V1.04744C28.0889 1.04744 28.3602 1.70221 27.9772 2.08516L28.2637 2.37172ZM0.663191 1.65532C0.663191 1.3196 0.93535 1.04744 1.27108 1.04744V0.642181C0.711533 0.642181 0.257935 1.09578 0.257935 1.65532H0.663191ZM0.257935 27.932C0.257935 28.8345 1.34923 29.2866 1.98747 28.6483L1.70092 28.3618C1.31797 28.7446 0.663191 28.4735 0.663191 27.932H0.257935Z" fill="black"/>
</g>
</g>
<defs>
<filter id="filter0_d_1_9" x="0.257935" y="0.642181" width="30.331" height="31.4749" filterUnits="userSpaceOnUse" color-interpolation-filters="sRGB">
<feFlood flood-opacity="0" result="BackgroundImageFix"/>
<feColorMatrix in="SourceAlpha" type="matrix" values="0 0 0 0 0 0 0 0 0 0 0 0 0 0 0 0 0 0 127 0" result="hardAlpha"/>
<feOffset dx="2.02628" dy="2.02628"/>
<feComposite in2="hardAlpha" operator="out"/>
<feColorMatrix type="matrix" values="0 0 0 0 0 0 0 0 0 0.47451 0 0 0 0 0.937255 0 0 0 0.13 0"/>
<feBlend mode="normal" in2="BackgroundImageFix" result="effect1_dropShadow_1_9"/>
<feBlend mode="normal" in="SourceGraphic" in2="effect1_dropShadow_1_9" result="shape"/>
</filter>
<clipPath id="clip0_1_9">
<rect width="30.5293" height="31.61" fill="white" transform="translate(0.190369 0.569977)"/>
</clipPath>
</defs>
</svg>
