<svg width="172" height="75" viewBox="0 0 172 75" fill="none" xmlns="http://www.w3.org/2000/svg">
<g clip-path="url(#clip0_62_1438)">
<path d="M0.17632 60.4862C0.323253 60.7039 0.587733 60.5588 0.499573 59.8694L0 59.3977L0.17632 60.4862Z" fill="#2E68B8"/>
<path d="M1.02844 55.7693C0.822736 54.9347 0.52887 53.955 0.0292969 54.4267C0.411323 55.2976 0.205617 55.479 0.734576 56.3861C0.763963 57.0755 0.52887 57.5835 0.35255 57.4746C0.44071 57.7286 0.26439 58.5632 0.587643 58.926C0.910896 57.9826 0.969669 56.8941 0.70519 55.6967C0.822736 55.4427 0.940283 55.6967 1.02844 55.7693Z" fill="#2E68B8"/>
<path d="M72.1144 7.58344C71.8793 7.656 71.7617 7.72857 71.7617 7.80114C71.9968 7.72857 72.1731 7.656 72.1144 7.58344Z" fill="#2E68B8"/>
<path d="M77.8154 7.18433C77.8154 7.18433 77.5803 7.18433 77.4922 7.18433C77.6391 7.18433 77.7567 7.22061 77.8154 7.18433Z" fill="#2E68B8"/>
<path d="M39.3193 15.566L40.2303 15.4934C40.2303 15.2757 39.7601 15.4934 39.3193 15.566Z" fill="#2E68B8"/>
<path d="M1.5578 46.299C1.49902 46.553 1.49902 46.7344 1.49902 46.9521L1.61657 46.3716L1.5578 46.299Z" fill="#2E68B8"/>
<path d="M25.5665 21.6618L25.3314 21.8069C25.3314 21.8069 25.2433 22.0246 25.2139 22.1335L25.5959 21.6618H25.5665Z" fill="#2E68B8"/>
<path d="M15.9276 28.3745C16.1333 28.193 15.957 27.7213 15.9276 27.4673C15.9276 27.7576 15.81 27.9753 15.6631 28.1568C15.6925 28.2293 15.7806 28.3019 15.9276 28.3745Z" fill="#2E68B8"/>
<path d="M4.11453 44.1582L4.02637 44.5573C4.02637 44.5573 4.08514 44.3033 4.11453 44.1582Z" fill="#2E68B8"/>
<path d="M33.0898 18.3599C33.0898 18.3599 33.178 18.4688 33.2368 18.5051C33.2368 18.4325 33.178 18.3962 33.0898 18.3599Z" fill="#2E68B8"/>
<path d="M20.7171 51.6691C20.7171 51.6691 20.7465 51.6328 20.7759 51.5965C20.6877 51.5965 20.6583 51.5965 20.7171 51.6691Z" fill="#2E68B8"/>
<path d="M14.958 36.5022L15.0462 36.6836C15.0462 36.6836 15.1931 36.6836 15.2813 36.611L14.958 36.4659V36.5022Z" fill="#2E68B8"/>
<path d="M88.1895 6.27722C88.1895 6.27722 88.1895 6.27722 88.1307 6.27722C87.8662 6.38608 88.0132 6.34979 88.1895 6.27722Z" fill="#2E68B8"/>
<path d="M168.444 40.0943C168.768 38.7881 168.944 42.1262 169.326 40.2032C169.208 40.3846 168.562 38.5341 168.444 40.0943Z" fill="#2E68B8"/>
<path d="M1.7041 45.9361L1.88042 45.3556C1.79226 45.6096 1.73349 45.791 1.7041 45.9361Z" fill="#2E68B8"/>
<path d="M169.326 40.2032L169.355 39.9855C169.355 40.058 169.355 40.1306 169.326 40.2032Z" fill="#2E68B8"/>
<path d="M112.052 4.68072C112.052 4.68072 111.905 4.53558 111.816 4.46301C111.816 4.4993 111.875 4.57187 112.052 4.68072Z" fill="#2E68B8"/>
<path d="M121.308 4.49927C121.543 4.57184 121.631 4.64441 121.954 4.60812C121.954 4.60812 121.895 4.57184 121.866 4.53555C121.748 4.60812 121.572 4.60812 121.308 4.53555V4.49927Z" fill="#2E68B8"/>
<path d="M130.888 5.80554L130.712 5.6604C130.712 5.6604 130.506 5.6604 130.418 5.6604L130.888 5.84182V5.80554Z" fill="#2E68B8"/>
<path d="M47.4887 68.7591C47.3124 68.5414 47.2243 68.36 47.1361 68.1785C47.1949 68.5777 45.7843 68.1785 47.4887 68.7591Z" fill="#2E68B8"/>
<path d="M1.79244 46.3716C1.79244 46.3716 1.70428 46.1176 1.73367 45.9362L1.64551 46.3353C1.64551 46.3353 1.73367 46.4441 1.79244 46.3353V46.3716Z" fill="#2E68B8"/>
<path d="M121.954 0.54425L123.512 0.761957C123.071 0.689388 122.512 0.580535 121.954 0.54425Z" fill="#2E68B8"/>
<path d="M117.312 74.1655L116.959 74.2743C116.959 74.2743 117.223 74.2743 117.312 74.1655Z" fill="#2E68B8"/>
<path d="M128.126 1.30621C128.39 1.52392 128.655 1.66906 128.978 1.77791C129.037 1.77791 129.125 1.74163 129.184 1.66906L128.155 1.30621H128.126Z" fill="#2E68B8"/>
<path d="M36.9687 65.1669C38.3792 65.8563 37.8209 64.8766 38.2323 64.6589C39.9661 65.2758 38.8494 65.4935 39.3196 66.074C40.4069 66.4369 41.406 66.1466 42.1995 66.5094C42.2289 66.6546 42.3758 66.7271 42.1701 66.7997C43.4043 66.7997 45.5202 68.0697 46.9895 67.8882C47.0777 67.9971 47.107 68.0697 47.1364 68.106C46.9895 67.7068 47.0483 67.3803 47.1364 67.1626C47.7829 67.3803 48.4001 67.1626 48.5764 67.6343C48.1943 67.4891 48.1062 67.6343 47.9005 67.7431H48.6058C49.0759 68.5414 47.636 67.7068 47.5478 68.1422C48.929 68.3599 50.5453 68.3237 51.515 68.7954C51.6032 69.4848 49.1053 68.2874 50.369 69.2308L48.8409 68.5414C49.84 69.8476 47.9005 68.1785 48.8115 69.521C50.8685 70.3193 51.1918 69.9202 53.2488 70.6459C53.7778 70.4282 53.1901 70.1016 53.6896 69.8839C56.7165 70.029 55.8055 71.9521 58.0976 71.6255C58.7148 71.3353 59.038 70.6096 60.5367 71.299L59.9196 71.8795C61.9473 72.3149 61.1832 71.1176 63.2697 71.9158C62.8583 72.1335 61.6534 71.9158 61.9473 72.0247C63.2697 72.7866 62.9758 71.7707 64.0337 71.9521L64.1807 72.6052C66.3553 72.8592 68.765 72.7504 71.1747 72.9318C71.0278 73.1132 70.587 73.2221 71.1747 73.5123C74.2309 73.5849 77.6398 74.3106 80.549 74.8911L81.6951 74.4557C81.9596 74.4557 82.1653 74.746 81.8714 74.8186C83.0175 75.1089 81.9596 74.492 82.5179 74.3106C83.1644 74.3106 83.3702 74.6734 82.9294 74.8186C84.957 74.492 88.6891 74.1655 90.805 74.8186L90.3936 74.9637C92.0392 75.2177 92.2743 73.9478 93.8024 74.4557L93.5085 74.5646C97.0937 74.8549 101.061 74.3106 103.823 75.0363C104.323 74.238 107.379 75.2177 107.585 74.1655C109.642 74.6009 109.083 74.8186 111.963 75C112.727 75 113.08 74.2743 114.02 74.0929L114.079 74.6372L115.343 73.9477L116.077 74.5646L116.959 74.3469C116.606 74.3469 116.195 74.1655 116.224 73.984C117.606 73.6212 119.633 74.0566 119.692 74.3469L122.954 73.5123C122.895 73.73 122.366 73.8752 121.925 74.0929C123.63 73.3309 122.278 74.6372 123.865 73.9477C123.63 73.8389 123.953 73.6212 123.982 73.4761C124.805 73.6938 126.627 73.476 127.979 73.1132L127.744 73.5486C130.183 73.2946 132.857 72.6052 135.59 72.0972C134.591 72.0972 134.738 71.4078 135.531 71.1901L135.913 71.6981C136.384 71.2264 135.061 71.6255 136.06 71.0087C137.089 70.8999 136.824 71.553 136.266 71.8432L137.471 71.4078C137.471 71.4078 137.295 71.6981 137.236 71.9521C137.706 71.4804 139.44 72.1698 140.086 71.3716L140.175 71.5167C142.907 70.9361 144.083 70.537 146.316 69.9565C146.287 69.4485 147.169 69.3396 147.756 68.7591C149.402 68.4688 151.312 68.3237 153.252 67.5617C154.545 66.7634 153.545 66.9811 154.074 66.4732C154.28 66.9086 156.22 66.0015 155.309 66.7634C157.601 65.6386 158.277 65.312 160.892 63.135C160.51 63.1713 160.157 63.3164 160.275 63.0624C160.745 62.6633 161.48 62.4456 161.48 62.6633L161.362 62.8084C162.743 61.3933 164.507 60.1597 166.123 58.5994C167.739 57.0755 169.091 55.1887 169.444 53.3382L169.385 53.5559C169.796 52.3585 170.061 51.1611 170.296 49.9637C170.854 48.4035 170.266 51.0523 170.854 49.9637C171.295 45.8999 172.118 43.6865 171.648 40.3483C172.147 39.0421 171.941 36.7199 171.413 34.434C170.913 32.1118 170.061 29.8984 169.796 28.1568L169.62 28.4833C169.12 27.7939 169.385 27.4311 169.179 26.8142C169.032 26.9957 169.326 27.7939 169.003 27.3948C167.504 24.1655 165.8 20.9724 163.654 18.106C161.539 15.2758 159.1 12.7721 156.484 10.7765C154.545 9.39768 154.78 11.4659 152.546 9.32511L153.457 9.17997C149.196 7.4746 144.965 5.1524 140.674 4.57185C140.939 4.49928 140.997 4.31786 141.379 4.46299C140.586 3.77359 138.117 3.55588 138.059 3.91873C137.412 3.70102 137.971 3.55588 137.589 3.30189C136.736 2.83019 135.296 3.33817 134.885 2.83019C134.826 2.75762 135.149 2.72134 135.326 2.72134C134.709 2.83019 132.622 2.14079 133.122 2.75762C131.564 2.24964 130.095 2.35849 128.861 1.92308C127.979 2.35849 126.186 1.26996 125.863 2.03193C126.04 1.19739 123.16 1.01597 122.131 1.34253C122.484 1.12482 121.279 1.01597 121.69 0.689409C120.544 0.580555 119.486 0.653124 119.663 1.08854C117.606 -0.0725651 115.402 1.6328 114.256 0.290279C110.817 0.61684 107.702 0.870831 104.675 1.16111C104.764 0.326564 108.055 0.979684 107.908 0.145142C104.999 0.544271 103.353 1.26996 100.503 1.19739C99.7679 1.12482 100.914 0.834547 101.149 0.653124C98.2692 1.16111 95.5656 0.907115 93.0384 1.6328C93.0384 1.56024 93.3028 1.45138 93.5673 1.34253C93.0677 1.4151 92.3919 1.34253 92.48 1.70537L92.9796 1.56024C93.8024 2.03193 91.0401 2.86648 90.9813 3.15675C91.7453 1.99565 88.454 3.15675 89.6883 1.66909C89.365 1.77794 88.9536 1.99565 89.0418 2.24964C88.5422 2.24964 88.3659 2.1045 88.8655 1.77794C87.0729 2.21336 87.7488 2.50363 86.1325 2.72134C86.1325 2.53992 86.4558 2.43106 86.6027 2.21336C85.8092 2.68505 85.0158 3.08418 83.6052 3.15675C83.664 3.0479 83.5171 2.90276 83.9285 2.86648C81.5776 3.30189 79.9907 4.35414 77.3753 4.53556C78.0512 3.62845 76.4643 4.42671 76.2586 3.80987L74.9068 4.24529L75.4945 4.46299C74.2897 4.6807 73.2612 5.33382 72.2032 5.33382L73.0554 4.86212L70.7927 5.44267H72.1151C70.9396 6.02323 72.3502 6.24093 70.7339 6.38607C71.0571 6.24093 69.529 6.64006 68.8532 6.38607C68.2948 6.71263 67.7071 7.07548 66.7961 7.11176C66.5316 6.96662 66.8843 6.34979 66.7079 6.24093C66.2084 6.93034 63.9162 7.03919 63.2403 7.80117C63.4754 7.61974 63.4166 7.2569 63.3285 7.18433L62.917 7.76488C62.3293 7.76488 62.2412 7.69231 62.2999 7.40204C60.6249 7.7286 62.9758 8.12773 60.9188 8.23658C61.0657 8.16401 60.9775 8.12773 61.3008 7.98259C59.2731 8.27286 57.4805 9.17997 55.6292 9.43397C54.9827 8.8897 57.216 8.85341 56.4814 8.45429C53.866 9.25254 51.133 10.6676 48.5764 11.2119L49.0759 11.1393C48.8996 12.1916 47.107 11.2119 45.8728 12.0102C46.1667 11.865 46.1961 11.3933 46.1373 11.5022C44.3741 11.8287 42.6109 12.7359 40.0249 13.8244L40.2893 13.4978C39.2314 13.6067 37.5564 14.2235 36.4397 14.4775C36.1752 14.8404 35.5287 14.9855 35.9989 15.2032C32.2668 15.0218 29.7689 18.3237 26.5364 18.6502C26.889 18.4688 27.3004 18.0334 27.036 18.1785C26.2131 18.6502 25.4197 19.1582 24.6263 19.6299C24.9495 19.9202 25.0377 19.7025 25.6548 19.7388C25.4197 20.1379 24.8026 20.6459 24.1855 21.0087C25.1846 20.1379 23.9504 20.3919 23.392 20.4644C23.5096 20.537 23.392 20.7547 23.4802 20.8636C21.9521 20.9361 23.539 21.7344 21.6876 22.315V22.061C21.0999 22.5327 20.6297 23.1858 19.9538 23.5849C19.4836 23.3672 20.5415 22.9318 20.424 22.5689C19.4836 23.2221 18.9253 24.6372 17.8967 24.8549C18.22 24.4557 18.7783 24.0203 19.131 23.6212C17.9849 23.8026 17.9261 24.0203 17.2208 24.4557H17.2796C16.7213 24.746 16.1629 25.1089 15.6046 25.4354L16.0747 25.254C15.5164 27.2134 13.9001 27.3948 12.901 29.4993C13.8708 27.5036 12.901 28.9187 12.7247 28.3745C12.2839 28.6285 11.6374 29.0639 11.6961 28.7736C11.2847 29.8258 10.4031 29.717 9.87417 31.2772C9.72724 31.2046 9.19828 32.0755 9.08073 31.6038C8.34606 32.7286 9.46276 31.6038 9.52153 31.8215C8.66932 33.7446 6.25961 35.1234 5.37801 38.2076C4.40825 40.6386 4.64335 41.3643 3.93807 43.6502C3.40911 44.2671 3.73236 42.7794 3.73236 42.7794C3.02708 43.8316 2.7626 44.8113 2.49812 46.045C2.43935 45.7547 2.29242 45.9361 2.02794 46.2264C1.76346 47.2061 2.3218 47.0972 1.76346 48.2584C1.6753 47.9681 1.49898 47.6052 1.49898 47.061C1.26388 48.2584 1.29327 49.5283 1.14634 50.762C0.823084 51.016 0.911244 49.9274 0.881857 49.4195C0.646764 50.8345 0.441057 53.0842 0.793697 53.5922C0.881857 53.3019 0.94063 53.0116 1.02879 52.7213C0.970017 53.2293 0.646764 52.9028 0.646764 52.5036C0.529217 51.2337 1.05818 50.8345 1.20511 50.7983L1.14634 51.7054C2.08671 51.0523 1.6753 48.2583 2.26303 46.553L2.64506 47.4964C2.64506 46.8795 2.64506 46.2264 2.67444 45.5733C2.93892 45.283 3.35033 45.2105 3.14463 46.045C3.82052 45.0653 3.32095 44.9202 3.96745 44.1219C4.05561 44.0493 4.05561 44.1219 4.05561 44.2308C4.11439 43.8316 4.23193 43.4325 4.34948 43.0334C4.34948 43.3237 4.81967 43.106 4.43764 43.6865C5.52495 41.9811 5.43679 40.3483 6.17145 39.9492L6.11268 40.1306C7.28814 37.4819 5.8482 39.5864 6.46532 37.3367C6.99428 37.1553 7.55262 37.0464 8.11097 36.9376L7.90526 36.357C8.08158 36.1393 8.40484 35.6676 8.493 35.8853C8.84564 34.7605 8.22852 35.8853 8.37545 35.1234C9.46276 34.2888 10.5207 31.8941 11.226 32.2932C11.2847 31.6038 10.2268 33.0914 10.9615 31.7489C11.7549 32.1118 11.9606 30.3338 13.0479 29.7896C13.0479 30.4064 12.1369 31.0958 13.1949 30.5152C13.283 29.3541 14.9287 28.955 15.6046 28.193C15.3107 27.6125 17.1033 26.4877 18.3669 25.3266C18.3669 25.5806 21.0411 23.7663 22.4516 23.2221V23.3309C22.4516 22.5689 23.8622 21.8795 24.832 21.1901C24.9201 21.5893 24.8026 21.807 24.303 22.2787L25.2434 21.7707C25.3903 21.4441 25.6548 21.1901 26.2425 20.791L26.1544 21.3716C27.3886 20.6822 28.5347 19.5573 30.2979 19.1582C30.2979 18.6865 28.6228 18.5051 30.2979 17.4528C30.4448 17.6705 30.6211 18.0334 30.1803 18.3237C30.3273 18.2148 30.6799 17.8882 31.0032 17.8882L30.386 18.5777C31.2089 18.4325 30.7093 18.0697 31.3264 17.852C31.4146 18.2148 31.8554 17.9245 31.826 18.2148C31.6791 18.3237 31.2676 18.2874 31.0619 18.5051C31.7672 18.2874 32.6488 18.1422 33.0015 18.2874C32.8839 18.106 32.8839 17.8157 33.3835 17.598C34.7059 17.09 33.9418 17.852 34.7353 17.7431C34.9997 17.3803 35.9107 17.344 35.7932 16.7997C36.1752 16.6546 36.3221 16.8723 36.4985 16.9811C37.145 16.5094 39.7016 15.8563 38.82 15.566H38.6437L38.7612 15.5298C40.9358 14.2961 43.5513 14.3687 45.7846 13.5341V13.7155C47.1364 13.135 48.8115 12.7721 49.7225 12.119C50.1339 12.0102 50.7216 12.1916 50.604 12.4456C51.6326 12.0102 51.6914 11.7925 53.2488 11.7199C52.2497 12.3004 53.6603 11.9013 52.2203 12.2279C53.6015 12.0102 53.9541 12.2279 55.3353 11.357C54.9239 11.9376 56.452 11.6473 57.0691 11.357L56.07 11.2845C56.7752 11.0305 57.4218 10.9216 58.0683 10.7765L57.8038 11.4659C60.6837 11.5022 62.5938 8.99855 64.9153 9.76053C65.5912 9.17998 63.3579 9.79681 63.9456 9.17997C65.2386 8.96227 66.6785 9.54282 67.09 9.43397C68.8825 9.3614 68.5887 8.20029 70.4694 8.05516C70.2049 7.87373 69.9111 7.36575 71.2629 6.89405C72.5559 6.71263 72.9673 7.47461 72.1738 7.80117C71.88 7.87373 71.7037 7.83745 71.7037 7.80117C71.2922 7.9463 70.7633 8.16401 71.2922 8.30915L71.4392 8.05516C72.1151 8.12773 73.8489 7.76488 73.4962 8.20029C74.4366 7.80117 73.8783 7.76488 73.1436 7.80117C74.8186 7.80117 75.7296 7.32947 77.4341 7.22061C77.1402 7.14804 76.8757 6.93034 77.1402 6.89405C79.6674 6.71263 78.1981 6.27722 79.8731 5.91437C80.8723 6.09579 79.6087 6.74892 81.2837 6.20465C82.3416 6.27722 81.5482 6.74892 81.1662 6.96662C82.6649 6.3135 84.0754 6.7852 84.957 6.74892L84.1636 7.03919C84.6338 6.85777 85.0452 6.7852 85.4566 6.74892L84.957 6.38607C85.4566 6.38607 85.8386 6.34979 85.868 6.53121C86.3382 6.20465 85.4272 5.87809 86.3676 5.37011C87.0141 5.51524 88.3071 4.89841 88.5716 5.44267C86.5439 5.51524 88.8361 5.98694 87.161 6.27722C87.4843 6.16836 87.8957 6.13208 88.3659 6.13208C88.454 6.20465 88.3071 6.24093 88.1896 6.3135C90.1585 6.56749 89.0124 5.55153 91.0107 5.33382C90.7756 5.69667 91.5103 5.91437 91.8335 5.80552C91.0401 5.87809 91.4221 5.29754 92.1274 5.00726C93.4204 5.1524 93.5085 4.6807 94.1844 4.64442H93.4204C93.6555 4.24529 94.302 4.24529 95.1836 4.06386C95.2717 4.31786 94.3901 4.31786 94.7134 4.39042C95.6832 3.70102 96.9762 4.78955 98.3573 4.31786C99.0039 4.49928 98.4455 4.93469 99.0038 5.04355C100.532 4.53556 100.708 5.37011 102.325 4.93469C101.854 4.49928 101.766 4.60813 102.912 4.17272C102.031 4.28157 101.12 4.46299 100.238 4.60813L101.943 3.88244C101.12 3.88244 100.238 4.24529 99.7385 4.209C100.561 3.80987 100.473 3.91873 100.062 3.59217C101.208 4.17272 102.266 3.08418 103.559 3.48331V4.57185C105.469 5.00726 106.968 3.88244 109.465 4.209L108.672 4.02758C108.995 3.59217 110.23 3.9913 111.023 3.80987C110.935 4.17272 111.434 4.31786 111.787 4.53556C111.758 4.24529 113.609 4.57185 113.844 3.91873L114.961 4.46299C116.959 4.78955 117.312 3.5196 119.251 3.80987C118.634 4.13643 119.516 4.46299 118.193 4.64442C118.84 4.64442 119.428 4.82584 119.428 4.57185C119.78 4.82584 121.25 4.24529 121.808 4.64442C122.102 4.49928 122.219 4.13643 122.925 4.24529C123.013 4.31786 122.925 4.42671 122.925 4.42671C122.925 4.24529 124.071 4.28157 123.483 3.84616C125.393 5.18868 129.066 4.49928 130.683 5.76923C132.093 5.91437 133.798 6.13208 135.061 6.34979C134.973 6.42236 135.061 6.53121 134.797 6.45864C136.501 7.14804 136.031 5.66038 137.941 6.49492C138.852 7.32947 136.854 6.53121 137.442 6.93034C137.53 8.12773 139.851 7.36575 141.027 8.418H140.703C141.614 9.07112 143.231 8.67199 144.818 9.3614C144.818 9.3614 144.729 9.43397 144.759 9.54282C145.993 9.3614 148.138 10.0508 149.696 10.5951C149.079 10.8128 148.932 10.4862 149.079 11.0668C149.784 11.3208 149.079 10.2685 150.489 10.8128C150.842 11.2482 151.753 11.9739 151.694 12.5181C151.283 12.3004 150.871 12.0827 150.46 11.865C150.901 12.7721 152.047 12.7359 152.664 13.2076L152.488 13.4253C154.339 14.4775 154.662 13.8607 156.543 15.3483L156.455 15.0218C157.807 15.2758 157.16 16.0015 158.394 16.4732V17.3077C159.1 17.7068 160.892 18.9042 162.038 20.029C161.157 19.7025 159.746 18.5414 158.776 18.0334C159.393 18.6139 160.863 20.0653 161.333 20.1742C161.068 19.9565 160.657 19.775 160.51 19.4122C161.539 19.775 162.655 20.6822 163.684 22.2061C163.155 22.5327 163.801 23.5123 164.448 24.746C165.124 25.9434 165.8 27.4311 165.682 28.3019C167.328 31.0232 167.739 34.4703 168.268 38.1713C168.973 36.6473 168.415 39.2961 169.267 38.9332C169.385 39.8404 169.414 40.2032 169.355 40.2758C169.179 41.2192 169.062 42.1626 168.797 43.0334C168.503 43.6502 168.65 42.1626 168.444 42.2351C168.239 44.1219 168.004 42.9971 167.68 44.1945C168.033 43.9768 168.033 44.9202 167.769 45.9361L168.386 44.521C168.444 45.8999 168.18 46.4441 167.827 46.9158C167.504 47.4238 167.24 47.8955 167.063 49.2017V48.2946C166.916 49.6734 165.329 52.6488 165.124 54.209C164.918 54.3179 164.565 54.3541 164.83 53.8462C163.184 56.3135 160.863 59.6154 158.688 60.3774L158.776 60.0145C158.365 60.4136 158.159 60.9942 157.483 61.1031C157.483 60.9942 157.571 60.7402 157.366 60.8491C157.16 61.1031 156.249 61.9739 155.544 62.1553L156.014 61.5747C153.399 62.5181 152.223 64.0421 149.96 64.9855C149.813 64.2235 147.609 64.6226 146.522 64.7315V64.6226C143.319 65.3483 141.115 66.5094 138.088 67.4528C136.09 66.9811 131.623 68.2511 128.508 68.2148C128.978 68.2874 128.508 68.8316 127.95 69.0131C127.215 68.9405 126.01 69.8476 126.069 69.0856H126.333C125.716 68.4325 124.276 68.8316 123.13 68.9405L123.013 69.9202C119.898 68.9042 115.108 71.2627 113.403 70.1379C112.698 70.4282 111.787 70.4644 111.052 70.7547V70.2467C109.054 70.2467 108.026 70.2467 105.528 70.4644L106.027 70.0653C104.617 70.0653 104.293 71.6255 102.971 71.6981L102.56 70.9361C100.091 71.0087 97.5933 70.3556 95.1542 71.0087C95.1836 70.8999 95.2717 70.6821 95.6538 70.6459C94.4783 70.6459 91.187 70.0653 91.569 71.1176C91.569 70.4282 89.0418 70.9724 87.69 71.2264L87.9251 70.7184C86.779 71.299 86.7496 71.4804 85.1627 71.553C84.7807 71.4804 84.8395 71.1176 85.3391 71.299C84.1048 70.9724 84.3399 71.7344 82.8706 71.3716L83.4583 71.0813C82.1947 70.9724 82.2828 71.1176 81.5482 71.4441C80.7254 71.5893 79.1385 71.1176 78.9622 70.6459C78.7858 70.8999 78.0512 71.2264 77.3165 71.0087C77.2283 70.8273 77.4928 70.7547 77.6398 70.7184C75.5239 70.1379 74.4366 70.9724 72.9967 70.3193C72.9967 70.1379 72.8791 70.0653 72.7616 69.9927C74.4366 70.1742 75.8178 70.3556 75.6709 70.3556C75.7002 69.8839 74.3485 69.6662 75.4651 69.1219C74.3485 69.3759 72.4089 69.9202 71.1159 69.521C71.0572 69.4848 70.9984 69.4122 70.9396 69.3396H71.0865C70.7927 69.2308 70.4988 69.2308 70.2343 69.2671C69.8229 69.1219 69.5584 69.0493 69.147 68.9768C69.0295 68.5776 67.6189 68.5776 66.943 68.4325C66.943 68.9405 66.0614 68.7228 66.8549 69.2671C66.7373 69.2308 67.0018 69.2308 67.4426 69.2671C67.5601 69.2671 67.6777 69.2671 67.7365 69.2671H67.6777C68.1185 69.3396 68.7062 69.4122 69.3821 69.4848C68.8238 69.6662 68.236 69.8113 67.5014 69.4485C67.1193 69.7387 66.7079 69.9927 66.4728 70.1379C65.6206 69.3033 63.8574 68.6502 63.6517 68.1785C61.5653 68.1422 58.8029 67.5254 57.3924 68.1785C56.8046 68.1785 56.7459 67.7794 56.5695 67.5617C56.9222 67.5617 57.3042 67.6343 57.5099 67.5617C56.3051 67.5617 54.0717 66.8723 53.6896 67.4528C52.2791 66.7634 54.6006 67.0537 52.6023 66.6546L52.8962 66.5094C49.2229 64.3687 46.1667 66.328 42.2582 63.2076C42.5227 63.4253 42.6697 63.4978 42.699 63.643C38.0853 61.1031 32.737 59.3614 28.9755 55.1161C27.8882 53.9913 27.6237 54.1727 26.7421 53.8099V53.1568C26.2719 52.939 25.743 52.7939 25.2728 52.5399C24.3618 51.8505 23.8622 50.8708 23.2745 49.8549C22.7455 48.8026 22.2166 47.7141 21.0411 46.807V47.3512C20.4534 46.4441 19.0722 44.5573 19.4248 44.4848C19.3367 44.4485 18.984 44.4122 18.8959 43.9405L19.0722 43.7591C18.5138 43.0697 18.0437 42.3077 17.5147 41.582C16.78 39.5501 18.3669 41.3643 17.2502 38.4978C16.78 37.4819 15.487 35.7765 15.487 36.2482C15.6339 36.6836 15.7809 37.4456 15.5752 37.5907L15.0756 36.6473C14.3703 36.7925 13.4006 36.2482 13.9589 39.1509L15.0168 40.7475C15.0168 41.0015 14.9581 41.2554 14.9581 41.5094L14.3409 39.9855C14.3997 41.0377 14.8405 41.4732 15.3107 41.9086C15.2225 42.1626 15.2519 42.4891 15.3401 42.852L16.7213 44.1219C16.6037 44.521 15.8984 43.7228 16.3392 44.9565C16.9857 45.537 16.4568 43.7954 17.2796 44.9565C17.4853 45.9361 17.1621 45.8999 17.9261 46.5893C17.8673 46.8433 17.6616 46.7344 17.3678 46.4441C18.0437 47.0972 18.7489 48.5123 19.3073 48.6212C19.5718 49.6734 21.2468 51.016 20.7472 51.4877C21.0117 51.6328 22.1284 52.2859 22.7161 52.8665C21.188 52.4673 24.7732 55.1887 24.0091 55.6604C25.2728 55.733 27.1241 58.1277 28.8873 58.7808C28.7698 58.7808 28.5347 58.7808 28.4465 58.6357C29.2694 59.3614 29.4163 59.7605 29.8865 60.3411C30.2685 59.8331 31.7084 60.5588 32.6194 60.6676C33.4423 61.9739 31.6497 60.9942 31.7378 61.7925C31.9141 61.2482 33.8243 62.5181 33.648 61.8287C34.3532 62.6996 34.2945 62.4093 34.5296 63.2076C34.9704 62.4819 35.3818 63.5341 36.2634 63.4253C37.3507 64.5138 36.3221 64.4049 37.7621 64.8041C38.3498 65.3846 36.998 65.0581 36.998 65.0581L36.9687 65.1669ZM71.2041 72.7504C70.9102 72.7504 70.6457 72.7141 70.4988 72.7141C70.6457 72.7141 70.8514 72.7141 71.2041 72.7504ZM74.084 73.0769C73.7313 73.0406 73.2905 72.9681 72.8204 72.9318C72.7322 72.7504 72.8497 72.5689 73.1436 72.6052C72.9673 72.7141 73.6432 72.8955 74.084 73.0769ZM68.2948 68.8316C68.765 68.8316 68.8825 68.9405 68.9413 69.0493C68.7356 69.0493 68.4711 69.0493 68.1479 69.0131L68.0891 69.0856C68.0891 69.0856 68.2066 68.9042 68.2948 68.8679V68.8316Z" fill="#2E68B8"/>
<path d="M67.4127 69.4122C67.4127 69.4122 67.2951 69.4122 67.2363 69.4122C67.3245 69.4847 67.4126 69.521 67.5008 69.5573L67.6771 69.4122H67.442H67.4127Z" fill="#2E68B8"/>
<path d="M38.9075 15.6386H38.9663C38.9663 15.6386 38.8781 15.6386 38.8193 15.6023C38.8781 15.6023 38.8781 15.6023 38.9075 15.6386Z" fill="#2E68B8"/>
<path d="M114.079 74.7097V74.5646L113.844 74.7097H114.079Z" fill="#2E68B8"/>
<path d="M17.2206 24.2743L16.3096 24.7823C16.721 24.5646 16.9855 24.3831 17.2206 24.2743Z" fill="#2E68B8"/>
<path d="M12.6953 27.939C12.6953 27.939 12.6953 28.1204 12.7242 28.193L12.6953 27.939Z" fill="#2E68B8"/>
<path d="M93.6553 1.23367H93.861C94.3312 1.05225 94.0079 1.12482 93.6553 1.23367Z" fill="#2E68B8"/>
<path d="M68.8826 6.27724C69.1177 6.1321 69.3821 5.98697 69.6466 5.87811C69.2058 5.9144 68.8532 5.98697 68.8826 6.27724Z" fill="#2E68B8"/>
<path d="M121.778 0.507996L121.955 0.54428L121.778 0.507996Z" fill="#2E68B8"/>
<path d="M70.7926 5.6604C70.3518 5.6604 69.9697 5.73297 69.6465 5.87811C69.9991 5.84182 70.4399 5.80554 70.7926 5.6604Z" fill="#2E68B8"/>
<path d="M0.205258 52.1408L0.146484 52.4674C0.146484 52.4674 0.205258 52.4674 0.205258 52.5037V52.1408Z" fill="#2E68B8"/>
<path d="M0.176758 52.5036V52.8664C0.176758 52.8664 0.204607 52.5762 0.176758 52.5036Z" fill="#2E68B8"/>
<path d="M0.206031 53.6647V52.8665C0.147258 53.1204 0.117871 53.447 0.206031 53.6647Z" fill="#2E68B8"/>
<path d="M2.6155 43.6502L2.52734 43.4688C2.52734 43.4688 2.55673 43.5777 2.6155 43.6502Z" fill="#2E68B8"/>
<path d="M3.58553 41.2192C3.32105 41.7634 2.67455 42.4528 2.43945 43.36L2.52761 43.5051C2.43945 42.9608 3.58553 41.9086 3.58553 41.2192Z" fill="#2E68B8"/>
<path d="M10.3144 33.7083C9.87361 34.18 9.49158 34.7242 9.05078 35.2322C9.37403 35.0871 9.78545 34.8694 9.31526 35.6313C11.1078 33.9985 8.72753 35.7402 10.3144 33.7083Z" fill="#2E68B8"/>
<path d="M14.4582 29.4267C13.7823 30.225 14.6051 29.6444 14.6345 29.7533C14.9871 29.1365 15.1047 29.0276 14.4582 29.4267Z" fill="#2E68B8"/>
<path d="M51.0741 12.5544V13.0261C51.7794 12.7721 51.0447 12.8447 51.0741 12.5544Z" fill="#2E68B8"/>
<path d="M58.1565 8.27285L57.3924 8.164L57.1279 8.67198L58.1565 8.27285Z" fill="#2E68B8"/>
<path d="M63.0634 10.4499L62.7695 10.5951L63.945 10.1597L63.0634 10.4499Z" fill="#2E68B8"/>
<path d="M129.125 5.95067L128.978 5.37012C128.479 5.37012 128.302 6.02324 129.125 5.95067Z" fill="#2E68B8"/>
<path d="M156.249 15.3121C156.396 15.7475 156.954 16.4369 157.483 16.5457C156.984 16.074 156.543 15.4935 156.249 15.3121Z" fill="#2E68B8"/>
<path d="M121.455 69.3759L122.013 69.1219L120.926 69.4122L121.455 69.3759Z" fill="#2E68B8"/>
</g>
<defs>
<clipPath id="clip0_62_1438">
<rect width="172" height="75" fill="white"/>
</clipPath>
</defs>
</svg>
